<svg width="21" height="21" viewBox="0 0 21 21" fill="none" xmlns="http://www.w3.org/2000/svg">
<path d="M12.6975 4.79125C13.0283 4.40999 13.2805 3.96715 13.4397 3.48814C13.5989 3.00914 13.6618 2.50341 13.625 2C12.6095 2.08198 11.6668 2.55961 11 3.33C10.6807 3.69923 10.4388 4.12877 10.2885 4.59319C10.1382 5.05761 10.0826 5.54746 10.125 6.03375C10.6204 6.03788 11.1101 5.92796 11.5562 5.7125C12.0022 5.49704 12.3928 5.18183 12.6975 4.79125ZM14.9025 11.3013C14.9084 10.6308 15.085 9.97284 15.4157 9.38955C15.7464 8.80626 16.2202 8.31685 16.7925 7.9675C16.4313 7.44708 15.9539 7.01798 15.398 6.71422C14.8421 6.41045 14.2231 6.24038 13.59 6.2175C12.225 6.0775 10.965 7.01375 10.2388 7.01375C9.51251 7.01375 8.48876 6.235 7.35126 6.2525C6.60763 6.277 5.88303 6.49381 5.24816 6.88179C4.61328 7.26977 4.0898 7.81567 3.72876 8.46625C2.18876 11.1438 3.33501 15.125 4.87501 17.2862C5.57501 18.345 6.45001 19.5438 7.60501 19.5C8.76001 19.4562 9.13626 18.7825 10.475 18.7825C11.8138 18.7825 12.225 19.5 13.3625 19.4737C14.5 19.4475 15.305 18.3888 16.04 17.33C16.5607 16.5613 16.9674 15.7214 17.2475 14.8363C16.5541 14.5405 15.9624 14.0481 15.5457 13.4199C15.1289 12.7917 14.9053 12.0551 14.9025 11.3013Z" fill="black"/>
</svg>
