<svg width="24" height="24" viewBox="0 0 24 24" fill="none" xmlns="http://www.w3.org/2000/svg">
    <path
        d="M19.7143 10.4296H6.85714L11.0871 6.19959C11.2077 6.08007 11.3033 5.93787 11.3686 5.78119C11.4338 5.62451 11.4675 5.45646 11.4675 5.28673C11.4675 5.117 11.4338 4.94895 11.3686 4.79228C11.3033 4.6356 11.2077 4.4934 11.0871 4.37388C10.8462 4.13441 10.5204 4 10.1807 4C9.84105 4 9.51518 4.13441 9.27429 4.37388L3.75857 9.90245C3.27567 10.3825 3.00287 11.0344 3 11.7153C3.00626 12.3917 3.2788 13.0384 3.75857 13.5153L9.27429 19.0439C9.39416 19.1629 9.53631 19.2572 9.69262 19.3213C9.84892 19.3854 10.0163 19.418 10.1853 19.4174C10.3542 19.4169 10.5214 19.383 10.6772 19.3178C10.8331 19.2526 10.9745 19.1573 11.0936 19.0374C11.2126 18.9176 11.3069 18.7754 11.371 18.6191C11.4351 18.4628 11.4677 18.2954 11.4671 18.1265C11.4665 17.9575 11.4327 17.7904 11.3675 17.6345C11.3023 17.4787 11.207 17.3372 11.0871 17.2182L6.85714 13.001H19.7143C20.0553 13.001 20.3823 12.8656 20.6234 12.6244C20.8645 12.3833 21 12.0563 21 11.7153C21 11.3743 20.8645 11.0473 20.6234 10.8062C20.3823 10.565 20.0553 10.4296 19.7143 10.4296Z"
        fill="black
" />
</svg>
