<svg width="53" height="60" viewBox="0 0 53 60" fill="none" xmlns="http://www.w3.org/2000/svg">
<g clip-path="url(#clip0_959_25043)">
<path d="M23.5546 29.5329C23.4796 29.5329 23.4296 29.5579 23.3921 29.5954C23.3421 29.6454 23.3046 29.733 23.292 29.833C23.017 31.9959 22.7419 33.6588 22.4669 35.3216C22.1918 36.972 21.9168 38.6348 21.6542 40.7728L21.1416 40.7103C21.4167 38.5598 21.6917 36.897 21.9543 35.2466C22.2293 33.5838 22.5044 31.9209 22.7669 29.7705C22.7919 29.5704 22.8795 29.3704 23.017 29.2329C23.1545 29.0953 23.3296 29.0078 23.5546 29.0078V29.5329Z" fill="white"/>
<path d="M21.1417 40.7687L16.0781 11.3375L16.5907 11.25L21.6543 40.6811L21.1417 40.7687Z" fill="white"/>
<path d="M16.066 11.3392C16.066 11.2517 16.016 11.2142 15.9785 11.1892C15.9535 11.1767 15.916 11.1767 15.8785 11.1767C15.8285 11.1767 15.7785 11.1892 15.7285 11.2267C15.6284 11.2767 15.5534 11.3642 15.5409 11.4767L15.0283 11.4142C15.0658 11.1142 15.2534 10.8891 15.4909 10.7641C15.6034 10.7016 15.716 10.6766 15.841 10.6641C15.966 10.6641 16.1035 10.6641 16.2161 10.7391C16.4036 10.8266 16.5411 11.0016 16.5786 11.2767L16.066 11.3517V11.3392Z" fill="white"/>
<path d="M1.65083 30.0679H13.5908V30.5931H1.65083V30.0679ZM15.5537 11.4766L13.3533 29.5303H1.42578V29.0052H12.8907L15.0286 11.4141L15.5412 11.4766H15.5537Z" fill="white"/>
<path d="M13.5898 30.0657C13.6649 30.0657 13.7149 30.0407 13.7649 30.0032C13.8149 29.9532 13.8524 29.8656 13.8649 29.7656L14.3775 29.8281C14.3525 30.0407 14.265 30.2282 14.1275 30.3658C13.9899 30.5033 13.8149 30.5908 13.5898 30.5908V30.0657Z" fill="white"/>
<path d="M13.8525 29.7565L15.853 13.5781L21.1916 44.5721L20.679 44.6596L15.928 17.1414L14.3651 29.8315L13.8525 29.769V29.7565Z" fill="white"/>
<path d="M21.1919 44.5843C21.1919 44.6593 21.2419 44.7093 21.2794 44.7343C21.3044 44.7468 21.3419 44.7468 21.3794 44.7468C21.4295 44.7468 21.4795 44.7343 21.5295 44.6968C21.6295 44.6468 21.7045 44.5593 21.717 44.4468C22.0546 41.7587 22.4047 39.5583 22.7422 37.3578C23.0798 35.1698 23.4174 32.9819 23.7549 30.2938L23.7799 30.0688H33.3944C33.3944 30.0688 33.5195 30.0438 33.5695 30.0063C33.607 29.9813 33.632 29.9438 33.6445 29.9062L34.1571 29.9813C34.1321 30.1688 34.0196 30.3188 33.8821 30.4189C33.7445 30.5314 33.557 30.5939 33.3819 30.5939H24.2175C23.8925 33.1694 23.5549 35.3074 23.2298 37.4453C22.8923 39.6333 22.5547 41.8337 22.2046 44.5218C22.1671 44.8094 21.9796 45.0469 21.742 45.1719C21.6295 45.2344 21.5045 45.2719 21.392 45.2719C21.2669 45.2719 21.1419 45.272 21.0169 45.1969C20.8418 45.1094 20.7043 44.9344 20.6543 44.6593L21.1669 44.5843H21.1919Z" fill="white"/>
<path d="M33.6572 29.8827L35.2326 22.7812L39.7085 40.4724L39.2084 40.5975L35.2701 25.0192L34.1698 29.9828L33.6697 29.8702L33.6572 29.8827Z" fill="white"/>
<path d="M39.7212 40.4834C39.7337 40.5459 39.7837 40.5959 39.8462 40.6209C39.8962 40.6459 39.9463 40.6584 39.9963 40.6584C40.0463 40.6584 40.0963 40.6584 40.1338 40.6209C40.1838 40.5959 40.2213 40.5584 40.2213 40.4959L41.8842 30.2812L42.3968 30.3688L40.7339 40.5834C40.6964 40.8209 40.5589 40.996 40.3713 41.0835C40.2588 41.146 40.1213 41.1835 39.9838 41.1835C39.8462 41.1835 39.7212 41.1585 39.5962 41.096C39.3961 41.0085 39.2336 40.8335 39.1836 40.5959L39.6962 40.4834H39.7212Z" fill="white"/>
<path d="M51.7735 30.0703H42.1465V30.5954H51.7735V30.0703Z" fill="white"/>
<path d="M51.9857 29.0078H41.6836V29.5329H51.9857V29.0078Z" fill="white"/>
<path d="M41.6959 29.5298C41.6959 29.5298 41.5709 29.5548 41.5209 29.5923C41.4834 29.6173 41.4459 29.6548 41.4459 29.6923L40.1581 37.594L39.6455 37.5065L40.9333 29.6048C40.9583 29.4173 41.0708 29.2672 41.2083 29.1672C41.3459 29.0547 41.5334 28.9922 41.6959 28.9922V29.5173V29.5298Z" fill="white"/>
<path d="M39.6585 37.6315L35.4326 21.3282L35.9327 21.2031L40.1586 37.5065L39.6585 37.6315Z" fill="white"/>
<path d="M35.4199 21.3017C35.4074 21.2392 35.3574 21.1892 35.2949 21.1642C35.2449 21.1392 35.1949 21.1267 35.1449 21.1267C35.0949 21.1267 35.0449 21.1267 35.0074 21.1642C34.9573 21.1892 34.9323 21.2267 34.9198 21.2892L34.4072 21.2142C34.4447 20.9766 34.5823 20.8016 34.7573 20.7016C34.8698 20.6391 35.0074 20.6016 35.1324 20.6016C35.2574 20.6016 35.3949 20.6266 35.5075 20.6766C35.7075 20.7641 35.87 20.9391 35.9325 21.1892L35.4199 21.3017Z" fill="white"/>
<path d="M34.4074 21.2031L32.707 29.2173L33.2196 29.3298L34.92 21.3156L34.4074 21.2031Z" fill="white"/>
<path d="M32.9566 29.0078H23.5547V29.5329H32.9566V29.0078Z" fill="white"/>
<path fill-rule="evenodd" clip-rule="evenodd" d="M23.5554 29.2679C23.2428 29.2679 23.0678 29.5054 23.0303 29.793C22.4802 34.0939 21.9426 36.4319 21.3924 40.7203L16.3289 11.2891C16.2289 10.6515 15.3537 10.8891 15.2912 11.4267L13.1157 29.2554H1.42578C1.5008 29.6055 1.57581 29.968 1.65083 30.3181H13.5908C13.9034 30.3181 14.0909 30.0806 14.1159 29.7805L15.8913 15.34L20.9298 44.5961C21.0299 45.2462 21.905 44.9962 21.9676 44.4586C22.6427 39.0824 23.3303 35.6817 24.0055 30.3056H33.3949C33.6075 30.3056 33.87 30.1431 33.9076 29.918L35.2453 23.8918L39.4587 40.5202C39.5712 41.0203 40.3964 41.0453 40.4714 40.5202C41.0215 37.1195 41.5716 33.7063 42.1343 30.3056H51.7613C51.8363 29.9555 51.9113 29.6055 51.9863 29.2429H41.6842C41.4716 29.2429 41.2091 29.4054 41.1716 29.6305C40.7465 32.2685 40.3214 34.8941 39.8838 37.5321L35.6579 21.2287C35.5454 20.7411 34.7202 20.7036 34.6452 21.2287L32.9448 29.2429H23.5429" fill="white"/>
<path d="M50.8607 32.4563C51.0607 31.7562 51.2358 31.0435 51.3983 30.3309H41.7838C41.2337 33.7316 40.6836 37.1448 40.121 40.5455C40.0335 41.0706 39.2083 41.0456 39.1083 40.5455L38.8582 40.608L34.9199 25.0298L33.8197 29.9683C33.7947 30.1558 33.6821 30.3059 33.5571 30.4059C33.4196 30.5184 33.232 30.5809 33.057 30.5809H23.8926C23.5675 33.1565 23.23 35.2944 22.9049 37.4324C22.5673 39.6203 22.2297 41.8208 21.8797 44.5088C21.8422 44.7964 21.6546 45.0339 21.4171 45.159C21.3046 45.2215 21.1795 45.259 21.067 45.259C20.942 45.259 20.8169 45.259 20.6919 45.184C20.5169 45.0964 20.3794 44.9214 20.3293 44.6589L15.5909 17.1406L14.028 29.8308C14.003 30.0308 13.9155 30.2309 13.778 30.3684C13.6405 30.5059 13.4654 30.5934 13.2404 30.5934H1.33789C1.48792 31.2186 1.63795 31.8437 1.81299 32.4563C7.80174 53.4357 26.3306 60.0121 26.3306 60.0121C26.3306 60.0121 44.8595 53.4357 50.8482 32.4563H50.8607Z" fill="#01CE87"/>
<path d="M3.12525 5.53553C-0.125426 5.43551 0.149631 7.62347 0.149631 7.62347C-0.000400324 14.6874 -0.337971 22.214 1.04982 29.253V29.0029H12.5147L14.6527 11.4118C14.6902 11.1117 14.8777 10.8866 15.1152 10.7616C15.2278 10.6991 15.3403 10.6741 15.4653 10.6616C15.5903 10.6616 15.7279 10.6616 15.8404 10.7366C16.0279 10.8241 16.1655 10.9992 16.203 11.2617L20.979 39.0175C21.179 37.6297 21.3791 36.4295 21.5666 35.2292C21.8416 33.5664 22.1167 31.9035 22.3793 29.7531C22.4043 29.553 22.4918 29.353 22.6293 29.2155C22.7668 29.0779 22.9419 28.9904 23.1669 28.9904H32.3563L34.0192 21.1888C34.0567 20.9637 34.1942 20.7887 34.3693 20.7012C34.4818 20.6387 34.6193 20.6012 34.7443 20.6012C34.8694 20.6012 35.0069 20.6262 35.1194 20.6762C35.3195 20.7637 35.482 20.9387 35.532 21.1763L39.6078 36.9171C40.0079 34.4916 40.3955 32.0661 40.7956 29.6406C40.8331 29.4155 41.0832 29.253 41.3082 29.253H51.5978C52.9856 22.214 52.6606 14.6749 52.5105 7.62347C52.5105 7.62347 52.7856 5.43551 49.5349 5.52303C39.4203 5.81059 29.1807 -0.015625 26.3176 -0.015625C23.4545 -0.015625 13.1898 5.82309 3.12525 5.53553Z" fill="#197BFF"/>
<path d="M22.655 29.7955C22.6925 29.5079 22.8676 29.2704 23.1801 29.2704V29.0078C22.9551 29.0078 22.7801 29.0953 22.6425 29.2329C22.505 29.3704 22.4175 29.5704 22.3925 29.7705C22.1174 31.9084 21.8424 33.5713 21.5798 35.2466C21.3798 36.4469 21.1797 37.6471 20.9922 39.0349L21.1422 39.8851C21.6548 36.1218 22.1549 33.8213 22.6675 29.8205L22.655 29.7955Z" fill="white"/>
<path d="M15.9783 11.3H15.9658L20.8793 39.856C20.9169 39.5684 20.9544 39.2808 21.0044 39.0058L16.2284 11.25L15.9908 11.2875L15.9783 11.3Z" fill="white"/>
<path d="M21.017 40.7207C21.0545 40.4206 21.092 40.133 21.1295 39.858L20.9795 39.0078C20.942 39.2829 20.9045 39.5579 20.8545 39.858L21.0045 40.7207H21.017Z" fill="white"/>
<path d="M15.9536 11.2986H15.9661L16.2036 11.2486C16.1536 10.986 16.0161 10.811 15.8411 10.7235C15.7285 10.6734 15.591 10.6484 15.466 10.6484C15.341 10.6484 15.2284 10.6984 15.1159 10.7485C14.8784 10.8735 14.6908 11.0985 14.6533 11.3986L14.9034 11.4236C14.9659 10.886 15.8411 10.6359 15.9411 11.2861L15.9536 11.2986Z" fill="white"/>
<path d="M1.0498 29.2656V29.5282H1.09982C1.09982 29.5282 1.07481 29.4157 1.06231 29.3531C1.06231 29.3281 1.06231 29.2906 1.0498 29.2656Z" fill="white"/>
<path d="M1.27539 30.3281V30.5907H1.3379C1.3254 30.5032 1.3004 30.4156 1.27539 30.3281Z" fill="white"/>
<path d="M1.28809 30.3281C1.30059 30.4156 1.32559 30.5032 1.3506 30.5907H13.2281V30.3281H1.28809Z" fill="white"/>
<path d="M12.7522 29.2678L14.9277 11.4391L14.6651 11.4141L12.5272 29.0052H1.0498V29.2553H12.7397L12.7522 29.2678Z" fill="white"/>
<path d="M1.0752 29.3594C1.0752 29.3594 1.1002 29.4719 1.1127 29.5344C1.1127 29.4844 1.0877 29.4219 1.0752 29.3594Z" fill="white"/>
<path d="M13.7526 29.7969C13.7151 30.0844 13.5401 30.322 13.2275 30.322V30.5845C13.4526 30.5845 13.6276 30.497 13.7652 30.3595C13.9027 30.222 13.9902 30.0219 14.0152 29.8219L13.8152 29.7969H13.7652H13.7526Z" fill="white"/>
<path d="M20.5669 44.6233L15.5283 15.3672L13.7529 29.8077H13.8029L14.003 29.8327L15.5658 17.1426L20.3168 44.6608L20.5669 44.6108V44.6233Z" fill="white"/>
<path d="M33.5442 29.9453C33.5067 30.1704 33.2566 30.3329 33.0316 30.3329H23.6421C22.967 35.709 22.2793 39.1097 21.6042 44.4858C21.5417 45.0235 20.6665 45.2735 20.5665 44.6234L20.3164 44.6734C20.3539 44.9359 20.4914 45.111 20.679 45.1985C20.7915 45.261 20.929 45.286 21.0541 45.2735C21.1791 45.2735 21.2916 45.2235 21.4041 45.1735C21.6417 45.0485 21.8292 44.8234 21.8667 44.5233C22.2043 41.8353 22.5419 39.6348 22.8919 37.4469C23.217 35.3089 23.5546 33.1835 23.8796 30.5954H33.0441C33.2066 30.5954 33.3941 30.5329 33.5442 30.4204C33.6817 30.3204 33.7817 30.1704 33.8067 29.9953L33.5567 29.9453H33.5442Z" fill="white"/>
<path d="M33.5449 29.9434L33.8075 29.9809L34.9077 25.0424L38.846 40.6207L39.0961 40.5581L34.8827 23.9297L33.5449 29.9559V29.9434Z" fill="white"/>
<path d="M33.7948 29.9953L33.5322 29.9453L33.7823 29.9953H33.7948Z" fill="white"/>
<path d="M35.3076 21.2578L39.5335 37.5612C39.571 37.3487 39.596 37.1361 39.6335 36.9236L35.5577 21.1953L35.3076 21.2453V21.2578Z" fill="white"/>
<path d="M35.3077 21.2548L35.5577 21.1923C35.5077 20.9548 35.3327 20.7797 35.1452 20.6922C35.0326 20.6422 34.8951 20.6172 34.7701 20.6172C34.645 20.6172 34.5075 20.6547 34.395 20.7172C34.22 20.8172 34.0949 20.9798 34.0449 21.2048L34.295 21.2548C34.37 20.7297 35.2077 20.7672 35.3077 21.2548Z" fill="white"/>
<path d="M32.5817 29.2673L34.282 21.2531L34.032 21.2156C34.032 21.2156 34.032 21.2156 34.032 21.2031L32.3691 29.0048H32.5817V29.2673Z" fill="white"/>
<path d="M34.2823 21.2531L34.0322 21.2031C34.0322 21.2031 34.0322 21.2031 34.0322 21.2156L34.2948 21.2531H34.2823Z" fill="white"/>
<path d="M32.5818 29.2657L32.3318 29.2157L32.3818 29.0156H23.1924V29.2782H32.5943L32.5818 29.2657Z" fill="white"/>
<path d="M32.5819 29.2704V29.0078H32.3693L32.3193 29.2079L32.5819 29.2579V29.2704Z" fill="white"/>
<path d="M51.3982 30.3298C51.4483 30.1173 51.4858 29.8922 51.5358 29.6797C51.4858 29.8922 51.4358 30.1173 51.3857 30.3298H51.3982Z" fill="white"/>
<path d="M51.6229 29.2656C51.6229 29.2656 51.6229 29.3281 51.6104 29.3531C51.6104 29.3281 51.6229 29.2906 51.6229 29.2656Z" fill="white"/>
<path d="M1.1377 29.6953C1.18771 29.9079 1.22521 30.1079 1.27522 30.3204V30.2954C1.22521 30.0954 1.18771 29.8954 1.1377 29.6953Z" fill="white"/>
<path d="M40.8206 29.6538C40.433 32.0794 40.0329 34.5049 39.6453 36.9304L39.7954 37.5055L39.2953 37.6305L35.0694 21.3271L35.3069 21.2646L35.0694 21.3146C35.0569 21.2521 35.0069 21.2021 34.9444 21.1771C34.8943 21.1521 34.8443 21.1396 34.7943 21.1396C34.7443 21.1396 34.6943 21.1396 34.6568 21.1771C34.6068 21.2021 34.5818 21.2396 34.5693 21.3021L34.3067 21.2646L34.5693 21.3146L32.8689 29.3288L32.6189 29.2788V29.5413H23.2169C23.1419 29.5413 23.0919 29.5663 23.0544 29.6038C23.0044 29.6538 22.9669 29.7414 22.9544 29.8414C22.6793 32.0043 22.4042 33.6672 22.1292 35.33C21.8541 36.9804 21.5791 38.6432 21.3165 40.7812L21.054 40.7437L20.8039 40.7937L15.7404 11.3625L16.0029 11.3125L15.7404 11.35C15.7404 11.2625 15.6903 11.225 15.6528 11.2C15.6278 11.1875 15.5903 11.1875 15.5528 11.1875C15.5028 11.1875 15.4528 11.2 15.4028 11.2375C15.3028 11.2875 15.2277 11.375 15.2152 11.4876L13.0148 29.5413H1.1123C1.1123 29.5413 1.13731 29.6538 1.14981 29.7164C1.18732 29.9164 1.23733 30.1164 1.28734 30.3165V30.0789H13.2273C13.3023 30.0789 13.3524 30.0539 13.4024 30.0164C13.4524 29.9664 13.4899 29.8789 13.5024 29.7789L13.7649 29.8039L13.5024 29.7664L15.5028 13.5755L20.8414 44.5695L20.5789 44.6195L20.8414 44.582C20.8414 44.657 20.8914 44.707 20.9289 44.732C20.9539 44.7445 20.9914 44.7445 21.029 44.7445C21.079 44.7445 21.129 44.732 21.179 44.6945C21.279 44.6445 21.354 44.5569 21.3665 44.4444C21.7041 41.7564 22.0542 39.5559 22.3917 37.3555C22.7293 35.1675 23.0669 32.9795 23.4044 30.2915L23.4295 30.0664H33.044C33.044 30.0664 33.169 30.0414 33.219 30.0039C33.2565 29.9789 33.2815 29.9414 33.294 29.9039L33.5566 29.9414L33.3065 29.8914L34.8818 22.7899L39.3578 40.4811L39.1077 40.5436C39.2202 41.0437 40.0454 41.0687 40.1204 40.5436C40.6705 37.1429 41.2207 33.7297 41.7833 30.329H51.3978C51.4478 30.1164 51.4978 29.8914 51.5478 29.6789C51.5728 29.5663 51.5978 29.4663 51.6103 29.3538C51.6103 29.3288 51.6103 29.2913 51.6228 29.2663H41.3332C41.1206 29.2663 40.8581 29.4288 40.8206 29.6538Z" fill="white"/>
<path d="M23.1921 29.2656C22.8795 29.2656 22.7045 29.5032 22.6669 29.7907C22.1668 33.7916 21.6542 36.092 21.1416 39.8553L21.2792 40.6805L21.0166 40.7305L21.2792 40.768C21.5542 38.6301 21.8168 36.9797 22.0918 35.3169C22.3669 33.654 22.6419 31.9912 22.917 29.8282C22.917 29.7282 22.967 29.6407 23.017 29.5907C23.0545 29.5532 23.117 29.5282 23.1796 29.5282V29.2656H23.1921Z" fill="white"/>
<path d="M20.7667 40.6983C20.8042 40.4107 20.8417 40.1357 20.8792 39.8606L15.9657 11.3047L15.7031 11.3547L20.7667 40.7858L21.0292 40.7358L20.7667 40.6983Z" fill="white"/>
<path d="M21.0165 40.7299L20.8664 39.8672C20.8289 40.1297 20.7914 40.4173 20.7539 40.7049L21.0165 40.7424V40.7299Z" fill="white"/>
<path d="M21.1418 39.8563C21.1043 40.1313 21.0668 40.4314 21.0293 40.7189L21.2919 40.6689L21.1543 39.8438L21.1418 39.8563Z" fill="white"/>
<path d="M14.916 11.4392H14.9535L15.1661 11.4642C15.1661 11.3517 15.2536 11.2641 15.3536 11.2141C15.4036 11.1891 15.4536 11.1766 15.5036 11.1641C15.5411 11.1641 15.5787 11.1641 15.6037 11.1766C15.6412 11.1891 15.6787 11.2391 15.6912 11.3267L15.9537 11.2891C15.8537 10.6515 14.9785 10.8891 14.916 11.4267V11.4392Z" fill="white"/>
<path d="M1.0498 29.2656C1.0498 29.2656 1.0498 29.3281 1.06231 29.3531C1.06231 29.3281 1.06231 29.2906 1.0498 29.2656Z" fill="white"/>
<path d="M14.9152 11.4375L12.7397 29.2662H1.0498C1.0498 29.2662 1.0498 29.3287 1.06231 29.3537C1.06231 29.4037 1.08731 29.4663 1.09982 29.5288H12.9773L15.1777 11.475L14.9652 11.45H14.9152V11.4375Z" fill="white"/>
<path d="M13.2154 30.3329V30.0703H1.27539V30.3079C1.27539 30.3079 1.27539 30.3204 1.27539 30.3329H13.2154Z" fill="white"/>
<path d="M13.7525 29.7906L13.4899 29.7656C13.4899 29.8531 13.4399 29.9407 13.3899 30.0032C13.3524 30.0407 13.2899 30.0657 13.2148 30.0657V30.3282C13.5274 30.3282 13.7149 30.0907 13.74 29.8031L13.7525 29.7906Z" fill="white"/>
<path d="M20.5667 44.6221L20.8293 44.5721L15.4907 13.5781L13.4902 29.7565L13.7528 29.794L15.5282 15.3535L20.5667 44.6096V44.6221Z" fill="white"/>
<path d="M21.6041 44.4687C22.2793 39.0925 22.9669 35.6918 23.642 30.3157H33.0315C33.244 30.3157 33.5066 30.1532 33.5441 29.9281L33.2816 29.8906C33.2816 29.8906 33.244 29.9656 33.2065 29.9906C33.1565 30.0282 33.0815 30.0532 33.0315 30.0532H23.417L23.392 30.2782C23.0544 32.9663 22.7169 35.1542 22.3793 37.3422C22.0417 39.5426 21.6916 41.7431 21.3541 44.4312C21.3416 44.5437 21.2666 44.6312 21.1665 44.6812C21.1165 44.7062 21.0665 44.7187 21.0165 44.7312C20.979 44.7312 20.9415 44.7312 20.9165 44.7187C20.879 44.7062 20.8415 44.6562 20.829 44.5687L20.5664 44.6062C20.6664 45.2563 21.5416 45.0063 21.6041 44.4687Z" fill="white"/>
<path d="M34.8703 22.7812L33.2949 29.8827L33.545 29.9327L34.8828 23.9065L39.0961 40.5349L39.3462 40.4724L34.8703 22.7812Z" fill="white"/>
<path d="M35.3077 21.2578H35.2952L35.0576 21.3203L39.2835 37.6237L39.7836 37.4987L39.6336 36.9236C39.5961 37.1361 39.5711 37.3487 39.5335 37.5612L35.3077 21.2578Z" fill="white"/>
<path d="M34.2822 21.2517L34.5448 21.2892C34.5448 21.2892 34.5823 21.1892 34.6323 21.1642C34.6698 21.1392 34.7198 21.1267 34.7698 21.1267C34.8198 21.1267 34.8824 21.1267 34.9199 21.1642C34.9824 21.1892 35.0324 21.2392 35.0449 21.3017L35.2824 21.2517H35.2949C35.1824 20.7516 34.3572 20.7266 34.2822 21.2517Z" fill="white"/>
<path d="M34.2824 21.2578L32.582 29.272L32.8321 29.322L34.5324 21.3078L34.2824 21.2578Z" fill="white"/>
<path d="M23.1924 29.5282H32.5943V29.2656H23.1924V29.5282Z" fill="white"/>
</g>
<defs>
<clipPath id="clip0_959_25043">
<rect width="52.661" height="60" fill="white"/>
</clipPath>
</defs>
</svg>
