<svg width="21" height="21" viewBox="0 0 21 21" fill="none" xmlns="http://www.w3.org/2000/svg">
<path d="M5.21107 12.4828L4.54966 14.9519L2.13224 15.0031C1.40979 13.6631 1 12.13 1 10.5008C1 8.92537 1.38314 7.43973 2.06229 6.13159H2.06281L4.21499 6.52616L5.15778 8.66541C4.96045 9.24067 4.8529 9.85821 4.8529 10.5008C4.85298 11.1982 4.97931 11.8664 5.21107 12.4828Z" fill="#FBBB00"/>
<path d="M19.8342 8.72559C19.9433 9.30029 20.0002 9.89382 20.0002 10.5004C20.0002 11.1806 19.9287 11.8441 19.7925 12.484C19.33 14.6619 18.1215 16.5635 16.4475 17.9092L16.4469 17.9087L13.7361 17.7704L13.3525 15.3754C14.4633 14.724 15.3314 13.7045 15.7887 12.484H10.7085V8.72559H19.8342Z" fill="#518EF8"/>
<path d="M16.4475 17.9089L16.448 17.9094C14.8199 19.2181 12.7516 20.0011 10.5002 20.0011C6.88214 20.0011 3.73651 17.9789 2.13184 15.0029L5.21066 12.4827C6.01298 14.6239 8.07858 16.1482 10.5002 16.1482C11.5411 16.1482 12.5162 15.8668 13.353 15.3756L16.4475 17.9089Z" fill="#28B446"/>
<path d="M16.5675 3.1872L13.4897 5.70691C12.6237 5.16561 11.6 4.85291 10.5033 4.85291C8.02683 4.85291 5.9226 6.4471 5.16047 8.66514L2.06546 6.13132H2.06494C3.64612 3.0828 6.83142 1 10.5033 1C12.8085 1 14.9221 1.82113 16.5675 3.1872Z" fill="#F14336"/>
</svg>
