<svg width="24" height="24" viewBox="0 0 24 24" fill="none" xmlns="http://www.w3.org/2000/svg">
<path d="M9.8808 8.59873L5.29079 13.1887C5.10454 13.3761 5 13.6295 5 13.8937C5 14.1579 5.10454 14.4114 5.29079 14.5987C5.38376 14.6925 5.49436 14.7669 5.61622 14.8176C5.73808 14.8684 5.86878 14.8945 6.00079 14.8945C6.13281 14.8945 6.26351 14.8684 6.38537 14.8176C6.50723 14.7669 6.61783 14.6925 6.71079 14.5987L11.2908 9.99873C11.3838 9.905 11.4944 9.83061 11.6162 9.77984C11.7381 9.72907 11.8688 9.70293 12.0008 9.70293C12.1328 9.70293 12.2635 9.72907 12.3854 9.77984C12.5072 9.83061 12.6178 9.905 12.7108 9.99873L17.2908 14.5987C17.4778 14.787 17.7319 14.8934 17.9973 14.8943C18.2626 14.8952 18.5175 14.7907 18.7058 14.6037C18.8941 14.4168 19.0004 14.1626 19.0014 13.8973C19.0023 13.6319 18.8978 13.377 18.7108 13.1887L14.1208 8.59873C13.5583 8.03693 12.7958 7.72137 12.0008 7.72137C11.2058 7.72137 10.4433 8.03693 9.8808 8.59873Z" fill="#00549A"/>
</svg>
