<svg width="24" height="24" viewBox="0 0 24 24" fill="none" xmlns="http://www.w3.org/2000/svg">
    <path d="M4.28571 13.5704L17.1429 13.5704L12.9129 17.8004C12.7923 17.9199 12.6967 18.0621 12.6314 18.2188C12.5662 18.3755 12.5325 18.5435 12.5325 18.7133C12.5325 18.883 12.5662 19.051 12.6314 19.2077C12.6967 19.3644 12.7923 19.5066 12.9129 19.6261C13.1538 19.8656 13.4796 20 13.8193 20C14.159 20 14.4848 19.8656 14.7257 19.6261L20.2414 14.0976C20.7243 13.6175 20.9971 12.9656 21 12.2847V12.2847C20.9937 11.6083 20.7212 10.9616 20.2414 10.4847L14.7257 4.95612C14.6058 4.83709 14.4637 4.74283 14.3074 4.67874C14.1511 4.61464 13.9837 4.58196 13.8147 4.58255C13.6458 4.58315 13.4786 4.61702 13.3228 4.68222C13.1669 4.74742 13.0255 4.84268 12.9064 4.96255C12.7874 5.08243 12.6931 5.22458 12.629 5.38089C12.5649 5.53719 12.5323 5.70459 12.5329 5.87353C12.5335 6.04247 12.5673 6.20963 12.6325 6.36548C12.6977 6.52132 12.793 6.6628 12.9129 6.78184L17.1429 10.999L4.28571 10.999C3.94472 10.999 3.61769 11.1344 3.37658 11.3756C3.13546 11.6167 3 11.9437 3 12.2847C3 12.6257 3.13546 12.9527 3.37658 13.1938C3.61769 13.435 3.94472 13.5704 4.28571 13.5704Z" fill="white"/>
</svg>
