<svg width="24" height="24" viewBox="0 0 24 24" fill="none" xmlns="http://www.w3.org/2000/svg">
    <path
        d="M8.92731 10.1745C9.71271 10.1745 10.4981 10.1702 11.2835 10.1782C11.4361 10.1798 11.4726 10.1361 11.4699 9.99166C11.4606 9.4971 11.4699 9.00253 11.4634 8.50797C11.4617 8.39073 11.4884 8.35342 11.6149 8.35555C12.1338 8.36302 12.6532 8.36355 13.1721 8.35555C13.3018 8.35342 13.3236 8.39446 13.322 8.50957C13.3154 8.99774 13.3263 9.4859 13.3154 9.97407C13.3116 10.1334 13.3487 10.1803 13.5193 10.1798C14.9636 10.1723 16.408 10.1787 17.8523 10.1745C18.7391 10.1718 19.4907 10.467 20.0799 11.1236C20.5421 11.6384 20.7634 12.2481 20.7677 12.9281C20.7715 13.4547 20.789 13.9817 20.7481 14.5083C20.6789 15.3983 19.749 16.1508 18.8372 16.0719C18.3319 16.0282 17.9259 15.8193 17.576 15.4771C16.983 14.8973 16.3867 14.3207 15.7975 13.7371C15.7016 13.6422 15.6525 13.6337 15.5517 13.7339C14.9533 14.3271 14.3493 14.9144 13.7427 15.4995C13.1083 16.1113 12.2569 16.2296 11.4715 15.8203C11.2999 15.7308 11.1565 15.6034 11.0197 15.4702C10.43 14.8962 9.83861 14.3239 9.25542 13.744C9.1535 13.6428 9.10335 13.6332 8.99544 13.7408C8.39862 14.3356 7.79472 14.9229 7.18863 15.5086C6.53077 16.1438 5.69087 16.2664 4.9131 15.8203C4.39477 15.523 4.09009 15.0668 4.04758 14.4747C3.99961 13.8059 3.96201 13.1301 4.06883 12.4682C4.29067 11.0932 5.43852 10.1856 6.91012 10.1766C7.58215 10.1723 8.25473 10.1761 8.92676 10.1761L8.92731 10.1745Z"
        fill="#00B4D8" />
    <path
        d="M20.7566 16.894V17.0992C20.7566 18.3814 20.7403 19.6642 20.7631 20.9459C20.7762 21.66 20.2519 22.0016 19.6921 22.0006C14.8266 21.9888 9.96048 21.9942 5.09492 21.9936C4.39291 21.9936 4.02447 21.6355 4.02392 20.9486C4.02283 19.6599 4.02392 18.3708 4.02392 17.0821V16.8977C4.27246 17.023 4.48775 17.1589 4.72975 17.2404C5.91466 17.638 6.99765 17.4659 7.95092 16.6633C8.31828 16.3542 8.65075 16.004 8.98977 15.664C9.08515 15.5686 9.1342 15.5633 9.23503 15.6597C9.65308 16.06 10.0297 16.5039 10.5077 16.8413C11.7068 17.6881 13.4738 17.5884 14.5644 16.6073C14.9023 16.3035 15.225 15.9832 15.5439 15.6603C15.6441 15.559 15.6937 15.5729 15.788 15.664C16.1854 16.0477 16.5473 16.4703 16.9953 16.8002C18.0668 17.59 19.4125 17.6593 20.5686 16.999C20.6193 16.9702 20.6705 16.9425 20.7577 16.894H20.7566Z"
        fill="#00B4D8" />
    <path
        d="M12.3858 2C12.4195 2.04903 12.4392 2.07354 12.455 2.10019C12.9635 2.95981 13.4791 3.81623 13.9784 4.68118C14.4089 5.42729 14.3294 6.22669 13.7576 6.84915C13.2938 7.35384 12.6915 7.53557 12.0222 7.4034C11.3442 7.2691 10.87 6.86141 10.6405 6.21177C10.4596 5.69962 10.5065 5.19866 10.7806 4.72755C11.306 3.82476 11.8396 2.92677 12.3858 2Z"
        fill="#00B4D8" />
</svg>
