<svg width="32" height="32" viewBox="0 0 32 32" fill="none" xmlns="http://www.w3.org/2000/svg">
<path d="M29.75 7.15178C29.75 7.14464 29.75 7.14464 29.75 7.15178ZM29.75 7.15178C29.7143 7.07321 29.6643 7.00893 29.6143 6.94464C29.6 6.93036 29.5786 6.91607 29.5643 6.90179C29.5214 6.85893 29.4714 6.83036 29.4143 6.80179C29.3929 6.7875 29.3714 6.78036 29.35 6.77321C29.2643 6.7375 29.1786 6.71607 29.0929 6.71607H2.90714C2.82143 6.71607 2.73571 6.7375 2.65714 6.76607C2.63571 6.77321 2.61429 6.7875 2.59286 6.79464C2.53571 6.82321 2.48571 6.85893 2.44286 6.89464C2.42143 6.90893 2.40714 6.92321 2.39286 6.94464C2.33571 7.00179 2.28571 7.06607 2.25 7.14464C2.25 7.14464 2.25 7.14464 2.25 7.15178V7.15893C1.42143 9.05893 1 11.0732 1 13.1446M29.75 7.15178C29.75 7.15178 29.75 7.15179 29.75 7.15893C30.5786 9.05893 31 11.0732 31 13.1446M1 13.1446C1 18.7875 4.13571 23.7018 8.74286 26.2661L9.46429 26.6196M1 13.1446H31M4 30.7161L9.46429 26.6196M16 31.0018V23.8589M28 30.7161L22.5357 26.6196M31 13.1446C31 18.7875 27.8643 23.7018 23.2571 26.2661L22.5357 26.6196M22.5357 26.6196L21.8143 26.9732C20.2357 27.6375 18.5143 28.0232 16.7143 28.1089H15.2857C13.4857 28.0232 11.7643 27.6375 10.1857 26.9732L9.46429 26.6196M7.61429 1.20893C7.33571 0.930357 6.88571 0.930357 6.60714 1.20893C6.20714 1.60893 5.72857 2.6875 6.47143 4.17321C6.6 4.43036 6.85 4.57321 7.11429 4.57321C7.22143 4.57321 7.32857 4.55179 7.43571 4.49464C7.78571 4.31607 7.92857 3.8875 7.75714 3.5375C7.31429 2.65893 7.60714 2.24464 7.64286 2.20179C7.89286 1.92321 7.88571 1.48036 7.61429 1.20893ZM13.65 1.20893C13.3714 0.930357 12.9214 0.930357 12.6429 1.20893C12.2429 1.60893 11.7643 2.6875 12.5071 4.17321C12.6286 4.43036 12.8786 4.57321 13.1429 4.57321C13.25 4.57321 13.3571 4.55179 13.4643 4.49464C13.8143 4.31607 13.9571 3.8875 13.7857 3.5375C13.3429 2.65893 13.6357 2.24464 13.6714 2.20179C13.9286 1.92321 13.9214 1.48036 13.65 1.20893ZM19.6786 1.20893C19.4 0.930357 18.95 0.930357 18.6714 1.20893C18.2714 1.60893 17.7929 2.6875 18.5357 4.17321C18.6643 4.43036 18.9143 4.57321 19.1786 4.57321C19.2857 4.57321 19.3929 4.55179 19.5 4.49464C19.85 4.31607 19.9929 3.8875 19.8214 3.5375C19.3786 2.65893 19.6714 2.24464 19.7071 2.20179C19.9571 1.92321 19.95 1.48036 19.6786 1.20893ZM25.7143 1.20893C25.4357 0.930357 24.9857 0.930357 24.7071 1.20893C24.3071 1.60893 23.8286 2.6875 24.5714 4.17321C24.6929 4.43036 24.9429 4.57321 25.2071 4.57321C25.3143 4.57321 25.4214 4.55179 25.5286 4.49464C25.8786 4.31607 26.0214 3.8875 25.85 3.5375C25.4071 2.65893 25.7 2.24464 25.7357 2.20179C25.9929 1.92321 25.9857 1.48036 25.7143 1.20893Z" stroke="#595959" stroke-linecap="round"/>
</svg>
