<svg width="16" height="18" viewBox="0 0 16 18" fill="none" xmlns="http://www.w3.org/2000/svg">
    <path
        d="M8.17751 10.0933C10.7997 10.0933 12.9253 8.13118 12.9253 5.71073C12.9253 3.29029 10.7997 1.32812 8.17751 1.32812C5.55536 1.32812 3.42969 3.29029 3.42969 5.71073C3.42969 8.13118 5.55536 10.0933 8.17751 10.0933Z"
        fill="#A4C639" />
    <path
        d="M11.7775 4.61719H4.57751C3.94359 4.61719 3.42969 5.13109 3.42969 5.76501V12.965C3.42969 13.5989 3.94359 14.1128 4.57751 14.1128H11.7775C12.4114 14.1128 12.9253 13.5989 12.9253 12.965V5.76501C12.9253 5.13109 12.4114 4.61719 11.7775 4.61719Z"
        fill="#A4C639" />
    <path
        d="M4.93838 0.625438C4.84758 0.461624 4.90676 0.255217 5.07058 0.164414C5.23439 0.0736105 5.4408 0.132797 5.5316 0.29661L7.37809 3.62777C7.4689 3.79158 7.40971 3.99799 7.2459 4.08879C7.08208 4.1796 6.87568 4.12041 6.78487 3.9566L4.93838 0.625438Z"
        fill="#A4C639" />
    <path
        d="M13.1363 6.96311C13.1363 6.27155 13.6969 5.71094 14.3885 5.71094C15.08 5.71094 15.6406 6.27155 15.6406 6.96311V11.3979C15.6406 12.0895 15.08 12.6501 14.3885 12.6501C13.6969 12.6501 13.1363 12.0895 13.1363 11.3979V6.96311Z"
        fill="#A4C639" />
    <path
        d="M8.69878 12.0256C8.69878 11.3341 9.25939 10.7734 9.95095 10.7734C10.6425 10.7734 11.2031 11.3341 11.2031 12.0256V16.4604C11.2031 17.152 10.6425 17.7126 9.95095 17.7126C9.25939 17.7126 8.69878 17.152 8.69878 16.4604V12.0256Z"
        fill="#A4C639" />
    <path
        d="M11.421 0.625438C11.5118 0.461624 11.4526 0.255217 11.2888 0.164414C11.125 0.0736105 10.9186 0.132797 10.8278 0.29661L8.98128 3.62777C8.89048 3.79158 8.94966 3.99799 9.11348 4.08879C9.27729 4.1796 9.4837 4.12041 9.5745 3.9566L11.421 0.625438Z"
        fill="#A4C639" />
    <path
        d="M3.2231 6.96311C3.2231 6.27155 2.66248 5.71094 1.97092 5.71094C1.27937 5.71094 0.71875 6.27155 0.71875 6.96311V11.3979C0.71875 12.0895 1.27937 12.6501 1.97092 12.6501C2.66248 12.6501 3.2231 12.0895 3.2231 11.3979V6.96311Z"
        fill="#A4C639" />
    <path
        d="M7.6606 12.0256C7.6606 11.3341 7.09998 10.7734 6.40842 10.7734C5.71687 10.7734 5.15625 11.3341 5.15625 12.0256V16.4604C5.15625 17.152 5.71687 17.7126 6.40842 17.7126C7.09998 17.7126 7.6606 17.152 7.6606 16.4604V12.0256Z"
        fill="#A4C639" />
    <path fill-rule="evenodd" clip-rule="evenodd"
        d="M12.9253 5.71277L12.9252 5.74682L12.9253 5.76495V6.06234H3.42969V5.76495L3.42983 5.74682L3.42969 5.71277C3.42969 5.70407 3.42971 5.69538 3.42977 5.68668H12.9253C12.9253 5.69538 12.9253 5.70407 12.9253 5.71277ZM5.98621 3.5319C5.97468 3.5319 5.96534 3.54125 5.96534 3.55277C5.96534 3.5643 5.97468 3.57364 5.98621 3.57364C5.99774 3.57364 6.00708 3.5643 6.00708 3.55277C6.00708 3.54125 5.99774 3.5319 5.98621 3.5319ZM5.58969 3.55277C5.58969 3.33378 5.76722 3.15625 5.98621 3.15625C6.2052 3.15625 6.38273 3.33378 6.38273 3.55277C6.38273 3.77176 6.2052 3.94929 5.98621 3.94929C5.76722 3.94929 5.58969 3.77176 5.58969 3.55277ZM9.9723 3.55277C9.9723 3.33378 10.1498 3.15625 10.3688 3.15625C10.5878 3.15625 10.7653 3.33378 10.7653 3.55277C10.7653 3.77176 10.5878 3.94929 10.3688 3.94929C10.1498 3.94929 9.9723 3.77176 9.9723 3.55277Z"
        fill="white" />
</svg>
