<svg width="38" height="38" viewBox="0 0 38 38" fill="none" xmlns="http://www.w3.org/2000/svg">
    <path
        d="M25.9642 12.7243C25.9583 11.4382 25.5371 10.1225 24.7122 9.07537C24.4899 8.79345 24.2529 8.51689 23.9897 8.26719C23.7235 8.0148 23.431 7.79732 23.1267 7.5852C22.5739 7.19856 21.9567 6.91395 21.3014 6.69379C18.66 5.80505 15.4745 6.59713 13.6872 8.59476C13.4415 8.86863 13.2074 9.15323 13.0085 9.45932C12.8096 9.76273 12.6546 10.0849 12.5113 10.4125C12.2421 11.0193 12.1047 11.6637 12.0491 12.3162C11.9408 13.5942 12.3036 14.9286 13.029 16.0241C13.7281 17.082 14.7841 17.9895 16.0185 18.5024C16.3813 18.6527 16.7528 18.7923 17.1389 18.8917C17.5221 18.9883 17.9111 19.042 18.306 19.085C19.0256 19.1629 19.7599 19.1092 20.4707 18.9776C23.1706 18.4728 25.4318 16.3383 25.8501 13.8332C25.9115 13.468 25.9583 13.1029 25.9583 12.7323M27.5057 31.6615C28.6436 31.6454 29.6441 30.9634 29.9775 29.9619C30.1092 29.5645 30.0799 29.1376 30.0799 28.7295C30.0799 27.7951 30.1121 26.8688 29.9366 25.9425C29.6792 24.5865 28.9362 23.3112 27.9182 22.3097C26.9002 21.3082 25.5312 20.5725 24.0833 20.2449C23.2525 20.057 22.4159 20.0274 21.5676 20.0274H16.3783C15.5096 20.0274 14.6466 20.065 13.8013 20.2718C12.365 20.6208 11.0136 21.3646 10.0161 22.3741C9.00981 23.3917 8.28143 24.6698 8.04449 26.0338C7.88653 26.9493 7.91871 27.8676 7.91871 28.7912C7.91871 29.2155 7.89239 29.6585 8.05912 30.0639C8.27558 30.5848 8.62076 30.9956 9.12681 31.3044C9.52171 31.5433 10.0219 31.6588 10.4899 31.6642C10.7181 31.6669 10.9463 31.6642 11.1744 31.6642H27.5087"
        stroke="white" stroke-width="2" />
</svg>
