<svg width="45" height="46" viewBox="0 0 45 46" fill="none" xmlns="http://www.w3.org/2000/svg">
<rect width="45" height="45" rx="22.5" fill="white"/>
<path d="M45.0019 22.5143C44.9999 26.8683 43.268 31.0432 40.1869 34.1209C37.1058 37.1986 32.9279 38.927 28.572 38.926C24.437 38.9233 20.4551 37.3614 17.4218 34.5524C14.3885 31.7433 12.5269 27.8938 12.209 23.7727C12.5798 26.3561 13.9093 28.7055 15.9333 30.3541C17.9573 32.0028 20.5277 32.83 23.1338 32.6715C25.74 32.513 28.191 31.3803 30.0001 29.4985C31.8092 27.6167 32.8439 25.1235 32.8986 22.5143C32.8987 22.0375 32.8664 21.5612 32.8021 21.0888C32.4383 16.9487 30.5173 13.1006 27.4267 10.3205C24.336 7.54045 20.3057 6.03538 16.1485 6.10885C11.9914 6.18232 8.01675 7.82887 5.02635 10.7164C2.03596 13.6039 0.252309 17.5175 0.0351562 21.6679C0.246795 15.8498 2.70782 10.3406 6.90045 6.2994C11.0931 2.25817 16.6904 0 22.5148 0C28.3392 0 33.9366 2.25817 38.1292 6.2994C42.3218 10.3406 44.7829 15.8498 44.9945 21.6679C44.9995 21.9476 45.0019 22.2297 45.0019 22.5143Z" fill="url(#paint0_linear_1626_21602)"/>
<path d="M0 22.5171C0.000984817 18.1631 1.73202 13.9878 4.81242 10.9094C7.89281 7.83099 12.0703 6.10163 16.4261 6.10163C18.5057 6.09564 20.567 6.48883 22.4982 7.25985C25.3535 8.39527 27.833 10.3082 29.6554 12.7813C31.4777 15.2545 32.5698 18.1888 32.8077 21.2512C32.442 18.6629 31.1139 16.3073 29.0883 14.654C27.0627 13.0006 24.4883 12.1709 21.878 12.3301C19.2677 12.4893 16.8132 13.6258 15.0038 15.5131C13.1943 17.4003 12.1627 19.8998 12.1144 22.5134C12.1145 22.9902 12.1468 23.4664 12.211 23.9389C12.5751 28.079 14.4965 31.9271 17.5875 34.7069C20.6784 37.4867 24.709 38.9914 28.8663 38.9174C33.0235 38.8435 36.998 37.1964 39.9881 34.3084C42.9781 31.4205 44.7613 27.5065 44.9779 23.3561C44.7662 29.1741 42.3052 34.6833 38.1126 38.7246C33.92 42.7658 28.3226 45.024 22.4982 45.024C16.6738 45.024 11.0765 42.7658 6.88387 38.7246C2.69124 34.6833 0.230203 29.1741 0.0185645 23.3561C0.00742308 23.0851 0 22.7992 0 22.5171Z" fill="url(#paint1_linear_1626_21602)"/>
<path d="M21.7334 25.6562L21.2158 23.957H18.6133L18.0957 25.6562H16.4648L18.9844 18.4883H20.835L23.3643 25.6562H21.7334ZM20.8545 22.6875C20.376 21.1478 20.1058 20.277 20.0439 20.0752C19.9854 19.8734 19.943 19.7139 19.917 19.5967C19.8096 20.0133 19.502 21.0436 18.9941 22.6875H20.8545ZM26.9385 25.6562H23.6914V24.7969L24.5605 24.3965V19.7773L23.6914 19.377V18.5176H26.9385V19.377L26.0693 19.7773V24.3965L26.9385 24.7969V25.6562Z" fill="#00549A"/>
<defs>
<linearGradient id="paint0_linear_1626_21602" x1="29.5822" y1="34.5196" x2="14.2511" y2="2.06603" gradientUnits="userSpaceOnUse">
<stop stop-color="#02539C"/>
<stop offset="0.16" stop-color="#096DB1"/>
<stop offset="0.37" stop-color="#108AC8"/>
<stop offset="0.59" stop-color="#169ED9"/>
<stop offset="0.8" stop-color="#19ABE3"/>
<stop offset="1" stop-color="#1AAFE6"/>
</linearGradient>
<linearGradient id="paint1_linear_1626_21602" x1="15.4197" y1="10.508" x2="30.7508" y2="42.9616" gradientUnits="userSpaceOnUse">
<stop stop-color="#02539C"/>
<stop offset="0.16" stop-color="#096DB1"/>
<stop offset="0.37" stop-color="#108AC8"/>
<stop offset="0.59" stop-color="#169ED9"/>
<stop offset="0.8" stop-color="#19ABE3"/>
<stop offset="1" stop-color="#1AAFE6"/>
</linearGradient>
</defs>
</svg>
