<svg width="24" height="24" viewBox="0 0 24 24" fill="none" xmlns="http://www.w3.org/2000/svg">
<path d="M5.00002 19.3334C4.99891 19.0704 5.04989 18.8098 5.15001 18.5667C5.25013 18.3235 5.39741 18.1026 5.58335 17.9167C5.76928 17.7307 5.9902 17.5835 6.23335 17.4833C6.4765 17.3832 6.73707 17.3322 7.00002 17.3334H18.3334V4.00002H7.00002C6.73707 3.99891 6.4765 4.04989 6.23335 4.15001C5.9902 4.25013 5.76928 4.39741 5.58335 4.58335C5.39741 4.76928 5.25013 4.9902 5.15001 5.23335C5.04989 5.4765 4.99891 5.73706 5.00002 6.00002V19.3334Z" stroke="#00549A" stroke-linecap="round" stroke-linejoin="round"/>
<path d="M5 19.334V20.0007H17" stroke="#00549A" stroke-linecap="round" stroke-linejoin="round"/>
</svg>
