<svg width="24" height="24" viewBox="0 0 24 24" fill="none" xmlns="http://www.w3.org/2000/svg">
    <rect width="24" height="24" rx="12" fill="#7E57C2" fill-opacity="0.1" />
    <g clip-path="url(#clip0_1571_9200)">
        <path
            d="M17.3843 8.51516L12.4343 5.80672C12.3021 5.73365 12.1534 5.69531 12.0023 5.69531C11.8512 5.69531 11.7026 5.73365 11.5703 5.80672L6.62034 8.51629C6.47898 8.59363 6.36098 8.70751 6.27865 8.84604C6.19633 8.98456 6.15271 9.14265 6.15234 9.30379V14.6835C6.15271 14.8447 6.19633 15.0028 6.27865 15.1413C6.36098 15.2798 6.47898 15.3937 6.62034 15.471L11.5703 18.1806C11.7026 18.2537 11.8512 18.292 12.0023 18.292C12.1534 18.292 12.3021 18.2537 12.4343 18.1806L17.3843 15.471C17.5257 15.3937 17.6437 15.2798 17.726 15.1413C17.8084 15.0028 17.852 14.8447 17.8523 14.6835V9.30435C17.8523 9.14292 17.8088 8.98449 17.7265 8.84564C17.6441 8.70679 17.526 8.59265 17.3843 8.51516ZM12.0023 11.5442L7.48266 9.06922L12.0023 6.59422L16.522 9.06922L12.0023 11.5442ZM12.4523 17.149V12.3222L16.9523 9.85954V14.6835L12.4523 17.149Z"
            fill="#7E57C2" />
    </g>
    <defs>
        <clipPath id="clip0_1571_9200">
            <rect width="14.4" height="14.4" fill="white" transform="translate(4.80078 4.79688)" />
        </clipPath>
    </defs>
</svg>
