<svg width="20" height="20" viewBox="0 0 20 20" fill="none" xmlns="http://www.w3.org/2000/svg">
<path d="M15.8632 7.44005C15.8647 6.54422 15.6446 5.66194 15.2224 4.87181C14.8003 4.08168 14.1892 3.40824 13.4437 2.91149C12.6983 2.41474 11.8415 2.1101 10.9497 2.02472C10.058 1.93935 9.15895 2.07588 8.33275 2.42215C7.50655 2.76842 6.77884 3.31369 6.21444 4.00937C5.65004 4.70504 5.26649 5.52952 5.09796 6.40936C4.92942 7.28919 4.98114 8.19705 5.2485 9.05205C5.51586 9.90705 5.99056 10.6826 6.63031 11.3097C6.96528 11.624 7.23396 12.0022 7.42051 12.4219C7.60706 12.8417 7.70771 13.2945 7.71653 13.7537V14.1611H13.1477V13.8013C13.1571 13.3312 13.2597 12.8678 13.4497 12.4377C13.6397 12.0077 13.9131 11.6197 14.2543 11.2961C14.7637 10.7915 15.1682 10.1909 15.4444 9.52902C15.7206 8.86717 15.8629 8.15719 15.8632 7.44005V7.44005Z" stroke="#7E57C2" stroke-width="1.5" stroke-linecap="round" stroke-linejoin="round"/>
<path d="M7.7168 16.1973H13.1479" stroke="#7E57C2" stroke-width="1.5" stroke-linecap="round" stroke-linejoin="round"/>
<path d="M8.39453 16.877H12.4679" stroke="#7E57C2" stroke-width="1.5" stroke-linecap="round" stroke-linejoin="round"/>
<path d="M10.4307 17.5558V16.877" stroke="#7E57C2" stroke-width="1.5" stroke-linecap="round" stroke-linejoin="round"/>
<path d="M10.4328 6.97852L9.75391 8.89978H11.1117L10.4328 10.8821" stroke="#7E57C2" stroke-width="1.5" stroke-linecap="round" stroke-linejoin="round"/>
</svg>
