<svg width="26" height="26" viewBox="0 0 26 26" fill="none" xmlns="http://www.w3.org/2000/svg">
<path d="M7.21068 7.16617C6.5284 7.84356 5.60303 8.2241 4.63814 8.2241V17.6957C5.58918 17.6954 6.50248 18.0649 7.18248 18.7251C7.86248 19.3852 8.25511 20.2835 8.27625 21.2274H17.6429C17.6874 20.3016 18.0887 19.4281 18.7637 18.7878C19.4387 18.1475 20.3359 17.7893 21.2695 17.7874H21.3619V8.2241C20.397 8.2241 19.4716 7.84356 18.7894 7.16617C18.1071 6.48878 17.7238 5.57004 17.7238 4.61207H8.27625C8.27625 5.57004 7.89296 6.48878 7.21068 7.16617ZM7.21068 7.16617C7.71948 6.66102 8.06594 6.01741 8.20632 5.31674C8.3467 4.61607 8.27468 3.88979 7.99932 3.22978C7.72396 2.56976 7.25764 2.00565 6.65935 1.60875C6.06107 1.21186 5.35769 1 4.63814 1M7.21068 7.16617C6.70188 7.67132 6.05363 8.0153 5.3479 8.15468C4.64218 8.29405 3.91065 8.22254 3.24587 7.94916C2.58109 7.67577 2.01291 7.21279 1.61315 6.61879C1.21339 6.0248 1 5.32646 1 4.61207M25 4.66939C25 5.38378 24.7866 6.08215 24.3869 6.67615C23.9871 7.27015 23.4189 7.73309 22.7541 8.00648C22.0894 8.27986 21.3579 8.3514 20.6521 8.21203C19.9464 8.07266 19.2982 7.72864 18.7894 7.22349C18.2806 6.71834 17.9341 6.07473 17.7937 5.37406C17.6533 4.67339 17.7254 3.94715 18.0007 3.28713C18.2761 2.62712 18.7424 2.06297 19.3407 1.66607C19.939 1.26918 20.6423 1.05736 21.3619 1.05736C22.3268 1.05736 23.2521 1.4379 23.9344 2.11529C24.6167 2.79268 25 3.71142 25 4.66939ZM8.27625 21.216V21.2962C8.26557 22.2416 7.87845 23.1442 7.1995 23.8071C6.52056 24.4699 5.60499 24.839 4.6528 24.8337C3.70062 24.8284 2.78926 24.4491 2.11784 23.7788C1.44643 23.1084 1.06954 22.2015 1.06954 21.2561C1.06954 20.3108 1.44643 19.4038 2.11784 18.7334C2.78926 18.0631 3.70062 17.6838 4.6528 17.6785C5.60499 17.6732 6.52056 18.0423 7.1995 18.7052C7.87845 19.368 8.26557 20.2707 8.27625 21.216ZM24.9076 21.388C24.9076 22.346 24.5243 23.2647 23.842 23.9421C23.1598 24.6195 22.2344 25 21.2695 25C20.3046 25 19.3793 24.6195 18.697 23.9421C18.0147 23.2647 17.6314 22.346 17.6314 21.388C17.6257 21.3308 17.6257 21.2732 17.6314 21.216C17.6759 20.2901 18.0771 19.4166 18.7521 18.7763C19.4272 18.136 20.3243 17.7778 21.2579 17.7759H21.3504C22.3021 17.794 23.2086 18.1829 23.8741 18.8586C24.5396 19.5344 24.9108 20.4429 24.9076 21.388Z" stroke="#595959" stroke-linecap="round" stroke-linejoin="round"/>
</svg>
