<svg width="26" height="26" viewBox="0 0 26 26" fill="none" xmlns="http://www.w3.org/2000/svg">
<path d="M12.144 10.32V1.88895C12.144 1.57428 11.9829 1.28273 11.7214 1.12273C11.46 0.962727 11.1359 0.959172 10.8702 1.11206L3.15509 5.55649C2.88335 5.71294 2.71447 6.01071 2.71447 6.33338V24.1111V25M12.144 10.32L12.5032 10.0543C12.8007 9.83382 13.2019 9.83382 13.4993 10.0543L13.8585 10.32M12.144 10.32L10.4296 11.5903L6.50259 14.4987C6.27714 14.6658 6.14341 14.9351 6.14341 15.2222V24.1111V25M13.8585 10.32V1.88895C13.8585 1.57428 14.0188 1.28273 14.2811 1.12273C14.5426 0.962727 14.8666 0.959172 15.1324 1.11206L22.8475 5.55649C23.1192 5.71294 23.2881 6.01071 23.2881 6.33338V24.1111V25M13.8585 10.32L15.573 11.5903L19.5 14.4987C19.7254 14.6658 19.8592 14.9351 19.8592 15.2222V24.1111V25M25 25H23.2881M1 25H2.71447M2.71447 25H6.14341M23.2881 25H19.8592M6.14341 25H19.8592M9.36364 16.2727H11.5455M14.8182 16.2727H17M14.8182 19.9091H17M9.36364 19.9091H11.5455" stroke="#595959" stroke-linecap="round"/>
</svg>
