<svg width="10" height="8" viewBox="0 0 10 8" fill="none" xmlns="http://www.w3.org/2000/svg">
<path fill-rule="evenodd" clip-rule="evenodd" d="M9.68847 1.73454C9.68699 1.84193 9.62403 1.91673 9.55217 1.98783C8.98475 2.55439 8.41806 3.12095 7.85137 3.68751C6.55873 4.97838 5.26609 6.26926 3.97197 7.56087C3.72233 7.80971 3.61122 7.80971 3.36306 7.56235C2.40451 6.59956 1.44595 5.63752 0.486661 4.674C0.250356 4.43774 0.249616 4.31925 0.482216 4.08744C0.828155 3.74083 1.17335 3.39423 1.52003 3.04911C1.70967 2.86026 1.85189 2.85803 2.04005 3.04615C2.54525 3.5505 3.05194 4.05189 3.55122 4.56142C3.64455 4.65622 3.69122 4.66659 3.79197 4.56439C5.1609 3.1876 6.53429 1.81527 7.90841 0.442186C8.15286 0.197787 8.27509 0.197046 8.51954 0.440705C8.86474 0.786567 9.20994 1.13317 9.55662 1.47829C9.62995 1.54939 9.68699 1.62641 9.68847 1.73454Z" fill="#FDFEFD"/>
</svg>
