<svg width="24" height="24" viewBox="0 0 24 24" fill="none" xmlns="http://www.w3.org/2000/svg">
<path d="M12.3333 17.3333C13.2171 17.3323 14.0643 16.9807 14.6892 16.3559C15.3141 15.731 15.6656 14.8837 15.6667 14V8.16201C15.6677 7.81158 15.5992 7.46443 15.465 7.14069C15.3309 6.81694 15.1339 6.52304 14.8853 6.27601L13.3907 4.78134C13.1436 4.53279 12.8497 4.33575 12.526 4.20162C12.2022 4.0675 11.8551 3.99897 11.5047 4.00001H8.33333C7.4496 4.00107 6.60237 4.3526 5.97748 4.97749C5.35259 5.60238 5.00106 6.44961 5 7.33334V14C5.00106 14.8837 5.35259 15.731 5.97748 16.3559C6.60237 16.9807 7.4496 17.3323 8.33333 17.3333H12.3333ZM6.33333 14V7.33334C6.33333 6.80291 6.54405 6.2942 6.91912 5.91913C7.29419 5.54406 7.8029 5.33334 8.33333 5.33334C8.33333 5.33334 11.6127 5.34268 11.6667 5.34934V6.66668C11.6667 7.0203 11.8071 7.35944 12.0572 7.60948C12.3072 7.85953 12.6464 8.00001 13 8.00001H14.3173C14.324 8.05401 14.3333 14 14.3333 14C14.3333 14.5304 14.1226 15.0391 13.7475 15.4142C13.3725 15.7893 12.8638 16 12.3333 16H8.33333C7.8029 16 7.29419 15.7893 6.91912 15.4142C6.54405 15.0391 6.33333 14.5304 6.33333 14ZM18.3333 9.33334V16.6667C18.3323 17.5504 17.9807 18.3976 17.3558 19.0225C16.731 19.6474 15.8837 19.9989 15 20H9C8.82319 20 8.65362 19.9298 8.52859 19.8047C8.40357 19.6797 8.33333 19.5101 8.33333 19.3333C8.33333 19.1565 8.40357 18.987 8.52859 18.8619C8.65362 18.7369 8.82319 18.6667 9 18.6667H15C15.5304 18.6667 16.0391 18.456 16.4142 18.0809C16.7893 17.7058 17 17.1971 17 16.6667V9.33334C17 9.15653 17.0702 8.98696 17.1953 8.86194C17.3203 8.73691 17.4898 8.66668 17.6667 8.66668C17.8435 8.66668 18.013 8.73691 18.1381 8.86194C18.2631 8.98696 18.3333 9.15653 18.3333 9.33334Z" fill="white"/>
</svg>
