<svg width="24" height="24" viewBox="0 0 24 24" fill="none" xmlns="http://www.w3.org/2000/svg">
    <path
        d="M20.5132 4.88654L20.5131 4.88649L8.42123 16.9784L7.8909 17.5087L7.36057 16.9784L3.49207 13.1099L3.48667 13.1045L3.48139 13.099C3.44224 13.0582 3.39535 13.0257 3.34346 13.0033C3.29157 12.9808 3.23573 12.969 3.17922 12.9684C3.12269 12.9678 3.06662 12.9785 3.01429 12.9999C2.96196 13.0213 2.91442 13.0529 2.87445 13.0928C2.83448 13.1328 2.80289 13.1803 2.78152 13.2327C2.76016 13.285 2.74945 13.3411 2.75002 13.3976C2.7506 13.4541 2.76244 13.51 2.78487 13.5618C2.8073 13.6137 2.83985 13.6606 2.88062 13.6998L2.88613 13.7051L2.89152 13.7105L7.59051 18.4094C7.59055 18.4095 7.59059 18.4095 7.59062 18.4096C7.67029 18.4891 7.77829 18.5338 7.8909 18.5338C8.0035 18.5338 8.1115 18.4891 8.19117 18.4096C8.1912 18.4095 8.19124 18.4095 8.19128 18.4094L21.1137 5.48703L21.1212 5.47951L21.1213 5.47957C21.1827 5.41989 21.2246 5.34306 21.2416 5.25914C21.2585 5.17523 21.2498 5.08814 21.2164 5.00929C21.183 4.93045 21.1266 4.86352 21.0546 4.81729L21.4596 4.18605L21.0546 4.81728C20.9826 4.77109 20.8983 4.7477 20.8128 4.75018L20.5132 4.88654ZM20.5132 4.88654L20.5207 4.87879M20.5132 4.88654L20.5207 4.87879M20.5207 4.87879C20.5976 4.79965 20.7023 4.75353 20.8126 4.75018L20.5207 4.87879Z"
        stroke="#009688" stroke-width="1.5" />
</svg>
