<svg width="24" height="24" viewBox="0 0 24 24" fill="none" xmlns="http://www.w3.org/2000/svg">
<path d="M9.83997 14.2402H14.96" stroke="#00549A" stroke-linecap="round" stroke-linejoin="round"/>
<path d="M9.83997 11.6797H14.96" stroke="#00549A" stroke-linecap="round" stroke-linejoin="round"/>
<path d="M14.96 5.2793H18.16C18.3297 5.2793 18.4925 5.34673 18.6125 5.46675C18.7326 5.58677 18.8 5.74956 18.8 5.9193V19.3593C18.8 19.529 18.7326 19.6918 18.6125 19.8118C18.4925 19.9319 18.3297 19.9993 18.16 19.9993H6.64C6.47026 19.9993 6.30748 19.9319 6.18745 19.8118C6.06743 19.6918 6 19.529 6 19.3593V5.9193C6 5.74956 6.06743 5.58677 6.18745 5.46675C6.30748 5.34673 6.47026 5.2793 6.64 5.2793H9.84" stroke="#00549A" stroke-linecap="round" stroke-linejoin="round"/>
<path d="M9.19995 7.84V7.2C9.19995 6.35131 9.53709 5.53737 10.1372 4.93726C10.7373 4.33714 11.5513 4 12.4 4C13.2486 4 14.0626 4.33714 14.6627 4.93726C15.2628 5.53737 15.6 6.35131 15.6 7.2V7.84H9.19995Z" stroke="#00549A" stroke-linecap="round" stroke-linejoin="round"/>
</svg>
