<svg width="24" height="24" viewBox="0 0 24 24" fill="none" xmlns="http://www.w3.org/2000/svg">
<path d="M11.9231 4V20" stroke="#00549A" stroke-linecap="round" stroke-linejoin="round"/>
<path d="M16.2308 8.92263C16.2308 8.51856 16.1512 8.11845 15.9966 7.74514C15.8419 7.37183 15.6153 7.03263 15.3296 6.74691C15.0438 6.46119 14.7046 6.23455 14.3313 6.07992C13.958 5.92529 13.5579 5.8457 13.1538 5.8457H10.3846C9.56856 5.8457 8.78594 6.16988 8.2089 6.74691C7.63187 7.32395 7.30769 8.10658 7.30769 8.92263C7.30769 9.73868 7.63187 10.5213 8.2089 11.0983C8.78594 11.6754 9.56856 11.9995 10.3846 11.9995H13.7692C14.5853 11.9995 15.3679 12.3237 15.9449 12.9008C16.522 13.4778 16.8462 14.2604 16.8462 15.0765C16.8462 15.8925 16.522 16.6752 15.9449 17.2522C15.3679 17.8292 14.5853 18.1534 13.7692 18.1534H10.0769C9.26087 18.1534 8.47824 17.8292 7.90121 17.2522C7.32417 16.6752 7 15.8925 7 15.0765" stroke="#00549A" stroke-linecap="round" stroke-linejoin="round"/>
</svg>
