<svg width="13" height="12" viewBox="0 0 13 12" fill="none" xmlns="http://www.w3.org/2000/svg">
    <path
        d="M7.6694 0.835687C7.68569 0.774769 7.71383 0.717659 7.7522 0.66762C7.79058 0.61758 7.83843 0.575592 7.89304 0.544054C7.94765 0.512517 8.00793 0.492047 8.07045 0.483816C8.13297 0.475585 8.1965 0.479754 8.25741 0.496083C9.14725 0.728255 9.95913 1.19344 10.6094 1.84372C11.2597 2.494 11.7249 3.30587 11.957 4.19572C11.9734 4.25663 11.9775 4.32016 11.9693 4.38268C11.9611 4.44519 11.9406 4.50548 11.9091 4.56009C11.8775 4.61469 11.8355 4.66255 11.7855 4.70092C11.7355 4.73929 11.6784 4.76743 11.6174 4.78373C11.5769 4.79437 11.5352 4.79982 11.4932 4.79992C11.3875 4.79996 11.2848 4.7651 11.2009 4.70077C11.1171 4.63643 11.0568 4.54622 11.0294 4.44412C10.8402 3.7176 10.4606 3.0547 9.92974 2.52377C9.39892 1.99284 8.73609 1.6131 8.0096 1.42369C7.94863 1.40746 7.89146 1.37937 7.84135 1.34103C7.79125 1.30268 7.74919 1.25483 7.7176 1.20022C7.686 1.14561 7.66548 1.0853 7.65721 1.02275C7.64894 0.960202 7.65308 0.896634 7.6694 0.835687ZM7.5296 3.34371C8.35701 3.56451 8.88861 4.09672 9.10942 4.92413C9.13676 5.02622 9.19705 5.11644 9.28091 5.18077C9.36477 5.24511 9.46752 5.27996 9.57322 5.27993C9.61514 5.27982 9.65688 5.27438 9.69742 5.26373C9.75834 5.24744 9.81545 5.2193 9.86549 5.18093C9.91553 5.14255 9.95752 5.0947 9.98905 5.04009C10.0206 4.98548 10.0411 4.9252 10.0493 4.86268C10.0575 4.80016 10.0534 4.73663 10.037 4.67572C9.72982 3.52611 8.92701 2.7233 7.7774 2.4161C7.65439 2.38324 7.52337 2.40059 7.41315 2.46434C7.30294 2.52808 7.22256 2.633 7.1897 2.75601C7.15684 2.87901 7.17419 3.01004 7.23793 3.12025C7.30167 3.23047 7.40659 3.31085 7.5296 3.34371ZM11.8754 8.06756L9.04881 6.80094L9.04101 6.79734C8.89427 6.73458 8.7342 6.70939 8.57527 6.72406C8.41634 6.73873 8.26358 6.79279 8.13081 6.88135C8.11517 6.89167 8.10015 6.90289 8.0858 6.91495L6.62539 8.15996C5.70018 7.71055 4.74497 6.76254 4.29557 5.84934L5.54238 4.36672C5.55438 4.35172 5.56578 4.33672 5.57658 4.32052C5.66324 4.1881 5.71582 4.03631 5.72963 3.87866C5.74345 3.72101 5.71808 3.56239 5.65578 3.41691V3.40971L4.38557 0.578284C4.30321 0.388241 4.1616 0.22993 3.98188 0.126983C3.80215 0.0240361 3.59395 -0.018025 3.38836 0.00707864C2.57533 0.114064 1.82905 0.513345 1.2889 1.13035C0.748746 1.74735 0.45166 2.53988 0.45313 3.35991C0.45313 8.12396 4.32917 12 9.09321 12C9.91325 12.0015 10.7058 11.7044 11.3228 11.1642C11.9398 10.6241 12.3391 9.87779 12.446 9.06477C12.4712 8.85924 12.4292 8.65109 12.3264 8.47138C12.2236 8.29166 12.0654 8.15001 11.8754 8.06756Z"
        fill="#197BFF" />
</svg>
