<svg width="24" height="24" viewBox="0 0 24 24" fill="none" xmlns="http://www.w3.org/2000/svg">
    <rect x="2" y="2" width="20" height="20" rx="1" fill="white" stroke="#00549A"
        stroke-width="0.5" />
    <path
        d="M16.8355 8.00027C16.6757 8.00503 16.5241 8.07179 16.4127 8.18642L10.0835 14.5157L8.05858 12.4908C8.00192 12.4318 7.93405 12.3847 7.85896 12.3522C7.78386 12.3198 7.70304 12.3026 7.62123 12.3018C7.53942 12.3009 7.45827 12.3164 7.38253 12.3474C7.30678 12.3783 7.23797 12.424 7.18012 12.4819C7.12227 12.5397 7.07655 12.6085 7.04562 12.6843C7.0147 12.76 6.9992 12.8412 7.00003 12.923C7.00086 13.0048 7.01801 13.0856 7.05047 13.1607C7.08293 13.2358 7.13004 13.3037 7.18906 13.3603L9.6487 15.82C9.76403 15.9352 9.92041 16 10.0835 16C10.2465 16 10.4029 15.9352 10.5182 15.82L17.2823 9.05595C17.3711 8.96957 17.4318 8.85837 17.4564 8.73691C17.4809 8.61546 17.4682 8.48941 17.42 8.37529C17.3717 8.26117 17.29 8.16431 17.1857 8.09739C17.0814 8.03047 16.9593 7.99661 16.8355 8.00027Z"
        fill="#00549A" />
</svg>
