<svg width="24" height="24" viewBox="0 0 24 24" fill="none" xmlns="http://www.w3.org/2000/svg">
<g clip-path="url(#clip0_6878_16236)">
<path d="M11.4844 7.7002V11.8742L14.9627 13.9612" stroke="white" stroke-width="1.5" stroke-linecap="round" stroke-linejoin="round"/>
<path d="M16.3545 9.78696H19.8329V6.30859" stroke="white" stroke-width="1.5" stroke-linecap="round" stroke-linejoin="round"/>
<path d="M16.7373 17.4398C15.6433 18.472 14.2695 19.159 12.7874 19.4149C11.3053 19.6708 9.7806 19.4843 8.40389 18.8786C7.02718 18.273 5.85947 17.275 5.04667 16.0095C4.23386 14.744 3.81201 13.267 3.83381 11.7632C3.85561 10.2593 4.32011 8.79514 5.16925 7.55373C6.0184 6.31232 7.21455 5.34866 8.60824 4.78316C10.0019 4.21767 11.5314 4.07541 13.0054 4.37417C14.4795 4.67292 15.8329 5.39944 16.8964 6.46295C17.9199 7.4995 18.7651 8.47692 19.833 9.7874" stroke="white" stroke-width="1.5" stroke-linecap="round" stroke-linejoin="round"/>
</g>
<defs>
<clipPath id="clip0_6878_16236">
<rect width="24" height="24" fill="white"/>
</clipPath>
</defs>
</svg>
