<svg width="24" height="24" viewBox="0 0 24 24" fill="none" xmlns="http://www.w3.org/2000/svg">
<path d="M17.25 6H16.869L15.231 3.876C15.0199 3.60435 14.7497 3.38431 14.441 3.23254C14.1323 3.08077 13.793 3.00125 13.449 3L10.551 3C10.207 3.00125 9.86774 3.08077 9.559 3.23254C9.25026 3.38431 8.9801 3.60435 8.769 3.876L7.131 6H6.75C5.7558 6.00119 4.80267 6.39666 4.09966 7.09966C3.39666 7.80267 3.00119 8.7558 3 9.75L3 17.25C3.00119 18.2442 3.39666 19.1973 4.09966 19.9003C4.80267 20.6033 5.7558 20.9988 6.75 21H17.25C18.2442 20.9988 19.1973 20.6033 19.9003 19.9003C20.6033 19.1973 20.9988 18.2442 21 17.25V9.75C20.9988 8.7558 20.6033 7.80267 19.9003 7.09966C19.1973 6.39666 18.2442 6.00119 17.25 6ZM9.957 4.7925C10.0273 4.70179 10.1173 4.6283 10.2202 4.57761C10.3231 4.52693 10.4363 4.50038 10.551 4.5H13.449C13.5637 4.50049 13.6768 4.52709 13.7797 4.57776C13.8826 4.62844 13.9727 4.70187 14.043 4.7925L14.9745 6H9.0255L9.957 4.7925ZM19.5 17.25C19.5 17.8467 19.2629 18.419 18.841 18.841C18.419 19.2629 17.8467 19.5 17.25 19.5H6.75C6.15326 19.5 5.58097 19.2629 5.15901 18.841C4.73705 18.419 4.5 17.8467 4.5 17.25V9.75C4.5 9.15326 4.73705 8.58097 5.15901 8.15901C5.58097 7.73705 6.15326 7.5 6.75 7.5H17.25C17.8467 7.5 18.419 7.73705 18.841 8.15901C19.2629 8.58097 19.5 9.15326 19.5 9.75V17.25Z" fill="#133880"/>
<path d="M12 9C11.11 9 10.24 9.26392 9.49994 9.75839C8.75991 10.2529 8.18314 10.9557 7.84254 11.7779C7.50195 12.6002 7.41283 13.505 7.58647 14.3779C7.7601 15.2508 8.18869 16.0526 8.81802 16.682C9.44736 17.3113 10.2492 17.7399 11.1221 17.9135C11.995 18.0872 12.8998 17.9981 13.7221 17.6575C14.5443 17.3169 15.2471 16.7401 15.7416 16.0001C16.2361 15.26 16.5 14.39 16.5 13.5C16.4988 12.3069 16.0243 11.163 15.1807 10.3193C14.337 9.47568 13.1931 9.00119 12 9ZM12 16.5C11.4067 16.5 10.8266 16.3241 10.3333 15.9944C9.83994 15.6648 9.45543 15.1962 9.22836 14.6481C9.0013 14.0999 8.94189 13.4967 9.05765 12.9147C9.1734 12.3328 9.45912 11.7982 9.87868 11.3787C10.2982 10.9591 10.8328 10.6734 11.4147 10.5576C11.9967 10.4419 12.5999 10.5013 13.1481 10.7284C13.6962 10.9554 14.1648 11.3399 14.4944 11.8333C14.8241 12.3266 15 12.9067 15 13.5C15 14.2956 14.6839 15.0587 14.1213 15.6213C13.5587 16.1839 12.7957 16.5 12 16.5Z" fill="#133880"/>
</svg>
