<svg width="30" height="27" viewBox="0 0 30 27" fill="none" xmlns="http://www.w3.org/2000/svg">
<path d="M9.1071 18.4804L12.6671 18.0004V21.8138C12.663 22.8715 12.2549 23.8876 11.5263 24.6543C10.7977 25.4211 9.80364 25.8804 8.74752 25.9383C7.6914 25.9962 6.65306 25.6483 5.84497 24.9659C5.03688 24.2834 4.52012 23.318 4.40043 22.2671L3.88043 17.6537C5.13891 18.2164 6.50192 18.5071 7.88043 18.5071C8.28976 18.5244 8.6991 18.5164 9.1071 18.4804ZM3.1071 3.25375C2.34035 3.93186 1.7264 4.76512 1.30591 5.69835C0.885415 6.63158 0.667969 7.64349 0.667969 8.66708C0.667969 9.69067 0.885415 10.7026 1.30591 11.6358C1.7264 12.569 2.34035 13.4023 3.1071 14.0804L3.5071 14.3737C4.7605 15.3383 6.29889 15.8589 7.88043 15.8538C8.17776 15.8738 8.47643 15.8738 8.77376 15.8538L12.6671 15.3337L22.0004 14.1604V3.16042L8.77376 1.50708C7.7593 1.37744 6.72884 1.46623 5.7515 1.76748C4.77416 2.06873 3.87254 2.57548 3.1071 3.25375V3.25375ZM27.3338 5.16042C26.6328 4.35479 25.7023 3.78258 24.6671 3.52042V13.8137C25.5432 13.5826 26.346 13.132 26.9997 12.5046C27.6534 11.8771 28.1364 11.0935 28.4033 10.2276C28.6701 9.36165 28.712 8.44203 28.5248 7.55546C28.3377 6.6689 27.9278 5.84463 27.3338 5.16042V5.16042Z" stroke="#595959"/>
</svg>
