<svg width="24" height="24" viewBox="0 0 24 24" fill="none" xmlns="http://www.w3.org/2000/svg">
<path d="M22.5656 11.4152L20.25 12.5683L17.25 6.83078L19.5938 5.65891C19.7679 5.57012 19.9701 5.5538 20.1563 5.61352C20.3425 5.67323 20.4975 5.80412 20.5875 5.97766L22.8937 10.3933C22.9405 10.4817 22.9691 10.5785 22.9779 10.6781C22.9867 10.7777 22.9755 10.8781 22.9449 10.9733C22.9143 11.0685 22.865 11.1567 22.7999 11.2326C22.7348 11.3084 22.6551 11.3705 22.5656 11.4152Z" stroke="black" stroke-width="1.5" stroke-linecap="round" stroke-linejoin="round"/>
<path d="M3.74984 12.4789L1.43422 11.3163C1.34506 11.2727 1.26559 11.2115 1.20055 11.1364C1.13551 11.0614 1.08622 10.9741 1.05561 10.8796C1.02499 10.7852 1.01369 10.6855 1.02236 10.5866C1.03103 10.4877 1.05951 10.3915 1.10609 10.3039L3.41234 5.88822C3.50256 5.71482 3.65691 5.58348 3.84253 5.52219C4.02814 5.46091 4.23035 5.47451 4.40609 5.5601L6.74984 6.73198L3.74984 12.4789Z" stroke="black" stroke-width="1.5" stroke-linecap="round" stroke-linejoin="round"/>
<path d="M20.25 12.5703L18.75 14.3328L15.3 17.7828C15.206 17.8707 15.092 17.9346 14.968 17.9689C14.8439 18.0031 14.7133 18.0069 14.5875 17.9797L9.15 16.6203C9.05067 16.5926 8.95812 16.5448 8.87812 16.4797L3.75 12.4766" stroke="black" stroke-width="1.5" stroke-linecap="round" stroke-linejoin="round"/>
<path d="M18.7496 14.3359L14.6246 11.3359L13.4246 12.2359C12.9047 12.624 12.2733 12.8336 11.6246 12.8336C10.9759 12.8336 10.3445 12.624 9.82459 12.2359L9.31834 11.8516C9.23274 11.7865 9.16193 11.704 9.11061 11.6095C9.05929 11.515 9.02862 11.4106 9.02065 11.3034C9.01267 11.1961 9.02756 11.0884 9.06434 10.9874C9.10111 10.8863 9.15893 10.7942 9.23397 10.7172L12.909 7.05157C12.978 6.98287 13.0599 6.92847 13.15 6.89147C13.2401 6.85447 13.3366 6.8356 13.434 6.83594H17.2496" stroke="black" stroke-width="1.5" stroke-linecap="round" stroke-linejoin="round"/>
<path d="M6.80664 6.73218L11.616 5.32593C11.7869 5.27693 11.9696 5.29022 12.1316 5.36343L15.3754 6.83531" stroke="black" stroke-width="1.5" stroke-linecap="round" stroke-linejoin="round"/>
<path d="M10.5 19.9594L7.67813 19.2469C7.56313 19.2209 7.45666 19.166 7.36875 19.0875L5.25 17.25" stroke="black" stroke-width="1.5" stroke-linecap="round" stroke-linejoin="round"/>
</svg>
