<svg width="24" height="24" viewBox="0 0 24 24" fill="none" xmlns="http://www.w3.org/2000/svg">
<path d="M13.5002 13.5246C13.2118 13.7069 12.8609 13.8055 12.5002 13.8055C12.1396 13.8055 11.7886 13.7069 11.5003 13.5246L7.04045 11L7.00045 11.0042C7.00045 11.0295 7.00045 11.0505 7.00045 11.0715C7.00045 12.4222 7.00045 13.7855 7.00045 15.1277C6.99643 15.2404 7.01933 15.3525 7.06778 15.4575C7.11623 15.5626 7.18925 15.6583 7.28251 15.7392C7.37577 15.82 7.48736 15.8843 7.61068 15.9281C7.734 15.972 7.86653 15.9946 8.00041 15.9945H16.895C17.1551 16.0196 17.4166 15.9579 17.6232 15.8226C17.8298 15.6872 17.9651 15.4891 18 15.2708V11.0042L17.5 11.2861L13.5002 13.5246Z" fill="#00549A"/>
<path d="M17.955 8.69543C17.8882 8.48585 17.754 8.30421 17.5733 8.17867C17.3927 8.05313 17.1756 7.99072 16.9559 8.00112H7.97345C7.75833 8.00802 7.55119 8.08419 7.38286 8.2183C7.21453 8.3524 7.09401 8.53726 7.03923 8.74538C6.98089 8.94302 6.98777 9.1542 7.05886 9.34763C7.12994 9.54106 7.26145 9.70645 7.4339 9.8193C8.93264 10.8183 10.4314 11.8173 11.9301 12.8163C12.0941 12.9357 12.2918 13 12.4946 13C12.6975 13 12.8951 12.9357 13.0592 12.8163C14.5579 11.8173 16.0566 10.8183 17.5554 9.8193C17.6829 9.72578 17.7914 9.60881 17.8751 9.47465C17.9304 9.37393 17.9724 9.26648 18 9.15497V8.87525C18 8.81531 18 8.75537 17.955 8.69543Z" fill="#00549A"/>
</svg>
