<svg width="11" height="14" viewBox="0 0 11 14" fill="none" xmlns="http://www.w3.org/2000/svg">
<path d="M2.50391 2.85641C2.66679 2.85683 2.824 2.80026 2.94496 2.69773C3.06591 2.5952 3.14196 2.45404 3.1583 2.30171C3.19623 1.94439 3.37433 1.61314 3.6579 1.3725C3.94147 1.13186 4.31019 0.999071 4.69223 1H5.88996C6.272 0.999071 6.64072 1.13186 6.92428 1.3725C7.20785 1.61314 7.38595 1.94439 7.42389 2.30171C7.44023 2.45404 7.51627 2.5952 7.63723 2.69773C7.75818 2.80026 7.9154 2.85683 8.07827 2.85641M2.50391 2.85641H4.05069H6.53252H8.07827M2.50391 2.85641H1L1.07588 5.28637L1.2815 11.1383C1.29954 11.6389 1.52431 12.1133 1.90815 12.4609C2.292 12.8084 2.80475 13.0018 3.3377 13H7.24448C7.77778 13.0018 8.29083 12.8081 8.67473 12.4602C9.05863 12.1122 9.28317 11.6373 9.30068 11.1363L9.5063 5.28637L9.57143 2.85641H8.07827M4.05429 5.57966V10.6623M6.52893 5.57966V10.6623" stroke="#7E57C2" stroke-linecap="round"/>
</svg>
