<svg width="21" height="20" viewBox="0 0 21 20" fill="none" xmlns="http://www.w3.org/2000/svg">
    <path d="M10.0309 14.4157L3.94985 8.16569C3.77849 7.98957 3.68222 7.7507 3.68222 7.50163C3.68222 7.25255 3.77849 7.01368 3.94985 6.83756C4.12121 6.66144 4.35363 6.5625 4.59597 6.5625C4.83831 6.5625 5.07072 6.66144 5.24208 6.83756L10.6763 12.4243L16.112 6.83913C16.1969 6.75192 16.2976 6.68274 16.4085 6.63555C16.5193 6.58835 16.6381 6.56406 16.7581 6.56406C16.8781 6.56406 16.9969 6.58835 17.1078 6.63555C17.2187 6.68274 17.3194 6.75192 17.4042 6.83913C17.4891 6.92633 17.5564 7.02986 17.6023 7.1438C17.6482 7.25774 17.6719 7.37986 17.6719 7.50319C17.6719 7.62652 17.6482 7.74864 17.6023 7.86258C17.5564 7.97652 17.4891 8.08005 17.4042 8.16725L11.3232 14.4173C11.2383 14.5045 11.1375 14.5738 11.0266 14.621C10.9157 14.6681 10.7968 14.6924 10.6767 14.6922C10.5567 14.6921 10.4378 14.6676 10.327 14.6201C10.2162 14.5727 10.1156 14.5032 10.0309 14.4157Z" fill="black"/>
</svg>
