<svg width="24" height="24" viewBox="0 0 24 24" fill="none" xmlns="http://www.w3.org/2000/svg">
    <path
        d="M20.316 14.3055C18.8435 14.7184 17.2876 14.7319 15.8081 14.3447C14.3287 13.9574 12.979 13.1834 11.8976 12.102C10.8162 11.0206 10.0421 9.67089 9.6549 8.19143C9.26766 6.71197 9.28119 5.1561 9.69411 3.68359C8.24236 4.08767 6.92181 4.86505 5.86399 5.93831C4.80618 7.01157 4.04802 8.34325 3.66504 9.80071C3.28205 11.2582 3.2876 12.7905 3.68114 14.2452C4.07468 15.6998 4.84247 17.026 5.90804 18.0915C6.97361 19.1571 8.29976 19.9249 9.7544 20.3184C11.209 20.712 12.7414 20.7175 14.1989 20.3345C15.6563 19.9516 16.988 19.1934 18.0613 18.1356C19.1345 17.0778 19.9119 15.7572 20.316 14.3055V14.3055Z"
        stroke="black" stroke-width="1.5" stroke-linecap="round" stroke-linejoin="round" />
</svg>
