<svg width="24" height="24" viewBox="0 0 24 24" fill="none" xmlns="http://www.w3.org/2000/svg">
<path d="M4.72727 2C4.00396 2 3.31026 2.28734 2.7988 2.7988C2.28734 3.31026 2 4.00396 2 4.72727C2 5.45059 2.28734 6.14428 2.7988 6.65575C3.31026 7.16721 4.00396 7.45455 4.72727 7.45455C5.45059 7.45455 6.14428 7.16721 6.65575 6.65575C7.16721 6.14428 7.45455 5.45059 7.45455 4.72727C7.45455 4.00396 7.16721 3.31026 6.65575 2.7988C6.14428 2.28734 5.45059 2 4.72727 2ZM9.27273 2.90909V4.72727H20.1818V14.7273H9.27273V15.4837C9.2565 15.5818 9.2565 15.682 9.27273 15.7802V16.5455H21.0909H22C22.1205 16.5472 22.2401 16.5249 22.3519 16.48C22.4636 16.4351 22.5654 16.3684 22.6512 16.2838C22.737 16.1992 22.8051 16.0984 22.8516 15.9873C22.8981 15.8761 22.922 15.7568 22.922 15.6364C22.922 15.5159 22.8981 15.3966 22.8516 15.2855C22.8051 15.1743 22.737 15.0735 22.6512 14.9889C22.5654 14.9044 22.4636 14.8377 22.3519 14.7927C22.2401 14.7478 22.1205 14.7256 22 14.7273V3.81818C22 3.57708 21.9042 3.34587 21.7337 3.17538C21.5632 3.0049 21.332 2.90912 21.0909 2.90909H9.27273ZM3.81818 9.27273C2.81364 9.27273 2 10.0864 2 11.0909V16.5455H7.45455V12C7.45455 11.4982 7.86182 11.0909 8.36364 11.0909H9.27273H12.9091C13.0296 11.0926 13.1492 11.0704 13.2609 11.0254C13.3727 10.9805 13.4745 10.9138 13.5603 10.8292C13.6461 10.7447 13.7142 10.6439 13.7607 10.5327C13.8072 10.4216 13.8311 10.3023 13.8311 10.1818C13.8311 10.0613 13.8072 9.94206 13.7607 9.83092C13.7142 9.71978 13.6461 9.61899 13.5603 9.5344C13.4745 9.44981 13.3727 9.38312 13.2609 9.3382C13.1492 9.29328 13.0296 9.27102 12.9091 9.27273H9.27273H6.54545H3.81818ZM3.81818 18.3636C3.33597 18.3636 2.87351 18.5552 2.53253 18.8962C2.19156 19.2371 2 19.6996 2 20.1818C2 20.664 2.19156 21.1265 2.53253 21.4675C2.87351 21.8084 3.33597 22 3.81818 22C4.30039 22 4.76286 21.8084 5.10383 21.4675C5.44481 21.1265 5.63636 20.664 5.63636 20.1818C5.63636 19.6996 5.44481 19.2371 5.10383 18.8962C4.76286 18.5552 4.30039 18.3636 3.81818 18.3636ZM9.27273 18.3636C8.79052 18.3636 8.32805 18.5552 7.98708 18.8962C7.6461 19.2371 7.45455 19.6996 7.45455 20.1818C7.45455 20.664 7.6461 21.1265 7.98708 21.4675C8.32805 21.8084 8.79052 22 9.27273 22C9.75494 22 10.2174 21.8084 10.5584 21.4675C10.8994 21.1265 11.0909 20.664 11.0909 20.1818C11.0909 19.6996 10.8994 19.2371 10.5584 18.8962C10.2174 18.5552 9.75494 18.3636 9.27273 18.3636ZM14.7273 18.3636C14.2451 18.3636 13.7826 18.5552 13.4416 18.8962C13.1006 19.2371 12.9091 19.6996 12.9091 20.1818C12.9091 20.664 13.1006 21.1265 13.4416 21.4675C13.7826 21.8084 14.2451 22 14.7273 22C15.2095 22 15.6719 21.8084 16.0129 21.4675C16.3539 21.1265 16.5455 20.664 16.5455 20.1818C16.5455 19.6996 16.3539 19.2371 16.0129 18.8962C15.6719 18.5552 15.2095 18.3636 14.7273 18.3636ZM20.1818 18.3636C19.6996 18.3636 19.2371 18.5552 18.8962 18.8962C18.5552 19.2371 18.3636 19.6996 18.3636 20.1818C18.3636 20.664 18.5552 21.1265 18.8962 21.4675C19.2371 21.8084 19.6996 22 20.1818 22C20.664 22 21.1265 21.8084 21.4675 21.4675C21.8084 21.1265 22 20.664 22 20.1818C22 19.6996 21.8084 19.2371 21.4675 18.8962C21.1265 18.5552 20.664 18.3636 20.1818 18.3636Z" fill="#00A424"/>
</svg>
