<svg width="21" height="20" viewBox="0 0 21 20" fill="none" xmlns="http://www.w3.org/2000/svg">
    <path
        d="M17.9609 11.25V16.25C17.9609 16.4986 17.8622 16.7371 17.6863 16.9129C17.5105 17.0887 17.2721 17.1875 17.0234 17.1875H3.27344C3.0248 17.1875 2.78634 17.0887 2.61052 16.9129C2.43471 16.7371 2.33594 16.4986 2.33594 16.25V11.25C2.33594 11.0014 2.43471 10.7629 2.61052 10.5871C2.78634 10.4113 3.0248 10.3125 3.27344 10.3125C3.52208 10.3125 3.76053 10.4113 3.93635 10.5871C4.11217 10.7629 4.21094 11.0014 4.21094 11.25V15.3125H16.0859V11.25C16.0859 11.0014 16.1847 10.7629 16.3605 10.5871C16.5363 10.4113 16.7748 10.3125 17.0234 10.3125C17.2721 10.3125 17.5105 10.4113 17.6863 10.5871C17.8622 10.7629 17.9609 11.0014 17.9609 11.25ZM9.48516 11.9133C9.57225 12.0007 9.67575 12.07 9.7897 12.1173C9.90366 12.1647 10.0258 12.189 10.1492 12.189C10.2726 12.189 10.3948 12.1647 10.5087 12.1173C10.6227 12.07 10.7262 12.0007 10.8133 11.9133L13.9383 8.78828C14.1144 8.61216 14.2133 8.37329 14.2133 8.12422C14.2133 7.87515 14.1144 7.63628 13.9383 7.46016C13.7622 7.28404 13.5233 7.18509 13.2742 7.18509C13.0251 7.18509 12.7863 7.28404 12.6102 7.46016L11.0859 8.98438V2.5C11.0859 2.25136 10.9872 2.0129 10.8113 1.83709C10.6355 1.66127 10.3971 1.5625 10.1484 1.5625C9.8998 1.5625 9.66134 1.66127 9.48552 1.83709C9.30971 2.0129 9.21094 2.25136 9.21094 2.5V8.98438L7.68672 7.46172C7.59951 7.37451 7.49598 7.30534 7.38204 7.25814C7.2681 7.21095 7.14598 7.18666 7.02266 7.18666C6.77358 7.18666 6.53471 7.2856 6.35859 7.46172C6.27139 7.54892 6.20221 7.65245 6.15502 7.76639C6.10782 7.88033 6.08353 8.00245 6.08353 8.12578C6.08353 8.37485 6.18247 8.61372 6.35859 8.78984L9.48516 11.9133Z"
        fill="#197BFF" />
</svg>
