<svg width="24" height="24" viewBox="0 0 24 24" fill="none" xmlns="http://www.w3.org/2000/svg">
    <path
        d="M12 2C6.477 2 2 6.477 2 12C2 17.523 6.477 22 12 22C17.523 22 22 17.523 22 12C22 6.477 17.523 2 12 2ZM13 16.398V18H11V16.403C9.529 16.127 8.604 15.223 8.55 13.902H10.282C10.365 14.596 11.065 15.041 12.074 15.041C13.005 15.041 13.664 14.59 13.664 13.943C13.664 13.397 13.237 13.083 12.187 12.857L11.072 12.62C9.512 12.294 8.746 11.481 8.746 10.176C8.746 8.863 9.615 7.927 11 7.619V6H13V7.616C14.35 7.918 15.252 8.838 15.296 10.081H13.611C13.528 9.405 12.899 8.954 12.033 8.954C11.137 8.954 10.544 9.369 10.544 10.022C10.544 10.55 10.953 10.853 11.956 11.066L12.988 11.286C14.709 11.648 15.45 12.39 15.45 13.718C15.45 15.148 14.532 16.107 13 16.398Z"
        fill="#FF6082" />
</svg>
