<svg width="34" height="32" viewBox="0 0 34 32" fill="none" xmlns="http://www.w3.org/2000/svg">
<path d="M30.4816 3.26822H31.3566C31.4504 3.26822 31.5379 3.32524 31.5816 3.41394L32.9754 6.47413C33.0129 6.55649 33.0066 6.6452 32.9629 6.72123C32.9129 6.79092 32.8379 6.83527 32.7504 6.83527H31.4566L29.4503 29.0486C29.4378 29.1753 29.3316 29.2767 29.2003 29.2767H28.1878M30.4816 3.26822V2.05174C30.4816 1.46885 30.0128 1 29.4441 1H15.0564C14.4814 1 14.0189 1.47518 14.0189 2.05174V3.26822M30.4816 3.26822H29.9816H14.5189H14.0189M14.0189 3.26822H13.1439C13.0439 3.26822 12.9564 3.32524 12.9189 3.41394L11.5251 6.47413C11.4876 6.55016 11.4939 6.6452 11.5439 6.71489C11.5876 6.78458 11.6689 6.82893 11.7564 6.82893H13.0439L13.4876 11.7265M13.4876 11.7265C12.7376 11.5428 11.9626 11.4414 11.1689 11.4414C6.36881 11.4477 2.25001 15.0655 1.57501 19.868C1.51876 20.2672 1.63126 20.6727 1.88126 20.9831M13.4876 11.7265L14.0002 11.8722C15.5002 12.3347 16.8752 13.1647 18.0127 14.3242C19.5065 15.8384 20.4502 17.7582 20.7502 19.868C20.8065 20.2672 20.694 20.6727 20.444 20.9831M1.88126 20.9831C1.3875 21.0591 1.00625 21.4836 1.00625 22.0095C1.00625 22.3833 1.20625 22.7128 1.50001 22.8902M1.88126 20.9831H20.444M1.50001 22.8902C1.47501 22.9155 1.44376 22.9345 1.41875 22.9599C1.15625 23.226 1.00625 23.5871 1.00625 23.9673C1.00625 24.4488 1.24375 24.8796 1.61251 25.1394M1.50001 22.8902H20.8315M1.61251 25.1394C1.24375 25.3928 1 25.8237 1 26.3052V27.3506C1 27.8511 1.21875 28.2946 1.55626 28.6051M1.61251 25.1394H20.7127M1.55626 28.6051V29.6061C1.55626 30.3728 2.16876 31 2.93127 31H16.5627H19.394H27.9378C28.0753 31 28.1878 30.886 28.1878 30.7466V29.2767M1.55626 28.6051L2.05626 28.9219C2.24376 28.9979 2.45002 29.0422 2.66877 29.0422C3.24378 29.0422 3.78128 28.7381 4.08129 28.2439C4.38129 28.7381 4.9188 29.0422 5.4938 29.0422C6.06881 29.0422 6.60632 28.7381 6.91257 28.2439C7.21882 28.7381 7.75008 29.0422 8.33134 29.0422C8.91259 29.0422 9.44385 28.7381 9.74385 28.2439C10.0501 28.7381 10.5814 29.0422 11.1564 29.0422C11.7314 29.0422 12.2689 28.7381 12.5751 28.2439C12.8814 28.7381 13.4126 29.0422 13.9939 29.0422C14.5752 29.0422 15.1064 28.7381 15.4064 28.2439C15.7127 28.7381 16.2439 29.0422 16.8189 29.0422C17.3939 29.0422 17.9314 28.7381 18.2377 28.2439C18.5627 28.7761 19.144 29.0803 19.7627 29.0359C19.9377 29.0232 20.1065 28.9852 20.2627 28.9219M28.1878 29.2767H20.7627M19.6065 20.9704H2.71252M20.2627 28.9219L20.7627 28.5987C21.1065 28.2819 21.319 27.8131 21.319 27.3062V26.3115C21.319 25.83 21.0815 25.3992 20.7127 25.1394M20.2627 28.9219L20.7627 29.2767M20.7627 29.2767H27.6878M20.7127 25.1394C21.0815 24.8796 21.319 24.4551 21.319 23.9673C21.319 23.5364 21.1315 23.1499 20.8315 22.8902M20.8315 22.8902C21.1252 22.7064 21.319 22.3833 21.319 22.0095C21.319 21.4836 20.9377 21.0591 20.444 20.9831" stroke="#595959"/>
</svg>
