<svg width="24" height="24" viewBox="0 0 24 24" fill="none" xmlns="http://www.w3.org/2000/svg">
<path d="M12 0C5.38372 0 0 5.38223 0 11.9993C0 18.6163 5.38372 23.9985 12 23.9985C18.6163 23.9985 24 18.6163 24 11.9993C24 5.38223 18.6163 0 12 0Z" fill="#D76176"/>
<path d="M7.71667 15.9472C8.2764 15.3064 8.95537 14.7948 9.71103 14.4443C10.4667 14.0937 11.2827 13.9119 12.108 13.9102C12.9448 13.9115 13.772 14.0981 14.5364 14.4581C15.3007 14.8181 15.985 15.3433 16.5453 16M8.33333 10.8174C9.06867 10.8174 9.66667 10.1856 9.66667 9.4087C9.66667 8.6318 9.06867 8 8.33333 8C7.598 8 7 8.6318 7 9.4087C7 10.1856 7.598 10.8174 8.33333 10.8174ZM15.6667 10.8174C16.402 10.8174 17 10.1856 17 9.4087C17 8.6318 16.402 8 15.6667 8C14.9313 8 14.3333 8.6318 14.3333 9.4087C14.3333 10.1856 14.9313 10.8174 15.6667 10.8174Z" stroke="white" stroke-linecap="round"/>
</svg>
