<svg width="24" height="24" viewBox="0 0 24 24" fill="none" xmlns="http://www.w3.org/2000/svg">
    <path
        d="M2 12C2 17.5139 6.48608 22 12 22C17.5139 22 22 17.5139 22 12C22 6.48608 17.5139 2 12 2C6.48608 2 2 6.48608 2 12ZM12.2946 6.28874L16.0446 10.0387C16.1243 10.1185 16.1667 10.2251 16.1667 10.3333C16.1667 10.387 16.1565 10.4412 16.1349 10.4928C16.0706 10.6487 15.9185 10.75 15.75 10.75H14.9167C14.806 10.75 14.7002 10.7061 14.6221 10.6279L12.8333 8.83919V17.4167C12.8333 17.647 12.647 17.8333 12.4167 17.8333H11.5833C11.353 17.8333 11.1667 17.647 11.1667 17.4167V8.83919L9.37793 10.6279C9.2998 10.7061 9.19401 10.75 9.08333 10.75H8.25C8.08154 10.75 7.92936 10.6487 7.86507 10.4928C7.79997 10.3366 7.83618 10.158 7.9554 10.0387L11.7054 6.28874C11.8682 6.12598 12.1318 6.12598 12.2946 6.28874Z"
        fill="#00BFA5" />
</svg>
