<svg width="27" height="26" viewBox="0 0 27 26" fill="none" xmlns="http://www.w3.org/2000/svg">
<path d="M15.376 7.16563C16.5929 7.58437 17.8696 7.8028 19.1564 7.8124C21.2508 7.82226 23.3117 7.28609 25.1357 6.25673C25.2675 6.18162 25.4168 6.14273 25.5684 6.144C25.7201 6.14527 25.8688 6.18666 25.9993 6.26396C26.1309 6.33997 26.2401 6.44947 26.3158 6.58134C26.3914 6.7132 26.4308 6.86275 26.43 7.01477V16.4879C26.43 19.3543 25.0739 22.0894 22.8024 23.8043C21.7776 24.5802 20.5274 25 19.242 25C17.9566 25 16.7064 24.5802 15.6816 23.8043C13.8919 22.4439 12.6631 20.4745 12.228 18.2689M15.376 7.16563V1.86933C15.3761 1.71765 15.3365 1.56858 15.2611 1.43697C15.1857 1.30535 15.0771 1.19576 14.9462 1.11911C14.8153 1.04245 14.6667 1.0014 14.515 1.00004C14.3633 0.998668 14.2139 1.03703 14.0816 1.11131C12.2826 2.12605 10.2531 2.66181 8.18755 2.66727C8.15932 2.66727 8.13075 2.66717 8.10243 2.66695C6.06679 2.64694 4.06931 2.11216 2.29598 1.11241C2.16374 1.03782 2.01428 0.99918 1.86246 1.00033C1.71065 1.00148 1.56179 1.04238 1.4307 1.11895C1.29961 1.19553 1.19086 1.30511 1.1153 1.43679C1.03973 1.56846 0.999981 1.71764 1 1.86945V11.3425C1 14.2089 2.35612 16.944 4.62761 18.6589C5.65244 19.4347 6.90264 19.8546 8.18801 19.8546C9.47339 19.8546 10.7236 19.4347 11.7484 18.6589C11.9134 18.5344 12.0729 18.4039 12.228 18.2689M15.376 7.16563V7.95043V11.3425M12.228 18.2689L12.8784 17.6432C13.9006 16.553 14.6428 15.2309 15.0413 13.7905L15.221 13.0127M15.3342 12.2065C15.5863 12.0378 15.8828 11.9479 16.1861 11.9481C16.4435 11.948 16.6969 12.0122 16.9232 12.1349C17.1495 12.2575 17.3417 12.4347 17.4822 12.6504C17.3645 12.8313 17.2103 12.9855 17.0294 13.1031C16.8485 13.2207 16.645 13.2991 16.432 13.3333C16.2189 13.3674 16.0011 13.3565 15.7925 13.3013C15.5839 13.2461 15.3893 13.1478 15.221 13.0127M15.3342 12.2065C15.3082 12.4777 15.2705 12.7465 15.221 13.0127M15.3342 12.2065L15.376 11.3425M15.3759 11.3512C15.3759 11.3483 15.376 11.3454 15.376 11.3425M3.83602 7.50498C3.97658 7.28934 4.16871 7.11218 4.39503 6.98955C4.62134 6.86692 4.87467 6.80269 5.13207 6.80269C5.38947 6.80269 5.64281 6.86692 5.86912 6.98955C6.09543 7.11218 6.28757 7.28934 6.42812 7.50498C6.28757 7.72062 6.09543 7.89778 5.86912 8.02041C5.64281 8.14304 5.38947 8.20727 5.13207 8.20727C4.87467 8.20727 4.62134 8.14304 4.39503 8.02041C4.16871 7.89778 3.97658 7.72062 3.83602 7.50498ZM11.244 8.20727C10.9866 8.20738 10.7332 8.1432 10.5068 8.02056C10.2805 7.89792 10.0884 7.7207 9.9479 7.50498C10.0885 7.28934 10.2806 7.11218 10.5069 6.98955C10.7332 6.86692 10.9865 6.80269 11.244 6.80269C11.5014 6.80269 11.7547 6.86692 11.981 6.98955C12.2073 7.11218 12.3994 7.28934 12.54 7.50498C12.3995 7.72069 12.2074 7.89791 11.9811 8.02055C11.7548 8.14319 11.5014 8.20737 11.244 8.20727ZM8.15234 14.5388C6.90729 14.5235 5.81411 13.6786 5.41701 12.5165C6.29164 12.8779 7.22843 13.065 8.17479 13.0675H8.18794C9.13933 13.0668 10.0813 12.8794 10.9605 12.5158C10.5579 13.7071 9.4356 14.5546 8.15234 14.5388ZM22.298 13.3527C22.0405 13.3528 21.7872 13.2886 21.5608 13.166C21.3345 13.0433 21.1424 12.8661 21.0019 12.6504C21.1424 12.4348 21.3346 12.2576 21.5609 12.135C21.7872 12.0124 22.0405 11.9481 22.2979 11.9481C22.5553 11.9481 22.8087 12.0124 23.035 12.135C23.2613 12.2576 23.4534 12.4348 23.594 12.6504C23.4535 12.8661 23.2614 13.0433 23.0351 13.166C22.8088 13.2886 22.5554 13.3528 22.298 13.3527ZM19.2419 18.8479H19.2288C18.2824 18.8503 17.3456 19.0375 16.471 19.3989C16.8681 18.2368 17.9613 17.3919 19.2063 17.3766C20.4883 17.3591 21.6119 18.2082 22.0145 19.3995C21.1353 19.036 20.1933 18.8486 19.2419 18.8479Z" stroke="#595959"/>
</svg>
