<svg width="40" height="40" viewBox="0 0 40 40" fill="none" xmlns="http://www.w3.org/2000/svg">
    <path
        d="M30.3984 10H9.02968C8.22643 10.0009 7.45634 10.3204 6.88836 10.8884C6.32038 11.4563 6.00089 12.2264 6 13.0297V26.9703C6.00089 27.7736 6.32038 28.5437 6.88836 29.1116C7.45634 29.6796 8.22643 29.9991 9.02968 30H30.3983C31.2016 29.9991 31.9717 29.6796 32.5397 29.1116C33.1076 28.5437 33.4271 27.7736 33.428 26.9703V13.0296C33.4271 12.2264 33.1077 11.4563 32.5397 10.8883C31.9717 10.3204 31.2016 10.0009 30.3984 10ZM25.7168 19.9922L31.8913 15.1599V25.9859L25.7168 19.9922ZM9.02968 11.5367H30.3983C30.7942 11.5371 31.1737 11.6946 31.4535 11.9745C31.7334 12.2544 31.8909 12.6339 31.8913 13.0297V13.2088L21.0919 21.6606C20.7294 21.9434 20.2827 22.0967 19.823 22.096C19.3633 22.0953 18.9171 21.9407 18.5555 21.6568L7.53678 13.2091V13.0296C7.53722 12.6338 7.69465 12.2543 7.97453 11.9745C8.25441 11.6946 8.63388 11.5371 9.02968 11.5367ZM13.8741 20.0039L7.53678 25.9635V15.1452L13.8741 20.0039ZM30.3984 28.4635H9.02968C8.78882 28.4633 8.55157 28.4048 8.33823 28.293C8.12489 28.1812 7.9418 28.0194 7.80462 27.8214L15.11 20.9514L17.6158 22.8722C18.2473 23.3656 19.0257 23.6335 19.8271 23.6334C20.6285 23.6332 21.4068 23.365 22.0381 22.8714L24.4956 20.9481L31.6035 27.8479C31.4654 28.0382 31.2842 28.1932 31.0748 28.3001C30.8654 28.407 30.6336 28.4632 30.3984 28.4635Z"
        fill="black" />
</svg>
