<svg width="24" height="24" viewBox="0 0 24 24" fill="none" xmlns="http://www.w3.org/2000/svg">
<path d="M16.3919 9.40953C16.9603 9.40995 17.513 9.21552 17.9651 8.85618C18.4172 8.49683 18.7435 7.99248 18.894 7.42071C19.0444 6.84895 19.0106 6.24146 18.7977 5.6917C18.5848 5.14195 18.2047 4.6804 17.7158 4.37806C17.2269 4.07573 16.6563 3.94936 16.0918 4.01841C15.5274 4.08745 15.0003 4.34808 14.5917 4.76019C14.183 5.17231 13.9156 5.71307 13.8304 6.29929C13.7452 6.8855 13.847 7.48468 14.1201 8.00463L9.63532 10.4442C9.30537 10.0017 8.85168 9.67723 8.3371 9.51568C7.82252 9.35414 7.27253 9.36353 6.76329 9.54256C6.25406 9.72159 5.81079 10.0614 5.4949 10.5149C5.179 10.9684 5.0061 11.5132 5.00016 12.0737C4.99421 12.6343 5.15552 13.1829 5.46172 13.6436C5.76793 14.1043 6.20388 14.4542 6.70919 14.645C7.2145 14.8357 7.76417 14.8578 8.28204 14.7082C8.79992 14.5585 9.26038 14.2446 9.59964 13.8098L14.014 16.2042C13.7505 16.836 13.7273 17.5488 13.9492 18.1978C14.171 18.8469 14.6212 19.3836 15.2084 19.699C15.7956 20.0144 16.4759 20.085 17.1112 19.8963C17.7464 19.7077 18.2891 19.2739 18.6291 18.6831C18.969 18.0924 19.0808 17.3888 18.9417 16.7152C18.8026 16.0416 18.423 15.4484 17.88 15.0561C17.3371 14.6637 16.6713 14.5016 16.018 14.6025C15.3646 14.7035 14.7725 15.06 14.3619 15.5997L9.95525 13.2095C10.1014 12.8708 10.1789 12.5043 10.1829 12.1329C10.187 11.7614 10.1174 11.3931 9.97865 11.0511L14.5252 8.57794C14.7664 8.84088 15.0561 9.05013 15.377 9.19305C15.6978 9.33598 16.0431 9.40962 16.3919 9.40953ZM16.3919 15.277C16.7709 15.277 17.1414 15.3942 17.4566 15.6139C17.7717 15.8336 18.0173 16.1458 18.1623 16.5111C18.3074 16.8764 18.3453 17.2783 18.2714 17.6661C18.1975 18.0539 18.0149 18.4101 17.747 18.6897C17.479 18.9693 17.1375 19.1597 16.7658 19.2368C16.3941 19.3139 16.0088 19.2744 15.6586 19.123C15.3085 18.9717 15.0092 18.7155 14.7986 18.3868C14.5881 18.058 14.4757 17.6715 14.4757 17.2761C14.4762 16.7461 14.6783 16.238 15.0376 15.8632C15.3968 15.4884 15.8839 15.2776 16.3919 15.277ZM7.59226 14.1026C7.21326 14.1026 6.84277 13.9854 6.52764 13.7657C6.21251 13.5461 5.96689 13.2338 5.82186 12.8686C5.67682 12.5033 5.63887 12.1013 5.71281 11.7135C5.78675 11.3257 5.96926 10.9695 6.23725 10.6899C6.50525 10.4104 6.84669 10.22 7.21841 10.1428C7.59013 10.0657 7.97543 10.1053 8.32559 10.2566C8.67574 10.4079 8.97502 10.6641 9.18558 10.9929C9.39615 11.3216 9.50853 11.7081 9.50853 12.1035C9.50796 12.6335 9.30589 13.1417 8.94664 13.5165C8.58739 13.8912 8.10031 14.102 7.59226 14.1026ZM16.3919 4.70756C16.7709 4.70756 17.1414 4.8248 17.4566 5.04447C17.7717 5.26413 18.0173 5.57635 18.1623 5.94164C18.3074 6.30693 18.3453 6.70889 18.2714 7.09668C18.1975 7.48447 18.0149 7.84067 17.747 8.12025C17.479 8.39983 17.1375 8.59023 16.7658 8.66737C16.3941 8.7445 16.0088 8.70492 15.6586 8.55361C15.3085 8.4023 15.0092 8.14607 14.7986 7.81732C14.5881 7.48856 14.4757 7.10206 14.4757 6.70667C14.4762 6.17665 14.6783 5.66852 15.0376 5.29374C15.3968 4.91896 15.8839 4.70815 16.3919 4.70756Z" fill="white" stroke="white"/>
</svg>
