<svg width="120" height="120" viewBox="0 0 120 120" fill="none" xmlns="http://www.w3.org/2000/svg">
<g clip-path="url(#clip0_3821_13304)">
<path d="M88.4343 3.50105L84.9865 4.39892L84.2701 6.28444L83.4641 5.79061L81.3148 7.04763L82.1655 7.9455L80.9566 9.11273L77.6431 9.78613L77.9565 11.4472L79.8819 11.8512L77.1953 12.4349L78.1804 14.7244L82.1655 15.1285L81.8521 21.234L82.8372 22.2216L81.5387 23.2542V24.5112H83.2402L82.0312 26.6212L80.8222 27.2946L81.6282 32.592L82.8372 34.3429L84.6283 35.7795L87.7179 29.7188L90.494 28.9108L92.3299 26.8906L97.4344 24.8255L94.6135 24.4663L95.106 22.6257L96.5389 24.2867L97.4792 24.4214V22.8052L96.1807 20.6504L97.7926 20.785L98.7777 19.9321L99.2703 16.7446L98.6434 15.6223L99.9867 15.8019L100.255 14.6795L99.2703 13.9612L104.061 7.54146L102.226 6.28444L98.2404 8.84337L99.9419 6.28444L98.2404 7.04763L98.5091 6.28444L95.5986 6.5987L100.927 5.02742L99.5837 3.90509L98.9568 3.54594L95.5986 3.90509L98.8225 2.87254L95.2404 2.06445L93.8075 2.87254L92.2403 2.60318L90.5388 3.50105C90.5388 3.50105 91.6582 5.61104 91.4791 5.79061C91.3 5.92529 90.1806 5.79061 90.1806 5.79061L89.8672 3.50105L89.1507 5.207L87.9865 5.1621L88.4343 3.50105Z" stroke="white" stroke-width="0.8"/>
<path d="M56.1074 65.2318L57.4059 65.0073L58.0776 64.738L58.6597 65.0073L59.9135 65.4563L60.0926 65.8603L60.9433 66.1297L60.4508 66.6235H60.6747L61.4359 66.4888L62.0627 66.6235L62.7344 66.3092L61.6597 65.6807L60.3612 65.0073H59.6L59.197 64.4686H58.391L57.9433 64.2441L57.1373 64.4686L56.3761 64.738L56.1074 65.2318Z" stroke="white" stroke-width="0.8"/>
<path d="M61.3916 67.8337L60.9438 67.3848L59.8691 67.6092L60.4512 68.0133H60.9438L61.3916 67.8337Z" stroke="white" stroke-width="0.8"/>
<path d="M66.7188 67.699V68.0133H67.7486L67.883 67.3848L66.7188 67.699Z" stroke="white" stroke-width="0.8"/>
<path d="M70.7927 72.3242H70.1211V73.0425H70.4345L70.7927 72.3242Z" stroke="white" stroke-width="0.8"/>
<path d="M60.1367 61.7733L60.271 62.1773L60.8531 61.7733V61.5039L60.1367 61.7733Z" stroke="white" stroke-width="0.8"/>
<path d="M60.63 62.8945L60.3613 63.3435L60.63 63.523V64.0618L61.033 63.9271L60.8539 63.4781L60.63 62.8945Z" stroke="white" stroke-width="0.8"/>
<path d="M61.2104 61.6836L61.0312 61.8632V62.5815L61.3895 62.3121L61.2104 61.6836Z" stroke="white" stroke-width="0.8"/>
<path d="M61.9277 63.2559V63.7946H62.2412L61.9277 63.2559Z" stroke="white" stroke-width="0.8"/>
<path d="M63.0459 64.4668H62.7324V65.0055H63.0459V64.4668Z" stroke="white" stroke-width="0.8"/>
<path d="M63.496 65.6348H63.0035L62.8691 65.949H63.4065L63.496 65.6348Z" stroke="white" stroke-width="0.8"/>
<path d="M62.2412 64.0625H61.9277L62.3755 64.7359L62.2412 64.0625Z" stroke="white" stroke-width="0.8"/>
<path d="M71.6884 70.8438H71.375L71.6884 71.158L71.8675 71.0233L71.6884 70.8438Z" stroke="white" stroke-width="0.8"/>
<path d="M70.4345 71.3789H70.1211V71.7829H70.4345V71.3789Z" stroke="white" stroke-width="0.8"/>
<path d="M70.7938 70.3906L70.4355 70.66L70.6147 70.8396L70.7938 70.3906Z" stroke="white" stroke-width="0.8"/>
<path d="M70.3008 69.7637L70.6142 70.2575L70.7933 70.1228L70.6142 69.7637H70.3008Z" stroke="white" stroke-width="0.8"/>
<path d="M70.1211 68.912V69.2712L70.4345 69.0916L70.3002 68.7773L70.1211 68.912Z" stroke="white" stroke-width="0.8"/>
<path d="M70.7921 68.5977L70.5234 68.7772L70.6578 69.0466L70.7921 68.5977Z" stroke="white" stroke-width="0.8"/>
<path d="M69.5382 67.7012L69.2695 68.0154L69.5382 68.2848V67.7012Z" stroke="white" stroke-width="0.8"/>
<path d="M70.2995 67.791L69.8965 67.9706L70.1204 68.2848L70.2995 67.791Z" stroke="white" stroke-width="0.8"/>
<path d="M63.987 66.621L63.3153 66.4863L63.1362 66.621L63.5392 66.9353L63.8079 67.3842H63.1362H62.375L62.7332 67.8331H63.9422L64.2556 66.5312L63.987 66.621Z" stroke="white" stroke-width="0.8"/>
<path d="M65.5105 66.9353L65.1076 66.621L64.3463 66.4863L64.2568 66.5312L63.9434 67.8331L64.2568 68.2821L64.7941 67.6985H66.1822L66.3613 67.3842L65.5105 66.9353Z" stroke="white" stroke-width="0.8"/>
<path d="M56.5096 72.2347L57.0021 69.7206L56.823 69.6309L54.0469 71.3368L54.7633 72.0102L54.8976 72.3245H56.5544L56.5096 72.2347Z" stroke="white" stroke-width="0.8"/>
<path d="M56.5552 72.3242H54.8984L55.3462 73.3119L56.6895 74.12L56.9134 74.2097L57.3612 73.267L56.5552 72.3242Z" stroke="white" stroke-width="0.8"/>
<path d="M52.5243 69.0469L52.0766 67.9695L53.0616 68.0593L54.2258 67.7899L54.2706 67.5654L55.1662 65.4554L54.7184 65.1412L52.8825 65.7248L51.8079 67.5654L49.8377 67.4307L48.3153 65.635L48.8526 62.5822L47.778 62.1333L46.6586 59.6193L45.4048 60.0233L43.8376 58.0929H41.0615L38.5987 56.9706L37.1211 56.7461L37.4793 58.2725L38.4196 60.5171H37.6136L38.8226 61.6395L39.6286 63.1659L40.7928 64.5576L41.1062 63.9291L40.2107 62.5374L39.6286 60.7865L38.5987 59.3499V57.9582L39.6286 58.0929L40.3002 60.5171L41.5988 61.6395L43.2555 65.1412L42.8525 66.3982L46.8377 68.7776L48.8526 69.6305L49.9273 69.0469L51.1362 70.0795L51.5392 69.0469H52.5243Z" stroke="white" stroke-width="0.8"/>
<path d="M53.0621 68.0585L52.077 67.9688L52.5248 69.0462H51.5397L51.1367 70.0788L51.9427 70.7073L52.5696 70.8419L53.4203 69.9441L53.1965 68.0136L53.0621 68.0585Z" stroke="white" stroke-width="0.8"/>
<path d="M53.7326 69.495L54.2252 67.7891L53.1953 68.0135L53.4192 69.944L53.867 69.4501L53.7326 69.495Z" stroke="white" stroke-width="0.8"/>
<path d="M52.5684 70.8433L53.6878 71.0229L54.046 71.3371L54.852 70.8433L53.1952 70.1699L52.5684 70.8433Z" stroke="white" stroke-width="0.8"/>
<path d="M55.255 69.0469L53.867 69.4509L53.1953 70.1692L54.8521 70.8426L56.8222 69.6305L55.255 69.0469Z" stroke="white" stroke-width="0.8"/>
<path d="M65.153 78.474L66.7202 78.2945L66.362 75.4213L63.4963 74.6132L63.3171 72.6828L64.347 71.5604L64.1231 71.3809L61.347 72.6828L60.7649 73.9847L59.3768 73.1317L57.5409 73.4909L57.3618 73.2664L56.9141 74.2092L58.3469 74.7928L58.7051 74.2092L59.3768 73.5357L59.8246 74.1643L60.4514 76.4089L59.1977 78.5189L64.9291 81.8859L65.153 78.474Z" stroke="white" stroke-width="0.8"/>
<path d="M61.7497 80.001L59.1974 78.5195L59.1526 78.6093L58.0332 80.5397L58.6153 81.5723L58.2571 81.8865L59.3765 82.7395L61.7497 80.001Z" stroke="white" stroke-width="0.8"/>
<path d="M64.6162 85.5668L63.0042 85.2076L62.6908 83.5466L63.9445 82.2447H64.8848L64.8401 81.8406L61.7505 80L59.3773 82.7385L58.2579 81.8855L57.6758 82.3794L59.1982 84.3996L61.1236 88.3502L63.1386 89.9215L64.7953 91.403L65.6013 90.6847V86.7789L64.6162 85.5668Z" stroke="white" stroke-width="0.8"/>
<path d="M68.8259 77.9354L68.3334 76.7682L70.7961 76.2295L70.4379 75.5112L71.1543 74.1644L69.408 72.9522L69.6767 72.3237H65.2885L64.3482 71.5605L63.3184 72.6829L63.4975 74.6133L66.3632 75.4214L66.7214 78.2946H66.6766L67.5722 79.0578L68.8259 77.9354Z" stroke="white" stroke-width="0.8"/>
<path d="M71.3759 78.1615L71.958 78.79L73.4356 78.0717L72.5401 76.3658L72.9878 75.6475H72.943L71.2863 74.2109L71.152 74.166L70.4355 75.5128L70.7938 76.2311L70.7042 76.276L71.3759 76.8596V78.1615Z" stroke="white" stroke-width="0.8"/>
<path d="M73.7948 77.6667L74.7799 77.9361L74.959 76.9933L74.6455 76.1852L75.0037 75.6465H72.9888L72.541 76.3648L73.4366 78.0707V78.1156L73.7948 78.2503V77.6667Z" stroke="white" stroke-width="0.8"/>
<path d="M75.3181 78.2503L76.2137 77.0382L75.139 75.6465H75.0047L74.6465 76.1852L74.9599 76.9933L74.7808 77.9361H74.6913L74.8704 78.2503H75.3181Z" stroke="white" stroke-width="0.8"/>
<path d="M66.1835 92.4801L66.9447 94.3656L67.7059 93.6473H69.9895L70.3478 92.1658L71.8702 91.7618L72.5866 92.1658L73.0791 91.4027L72.3627 89.7865L71.2881 89.6518L70.9746 88.2152L68.3328 87.1378L67.8403 85.7012L65.5566 86.7337L65.6014 86.7786V90.6844L65.5566 90.7741L66.1835 91.7169V92.4801Z" stroke="white" stroke-width="0.8"/>
<path d="M67.6151 116.946L67.3017 115.51L66.6748 115.734L66.4957 114.253L66.9435 114.028L66.8539 110.167L66.0927 108.013L66.2718 105.543L66.0927 103.344L66.4509 101.727L65.8688 100.066L66.1823 98.136L66.6748 97.0136L66.5853 95.4873L67.3465 94.3649L67.2121 94.1405L66.9435 94.3649L66.1823 92.4794V91.7162L65.5554 90.7734L64.7942 91.402L64.9285 91.4917L64.9733 99.5726L64.5703 104.96L64.7942 107.294L65.6002 108.282L65.4211 110.212L65.1972 111.559L64.5703 112.233L65.1076 113.355L65.7345 116.093L67.3465 118.607L69.4958 119.999H71.1525L71.4659 119.685L69.5853 116.946H67.6151Z" stroke="white" stroke-width="0.8"/>
<path d="M73.078 95.7123V96.4755L72.675 97.1938H74.3766L75.3169 94.7247L74.5557 94.8145L74.2422 93.6024L73.078 93.6473L72.6303 92.1209L72.5855 92.1658L71.8691 91.7617L70.3466 92.1658L70.0332 93.6024L71.0631 94.7247L73.078 95.7123Z" stroke="white" stroke-width="0.8"/>
<path d="M73.0801 101.639L73.4383 102.043L75.9458 102.806L76.8413 101.235L73.6174 99.0801L73.0801 101.639Z" stroke="white" stroke-width="0.8"/>
<path d="M75.722 96.9256V96.1624L74.9608 95.6686L74.3787 97.195H72.6772L73.0802 96.4767V95.7135L71.0652 94.7259L70.0353 93.6035L69.9906 93.6484H67.7069L67.2144 94.1422L67.3487 94.3667L66.5875 95.489L66.6771 97.0154L66.1845 98.1378L65.8711 100.068L66.4532 101.729L66.095 103.345L66.2741 105.545L66.095 108.014L66.8562 110.169L66.9457 114.03L66.498 114.255L66.6771 115.736L67.304 115.512L67.6174 116.948H69.5876L71.4682 119.687L72.0055 119.103L69.0502 115.826L70.5279 112.504L69.0502 111.606L70.1697 110.618L70.9757 108.284L69.9906 107.296L71.4682 107.61V105.77L74.2444 105.186L74.6026 103.525L73.2593 101.999L73.4384 102.043L73.0802 101.639L73.6175 99.0805L73.7518 99.1703L74.11 98.4071L75.722 96.9256Z" stroke="white" stroke-width="0.8"/>
<path d="M86.3316 82.6034L82.1226 80.8975L78.9434 80.0445L77.0628 79.2364L77.2419 78.3834L76.212 77.0366L75.3165 78.2488H74.8687L74.6896 77.9345L73.7941 77.6651V78.2488L73.4359 78.1141L71.9583 78.7875L71.3762 78.159V76.8571L70.7045 76.2734L68.3313 76.7673L68.8239 77.9345L67.5701 79.0568L66.6746 78.2936L65.1522 78.4732L64.9283 81.8851L64.8387 81.8402L64.8835 82.2443H63.9432L62.6895 83.5462L63.0029 85.2072L64.6149 85.5664L65.5552 86.7336L67.8388 85.7011L68.3313 87.1377L70.9732 88.2151L71.2866 89.6517L72.3612 89.7864L73.0777 91.4026L72.6299 92.1208L73.0777 93.6472L74.2419 93.6023L74.5553 94.8145L75.3165 94.7247L74.9583 95.6674L75.7195 96.1613V96.9244L74.1075 98.4059L73.7493 99.1691L76.8389 101.234L78.8987 97.553V96.1164L82.9734 93.9615L84.3167 90.6394V87.4968L87.048 84.0849L86.3316 82.6034Z" stroke="white" stroke-width="0.8"/>
<path d="M34.8361 29.2242L33.448 29.9874L31.9256 27.9672L39.0451 15.2174L38.9556 15.1725L37.9705 14.0053L35.5973 12.5238H34.8809L34.4779 11.0872L33.1346 10.0098L30.045 10.6832L27.0897 12.3891L25.9703 12.03L25.1643 13.0176L25.4778 15.5317L26.5972 16.7887L25.1643 17.3274L24.1792 16.9234L24.8509 16.2949L24.1792 15.801L21.3135 16.654L21.5374 18.8987L22.4777 19.3027L24.5375 18.8987L23.7763 20.7393L21.0001 21.1434L18.9404 22.8493V25.3185L20.1941 25.5429L19.7463 27.3836L21.3583 27.8774H21.9852L19.5225 30.2118L15 32.0076L15.5821 32.3218L17.5971 31.9627L22.5225 29.2242L24.6718 28.1916L23.9554 27.3387L25.6569 26.351L27.0002 25.9021L25.6121 28.057L27.4927 27.3836L28.1196 26.2163L29.8659 27.2489L32.5525 29.2242L33.6719 32.6361L34.657 35.7786L35.7764 34.8808L34.8361 29.2242Z" stroke="white" stroke-width="0.8"/>
<path d="M68.0589 46.4192L66.4021 47.766L63.626 48.7536L63.6708 48.8434L63.1782 49.2923L62.5513 49.0679L61.7454 49.2923L61.5215 49.6515L61.7454 49.8311L59.417 50.8636L58.9692 50.3249L59.5513 50.2351L59.82 50.0555L59.9991 49.0679H59.9095L59.6408 48.4394L59.2826 48.7985C59.2826 48.7985 59.0587 48.574 58.9692 48.574C58.8796 48.574 59.417 48.0353 59.417 48.0353L59.5961 47.4517L58.7005 47.0926L58.0737 47.4517L57.6707 48.17L57.5811 49.2923L56.7303 50.28L56.4169 49.8759L56.999 48.2149L56.8199 47.5864L57.6259 46.6885H58.3423H58.8796H59.3722L58.8349 46.06L57.8498 46.3294L57.1333 45.8804L57.3124 45.2968L55.4318 46.0151L54.6258 45.5213L56.0587 44.7581L53.9542 43.7255L37.1181 42.1094L37.2972 42.3787L35.8644 42.6481L35.5509 45.6111L34.3867 48.7536V51.7615L35.327 54.8142L36.9838 56.2059L37.1181 56.7447L38.5957 56.9242L41.0585 58.0915H43.8346L45.4466 60.0219L46.7003 59.5729L47.775 62.087L48.8496 62.5359L49.2078 60.4708L51.4915 59.6627L53.1034 60.0219L53.8199 59.6627L53.6855 59.1689L56.9542 59.4832L57.9393 60.0219L57.8945 61.3238L58.7005 63.1644L59.3722 62.8053L59.5065 61.3238L59.014 58.2261L62.2827 56.0264L62.82 52.8838L62.9096 52.794L63.223 54.0062L63.7603 53.1083L63.5364 52.2104L63.6708 52.1206L63.7603 52.794L64.6111 51.7615L64.4767 51.3574L64.7006 51.1779L66.8499 50.5494L67.029 49.2025L69.1335 48.2149V46.4192H68.0589V46.4192Z" stroke="white" stroke-width="0.8"/>
<path d="M32.8672 35.8262L34.0314 36.0955L33.4493 38.5647L32.8672 37.6668V35.8262Z" stroke="white" stroke-width="0.8"/>
<path d="M34.5226 39.8652L34.2539 40.4488L35.4629 41.8405L36.1345 42.1997C36.3584 41.8405 35.1942 40.404 35.1942 40.404L34.5226 39.8652Z" stroke="white" stroke-width="0.8"/>
<path d="M48.3594 14.0057L49.5236 15.7116L52.3893 13.6914L55.0311 13.3772L54.5834 11.2223L51.4042 10.6387L51.0012 11.8957L48.3594 14.0057Z" stroke="white" stroke-width="0.8"/>
<path d="M55.0309 14.0078H52.9263L51.4487 15.175C51.4487 15.175 51.3144 15.5342 51.4487 15.7587C51.583 15.9382 53.195 16.0729 53.195 16.0729L51.0009 16.477V17.3299H53.0159L53.7771 18.6318L51.0009 17.7789L50.6875 18.6318L51.6726 19.4399V20.9214H53.4637L55.5682 19.7542L56.1055 21.2357H57.7622L57.3145 20.1133L58.4787 20.5623V19.6195L57.807 17.9135L58.7473 15.175L57.9413 14.0078L56.598 17.0606L56.8667 14.8159L55.0309 14.0078Z" stroke="white" stroke-width="0.8"/>
<path d="M63.1348 14.0078C62.9557 14.0976 61.4781 14.6363 61.4781 14.6363C61.4781 14.6363 59.6422 15.624 59.7766 15.7587C59.9109 15.8933 61.1199 18.9461 61.1199 18.9461L62.5527 17.6442L63.1348 15.7138V14.0078Z" stroke="white" stroke-width="0.8"/>
<path d="M66.5826 15.1734L64.4781 14.5449L63.1348 16.8345L63.493 17.5977L64.3885 16.4753L64.8811 17.1487L66.5826 15.1734Z" stroke="white" stroke-width="0.8"/>
<path d="M58.1212 8.0808C57.9421 8.03591 55.3003 10.101 55.4794 10.0112C55.6585 9.92143 56.7779 11.8967 56.7779 11.8967L59.778 11.4927L60.584 11.8967L62.0168 10.0112H60.7183L61.2108 8.0808H60.3601L59.5541 10.3255L58.7481 10.0112L58.1212 8.0808Z" stroke="white" stroke-width="0.8"/>
<path d="M58.7027 5.88086H57.5385L54.3594 7.27256L55.031 8.57447L57.8967 7.54192L58.7027 5.88086Z" stroke="white" stroke-width="0.8"/>
<path d="M61.9714 5.88066L59.7773 5.56641L60.0012 7.22747H61.1654L61.9714 5.88066Z" stroke="white" stroke-width="0.8"/>
<path d="M63.1342 4.26562L62.9104 5.88179L61.1641 5.07371L63.1342 4.26562Z" stroke="white" stroke-width="0.8"/>
<path d="M62.7324 9.42773V11.3133H63.7623L63.1354 12.7947H64.1205L65.7772 9.96646L64.2548 9.42773V10.6399L63.1354 10.3256L62.7324 9.42773Z" stroke="white" stroke-width="0.8"/>
<path d="M65.777 4.26562L64.4785 6.37562H65.777L65.4636 8.5754H66.583L67.4338 5.88179L65.777 4.26562Z" stroke="white" stroke-width="0.8"/>
<path d="M68.8684 7.54223L67.9281 6.375L67.4355 8.08095L68.152 8.57478L68.8684 7.54223Z" stroke="white" stroke-width="0.8"/>
<path d="M68.8675 9.4272L67.166 8.57422V9.4272L68.1511 10.0108L68.8675 9.4272Z" stroke="white" stroke-width="0.8"/>
<path d="M66.3594 9.42773V11.1337L67.434 11.403L67.1654 12.7947L66.5833 14.0069L68.0161 14.8598L70.8818 15.4435L72.3595 15.1741V13.3784L70.7027 13.1988L68.0161 12.4356L68.6878 11.1337L67.434 10.3256L66.3594 9.42773Z" stroke="white" stroke-width="0.8"/>
<path d="M66.3604 12.4352L65.7783 14.0065L64.8828 13.1984L65.5992 11.8965L66.3604 12.4352Z" stroke="white" stroke-width="0.8"/>
<path d="M60.3154 20.4258L60.8527 22.0868L60.3154 22.6256L58.793 21.5481L60.3154 20.4258Z" stroke="white" stroke-width="0.8"/>
<path d="M69.1366 16.0723H67.4351L65.1962 18.9006L64.8828 20.7412L67.1664 21.8635L69.1366 22.3574L69.853 21.235L70.5247 23.2552L71.8232 25.1856L70.3456 27.2059L69.9874 28.1486L68.1515 27.565L67.4351 29.2261H69.1366L70.3904 29.9893L71.1068 31.2912L73.1217 32.638L72.3605 30.528L73.9725 31.6503L74.5546 30.3035L73.3009 27.7446L74.1068 27.2059L75.2263 29.6301L77.1069 27.161L74.3307 24.7367L75.4501 23.8388L74.4651 21.5493L72.9874 19.9331L72.3605 18.9006H70.1665L70.6142 16.4763L68.8679 16.8355L68.1515 17.5986L67.4351 20.0678L67.1664 18.9006L68.0172 17.015L69.1366 16.0723Z" stroke="white" stroke-width="0.8"/>
<path d="M70.9707 16.4766V18.2723H72.7618L72.3588 16.9255L70.9707 16.4766Z" stroke="white" stroke-width="0.8"/>
<path d="M70.9706 24.9157L70.299 24.377L69.1348 24.9157L69.3586 26.0829L70.9706 24.9157Z" stroke="white" stroke-width="0.8"/>
<path d="M64.2548 27.0254L63.1354 28.5518L62.7324 29.5394L63.4936 30.2128L64.8817 29.2252L65.7772 29.8537L66.3593 28.6416L64.2548 27.0254Z" stroke="white" stroke-width="0.8"/>
<path d="M69.3594 11.8968L70.9713 12.4355L72.7176 12.7946L74.4192 11.8519L74.1057 11.0887L76.0311 10.2806L77.6431 8.52977L77.1058 7.49722H79.2103L81.0461 5.79126L83.8223 4.98318C83.8223 4.98318 83.8671 3.99552 83.8223 4.1751C83.7775 4.35467 85.8372 3.32212 85.8372 3.32212L85.3447 1.97531L83.3745 0.673403L80.5088 0L76.6132 0.673403L73.8371 1.61617L73.6132 3.81595L76.0311 5.02807L75.7177 5.5219L73.4341 4.26488L73.0759 2.02021H72.4042L70.7027 3.86084L70.1206 5.83616L71.0609 6.37488H69.8071L69.6728 8.52977H71.0609L71.9564 8.9787L70.1206 10.6398L69.3594 11.8968Z" stroke="white" stroke-width="0.8"/>
<path d="M58.7031 13.6484L59.1509 14.8606L60.2703 14.2321V13.6484H58.7031Z" stroke="white" stroke-width="0.8"/>
<path d="M76.7024 42.873L76.0307 43.0975L75.18 44.3096L74.0605 46.0156L74.374 46.285H75.0456L76.1203 46.1054L76.7024 46.285L75.7173 46.9135L76.1651 47.1828L77.1054 46.285L76.8367 46.8237L77.5531 47.1828C77.5531 47.1828 78.0905 45.9707 78.0009 45.9707C77.9114 45.9707 77.3293 45.7462 77.3293 45.7462L77.5084 44.5341H76.0307V44.0403L76.7024 42.873Z" stroke="white" stroke-width="0.8"/>
<path d="M57.269 42.873H57.7615V43.6362L57.0898 43.4567L57.269 42.873Z" stroke="white" stroke-width="0.8"/>
<path d="M76.2996 40.6734L75.1354 39.8204L73.7921 38.2491L74.5085 37.6655L73.1652 33.9394L71.9563 36.1392L70.4786 35.6004L70.7025 33.3109L69.7622 32.6375L69.3144 31.4702L66.8069 30.9315L66.18 33.9394L65.195 35.5106L65.9114 37.3513L65.2845 38.4287L63.583 39.0123L63.6278 41.8406L62.3292 42.1998L61.7919 40.9428L62.4636 38.743L60.762 38.4287L58.2993 36.0494L56.8665 36.5432L57.3142 33.9394L56.5083 33.8496L59.6874 29.8541L61.3441 28.6868L63.4487 27.5645L64.2546 26.5319L66.4487 25.9034L67.1204 25.0505L66.8517 23.7037H67.5681L68.0159 22.8507L66.3592 21.863L65.7323 22.8956L64.2099 24.826L63.986 23.5241L64.1651 21.863L63.1352 23.0751L62.9113 21.863L63.5382 20.3815L63.2248 17.9124L61.4337 18.9449C61.4337 18.9449 60.6277 20.5611 60.8068 20.6958C60.9859 20.8305 61.7919 21.6834 61.7919 21.6834L60.9859 23.1649L59.8665 24.3771L59.3292 22.4017L58.165 23.2098L56.15 22.716L55.6127 21.0998H54.1799L53.553 22.8956L52.9261 21.863L51.0007 21.9079L50.1947 21.1896L51.1798 21.01L50.8664 19.5286L48.2693 17.7328L47.1499 18.2266L46.2096 17.7328V15.533L40.9259 17.0594L38.9557 15.2637L31.9258 27.9685L33.4482 29.9887L34.8363 29.2704L35.7766 34.927L34.6572 35.8249L35.3736 39.2817L37.1647 42.2896L54.0008 43.9057L56.1053 44.9383L57.5829 44.1751L58.2098 44.3547L59.0605 45.1179L59.1949 46.2402L61.1203 46.9585L61.7471 47.9461L61.2098 48.3502L60.5382 47.7217L60.3591 49.1583H60.0008L59.8217 50.1459L60.4038 49.697L60.8964 49.8317L61.5233 49.697L61.6128 49.7868L61.8367 49.4276L61.5233 48.9787L62.6427 48.7093L63.0009 48.9338L63.18 48.5746L63.6278 48.3951L63.7621 48.8889L66.5383 47.9012L68.195 46.5544H69.1801V48.3502L69.4488 48.2155L69.6726 49.4276L71.1055 48.5746L73.613 47.4972L73.2996 46.9136L72.1801 47.4972L70.8816 47.2278L70.5234 45.9259L71.6428 45.3872L70.9264 44.4893L67.7472 46.33L69.6279 44.4893L70.6577 43.7262L73.8369 43.9506L75.7623 43.2323L76.7474 42.2896L76.2996 40.6734ZM48.2693 32.6375L47.9111 33.3109L46.7021 33.1313V32.8619L47.5529 32.9068L47.9111 32.3232L48.8066 32.0987L49.8365 32.6824H48.2693V32.6375ZM51.4485 33.5802C51.4933 33.5353 52.0754 33.5802 52.0754 33.5802L51.4485 34.7923C51.4485 34.7923 51.1798 34.7026 51.135 34.6577C51.135 34.5679 51.4037 33.5802 51.4485 33.5802ZM51.4485 35.8249V35.1964L52.2545 34.3434L52.747 34.9719L51.8962 35.1515V35.8249L51.0007 36.4983L50.8664 36.0494L51.4485 35.8249ZM51.8067 40.5387L51.3589 41.257L51.0455 41.0774L51.4933 40.1347L50.9112 40.0898V39.7755H51.8067V40.5387ZM51.8962 42.514C51.8515 42.514 51.8962 41.1672 51.8962 41.1672L52.1649 40.9877L52.0754 41.7508L52.2545 42.3345C52.2992 42.3793 51.9858 42.514 51.8962 42.514ZM52.8813 42.514V40.8979H52.5231L52.2992 40.1796L52.5231 39.7306H51.8962L51.1798 39.1021L51.4037 38.4287H52.0754L51.941 39.1021L52.2097 39.4164L52.5679 38.7879L53.1052 39.0123V40.6734L53.3291 42.1549L52.8813 42.514ZM64.8815 44.9383L65.3741 44.624L65.6427 45.2076L64.8815 44.9383ZM66.8517 42.8732L65.9562 43.2772V42.8732L66.8517 42.514V42.8732ZM69.3144 40.4489L68.8219 40.0449L69.2696 39.3715L69.807 39.7306L69.3144 40.4489ZM72.8518 40.6734H71.7771L71.9115 41.7508L71.2398 40.4489L71.598 40.0449L72.8518 40.1796V40.6734V40.6734Z" stroke="white" stroke-width="0.8"/>
</g>
<defs>
<clipPath id="clip0_3821_13304">
<rect width="120" height="120" fill="white"/>
</clipPath>
</defs>
</svg>
