<svg width="120" height="120" viewBox="0 0 120 120" fill="none" xmlns="http://www.w3.org/2000/svg">
<g clip-path="url(#clip0_3821_13266)">
<path d="M95.9626 70.8555L92.7436 75.6966L90.1099 78.4839L85.8666 79.8042L83.9645 82.7382L85.1351 86.5524L82.7939 91.8336V95.5011L86.1593 99.7554L90.2562 98.4351L96.5479 78.6306L97.5722 78.924V77.0169L95.9626 70.8555Z" stroke="white" stroke-width="1.2"/>
<path d="M22.0748 81.5651L23.977 82.1519H32.9024L35.8288 83.0321L39.6331 83.4722L43.1447 82.592L40.072 79.8047V72.6164L44.7542 73.2032L44.3153 68.5088H40.9499L40.2183 61.0271L35.5361 60.4403L34.9509 62.9342L31.2929 62.4941L29.6834 58.5332H20.6116L23.538 68.8022L21.1969 73.3499L19.1484 81.8585L20.1727 82.1519L22.0748 81.5651Z" stroke="white" stroke-width="1.2"/>
<path d="M64.2124 51.0514H60.1155L60.5544 48.4108L56.0185 48.8509L55.1406 51.4915V52.8118H55.8722L56.3112 58.5331L58.067 59.8534L59.0912 63.3742L64.505 65.7214L64.3587 65.2813H65.8219L67.4314 69.2422V69.9757H71.9673L76.5032 69.2422L78.259 67.6285V67.1884L75.04 58.2397L76.7958 55.159L65.0903 47.9707L64.2124 51.0514Z" stroke="white" stroke-width="1.2"/>
<path d="M59.3856 98.582L58.9467 92.714L54.2645 91.9805L50.1675 94.9145L48.2654 97.4084L47.3875 99.7556L41.5347 99.0221L37.4378 101.809L35.243 97.8485V104.89L32.3166 106.944L29.3903 104.89L27.3418 105.477L31.2924 114.572V118.827L35.0967 120L47.2411 117.506L58.5077 106.944L60.9951 101.516L60.1172 100.929L59.3856 98.582Z" stroke="white" stroke-width="1.2"/>
<path d="M84.697 26.9901L83.3801 23.616L83.5265 23.3226L81.1854 23.9094L81.7706 21.8556L82.2096 20.3886L80.7464 18.6282L77.5274 15.9876L75.3326 15.5475L73.4305 15.9876L72.6989 15.1074L71.5283 15.9876H70.7967V16.281L69.7725 18.3348L67.1388 23.0292L65.6756 28.1637L63.7734 29.0439L64.3587 29.9241L65.8219 31.0977L68.6019 35.0586L69.7725 36.6723H72.6989L74.4547 37.9926L77.2348 39.0195L79.4296 36.5256L82.3559 37.4058L85.5749 35.7921L88.9403 35.352L94.5004 29.1906L84.697 26.9901Z" stroke="white" stroke-width="1.2"/>
<path d="M86.8916 24.939L84.2579 22.2984L83.38 23.6187L84.6968 26.9928L94.5002 29.1933L88.9401 35.3547L85.5747 35.7948L82.3558 37.4085L81.7704 37.2618L80.0146 39.0222V47.5308L81.1852 49.1445L91.5738 39.3156L98.1582 29.6334L100.353 21.2715L86.8916 24.939Z" stroke="white" stroke-width="1.2"/>
<path d="M80.0173 39.0225L81.7731 37.2621L79.432 36.5286L77.2373 39.0225L74.4572 37.9956L72.7014 36.6753H69.775L68.6044 35.0616L68.1655 34.3281L65.678 36.822L67.8728 41.5164L66.7023 43.5702L65.2391 45.624H65.8244L65.0928 47.9712L76.7983 55.1595L78.9931 51.1986L81.1878 49.1448L80.0173 47.5311V39.0225Z" stroke="white" stroke-width="1.2"/>
<path d="M67.4306 74.3769L68.4548 75.9906V79.218L66.699 82.0053L65.0895 78.9246L65.8211 76.5774L63.7726 75.8439L63.041 73.6434L63.7726 71.0028L64.3579 68.6556L63.041 66.3084V65.1348L64.5042 65.7216L65.0895 70.8561L65.8211 75.4038" stroke="white" stroke-width="1.2"/>
<path d="M51.4833 90.661L50.898 88.4605L48.8495 86.7001L46.6548 83.4727H42.5578L38.1683 84.3528V91.3945L35.8271 91.9813V99.0229L37.4367 101.81L41.5336 99.0229L47.3863 99.7564L48.2642 97.4092L50.1664 94.9153L54.2633 91.9813L53.5317 90.661H51.4833Z" stroke="white" stroke-width="1.2"/>
<path d="M60.9945 89.192L62.1651 86.5514V80.6834L57.4829 79.2163V78.1895L54.2638 78.7763L53.8249 80.0966L49.8743 83.4707L46.9479 82.5905L46.6553 83.4707L48.8501 86.6981L50.8985 88.4585L51.4838 90.659H53.5323L54.2638 91.9793L58.9461 92.7128V92.8595L60.9945 90.659V89.192Z" stroke="white" stroke-width="1.2"/>
<path d="M43.1426 82.5913L39.631 83.4716L35.8267 83.0315L32.9003 82.1512H23.9749L22.0727 81.5645L20.1706 82.1512L19.1463 81.8578L19 82.298L22.5117 88.8995L24.5601 97.1147L27.3402 105.33V105.477L29.3886 104.89L32.315 106.944L35.2414 104.89V97.8482L35.8267 99.0218V91.9802L38.1678 91.3934V84.3517L42.5573 83.4716H46.6543L46.8006 83.0315L42.85 82.1512L43.1426 82.5913Z" stroke="white" stroke-width="1.2"/>
<path d="M58.5076 39.0212L56.898 36.3806L53.2401 36.8207L51.9232 35.3537L47.3873 35.6471L41.8272 35.9405V37.5542L38.4619 37.1141L35.8281 35.207L34.365 36.8207L33.4871 38.5811L34.365 39.0212L32.7555 42.102L31.8775 47.97L28.6585 51.0506V53.838L26.0248 56.0385L25.1469 55.4516H22.6594L21.6352 57.7989H20.3184L20.611 58.5324H29.6828L31.2923 62.4933L34.9502 62.9334L35.5355 60.4395L40.2177 61.0263L40.9493 68.508H44.3146L44.461 69.6816L46.2168 69.2415L48.9968 70.8552L51.1916 70.2684L54.2643 73.2024L56.4591 73.6425V71.0019H54.7033L53.5327 69.2415L54.2643 66.0141L53.679 64.8405L57.1907 62.4933L55.1422 58.8258L54.2643 52.811H55.1422V51.4908L56.0202 48.8501H56.4591V47.2365L58.3612 43.569L59.3855 40.7816V39.0212H58.5076Z" stroke="white" stroke-width="1.2"/>
<path d="M63.4803 75.1123L63.0414 73.6453L63.773 71.0047L64.3582 68.6575L63.0414 66.3103V65.1367L59.0908 63.3763L59.3834 64.1098H58.2129L57.1886 62.4961L53.677 64.8433L54.2623 66.0169L53.5307 69.2443L54.7012 71.0047H56.457V73.6453L54.2623 73.2052L51.1896 70.2712L48.9948 70.858L46.2147 69.2443L44.4589 69.6844L44.7515 73.2052L40.0693 72.6184V79.8067L42.8494 82.1539L46.8 83.0341L46.9463 82.594L49.8727 83.4742L53.8233 80.1001L54.2623 78.7798L57.0423 78.193L57.4813 77.1661L63.4803 75.1123Z" stroke="white" stroke-width="1.2"/>
<path d="M76.5044 69.2426L71.9685 69.9761H67.4326V74.3771L68.4568 75.9908V79.2182L66.701 82.0055L65.0915 78.9248L65.8231 76.5776L63.7746 75.8441L63.482 75.1106L57.4829 77.1644L57.0439 78.1913H57.4829V79.2182L62.1651 80.6852V86.5532L60.9946 89.1938V90.6608L58.9461 92.8613L59.3851 98.5826L60.1166 100.93L60.9946 101.517L61.4335 100.49L61.2872 99.4628L66.8473 96.3821V92.2745L65.8231 86.9933L77.6749 78.4847L78.2602 74.8172V67.6289L76.5044 69.2426Z" stroke="white" stroke-width="1.2"/>
<path d="M81.1855 23.9097L83.5267 23.3229L84.2583 22.296L83.8193 21.8559L83.9656 20.2422L82.5024 20.6823L82.2098 20.3889L81.7708 21.8559L81.1855 23.9097Z" fill="#C4C4C4" stroke="white" stroke-width="1.2"/>
<path d="M74.015 8.36192L71.5276 6.30811L70.2107 0H46.6534L46.507 4.25432L44.4586 4.98782L44.166 4.84111L44.7512 13.3497H42.7028L41.0933 17.3106L40.6543 19.5111L42.2638 22.7385L43.727 26.9928L46.7997 24.939H52.2135L55.1399 24.7923L58.5052 23.472L62.1632 19.2177L65.0895 22.7385L67.138 23.1786V23.0319L69.7718 18.3375L70.796 16.2837V12.7629L71.5276 9.97561L74.3076 8.80201L74.015 8.36192Z" stroke="white" stroke-width="1.2"/>
<path d="M62.1627 19.2168L58.5047 23.4711L55.1394 24.7914L52.2131 24.9381H46.7992L43.7266 26.9919L46.0676 29.0457L47.6772 30.8061L51.1888 34.3269L53.2373 36.8208L56.8952 36.3807L58.5047 39.0213H59.3827V37.9944L65.6744 37.1142V36.8208L68.1618 34.3269L65.8207 31.0995L64.3575 29.9259L63.7722 29.0457L65.6744 28.1655L67.1375 23.1777L65.0891 22.7376L62.1627 19.2168Z" stroke="white" stroke-width="1.2"/>
</g>
<defs>
<clipPath id="clip0_3821_13266">
<rect width="120" height="120" fill="white"/>
</clipPath>
</defs>
</svg>
