<svg width="120" height="120" viewBox="0 0 120 120" fill="none" xmlns="http://www.w3.org/2000/svg">
<g clip-path="url(#clip0_3821_13186)">
<path d="M105.886 56.5653H106.536L107.902 55.1296V54.2812L106.471 55.1296L105.886 56.5653Z" fill="#C4C4C4" stroke="white" stroke-width="0.8"/>
<path d="M108.422 54.6733L109.204 53.3681L108.813 52.9766L108.162 54.6733H108.422Z" fill="#C4C4C4" stroke="white" stroke-width="0.8"/>
<path d="M16.3901 27.72L14.8291 27.459V28.4379L15.1543 29.1557H16.3901V27.72Z" fill="#C4C4C4" stroke="white" stroke-width="0.8"/>
<path d="M54.9588 8.20898L53.7881 8.6658V9.57943H54.9588V8.20898Z" fill="#C4C4C4" stroke="white" stroke-width="0.8"/>
<path d="M113.106 15.648L113.756 15.126L114.862 15.387L115.252 12.7114L113.626 11.1451L114.081 10.2968L114.732 11.3409L115.642 11.5367L115.837 10.6231L116.878 10.5578L117.528 11.3409L120 10.6883L118.699 8.46951L117.724 7.88217L118.894 6.57699L117.984 5.07602L115.902 4.74973L114.797 5.66336L115.967 7.22958H114.927L113.691 5.46758L108.618 4.81499L104.455 4.16239L100.228 5.07602L100.748 6.12017L102.244 7.29484L101.919 8.33899L100.943 7.6864L99.8374 7.29484L98.9919 6.38121L98.4715 7.55588L95.0894 8.33899L95.2195 9.4484L94.1789 8.73055L92.813 9.05684L92.1626 7.29484L90.2114 6.38121L87.4797 7.6864L85.7886 8.20847L85.6585 7.55588L84.813 7.16432L84.2276 7.6864L82.7317 6.77277L82.8618 5.85914L80.5203 6.12017L80.1951 8.07795L79.8699 6.57699L78.7642 7.0338L78.8293 6.12017L74.9919 6.38121L76.0976 7.29484L75.187 8.07795L76.0976 8.33899L76.878 9.64418L75.9024 9.70944L75.9675 10.9494L74.2114 10.2315L73.4309 10.5578L73.561 11.0799L72.1951 11.0146L71.4146 10.362L72.065 13.2987L69.8536 12.124L68.0975 11.1451L69.1382 10.9494L68.4878 9.97047L67.8374 10.101L67.7723 9.18736L65.3659 8.14321L63.5447 8.33899L62.8943 8.73055L63.7398 10.101L61.4634 10.7536L59.8374 10.6883L59.9024 9.57892L56.3902 10.2968L55.0894 10.8188L53.7236 10.2315V11.602L52.2276 13.9513L52.0325 12.4503L53.1382 8.79581L53.5284 6.05491L50.8618 4.16239L49.4959 3.57506L48 4.29291L47.4797 5.53284L46.9593 3.57506L45.0732 4.16239L45.3333 2.79195L43.8374 2.40039L43.187 4.61921L44.813 6.57699L42.8618 6.77277L44.0325 8.20847L42.8618 7.55588L41.8862 8.53477L41.3659 8.14321L39.6098 8.60003L40.3902 8.99158L38.0488 10.6231L37.1382 12.4503L37.2032 13.7555L38.6992 14.4734L38.0488 14.9302L34.5366 16.1701L35.5772 18.3237L37.3333 19.2373L38.0488 19.6289L38.374 19.8246L39.0244 21.3909L38.2439 22.174L37.8536 19.8899H36.3577L34.1463 18.65L33.561 19.4331L33.9512 20.2814L32.7154 19.8899L33.4309 21.3256L35.252 21.8477L32.5854 21.5214L31.6098 18.4542L31.0244 18.3889L31.6748 20.1509L30.9594 20.8035L31.4146 22.0434L32.6504 22.9571L33.1707 25.3064L33.7561 25.8285L35.0569 25.1759L36.9431 26.22L36.6829 27.2642L35.9675 26.8074L35.0569 25.959L34.0163 26.8726L34.7317 28.6346L34.2114 30.2661L33.626 31.0492L32.7805 30.7229L33.4309 27.0684L32.1951 25.8285L31.0244 22.5655L30.1789 21.8477L29.8537 19.0415L27.3821 18.8457L27.4471 21.6519L26.7967 23.0223L28.2927 25.8285L29.0081 25.959L30.1789 26.9379L30.0488 28.3083L27.7073 26.8074L25.2358 25.8937L23.6748 25.959L23.4797 26.6116L24.1301 27.7863L23.4146 28.5694L22.8293 27.7863L20.4228 28.6346L20.0976 29.2872L19.187 29.3525L19.1219 28.3083L16.065 30.5272L15.6098 30.9187L15.4797 32.1586L14.374 32.2892L13.5935 31.245L14.5041 30.5272L13.5935 29.483L12.0976 29.3525L12.6179 31.8976L13.2683 32.0934L13.3333 33.6596L11.8374 33.1375L10.2114 34.8343L11.122 36.0089L10.5366 36.6615L8.3252 35.6174L7.99999 36.4658L9.43089 37.1184L8.84553 37.7709L7.28454 36.9878L6.43902 35.3564L6.56911 34.1164L4.35772 32.746L4.68292 32.5502L7.02438 33.5943L8.91056 34.1817L10.7317 33.3333L10.9268 31.8976L6.50406 28.8957L4.74796 29.1567L3.25203 28.6346L2.66666 28.4389L1.56097 29.5483L1.49593 29.4178L1.23577 30.2661L2.60163 32.0934L2.21138 33.007L3.18699 35.1606V36.3352L3.96747 38.8804L4.55285 39.6635L2.66666 42.9264L3.64227 43.7748L2.53658 44.6884L2.86178 46.7767L3.25203 48.9303L2.4065 49.7134L1.69105 51.3449L0 52.1933L0.455283 53.4984L0.0650347 54.0858L0.130079 54.5426L0.97561 54.6731L2.01625 54.3468L3.77235 54.7384H5.2683H6.04877L6.17886 54.151L7.08943 54.0205L7.28454 53.6942H8.58535L8.71544 54.4773L9.17074 54.9342L9.69105 54.8036L10.4715 56.1088L11.7073 55.7825L12.0976 56.2393L13.9837 56.6962L14.1789 57.2182L13.7886 57.414L13.9837 58.3929L13.9187 58.915L13.2032 59.1107L13.0081 59.7633L13.3984 59.6328L13.1382 60.3507L12.6179 61.7211L12.0325 61.6559L12.0976 62.1127L13.1382 62.7L14.8943 64.0052L16.2602 65.0493L16.1301 65.8325L17.626 66.0935L18.1463 66.5503L19.3821 66.4198L19.8374 66.0282L21.0732 66.4198L20.6829 65.7019L20.9431 65.4409L21.9187 66.1588L22.8943 65.4409L21.5285 63.3526L20.5528 62.7L21.0081 61.1338L21.8537 60.8727L22.5041 60.3507L21.6585 59.6981L19.9675 58.0666L19.9024 56.1088L20.3577 55.4562L21.4634 56.3046V55.2604L22.8293 53.8247H24.065L26.2764 54.8689L28.4228 54.4121L29.9837 54.8689L31.7398 54.6731V53.8247L30.6992 52.9764L31.0244 51.6059H31.7398L30.6992 50.6923L31.7398 50.366L35.8374 48.7345L36.878 47.8861L38.5041 48.0819L38.7642 49.3219L41.8862 49.9744L43.5122 48.7345L47.4797 53.2374L48.8455 53.3027L50.2114 52.7806L51.7073 54.151L52.6179 54.4773L53.5284 54.4121L53.9837 55.1299L54.2439 54.8689L54.439 55.1299L55.0244 54.5426L56.3252 52.9764L58.1463 52.5196L60.1626 53.629L62.5691 53.3679L61.7886 51.4754L62.5691 50.4313L65.4959 50.9533L66.7317 52.4543L69.3984 52.128L71.8049 53.1721L75.3171 52.6501L76.6829 51.4101L78.6992 51.9322V51.8017L79.8049 51.867L80.5203 51.0186L80.3252 49.5829L80.5203 48.5387V47.6251L79.7398 47.4293L79.935 46.6462L81.561 45.9936H83.1219L84.748 46.5157L86.3089 48.7345L87.6097 50.627L88.8455 50.8881L90.8618 51.6712L91.3171 53.1721L92.4878 53.3679L92.9431 52.4543L94.1138 51.867L94.7642 52.9111L94.5691 53.7595L94.7642 56.8919L93.5284 56.6962L93.0081 57.2182L93.5284 59.5676L93.1382 60.1549L93.5284 60.4159L93.7236 60.1549L94.1138 59.176L94.7642 59.2413L95.0894 59.8939L96.065 59.6981L97.561 56.6309L98.4715 53.2374L98.8618 50.7576L98.0813 48.1472L97.7561 45.7978L97.4309 45.0147L97.1057 43.6443L94.6341 42.4696L94.3089 43.4485L93.6585 43.0569L93.0081 43.318L92.4878 41.9475L91.0569 41.8823L92.6829 37.5099L93.3333 34.7038L93.8537 33.3333L97.3008 32.2892L98.6667 32.2239L98.8618 31.1145C98.8618 31.1145 100.943 31.4408 101.073 31.4408C101.203 31.5061 100.878 32.1586 100.878 32.1586L101.138 32.5502L103.675 31.1798L103.285 30.6577L102.569 30.5924L102.829 28.0473L102.374 26.6116L103.61 25.8285L104.976 25.3717L105.171 27.0032L106.407 27.5905L107.187 24.9801L106.341 23.2181L107.967 22.8918L108.553 26.6769L107.577 27.5905L107.512 31.3103L107.317 32.9418L106.407 33.7249L106.732 34.9648L106.667 37.2489L109.919 42.9264L111.154 45.1453L112.195 44.2316L111.87 41.8823L112.715 41.2297L112.195 39.4677L113.106 38.4888L112.065 35.2911L113.106 35.2258L112.325 34.1817H111.675L111.74 32.5502L110.959 32.2892L110.764 32.9418L110.114 32.2239L110.179 29.7441L109.593 28.1778L111.089 26.9379L111.74 27.982L112.39 26.22L113.496 25.959L114.862 27.0032V26.1548L115.252 23.2181L117.268 20.0204H118.634V18.911L114.081 15.648H113.106ZM5.00812 43.5138L3.57724 42.0781L4.22764 40.5771L5.98373 42.5349L5.00812 43.5138ZM8.06504 42.0781L6.69918 40.5771L7.08943 39.3372L7.60974 39.6635L8.13008 40.6424L8.52033 41.7518L8.06504 42.0781ZM11.122 46.4504L9.62601 45.2758L10.1463 44.5579L11.4472 45.6021L11.122 46.4504ZM68.4878 49.0608V50.366L66.4065 50.9533V50.366L67.5772 49.8439L68.2276 48.0819L69.0732 46.4504L68.2276 44.1664H69.5285L70.0488 47.4946L68.4878 49.0608Z" stroke="white" stroke-width="0.8"/>
<path d="M69.5915 102.049L67.5752 101.527V102.18L68.5508 103.355L70.437 105.182C70.437 105.182 72.1931 108.249 72.1931 108.38C72.2581 108.51 72.9085 109.619 72.9085 109.619L75.8354 112.426H77.0711L77.5264 109.946L76.2906 109.163L75.9654 108.119L75.0549 107.792L75.3801 107.074L74.8598 106.552L73.3638 105.508L71.4126 103.746L69.5915 102.049Z" stroke="white" stroke-width="0.8"/>
<path d="M77.7856 112.426L76.5498 113.339L79.2815 114.253L82.3384 114.71L84.2246 114.971H85.9157L86.8913 115.493L88.6474 115.297C88.6474 115.297 88.5823 116.08 88.6474 116.08C88.7124 116.08 90.5335 116.798 90.5335 116.798V115.819L89.0376 115.493L89.3628 115.101L90.5986 115.297L92.5498 115.101V114.384L91.5092 114.84L90.3384 114.645L88.7124 114.84L86.8913 114.645H85.4604L84.5498 114.318L83.1189 113.405L81.4929 112.752L81.2978 113.47L79.6718 113.339L77.7856 112.426Z" stroke="white" stroke-width="0.8"/>
<path d="M69.5922 105.572H69.0068L69.5922 106.551L70.1776 106.029L69.5922 105.572Z" stroke="white" stroke-width="0.8"/>
<path d="M70.7626 107.791L70.3721 108.313L71.1532 108.966L71.4135 108.378L70.7626 107.791Z" stroke="white" stroke-width="0.8"/>
<path d="M77.0051 108.379L76.5498 108.966L77.8506 110.01L78.1758 109.423L77.0051 108.379Z" stroke="white" stroke-width="0.8"/>
<path d="M78.6318 109.422V110.009H79.4129L79.6082 109.422H78.6318Z" stroke="white" stroke-width="0.8"/>
<path d="M94.6326 105.572L93.4618 106.029L90.7952 105.768L89.7545 106.551L89.3643 108.052L88.7139 110.271L89.3643 110.597V112.294L90.3399 112.424L90.535 109.684L90.8602 110.01L91.3805 111.837L93.0066 110.924L91.3155 108.966L93.2017 108.052L93.0716 107.4L90.8602 108.378L90.0147 107.269L90.6651 106.551H92.096L93.5269 107.008L94.6326 106.029V105.572Z" stroke="white" stroke-width="0.8"/>
<path d="M97.7549 104.727C97.6248 104.727 96.7793 105.314 96.7793 105.314V107.011L97.7549 108.055V107.533L97.2346 106.619H98.0801V105.575H97.4297L97.7549 104.727Z" stroke="white" stroke-width="0.8"/>
<path d="M95.9975 109.684L95.0869 110.01L95.5422 110.662H96.5178L95.9975 109.684Z" stroke="white" stroke-width="0.8"/>
<path d="M97.0391 109.683L97.2342 110.662L98.6651 110.205L99.9659 110.662L99.5106 109.683L98.47 109.422L97.0391 109.683Z" stroke="white" stroke-width="0.8"/>
<path d="M93.2668 115.688L92.8115 116.798L94.0473 116.537L94.8278 115.754L93.9172 115.297L93.2668 115.688Z" stroke="white" stroke-width="0.8"/>
<path d="M88.128 104.725L87.6077 103.811L87.9979 103.028L86.3719 102.832L85.3312 105.703L81.689 106.356L80.9735 105.247L80.4532 105.116C80.4532 105.116 79.4126 106.487 79.7378 106.487C79.9979 106.421 81.3638 109.945 81.3638 109.945L84.7459 110.206L85.2012 110.924L86.3719 110.206L86.8922 108.51L87.9329 106.356L89.1686 106.16L87.9979 105.116L88.128 104.725Z" stroke="white" stroke-width="0.8"/>
<path d="M91.7061 90.6957L89.885 88.6074L89.3647 89.4558L89.1045 91.8704L90.0151 93.1103L90.7305 93.6977L92.1614 94.0239L93.2671 95.0681L94.1126 95.8512H93.5272L92.8118 97.1564L92.4866 95.8512L91.576 95.5902V96.8301L92.2915 96.5038L91.9012 97.7437L92.8118 98.2658L93.4622 97.1564L93.7224 97.7437L94.3077 97.4827L93.8525 96.3733L94.6329 96.4385L95.0882 96.2428L94.6329 94.6765L93.137 94.4808L92.8118 93.4366L91.9012 92.9798H90.9907L90.7305 91.8051L91.7061 90.6957Z" stroke="white" stroke-width="0.8"/>
<path d="M94.6329 97.5488L93.5272 99.1803L93.1369 98.7888L91.7061 99.6371V100.551H92.0963L92.4865 99.7677H93.5922L93.6573 101.008L94.6329 101.53L95.0882 100.747V99.8982L95.9987 100.159L95.6085 98.2667L94.6329 97.5488Z" stroke="white" stroke-width="0.8"/>
<path d="M89.1057 95.8516L89.3659 96.8305L87.4147 98.7882L87.0244 98.5272L89.1057 95.8516Z" stroke="white" stroke-width="0.8"/>
<path d="M89.6904 93.7637L90.536 95.3299L91.1864 94.8078L90.7961 94.0247L89.6904 93.7637Z" stroke="white" stroke-width="0.8"/>
<path d="M90.2117 82.2107L89.5613 81.7539L88.7158 83.1244V84.4295L89.2361 85.0821L89.4313 85.6695H89.7565L89.4313 84.8864L90.0166 84.2338L90.2117 82.2107Z" stroke="white" stroke-width="0.8"/>
<path d="M53.5947 97.7441L53.2695 99.7672L53.7898 101.529L55.1557 100.746C55.1557 100.746 55.0907 99.7672 55.1557 99.6367C55.2207 99.5061 54.2451 98.0704 54.2451 98.0704L53.5947 97.7441Z" stroke="white" stroke-width="0.8"/>
<path d="M105.885 57.4112L101.722 55.584V56.2366L102.112 57.4112V58.6512H101.462V60.0216L101.982 61.4573L102.893 60.8047L102.112 59.6953L102.893 59.5648L104.389 60.3479L104.714 58.5207H105.885V57.4112Z" stroke="white" stroke-width="0.8"/>
<path d="M102.893 61.4551L102.113 62.2382V63.5434L102.503 65.4359L102.113 67.0674H100.617L100.097 68.7641L99.2511 69.0904L97.6251 69.5472L96.1291 70.9829V71.766L95.3486 72.6797L96.5194 75.2901L97.3649 74.6375V72.2881L96.5844 71.505L97.3649 70.9829L99.5112 70.3303L100.097 71.3092L100.552 72.0923L101.462 70.7219V69.9388L102.438 70.3303L102.893 69.8735L103.674 68.8946L103.999 70.1346L104.714 68.8294L104.194 68.0463L103.674 66.0232L104.454 65.3706L104.129 63.0213L102.893 61.4551Z" stroke="white" stroke-width="0.8"/>
<path d="M99.0553 70.9863L97.3643 71.5737L98.2098 73.0094L99.0553 72.0305H99.7057L99.0553 70.9863Z" stroke="white" stroke-width="0.8"/>
<path d="M60.3571 82.3417L59.5766 81.9501L59.8368 81.3628L60.9424 81.6891L61.4628 82.4722L63.479 82.7332L62.5034 84.0384L63.1538 84.8215L63.2839 84.3647L63.6091 84.0384L63.9994 85.9309L64.4546 85.2784V84.0384H65.1701V82.929L66.2107 80.6449L67.4465 79.8618L66.7311 79.0787L66.2758 78.0998L64.8449 78.2956L62.5685 79.8618L62.7636 80.8407H60.162L59.8368 79.6661H59.1864V81.2975L57.4302 81.1018L54.9587 80.4492L52.0969 79.0787L52.292 77.382L50.8611 76.9252L50.2107 74.8369L48.4546 74.4453L47.0888 75.0979L47.479 75.2284L46.5685 76.0768L46.3733 77.2515L44.8124 80.0576L43.5116 79.8618L42.601 81.1018L44.0319 82.4069L44.4221 83.5164L42.601 83.8427L42.0156 84.3647L42.2107 84.43L42.7961 85.0826L44.0319 84.9521L43.1863 85.7352L42.4709 85.6047L44.4221 87.3667L45.6579 86.5835L45.9831 85.4089L46.4384 88.9329L47.6091 92.3264L49.1051 95.5893L51.3164 99.1786L51.9018 98.9828L53.3327 97.1556L53.7229 94.2189V91.9348L56.1294 90.0423L57.6904 88.215L59.1213 87.0404L59.9668 85.8004L61.0075 85.9962L59.8368 83.1248L60.3571 82.3417Z" stroke="white" stroke-width="0.8"/>
<path d="M57.9513 79.4046H56.9107L56.3903 79.0783L54.7643 78.0994L53.1383 77.6426H52.2928L52.0977 79.0783L54.9594 80.4487L57.431 81.1013L59.1871 81.2971V79.8614H58.7968L57.9513 79.4046Z" stroke="white" stroke-width="0.8"/>
<path d="M50.0814 73.1399L48.9107 71.9L47.4798 71.3127L46.7643 69.877H45.7887V70.2685L44.618 70.8558H44.4879L44.4229 71.4432L45.7887 72.3568L45.2684 73.0747L45.4635 74.3798L46.179 74.9019L47.0895 75.0977L48.4554 74.4451L50.2115 74.8367L50.3416 75.2282L50.7968 74.8367L50.0814 73.1399Z" stroke="white" stroke-width="0.8"/>
<path d="M63.9999 85.9295L63.6097 84.037L63.2845 84.3633L63.1544 84.8201L62.504 84.037L63.4796 82.7318L61.4633 82.4707L60.943 81.6876L59.8373 81.3613L59.5771 81.9487L60.3576 82.3402L59.8373 83.1233L61.008 85.9947L61.0731 86.06L62.1137 85.2116L62.8942 85.0811L63.4145 86.5168L63.8698 87.0389L64.0649 85.799L63.9999 85.9295Z" stroke="white" stroke-width="0.8"/>
<path d="M70.6984 93.7633L69.8529 92.6539L70.048 91.2835L68.8122 89.5214L69.3326 88.412L70.8285 87.3026L71.8692 86.0627L69.9179 85.4754L70.3082 84.9533L69.7228 84.0397L68.7472 83.7134L68.2919 83.1913L69.0724 81.1683L68.1618 79.4062L67.3163 79.6673L67.4464 79.8631L66.2106 80.6462L65.17 82.9303V84.0397H64.4545V85.2796L64.0643 85.8017L63.8691 87.0416L64.3244 87.4984L65.235 88.2163L64.8448 88.5426L65.235 89.0646L65.6903 88.6078L66.2757 90.3698L65.8854 91.7403L66.2757 91.936L68.2919 90.9572V90.3046L69.3326 92.3929L70.048 94.2854L70.4382 95.9169L70.1781 97.0915V97.6789L70.9586 95.8516L70.8285 94.938L70.6984 93.7633Z" stroke="white" stroke-width="0.8"/>
<path d="M60.7473 79.4707L59.9668 80.1233L60.1619 80.8412H62.7636L62.5684 79.8623V79.797L62.1782 79.4707H60.7473Z" stroke="white" stroke-width="0.8"/>
<path d="M77.5288 96.6983L77.0735 95.8499L78.3743 94.7405L77.9841 93.4353L77.0735 92.9785V93.7616L75.9028 93.109H74.3418L73.6914 94.0879L73.8865 95.5889L74.667 96.5025L75.1223 97.0899H75.8378L76.163 96.6983H77.5288Z" stroke="white" stroke-width="0.8"/>
<path d="M79.1545 91.6743L77.0081 90.0428L76.878 89.5207L76.1626 88.9334L76.2927 87.6282L76.813 86.5188L77.7886 86.1925L76.6829 85.6704V84.8873L75.1219 84.3652L73.3008 84.9526L72.6504 85.1483L73.3008 86.1272L73.691 86.8451H74.9268L75.3821 87.4977L74.6016 88.1503L74.9919 88.9987L76.0325 89.5207L76.9431 90.7607L78.374 91.5438L78.1138 92.3921L77.9187 93.4363H77.9837L78.374 94.7415L77.0732 95.8509L77.5284 96.6992H76.1626L75.8374 97.0908L76.2927 97.2213L76.0325 98.8528L76.5528 98.657L77.7236 97.0908L78.3089 97.0255L79.8699 95.7856V94.2846L79.1545 91.6743Z" stroke="white" stroke-width="0.8"/>
<path d="M91.707 67.9851L91.2518 68.3114L92.0323 69.4208L91.707 70.2692L92.2924 71.3133L93.4631 70.3345L94.5688 69.6166L93.7233 67.2673L92.8127 66.0273L91.0566 67.0062L91.707 67.9851Z" stroke="white" stroke-width="0.8"/>
<path d="M91.5131 61.4611L91.7733 62.2442L90.3424 61.7874L88.9766 63.8104V64.5283L89.7571 64.7241V66.7471L90.2123 67.3344L90.9278 66.8776L91.0579 67.0081L92.814 66.0293L92.4237 65.5724L91.5782 65.1156L91.4481 64.2672L93.0091 62.701L92.6839 61.3958L93.3993 60.5475L92.5538 60.0254L91.5131 61.4611Z" stroke="white" stroke-width="0.8"/>
<path d="M92.813 57.2829L93.3984 56.7608L94.5691 56.9566L94.439 53.8241L94.5691 52.9757L93.9837 51.9316L92.813 52.5189L92.3577 53.4978L91.187 53.2368L90.7317 51.7358L88.7155 50.9527L87.4146 50.6264L86.1789 48.7339L84.5529 46.5151L82.9919 45.9277H81.4309L79.8049 46.5803L79.6098 47.3634L80.3252 47.5592V48.4728L80.1301 49.517L80.3252 50.9527L79.6098 51.8011L78.439 51.6706L78.1789 54.6725H78.8943H80L80.5854 54.0852L81.626 55.1293L81.9512 55.9777L80.7805 56.1082L79.8699 56.8913L79.4146 57.6744L78.439 58.0007L77.7236 58.7838L76.5528 58.5228L75.7073 58.8491V59.6975L76.4878 60.0238L75.5122 61.7205L72.065 62.8299L71.1545 63.4172H69.8537L67.8374 62.5689L66.4715 62.3078L64.7155 62.5689H63.2195L62.0488 60.8069L60.2277 59.828H58.5366L57.561 59.2406L57.7561 58.5228L57.561 57.5439L56.7805 56.565L55.6748 56.3692L55.1545 56.565L53.9838 54.9335L53.2683 55.5861L52.6829 56.565L53.0081 57.4134L52.3577 58.066L50.7968 57.8049L50.4065 59.6975L50.7968 60.0238L50.0813 60.2848L48.8455 60.5458V61.1332L49.3008 61.1984L49.8212 62.8952L49.4309 63.6783L48.4553 63.2867H46.1789L43.6423 63.0257V63.6783H41.8211L41.4959 64.3961V65.2445L42.0813 65.6361L42.4065 65.114L42.8618 65.6361L42.4716 66.0276L41.1707 65.7013L40.5203 66.3539L40.8455 66.8107L39.3496 67.6591L39.935 68.7685L39.7399 70.0084L40.6504 70.2695L41.626 69.9432L42.2114 68.7685L42.8618 69.0948V70.7263H43.6423L44.5529 69.6169L45.7886 69.4211V69.8779H46.7642L47.4797 71.3136L48.9106 71.901L50.0813 73.1409L50.7968 74.8376L50.3415 75.2292L50.8618 76.9259L52.2927 77.3827V77.6438H53.1382L54.7642 78.1006L56.3902 79.0795L56.9106 79.4058H57.9512L58.7968 79.8626H59.187V79.6668H59.8374L59.9675 80.1236L60.748 79.471H62.1789L62.5691 79.7973L64.8455 78.2964L66.2764 78.1006L66.7317 79.0795L67.3171 79.6668L68.1626 79.4058L69.0732 81.1678L68.2927 83.1908L68.748 83.7129L69.7236 84.0392L70.309 84.9528L69.9187 85.4749L71.8699 86.0622L71.6748 86.3233L72.2602 86.3885V85.2791L73.3008 84.9528L75.122 84.3655L76.6829 84.8876V85.6707L77.7886 86.1927L78.6992 85.8665L79.5447 86.1275L79.8699 87.1716L80.3903 87.1064V86.1927L82.6667 85.3444L85.3984 84.235L86.5691 82.734L87.7398 80.5152L88.7155 78.6879L89.1707 76.7301L87.935 76.1428L88.8455 75.2944L87.8699 74.4461L88.5203 74.0545L86.7642 71.6399L85.6585 71.1831L85.8537 69.7474L86.9593 68.7032L88 68.4422L88.065 67.5938H86.6992L86.1789 67.2023L85.5935 67.5938L85.2033 68.3117H84.6829L84.4228 67.3981H83.9675L83.187 66.7455L83.252 65.7666L84.1626 65.8318L84.4228 64.7224L85.0732 64.5919L85.6585 63.2867L86.6992 63.5478L86.2439 64.7224L86.5691 65.4403L86.1789 65.9624L86.5041 66.2234L87.1545 65.6361L87.3496 65.1792L88.8455 64.4614L88.9756 64.5266V63.8088L90.3415 61.7858L91.7724 62.2426L91.5122 61.4595L92.5528 60.0238L92.9431 60.2848L93.3984 59.6975L92.813 57.2829Z" stroke="white" stroke-width="0.8"/>
<path d="M75.0564 52.5852L71.5442 53.1073L69.1377 52.0631L66.471 52.3894L65.2352 50.9537L62.3084 50.4316L61.5279 51.541L62.3084 53.3683L59.8369 53.6293L57.8857 52.5199L55.9995 52.9768L54.7637 54.543L54.1133 55.1303L55.1539 56.566L55.6743 56.3702L56.78 56.566L57.5604 57.5449L57.7556 58.5238L57.5604 59.2417L58.5361 59.829H60.2271L62.0482 60.8079L63.219 62.5699H64.7149L66.471 62.3088L67.8369 62.5699L69.8531 63.4182H71.1539L72.0645 62.8309L75.5117 61.7215L76.4873 60.0248L75.7068 59.6985V58.8501L76.5523 58.5238L77.723 58.7848L78.4385 58.0017L79.4141 57.6754L79.8694 56.8923L80.7799 56.1092L81.9507 55.9787L81.6255 55.1303L80.5848 54.0862L79.9995 54.6735H78.8938H78.1783L78.4385 51.8673L76.4222 51.3453L75.0564 52.5852Z" stroke="white" stroke-width="0.8"/>
<path d="M65.1691 94.0254L64.7135 94.5475L64.4531 96.8315L64.8436 97.1578V95.9832L65.1691 94.939V94.0254Z" stroke="white" stroke-width="0.8"/>
<path d="M65.5596 98.7891L66.1454 100.747L66.4708 100.421L66.0152 99.1154L65.5596 98.7891Z" stroke="white" stroke-width="0.8"/>
<path d="M85.3304 105.707L86.371 102.836L87.997 103.032L88.3222 102.379L89.3629 101.857L86.9564 100.16L84.4848 102.705L82.6637 104.337L81.8832 105.511L80.9727 105.25L81.6881 106.36L85.3304 105.707Z" stroke="white" stroke-width="0.8"/>
<path d="M71.9975 101.138L72.3227 102.834L73.2333 104.205L75.6397 105.706L75.8349 105.184L74.9893 103.944L74.9243 102.117L73.8186 100.942L71.7373 100.746L71.9975 101.138Z" stroke="white" stroke-width="0.8"/>
<path d="M75.5127 91.2824L75.2525 90.0425L74.3419 89.2594L74.0818 89.8467L73.3663 89.6509L72.0655 90.0425V88.411H71.5452L70.8297 87.2363V87.3016L69.3338 88.411L68.8135 89.5204L70.0492 91.2824L69.8541 92.6529L70.6997 93.7623L70.8297 94.9369L70.9598 95.8506L70.1793 97.6778V99.1788L70.4395 99.0483L71.7403 100.745L73.8216 100.941L72.5858 100.288L72.0005 99.7009L72.1956 99.5051L71.8704 98.722L71.285 98.0041L70.8948 97.6778L71.1549 96.3726L71.4801 95.0674L71.5452 94.0886H72.3257V94.9369L73.8867 95.5243V95.5895L73.6915 94.0886L74.3419 93.1097H75.9029L76.1631 93.2402L76.3582 92.0003L75.5127 91.2824Z" stroke="white" stroke-width="0.8"/>
<path d="M78.3738 91.5439L76.9429 90.7607L76.0324 89.5208L74.9917 88.9987L74.6015 88.1504L75.3819 87.4978L74.9267 86.8452H73.6909L73.3006 86.1273L72.6502 85.1484L72.26 85.279V86.3884L71.6746 86.3231L70.8291 87.2367L71.5446 88.4114H72.0649V90.0429L73.3657 89.6513L74.0811 89.8471L74.3413 89.2598L75.2519 90.0429L75.512 91.2828L76.3576 92.0007L76.1624 93.2406L77.073 93.7627V92.9796L77.9185 93.4364L78.1137 92.3922L78.3738 91.5439Z" stroke="white" stroke-width="0.8"/>
<path d="M80.7141 87.4961H79.2832L78.6328 88.1487L79.0231 89.2581H79.8686L80.4539 88.8665L80.7141 87.9529V87.4961Z" stroke="white" stroke-width="0.8"/>
<path d="M8.91016 73.2724L9.36545 73.8597L10.5362 73.5987L10.9915 72.8809H9.95081L8.91016 73.2724Z" stroke="white" stroke-width="0.8"/>
<path d="M30.2446 94.9395H29.2031V95.4615H30.2446V94.9395Z" stroke="white" stroke-width="0.8"/>
<path d="M12.6832 71.5773L17.3011 71.0552H19.3824L19.5776 70.7942L19.0572 70.011L18.732 68.4448L19.0572 67.9227L18.2117 67.727L18.1467 66.8133L17.3662 66.1607L15.8702 65.8997L15.7401 66.4218L13.854 66.7481L11.5775 66.1607L10.3418 65.6387L8.1304 66.0302L7.28486 66.8133L6.11413 66.6828L5.65884 67.0091L5.78893 67.4007L4.03283 67.6617L3.31738 68.1185L3.44746 68.7059L3.90275 68.8364L3.96779 69.6195L3.51251 69.8805L5.13852 71.6425L6.82958 72.0341L7.47999 71.4467L9.10601 72.2951L10.3418 71.9688L11.0572 71.3815L12.293 71.3162L12.0979 72.2951L12.6832 72.4909V71.5773Z" stroke="white" stroke-width="0.8"/>
<path d="M20.6825 68.9658L21.0727 68.4438L20.0971 67.7259L19.1866 66.3555L19.1215 66.486L17.8857 66.6165L18.1459 66.8123L18.2109 67.7259L19.0565 67.9217L18.8614 68.3132L19.2516 68.1827L19.5118 68.4438L19.837 68.1827L20.6825 68.9658Z" stroke="white" stroke-width="0.8"/>
<path d="M23.4792 66.8771L22.5686 65.4414L21.593 66.1593L20.6825 65.4414L20.4223 65.7024L20.8125 66.4856L19.5768 66.094L19.1865 66.355L20.0971 67.7255L21.0727 68.4433L20.6825 68.9654L19.8369 68.1823L19.5117 68.4433L20.2272 69.1612L21.1377 69.0959L22.1134 68.1823L22.6337 68.9654V69.4875L23.0239 69.618L23.2841 67.7255L23.9345 67.2034L23.4792 66.8771Z" stroke="white" stroke-width="0.8"/>
<path d="M12.4877 75.6236L12.2926 75.1016L11.4471 75.2321L11.3821 75.7542L10.6016 76.9288L11.6422 79.4087L11.8373 78.7561L12.0975 76.0805L12.4877 75.6236Z" stroke="white" stroke-width="0.8"/>
<path d="M11.8385 73.5352L11.4482 75.2319L12.2938 75.1014L12.3588 75.2972L12.8791 74.1225L11.8385 73.5352Z" stroke="white" stroke-width="0.8"/>
<path d="M13.594 78.8218H14.2444L14.8298 77.9082L13.7241 76.9293L15.4802 76.1462L14.8948 74.9062L13.2037 76.0809L12.4233 75.7546L12.0981 76.0809L11.8379 78.7565V79.2134L12.8785 79.4091L13.594 78.8218Z" stroke="white" stroke-width="0.8"/>
<path d="M16.7159 72.3599V71.8378L17.6915 71.4462V71.0547H17.3013L12.6834 71.5768V72.4904L12.0981 72.2946L12.033 72.5557L11.8379 73.5345L12.8785 74.1219L12.3582 75.2965L12.4883 75.6228L12.4233 75.7534L13.2037 76.0797L14.8948 74.905L14.9599 74.9703L16.7159 73.6651V72.3599Z" stroke="white" stroke-width="0.8"/>
<path d="M20.2933 79.4079H22.1795L22.5047 78.2985L23.4803 78.4943L23.6104 78.0374H23.6754L23.025 77.1891V76.2754L21.8543 75.3618L20.6835 74.5134L20.7486 73.6651L21.0738 73.2735L21.3339 72.4904L20.2933 72.0988L19.3827 71.0547H17.6917V71.4462L16.716 71.8378V72.3599V73.6651L14.96 74.9703L15.4803 76.0797H16.1307L20.2933 79.4079Z" stroke="white" stroke-width="0.8"/>
<path d="M23.7397 79.5388L23.2844 78.9514L23.4795 78.4946L22.5039 78.2988L22.1787 79.343L23.1543 79.8651L23.7397 79.5388Z" stroke="white" stroke-width="0.8"/>
<path d="M26.7323 82.7362V82.2142L26.1465 81.9531V83.193L26.8625 83.5193L26.7323 82.7362Z" stroke="white" stroke-width="0.8"/>
<path d="M27.2525 83.9784L26.9273 84.0437L26.8623 83.5216L26.1468 83.1953V83.3258L25.3013 81.4986L23.7403 79.5408L23.155 79.8671L22.1794 79.345V79.4103H20.2932L16.1306 76.082H15.4802V76.1473L13.7241 76.9304L14.8298 77.9093L14.2444 78.8229H13.594L12.8785 79.4103L11.8379 79.2145V80.2586L13.659 82.7385L14.3094 84.1089L15.155 84.3047L15.7403 85.9362L15.9355 86.9151L17.5615 88.5466L18.7322 90.3086L19.2525 91.5485L19.968 91.2222V90.3086L22.6346 91.0264L22.7647 91.9401L24.3907 89.7865L30.3095 88.155V85.3489V85.2836H27.2525V83.9784Z" stroke="white" stroke-width="0.8"/>
<path d="M30.9603 81.6914L29.2692 83.845L27.2529 83.9755V85.2807H30.3098L31.4155 82.9313L30.9603 81.6914Z" stroke="white" stroke-width="0.8"/>
<path d="M24.3902 89.7839L22.7641 91.9375L22.6341 91.0238L19.9674 90.306V91.2196L19.252 91.5459L19.5121 92.1333L20.2926 94.9394L21.7235 94.6784L22.2438 94.091L23.1544 94.4826L24.195 93.7647L25.8861 92.9816L28.1625 92.329V91.4807L28.8129 91.2849L27.5771 88.9355L24.3902 89.7839Z" stroke="white" stroke-width="0.8"/>
<path d="M33.3007 84.3673L31.8048 84.1063L31.4145 82.9316L30.3089 85.3462V88.1524L27.5771 88.9355L28.8129 91.2848L30.1137 90.828L30.7641 90.6322L31.0243 90.1102L31.7397 89.9144L32.13 89.066H32.9105V87.8261L33.4308 87.304L34.4715 85.6725L33.3007 84.3673Z" stroke="white" stroke-width="0.8"/>
<path d="M37.269 81.3007L36.5536 79.865L35.5129 79.4082L34.7975 78.2988L35.5129 77.2546L35.3828 76.4063H34.4723L33.8219 73.4043L34.2771 72.8823L34.082 71.2508L30.3097 69.4235L27.8381 70.5982L27.9032 70.9897L25.6918 71.4466L22.9601 70.2719L23.0251 69.6193L22.6349 69.4888V68.9667L22.1145 68.1836L21.1389 69.0972L20.2284 69.1625L19.2528 68.1836L18.8625 68.3141L18.7324 68.4446L19.0576 70.0109L19.578 70.794L19.3828 71.055L20.2934 72.0992L21.334 72.4907L21.0739 73.2738L20.7487 73.6654L20.6836 74.5138L21.8544 75.3621L23.0251 76.2758V77.1894L23.6755 78.0378L25.0414 78.103L26.4072 80.0608L29.7243 81.6923L31.1552 80.9092L32.0658 82.2144L35.8381 82.9322H35.9682V81.9533L37.269 81.3007Z" stroke="white" stroke-width="0.8"/>
<path d="M36.9427 71.4469L37.2679 70.4028L38.6337 70.0765V69.4239L34.7963 67.5313L34.1459 66.0304L31.0239 64.2031L29.7231 65.1168V66.0304H28.4223L26.8614 64.921L25.8857 65.4431L26.1459 66.1609V67.3356L27.2516 68.445L27.837 70.5985L30.3085 69.4239L34.0809 71.2511L34.211 72.2953L35.5118 72.6216L36.9427 71.4469Z" stroke="white" stroke-width="0.8"/>
<path d="M39.9347 68.7701L39.3493 67.6607L40.8452 66.8123L40.52 66.3555L41.1704 65.7029L42.4712 66.0292L42.8615 65.6377L42.4062 65.1156L42.081 65.6377L41.4956 65.2461V64.202L40.0647 65.7029L38.1135 65.6377L37.9184 64.8545L37.0729 64.6588V63.6799L36.3574 62.8968H33.4956L31.9347 61.9831L31.6095 62.5705L30.3086 62.2442V61.1348L28.0322 61.5916L28.7477 66.0292H29.7233V65.1156L31.0241 64.202L34.146 66.0292L34.7964 67.5302L38.6338 69.4227V69.9448L39.6745 70.2711L39.9347 68.7701Z" stroke="white" stroke-width="0.8"/>
<path d="M39.6099 77.1227L41.7562 76.0786L42.2115 73.8598L43.1221 73.5335L43.3172 71.2494L44.618 70.8578L45.7888 70.2705V69.4221L44.553 69.6179L43.6424 70.7273H42.8619V69.0958L42.2115 68.7695L41.6262 69.9442L40.6506 70.2705L39.74 70.0095L39.6749 70.2705L38.6343 69.9442V70.0747L37.2684 70.401L36.9432 71.4452L35.5123 72.6198L34.2115 72.2935L34.2766 72.8809L33.8213 73.4029L34.4717 76.4049H35.3823L35.5123 77.2532L34.7969 78.2974H39.6099V77.1227Z" stroke="white" stroke-width="0.8"/>
<path d="M44.4219 83.5177L44.0317 82.4083L42.6008 81.1031L43.5113 79.8632L44.8122 80.059L46.3731 77.2528L46.5683 76.0782L47.4788 75.2298L46.178 74.9035L45.4626 74.3814L45.2674 73.0762L45.7878 72.3584L44.4219 71.4448L44.487 70.8574L43.3162 71.249L43.1211 73.5331L42.2105 73.8594L41.7552 76.0782L39.6089 77.1223V78.297H34.7959L35.5113 79.4064L36.552 79.8632L37.2674 81.2989L35.9666 81.9515V82.9304L38.7634 82.7346H40.1943L41.2349 84.1051L42.0154 84.3661L42.6008 83.844L44.4219 83.5177Z" stroke="white" stroke-width="0.8"/>
<path d="M52.2926 54.5443L51.382 54.218L49.8861 52.8476L48.5202 53.3697L47.1544 53.3044L43.1869 48.8015L41.5609 50.0414L38.4389 49.3888L38.1788 48.1489L36.5527 47.9531L35.5121 48.8015L31.4145 50.433L30.3739 50.7593L31.4145 51.6729H30.6991L30.3739 53.0434L31.4145 53.8917V54.6748L29.6584 54.8706L28.0975 54.4138L25.9511 54.8706L23.7397 53.8265H22.504L21.1381 55.2622V56.3063L20.0324 55.4579L19.5771 56.1105L19.6422 58.0683L21.3332 59.6998L22.1788 60.3524L23.3495 59.3735H25.1706C25.1706 59.3735 25.6259 61.2008 25.691 61.3313C25.756 61.4618 23.9349 61.5271 23.9349 61.5271L23.3495 62.506L24.13 63.6154L25.4958 64.268L25.8861 65.4426L26.8617 64.9206L28.4227 66.03H28.7479L28.0324 61.5923L30.3089 61.1355V60.6787L31.8698 59.8956L32.3251 61.266L31.9349 62.0491L33.4958 62.9628H36.3576L37.0731 63.7459V64.7248L37.9186 64.9206L38.1137 65.7037L40.065 65.7689L41.4308 64.268V64.4637L41.756 63.7459H43.5771V63.0933L46.1137 63.2891L48.3901 63.3543L49.3658 63.7459L49.691 62.9628L49.1706 61.266L48.6503 61.2008V60.5482L49.8861 60.3524L50.6015 60.0914L50.2113 59.6998L50.6015 57.8073L52.1625 58.0683L52.8129 57.4157L52.4877 56.5674L53.1381 55.6537L53.5284 55.2622L53.0731 54.5443H52.2926ZM43.6422 59.6998V60.8092L42.8617 60.4177V59.3735L43.6422 58.5904L44.4227 58.8514L43.6422 59.6998Z" stroke="white" stroke-width="0.8"/>
<path d="M3.6424 66.2252L3.12207 67.2694L3.31719 67.7262L4.42288 67.0083L5.26842 66.9431L5.39849 66.5515L4.68305 66.1599L4.55297 65.7031L3.51232 66.1599L3.6424 66.2252Z" stroke="white" stroke-width="0.8"/>
</g>
<defs>
<clipPath id="clip0_3821_13186">
<rect width="120" height="120" fill="white"/>
</clipPath>
</defs>
</svg>
