<svg width="25" height="25" viewBox="0 0 25 25" fill="none" xmlns="http://www.w3.org/2000/svg">
<g clip-path="url(#clip0_1122_38921)">
<path d="M12.8008 2.75C10.8724 2.75 8.98736 3.32183 7.38398 4.39317C5.7806 5.46451 4.53091 6.98726 3.79296 8.76884C3.05501 10.5504 2.86192 12.5108 3.23813 14.4021C3.61434 16.2934 4.54293 18.0307 5.90649 19.3943C7.27006 20.7579 9.00734 21.6865 10.8987 22.0627C12.79 22.4389 14.7504 22.2458 16.5319 21.5078C18.3135 20.7699 19.8363 19.5202 20.9076 17.9168C21.979 16.3134 22.5508 14.4284 22.5508 12.5C22.5481 9.91498 21.5199 7.43661 19.6921 5.60872C17.8642 3.78084 15.3858 2.75273 12.8008 2.75ZM12.4258 7.25C12.6483 7.25 12.8658 7.31598 13.0508 7.4396C13.2358 7.56321 13.38 7.73891 13.4651 7.94448C13.5503 8.15005 13.5726 8.37625 13.5292 8.59448C13.4858 8.81271 13.3786 9.01316 13.2213 9.1705C13.0639 9.32783 12.8635 9.43498 12.6453 9.47838C12.427 9.52179 12.2008 9.49951 11.9953 9.41436C11.7897 9.32922 11.614 9.18502 11.4904 9.00002C11.3668 8.81501 11.3008 8.5975 11.3008 8.375C11.3008 8.07663 11.4193 7.79048 11.6303 7.5795C11.8413 7.36853 12.1274 7.25 12.4258 7.25ZM13.5508 17.75C13.153 17.75 12.7714 17.592 12.4901 17.3107C12.2088 17.0294 12.0508 16.6478 12.0508 16.25V12.5C11.8519 12.5 11.6611 12.421 11.5205 12.2803C11.3798 12.1397 11.3008 11.9489 11.3008 11.75C11.3008 11.5511 11.3798 11.3603 11.5205 11.2197C11.6611 11.079 11.8519 11 12.0508 11C12.4486 11 12.8301 11.158 13.1114 11.4393C13.3927 11.7206 13.5508 12.1022 13.5508 12.5V16.25C13.7497 16.25 13.9405 16.329 14.0811 16.4697C14.2218 16.6103 14.3008 16.8011 14.3008 17C14.3008 17.1989 14.2218 17.3897 14.0811 17.5303C13.9405 17.671 13.7497 17.75 13.5508 17.75Z" fill="#009688"/>
</g>
<defs>
<clipPath id="clip0_1122_38921">
<rect width="24" height="24" fill="white" transform="translate(0.800781 0.5)"/>
</clipPath>
</defs>
</svg>
