<svg width="24" height="24" viewBox="0 0 24 24" fill="none" xmlns="http://www.w3.org/2000/svg">
    <rect width="24" height="24" rx="12" fill="#29B6F6" fill-opacity="0.1" />
    <g clip-path="url(#clip0_1571_9195)">
        <path
            d="M16.9523 8.8461H14.9791C15.001 8.82754 15.0235 8.80954 15.0449 8.78985C15.2157 8.63807 15.3534 8.45268 15.4493 8.24526C15.5453 8.03785 15.5973 7.81287 15.6023 7.58441C15.6097 7.33448 15.566 7.08567 15.4737 6.85327C15.3815 6.62086 15.2427 6.40976 15.0659 6.23293C14.8891 6.0561 14.6781 5.91726 14.4457 5.82494C14.2133 5.73263 13.9645 5.68878 13.7146 5.6961C13.486 5.70102 13.261 5.75307 13.0534 5.84899C12.8459 5.94491 12.6604 6.08263 12.5086 6.25354C12.2985 6.49704 12.1277 6.77185 12.0023 7.06804C11.877 6.77185 11.7062 6.49704 11.4961 6.25354C11.3443 6.08263 11.1588 5.94491 10.9513 5.84899C10.7437 5.75307 10.5187 5.70102 10.2901 5.6961C10.0402 5.68878 9.79136 5.73263 9.55899 5.82494C9.32661 5.91726 9.11555 6.0561 8.93877 6.23293C8.76199 6.40976 8.62322 6.62086 8.53097 6.85327C8.43873 7.08567 8.39495 7.33448 8.40234 7.58441C8.40734 7.81287 8.45943 8.03785 8.55535 8.24526C8.65126 8.45268 8.78894 8.63807 8.95978 8.78985C8.98116 8.80841 9.00366 8.82641 9.02559 8.8461H7.05234C6.81365 8.8461 6.58473 8.94092 6.41595 9.1097C6.24716 9.27848 6.15234 9.5074 6.15234 9.7461V11.5461C6.15234 11.7848 6.24716 12.0137 6.41595 12.1825C6.58473 12.3513 6.81365 12.4461 7.05234 12.4461V16.0461C7.05234 16.2848 7.14716 16.5137 7.31595 16.6825C7.48473 16.8513 7.71365 16.9461 7.95234 16.9461H11.3273C11.387 16.9461 11.4442 16.9224 11.4864 16.8802C11.5286 16.838 11.5523 16.7808 11.5523 16.7211V11.5461H7.05234V9.7461H11.5523V11.5461H12.4523V9.7461H16.9523V11.5461H12.4523V16.7211C12.4523 16.7808 12.476 16.838 12.5182 16.8802C12.5604 16.9224 12.6177 16.9461 12.6773 16.9461H16.0523C16.291 16.9461 16.52 16.8513 16.6887 16.6825C16.8575 16.5137 16.9523 16.2848 16.9523 16.0461V12.4461C17.191 12.4461 17.42 12.3513 17.5887 12.1825C17.7575 12.0137 17.8523 11.7848 17.8523 11.5461V9.7461C17.8523 9.5074 17.7575 9.27848 17.5887 9.1097C17.42 8.94092 17.191 8.8461 16.9523 8.8461ZM9.55603 8.11485C9.47735 8.0436 9.41425 7.95685 9.37069 7.86005C9.32713 7.76325 9.30405 7.65849 9.30291 7.55235C9.30006 7.42798 9.32207 7.3043 9.36763 7.18854C9.4132 7.07279 9.48141 6.96729 9.56826 6.87823C9.65512 6.78918 9.75888 6.71835 9.87346 6.6699C9.98804 6.62146 10.1111 6.59636 10.2355 6.5961H10.2631C10.3692 6.59724 10.474 6.62032 10.5708 6.66388C10.6676 6.70744 10.7543 6.77054 10.8256 6.84922C11.2975 7.38247 11.464 8.26672 11.5225 8.81347C10.9735 8.75554 10.0898 8.58904 9.55603 8.11485ZM14.4498 8.11485C13.916 8.58735 13.03 8.75385 12.481 8.81235C12.548 8.22116 12.7336 7.35547 13.1836 6.84979C13.2548 6.7711 13.3416 6.708 13.4384 6.66444C13.5352 6.62088 13.64 6.59781 13.7461 6.59666H13.7737C13.8981 6.59744 14.0211 6.62304 14.1354 6.67196C14.2498 6.72089 14.3533 6.79215 14.4398 6.88158C14.5263 6.971 14.5941 7.07679 14.6391 7.19274C14.6842 7.3087 14.7057 7.43248 14.7023 7.55685C14.7005 7.66227 14.677 7.76619 14.6334 7.86218C14.5898 7.95816 14.5269 8.04416 14.4487 8.11485H14.4498Z"
            fill="#29B6F6" />
    </g>
    <defs>
        <clipPath id="clip0_1571_9195">
            <rect width="14.4" height="14.4" fill="white" transform="translate(4.80078 4.79688)" />
        </clipPath>
    </defs>
</svg>
