<svg width="120" height="120" viewBox="0 0 120 120" fill="none" xmlns="http://www.w3.org/2000/svg">
<g clip-path="url(#clip0_3821_13391)">
<path d="M58.7732 0.555558L58.2191 0L57.4434 1.00001L58.1083 2.22223L58.7732 0.555558Z" fill="#C4C4C4" stroke="white" stroke-width="1.2"/>
<path d="M80.1602 34.5566V35.0011L81.7117 36.89L82.3766 36.0011L80.1602 34.5566Z" fill="#C4C4C4" stroke="white" stroke-width="1.2"/>
<path d="M81.8217 37.8887L81.2676 38.7776L83.3732 39.7776L83.5949 38.8887L81.8217 37.8887Z" fill="#C4C4C4" stroke="white" stroke-width="1.2"/>
<path d="M83.5971 36.002H83.043L84.3728 38.8908L85.2594 38.2242L83.5971 36.002Z" fill="#C4C4C4" stroke="white" stroke-width="1.2"/>
<path d="M84.1504 39.334V40.2229L85.9235 41.1118V40.2229L84.1504 39.334Z" fill="#C4C4C4" stroke="white" stroke-width="1.2"/>
<path d="M91.7948 47.002L90.9082 47.5575L91.7948 49.2242L92.7922 48.7797L91.7948 47.002Z" fill="#C4C4C4" stroke="white" stroke-width="1.2"/>
<path d="M92.7948 49.2246L92.3516 50.5579H93.4598L92.7948 49.2246Z" fill="#C4C4C4" stroke="white" stroke-width="1.2"/>
<path d="M94.2308 51.8926H93.4551L93.7875 53.337H94.5633L94.2308 51.8926Z" fill="#C4C4C4" stroke="white" stroke-width="1.2"/>
<path d="M109.417 51.8906L107.976 52.6684L107.422 53.8906L109.417 54.224L109.86 53.1128L109.417 51.8906Z" fill="#C4C4C4" stroke="white" stroke-width="1.2"/>
<path d="M112.078 49.8887L109.861 50.7776V51.6664H112.078V49.8887Z" fill="#C4C4C4" stroke="white" stroke-width="1.2"/>
<path d="M87.0287 56.998L86.4746 57.6647L87.9153 59.9981L90.3534 61.6647L90.9075 60.6647L88.6911 58.6647L87.0287 56.998Z" stroke="white" stroke-width="1.2"/>
<path d="M95.4518 87.666L94.4544 87.9994L94.8976 91.4438L95.4518 94.666L94.8976 98.7772L93.0137 99.2216V100.555L94.676 102.222L93.0137 104.999L93.7894 106.333L98.2223 101.222L99.7738 100.222L101.547 96.9994L100.771 96.3327L99.4414 97.4438L97.8899 96.1105L97.779 93.1105L96.4492 93.5549L97.3358 90.5549L95.4518 87.666Z" stroke="white" stroke-width="1.2"/>
<path d="M89.912 102.889L92.1285 105.778L91.5744 107.555L88.5822 110.222V111.666L85.7008 112.333L83.4843 115.778L80.3812 118.444L78.4973 117.444L76.6133 116.666L78.9406 112.778L83.041 110.333L86.6982 107.666L89.912 102.889Z" stroke="white" stroke-width="1.2"/>
<path d="M77.3891 117.777L78.7189 119.222L76.6133 120L77.3891 117.777Z" stroke="white" stroke-width="1.2"/>
<path d="M48.2456 98.7793C48.4672 98.7793 50.9053 100.779 50.9053 100.779L53.6759 99.7793L52.9001 102.89L50.9053 105.224L48.9105 106.335L48.1348 104.779V98.7793H48.2456Z" stroke="white" stroke-width="1.2"/>
<path d="M55.5567 40.666H54.4485L53.3403 45.2216L52.5645 50.6661L51.013 52.1105L48.7965 50.6661L44.5853 47.9994L44.0312 46.3327L46.2476 42.666L42.5905 42.2216L39.5982 41.1105V42.5549L36.9385 42.8882L34.3896 45.666V47.5549L32.6164 46.9994L30.5108 45.4438L27.1861 47.666L25.4129 49.8883L24.8588 51.555L23.4181 49.8883L22.0883 51.555V52.9994L20.5367 55.3327L11.2276 57.7772L8.67869 59.2216L7.57046 64.1106L8.12457 66.555L7.57046 67.3328L8.12457 71.7773L8.90031 77.6662C8.90031 77.6662 6.7947 80.9995 7.01635 81.1106C7.23799 81.2217 8.3462 82.9995 8.3462 82.9995L11.2276 83.7773L15.2172 81.6662H19.4285L21.3125 79.8884L23.3073 79.7773L23.9722 78.6662H26.632L29.0701 77.7773L33.7246 78.2217L36.2736 79.3328L37.9359 84.7773L41.9255 80.6662L39.8199 85.444L42.3688 84.7773L41.593 86.8884L43.1446 86.5551V90.3329L43.8095 92.2218L47.9099 94.8885L50.1264 93.1107L51.4563 95.6662L55.2243 93.1107L57.5515 93.2218L58.6598 91.6662L59.768 87.8884L65.4199 80.1106L68.523 71.6661L67.4148 65.3328L62.2061 56.1105L59.4355 53.555L58.3273 46.8883L56.6649 46.4438L55.5567 40.666Z" stroke="white" stroke-width="1.2"/>
<path d="M35.9395 40.666V41.8882L37.3801 42.3327L38.2667 41.1105L35.9395 40.666Z" stroke="white" stroke-width="1.2"/>
<path d="M38.8242 87.1139L40.9299 86.4473L41.7056 87.6695H39.3783L38.8242 87.1139Z" stroke="white" stroke-width="1.2"/>
<path d="M31.8411 36.8908L31.5087 36.002L28.6273 36.5575L27.4082 37.2242L28.9597 38.002L29.0705 37.8908L31.8411 36.8908Z" stroke="white" stroke-width="1.2"/>
</g>
<defs>
<clipPath id="clip0_3821_13391">
<rect width="120" height="120" fill="white"/>
</clipPath>
</defs>
</svg>
