<svg width="24" height="24" viewBox="0 0 24 24" fill="none" xmlns="http://www.w3.org/2000/svg">
<path d="M13.5999 8.79922H3.1999C2.98773 8.79922 2.78425 8.71493 2.63422 8.5649C2.48419 8.41487 2.3999 8.21139 2.3999 7.99922C2.3999 7.78705 2.48419 7.58356 2.63422 7.43353C2.78425 7.2835 2.98773 7.19922 3.1999 7.19922H13.5999C13.8121 7.19922 14.0156 7.2835 14.1656 7.43353C14.3156 7.58356 14.3999 7.78705 14.3999 7.99922C14.3999 8.21139 14.3156 8.41487 14.1656 8.5649C14.0156 8.71493 13.8121 8.79922 13.5999 8.79922ZM20.7999 8.79922H17.5999C17.3877 8.79922 17.1842 8.71493 17.0342 8.5649C16.8842 8.41487 16.7999 8.21139 16.7999 7.99922C16.7999 7.78705 16.8842 7.58356 17.0342 7.43353C17.1842 7.2835 17.3877 7.19922 17.5999 7.19922H20.7999C21.0121 7.19922 21.2156 7.2835 21.3656 7.43353C21.5156 7.58356 21.5999 7.78705 21.5999 7.99922C21.5999 8.21139 21.5156 8.41487 21.3656 8.5649C21.2156 8.71493 21.0121 8.79922 20.7999 8.79922Z" fill="#111224"/>
<path d="M15.5999 10.7992C15.0461 10.7992 14.5048 10.635 14.0443 10.3273C13.5838 10.0197 13.225 9.58237 13.013 9.07073C12.8011 8.5591 12.7457 7.99611 12.8537 7.45297C12.9617 6.90982 13.2284 6.41091 13.62 6.01932C14.0116 5.62773 14.5105 5.36106 15.0536 5.25302C15.5968 5.14498 16.1598 5.20043 16.6714 5.41236C17.183 5.62428 17.6203 5.98317 17.928 6.44362C18.2357 6.90408 18.3999 7.44543 18.3999 7.99922C18.3999 8.74183 18.1049 9.45402 17.5798 9.97912C17.0547 10.5042 16.3425 10.7992 15.5999 10.7992ZM15.5999 6.79922C15.3626 6.79922 15.1306 6.8696 14.9332 7.00146C14.7359 7.13331 14.5821 7.32073 14.4912 7.54C14.4004 7.75927 14.3767 8.00055 14.423 8.23333C14.4693 8.46611 14.5836 8.67992 14.7514 8.84775C14.9192 9.01557 15.133 9.12986 15.3658 9.17616C15.5986 9.22246 15.8399 9.1987 16.0591 9.10788C16.2784 9.01705 16.4658 8.86324 16.5977 8.6659C16.7295 8.46856 16.7999 8.23656 16.7999 7.99922C16.7999 7.68096 16.6735 7.37574 16.4484 7.15069C16.2234 6.92565 15.9182 6.79922 15.5999 6.79922ZM20.7999 16.7992H10.3999C10.1877 16.7992 9.98425 16.7149 9.83422 16.5649C9.68419 16.4149 9.5999 16.2114 9.5999 15.9992C9.5999 15.787 9.68419 15.5836 9.83422 15.4335C9.98425 15.2835 10.1877 15.1992 10.3999 15.1992H20.7999C21.0121 15.1992 21.2156 15.2835 21.3656 15.4335C21.5156 15.5836 21.5999 15.787 21.5999 15.9992C21.5999 16.2114 21.5156 16.4149 21.3656 16.5649C21.2156 16.7149 21.0121 16.7992 20.7999 16.7992ZM6.3999 16.7992H3.1999C2.98773 16.7992 2.78425 16.7149 2.63422 16.5649C2.48419 16.4149 2.3999 16.2114 2.3999 15.9992C2.3999 15.787 2.48419 15.5836 2.63422 15.4335C2.78425 15.2835 2.98773 15.1992 3.1999 15.1992H6.3999C6.61208 15.1992 6.81556 15.2835 6.96559 15.4335C7.11562 15.5836 7.1999 15.787 7.1999 15.9992C7.1999 16.2114 7.11562 16.4149 6.96559 16.5649C6.81556 16.7149 6.61208 16.7992 6.3999 16.7992Z" fill="#111224"/>
<path d="M8.4001 18.7992C7.84631 18.7992 7.30496 18.635 6.8445 18.3273C6.38404 18.0197 6.02516 17.5824 5.81324 17.0707C5.60131 16.5591 5.54586 15.9961 5.6539 15.453C5.76194 14.9098 6.02861 14.4109 6.4202 14.0193C6.81179 13.6277 7.3107 13.3611 7.85385 13.253C8.39699 13.145 8.95998 13.2004 9.47161 13.4124C9.98325 13.6243 10.4205 13.9832 10.7282 14.4436C11.0359 14.9041 11.2001 15.4454 11.2001 15.9992C11.2001 16.7418 10.9051 17.454 10.38 17.9791C9.8549 18.5042 9.1427 18.7992 8.4001 18.7992ZM8.4001 14.7992C8.16276 14.7992 7.93075 14.8696 7.73341 15.0015C7.53608 15.1333 7.38227 15.3207 7.29144 15.54C7.20062 15.7593 7.17685 16.0006 7.22316 16.2333C7.26946 16.4661 7.38375 16.6799 7.55157 16.8477C7.71939 17.0156 7.93321 17.1299 8.16599 17.1762C8.39877 17.2225 8.64005 17.1987 8.85932 17.1079C9.07859 17.017 9.26601 16.8632 9.39786 16.6659C9.52972 16.4686 9.6001 16.2366 9.6001 15.9992C9.6001 15.681 9.47367 15.3757 9.24863 15.1507C9.02358 14.9256 8.71836 14.7992 8.4001 14.7992Z" fill="#111224"/>
</svg>
