<svg width="120" height="120" viewBox="0 0 120 120" fill="none" xmlns="http://www.w3.org/2000/svg">
<g clip-path="url(#clip0_3821_13187)">
<path d="M12.1337 71.546L12.0622 71.5361L11.9919 71.5518L7.26954 72.6039L6.22581 72.8132L0.433844 63.9764L1.63618 59.6367L2.46052 59.4301L2.48888 59.423L2.51591 59.4118L6.90651 57.5992H12.9841L15.9658 60.0905L18.8179 65.2896L18.8355 65.3218L18.8587 65.3502L21.1772 68.1912L23.0075 73.4672L19.7971 72.6089L19.7731 72.6025L19.7486 72.5991L12.1337 71.546Z" stroke="white" stroke-width="0.8"/>
<path d="M18.3357 83.6063L23.4235 81.906L25.5564 86.4204L23.2881 91.4741L21.7078 93.5112L19.7454 92.1995L16.5017 85.4451L18.3357 83.6063Z" stroke="white" stroke-width="0.8"/>
<path d="M52.15 92.0562L52.1035 92.1651L52.1237 92.2818L53.1589 98.2494L52.5039 100.657L47.9121 99.2036L47.7926 99.1657L47.6728 99.2029L37.1379 102.472L36.8998 97.4598L36.8868 97.1862L36.6271 97.0994L32.9615 95.8744V94.1428L35.5517 88.4296L35.6003 88.3224L35.5831 88.2059L34.5868 81.4639L39.9589 80.2398H44.558L49.9967 82.5768L50.0723 82.6093H50.1546H53.5138L54.4617 86.6484L52.15 92.0562Z" stroke="white" stroke-width="0.8"/>
<path d="M16.8036 31.2589H16.4036V31.6589V38.8937H3.23348L5.604 33.4273L15.0284 18.7289L16.9989 16.2594L31.1082 16.0068V16.3894V16.6032L31.2859 16.722L31.8611 17.1064L31.1663 21.518H21.0049H20.6049V21.918V31.2589H16.8036Z" stroke="white" stroke-width="0.8"/>
<path d="M22.2864 59.5013L21.6566 59.0593V59.8287V62.7507L19.3111 64.0334L16.6213 59.6205L16.587 59.5641L16.5363 59.5217L13.3852 56.889L13.2739 56.796H13.1288H6.82677H6.74745L6.67413 56.8263L2.23725 58.658L1.84183 58.7571L5.11677 43.8552L5.16108 43.6536L5.02242 43.5006L2.55356 40.7778L2.91396 39.6938H16.805H17.205V39.2938V32.059H21.0063H21.4063V31.659V22.3181H31.5096H31.8515L31.9047 21.9803L32.593 17.6099L43.3597 25.1193L41.4161 25.4736L41.0618 25.5382L41.0889 25.8972L43.4522 57.2261L43.4615 57.3491L43.5384 57.4455L44.4533 58.5921L43.5625 61.2715H32.3863L28.5281 59.4664L28.3526 59.3842L28.1794 59.4711L24.7167 61.2069L22.2864 59.5013Z" stroke="white" stroke-width="0.8"/>
<path d="M7.43062 73.3808L7.43063 73.3809L7.43897 73.3791L12.1225 72.3355H12.8118L13.7244 76.224L10.0357 78.5354L10.0264 78.5261L6.70227 73.5269L7.43062 73.3808Z" stroke="white" stroke-width="0.8"/>
<path d="M29.7986 91.4241V91.8241H30.1986H32.5618H33.2283L32.2039 93.8782L32.1618 93.9625V94.0567V96.1628V96.4509L32.4351 96.5422L36.114 97.7717L36.3483 102.704L22.383 93.9526L23.95 91.9325L23.9776 91.8969L23.9966 91.8561L25.7271 88.1383H28.232L29.7986 89.2602V91.4241Z" stroke="white" stroke-width="0.8"/>
<path d="M14.5693 76.3197L13.6552 72.425L19.6105 73.3804L23.5295 74.4281L24.0329 74.5627V74.1958L25.8015 75.181L25.9733 75.2767L26.154 75.199L29.6965 73.6769L31.9187 74.3453L32.1617 77.7559L32.1754 77.9476L32.3337 78.0568L35.7576 80.4168L34.0576 80.7577L33.6849 80.8324L33.7405 81.2084L34.7746 88.207L33.6067 91.0174H32.5607H30.5974V89.048V88.8424L30.4303 88.7227L28.5923 87.4064L28.4878 87.3316H28.3594H26.0612L26.3677 86.5635L26.4322 86.4018L26.3578 86.2444L23.9945 81.2423L23.8428 80.9213L23.5061 81.0338L17.9918 82.8767L17.9022 82.9067L17.8354 82.9736L16.1276 84.6859L16.1133 84.6572L16.0844 84.5991L16.0386 84.5532L10.6159 79.1164L14.3923 76.75L14.6346 76.5982L14.5693 76.3197Z" stroke="white" stroke-width="0.8"/>
<path d="M99.9311 93.4153L99.7142 93.3283L99.5319 93.4746L95.5932 96.6338L95.5036 96.7056L95.4658 96.814L93.712 101.838L83.3972 102.847L75.917 94.83L75.7561 94.6576L75.5273 94.7149L74.9742 94.8536V85.2171L78.3234 80.051L78.4347 79.8794L78.3607 79.6887L76.5716 75.0762L78.2964 69.1472L85.7162 68.4033L88.4705 71.1648L88.6371 71.3318L88.8639 71.2668L92.4044 70.2526L97.2634 72.3039L97.4 72.3615L97.5412 72.3162L104 70.244L108.356 71.2716L108.511 71.3083L108.649 71.2276L111.56 69.5253L114.106 71.6139L114.6 76.3186L110.994 82.2585L110.994 82.2585L110.991 82.2636L105.741 91.2118L105.739 91.2148L103.553 94.8679L99.9311 93.4153Z" stroke="white" stroke-width="0.8"/>
<path d="M67.8841 71.4971L67.9889 71.9527L68.4228 71.7787L70.7521 70.8445L72.7265 73.7038L71.4599 74.762L66.8571 77.3258H63.0222H53.8318H53.5148L53.4424 77.6344L52.4645 81.8014H50.2379L44.7993 79.4645L44.7237 79.432H44.6414H44.5928L45.2849 75.4995L49.5933 68.3849H52.5189H52.6239L52.7154 68.3333L61.0266 63.6461H64.8443L63.9527 66.5512L63.8463 66.8979L64.1809 67.0377L67.1424 68.2748L67.8841 71.4971Z" stroke="white" stroke-width="0.8"/>
<path d="M54.218 82.1166L54.1455 81.808H53.8285H53.283L54.1455 78.1324H63.019H63.0491L64.9822 81.5242V87.7366V94.0551V94.1548L65.0291 94.2429L66.917 97.792L56.4363 101.795L53.2678 100.887L53.952 98.3723L53.9753 98.2865L53.9601 98.199L52.93 92.2605L55.2467 86.8408L55.2983 86.72L55.2683 86.5922L54.218 82.1166Z" stroke="white" stroke-width="0.8"/>
<path d="M75.7942 74.9198L75.7152 75.0781L75.7792 75.243L77.5433 79.7911L74.241 84.8849L74.1766 84.9842V85.1025V95.093L70.5963 96.4391L69.4727 93.7355L70.5094 85.6801L70.5181 85.613L70.5042 85.5468L69.4538 80.5447L69.4315 80.4386L69.3587 80.3583L67.2474 78.0297L71.8828 75.4477L71.9041 75.4359L71.9239 75.4215L74.6153 73.459L76.1412 74.2239L75.7942 74.9198Z" stroke="white" stroke-width="0.8"/>
<path d="M65.7829 81.4182V81.3122L65.7304 81.2201L63.9706 78.1324H66.256L68.6899 80.8167L69.7041 85.6465L68.6623 93.7407L68.6487 93.8466L68.6897 93.9453L69.8421 96.7184L67.6734 97.5091L65.7829 93.9553V87.7366V81.4182Z" stroke="white" stroke-width="0.8"/>
<path d="M69.4991 62.8556L65.8074 63.291L66.0282 62.8484H65.3817H60.9178H60.8128L60.7213 62.9L52.4101 67.5873H49.3641H49.1387L49.0219 67.7801L44.558 75.1516L44.5192 75.2157L44.5062 75.2894L43.7767 79.4343H39.9111H39.8617L39.8139 79.4463L36.8382 80.1922L32.9441 77.5079L32.6952 74.014L32.6756 73.7388L32.4114 73.6594L29.7855 72.8696L29.6462 72.8276L29.5124 72.8851L26.017 74.3871L23.953 73.2374L21.9042 67.8452L21.8812 67.7846L21.8402 67.7344L19.567 64.9488V64.8019L22.2473 63.3361L22.4554 63.2224V62.9852V60.5954L24.4515 61.9963L24.647 62.1335L24.8605 62.0264L28.3634 60.2704L32.1267 62.0312L32.2072 62.0689H32.2962H43.8499H44.1384L44.2294 61.795L45.2798 58.6358L45.3482 58.4298L45.2129 58.2602L44.2395 57.0402L41.9125 26.1934L44.2836 25.7612L76.445 48.0444L76.5682 48.1298L76.7171 48.1132L78.636 47.8994V53.216L77.6253 60.3095L69.4991 62.8556Z" stroke="white" stroke-width="0.8"/>
<path d="M118.302 47.6108L118.288 47.6632V47.7176V57.0254L111.32 63.7524L111.198 63.8703V64.0401V68.8128L108.383 70.4591L104.075 69.4427L103.967 69.4172L103.861 69.4512L97.4375 71.512L92.585 69.4635L92.455 69.4086L92.3193 69.4475L88.8699 70.4356L86.1481 67.7067L86.014 67.5722L85.825 67.5912L77.9475 68.381L77.6674 68.4091L77.5993 68.6822L76.4072 73.4629L74.753 72.6337L74.5562 72.535L74.3676 72.6485L73.3766 73.2447L71.2267 70.1313L71.0452 69.8684L70.7487 69.9873L68.5567 70.8664L67.8739 67.8994L67.8278 67.6993L67.6382 67.6201L64.8111 66.4391L65.4358 64.1425L69.6315 63.6476L69.6686 63.6432L69.7043 63.632L78.107 60.9994L78.3478 60.9239L78.3834 60.6741L79.4337 53.3026L79.4377 53.2745V53.2462V47.7986L84.3489 47.0601L84.445 47.0456L84.5238 46.9886L105.11 32.0963L112.276 34.1489L112.386 34.1804L112.496 34.1489L115.817 33.1976L117.244 37.0133L117.502 39.8556L117.511 39.9566L117.567 40.041L119.566 43.048L118.302 47.6108Z" stroke="white" stroke-width="0.8"/>
</g>
<defs>
<clipPath id="clip0_3821_13187">
<rect width="120" height="120" fill="white"/>
</clipPath>
</defs>
</svg>
