<svg width="178" height="178" viewBox="0 0 178 178" fill="none" xmlns="http://www.w3.org/2000/svg">
<rect x="1" y="1" width="176" height="176" rx="88" stroke="#00BFA5"/>
<path d="M62.6055 54.1664C62.5671 57.603 63.2097 61.0132 64.4963 64.1994C65.7829 67.3856 67.6879 70.2845 70.1009 72.7283C72.5139 75.1721 75.387 77.1123 78.5539 78.4364C81.7207 79.7605 85.1184 80.4423 88.5502 80.4423C91.982 80.4423 95.3797 79.7605 98.5466 78.4364C101.713 77.1123 104.587 75.1722 107 72.7283C109.413 70.2845 111.318 67.3856 112.604 64.1994C113.891 61.0132 114.533 57.6031 114.495 54.1664C114.495 44.7146 108.975 35.2517 100.654 30.9328C97.2707 29.2011 93.5576 28.2117 89.7624 28.0304C85.9671 27.8491 82.1769 28.4802 78.6444 29.8815C73.8828 31.9016 69.8217 35.2828 66.969 39.6022C64.1162 43.9216 62.5985 48.9876 62.6055 54.1664ZM87.4518 31.6721C88.5477 31.7804 89.5654 32.289 90.3107 33.101C90.9711 33.8311 91.3368 34.781 91.3368 35.766C91.3368 36.7511 90.9711 37.701 90.3107 38.431C90.1068 38.6509 89.8599 38.8263 89.5853 38.9462C89.3106 39.0661 89.0143 39.128 88.7147 39.128C88.4151 39.128 88.1188 39.0661 87.8441 38.9462C87.5695 38.8263 87.3226 38.6509 87.1187 38.431C86.9527 38.2521 86.7528 38.108 86.5307 38.0071C86.3086 37.9062 86.0687 37.8505 85.8249 37.8433C85.5812 37.836 85.3384 37.8774 85.1107 37.9649C84.883 38.0524 84.6749 38.1844 84.4986 38.3532C84.1408 38.6969 83.9323 39.1677 83.918 39.664C83.9037 40.1603 84.0847 40.6424 84.4221 41.0062C84.9663 41.6044 85.6292 42.0823 86.3683 42.4092C87.1075 42.7362 87.9066 42.9051 88.7147 42.9051C89.5227 42.9051 90.3218 42.7362 91.061 42.4092C91.8001 42.0823 92.463 41.6044 93.0072 41.0062C94.0439 39.8584 94.7175 38.4285 94.9429 36.8973C95.1683 35.3661 94.9353 33.8024 94.2735 32.4037C95.8148 32.8211 97.306 33.4058 98.7205 34.1474C99.4868 35.183 99.9602 36.8364 99.463 37.8692C99.4133 37.9809 99.3458 38.0836 99.2631 38.1735C99.2333 38.1488 99.2054 38.1219 99.1798 38.0929C99.0161 37.9119 98.8181 37.7653 98.5973 37.6616C98.3765 37.5579 98.1373 37.4993 97.8937 37.489C97.65 37.4788 97.4068 37.5172 97.1781 37.602C96.9494 37.6868 96.7398 37.8162 96.5615 37.9829C96.1994 38.3221 95.985 38.7904 95.9646 39.2866C95.9442 39.7828 96.1194 40.2672 96.4525 40.6351C96.8036 41.0433 97.2366 41.3728 97.7234 41.6023C98.2101 41.8317 98.7397 41.9559 99.2775 41.9667C99.4453 41.9667 99.6129 41.9545 99.7789 41.93C100.442 41.8077 101.064 41.5231 101.59 41.1016C102.116 40.6801 102.53 40.1348 102.795 39.5142C103.113 38.8448 103.304 38.122 103.359 37.3826C107.168 40.8308 109.664 45.4957 110.421 50.5812C111.178 55.6668 110.15 60.8581 107.512 65.2693C104.874 69.6805 100.79 73.0384 95.9555 74.77C91.1211 76.5017 85.8366 76.4999 81.0035 74.7649C76.1704 73.0299 72.0881 69.6692 69.4531 65.2561C66.8181 60.8431 65.7937 55.6512 66.5546 50.5661C67.3155 45.4811 69.8146 40.8179 73.6256 37.3723C77.4365 33.9267 82.3231 31.9121 87.4518 31.6721Z" fill="#00BFA5"/>
<path d="M76.5045 54.1664H78.3577C78.8513 54.1612 79.323 53.9612 79.6702 53.6097C80.0175 53.2583 80.2122 52.7839 80.2122 52.2895C80.2122 51.7951 80.0175 51.3207 79.6702 50.9693C79.323 50.6178 78.8513 50.4178 78.3577 50.4126H76.5045C76.0108 50.4178 75.5392 50.6178 75.1919 50.9693C74.8447 51.3207 74.6499 51.7951 74.6499 52.2895C74.6499 52.7839 74.8447 53.2583 75.1919 53.6097C75.5392 53.9612 76.0108 54.1612 76.5045 54.1664ZM98.7428 54.1664H100.596C101.09 54.1612 101.561 53.9612 101.909 53.6097C102.256 53.2583 102.451 52.7839 102.451 52.2895C102.451 51.7951 102.256 51.3207 101.909 50.9693C101.561 50.6178 101.09 50.4178 100.596 50.4126H98.7428C98.2492 50.4178 97.7775 50.6178 97.4303 50.9693C97.083 51.3207 96.8883 51.7951 96.8883 52.2895C96.8883 52.7839 97.083 53.2583 97.4303 53.6097C97.7775 53.9612 98.2492 54.1612 98.7428 54.1664ZM83.8462 67.4804C85.2818 68.2905 86.9017 68.7159 88.5495 68.7158C90.1972 68.7156 91.817 68.2898 93.2525 67.4795C93.668 67.2087 93.9604 66.785 94.0665 66.3001C94.1726 65.8151 94.0838 65.3078 93.8193 64.8878C93.69 64.6807 93.521 64.5013 93.3219 64.3602C93.1229 64.219 92.8978 64.1188 92.6598 64.0654C92.4218 64.0121 92.1755 64.0066 91.9354 64.0493C91.6952 64.0919 91.4659 64.182 91.2608 64.3141C90.4192 64.734 89.4918 64.9529 88.5514 64.9533C87.6111 64.9538 86.6835 64.7359 85.8414 64.3168C85.6364 64.1844 85.4071 64.0941 85.1669 64.0512C84.9267 64.0083 84.6804 64.0136 84.4423 64.0668C84.2042 64.12 83.979 64.2201 83.7798 64.3612C83.5806 64.5023 83.4114 64.6816 83.282 64.8887C83.0172 65.3083 82.928 65.8155 83.0335 66.3004C83.1391 66.7854 83.431 67.2093 83.8462 67.4804ZM128.6 115.57L125.791 113.235C124.511 112.171 123.024 111.386 121.424 110.931C119.824 110.476 118.147 110.36 116.501 110.592C114.836 110.837 113.241 111.428 111.818 112.328C110.395 113.227 109.176 114.414 108.238 115.813L100.195 128.933C99.4582 129.926 98.8731 131.024 98.4585 132.189C97.1159 132.429 95.8037 132.817 94.5455 133.344C93.6442 133.72 92.7141 134.022 91.7644 134.249C89.6089 134.634 87.4014 134.624 85.2497 134.218C83.9859 133.974 82.7401 133.645 81.5207 133.233C80.9279 133.049 80.3174 132.866 79.7003 132.692C79.2881 131.339 78.6471 130.068 77.8052 128.933L69.7134 115.738C68.7819 114.354 67.5711 113.181 66.1591 112.296C64.7472 111.41 63.1654 110.83 61.516 110.594C59.8665 110.358 58.186 110.471 56.5829 110.926C54.9798 111.381 53.4898 112.167 52.2089 113.235L49.3997 115.57C48.1084 116.651 47.053 117.987 46.2992 119.495C45.5454 121.002 45.1093 122.648 45.0181 124.332C44.9268 126.015 45.1823 127.699 45.7686 129.28C46.355 130.86 47.2597 132.302 48.4265 133.517L60.351 145.092C62.3389 146.96 64.9621 147.999 67.6878 148C70.5044 147.953 73.2338 147.013 75.4837 145.316L75.5281 145.28C76.8387 144.246 77.9251 142.956 78.721 141.488C79.5168 140.02 80.0054 138.404 80.1568 136.741C80.2503 136.769 80.3367 136.792 80.4312 136.821C81.0963 137.045 81.7684 137.246 82.4464 137.425C83.1744 137.616 83.9091 137.782 84.6493 137.922C87.2427 138.402 89.9017 138.404 92.4959 137.929C93.644 137.665 94.7681 137.306 95.8567 136.855C96.5279 136.598 97.1767 136.356 97.8117 136.167C97.882 137.933 98.3352 139.663 99.1399 141.237C99.9446 142.811 101.082 144.19 102.472 145.28L102.516 145.316C104.76 147.009 107.482 147.946 110.29 147.991C113.044 147.987 115.693 146.934 117.7 145.044L129.625 133.466C130.78 132.248 131.674 130.806 132.251 129.229C132.828 127.652 133.076 125.973 132.98 124.296C132.884 122.619 132.446 120.979 131.692 119.479C130.939 117.978 129.886 116.647 128.6 115.57ZM127.979 110.211C128.036 110.066 128.076 109.915 128.097 109.761C130.559 89.2294 116.986 77.8469 110.92 73.8443C110.098 74.8025 109.218 75.7081 108.283 76.5556C113.161 79.5248 126.201 89.3021 124.533 108.107C125.768 108.656 126.926 109.364 127.979 110.211ZM49.0038 109.761C49.0451 110.109 49.183 110.438 49.4019 110.712L49.8575 110.333C50.7066 109.628 51.6277 109.015 52.6055 108.504C50.7174 89.4365 63.909 79.5427 68.8177 76.5558C67.8828 75.7082 67.0021 74.8026 66.1808 73.8443C60.114 77.8469 46.5418 89.2294 49.0038 109.761Z" fill="#00BFA5"/>
<path d="M88.5506 114.23C89.0457 114.225 89.519 114.024 89.8664 113.671C90.2139 113.318 90.4073 112.841 90.4042 112.345V101.882C98.7267 100.635 105.233 91.0722 105.233 79.5028C105.233 79.4828 105.226 79.4649 105.225 79.4452C100.33 82.6187 94.6142 84.2876 88.7829 84.2461C82.9516 84.2045 77.26 82.4542 72.4103 79.2112C72.2419 79.1909 72.0779 79.1438 71.9244 79.0716C71.8913 79.2131 71.8725 79.3576 71.8682 79.5028C71.8682 91.0722 78.3652 100.635 86.697 101.882V112.345C86.6939 112.841 86.8873 113.318 87.2348 113.671C87.5823 114.024 88.0555 114.225 88.5506 114.23ZM88.5506 86.075C88.9217 86.0713 89.2856 86.1781 89.5959 86.3819C89.9063 86.5856 90.1493 86.8772 90.2939 87.2195C90.4385 87.5618 90.4782 87.9394 90.4081 88.3044C90.338 88.6694 90.1612 89.0053 89.9001 89.2694C89.639 89.5335 89.3054 89.714 88.9416 89.7879C88.5779 89.8618 88.2005 89.8257 87.8572 89.6844C87.514 89.543 87.2205 89.3027 87.0139 88.9939C86.8073 88.6851 86.697 88.3218 86.697 87.9501C86.6956 87.7051 86.7425 87.4622 86.8349 87.2353C86.9274 87.0084 87.0636 86.8019 87.2357 86.6278C87.4079 86.4537 87.6126 86.3152 87.8382 86.2204C88.0638 86.1255 88.3059 86.0761 88.5506 86.075ZM88.5506 91.7003C88.923 91.6956 89.2884 91.802 89.6003 92.006C89.9122 92.2099 90.1564 92.5021 90.302 92.8455C90.4475 93.1888 90.4878 93.5678 90.4177 93.9341C90.3475 94.3004 90.1701 94.6376 89.9081 94.9027C89.6461 95.1677 89.3112 95.3488 88.9461 95.4227C88.5811 95.4966 88.2023 95.4601 87.858 95.3178C87.5137 95.1755 87.2195 94.9338 87.0127 94.6236C86.806 94.3133 86.6961 93.9484 86.697 93.5754C86.6958 93.081 86.8901 92.6062 87.2375 92.2548C87.5848 91.9035 88.0569 91.7041 88.5506 91.7003Z" fill="#00BFA5"/>
</svg>
