<svg width="24" height="24" viewBox="0 0 24 24" fill="none" xmlns="http://www.w3.org/2000/svg">
    <path
        d="M5.53344 21.9996C5.49982 21.9279 5.42737 21.9409 5.37142 21.9261C4.5864 21.7175 4.07497 21.0858 4.01995 20.2516C3.97257 19.5341 4.00833 18.8217 4.1407 18.1146C4.31097 17.2062 4.83004 16.5594 5.56676 16.0732C5.99168 15.7927 6.47804 15.6712 6.94636 15.504C7.51006 15.303 8.07682 15.1111 8.65764 14.9102C8.66161 15.0878 8.63685 15.2108 8.49929 15.3276C7.68156 16.0217 7.38809 17.085 7.71549 18.1275C7.99092 17.8549 8.25351 17.5744 8.58152 17.3747C8.73895 17.2788 8.90342 17.204 9.07736 17.1418C9.214 17.0929 9.26322 17.1456 9.32619 17.2545C9.86697 18.1894 10.4771 19.0725 11.1897 19.8774C11.3725 20.0841 11.566 20.2794 11.7812 20.4519C11.8674 20.521 11.9225 20.5201 12.0077 20.451C12.4975 20.0519 12.8875 19.5574 13.2697 19.0558C13.7102 18.4777 14.1128 17.8719 14.4729 17.2371C14.527 17.1415 14.5722 17.1033 14.6933 17.1384C15.2129 17.2892 15.592 17.6476 15.9653 18.019C16.0001 18.0537 16.0209 18.107 16.0765 18.1177C16.3972 17.0872 16.112 16.0416 15.304 15.3393C15.1744 15.2266 15.1173 15.1099 15.1283 14.9423C15.179 14.9007 15.2224 14.9468 15.2652 14.9616C16.0521 15.2339 16.8466 15.485 17.6224 15.7873C18.729 16.2186 19.4587 17.0033 19.6681 18.2474C19.7846 18.9384 19.8201 19.631 19.7605 20.3273C19.6889 21.1657 19.0892 21.8122 18.2708 21.9595C18.2375 21.9655 18.1922 21.944 18.1785 21.9993H18.1027C18.0773 21.9746 18.0522 21.9746 18.0269 21.9993H15.6036C15.5449 21.9627 15.4804 21.98 15.4187 21.98C13.0682 21.9791 10.718 21.9791 8.36754 21.98C8.30579 21.98 8.24128 21.963 8.18259 21.9993H5.76057C5.7352 21.9746 5.71013 21.9746 5.68476 21.9993H5.53344V21.9996Z"
        fill="#9575CD" />
    <path
        d="M8.18359 22.0001C8.23954 21.9364 8.31351 21.9622 8.37954 21.9622C10.7224 21.961 13.0652 21.961 15.4084 21.9622C15.4744 21.9622 15.5487 21.9364 15.6043 22.0001H8.18359Z"
        fill="#9575CD" />
    <path d="M18.0273 22.0015C18.0527 21.9523 18.0778 21.9428 18.1032 22.0015H18.0273Z"
        fill="#EDE7F6" />
    <path
        d="M13.3334 13.7591C13.4426 14.0898 13.5211 14.4148 13.6553 14.7129C13.8277 15.0963 13.7904 15.4721 13.6975 15.8545C13.4432 16.9008 12.8871 17.7315 12.0208 18.3405C11.93 18.4042 11.8716 18.4165 11.7735 18.3471C10.7787 17.6406 10.1967 16.6717 10.0176 15.4415C9.9931 15.2727 9.99952 15.1111 10.0591 14.9445C10.1985 14.5564 10.3208 14.162 10.455 13.755C10.0677 13.6888 9.68741 13.6348 9.3114 13.5572C8.67617 13.4259 8.03971 13.2937 7.46868 12.9504C7.25469 12.8217 7.06455 12.6643 6.88327 12.491C6.81724 12.4279 6.8203 12.3831 6.86401 12.3112C6.96764 12.1408 7.05446 11.9588 7.1642 11.7928C7.35832 11.5 7.35679 11.1854 7.2929 10.8576C7.18591 10.3077 6.95939 9.79651 6.80929 9.26107C6.34464 7.60175 6.54334 6.02163 7.44575 4.56866C8.30139 3.19173 9.53272 2.35655 11.0997 2.07164C13.1763 1.69427 15.3418 2.84371 16.4105 4.67436C17.0513 5.77174 17.298 6.95746 17.1864 8.22364C17.1448 8.69598 17.036 9.1579 16.8709 9.60436C16.6893 10.0956 16.5188 10.5904 16.4616 11.1192C16.439 11.3296 16.4732 11.5186 16.5747 11.6985C16.6854 11.895 16.7899 12.0957 16.9091 12.2863C16.9681 12.3803 16.9645 12.4305 16.8835 12.5119C16.4741 12.9214 15.9801 13.1659 15.4406 13.325C14.8215 13.5073 14.19 13.625 13.5526 13.7134C13.4844 13.7228 13.4175 13.7411 13.3334 13.7588V13.7591Z"
        fill="#9575CD" />
</svg>
