<svg width="178" height="178" viewBox="0 0 178 178" fill="none" xmlns="http://www.w3.org/2000/svg">
<path d="M75.4276 102.096C74.5015 102.096 73.6132 102.464 72.9583 103.119C72.3035 103.773 71.9355 104.662 71.9355 105.588V119.556C71.9355 120.482 72.3035 121.37 72.9583 122.025C73.6132 122.68 74.5015 123.048 75.4276 123.048H103.364C104.29 123.048 105.178 122.68 105.833 122.025C106.488 121.37 106.856 120.482 106.856 119.556V105.588C106.856 104.662 106.488 103.773 105.833 103.119C105.178 102.464 104.29 102.096 103.364 102.096H75.4276Z" fill="#00BFA5"/>
<path d="M96.3811 74.1594H82.4128C80.5605 74.1594 78.7841 73.4236 77.4743 72.1138C76.1645 70.804 75.4287 69.0276 75.4287 67.1753V60.1912C75.4287 58.3389 76.1645 56.5624 77.4743 55.2526C78.7841 53.9429 80.5605 53.207 82.4128 53.207H96.3811C98.2334 53.207 100.01 53.9429 101.32 55.2526C102.629 56.5624 103.365 58.3389 103.365 60.1912V67.1753C103.365 69.0276 102.629 70.804 101.32 72.1138C100.01 73.4236 98.2334 74.1594 96.3811 74.1594Z" fill="#00BFA5"/>
<path d="M80.7334 40.2275L81.1772 35.2572C81.2082 34.9114 81.3532 34.591 81.5838 34.3586C81.8144 34.1261 82.1141 33.9983 82.4243 34H96.3739C96.6841 33.9983 96.9838 34.1261 97.2144 34.3586C97.4451 34.591 97.59 34.9114 97.621 35.2572L98.0594 40.2277M80.7334 40.2275C73.7838 41.8363 67.3594 45.3637 62.2341 50.4889C55.0303 57.6927 50.9833 67.4631 50.9833 77.6508V88.127M80.7334 40.2275C83.5518 39.575 86.4565 39.2381 89.396 39.2381C92.3358 39.2381 95.2408 39.5751 98.0594 40.2277M98.0594 40.2277C105.009 41.8366 111.433 45.3639 116.558 50.4889C123.762 57.6927 127.809 67.4631 127.809 77.6508V88.127M127.809 88.127V126.54C127.809 127.721 127.689 128.891 127.456 130.032M127.809 88.127H128.472C131.078 88.1139 133.596 89.0727 135.533 90.8161C137.47 92.5596 138.688 94.9625 138.948 97.5556L141.777 126.19C141.822 126.677 141.765 127.168 141.608 127.631C141.452 128.095 141.2 128.52 140.869 128.879C140.543 129.241 140.144 129.531 139.699 129.729C139.254 129.927 138.772 130.031 138.285 130.032H127.456M127.456 130.032C126.776 133.361 125.133 136.447 122.695 138.886C119.42 142.16 114.979 144 110.348 144H68.4436C63.8128 144 59.3717 142.16 56.0973 138.886C53.6585 136.447 52.0157 133.361 51.336 130.032M51.336 130.032H40.5071C40.0198 130.031 39.5381 129.927 39.0931 129.729C38.648 129.531 38.2495 129.241 37.923 128.879C37.5918 128.52 37.3399 128.095 37.1835 127.631C37.0271 127.168 36.9697 126.677 37.015 126.19L39.8785 97.5556C40.1391 94.9625 41.3569 92.5596 43.294 90.8161C45.2312 89.0727 47.7486 88.1139 50.3547 88.127H50.9833M51.336 130.032C51.1031 128.891 50.9833 127.721 50.9833 126.54V88.127" stroke="#00BFA5" stroke-width="3"/>
<rect x="1" y="1" width="176" height="176" rx="88" stroke="#00BFA5"/>
</svg>
