<svg width="24" height="24" viewBox="0 0 24 24" fill="none" xmlns="http://www.w3.org/2000/svg">
    <path
        d="M2.00157 20.9842C2.18168 20.4851 2.54712 20.2956 3.0624 20.3259C3.25922 20.3374 3.52599 20.4167 3.63876 20.2867C3.73691 20.1735 3.67113 19.9156 3.67113 19.7214C3.67217 18.2956 3.67113 16.8704 3.67217 15.4447C3.67217 14.8198 3.99533 14.5003 4.62337 14.5003C5.66489 14.5003 6.70641 14.4998 7.74793 14.5003C8.3295 14.5003 8.67093 14.8386 8.67146 15.4202C8.67302 16.9952 8.67459 18.5708 8.6678 20.1458C8.66728 20.304 8.71374 20.3462 8.86201 20.3327C8.99775 20.3201 9.13662 20.3175 9.27131 20.3327C9.45142 20.3536 9.50885 20.3055 9.50728 20.1092C9.49632 18.8532 9.50154 17.5966 9.50154 16.3406C9.50154 15.2014 9.50154 14.0623 9.50154 12.9232C9.50154 12.338 9.8367 12.0008 10.4183 12.0002C11.4729 11.9997 12.5274 11.9997 13.582 12.0002C14.1646 12.0002 14.5013 12.3375 14.5013 12.9211C14.5013 15.3231 14.504 17.725 14.4966 20.127C14.4966 20.3034 14.5431 20.3509 14.7097 20.3332C14.8511 20.3186 14.9973 20.317 15.1388 20.3332C15.3111 20.3536 15.3565 20.2831 15.3325 20.128C15.3246 20.0774 15.3314 20.0241 15.3314 19.9719C15.3314 16.5285 15.3314 13.085 15.3309 9.64161C15.3309 9.50431 15.3346 9.36753 15.3774 9.23649C15.4891 8.89298 15.7935 8.67268 16.1803 8.67111C17.2803 8.66746 18.3808 8.66641 19.4808 8.67111C20.0138 8.67372 20.3312 9.02402 20.3312 9.59514C20.3318 12.7003 20.3312 15.8049 20.3312 18.9101C20.3312 19.3267 20.337 19.7433 20.3281 20.1599C20.325 20.2972 20.3652 20.3395 20.5014 20.3327C20.7155 20.3217 20.9311 20.3254 21.1457 20.3306C21.6453 20.3436 22.0076 20.7065 22.0003 21.181C21.993 21.6462 21.626 21.9985 21.1347 21.9985C15.0485 21.9996 8.96172 21.9991 2.8755 21.9996C2.41452 21.9996 2.14774 21.7469 2 21.3355V20.9842H2.00157Z"
        fill="#DDAD00" />
    <path
        d="M17.9791 2C18.4964 2.17489 18.6875 2.54293 18.6776 3.07699C18.6593 4.08559 18.6745 5.09471 18.6713 6.10332C18.6698 6.60814 18.3409 6.97566 17.8809 6.99863C17.4058 7.02213 17.0122 6.65721 17.0039 6.17536C16.9976 5.80679 17.0028 5.43875 17.0028 5.0305C16.5424 5.49565 16.1059 5.92791 15.6501 6.34033C14.0166 7.81721 12.2526 9.10197 10.239 10.0187C8.70878 10.7156 7.11388 11.1406 5.42291 11.1677C4.78965 11.1782 4.35894 10.6483 4.54271 10.0761C4.64399 9.76132 4.93269 9.50865 5.26264 9.50604C7.61715 9.48881 9.67669 8.60394 11.613 7.35885C13.2137 6.32936 14.6326 5.08062 15.9472 3.70972C15.9148 3.63976 15.8548 3.67161 15.8099 3.67161C15.4063 3.669 15.0028 3.67056 14.5992 3.66952C14.1174 3.66847 13.7681 3.41528 13.6856 3.01017C13.5969 2.57426 13.8146 2.21874 14.286 2.02923C14.2954 2.02558 14.2996 2.00992 14.3064 2C15.5306 2 16.7543 2 17.9786 2H17.9791Z"
        fill="#DDAD00" />
</svg>
