<svg width="120" height="120" viewBox="0 0 120 120" fill="none" xmlns="http://www.w3.org/2000/svg">
<g clip-path="url(#clip0_3821_13284)">
<path d="M68.4766 52.9727V54.2508L69.3264 54.5348V53.3987L68.4766 52.9727Z" stroke="white"/>
<path d="M72.1603 47.8594L71.5938 50.8417L72.1603 51.1257L72.7269 47.8594H72.1603Z" stroke="white"/>
<path d="M75.8394 46.0137C75.6978 46.0137 74.7063 46.2977 74.7063 46.2977L73.998 47.4338L74.2813 49.28H74.7063L75.5561 47.7178L75.8394 46.0137Z" stroke="white"/>
<path d="M81.6468 42.3184L80.5137 42.8864L81.6468 43.1704L82.2134 42.7444L81.6468 42.3184Z" stroke="white"/>
<path d="M82.2134 43.5996H81.0803L80.5137 44.1677V44.8777V46.0138L81.0803 45.7298L81.3635 44.8777H82.2134V44.3097V43.5996Z" stroke="white"/>
<path d="M76.4084 37.6328L75.8418 38.4849L77.2582 39.337V38.0588L76.4084 37.6328Z" stroke="white"/>
<path d="M32.2161 32.2363L31.2246 32.5204L31.6495 33.6565L32.2161 35.3606H32.3578V33.2304L32.2161 32.2363Z" stroke="white"/>
<path d="M9.41021 20.0236L7.42719 17.6094L5.72743 18.8875C5.72743 18.8875 3.74441 21.0177 4.0277 21.1597C4.31099 21.3017 7.85211 21.1597 7.85211 21.1597L7.42719 22.5799H4.31098L4.73592 24H6.71897L7.85211 25.4201L6.15237 25.8462L6.71897 27.2663H9.41021L12.3848 28.4024L19.467 25.2781L21.0251 23.0059L20.3169 19.5976L18.0506 17.6094L13.9428 19.3135L10.9683 19.0295L10.8267 21.3017L9.12692 21.7278L9.41021 20.0236Z" stroke="white"/>
<path d="M66.6355 41.6077L65.3607 41.1816L64.0859 44.874L66.6355 44.1639V41.6077Z" stroke="white"/>
<path d="M41.5618 37.3477L40.5703 37.9157V38.7678L41.2785 39.1938L41.5618 38.3418V37.3477Z" stroke="white"/>
<path d="M37.8785 44.1641H35.0456L34.479 46.4363L33.7708 47.5724V48.7085L32.7793 49.7026L33.0626 50.9807L34.479 49.2766L33.9125 51.2648L33.7708 53.253H34.7623L35.3289 50.9807V52.8269L34.7623 54.6731H35.7538L37.5952 54.105C37.5952 54.105 37.0286 55.3832 37.0286 55.5252C37.0286 55.6672 37.3119 56.3773 37.3119 56.3773H38.4451L38.0202 58.7915L35.6122 58.5075L35.3289 60.3537L36.3204 60.6377L36.1788 61.7738L34.3374 62.6259L34.6207 63.62L36.0371 63.336L37.0286 63.904L38.0202 64.188L39.5783 63.0519L38.5867 64.7561H36.3204L35.4705 65.4662L33.3459 67.5964L34.3374 68.0224L36.1788 66.8863L37.3119 67.1703L38.4451 65.7502C38.4451 65.7502 40.1448 65.7502 40.2865 65.7502C40.4281 65.7502 44.6775 65.4662 44.6775 65.4662L46.5188 63.762L44.8191 63.336L46.6605 61.0637L46.0939 59.3596H43.5443L43.8276 58.3655L43.261 57.5134L42.1279 55.0991L41.5613 54.8151L40.2865 52.4009L38.7284 50.8387H36.887L38.4451 50.2707L38.3034 49.5606L39.8615 46.5783L38.3034 46.1523L36.3204 46.5783L36.4621 45.4422L37.8785 44.5901V44.1641Z" stroke="white"/>
<path d="M33.0632 44.875L31.6467 45.159V46.2951L30.7969 46.7212L31.0802 49.1354L31.2218 48.8514L31.5051 47.0052L32.355 46.0111L33.0632 44.875Z" stroke="white"/>
<path d="M32.7797 46.7207C32.7797 46.7207 31.7882 47.0047 31.9299 47.1467C32.2132 47.2888 32.7797 48.4249 32.7797 48.4249H33.2047V47.8568L32.7797 46.7207Z" stroke="white"/>
<path d="M35.8958 55.8125L34.9043 56.2385V57.3747L35.8958 56.5226V55.8125Z" stroke="white"/>
<path d="M30.2305 55.8119L30.7971 56.5219L31.5053 55.8119L32.6384 56.806L33.63 56.2379L33.205 53.9657L31.9302 53.6816H31.6469L30.2305 54.9598V55.8119Z" stroke="white"/>
<path d="M31.5049 55.8068L30.7967 56.5169L30.2301 55.8068V54.9547L31.6465 53.6766L29.9468 53.3926L28.8136 54.8127L29.6635 55.2388L28.8136 55.8068H26.1224V56.8009L26.9722 57.369L26.1224 58.079L27.6804 58.9311L26.1224 60.4933H28.1054L26.1224 61.2033L25.1309 61.3454L25.8391 63.0495L27.2555 63.7596L29.2386 62.6235L31.7882 61.9134L32.3547 61.7714L32.7797 59.7832L32.638 57.653L32.3547 56.9429L32.638 56.8009L31.5049 55.8068Z" stroke="white"/>
<path d="M30.7993 96.1422L30.3743 95.7162L30.9409 94.296L30.0911 92.7339L31.2242 92.4498L32.3574 87.7634L27.6831 87.1953L27.8247 87.4793L27.9664 90.7457L26.125 94.296L27.1165 95.7162V98.8405H30.3743L30.0911 97.7043L30.7993 96.1422Z" stroke="white"/>
<path d="M46.9465 94.2988L46.2383 94.5829L46.6632 95.4349L47.3714 94.8669L46.9465 94.2988Z" stroke="white"/>
<path d="M48.2207 93.3024L49.2122 93.8705L49.6372 92.8764L48.9289 92.7344L48.2207 93.3024Z" stroke="white"/>
<path d="M50.207 92.168H50.9153L51.3402 92.736H50.632L50.207 92.168Z" stroke="white"/>
<path d="M9.98047 117.016V117.584V118.294L10.5471 117.726L9.98047 117.016Z" stroke="white"/>
<path d="M11.2539 118.293L11.6788 119.145L13.0953 118.719V117.725L11.2539 118.293Z" stroke="white"/>
<path d="M14.3703 118.725H13.6621V119.719L14.6536 119.293L14.3703 118.725Z" stroke="white"/>
<path d="M16.2129 119.145H16.9211L17.6293 117.725H16.9211L16.2129 119.145Z" stroke="white"/>
<path d="M18.4788 116.733L17.9122 116.449L17.6289 117.301H18.4788V116.733Z" stroke="white"/>
<path d="M9.27148 119.999H9.97971L9.69642 119.289L9.27148 119.999Z" stroke="white"/>
<path d="M44.8219 85.9165L41.8473 85.2064L40.8558 84.2123L29.2409 83.0762L26.9746 84.6383L27.6828 87.1946L32.3571 87.7626L31.224 92.4491L30.0908 92.7331L30.9407 94.2953L30.3741 95.7154L30.799 96.1415L30.0908 97.7036L30.3741 98.8397H31.3656L33.3486 101.112L36.7481 99.4078H40.1476L42.6972 98.2717L43.972 94.7213L43.2638 93.0172L46.38 89.3248L48.9296 88.0467L49.2129 86.4845L46.8049 85.9165H44.8219Z" stroke="white"/>
<path d="M60.4058 84.7812L58.8477 86.2014L59.6975 88.8997H60.4058V84.7812Z" stroke="white"/>
<path d="M56.156 79.3847L55.4477 76.5444L53.8896 77.3965L54.3146 75.9764L55.731 74.4142L55.4477 73.5621H57.0058L57.5724 69.8697L54.5979 69.1597L51.34 67.8815L49.6403 66.6034L48.3655 64.6152L47.6573 65.1833L46.3825 67.5975L44.966 68.0236L43.9745 69.3017H42.2748L40.8583 68.4496L41 71.0059L39.3002 71.1479H34.7676L40.1501 75.4083L42.2748 78.6746L40.8583 84.2132L41.8498 85.2073L44.8244 85.9173H46.8074L49.2154 86.4854L49.357 84.7812L50.4902 83.3611L52.6148 83.7871L54.7395 84.7812L57.2891 82.935L55.4477 79.9527L56.156 79.3847Z" stroke="white"/>
<path d="M61.1087 52.9707L60.1172 53.3967L61.1087 54.5329L61.9586 53.9648L61.1087 52.9707Z" stroke="white"/>
<path d="M62.9505 51.9743L62.2423 52.6844L62.5256 53.5365L63.5171 53.6785V54.8146L62.5256 54.5306L61.959 54.8146L62.3839 55.2406H64.0837V53.6785L64.6502 53.2524V51.4062L63.2338 51.5483L63.6587 52.5424L62.9505 51.9743Z" stroke="white"/>
<path d="M59.2673 53.6785L60.9671 52.2584L61.392 46.0098L56.8594 49.7021L57.8509 54.1046C58.7008 54.3886 59.6923 54.5306 60.2588 54.6726L59.2673 53.6785Z" stroke="white"/>
<path d="M55.8728 60.496L55.5895 58.5078L51.1985 59.928L50.207 63.6203L53.6065 64.6144L54.0314 62.7682H55.0229L55.4479 62.0582L55.0229 60.922L55.8728 60.496Z" stroke="white"/>
<path d="M48.3633 64.6172L49.6381 66.6053L51.3378 67.8835L53.1792 68.5935L53.6041 66.8894V64.7592V64.6172L50.2047 63.623L48.3633 64.6172Z" stroke="white"/>
<path d="M53.1797 68.5954L54.5961 69.1634H54.7378L53.6046 67.0332L53.1797 68.5954Z" stroke="white"/>
<path d="M65.9276 69.0195L64.6528 66.8892L69.8937 64.901L68.4772 60.2146L68.7605 57.0903L65.786 56.0962L61.2534 56.3802L59.9785 54.8181C59.412 54.676 58.4205 54.392 57.5706 54.25L58.2788 57.8003L55.4459 58.6524L55.7292 60.4986L54.8793 61.0667L55.3043 62.0608L54.8793 62.7708H53.8878L53.4629 64.759V66.8892V67.0313L54.596 69.1615L57.4289 69.8715L56.7207 73.2799L57.4289 73.7059L58.7037 73.4219L60.8284 74.132L64.7945 73.4219L66.3526 73.8479L66.0693 72.9958L67.6274 70.7236L65.9276 69.0195Z" stroke="white"/>
<path d="M62.9518 40.19L64.085 39.1959L63.2351 36.6396L64.6516 34.3674L63.2351 33.2313L62.9518 27.1247L65.0765 26.5566L66.2097 20.024L67.4845 18.7458L68.9009 15.9056L68.476 14.6274L69.8924 12.2132L70.8839 12.4972L71.4505 10.509L74.1418 11.0771L75.8415 7.52674L78.3911 9.79897L82.6405 8.37883L83.0654 5.11251L85.0484 4.11841L87.0315 5.68056L88.023 7.81077L90.4309 5.39653L87.1731 4.26042L89.8644 2.9823L84.3402 0L75.6999 3.12431L68.476 9.65695L61.677 24.1424L57.286 29.3969L51.1953 33.0893L52.3285 44.0243L55.7279 45.7285L61.2521 41.1841L61.8187 42.7462H63.2351L62.9518 40.19Z" stroke="white"/>
<path d="M80.0886 13.9191L79.3804 11.5049L77.2557 10.5108L75.2727 8.80664L74.1395 11.0789L71.4483 10.5108L70.8817 12.499L69.8902 12.215L68.4737 14.6292L68.8987 15.9073L67.4822 18.7476L66.2074 20.0257L65.0742 26.5584L62.9496 27.1264L63.2329 33.233L64.6493 34.3692L63.2329 36.6414L64.0827 39.1976L62.9496 40.1917L63.2329 42.748H61.8164L65.9241 53.399L71.4483 49.9907L71.5899 43.7421L74.1395 42.1799L74.4228 38.7716L72.0148 36.6414L71.7315 31.5289L77.6806 25.7063L77.9639 21.1619L81.6467 20.7358L80.7968 17.4695L80.0886 13.9191Z" stroke="white"/>
<path d="M93.2623 28.1215L91.5626 22.5829V20.0267L89.2963 15.3402L90.2878 13.352L87.3133 9.2336L87.8798 7.52943L87.03 5.68325L85.0469 4.12109L83.0639 5.11519L82.639 8.38151L78.3896 9.80165L75.84 7.52943L75.2734 8.80755L77.2565 10.5117L79.3811 11.5058L80.0894 13.9201L80.7976 17.4704L81.6475 20.7367L83.2056 20.5947V23.009L77.6814 29.6836L78.5313 36.9263L82.7806 39.1986L90.2878 36.9263L94.5371 29.8256L93.2623 28.1215Z" stroke="white"/>
<path d="M84.3412 50.2743L81.3667 49.9902L79.8086 50.9843V51.2684L82.7831 53.6826V54.9607H82.4999L84.7662 57.0909L88.4489 55.2447L89.8654 51.9784L86.8908 50.4163L84.3412 50.2743Z" stroke="white"/>
<path d="M89.2989 47.0053L91.1402 46.4372L90.857 45.3011L90.1487 40.7567H90.0071L85.1912 40.4727L82.7832 41.8928L83.3498 44.165L84.7662 44.307V45.5852L87.3158 45.3011L89.2989 47.0053Z" stroke="white"/>
<path d="M91.8484 49.9892L91.1402 46.4389L89.2988 47.0069L87.3158 45.3027L84.7662 45.5868L84.9078 47.717L83.4914 47.859L81.9333 46.0128L79.8086 48.285V50.9833L81.3667 49.9892L84.3412 50.2732L86.8908 50.4152L89.8654 51.9774V51.8354L91.8484 49.9892Z" stroke="white"/>
<path d="M66.6348 97.4182L71.4507 100.685L72.4422 96.9922L66.6348 97.4182Z" stroke="white"/>
<path d="M61.2556 94.1527L58.8477 95.0048V89.8923L61.2556 89.3242V94.1527Z" stroke="white"/>
<path d="M70.0352 101.537L70.885 102.531L71.1683 101.821L70.0352 101.537Z" stroke="white"/>
<path d="M64.7939 74.9805L62.6692 75.2645L61.3944 76.9687H60.1196L59.6947 77.8207L58.4199 76.5426L57.57 77.9628H56.2952L55.8703 78.2468L56.1535 79.3829L55.4453 79.951L57.2867 82.9333L59.1281 81.5131L61.6777 82.0812L63.2358 84.9214L66.6352 88.3298L70.743 90.46L72.726 92.1642L73.4342 94.8624L72.8676 97.1346H73.8591L75.5589 93.8683L74.2841 92.5902L75.1339 90.886L77.4003 92.4482L77.8252 90.886L72.8676 88.3298L73.4342 87.4777L70.0347 86.1996L68.1934 83.3593L65.927 81.5131V78.8149L67.6268 78.5308L68.335 76.1166L64.7939 74.9805Z" stroke="white"/>
<path d="M72.1594 79.5289L73.1509 79.6709H75.5589L77.9668 80.239L78.6751 79.6709L77.9668 78.1088L76.9753 78.3928L74.709 77.5407L73.2926 76.9727L71.7345 77.8247L70.6013 78.9609L68.1934 79.2449L68.4766 80.523L70.318 79.6709L71.5928 82.5112L75.2756 84.9254L72.4427 80.665L72.1594 79.5289Z" stroke="white"/>
<path d="M73.293 75.5528L72.868 73.2806H74.0012V71.1504L70.4601 70.1562L69.4685 71.1504L67.7688 70.7243L66.3523 72.8545L66.6356 73.7066L65.0776 73.2806L61.1115 73.9906H60.9698L60.5449 74.9847L62.5279 75.4108L62.6696 75.2688L64.7943 74.9847L68.3354 76.1208L68.1937 76.4049L70.0351 76.5469L73.293 75.5528Z" stroke="white"/>
<path d="M87.5996 102.395V103.389L93.1238 104.099L93.5487 103.247L90.5742 102.395H87.5996Z" stroke="white"/>
<path d="M82.0753 95.4336L81.6504 96.9957H82.6419L82.0753 95.4336Z" stroke="white"/>
<path d="M82.6417 97.2793L82.2168 97.4213L82.3585 97.9894L82.6417 97.8473V97.2793Z" stroke="white"/>
<path d="M79.8086 92.7324L80.5168 93.8685L80.8001 93.5845L80.3752 92.7324H79.8086Z" stroke="white"/>
<path d="M87.457 94.2969L87.7403 95.575L88.8735 96.1431L89.2984 97.2792L90.1483 96.9951L89.2984 96.4271L89.1568 95.433L87.8819 95.0069V94.2969H87.457Z" stroke="white"/>
<path d="M91.8489 98.8398H90.8574V99.5499H91.8489V98.8398Z" stroke="white"/>
<path d="M95.5312 101.254L95.9562 101.822L97.0893 100.686L95.5312 101.254Z" stroke="white"/>
<path d="M94.962 101.824V102.818L94.5371 102.534L94.962 101.824Z" stroke="white"/>
<path d="M89.0156 100.259L89.4406 100.685L90.1488 100.259L89.5822 99.5488L89.0156 100.259Z" stroke="white"/>
<path d="M92.9844 97.7053L93.6926 97.9894L94.1175 97.7053L93.4093 97.2793L92.9844 97.7053Z" stroke="white"/>
<path d="M91.4238 94.2954L92.1321 94.8635L92.557 93.8694V94.8635H93.2652L92.9819 93.4434H92.2737L91.4238 94.2954Z" stroke="white"/>
<path d="M90.1484 91.8856V92.4536L90.8567 92.7377V91.6016L90.1484 91.8856Z" stroke="white"/>
<path d="M89.8652 97.7053L90.5735 98.2734L91.2817 97.9894L90.1485 97.2793L89.8652 97.7053Z" stroke="white"/>
<path d="M92.2729 87.4805V88.4746L90.8565 88.7586L88.0236 88.9006L83.6326 90.0367L82.2161 91.5989L81.2246 93.4451L81.7912 94.1551L83.4909 95.8593L83.2077 97.7055L85.049 99.8357L87.1737 100.262L86.6071 98.2735H87.7403L87.5986 97.1374H88.7318L86.1822 94.1551L86.8904 93.4451L85.6156 90.8888L87.3153 92.0249L88.5901 91.4569L87.457 90.1787L91.848 89.7527L92.1313 90.1787L93.2644 87.9065L92.2729 87.4805Z" stroke="white"/>
<path d="M60.969 73.9899L58.8443 73.4219L57.5695 73.7059L57.0029 73.4219V73.5639H55.4448L55.7281 74.416L54.3117 75.9781L53.8867 77.3983L55.4448 76.5462L55.8698 78.2504L56.2947 77.9663H57.5695L58.4194 76.5462L59.6942 77.8243L60.1191 76.9722H61.3939L62.5271 75.4101L60.544 74.984L60.969 73.9899Z" stroke="white"/>
<path d="M90.574 83.0783L86.183 82.7943L84.9082 81.6582V82.7943L85.6164 84.2144L84.9082 85.4926L85.1915 86.4867L86.4663 87.9068L86.6079 89.1849L88.0244 88.9009L90.8573 88.7589L92.2737 88.4749V87.4808L92.982 87.7648L95.2483 86.7707L94.6817 85.2086L96.2398 83.0783V82.3683L92.982 81.6582L90.574 83.0783Z" stroke="white"/>
<path d="M79.2419 83.3613H78.1087L78.392 84.2134L77.1172 86.2016L78.9586 87.6217L79.6668 86.0596L80.7999 85.7756V84.9235L79.2419 83.3613Z" stroke="white"/>
<path d="M78.3925 81.5175L78.6758 80.3814L78.2509 79.9553L77.9676 80.2394L75.5596 79.6713H73.1517L72.1602 79.5293L72.4434 80.6654L75.2763 84.9258L75.418 85.0678L77.1177 86.204L78.3925 84.2158L78.1092 83.3637H78.9591L79.2424 82.3696L78.3925 81.5175Z" stroke="white"/>
<path d="M81.6502 86.7695L80.8004 85.7754L79.6672 86.0594L78.959 87.6216L79.3839 87.9056V91.3139L81.2253 93.4441L82.2168 91.598L83.0667 90.6039L81.6502 88.8997V86.7695Z" stroke="white"/>
<path d="M70.0349 76.5441L68.1935 76.402L67.627 78.5323L67.9102 78.3902L68.1935 79.2423L70.6015 78.9583L71.7346 77.8222L73.2927 76.9701H73.4344L72.8678 75.834L70.0349 76.5441Z" stroke="white"/>
<path d="M81.6504 88.8994L83.0668 90.6036L83.6334 90.0355L86.608 89.1835L86.4663 87.9053L85.1915 86.4852L85.0499 86.2012L81.6504 87.7633V88.8994Z" stroke="white"/>
<path d="M83.3474 80.6622L82.3558 79.8102L80.0895 77.2539L77.9648 78.39L78.6731 79.6682L78.2482 79.9522L78.6731 80.3782L78.3898 81.5143L79.2397 82.3664L78.9564 83.3605H79.2397L80.7977 84.9227V85.7747L81.6476 86.7689V87.7629L85.0471 86.2008L84.9055 85.4907L85.6137 84.2126L84.9055 82.7925V81.6563L85.1887 81.9404L84.9055 80.6622H83.3474Z" stroke="white"/>
<path d="M78.9556 71.8604L79.6638 72.4284L80.797 71.2923L83.4882 71.0083V69.1621H80.3721L76.406 70.1562L73.998 71.1503V72.4284L76.6893 73.4225L78.9556 71.8604Z" stroke="white"/>
<path d="M83.4886 71.1479V71.0059L80.7973 71.2899L79.6642 72.426L78.956 71.8579L76.6896 73.4201L73.9984 72.426V73.2781H72.8652L73.2902 75.5503L72.8652 75.8343L73.4318 76.9704L74.7066 77.5385L76.9729 78.3906L77.9644 78.1066V78.3906L80.0891 77.2545L80.3724 77.5385L82.2138 76.5444L83.4886 73.4201L84.4801 72.426L83.4886 71.1479Z" stroke="white"/>
<path d="M75.7006 67.316L73.0094 66.748L69.8932 64.7598L64.6523 66.748L65.9271 69.0202L67.9102 70.5823L67.7685 70.7243L69.4683 71.1504L70.4598 70.1563L74.0009 71.1504L76.4089 70.1563L79.3834 69.4462L77.8253 68.5941L75.7006 67.316Z" stroke="white"/>
<path d="M85.049 62.6277L84.9074 61.3496L85.6156 59.9295L84.6241 57.0892L82.4994 54.959H73.4341L68.9015 56.9472L68.4766 60.0715L69.893 64.758L73.0092 66.7462L75.7005 67.3142L77.8251 68.5923L79.3832 69.4444L80.3747 69.1604H83.4909V69.5864L84.1992 69.4444L85.3323 67.0302L86.1822 65.326L85.049 62.6277Z" stroke="white"/>
<path d="M94.5395 75.5498L92.1315 71.8574L88.0238 73.4196L85.6159 71.9994L84.341 72.2835L84.4827 72.4255L83.4912 73.4196L82.2164 76.5439L80.375 77.538L82.358 79.8102L83.3495 80.6623H84.9076L85.1909 81.9404L86.1824 82.7925L90.5734 83.0765L92.9814 81.6564L96.2392 82.3665V80.2363L97.7973 79.8102L97.939 78.3901L94.9644 78.6741L94.5395 75.5498Z" stroke="white"/>
<path d="M115.217 71.8592L115.358 70.723L114.933 68.5928L115.642 68.1668L115.217 67.0307L110.967 66.0366L110.259 65.1845L107.568 65.8946L105.868 62.9123L104.735 63.1963L103.744 62.2022L103.46 60.498H100.627L100.202 61.3501L98.2194 61.6342L97.9361 62.9123H96.2363H92.9785L89.1541 62.0602L86.8877 62.6283L85.0464 62.3442V62.6283L86.1795 65.3265L85.3297 67.0307L84.1965 69.4449L83.4883 69.5869V71.1491L84.3381 72.2852L85.613 72.0012L88.0209 73.4213L91.4204 72.1432V70.723H92.9785L94.5366 71.5751L95.5281 71.8592L96.8029 73.9894L98.2194 75.8356L96.2363 75.9776L95.5281 78.2498H94.9615V78.6758L97.9361 78.3918V78.1078L100.627 75.1255L103.177 76.5456L104.735 77.1137L103.035 78.6758L104.877 79.2439L105.018 80.664L109.976 79.2439V77.8237L107.426 78.2498L105.585 76.6876L107.71 75.5515L110.542 74.5574L113.234 73.7053L113.517 72.2852L115.217 71.8592Z" stroke="white"/>
<path d="M96.2397 75.9752L98.2228 75.8332L96.8064 73.987L95.5315 71.8568L94.54 71.5728L92.9819 70.7207H91.4238V72.1408L92.1321 71.8568L94.54 75.5492L94.965 78.2474H95.5315L96.2397 75.9752Z" stroke="white"/>
</g>
<defs>
<clipPath id="clip0_3821_13284">
<rect width="120" height="120" fill="white"/>
</clipPath>
</defs>
</svg>
