<svg width="24" height="24" viewBox="0 0 24 24" fill="none" xmlns="http://www.w3.org/2000/svg">
    <path
        d="M6.72854 6.28401C6.73628 3.91563 8.65676 1.99049 11.002 2.00004C13.4014 2.01018 15.298 3.93233 15.2849 6.34128C15.2724 8.67328 13.3335 10.5763 10.9775 10.5692C8.63889 10.562 6.7208 8.62794 6.72854 6.28401Z"
        fill="#D76176" />
    <path
        d="M11.059 19.8554C9.59064 19.8554 8.15087 19.8589 6.7117 19.853C6.34179 19.8518 6.02071 19.5601 6.0219 19.1985C6.02667 18.0245 5.94923 16.8475 6.06003 15.6764C6.25779 13.5765 7.99719 11.7319 10.0714 11.3727C11.2061 11.1765 12.2843 11.3214 13.3089 11.8512C13.3327 11.8631 13.3554 11.8768 13.4066 11.9055C11.9674 12.6834 10.9959 13.8288 10.5342 15.3727C10.0714 16.9208 10.2679 18.4105 11.059 19.8548V19.8554Z"
        fill="#D76176" />
    <path
        d="M20.9337 16.2336C20.5591 14.0692 19.0121 12.4907 16.8616 12.0862C16.7389 12.0629 16.7056 12.0152 16.7103 11.8977C16.7187 11.6901 16.7175 11.4813 16.7109 11.2731C16.6984 10.874 16.3833 10.5685 15.9943 10.5703C15.6048 10.5727 15.298 10.8787 15.2873 11.2814C15.2819 11.4819 15.2783 11.6835 15.289 11.8834C15.2956 12.0098 15.2634 12.0623 15.1282 12.0868C12.456 12.5736 10.6671 15.0583 11.0579 17.7328C11.4153 20.1781 13.5318 22.0036 16.0628 22C16.3321 22.0066 16.6555 21.9642 16.9772 21.9058C19.5476 21.4363 21.3793 18.8096 20.9331 16.2336H20.9337ZM16.0331 20.5689C14.0548 20.5766 12.4393 18.9862 12.4339 17.0264C12.4286 15.0339 14.0131 13.4351 15.9991 13.4279C17.9607 13.4207 19.5595 15.0249 19.5643 17.0037C19.569 18.9492 17.9726 20.5611 16.0331 20.5689Z"
        fill="#D76176" />
    <path
        d="M15.2858 16.4542C15.2858 16.1046 15.2829 15.755 15.2864 15.406C15.2912 14.9854 15.5914 14.6728 15.9887 14.668C16.3944 14.6632 16.7071 14.98 16.7107 15.4102C16.7149 15.9011 16.7179 16.3915 16.7083 16.8825C16.7053 17.0275 16.7411 17.1092 16.8799 17.1718C17.1634 17.2989 17.4386 17.4439 17.7138 17.5882C18.1004 17.7911 18.2416 18.2027 18.0546 18.5648C17.8699 18.9216 17.4672 19.0492 17.0848 18.8631C16.6255 18.6394 16.1698 18.4091 15.7141 18.1788C15.4294 18.0351 15.284 17.8036 15.2858 17.4815C15.2876 17.1396 15.2858 16.7972 15.2858 16.4553V16.4542Z"
        fill="#D76176" />
</svg>
