<svg width="20" height="16" viewBox="0 0 20 16" fill="none" xmlns="http://www.w3.org/2000/svg">
<path d="M18.5132 0.886541L18.5131 0.886486L6.42123 12.9784L5.8909 13.5087L5.36057 12.9784L1.49207 9.10991L1.48667 9.10451L1.48139 9.09901C1.44224 9.05824 1.39535 9.02568 1.34346 9.00325C1.29157 8.98083 1.23573 8.96898 1.17922 8.96841C1.12269 8.96783 1.06662 8.97854 1.01429 8.99991C0.961959 9.02127 0.914417 9.05287 0.874448 9.09283C0.834479 9.1328 0.802886 9.18035 0.781521 9.23268C0.760156 9.28501 0.749447 9.34108 0.750022 9.3976C0.750597 9.45412 0.762444 9.50996 0.78487 9.56185C0.807296 9.61374 0.839849 9.66063 0.880623 9.69977L0.886127 9.70506L0.891523 9.71045L5.59051 14.4094C5.59055 14.4095 5.59059 14.4095 5.59062 14.4096C5.67029 14.4891 5.77829 14.5338 5.8909 14.5338C6.0035 14.5338 6.1115 14.4891 6.19117 14.4096C6.1912 14.4095 6.19124 14.4095 6.19128 14.4094L19.1137 1.48703L19.1212 1.47951L19.1213 1.47957C19.1827 1.41989 19.2246 1.34306 19.2416 1.25914C19.2585 1.17523 19.2498 1.08814 19.2164 1.00929C19.183 0.930445 19.1266 0.863521 19.0546 0.817287L19.4596 0.186055L19.0546 0.817285C18.9826 0.771091 18.8983 0.747703 18.8128 0.750178L18.5132 0.886541ZM18.5132 0.886541L18.5207 0.878793M18.5132 0.886541L18.5207 0.878793M18.5207 0.878793C18.5976 0.799652 18.7023 0.753531 18.8126 0.750185L18.5207 0.878793Z" stroke="#009688" stroke-width="1.5"/>
</svg>
