<svg width="24" height="24" viewBox="0 0 24 24" fill="none" xmlns="http://www.w3.org/2000/svg">
<path d="M17.25 3H6.75C5.7558 3.00119 4.80267 3.39666 4.09966 4.09966C3.39666 4.80267 3.00119 5.7558 3 6.75L3 17.25C3.00119 18.2442 3.39666 19.1973 4.09966 19.9003C4.80267 20.6033 5.7558 20.9988 6.75 21H17.25C18.2442 20.9988 19.1973 20.6033 19.9003 19.9003C20.6033 19.1973 20.9988 18.2442 21 17.25V6.75C20.9988 5.7558 20.6033 4.80267 19.9003 4.09966C19.1973 3.39666 18.2442 3.00119 17.25 3V3ZM6.75 4.5H17.25C17.8467 4.5 18.419 4.73705 18.841 5.15901C19.2629 5.58097 19.5 6.15326 19.5 6.75V17.25C19.4987 17.5841 19.4218 17.9136 19.275 18.2137L12.4028 11.3415C12.0545 10.9932 11.6411 10.7169 11.186 10.5283C10.731 10.3398 10.2433 10.2428 9.75075 10.2428C9.25821 10.2428 8.77049 10.3398 8.31546 10.5283C7.86042 10.7169 7.44698 10.9932 7.09875 11.3415L4.5 13.9395V6.75C4.5 6.15326 4.73705 5.58097 5.15901 5.15901C5.58097 4.73705 6.15326 4.5 6.75 4.5ZM6.75 19.5C6.15326 19.5 5.58097 19.2629 5.15901 18.841C4.73705 18.419 4.5 17.8467 4.5 17.25V16.0605L8.1585 12.402C8.36745 12.1929 8.61555 12.0271 8.88863 11.9139C9.16171 11.8007 9.4544 11.7425 9.75 11.7425C10.0456 11.7425 10.3383 11.8007 10.6114 11.9139C10.8844 12.0271 11.1325 12.1929 11.3415 12.402L18.2137 19.275C17.9136 19.4218 17.5841 19.4987 17.25 19.5H6.75Z" fill="#133880"/>
<path d="M15 10.875C15.5192 10.875 16.0267 10.721 16.4584 10.4326C16.8901 10.1442 17.2265 9.7342 17.4252 9.25455C17.6239 8.77489 17.6758 8.24709 17.5746 7.73789C17.4733 7.22869 17.2233 6.76096 16.8562 6.39385C16.489 6.02673 16.0213 5.77673 15.5121 5.67544C15.0029 5.57415 14.4751 5.62614 13.9955 5.82482C13.5158 6.0235 13.1058 6.35995 12.8174 6.79163C12.529 7.22331 12.375 7.73083 12.375 8.25C12.375 8.94619 12.6516 9.61387 13.1438 10.1062C13.6361 10.5984 14.3038 10.875 15 10.875ZM15 7.125C15.2225 7.125 15.44 7.19098 15.625 7.3146C15.81 7.43821 15.9542 7.61392 16.0394 7.81948C16.1245 8.02505 16.1468 8.25125 16.1034 8.46948C16.06 8.68771 15.9528 8.88816 15.7955 9.0455C15.6382 9.20283 15.4377 9.30998 15.2195 9.35338C15.0012 9.39679 14.775 9.37451 14.5695 9.28937C14.3639 9.20422 14.1882 9.06002 14.0646 8.87502C13.941 8.69001 13.875 8.47251 13.875 8.25C13.875 7.95163 13.9935 7.66548 14.2045 7.45451C14.4155 7.24353 14.7016 7.125 15 7.125Z" fill="#133880"/>
</svg>
