<svg width="24" height="24" viewBox="0 0 24 24" fill="none" xmlns="http://www.w3.org/2000/svg">
    <g clip-path="url(#clip0_945_17923)">
        <path
            d="M12 2.40039C11.868 2.40049 11.7381 2.43323 11.6219 2.4957L0.429688 8.09102V8.09258C0.300312 8.16014 0.191884 8.2618 0.116145 8.38657C0.0404055 8.51133 0.00024084 8.65444 0 8.80039C0.00024084 8.94634 0.0404055 9.08945 0.116145 9.21421C0.191884 9.33898 0.300312 9.44064 0.429688 9.5082V9.50977L11.6172 15.102C11.7345 15.1663 11.8662 15.2001 12 15.2004C12.132 15.2003 12.2619 15.1676 12.3781 15.1051L23.5625 9.51289C23.5651 9.51186 23.5677 9.51082 23.5703 9.50977V9.5082C23.6997 9.44064 23.8081 9.33898 23.8839 9.21421C23.9596 9.08945 23.9998 8.94634 24 8.80039C23.9998 8.65444 23.9596 8.51133 23.8839 8.38657C23.8081 8.2618 23.6997 8.16014 23.5703 8.09258V8.09102L12.3828 2.49883C12.2655 2.43451 12.1338 2.40067 12 2.40039ZM23.2 11.4832L21.6 12.2832V19.4223C21.1235 19.6993 20.8 20.2092 20.8 20.8004C20.8 21.6844 22.4 24.0004 22.4 24.0004C22.4 24.0004 24 21.6844 24 20.8004C24 20.2092 23.6765 19.6993 23.2 19.4223V11.4832ZM4.8 13.4816V16.8004C4.8 19.0092 8.0232 20.8004 12 20.8004C15.9768 20.8004 19.2 19.0092 19.2 16.8004V13.4816L13.0922 16.5363C13.025 16.5699 12.9579 16.5975 12.8891 16.6207C12.5995 16.7399 12.3016 16.8004 12 16.8004C11.6992 16.8004 11.4021 16.7399 11.1141 16.6207C11.0445 16.5975 10.9758 16.5692 10.9078 16.5348L4.8 13.4816Z"
            fill="#DDAD00" />
    </g>
    <defs>
        <clipPath id="clip0_945_17923">
            <rect width="24" height="24" fill="white" />
        </clipPath>
    </defs>
</svg>
