<svg width="96" height="96" viewBox="0 0 96 96" fill="none" xmlns="http://www.w3.org/2000/svg">
<path d="M72.2717 31.0135L76.1055 34.1686C77.6726 35.447 78.9388 37.0607 79.8126 38.8933C80.6864 40.7258 81.146 42.7314 81.1582 44.7651V67.2677C81.1582 70.9517 79.7082 74.4848 77.1273 77.0898C74.5464 79.6947 71.0459 81.1582 67.3959 81.1582H61.9107M72.2717 31.0135V20.5956C72.3039 20.2124 72.2569 19.8266 72.1336 19.4626C72.0104 19.0987 71.8137 18.7646 71.5559 18.4814C71.298 18.1982 70.9848 17.9721 70.6359 17.8174C70.287 17.6628 69.9101 17.5829 69.5291 17.5829C69.148 17.5829 68.7711 17.6628 68.4222 17.8174C68.0734 17.9721 67.7601 18.1982 67.5023 18.4814C67.2445 18.7646 67.0477 19.0987 66.9245 19.4626C66.8013 19.8266 66.7543 20.2124 66.7864 20.5956V26.4098M72.2717 31.0135L66.7864 26.4098M66.7864 26.4098L56.8579 18.2937C54.3999 16.2659 51.323 15.1582 48.1484 15.1582C44.9738 15.1582 41.8968 16.2659 39.4388 18.2937L20.1913 34.1686C18.6175 35.4574 17.3489 37.0848 16.4781 38.9318C15.6073 40.7789 15.1564 42.7989 15.1582 44.8444V67.2677C15.1582 70.9517 16.6082 74.4848 19.1891 77.0898C21.77 79.6947 25.2705 81.1582 28.9205 81.1582H34.3861M34.3861 81.1582V75.5028V56.2942C34.3861 52.6102 35.836 49.0771 38.417 46.4721C40.9979 43.8671 44.4984 42.4037 48.1484 42.4037C51.7984 42.4037 55.2988 43.8671 57.8798 46.4721C60.4607 49.0771 61.9107 52.6102 61.9107 56.2942V75.5028V81.1582M34.3861 81.1582H61.9107" stroke="white" stroke-width="1.5"/>
</svg>
