<svg width="18" height="16" viewBox="0 0 18 16" fill="none" xmlns="http://www.w3.org/2000/svg">
<path d="M9 15.7214C8.35251 15.7208 7.73176 15.4631 7.2742 15.005L1.89329 9.63224C1.03142 8.79134 0.429636 7.72026 0.159719 6.54677C-0.110198 5.37328 -0.0368537 4.14692 0.371004 3.01396C0.621632 2.23903 1.08224 1.54877 1.70164 1.01991C2.32103 0.491057 3.07495 0.144319 3.87959 0.0182383C4.87884 -0.0562394 5.87991 0.136778 6.77984 0.577444C7.67977 1.01811 8.44609 1.69052 9 2.52553C9.54569 1.68626 10.3082 1.01015 11.2067 0.568766C12.1052 0.127387 13.1063 -0.0628343 14.1041 0.0182383C14.9117 0.141522 15.6691 0.486997 16.2916 1.01604C16.914 1.54508 17.3771 2.23684 17.629 3.01396C18.0369 4.14692 18.1102 5.37328 17.8403 6.54677C17.5704 7.72026 16.9686 8.79134 16.1067 9.63224L10.7258 15.005C10.2682 15.4631 9.64748 15.7208 9 15.7214ZM4.47385 1.60565C4.34916 1.59729 4.22406 1.59729 4.09938 1.60565C3.58283 1.69761 3.10237 1.93244 2.71246 2.28351C2.32254 2.63457 2.03877 3.08784 1.89329 3.59194C1.59421 4.43082 1.54422 5.33832 1.74933 6.20497C1.95444 7.07163 2.40589 7.86044 3.04925 8.47628L8.42202 13.8572C8.4977 13.9335 8.58773 13.9941 8.68693 14.0354C8.78613 14.0767 8.89253 14.098 9 14.098C9.10746 14.098 9.21387 14.0767 9.31307 14.0354C9.41227 13.9941 9.5023 13.9335 9.57798 13.8572L14.9507 8.47628C15.5941 7.86044 16.0456 7.07163 16.2507 6.20497C16.4558 5.33832 16.4058 4.43082 16.1067 3.59194C15.9561 3.09021 15.6682 2.64059 15.2755 2.29391C14.8827 1.94722 14.4009 1.71728 13.8843 1.63007C13.1719 1.593 12.4624 1.74611 11.8287 2.07371C11.195 2.4013 10.6598 2.89158 10.2781 3.49426C10.1261 3.69339 9.93029 3.85477 9.70579 3.96586C9.4813 4.07695 9.2342 4.13474 8.98372 4.13474C8.73324 4.13474 8.48614 4.07695 8.26164 3.96586C8.03715 3.85477 7.84131 3.69339 7.68937 3.49426C7.33545 2.9527 6.861 2.50039 6.30316 2.17275C5.74531 1.8451 5.1192 1.651 4.47385 1.60565Z" fill="#212427"/>
</svg>
