<svg width="24" height="24" viewBox="0 0 24 24" fill="none" xmlns="http://www.w3.org/2000/svg">
    <path
        d="M19.2002 3.2002H4.8002C3.9162 3.2002 3.2002 3.9162 3.2002 4.8002V19.2002C3.2002 20.0842 3.9162 20.8002 4.8002 20.8002H19.2002C20.0842 20.8002 20.8002 20.0842 20.8002 19.2002V4.8002C20.8002 3.9162 20.0842 3.2002 19.2002 3.2002ZM15.7658 12.5658L11.3178 17.0138C11.1674 17.1642 10.9642 17.2482 10.7522 17.2482C10.5402 17.2482 10.3362 17.1642 10.1866 17.0138L8.2242 15.0514C7.9114 14.7386 7.9114 14.233 8.2242 13.9202C8.537 13.6074 9.0426 13.6074 9.3554 13.9202L10.7522 15.317L14.6346 11.4346C14.9474 11.1218 15.453 11.1218 15.7658 11.4346C16.0786 11.7474 16.0786 12.253 15.7658 12.5658ZM19.2002 8.0002H4.8002V4.8002H19.2002V8.0002Z"
        fill="#FF6082" />
</svg>
