<svg width="16" height="16" viewBox="0 0 16 16" fill="none" xmlns="http://www.w3.org/2000/svg">
    <path
        d="M8 0C3.5816 0 0 3.5816 0 8C0 12.4184 3.5816 16 8 16C12.4184 16 16 12.4184 16 8C16 3.5816 12.4184 0 8 0ZM8 12C7.5584 12 7.2 11.6416 7.2 11.2V8C7.2 7.5584 7.5584 7.2 8 7.2C8.4416 7.2 8.8 7.5584 8.8 8V11.2C8.8 11.6416 8.4416 12 8 12ZM8.4 5.6H7.6C7.3792 5.6 7.2 5.4208 7.2 5.2V4.4C7.2 4.1792 7.3792 4 7.6 4H8.4C8.6208 4 8.8 4.1792 8.8 4.4V5.2C8.8 5.4208 8.6208 5.6 8.4 5.6Z"
        fill="#00549A" />
</svg>
