<svg width="24" height="24" viewBox="0 0 24 24" fill="none" xmlns="http://www.w3.org/2000/svg">
<path d="M6.42207 13.2213C5.0846 14.719 5.16903 16.9775 6.61061 18.2648C8.05219 19.5522 10.3058 19.3815 11.6433 17.8838L13.581 15.7139L12.5367 14.7814L10.5991 16.9513C9.79638 17.8501 8.4446 17.9525 7.57944 17.1799C6.71428 16.4073 6.66364 15.0526 7.46632 14.1538L9.40398 11.9839L8.35973 11.0514L6.42207 13.2213ZM10.2974 8.88155L11.3416 9.81405L13.2793 7.64419C14.082 6.74533 15.4338 6.64297 16.2989 7.41555C17.1641 8.18812 17.2147 9.54282 16.412 10.4417L14.4744 12.6115L15.5186 13.544L17.4563 11.3742C18.7937 9.87644 18.7093 7.61793 17.2677 6.33062C15.8262 5.0433 13.5725 5.21395 12.2351 6.71169L10.2974 8.88155ZM8.99498 14.5438L10.0392 15.4763L14.8834 10.0517L13.8391 9.11916L8.99498 14.5438Z" fill="#00549A"/>
</svg>
