<svg width="17" height="16" viewBox="0 0 17 16" fill="none" xmlns="http://www.w3.org/2000/svg">
<g clip-path="url(#clip0_64_17238)">
<path d="M14.5 8.5H12.5C12.2348 8.5 11.9804 8.60536 11.7929 8.79289C11.6054 8.98043 11.5 9.23478 11.5 9.5V12C11.5 12.2652 11.6054 12.5196 11.7929 12.7071C11.9804 12.8946 12.2348 13 12.5 13H13.5C13.7652 13 14.0196 12.8946 14.2071 12.7071C14.3946 12.5196 14.5 12.2652 14.5 12V8.5ZM14.5 8.5C14.5 7.71207 14.3448 6.93185 14.0433 6.2039C13.7417 5.47595 13.2998 4.81451 12.7426 4.25736C12.1855 3.70021 11.5241 3.25825 10.7961 2.95672C10.0681 2.65519 9.28793 2.5 8.5 2.5C7.71207 2.5 6.93185 2.65519 6.2039 2.95672C5.47595 3.25825 4.81451 3.70021 4.25736 4.25736C3.70021 4.81451 3.25825 5.47595 2.95672 6.2039C2.65519 6.93185 2.5 7.71207 2.5 8.5M2.5 8.5V12C2.5 12.2652 2.60536 12.5196 2.79289 12.7071C2.98043 12.8946 3.23478 13 3.5 13H4.5C4.76522 13 5.01957 12.8946 5.20711 12.7071C5.39464 12.5196 5.5 12.2652 5.5 12V9.5C5.5 9.23478 5.39464 8.98043 5.20711 8.79289C5.01957 8.60536 4.76522 8.5 4.5 8.5H2.5Z" stroke="#00549A" stroke-linecap="round" stroke-linejoin="round"/>
</g>
<defs>
<clipPath id="clip0_64_17238">
<rect width="16" height="16" fill="white" transform="translate(0.5)"/>
</clipPath>
</defs>
</svg>
