<svg width="166" height="166" viewBox="0 0 166 166" fill="none" xmlns="http://www.w3.org/2000/svg">
<circle cx="82.5" cy="84.8259" r="62.5" fill="#D3D3D3"/>
<circle cx="82.5" cy="84.8259" r="62.5" fill="#C1C1C1"/>
<path d="M130 44.2532L137 53.3259L141.5 63.8259L144.5 74.8259L145 85.3259L144 96.8259L141 107.826L136 117.326L130 126.326L121.229 133.363V44.2533L130 44.2532Z" fill="#83D3FF"/>
<path d="M42 133.363L81.6146 124.09V34.9812L42 44.2533V133.363Z" fill="#83D3FF"/>
<path d="M121.229 133.363L81.6147 124.09V34.9812L121.229 44.2533V133.363Z" fill="#57BBFF"/>
<path d="M86.1884 40.8409C85.6956 44.9736 83.5899 53.2715 75.118 63.6726C73.7781 65.3166 72.2796 67.0142 70.6035 68.7553C68.3553 71.0903 64.6337 71.1065 62.3845 68.7715C45.3503 51.0872 46.6641 37.9798 46.6641 37.9798C46.6641 26.9453 55.5385 18 66.4854 18C77.4324 18 86.3068 26.9453 86.3068 37.9798C86.3068 37.9798 86.4082 38.9945 86.1884 40.8409Z" fill="#ED1C24"/>
<path d="M77.56 37.9799C77.56 44.1451 72.6019 49.1428 66.4856 49.1428C66.334 49.1428 66.1825 49.1398 66.0309 49.1337C60.1254 48.8939 55.4102 43.9923 55.4102 37.9799C55.4102 31.9674 60.3683 26.8169 66.4846 26.8169C72.6009 26.8169 77.3161 31.5738 77.55 37.5307C77.556 37.6794 77.559 37.8301 77.559 37.9799H77.56Z" fill="white"/>
<path d="M145 83.3259V88.3259L122.257 111.517C121.981 111.796 121.616 111.961 121.229 111.988C121.194 111.991 121.158 111.992 121.122 111.992C120.696 111.992 120.287 111.821 119.986 111.517L81.8035 73.0297L73.7491 81.1485C73.1218 81.7808 72.1051 81.7808 71.4778 81.1485C70.8505 80.5162 70.8505 79.4914 71.4778 78.8601L80.6683 69.5961C81.2956 68.9638 82.3123 68.9638 82.9386 69.5961L121.122 108.084L121.229 107.975L145 83.3259Z" fill="white"/>
<path d="M66.4853 90.1607C68.6721 90.1607 70.4448 88.3738 70.4448 86.1696C70.4448 83.9653 68.6721 82.1785 66.4853 82.1785C64.2986 82.1785 62.5259 83.9653 62.5259 86.1696C62.5259 88.3738 64.2986 90.1607 66.4853 90.1607Z" fill="white"/>
</svg>
