<svg width="400" height="207" viewBox="0 0 400 207" fill="none" xmlns="http://www.w3.org/2000/svg">
<path d="M206.839 164.513C206.912 164.513 207.017 164.538 207.101 164.662C207.184 164.785 207.231 164.923 207.268 165.05C207.344 165.304 207.402 165.438 207.645 165.438C207.79 165.438 207.968 165.456 208.153 165.467C208.338 165.485 208.531 165.5 208.694 165.5C208.948 165.5 209.014 165.456 209.028 165.431C209.083 165.344 209.195 165.275 209.326 165.195C209.525 165.072 209.75 164.93 209.75 164.73V157.264C209.75 157.083 209.997 157.064 210.28 157.05C210.625 157.028 210.887 156.999 210.887 156.832V152.887H210.948C210.948 152.887 211.779 152.818 212.008 152.752C212.07 152.734 212.179 152.687 212.309 152.636C212.607 152.513 212.974 152.357 213.191 152.357C213.257 152.357 213.304 152.371 213.337 152.397C213.413 152.447 213.496 152.538 213.576 152.629C213.656 152.72 213.779 152.858 213.834 152.858C213.838 152.858 213.841 152.858 213.852 152.85C213.921 152.76 214.295 152.32 214.709 152.32C214.865 152.32 215.112 152.259 215.355 152.201H215.369C215.329 152.113 215.308 152.041 215.308 151.983C215.308 151.983 215.257 151.939 214.974 151.939C214.357 151.939 213.242 152.142 213.021 152.215C212.789 152.291 212.193 152.404 211.718 152.404C211.489 152.404 211.322 152.378 211.213 152.328C211.162 152.302 210.995 152.259 210.447 152.259C209.721 152.259 208.77 152.331 208.76 152.335H208.73L208.331 151.936H204.455C204.077 151.936 203.765 151.888 203.402 151.642C203.093 151.435 202.792 151.417 202.389 151.591C202.317 151.62 202.251 151.638 202.201 151.638C202.07 151.638 202.023 151.547 201.99 151.478C201.957 151.406 201.936 151.369 201.856 151.369C201.62 151.369 201.525 151.609 201.522 151.609L201.507 151.638L201.166 151.729C201.162 152.037 201.42 152.611 201.794 153.115C202.19 153.649 202.658 154.629 202.908 155.442C203.039 155.867 203.297 156.32 203.544 156.76C203.761 157.141 203.968 157.507 204.059 157.805C204.157 158.132 204.121 158.538 204.084 158.89C204.055 159.217 204.023 159.522 204.106 159.703C204.299 160.124 204.422 160.85 204.516 161.493C204.534 161.609 204.549 161.75 204.567 161.907C204.651 162.629 204.77 163.718 205.268 164.201C205.493 164.418 205.732 164.727 205.965 165.09H205.983C206.139 165.108 206.277 165.112 206.317 165.086C206.324 165.083 206.338 165.072 206.338 165.035C206.335 164.843 206.574 164.516 206.832 164.516L206.839 164.513ZM209.888 160.556C210.193 160.672 210.368 160.792 210.418 160.93L210.433 160.956C210.643 161.471 210.858 162.044 210.789 162.248C210.745 162.378 210.665 162.404 210.607 162.426C210.563 162.44 210.556 162.444 210.556 162.498C210.556 162.545 210.549 162.596 210.542 162.647C210.527 162.745 210.516 162.847 210.556 162.894C210.578 162.919 210.625 162.934 210.691 162.934C210.789 162.934 210.905 162.952 211.024 162.966C211.159 162.985 211.289 163.006 211.417 163.006C211.587 163.006 211.703 162.966 211.772 162.89C211.845 162.807 211.961 162.701 212.095 162.574C212.382 162.309 212.774 161.943 212.792 161.758C212.836 161.387 212.995 160.988 213.326 160.988C213.427 160.988 213.544 161.028 213.667 161.108L213.805 161.199C214.24 161.482 214.317 161.533 214.97 161.533C215.703 161.533 215.856 161.5 215.975 161.083C216.015 160.948 216.03 160.825 216.044 160.712C216.077 160.436 216.11 160.197 216.476 160.197C216.894 160.197 217.38 159.816 217.38 159.562C217.38 159.228 217.605 158.727 217.917 158.727C218.168 158.727 218.698 158.4 218.756 158.11C218.803 157.874 219.017 157.827 219.195 157.79C219.311 157.769 219.42 157.743 219.475 157.678C219.558 157.58 219.714 157.348 219.845 157.162C219.845 157.028 219.816 156.738 219.112 156.76C218.919 156.76 218.709 156.651 218.531 156.466C218.353 156.284 218.251 156.074 218.251 155.899C218.251 155.736 218.121 155.576 218.005 155.431C217.896 155.297 217.798 155.173 217.798 155.05C217.798 154.901 217.22 154.538 216.705 154.317C216.44 154.204 216.324 153.736 216.226 153.358C216.186 153.202 216.132 152.988 216.092 152.959C215.932 152.959 215.591 152.593 215.427 152.328L215.377 152.342C215.126 152.404 214.868 152.466 214.698 152.466C214.342 152.466 213.983 152.897 213.946 152.945C213.907 152.995 213.859 153.006 213.827 153.006C213.711 153.006 213.598 152.883 213.471 152.734C213.398 152.651 213.322 152.567 213.257 152.524C213.25 152.52 213.231 152.509 213.184 152.509C212.992 152.509 212.625 152.665 212.353 152.774C212.219 152.828 212.106 152.876 212.037 152.897C211.834 152.959 211.217 153.01 211.014 153.028V156.85C211.014 157.155 210.603 157.184 210.277 157.202C210.135 157.21 209.874 157.228 209.874 157.286V160.564H209.888V160.556ZM206.052 165.235C206.393 165.794 206.683 166.422 206.839 166.945C206.988 167.449 207.271 167.936 207.515 168.364C207.696 168.683 207.856 168.959 207.928 169.181L207.961 169.289C208.084 169.681 208.197 170.015 208.081 170.201C208.037 170.27 207.968 170.313 207.87 170.324C207.772 170.335 207.711 170.371 207.685 170.433C207.645 170.52 207.656 170.712 207.936 171.148C208.135 171.453 208.142 171.703 208.15 171.867C208.153 172.037 208.168 172.07 208.262 172.092C208.451 172.132 208.513 172.215 208.564 172.28C208.607 172.335 208.629 172.368 208.72 172.371C208.992 172.389 209.184 172.636 209.355 172.861L209.373 172.883C209.438 172.966 209.544 173.017 209.66 173.017C209.798 173.017 209.921 172.952 210.001 172.836C210.179 172.582 210.647 172.458 211.395 172.458C211.703 172.458 211.794 172.389 211.925 172.291C212.026 172.215 212.153 172.121 212.415 172.041C213.003 171.87 213.718 171.859 214.197 172.026C214.553 172.15 214.897 172.11 215.224 171.896C215.326 171.83 215.489 171.848 215.638 171.881C215.703 171.896 215.761 171.91 215.816 171.91C215.87 171.91 215.907 171.903 215.917 171.794C215.95 171.413 216.364 171.413 216.589 171.413H216.919C217.322 171.413 218.349 170.76 219.199 169.957C220.048 169.162 221.431 167.431 221.885 166.676C222.324 165.939 223.017 165.311 223.431 164.937L223.525 164.85C223.732 164.662 223.914 164.023 224.03 163.104C223.663 163.108 223.279 163.166 223.271 163.17L223.202 163.184V163.133C223.159 163.181 223.13 163.235 223.126 163.297C223.097 163.623 222.745 163.623 222.611 163.623C222.549 163.623 222.491 163.62 222.426 163.616C222.015 163.591 221.663 162.651 221.663 162.498C221.663 162.309 222.19 161.616 222.502 161.616C222.669 161.616 222.879 161.754 223.075 161.881C223.075 161.848 223.075 161.812 223.079 161.79C223.141 161.435 223.235 159.932 223.01 159.798C222.799 159.674 222.622 159.003 222.429 158.201C222.367 157.946 222.313 157.711 222.284 157.663C222.244 157.609 221.914 157.587 221.711 157.573C221.289 157.544 221.032 157.518 220.952 157.391C220.908 157.322 220.618 157.322 220.422 157.322C220.211 157.322 220.034 157.322 219.939 157.271C219.819 157.453 219.674 157.66 219.594 157.754C219.507 157.856 219.369 157.885 219.239 157.914C219.05 157.954 218.934 157.983 218.908 158.128C218.836 158.495 218.24 158.85 217.939 158.85C217.721 158.85 217.54 159.282 217.54 159.551C217.54 159.896 216.966 160.32 216.502 160.32C216.266 160.32 216.24 160.422 216.204 160.72C216.19 160.836 216.175 160.966 216.132 161.112C215.983 161.638 215.721 161.663 214.995 161.663C214.269 161.663 214.208 161.602 213.758 161.308L213.62 161.217C213.522 161.152 213.431 161.119 213.355 161.119C213.035 161.119 212.963 161.7 212.956 161.769C212.93 162.005 212.553 162.357 212.215 162.672C212.081 162.796 211.968 162.901 211.899 162.977C211.805 163.09 211.652 163.141 211.442 163.141C211.308 163.141 211.166 163.119 211.028 163.101C210.912 163.083 210.799 163.068 210.709 163.068C210.6 163.068 210.524 163.043 210.473 162.981C210.389 162.89 210.411 162.752 210.426 162.629C210.429 162.582 210.44 162.534 210.44 162.495C210.44 162.346 210.527 162.313 210.582 162.295C210.625 162.28 210.654 162.27 210.676 162.204C210.73 162.034 210.436 161.289 210.32 161.006L210.306 160.981C210.284 160.926 210.204 160.821 209.903 160.701V164.738C209.903 165.01 209.631 165.181 209.413 165.315C209.3 165.384 209.195 165.453 209.155 165.515C209.093 165.605 208.956 165.645 208.709 165.645C208.542 165.645 208.346 165.627 208.157 165.613C207.975 165.594 207.801 165.583 207.663 165.583C207.308 165.583 207.231 165.337 207.155 165.101C207.115 164.981 207.079 164.854 207.006 164.749C206.963 164.683 206.912 164.654 206.858 164.654C206.687 164.654 206.495 164.908 206.495 165.043C206.495 165.177 206.404 165.25 206.219 165.25C206.157 165.25 206.11 165.246 206.055 165.242L206.052 165.235ZM218.328 167.518L218.716 167.573C218.76 167.471 218.861 167.221 218.966 167.014C219.039 166.868 219.217 166.868 219.275 166.868C219.333 166.868 219.395 166.872 219.456 166.883C219.507 166.887 219.554 166.89 219.602 166.89C219.696 166.89 219.696 166.868 219.696 166.847C219.696 166.691 219.805 166.545 219.91 166.404C220.001 166.28 220.099 166.153 220.099 166.041C220.099 165.917 219.899 165.743 219.729 165.591C219.573 165.456 219.431 165.329 219.366 165.199C219.351 165.17 219.315 165.155 219.257 165.155C218.981 165.155 218.44 165.482 218.346 165.667C218.23 165.903 217.812 166.484 217.7 166.643L218.324 167.518H218.328ZM210.455 152.117C210.901 152.117 211.17 152.142 211.282 152.201C211.344 152.23 211.467 152.266 211.725 152.266C212.168 152.266 212.756 152.157 212.985 152.084C213.035 152.066 213.119 152.044 213.199 152.03L211.954 150.331V150.309L212.07 146.476L213.787 146.538L214.037 146.284L214.269 144.106C214.197 144.081 214.132 144.084 214.063 144.113C213.827 144.211 213.613 144.226 213.435 144.226C213.369 144.226 213.304 144.226 213.242 144.222C213.173 144.222 213.108 144.219 213.035 144.219C212.872 144.219 212.789 144.306 212.705 144.389C212.629 144.466 212.538 144.549 212.418 144.52C212.193 144.466 212.259 144.063 212.349 143.62L212.368 143.536C212.407 143.337 212.11 142.916 211.838 142.698C211.674 142.567 211.75 142.211 211.885 141.681C211.936 141.467 212.019 141.141 211.983 141.083C211.794 140.894 211.765 140.407 211.765 140.132C211.765 139.99 211.725 139.99 211.671 139.99C211.623 139.99 211.562 139.997 211.493 140.012C211.38 140.03 211.246 140.052 211.079 140.052C210.654 140.052 210.516 139.874 210.476 139.79C210.4 139.772 210.193 139.736 209.99 139.736C209.845 139.736 209.732 139.758 209.649 139.798C209.518 139.863 209.46 140.146 209.413 140.375C209.362 140.622 209.322 140.814 209.184 140.814H209.155C209.133 140.807 209.093 140.796 209.032 140.796C208.774 140.796 208.306 140.883 207.888 141.006C207.34 141.17 207.115 140.894 206.85 140.266C206.741 140.005 206.625 139.903 206.534 139.827C206.411 139.718 206.335 139.642 206.397 139.369C206.48 139.014 206.284 138.611 206.219 138.495C205.979 138.491 204.672 138.473 203.703 138.473C202.919 138.473 202.676 138.487 202.607 138.495C202.534 138.502 202.375 138.567 202.034 138.803C202.226 139.493 202.749 140.571 202.948 140.985L203.01 141.108C203.101 141.3 203.039 141.478 202.966 141.685C202.901 141.863 202.832 142.059 202.832 142.328C202.832 142.611 202.992 143.025 203.162 143.464C203.329 143.888 203.504 144.331 203.533 144.698C203.598 145.377 203.21 145.819 202.832 146.251C202.792 146.299 202.749 146.342 202.712 146.389C202.299 146.872 201.907 147.907 201.907 148.52C201.907 148.919 201.696 149.304 201.525 149.613C201.417 149.812 201.315 150.001 201.318 150.103C201.337 150.397 201.246 151.21 201.177 151.583L201.406 151.522C201.449 151.438 201.583 151.228 201.848 151.228C202.012 151.228 202.066 151.34 202.103 151.409C202.139 151.478 202.15 151.496 202.193 151.496C202.226 151.496 202.269 151.482 202.331 151.456C202.774 151.268 203.122 151.289 203.471 151.522C203.812 151.75 204.092 151.794 204.451 151.794H208.382L208.778 152.19C208.956 152.182 209.794 152.121 210.451 152.121L210.455 152.117ZM215.994 152.084C216.015 152.084 216.037 152.084 216.055 152.088C216.142 152.095 216.284 152.135 216.451 152.182C216.73 152.259 217.083 152.353 217.308 152.353C217.391 152.353 217.438 152.338 217.456 152.328C217.551 152.28 217.707 152.066 217.856 151.856C218.092 151.522 218.364 151.137 218.64 151.05C219.086 150.912 219.631 150.451 219.631 150.309C219.631 150.052 219.681 149.841 220.313 149.674L221.282 149.642L221.054 148.828L221.108 148.807C221.387 148.705 223.678 147.848 224.171 147.692C224.15 147.649 224.128 147.605 224.106 147.573C224.008 147.387 223.965 147.3 223.99 147.239C223.997 147.213 224.015 147.195 224.037 147.184C224.106 147.115 224.171 146.436 224.171 146.142C224.171 145.965 224.386 145.95 224.542 145.932C224.582 145.928 224.636 145.925 224.672 145.914L224.658 145.899C224.4 145.642 224.469 144.273 224.585 143.972C224.632 143.848 224.72 143.79 224.843 143.79C224.868 143.79 224.89 143.79 224.916 143.794C224.945 143.798 224.977 143.794 224.985 143.794V143.765C224.985 143.558 224.658 142.828 224.476 142.585C224.367 142.44 223.362 142.03 223.068 141.976C222.934 141.95 222.77 141.867 222.6 141.783C222.397 141.681 222.182 141.573 222.037 141.573C221.986 141.573 221.834 141.573 221.224 141.126C221.021 141.289 220.596 141.311 220.197 141.311H219.856C219.805 141.311 219.769 141.319 219.747 141.34C219.703 141.384 219.714 141.489 219.718 141.594C219.725 141.754 219.736 141.939 219.598 142.052C219.453 142.168 219.351 142.331 219.366 142.444C219.369 142.487 219.391 142.52 219.435 142.542C219.602 142.629 219.558 142.956 219.478 143.446C219.449 143.609 219.424 143.769 219.424 143.859C219.424 144.005 219.34 144.208 219.268 144.411C219.206 144.56 219.112 144.814 219.144 144.858C219.21 144.901 219.275 145.014 219.362 145.162C219.496 145.387 219.678 145.696 219.874 145.75C220.059 145.801 220.23 145.7 220.375 145.605C220.462 145.551 220.534 145.496 220.611 145.496C220.814 145.496 220.828 145.841 220.828 146.364C220.828 146.741 220.611 146.912 220.6 146.919L220.582 146.926C220.582 146.926 220.324 147.021 220.073 147.021C219.917 147.021 219.798 146.988 219.711 146.919C219.435 146.701 219.231 146.128 219.231 145.914C219.231 145.874 219.155 145.779 218.444 145.779C218.164 145.779 217.91 145.344 217.779 145.086C217.761 145.054 217.747 145.046 217.729 145.046C217.638 145.046 217.504 145.184 217.504 145.253C217.504 145.471 217.217 145.471 216.937 145.471C216.814 145.471 216.651 145.395 216.476 145.308C216.32 145.231 216.161 145.152 216.059 145.152C216.037 145.152 216.026 145.155 216.012 145.159C215.914 145.21 215.801 145.173 215.711 145.057C215.594 144.912 215.529 144.676 215.569 144.531C215.573 144.527 215.554 144.513 215.5 144.513C215.344 144.513 215.083 144.596 214.963 144.654C214.93 144.672 214.897 144.68 214.865 144.68C214.665 144.68 214.582 144.397 214.567 144.36C214.567 144.36 214.498 144.248 214.389 144.168L214.157 146.331L213.83 146.658L212.186 146.603L212.073 150.277L213.326 151.99C213.743 151.907 214.491 151.79 214.966 151.79C215.184 151.79 215.435 151.812 215.435 151.968C215.435 152.012 215.456 152.077 215.496 152.153C215.707 152.11 215.87 152.081 215.986 152.081L215.994 152.084ZM233.525 132.564L234.026 133.355C234.346 132.952 234.937 132.349 235.562 131.714C235.877 131.395 236.197 131.068 236.484 130.767C237.431 129.772 237.925 129.522 238.451 129.26L238.476 129.246C239.01 128.981 240.364 127.645 241.264 126.502C241.83 125.779 242.473 124.963 242.556 124.44C242.643 123.874 243.213 123.137 243.587 122.651C244.001 122.117 244.64 120.821 244.629 120.451C244.622 120.248 244.698 119.943 244.789 119.594C244.883 119.239 244.988 118.832 245.014 118.466C245.028 118.262 244.988 118.095 244.894 117.997C244.839 117.943 244.77 117.907 244.691 117.907C244.571 117.907 244.458 117.983 244.404 118.113C244.186 118.593 242.574 118.828 241.801 118.839C240.937 118.858 240.371 118.926 240.037 119.239C239.896 119.373 239.685 119.387 239.518 119.387C239.431 119.387 239.348 119.384 239.257 119.38C239.17 119.377 239.086 119.373 239.003 119.373C238.778 119.373 238.647 119.413 238.567 119.507C238.382 119.725 237.939 119.888 237.54 119.888C237.093 119.888 236.752 119.696 236.585 119.337C236.462 119.079 236.299 118.89 236.077 118.749C235.681 119.162 235.449 119.533 235.489 119.616C235.602 119.87 235.994 120.527 236.161 120.614C236.259 120.665 236.375 120.796 236.495 120.934C236.632 121.09 236.789 121.264 236.894 121.286C237.13 121.337 238.4 121.772 239.188 122.092C240.044 122.44 240.553 122.44 240.72 122.44C240.796 122.44 241.191 122.447 241.253 122.618C241.271 122.662 241.268 122.734 241.162 122.81C240.937 122.988 238.466 125.485 238.161 125.812C237.885 126.106 237.692 126.092 237.293 126.074C237.173 126.07 237.032 126.059 236.858 126.059C236.415 126.059 236.041 126.375 235.765 126.6C235.598 126.741 235.485 126.836 235.387 126.836H235.369C235.268 126.821 234.897 126.883 234.502 126.97L233.975 127.74L233.467 128.531L233.536 132.549L233.525 132.564ZM222.876 127.213C223.01 127.213 223.155 127.308 223.286 127.391C223.369 127.442 223.453 127.5 223.496 127.5H223.5C223.602 127.344 224.008 127.17 224.259 127.17C224.324 127.17 224.375 127.177 224.418 127.199C224.505 127.242 224.651 127.271 224.785 127.271C224.934 127.271 225.021 127.231 225.024 127.202C225.043 127.086 225.166 126.992 225.304 126.894C225.348 126.861 225.395 126.828 225.435 126.796C225.482 126.756 225.547 126.698 225.554 126.647C225.616 126.407 226.248 126.044 226.509 125.994C226.897 125.917 227.133 125.95 227.253 126.092C227.293 126.135 227.355 126.179 227.431 126.208C227.453 126.066 227.475 125.943 227.496 125.83C227.536 125.623 227.569 125.427 227.536 125.384C227.533 125.38 227.522 125.377 227.511 125.377C227.191 125.377 226.611 125.061 226.397 124.495C226.284 124.193 226.041 123.954 225.819 123.736C225.638 123.554 225.485 123.402 225.417 123.235C225.355 123.079 225.119 123.021 224.897 122.959C224.669 122.897 224.451 122.839 224.371 122.683C224.277 122.495 224.368 122.397 224.444 122.306C224.509 122.233 224.574 122.164 224.574 122.023C224.574 121.747 224.948 121.747 225.068 121.747C225.152 121.747 225.231 121.75 225.308 121.754C225.398 121.758 225.485 121.761 225.507 121.758C225.554 121.645 225.627 120.999 225.627 120.553C225.627 120.338 225.758 120.132 225.867 119.95C225.99 119.747 226.066 119.62 225.997 119.551C225.936 119.489 225.914 119.431 225.925 119.373C225.943 119.26 226.066 119.195 226.226 119.119C226.317 119.075 226.415 119.025 226.498 118.959C226.614 118.872 226.632 118.676 226.647 118.469C226.665 118.24 226.687 118.001 226.839 117.845C226.952 117.736 227.05 117.58 227.144 117.427C227.293 117.191 227.424 116.985 227.587 116.985C227.765 116.985 228.008 116.73 228.008 116.491C228.008 116.36 228.092 116.204 228.186 116.012C228.32 115.747 228.469 115.446 228.433 115.17C228.418 115.083 228.404 114.992 228.386 114.905C228.302 114.458 228.208 113.95 228.516 113.58C228.861 113.166 228.985 112.839 228.919 112.516C228.865 112.233 229.101 112.106 229.311 111.99C229.406 111.939 229.504 111.888 229.569 111.823C229.613 111.779 229.685 111.732 229.772 111.674C229.997 111.525 230.335 111.297 230.614 110.868C230.368 110.574 230.121 110.342 229.965 110.273C229.533 110.074 229.253 109.358 229.253 108.44C229.253 107.805 229.141 107.26 229.064 106.905C229.035 106.767 229.014 106.654 229.003 106.578C228.974 106.32 228.56 105.736 228.052 105.456C227.729 105.279 227.514 105.021 227.42 104.705C227.202 105.01 227.162 105.068 226.985 105.068H226.814C226.72 105.068 226.672 105.177 226.611 105.355C226.527 105.583 226.426 105.87 226.077 105.87C225.823 105.87 225.772 106.001 225.707 106.146C225.66 106.262 225.598 106.407 225.406 106.407C225.097 106.407 224.847 106.153 224.774 106.074H223.308L223.286 106.052C223.213 105.979 222.956 105.779 222.836 105.859C222.632 105.994 222.436 106.124 222.436 106.124L222.418 106.139H215.562V108.52H214.513V112.15C214.534 112.498 214.56 113.319 214.328 113.398L214.255 113.42C214.019 113.493 213.395 113.696 213.395 113.961C213.395 114.291 213.34 114.64 212.923 114.727C212.821 114.749 212.807 114.865 212.789 115.057C212.77 115.271 212.749 115.565 212.418 115.565C212.328 115.565 212.309 115.587 212.309 115.587C212.288 115.616 212.342 115.732 212.378 115.805C212.455 115.976 212.564 116.215 212.397 116.382C212.266 116.513 212.215 116.662 212.259 116.774C212.291 116.85 212.371 116.894 212.487 116.894C212.582 116.894 212.654 116.919 212.705 116.977C212.807 117.09 212.796 117.286 212.778 117.515C212.77 117.605 212.763 117.703 212.763 117.798C212.763 118.172 213.279 118.433 213.282 118.433L213.333 118.458L213.188 118.966C213.333 119.137 213.95 119.877 214.015 120.077C214.03 120.117 214.059 120.172 214.088 120.237C214.186 120.436 214.32 120.701 214.251 120.916C214.222 121.01 214.153 121.083 214.048 121.133C213.928 121.195 213.859 121.257 213.856 121.319C213.852 121.366 213.888 121.409 213.907 121.431L214.415 121.504L214.553 121.848C214.698 121.856 215.155 121.917 215.464 122.288C215.562 122.404 215.645 122.495 215.714 122.571C215.885 122.76 215.972 122.854 215.972 123.032C215.972 123.126 216.059 123.188 216.248 123.315C216.357 123.387 216.495 123.478 216.647 123.609C217.09 123.976 217.09 124.208 217.09 124.426C217.09 124.524 217.467 124.76 217.816 124.927L217.841 124.941L218.103 125.594C218.211 125.656 218.338 125.743 218.404 125.914C218.534 126.24 218.865 126.44 218.865 126.444C218.868 126.447 219.043 126.56 219.22 126.56C219.322 126.56 219.409 126.527 219.478 126.458C219.565 126.371 219.663 126.328 219.772 126.328C219.939 126.328 220.088 126.429 220.161 126.487C220.244 126.433 220.415 126.328 220.578 126.328C220.643 126.328 220.701 126.346 220.756 126.378C220.901 126.473 221.514 126.977 222.041 127.46C222.179 127.409 222.636 127.246 222.854 127.224C222.858 127.224 222.868 127.224 222.879 127.224L222.876 127.213ZM227.547 126.255C227.569 126.262 227.591 126.273 227.613 126.28C227.711 126.32 227.805 126.353 227.877 126.397C227.932 126.426 228.095 126.436 228.251 126.444C228.545 126.462 228.876 126.476 229.043 126.629C229.3 126.861 230.081 127.366 230.302 127.366C230.549 127.366 231.471 127.489 231.645 127.602H231.652C231.692 127.605 231.783 127.504 231.856 127.417C231.975 127.279 232.128 127.112 232.328 126.995C232.636 126.825 232.97 126.709 233.166 126.709C233.322 126.709 233.377 126.774 233.402 126.825C233.467 126.981 233.718 127.09 233.863 127.017C233.961 126.966 234.233 126.901 234.444 126.854C234.799 126.77 235.253 126.694 235.387 126.712C235.435 126.712 235.569 126.603 235.681 126.509C235.957 126.28 236.371 125.932 236.861 125.932C237.039 125.932 237.181 125.939 237.304 125.946C237.667 125.968 237.83 125.986 238.066 125.729C238.418 125.351 240.858 122.89 241.086 122.709C241.126 122.68 241.13 122.662 241.13 122.662C241.112 122.632 240.945 122.578 240.727 122.578C240.556 122.578 240.026 122.578 239.144 122.222C238.36 121.903 237.101 121.475 236.872 121.424C236.723 121.391 236.556 121.206 236.4 121.028C236.291 120.908 236.182 120.778 236.103 120.741C235.87 120.625 235.46 119.888 235.366 119.678C235.34 119.623 235.333 119.515 235.511 119.239C235.387 119.126 235.293 119.057 235.213 119.057C235.181 119.057 235.144 119.072 235.101 119.097C234.97 119.184 234.799 119.235 234.651 119.235C234.513 119.235 234.411 119.191 234.371 119.104C234.288 118.937 234.146 118.386 234.418 118.077C234.618 117.848 234.868 117.449 234.948 117.319C233.932 116.237 232.785 115.086 232.622 115.046C232.52 115.032 232.324 115.046 232.132 115.054C231.994 115.061 231.852 115.072 231.736 115.072C231.613 115.072 231.529 115.064 231.482 115.043C231.435 115.021 231.398 114.999 231.369 114.981C231.329 114.959 231.318 114.948 231.286 114.948C231.239 114.948 231.162 114.977 231.039 115.039C230.952 115.083 230.876 115.104 230.803 115.104C230.622 115.104 230.498 114.985 230.382 114.865C230.342 114.825 230.306 114.789 230.262 114.749C230.055 114.578 229.917 114.593 229.841 114.858C229.75 115.152 229.692 115.326 229.544 115.326C229.489 115.326 229.435 115.297 229.377 115.235C229.373 115.231 229.315 115.184 228.966 115.184C228.847 115.184 228.709 115.188 228.549 115.202C228.567 115.5 228.411 115.809 228.284 116.059C228.201 116.222 228.124 116.382 228.124 116.476C228.124 116.799 227.809 117.104 227.569 117.104C227.482 117.104 227.355 117.308 227.242 117.482C227.144 117.642 227.039 117.801 226.919 117.921C226.799 118.041 226.781 118.255 226.763 118.462C226.745 118.691 226.723 118.923 226.56 119.046C226.465 119.115 226.36 119.17 226.266 119.217C226.168 119.268 226.041 119.329 226.037 119.373C226.037 119.387 226.052 119.406 226.077 119.435C226.226 119.583 226.099 119.787 225.965 120.001C225.863 120.168 225.747 120.353 225.747 120.531C225.747 120.796 225.696 121.729 225.587 121.838C225.54 121.888 225.442 121.878 225.289 121.867C225.217 121.863 225.141 121.859 225.057 121.859C224.694 121.859 224.694 121.961 224.694 122.001C224.694 122.19 224.6 122.299 224.531 122.375C224.458 122.458 224.422 122.495 224.476 122.603C224.527 122.705 224.727 122.76 224.916 122.81C225.173 122.879 225.442 122.948 225.525 123.166C225.58 123.308 225.736 123.46 225.899 123.623C226.128 123.848 226.382 124.103 226.505 124.429C226.712 124.985 227.257 125.224 227.489 125.224C227.544 125.224 227.587 125.242 227.62 125.279C227.692 125.369 227.667 125.533 227.613 125.834C227.591 125.972 227.569 126.11 227.544 126.259L227.547 126.255ZM229.649 135.678C229.816 135.798 230.632 136.397 231.446 136.956C231.87 135.881 232.393 134.77 232.531 134.56C232.68 134.328 232.836 134.244 232.974 134.179C233.075 134.124 233.166 134.077 233.257 133.968C233.344 133.867 233.427 133.834 233.536 133.845H233.576C233.62 133.845 233.707 133.845 233.874 133.573C233.896 133.54 233.921 133.504 233.946 133.464L233.398 132.6V132.582L233.337 128.505L233.351 128.487L233.87 127.674L234.313 127.025C234.121 127.072 233.986 127.112 233.936 127.141C233.718 127.25 233.384 127.101 233.289 126.879C233.275 126.847 233.206 126.847 233.177 126.847C232.999 126.847 232.691 126.956 232.404 127.112C232.222 127.213 232.081 127.373 231.965 127.504C231.845 127.638 231.758 127.736 231.66 127.736C231.631 127.736 231.605 127.729 231.576 127.711C231.446 127.623 230.582 127.496 230.306 127.496C230.03 127.496 229.206 126.948 228.956 126.727C228.821 126.607 228.505 126.589 228.244 126.578C228.044 126.571 227.892 126.56 227.809 126.513C227.747 126.48 227.663 126.444 227.573 126.411C227.406 126.346 227.228 126.277 227.137 126.172C227.054 126.074 226.85 126.055 226.52 126.121C226.266 126.172 225.707 126.516 225.667 126.676C225.649 126.741 225.605 126.796 225.558 126.843L226.037 127.279L226.153 128.088L226.622 128.498V128.527C226.622 128.527 226.622 128.999 226.567 129.46C226.502 129.965 226.066 130.556 225.794 130.832C225.75 130.876 225.66 131.021 225.5 131.438C225.75 131.507 226.269 131.678 226.226 131.91C226.201 132.059 226.041 132.113 225.877 132.172C225.652 132.248 225.427 132.328 225.427 132.629C225.427 132.654 225.427 132.68 225.424 132.705L229.7 134.977L229.638 135.681L229.649 135.678ZM220.495 133.144C220.694 133.152 220.767 133.119 220.89 133.054L220.912 133.046C221.148 132.93 222.048 132.701 222.088 132.694L222.999 132.622C223.13 132.266 223.446 131.522 223.888 131.391C224.066 131.34 224.277 131.315 224.513 131.315C224.785 131.315 225.09 131.348 225.373 131.417C225.562 130.923 225.652 130.796 225.703 130.745C226.023 130.426 226.386 129.867 226.44 129.449C226.487 129.061 226.495 128.669 226.495 128.564L226.034 128.164L225.917 127.351L225.46 126.937C225.431 126.959 225.398 126.981 225.369 127.006C225.275 127.079 225.155 127.166 225.144 127.224C225.126 127.344 224.995 127.409 224.77 127.409C224.614 127.409 224.447 127.377 224.346 127.322C224.324 127.308 224.291 127.304 224.248 127.304C224.019 127.304 223.667 127.475 223.602 127.576C223.576 127.616 223.533 127.642 223.485 127.642C223.402 127.642 223.308 127.58 223.202 127.511C223.09 127.438 222.963 127.355 222.868 127.355C222.651 127.377 222.19 127.54 222.055 127.587C222.034 127.736 221.961 128.284 221.961 128.516C221.961 128.629 222.044 128.694 222.139 128.77C222.233 128.843 222.338 128.93 222.338 129.068C222.338 129.224 222.23 129.355 222.132 129.471C222.077 129.54 222.019 129.609 222.012 129.656C221.979 129.867 221.696 129.976 221.485 130.034C221.377 130.063 221.337 130.182 221.279 130.32C221.231 130.444 221.184 130.571 221.075 130.651C220.977 130.723 220.945 130.883 220.919 131.05C220.897 131.173 220.876 131.308 220.821 131.424C220.701 131.685 220.629 132.052 220.629 132.375C220.632 132.611 220.607 132.923 220.495 133.137V133.144ZM217.743 144.916C217.816 144.916 217.881 144.956 217.914 145.028C218.103 145.406 218.309 145.645 218.455 145.645C218.934 145.645 219.377 145.678 219.377 145.91C219.377 146.095 219.576 146.629 219.801 146.81C219.863 146.858 219.957 146.883 220.081 146.883C220.28 146.883 220.48 146.818 220.531 146.799C220.564 146.77 220.698 146.636 220.698 146.357C220.698 145.867 220.672 145.62 220.614 145.62C220.582 145.62 220.516 145.663 220.455 145.707C220.331 145.79 220.179 145.892 219.99 145.892C219.943 145.892 219.892 145.885 219.845 145.87C219.594 145.798 219.406 145.478 219.25 145.221C219.181 145.104 219.112 144.985 219.068 144.959C218.937 144.872 219.028 144.643 219.141 144.353C219.21 144.172 219.286 143.975 219.286 143.852C219.286 143.75 219.311 143.587 219.34 143.413C219.38 143.181 219.46 142.698 219.369 142.654C219.286 142.614 219.235 142.542 219.228 142.451C219.21 142.291 219.322 142.088 219.507 141.939C219.594 141.87 219.583 141.732 219.58 141.594C219.573 141.46 219.565 141.329 219.649 141.242C219.696 141.195 219.765 141.17 219.852 141.17H220.197C220.415 141.17 221.006 141.17 221.17 140.988L221.188 140.97C221.188 140.97 221.202 140.956 221.202 140.952C221.224 140.912 221.242 140.865 221.264 140.814C221.213 140.727 221.155 140.632 221.104 140.538C220.905 140.19 220.705 139.827 220.48 139.707C219.979 139.435 219.765 136.799 219.838 135.848C219.863 135.485 219.925 135.413 219.983 135.391H220.015C220.015 135.391 220.023 135.387 220.03 135.387L219.99 134.756C219.99 134.756 219.968 134.749 219.95 134.741C219.783 134.672 219.685 134.531 219.685 134.349C219.685 134.113 219.823 134.005 219.936 133.972C219.932 133.801 219.939 133.329 220.211 133.235C220.251 133.221 220.284 133.195 220.32 133.148C220.469 132.963 220.491 132.582 220.491 132.368C220.491 132.026 220.567 131.642 220.698 131.362C220.745 131.26 220.767 131.137 220.789 131.017C220.821 130.832 220.854 130.64 220.995 130.531C221.068 130.476 221.108 130.371 221.152 130.259C221.206 130.11 221.271 129.939 221.446 129.888C221.711 129.805 221.859 129.718 221.877 129.616C221.892 129.533 221.954 129.456 222.026 129.369C222.11 129.271 222.204 129.159 222.204 129.05C222.204 128.981 222.15 128.93 222.055 128.858C221.954 128.774 221.827 128.676 221.827 128.502C221.827 128.244 221.91 127.642 221.925 127.529C221.398 127.05 220.807 126.56 220.665 126.469C220.64 126.451 220.603 126.444 220.567 126.444C220.397 126.444 220.19 126.607 220.19 126.607L220.142 126.647L220.099 126.603C220.099 126.603 219.936 126.444 219.765 126.444C219.692 126.444 219.623 126.473 219.565 126.534C219.471 126.629 219.351 126.676 219.213 126.676C218.988 126.676 218.792 126.545 218.781 126.542C218.767 126.534 218.411 126.317 218.266 125.946C218.233 125.859 218.175 125.798 218.084 125.736L217.202 125.881L217.181 125.874C217.181 125.874 216.64 125.587 216.277 125.587C216.142 125.587 216.059 125.627 216.019 125.703C215.925 125.892 215.819 125.968 215.667 125.968C215.598 125.968 215.525 125.95 215.438 125.928C215.329 125.903 215.206 125.874 215.05 125.874C214.582 125.874 214.171 126.077 213.903 126.208C213.743 126.284 213.547 126.255 213.362 126.215C213.206 126.182 213.064 126.161 212.995 126.208C212.839 126.309 212.712 126.767 212.672 126.934L212.658 126.999L212.593 126.985L210.404 126.56L210.386 126.538C210.386 126.538 209.983 125.939 209.533 125.939C209.166 125.939 208.618 126.545 208.415 126.803V127.54C208.505 128.012 208.386 128.498 208.237 128.749C208.193 128.818 208.153 128.879 208.113 128.937C207.954 129.173 207.827 129.358 207.827 129.903C207.827 130.291 207.591 130.778 207.366 131.25C207.173 131.652 206.988 132.037 206.988 132.28C206.988 132.625 206.669 132.883 206.386 133.112C206.193 133.271 206.008 133.417 206.008 133.544C206.008 133.685 205.994 133.899 205.983 134.146C205.961 134.516 205.939 134.974 205.939 135.431C205.939 135.845 205.819 135.91 205.674 135.943C205.587 135.965 205.525 135.983 205.525 136.27C205.525 136.716 205.384 136.77 205.162 136.796C205.046 136.81 204.93 136.825 204.807 136.945C204.571 137.181 204.455 137.264 204.36 137.264C204.328 137.264 204.262 137.25 204.226 137.166C204.208 137.119 204.201 137.057 204.201 136.966C204.201 136.752 203.983 136.734 203.917 136.734C203.754 136.734 203.565 136.81 203.402 136.948C203.264 137.061 203.144 137.115 203.028 137.115C202.894 137.115 202.796 137.043 202.709 136.977C202.662 136.937 202.614 136.905 202.567 136.89C202.48 136.89 202.179 137.028 201.613 137.409C201.801 137.823 201.91 138.237 201.994 138.618C201.994 138.622 201.997 138.632 201.997 138.636C202.273 138.447 202.465 138.349 202.585 138.331C202.694 138.313 203.057 138.309 203.7 138.309C204.774 138.309 206.244 138.331 206.259 138.331H206.299L206.32 138.36C206.335 138.382 206.636 138.89 206.527 139.362C206.484 139.565 206.52 139.598 206.622 139.685C206.72 139.769 206.854 139.885 206.974 140.175C207.199 140.709 207.351 140.879 207.609 140.879C207.678 140.879 207.754 140.865 207.845 140.839C208.269 140.709 208.756 140.625 209.028 140.625C209.097 140.625 209.148 140.629 209.188 140.643C209.217 140.622 209.257 140.436 209.282 140.313C209.337 140.048 209.402 139.74 209.591 139.645C209.689 139.598 209.823 139.573 209.99 139.573C210.262 139.573 210.531 139.638 210.542 139.642L210.585 139.649L210.593 139.692C210.593 139.692 210.643 139.892 211.079 139.892C211.235 139.892 211.362 139.87 211.471 139.859C211.547 139.845 211.613 139.838 211.671 139.838C211.877 139.838 211.903 139.994 211.903 140.113C211.903 140.531 211.972 140.858 212.084 140.97C212.175 141.061 212.124 141.279 212.019 141.692C211.943 142.008 211.819 142.484 211.928 142.571C212.153 142.752 212.564 143.235 212.505 143.54L212.487 143.627C212.389 144.099 212.375 144.349 212.458 144.368C212.513 144.386 212.549 144.346 212.618 144.273C212.705 144.182 212.825 144.063 213.043 144.063C213.115 144.063 213.184 144.063 213.253 144.066C213.5 144.07 213.732 144.092 214.023 143.968C214.142 143.917 214.262 143.921 214.386 143.983C214.585 144.077 214.705 144.288 214.712 144.299C214.741 144.397 214.821 144.578 214.923 144.524C215.054 144.458 215.337 144.368 215.522 144.368C215.609 144.368 215.667 144.389 215.703 144.433C215.721 144.455 215.736 144.495 215.725 144.553C215.7 144.654 215.754 144.85 215.845 144.963C215.892 145.024 215.939 145.054 215.983 145.032C216.113 144.963 216.335 145.061 216.564 145.173C216.712 145.246 216.868 145.322 216.963 145.322C217.148 145.322 217.398 145.322 217.398 145.239C217.384 145.083 217.583 144.897 217.743 144.897V144.916ZM222.378 157.591H222.382C222.415 157.656 222.458 157.83 222.542 158.168C222.658 158.658 222.883 159.576 223.057 159.678C223.427 159.892 223.195 161.787 223.191 161.809C223.173 161.907 223.253 162.578 223.308 163.025C223.442 163.006 223.743 162.97 224.034 162.97C224.059 162.738 224.073 162.556 224.077 162.469C224.084 162.328 224.063 162.28 224.052 162.266C224.041 162.251 224.019 162.248 223.979 162.248H223.907C223.812 162.248 223.692 162.226 223.634 162.059C223.478 161.623 224.625 160.97 225.449 160.669C226.433 160.306 226.745 160.117 226.832 159.827C226.876 159.681 226.876 159.406 226.876 159.108C226.876 158.756 226.876 158.389 226.952 158.182C227.024 157.983 226.981 157.834 226.908 157.565C226.858 157.377 226.792 157.133 226.745 156.792C226.676 156.284 226.538 156.052 226.404 155.823C226.32 155.681 226.244 155.547 226.193 155.362C226.084 154.992 226.092 154.709 226.197 154.553C226.251 154.476 226.335 154.429 226.436 154.422C226.625 154.407 226.654 154.353 226.785 154.081C226.814 154.015 226.854 153.939 226.897 153.852C227.046 153.565 227.217 153.511 227.409 153.449C227.544 153.406 227.689 153.358 227.87 153.224C228.063 153.083 228.171 152.923 228.302 152.738C228.465 152.502 228.651 152.233 229.061 151.921C229.475 151.602 229.91 151.471 230.331 151.34C230.662 151.239 230.977 151.141 231.279 150.963C232.005 150.527 233.133 148.919 233.043 148.687C232.93 148.393 232.687 147.017 232.756 146.444C232.796 146.121 232.752 145.475 232.709 144.85C232.683 144.455 232.658 144.081 232.654 143.801C231.718 144.233 231.591 144.349 231.58 144.375C231.515 144.505 231.366 144.505 231.282 144.505H231.195C231.05 144.502 230.879 144.491 230.756 144.6C230.658 144.687 230.563 144.73 230.458 144.73C230.353 144.73 230.27 144.687 230.182 144.647C230.132 144.625 230.081 144.6 230.023 144.582C230.005 144.578 229.994 144.574 229.975 144.574C229.845 144.574 229.769 144.781 229.74 144.963C229.725 145.046 229.656 145.141 229.416 145.141C229.271 145.141 229.108 145.108 229.006 145.09H228.985C228.908 145.068 228.723 145.108 228.534 145.144C228.349 145.184 228.161 145.217 228.026 145.217C227.841 145.217 227.812 145.115 227.79 145.039C227.772 144.974 227.758 144.919 227.634 144.879C227.478 144.828 227.337 144.883 227.213 144.945C227.137 144.985 227.064 145.017 226.985 145.017C226.89 145.017 226.629 144.988 226.407 144.963C226.4 145.104 226.382 145.217 226.346 145.304C226.215 145.634 226.422 146.255 226.603 146.807C226.712 147.13 226.81 147.431 226.832 147.645C227.155 147.925 227.38 148.146 227.504 148.295C227.685 148.52 227.671 148.622 227.62 148.814C227.587 148.948 227.536 149.13 227.551 149.471C227.573 150.023 227.413 150.095 227.17 150.142C227.075 150.161 226.981 150.182 226.894 150.259C226.723 150.407 226.77 150.705 226.803 150.941C226.825 151.083 226.843 151.195 226.81 151.268C226.796 151.3 226.763 151.322 226.727 151.322C226.513 151.322 225.689 150.026 225.645 149.888C225.613 149.79 225.66 149.627 225.736 149.348C225.823 149.043 225.936 148.669 225.877 148.415C225.848 148.273 225.765 148.208 225.613 148.208C225.482 148.208 225.333 148.251 225.217 148.291C225.152 148.313 225.097 148.331 225.057 148.335C224.923 148.36 224.723 148.197 224.48 147.979C224.404 147.91 224.299 147.812 224.266 147.801C224.164 147.819 222.404 148.469 221.21 148.916L221.449 149.776H221.398L221.507 150.012C221.707 150.026 222.538 150.099 222.956 150.375C223.231 150.56 223.609 150.647 223.888 150.709C224.066 150.752 224.193 150.781 224.259 150.825C224.371 150.897 224.371 151.166 224.346 151.798C224.331 152.099 224.32 152.415 224.342 152.632C224.367 152.93 224.208 153.126 224.088 153.268C223.954 153.427 223.917 153.485 224.019 153.594C224.197 153.772 224.23 154.005 224.255 154.19C224.273 154.313 224.288 154.418 224.338 154.429C224.389 154.444 224.426 154.476 224.433 154.527C224.462 154.734 223.975 155.271 223.758 155.402C223.671 155.453 223.667 155.58 223.66 155.779C223.656 155.994 223.645 156.262 223.475 156.491C223.329 156.683 222.988 157.006 222.662 157.319C222.567 157.409 222.469 157.5 222.378 157.583V157.591ZM227.514 144.73C227.569 144.73 227.631 144.738 227.685 144.756C227.87 144.818 227.903 144.934 227.925 145.006C227.943 145.072 227.946 145.09 228.034 145.09C228.153 145.09 228.335 145.05 228.516 145.017C228.727 144.974 228.926 144.941 229.021 144.956H229.043C229.137 144.977 229.293 145.01 229.424 145.01C229.493 145.01 229.605 145.003 229.613 144.945C229.638 144.796 229.721 144.444 229.983 144.444C230.008 144.444 230.037 144.447 230.066 144.458C230.132 144.476 230.19 144.502 230.248 144.531C230.404 144.603 230.524 144.64 230.672 144.505C230.836 144.364 231.035 144.371 231.202 144.375H231.286C231.395 144.375 231.442 144.36 231.464 144.324C231.485 144.28 231.536 144.179 232.654 143.671C232.629 143.431 232.473 143.355 232.302 143.271C232.103 143.177 231.877 143.064 231.859 142.687C231.841 142.342 231.729 142.186 231.623 142.037C231.525 141.899 231.431 141.772 231.438 141.525V141.406C231.456 141.086 231.471 140.687 231.369 140.658C231.318 140.64 231.275 140.603 231.257 140.545C231.188 140.353 231.348 139.986 231.533 139.703C231.634 139.554 231.565 139.478 231.348 139.322C231.184 139.202 230.981 139.057 230.923 138.803C230.876 138.603 231.039 138.03 231.406 137.09C230.491 136.458 229.558 135.776 229.547 135.769L229.518 135.747L229.573 135.057L225.424 132.854C225.373 133.344 225.159 133.729 224.847 133.874C224.821 133.888 224.807 133.896 224.803 133.914C224.789 133.965 224.868 134.077 224.926 134.161C225.014 134.277 225.09 134.389 225.05 134.484C225.028 134.534 224.981 134.571 224.901 134.585C224.752 134.614 224.513 134.567 224.259 134.513C224.023 134.462 223.754 134.404 223.507 134.404C223.344 134.404 223.202 134.429 223.083 134.476C222.966 134.524 222.868 134.498 222.803 134.407C222.622 134.153 222.741 133.387 222.952 132.756L222.11 132.825C222.11 132.825 221.903 132.876 221.66 132.945L221.819 133.369C221.819 133.369 222.059 133.852 221.997 134.161C221.972 134.295 221.83 134.378 221.562 134.418C221.605 134.654 221.605 134.839 221.594 134.923L221.903 135.108L221.874 135.162C221.809 135.293 221.217 136.407 220.916 136.527C220.883 136.542 220.774 136.596 220.48 136.781C220.625 137.515 220.843 138.585 221.144 138.854C221.58 139.253 221.645 139.685 221.696 140.034C221.714 140.164 221.729 140.27 221.765 140.36C221.805 140.469 221.885 140.589 221.965 140.701C222.084 140.883 222.201 141.05 222.164 141.191C222.142 141.26 222.092 141.311 222.008 141.348C221.968 141.366 221.925 141.373 221.885 141.373C221.983 141.42 222.03 141.427 222.052 141.427C222.233 141.427 222.455 141.54 222.676 141.652C222.839 141.736 222.992 141.812 223.112 141.838C223.377 141.888 224.455 142.306 224.6 142.502C224.618 142.524 224.632 142.553 224.654 142.589C224.894 142.574 225.195 142.571 225.358 142.589C225.475 142.502 225.631 142.495 225.776 142.643C226.103 142.977 226.429 144.081 226.429 144.828C226.665 144.858 226.919 144.883 227.006 144.883C227.054 144.883 227.108 144.858 227.177 144.821C227.268 144.789 227.384 144.73 227.522 144.73H227.514ZM225.62 148.077C225.896 148.077 225.99 148.248 226.019 148.393C226.081 148.68 225.968 149.075 225.877 149.395C225.823 149.594 225.761 149.794 225.783 149.859C225.845 150.044 226.495 150.981 226.698 151.173C226.698 151.123 226.683 151.043 226.676 150.97C226.636 150.716 226.585 150.368 226.81 150.164C226.926 150.063 227.05 150.041 227.152 150.019C227.337 149.979 227.446 149.957 227.427 149.482C227.413 149.119 227.467 148.919 227.5 148.785C227.544 148.622 227.554 148.567 227.409 148.386C227.3 148.251 227.104 148.063 226.832 147.823C226.825 147.856 226.81 147.888 226.792 147.914C226.73 148.005 226.651 148.026 226.593 148.026C226.171 148.026 225.525 146.879 225.438 146.15C225.391 145.776 225.482 145.493 225.562 145.217C225.663 144.872 225.754 144.582 225.565 144.164C225.246 143.453 225.133 142.974 225.242 142.727C225.101 142.72 224.894 142.723 224.712 142.73C224.894 143.054 225.112 143.573 225.112 143.772C225.112 143.881 225.057 143.939 224.956 143.939C224.937 143.939 224.916 143.939 224.894 143.936C224.821 143.928 224.745 143.917 224.701 144.03C224.589 144.313 224.538 145.605 224.745 145.812C224.767 145.834 224.832 145.899 224.807 145.972C224.778 146.048 224.676 146.063 224.549 146.073C224.455 146.081 224.299 146.099 224.299 146.15C224.299 146.157 224.277 147.13 224.11 147.293C224.117 147.337 224.175 147.435 224.219 147.518C224.244 147.569 224.273 147.627 224.306 147.685C224.368 147.707 224.44 147.772 224.567 147.888C224.709 148.019 224.923 148.215 225.024 148.215C225.068 148.208 225.119 148.193 225.173 148.175C225.308 148.128 225.467 148.081 225.613 148.081L225.62 148.077ZM235.213 118.923C235.329 118.923 235.442 118.995 235.587 119.126C235.685 118.988 235.816 118.832 235.957 118.687C235.838 118.625 235.725 118.589 235.631 118.556C235.529 118.524 235.453 118.502 235.417 118.458C235.384 118.426 235.369 118.371 235.387 118.317C235.442 118.132 235.838 117.881 236.106 117.827C236.208 117.805 236.222 117.754 236.226 117.736C236.255 117.623 236.15 117.427 235.975 117.275C235.943 117.246 235.907 117.21 235.863 117.177H235.859C235.678 117.279 235.627 117.326 235.613 117.344C235.544 117.435 235.435 117.442 235.358 117.442C235.286 117.442 235.202 117.435 235.108 117.42L235.054 117.413C234.959 117.569 234.72 117.946 234.52 118.172C234.295 118.429 234.433 118.93 234.495 119.05C234.513 119.083 234.571 119.101 234.654 119.101C234.778 119.101 234.93 119.057 235.032 118.985C235.093 118.945 235.152 118.923 235.213 118.923ZM235.09 117.279H235.122C235.213 117.297 235.293 117.304 235.358 117.304C235.456 117.304 235.489 117.282 235.504 117.257C235.525 117.228 235.576 117.181 235.754 117.072C235.424 116.749 235.028 116.302 234.607 115.772C233.983 114.985 233.246 114.56 232.868 114.56C232.603 114.56 232.466 114.309 232.353 114.11C232.284 113.986 232.215 113.856 232.139 113.845C231.838 113.805 231.26 112.785 231.242 112.124C231.235 111.845 231.028 111.42 230.68 110.981C230.393 111.406 230.052 111.634 229.823 111.787C229.74 111.841 229.678 111.885 229.638 111.921C229.562 111.997 229.453 112.055 229.351 112.11C229.126 112.23 228.995 112.317 229.028 112.487C229.101 112.854 228.966 113.213 228.593 113.663C228.328 113.986 228.411 114.455 228.491 114.872C228.505 114.941 228.516 115.014 228.531 115.079C228.694 115.072 228.839 115.061 228.966 115.061C229.333 115.061 229.427 115.108 229.471 115.152C229.518 115.199 229.54 115.199 229.544 115.199C229.598 115.199 229.678 114.937 229.711 114.825C229.787 114.564 229.925 114.505 230.03 114.505C230.124 114.505 230.233 114.553 230.349 114.651C230.397 114.691 230.44 114.734 230.48 114.774C230.629 114.923 230.76 115.032 230.985 114.923C231.271 114.781 231.358 114.821 231.446 114.872C231.467 114.887 231.496 114.901 231.536 114.919C231.558 114.926 231.613 114.941 231.743 114.941C231.856 114.941 231.997 114.934 232.132 114.923C232.342 114.908 232.534 114.901 232.651 114.916C232.908 114.956 234.73 116.879 235.09 117.264L235.097 117.282L235.09 117.279ZM237.093 150.11C236.963 150.11 236.945 150.313 236.923 150.647C236.905 150.941 236.883 151.3 236.723 151.583C236.378 152.201 236.6 152.93 236.861 153.565C237.162 154.299 237.42 154.934 236.582 155.946C235.812 156.879 235.859 157.921 236.157 158.589C236.28 158.865 236.357 159.199 236.429 159.518C236.538 159.997 236.636 160.447 236.887 160.709C237.195 161.039 237.899 161.333 238.389 161.333C238.574 161.333 238.716 161.289 238.799 161.21C238.988 161.021 239.188 161.017 239.377 161.017C239.58 161.017 239.769 161.014 239.972 160.781C240.244 160.466 240.662 159.093 241.061 157.769C241.242 157.181 241.427 156.571 241.598 156.052C242.055 154.683 242.901 152.139 242.832 151.663C242.803 151.435 242.879 151.25 242.963 151.068C243.054 150.858 243.141 150.658 243.039 150.404C242.916 150.088 242.956 149.747 243.068 149.587C243.13 149.496 243.199 149.478 243.246 149.478C243.329 149.478 243.402 149.533 243.464 149.642C243.554 149.801 243.667 149.896 243.765 149.896C243.877 149.896 243.968 149.758 244.012 149.529C244.063 149.264 243.946 148.897 243.823 148.509C243.707 148.146 243.591 147.772 243.573 147.402C243.551 146.916 243.268 146.444 243.039 146.059C242.916 145.852 242.81 145.678 242.774 145.544C242.752 145.467 242.734 145.427 242.727 145.409C242.698 145.453 242.654 145.558 242.629 145.627C242.585 145.743 242.538 145.856 242.487 145.907C242.378 146.015 242.306 146.386 242.338 146.654C242.353 146.756 242.313 146.861 242.226 146.959C242.07 147.13 241.794 147.246 241.598 147.224C241.449 147.206 241.221 147.257 241.119 147.395C241.072 147.464 241.064 147.54 241.097 147.634C241.173 147.852 241.112 147.954 241.057 148.026C241.014 148.088 240.995 148.117 241.057 148.23C241.112 148.328 241.108 148.444 241.05 148.556C240.916 148.796 240.531 149.006 240.168 149.035C239.975 149.05 239.729 149.235 239.496 149.409C239.195 149.638 238.876 149.877 238.582 149.834C238.335 149.801 238.092 149.888 237.848 149.972C237.598 150.059 237.362 150.135 237.137 150.103C237.119 150.099 237.112 150.099 237.104 150.099L237.093 150.11ZM220.186 135.558C220.273 135.758 220.353 136.164 220.447 136.643C220.654 136.513 220.792 136.433 220.861 136.407C221.046 136.335 221.478 135.627 221.725 135.162L221.453 134.999V134.956C221.453 134.956 221.482 134.738 221.424 134.444C221.246 134.462 221.093 134.458 221.01 134.458C221.006 134.52 220.985 134.607 220.916 134.683C220.803 134.807 220.614 134.85 220.353 134.799C220.291 134.792 220.219 134.778 220.139 134.774L220.186 135.562V135.558ZM220.415 157.188C220.701 157.188 220.97 157.188 221.05 157.322C221.097 157.398 221.464 157.424 221.703 157.442C221.936 157.46 222.142 157.471 222.266 157.518C222.36 157.424 222.469 157.326 222.574 157.224C222.901 156.919 223.239 156.6 223.373 156.415C223.515 156.226 223.522 155.99 223.529 155.783C223.536 155.576 223.544 155.384 223.692 155.293C223.928 155.152 224.328 154.647 224.309 154.553C224.179 154.531 224.161 154.371 224.132 154.208C224.106 154.03 224.077 153.834 223.932 153.692C223.732 153.493 223.87 153.329 223.994 153.184C224.11 153.046 224.24 152.887 224.219 152.647C224.197 152.418 224.211 152.099 224.222 151.794C224.237 151.475 224.255 150.999 224.197 150.937C224.153 150.908 224.015 150.876 223.87 150.843C223.583 150.774 223.191 150.683 222.894 150.487C222.462 150.201 221.482 150.146 221.471 150.146H221.427L221.264 149.783L220.338 149.812C219.765 149.961 219.765 150.128 219.765 150.317C219.765 150.567 219.119 151.05 218.68 151.184C218.447 151.257 218.179 151.631 217.965 151.936C217.794 152.175 217.645 152.386 217.518 152.451C217.467 152.476 217.398 152.491 217.308 152.491C217.061 152.491 216.705 152.397 216.418 152.313C216.259 152.27 216.121 152.23 216.044 152.222C215.95 152.215 215.769 152.244 215.58 152.288C215.765 152.571 216.048 152.821 216.117 152.821C216.237 152.821 216.284 152.999 216.364 153.315C216.447 153.645 216.564 154.095 216.763 154.182C216.778 154.186 217.939 154.687 217.939 155.035C217.939 155.112 218.026 155.221 218.117 155.333C218.248 155.493 218.393 155.674 218.393 155.885C218.393 156.19 218.807 156.607 219.104 156.607H219.195C219.721 156.607 219.983 156.792 219.983 157.155C220.015 157.188 220.262 157.188 220.407 157.188C220.407 157.188 220.41 157.185 220.415 157.181V157.188ZM222.487 161.747C222.251 161.747 221.79 162.378 221.787 162.495C221.787 162.629 222.132 163.46 222.422 163.475C222.487 163.478 222.542 163.482 222.6 163.482C222.901 163.482 222.97 163.398 222.981 163.279C222.988 163.166 223.054 163.054 223.166 162.956C223.144 162.767 223.09 162.328 223.068 162.048L223.017 162.015C222.839 161.892 222.625 161.743 222.487 161.743V161.747ZM220.005 134.625C220.153 134.629 220.28 134.643 220.375 134.658C220.585 134.698 220.738 134.672 220.814 134.585C220.887 134.502 220.876 134.386 220.876 134.386L220.868 134.302H220.952C220.952 134.302 221.024 134.309 221.13 134.309C221.554 134.309 221.845 134.237 221.867 134.128C221.917 133.863 221.703 133.424 221.7 133.417L221.533 132.974C221.26 133.05 221.064 133.115 220.977 133.159L220.959 133.166C220.818 133.239 220.72 133.289 220.411 133.264C220.364 133.311 220.32 133.348 220.266 133.362C220.081 133.431 220.073 133.87 220.084 134.019V134.084L220.023 134.088C220.005 134.092 219.834 134.117 219.834 134.346C219.834 134.505 219.928 134.578 220.012 134.614L220.005 134.625Z" fill="#009688" stroke="#009688" stroke-miterlimit="10"/>
</svg>
