<svg width="400" height="207" viewBox="0 0 400 207" fill="none" xmlns="http://www.w3.org/2000/svg">
<mask id="mask0_325_5814" style="mask-type:luminance" maskUnits="userSpaceOnUse" x="0" y="0" width="400" height="207">
<path d="M400 0.400391H0V206.407H400V0.400391Z" fill="white"/>
</mask>
<g mask="url(#mask0_325_5814)">
<path d="M372.936 156.676L373.067 156.72L373.259 156.694L373.302 156.582L373.237 156.426L373.114 156.288L372.348 155.703L371.967 155.478L371.785 155.348L371.629 155.195L371.502 155.046L371.382 154.923L370.95 154.6L370.704 154.375L370.569 154.291L370.319 154.208L370.199 154.157L370.068 154.066L370.054 154.092L370.047 154.117L370.043 154.143V154.175L370.148 154.284L370.308 154.596L370.399 154.742L371.03 155.428L371.219 155.584L372.33 156.299L372.482 156.426L372.598 156.506L372.762 156.596L372.936 156.676Z" fill="#009688"/>
<path d="M373.371 154.992L373.465 155.126L373.618 155.235L373.752 155.253L373.792 155.116L373.661 154.792L373.647 154.745L373.578 154.709H373.502L373.433 154.738L373.382 154.796L373.494 154.822L373.516 154.88L373.469 154.945L373.371 154.992Z" fill="#009688"/>
<path d="M373.805 157.02L373.888 157.046L373.924 157.027L373.91 156.984L373.826 156.926L373.805 157.02Z" fill="#009688"/>
<path d="M374.563 155.806L374.603 155.73L374.6 155.613L374.527 155.617L374.476 155.599L374.443 155.555L374.433 155.486L374.385 155.512L374.291 155.534L374.24 155.552L374.295 155.715L374.335 155.784L374.396 155.828L374.491 155.842L374.563 155.806Z" fill="#009688"/>
<path d="M372.893 154.604L372.911 154.514L372.969 154.43L372.944 154.416L372.922 154.401L372.9 154.394L372.871 154.387L372.868 154.481L372.85 154.572L372.821 154.659L372.773 154.739L372.868 154.684L372.893 154.604Z" fill="#009688"/>
<path d="M373.556 149.122L373.527 149.184L373.502 149.315L373.556 149.355H373.636H373.683L373.756 149.514L373.785 149.667L373.829 149.794L373.941 149.866L374.01 149.855L374.112 149.823L374.206 149.776L374.25 149.728L374.235 149.678L374.192 149.623L374.101 149.54L373.861 149.376L373.763 149.275L373.705 149.126L373.633 149.086L373.589 149.09L373.556 149.122Z" fill="#009688"/>
<path d="M374.611 149.951L374.574 150.074L374.701 150.136L374.872 150.154L374.977 150.143L374.886 150.092L374.781 150.013L374.679 149.947L374.611 149.951Z" fill="#009688"/>
<path d="M373.905 147.276L373.97 147.218L373.999 147.135L373.93 147.109L373.85 147.105L373.789 147.142L373.785 147.222L373.832 147.283L373.905 147.276Z" fill="#009688"/>
<path d="M374.835 151.315L374.944 151.319L375.035 151.286L375.097 151.192L374.973 151.08L374.843 151.021L374.723 151.058L374.621 151.21L374.679 151.203L374.715 151.214L374.741 151.232L374.784 151.25L374.726 151.29L374.835 151.315Z" fill="#009688"/>
<path d="M375.822 153.162L375.826 153.307L375.909 153.427L376.018 153.463L376.102 153.354L376.018 153.282L375.946 153.173L375.88 153.107L375.822 153.162Z" fill="#009688"/>
<path d="M376.551 154.116L376.428 154.08L376.406 154.131L376.461 154.174L376.551 154.116Z" fill="#009688"/>
<path d="M375.7 152.658L375.819 152.691L375.928 152.647L375.867 152.556L375.83 152.516L375.779 152.48L375.841 152.44L375.743 152.357L375.642 152.295L375.565 152.317L375.551 152.48L375.602 152.582L375.7 152.658Z" fill="#009688"/>
<path d="M373.901 146.752L373.934 146.621L373.785 146.632L373.811 146.824L373.901 146.752Z" fill="#009688"/>
<path d="M373.455 148.825L373.473 148.872L373.557 148.933L373.571 148.904L373.582 148.875L373.589 148.846L373.593 148.814L373.495 148.803L373.455 148.825Z" fill="#009688"/>
<path d="M374.617 148.767L374.628 148.999L374.668 149.159L374.744 149.097L374.664 148.723L374.624 148.6L374.617 148.767Z" fill="#009688"/>
<path d="M374.309 148.592L374.389 148.509L374.447 148.396L374.342 148.404L374.24 148.444L374.157 148.509L374.084 148.589L374.204 148.629L374.309 148.592Z" fill="#009688"/>
<path d="M372.83 148.073L372.885 148.313L372.954 148.545L373.034 148.694L373.088 148.759L373.11 148.778L373.15 148.759L373.262 148.734L373.451 148.716L373.516 148.676L373.556 148.582L373.451 148.28L373.411 148.121L373.418 147.997L373.313 148.052L373.259 148.171L373.204 148.244L373.103 148.153L373.074 148.048L373.037 147.881L372.983 147.721L372.899 147.652L372.841 147.678L372.816 147.747L372.809 147.83V147.896L372.83 148.073Z" fill="#009688"/>
<path d="M374.635 148.519L374.657 148.447V148.349L374.642 148.247L374.595 148.055L374.562 148.149V148.276L374.588 148.41L374.635 148.519Z" fill="#009688"/>
<path d="M374.367 149.489L374.454 149.569L374.574 149.616L374.694 149.62L374.777 149.569L374.734 149.511L374.629 149.318L374.574 149.376L374.512 149.424L374.443 149.46L374.367 149.489Z" fill="#009688"/>
<path d="M392.066 146.106L392.059 146.033L392.04 146.051L392.03 146.077L392.019 146.099L392.008 146.124L392.051 146.128L392.066 146.106Z" fill="#009688"/>
<path d="M389.861 147.22L389.821 147.213H389.785L389.825 147.256L389.861 147.285L389.901 147.293L389.952 147.271L389.905 147.238L389.861 147.22Z" fill="#009688"/>
<path d="M388.857 151.475L388.832 151.478L388.803 151.482L388.828 151.504L388.843 151.522L388.864 151.533L388.904 151.518L388.879 151.482L388.857 151.475Z" fill="#009688"/>
<path d="M389.387 152.864L389.383 152.85L389.365 152.853L389.35 152.864L389.343 152.875L389.336 152.879L389.35 152.89L389.361 152.904L389.379 152.915L389.405 152.911L389.39 152.879L389.387 152.864Z" fill="#009688"/>
<path d="M389.104 151.783H389.061L389.075 151.794L389.122 151.83L389.14 151.841L389.155 151.79L389.137 151.779L389.104 151.783Z" fill="#009688"/>
<path d="M388.871 150.57L388.897 150.618L388.904 150.654L388.907 150.694L388.911 150.737L388.962 150.679L388.965 150.628L388.936 150.592L388.871 150.57Z" fill="#009688"/>
<path d="M387.964 152.637L387.928 152.695L387.95 152.691L388.004 152.684L387.982 152.64L387.964 152.637Z" fill="#009688"/>
<path d="M387.082 150.68L387.1 150.839L387.147 150.781L387.155 150.745L387.126 150.712L387.082 150.68Z" fill="#009688"/>
<path d="M389.673 151.416L389.643 151.431L389.604 151.452L389.633 151.474L389.654 151.492L389.68 151.5L389.72 151.492L389.698 151.431L389.673 151.416Z" fill="#009688"/>
<path d="M387.76 149.822L387.763 149.837L387.778 149.848L387.847 149.797L387.869 149.764L387.887 149.721L387.854 149.732L387.829 149.746L387.778 149.79L387.767 149.808L387.76 149.822Z" fill="#009688"/>
<path d="M387.816 149.398L387.826 149.384L387.841 149.369L387.819 149.376L387.801 149.384L387.787 149.391L387.779 149.416L387.801 149.409L387.816 149.398Z" fill="#009688"/>
<path d="M384.738 150.502L384.73 150.477L384.712 150.451L384.672 150.506L384.658 150.535L384.65 150.571L384.719 150.531L384.738 150.502Z" fill="#009688"/>
<path d="M384.522 145.22L384.584 145.202L384.522 145.191H384.489L384.453 145.199L384.489 145.22H384.522Z" fill="#009688"/>
<path d="M385.804 152.691L385.51 152.862L385.651 152.858L386.011 152.713L386.098 152.702L385.974 152.641L385.804 152.691Z" fill="#009688"/>
<path d="M386.389 151.181L386.418 151.25L386.472 151.184L386.483 151.13L386.454 151.119L386.389 151.181Z" fill="#009688"/>
<path d="M386.214 151.166L386.152 151.083L386.054 150.985L385.949 150.898L385.865 150.84L385.633 150.785L385.353 150.836L385.088 150.97L384.892 151.163L384.849 151.308L384.823 151.337L384.754 151.38L384.736 151.402L384.74 151.54L384.816 151.635L384.929 151.696L385.052 151.74L385.372 151.805L385.651 151.794L386.221 151.674L386.257 151.598L386.261 151.446L386.246 151.282L386.214 151.166Z" fill="#009688"/>
<path d="M387.038 151.533L387.009 151.482L386.98 151.504L386.965 151.526L386.958 151.551L386.947 151.584L387.045 151.675L387.056 151.624L387.052 151.577L387.038 151.533Z" fill="#009688"/>
<path d="M387.931 150.136L387.891 150.07L387.796 150.136L387.789 150.223L387.778 150.132L387.742 150.179L387.709 150.23L387.684 150.284L387.662 150.339L387.738 150.357L387.778 150.31L387.789 150.241L387.778 150.339L387.931 150.136Z" fill="#009688"/>
<path d="M387.674 150.019L387.667 149.954L387.677 149.888L387.703 149.823L387.587 149.856L387.481 149.921L387.383 150.001L387.3 150.088L387.333 149.892L387.467 149.714L387.779 149.398L387.67 149.446L387.565 149.464L387.46 149.467L387.351 149.489L387.249 149.533L387.057 149.642L386.955 149.689L386.628 149.794L386.52 149.849L386.382 149.961L386.309 149.983L386.204 149.943L386.175 149.986L386.149 150.034L386.124 150.088L386.109 150.135L386.193 150.15L386.258 150.201L386.309 150.273L386.342 150.353L386.425 150.331L386.607 150.291L386.676 150.266L386.77 150.19L386.835 150.124L386.908 150.077L387.035 150.07L387.064 150.081L387.162 150.135L387.22 150.15L387.34 150.143L387.572 150.084H387.699L387.674 150.019Z" fill="#009688"/>
<path d="M373.133 144.272L373.187 144.28L373.256 144.262L373.194 144.222L373.165 144.185L373.14 144.16L373.107 144.156L373.053 144.174L373.089 144.236L373.133 144.272Z" fill="#009688"/>
<path d="M361.746 140.08L361.727 140.109L361.717 140.138L361.713 140.207L361.771 140.349L361.785 140.28V140.214L361.775 140.145L361.746 140.08Z" fill="#009688"/>
<path d="M360.828 138.98L360.756 139.104L360.908 139.144L360.905 139.049L360.828 138.98Z" fill="#009688"/>
<path d="M365.844 141.419L365.942 141.423L366.011 141.409L365.92 141.336L365.8 141.271L365.706 141.26L365.691 141.343L365.746 141.39L365.844 141.419Z" fill="#009688"/>
<path d="M361.833 139.699L361.75 139.67L361.67 139.724L361.71 139.811L361.855 140.055L361.939 139.939L362.011 139.815L361.92 139.764L361.833 139.699Z" fill="#009688"/>
<path d="M367.139 141.957L367.179 142.059L367.288 142.077L367.27 141.957L367.226 141.834L367.157 141.725L367.07 141.648L367.121 141.808L367.139 141.957Z" fill="#009688"/>
<path d="M372.192 143.307L372.322 143.242L372.402 143.158L372.282 143.133L372.173 143.14L372.075 143.176L371.988 143.231L372.061 143.314L372.192 143.307Z" fill="#009688"/>
<path d="M362.621 140.665L362.577 140.596L362.461 140.763L362.501 140.817L362.548 140.864L362.599 140.908L362.657 140.944L362.635 140.828L362.621 140.665Z" fill="#009688"/>
<path d="M363.568 140.891L363.506 141.01L363.553 141.047H363.578L363.615 141.025L363.593 140.956L363.568 140.891Z" fill="#009688"/>
<path d="M363.193 140.586L363.139 140.492L363.088 140.441L362.976 140.383L362.925 140.343L362.896 140.27L362.892 140.198L362.874 140.14L362.798 140.1L362.718 140.132L362.609 140.216L362.515 140.31L362.475 140.379L362.5 140.477L362.573 140.473L362.674 140.434L362.783 140.419L362.834 140.463L362.841 140.51L362.845 140.568L362.878 140.63L362.939 140.68L363.074 140.753L363.132 140.815L363.193 140.757L363.211 140.677L363.193 140.586Z" fill="#009688"/>
<path d="M364.486 141.337L364.635 141.395L364.664 141.315L364.606 141.246L364.486 141.337Z" fill="#009688"/>
<path d="M363.386 140.717L363.299 140.728L363.237 140.786L363.201 140.88L363.285 140.953L363.379 140.956L363.437 140.902L363.412 140.808L363.481 140.753L363.386 140.717Z" fill="#009688"/>
<path d="M365.209 140.699L365.176 140.626L365.143 140.586L365.423 140.753L365.375 140.648L365.35 140.568L365.325 140.496L365.263 140.408L365.161 140.314L364.098 139.704L363.844 139.617L363.927 139.701L364.065 139.886L364.149 139.973L364.232 140.045L365.129 140.579H365.089L365.045 140.634L365.081 140.67L365.118 140.692L365.158 140.706L365.209 140.699Z" fill="#009688"/>
<path d="M367.075 141.83L367.043 141.699L366.956 141.467L366.894 141.35L366.727 141.162L366.662 141.071L366.629 140.984L366.614 140.817L366.585 140.715L366.516 140.603L366.433 140.527L366.335 140.49L366.219 140.494L366.237 140.545L366.291 140.628L366.306 140.672V140.715L366.299 140.81L366.302 140.853L366.342 141.002L366.397 141.147L366.527 141.427L366.68 141.543L366.937 141.822L367.075 141.939V141.83Z" fill="#009688"/>
<path d="M366.232 141.908L366.003 141.784L365.836 141.726L365.774 141.722L365.637 141.737L365.575 141.73L365.52 141.708L365.419 141.643L365.23 141.566L365.179 141.577L365.121 141.65L365.139 141.86L365.237 142.013L365.393 142.115L366.05 142.263L366.319 142.285L366.468 142.223L366.421 142.064L366.232 141.908Z" fill="#009688"/>
<path d="M365.844 144.158L365.644 144.074L365.535 144.118L365.666 144.216L365.858 144.328L366.054 144.412H366.196L366.054 144.292L365.844 144.158Z" fill="#009688"/>
<path d="M368.03 143.04L367.954 142.949L367.874 142.909L367.79 142.898H367.696L367.601 142.88L367.257 142.681L367.086 142.615L366.984 142.699L367.017 142.724L367.042 142.731L367.072 142.735L367.111 142.753L367.159 142.793L367.18 142.822L367.191 142.851L367.326 143.025L367.384 143.083L367.478 143.149L367.652 143.229L367.83 143.272L368.193 143.309L368.12 143.229L368.03 143.04Z" fill="#009688"/>
<path d="M362.483 139.413L362.668 139.453L362.799 139.417L362.751 139.391L362.642 139.348L362.595 139.322L362.508 139.228L362.403 139.054L362.338 138.959L362.2 138.843L361.989 138.712L361.771 138.614L361.615 138.604L361.684 138.745L361.84 138.934L362.152 139.235L362.29 139.326L362.483 139.413Z" fill="#009688"/>
<path d="M362.287 139.977L362.207 140.027L362.178 140.144L362.258 140.234L362.352 140.263L362.428 140.223L362.439 140.104L362.377 139.998L362.287 139.977Z" fill="#009688"/>
<path d="M362.864 140.923L362.803 140.908L362.727 140.919L362.77 140.955L362.821 140.984L362.879 141.006L362.937 141.021L362.912 140.959L362.864 140.923Z" fill="#009688"/>
<path d="M397.569 141.649V141.631L397.551 141.627L397.569 141.649Z" fill="#009688"/>
<path d="M396.128 140.746L396.113 140.742L396.131 140.775L396.128 140.746Z" fill="#009688"/>
<path d="M398.113 147.228L398.044 147.246L397.979 147.279L398.047 147.319L398.113 147.304L398.258 147.228L398.185 147.221L398.113 147.228Z" fill="#009688"/>
<path d="M395.801 146.371L395.928 146.541L396.004 146.629L396.073 146.683L396.153 146.694L396.269 146.69L396.378 146.676L396.432 146.661L396.483 146.443L396.276 146.367L395.801 146.371Z" fill="#009688"/>
<path d="M396.995 146.748L396.773 146.727L396.617 146.759L396.744 146.879L396.966 146.966L397.176 146.995L397.271 146.923L397.191 146.814L396.995 146.748Z" fill="#009688"/>
<path d="M394.367 152.295L394.465 152.338L394.509 152.269L394.48 152.215L394.367 152.295Z" fill="#009688"/>
<path d="M393.177 155.26L393.155 155.286L393.111 155.268L393.159 155.257L393.05 155.217L393.013 155.195L392.981 155.166L392.934 155.21L392.981 155.268L393.035 155.311L393.159 155.398L393.188 155.362L393.213 155.322L393.235 155.282L393.249 155.239L393.206 155.257L393.177 155.26Z" fill="#009688"/>
<path d="M393.412 155.452L393.365 155.499L393.387 155.561L393.402 155.59L393.423 155.619L393.431 155.579L393.434 155.485L393.431 155.441L393.412 155.452Z" fill="#009688"/>
<path d="M355.622 140.676L355.607 140.806L355.633 140.941L355.695 141.031L355.684 140.966V140.897L355.691 140.832L355.709 140.766L355.705 140.726L355.687 140.643V140.596L355.622 140.676Z" fill="#009688"/>
<path d="M355.191 141.965L355.318 141.994L355.383 142.042L355.409 142.031L355.423 142.013L355.434 141.994L355.445 141.973L355.412 141.842L355.322 141.74L355.202 141.679L355.075 141.664L354.948 141.708L354.962 141.766L354.999 141.849L354.93 141.954L355.191 141.965Z" fill="#009688"/>
<path d="M354.618 141.515L354.574 141.631L354.614 141.729L354.701 141.802L354.799 141.806L354.857 141.697L354.803 141.584L354.709 141.512L354.618 141.515Z" fill="#009688"/>
<path d="M355.851 142.339L355.771 142.383L355.648 142.401L355.583 142.35L355.307 142.049L355.343 142.143L355.387 142.23L355.441 142.307L355.503 142.376L355.535 142.474L355.612 142.521L355.71 142.553L355.815 142.597L355.869 142.376L355.851 142.339Z" fill="#009688"/>
<path d="M355.366 143.015L355.318 143.058L355.398 143.098L355.431 143.106L355.424 143.033L355.402 143.004L355.366 143.015Z" fill="#009688"/>
<path d="M350.671 133.646L350.747 133.653L351.219 133.631L351.393 133.584L351.535 133.515L351.582 133.428L351.422 133.457L350.889 133.406L350.664 133.45L350.609 133.58L350.617 133.617L350.671 133.646Z" fill="#009688"/>
<path d="M346.896 140.604L346.965 140.662L347.111 140.763L347.183 140.821L347.22 140.839L347.343 140.887L347.256 140.781L347.143 140.716L347.02 140.665L346.896 140.604Z" fill="#009688"/>
<path d="M351.165 137.017L351.121 137.101L351.143 137.184L351.208 137.231L351.288 137.238L351.357 137.199L351.332 137.075L351.252 137.01L351.165 137.017Z" fill="#009688"/>
<path d="M360.926 138.331L360.817 138.219L360.523 137.979L360.425 137.874L360.121 137.485L360.023 137.413L359.921 137.362L359.808 137.322L359.703 137.268L359.71 137.355L359.707 137.438L359.678 137.605L359.71 137.739L359.765 137.837L360.171 138.251L360.197 138.298L360.211 138.349L360.24 138.444L360.302 138.571L360.382 138.687L360.494 138.778L360.636 138.832L360.745 138.828L360.941 138.77L361.017 138.778L361.057 138.632L361.017 138.476L360.926 138.331Z" fill="#009688"/>
<path d="M352.664 137.592L352.73 137.65L352.835 137.708L353.089 137.798L353.205 137.853L353.383 137.994L353.445 138.02H353.514L353.655 137.98L353.728 137.976L353.848 138.024L354.047 138.172L354.167 138.227L354.305 138.241L354.744 138.209L354.969 138.161L355.63 137.896L355.804 137.78L356.058 137.486L356.182 137.388L356.338 137.367L356.512 137.381L356.675 137.359L356.791 137.229L356.784 137.12L356.661 136.927L356.668 136.815L356.737 136.764L356.846 136.728L356.966 136.673L357.06 136.575L357.096 136.437L357.082 136.176L357.118 136.038L357.06 136.027L356.886 135.976L356.799 135.896L356.675 135.98L356.628 135.965L356.519 135.918L356.468 135.9L356.229 135.896L356.189 136.013L356.301 136.401L356.269 136.608L356.145 136.691L355.967 136.742L355.779 136.844L355.699 136.938L355.579 137.152L355.506 137.247L355.452 137.276L355.321 137.316L355.263 137.341L355.176 137.348L355.107 137.33L355.038 137.305L354.958 137.294L354.893 137.308L354.839 137.338L354.781 137.363H354.715L354.639 137.33L354.585 137.276L354.545 137.203L354.526 137.12L354.537 137.062L354.592 136.924L354.603 136.887L354.574 136.815L354.548 136.8L354.512 136.84L354.458 136.927L354.389 137.102L354.37 137.214L354.312 137.29L354.134 137.356L353.877 137.392L353.06 137.338L352.853 137.341L352.788 137.33L352.737 137.316H352.69L352.632 137.359L352.592 137.446L352.61 137.526L352.664 137.592Z" fill="#009688"/>
<path d="M351.988 137.347L351.992 137.488L352.072 137.608L352.184 137.677L352.282 137.652L352.308 137.496L352.206 137.401L352.079 137.336L351.988 137.347Z" fill="#009688"/>
<path d="M352.019 133.798L352.088 133.747L352.011 133.74L351.975 133.751L351.932 133.784L351.982 133.806L352.019 133.798Z" fill="#009688"/>
<path d="M350.003 136.485L350.04 136.423V136.332L349.996 136.26L349.934 136.3L349.884 136.365L349.869 136.434L349.92 136.488L350.003 136.485Z" fill="#009688"/>
<path d="M354.05 132.934L354.112 132.963L354.181 132.974L354.148 132.847L354.065 132.749L353.981 132.73L353.941 132.843L353.992 132.897L354.05 132.934Z" fill="#009688"/>
<path d="M347.256 140.657L347.329 140.643L347.289 140.57L347.216 140.541H347.027L347.096 140.599L347.173 140.639L347.256 140.657Z" fill="#009688"/>
<path d="M359.601 136.822L359.492 136.898L359.521 136.986L359.558 137.174L359.587 137.265L359.674 137.116L359.67 136.931L359.601 136.822Z" fill="#009688"/>
<path d="M357.386 134.789L357.412 134.695L357.35 134.611L357.303 134.629L357.306 134.702L357.386 134.789Z" fill="#009688"/>
<path d="M359.139 143.881L359.081 143.863L359.001 143.859L359.019 143.921L358.914 143.903L358.965 143.961L359.03 143.986H359.106L359.186 143.979L359.175 143.921L359.139 143.881Z" fill="#009688"/>
<path d="M358.338 143.995L358.004 143.875L358.029 143.937L358.051 143.973L358.084 144.006L358.138 144.042L358.098 144.093L358.2 144.122L358.305 144.173L358.425 144.213L358.556 144.202L358.625 144.173L358.505 144.078L358.338 143.995Z" fill="#009688"/>
<path d="M358.505 135.772L358.512 135.721L358.515 135.703L358.501 135.714L358.454 135.747L358.436 135.765L358.501 135.794L358.505 135.772Z" fill="#009688"/>
<path d="M356.646 134.448L356.683 134.488L356.722 134.52L356.766 134.542L356.759 134.477L356.726 134.429L356.675 134.404L356.617 134.4L356.646 134.448Z" fill="#009688"/>
<path d="M357.406 141.221L357.242 141.261L357.376 141.326L357.478 141.413L357.587 141.478L357.743 141.486L357.739 141.344L357.598 141.253L357.406 141.221Z" fill="#009688"/>
<path d="M354.827 134.215L354.943 134.11L354.925 133.947L354.762 133.889L354.558 133.903L354.402 133.958L354.671 134.161L354.827 134.215Z" fill="#009688"/>
<path d="M355.596 134.357L355.705 134.401L355.927 134.535L356.431 134.923L356.533 134.989L356.62 135.025L356.802 135.072L356.881 135.108L357.197 135.421L357.361 135.805L357.48 136.208L357.658 136.586L357.756 136.459L357.847 136.179L357.927 136.052L357.858 135.845L357.684 135.657L357.295 135.363L356.878 134.963L356.733 134.847L355.364 134.07L355.379 134.136L355.371 134.19L355.335 134.23L355.273 134.255L355.379 134.299L355.596 134.357Z" fill="#009688"/>
<path d="M356.657 134.318L356.672 134.282L356.646 134.26L356.592 134.267L356.595 134.358L356.657 134.318Z" fill="#009688"/>
<path d="M345.905 142.571L345.84 142.553L345.789 142.589L345.869 142.665L345.905 142.571Z" fill="#009688"/>
<path d="M342.807 150.396L342.774 150.371L342.752 150.404L342.701 150.458L342.68 150.487L342.709 150.513L342.749 150.524L342.799 150.516L342.861 150.491L342.847 150.451L342.832 150.422L342.807 150.396Z" fill="#009688"/>
<path d="M342.857 149.693L342.657 149.73L342.476 149.868L342.389 150.049L342.552 150.053L342.831 149.86L342.998 149.82L342.857 149.693Z" fill="#009688"/>
<path d="M339.554 143.946L339.645 143.826L339.721 143.663L339.757 143.521L339.558 143.845L339.471 143.953L339.554 143.946Z" fill="#009688"/>
<path d="M340.028 148.985L340.057 149.021L340.086 148.955V148.887L340.057 148.821L340.01 148.756L339.952 148.854L339.938 148.89L339.963 148.919L340.028 148.985Z" fill="#009688"/>
<path d="M339.834 148.792L339.866 148.734V148.708L339.848 148.701L339.83 148.697L339.834 148.792Z" fill="#009688"/>
<path d="M345.742 142.532L345.749 142.506L345.742 142.481L345.724 142.438L345.666 142.517L345.713 142.583L345.742 142.532Z" fill="#009688"/>
<path d="M339.525 148.777L339.554 148.737L339.529 148.701L339.449 148.741L339.525 148.777Z" fill="#009688"/>
<path d="M355.623 158.037L355.594 158.121L355.797 158.353L355.862 158.313L355.797 158.153L355.623 158.037Z" fill="#009688"/>
<path d="M354.988 156.564L354.981 156.593L354.97 156.618L354.959 156.647L355.017 156.637L355.042 156.622L355.039 156.593L354.988 156.531V156.564Z" fill="#009688"/>
<path d="M354.319 156.361L354.308 156.387L354.301 156.459L354.326 156.546L354.355 156.499L354.366 156.452L354.363 156.401L354.348 156.336L354.319 156.361Z" fill="#009688"/>
<path d="M358.003 159.957L357.832 160.218L357.785 160.367L357.76 160.545L357.771 160.723L357.836 160.872L358.086 160.255L358.137 160.059L358.148 159.924L358.137 159.754L358.086 159.627L357.981 159.623L357.938 159.685L358.039 159.812L358.003 159.957Z" fill="#009688"/>
<path d="M339.092 144.273L339.186 144.233L339.284 144.182L339.368 144.12L339.422 144.033L339.241 144.135L339.161 144.193L339.092 144.273Z" fill="#009688"/>
<path d="M353.3 154.017V153.951L353.267 153.973L353.245 154.002L353.227 154.035L353.209 154.067L353.282 154.046L353.3 154.017Z" fill="#009688"/>
<path d="M350.113 151.841L350.237 152.033L350.313 152.095L350.375 152.044L350.382 151.928L350.32 151.859L350.219 151.83L350.113 151.841Z" fill="#009688"/>
<path d="M353.373 154.216L353.358 154.154L353.315 154.078L353.275 154.194L353.268 154.234L353.347 154.245L353.373 154.216Z" fill="#009688"/>
<path d="M345.811 143.21L345.837 143.145L345.779 143.047L345.746 143.065L345.728 143.083L345.71 143.105L345.695 143.134L345.746 143.214L345.811 143.21Z" fill="#009688"/>
<path d="M339.757 147.112L339.761 146.952L339.83 146.76V146.636L339.775 146.727H339.717L339.677 146.658L339.67 146.557L339.474 146.644L339.402 146.825L339.362 147.029L339.264 147.166L339.434 147.21L339.652 147.254L339.848 147.243L339.946 147.134L339.757 147.112Z" fill="#009688"/>
<path d="M341.028 173.156L340.665 173.141L340.668 173.003L340.534 172.967L340.345 172.985L339.783 173.094L339.594 173.177L339.492 173.333L339.63 173.45L339.772 173.508L339.924 173.522L340.258 173.511L340.403 173.515L340.538 173.504L340.675 173.453L340.737 173.406L340.777 173.362L340.832 173.326L340.93 173.304L341.002 173.319L341.082 173.344L341.155 173.355L341.22 173.319L341.209 173.203L341.028 173.156Z" fill="#009688"/>
<path d="M347.83 178.156L347.743 178.178L347.663 178.345L347.602 178.552L347.634 178.664L347.649 178.762L347.685 178.817L347.79 178.799L347.881 178.726L347.925 178.624L347.932 178.508L347.914 178.392L347.83 178.156Z" fill="#009688"/>
<path d="M313.452 160.908L313.318 160.553L313.292 160.564L313.271 160.575L313.234 160.614L313.285 160.789L313.347 160.945L313.51 161.261L313.503 161.09L313.452 160.908Z" fill="#009688"/>
<path d="M326.195 148.479L326.166 148.389L326.094 148.461L326.174 148.559L326.195 148.479Z" fill="#009688"/>
<path d="M326.882 147.562L326.871 147.478L326.824 147.475L326.77 147.602L326.82 147.66L326.882 147.562Z" fill="#009688"/>
<path d="M316.026 154.873L316.055 154.785L316.04 154.688L315.964 154.767L315.928 154.811L315.902 154.858L315.968 154.913L316.026 154.873Z" fill="#009688"/>
<path d="M351.419 183.246L351.31 183.373L351.23 183.402L351.31 183.522L351.43 183.504L351.514 183.399L351.477 183.261L351.419 183.246Z" fill="#009688"/>
<path d="M349.43 176.491L349.281 176.43L349.227 176.506L349.274 176.575L349.43 176.491Z" fill="#009688"/>
<path d="M352.515 178.643L352.221 178.396L352.163 178.367L351.963 178.509L352.094 178.654L352.235 178.89L352.395 179.024L352.584 178.875L352.5 178.817L352.551 178.719L352.515 178.643Z" fill="#009688"/>
<path d="M339.161 146.572L339.128 146.539L339.056 146.626L339.045 146.699L339.096 146.728L339.197 146.684L339.19 146.641L339.179 146.604L339.161 146.572Z" fill="#009688"/>
<path d="M358.222 163.13L358.219 163.217L358.244 163.257L358.259 163.268L358.284 163.275L358.349 163.09L358.371 162.985L358.36 162.912L358.284 162.891L358.241 162.992L358.222 163.13Z" fill="#009688"/>
<path d="M358.211 162.455L358.196 162.499L358.186 162.561L358.189 162.622L358.2 162.684L358.222 162.742L358.247 162.8L358.258 162.622L358.273 162.524L358.298 162.434H358.24L358.211 162.455Z" fill="#009688"/>
<path d="M352.588 179.098L352.527 179.105L352.236 179.196L352.331 179.276L352.545 179.29L352.617 179.355L352.708 179.305L352.726 179.228L352.683 179.152L352.588 179.098Z" fill="#009688"/>
<path d="M358.447 164.096L358.418 163.943L358 162.865L357.935 162.495L357.891 161.711L357.902 161.551L357.957 161.214L357.942 161.076L357.906 161.029L357.79 160.931L357.743 160.876L357.706 160.778L357.699 160.68V160.579L357.685 160.477L357.608 160.332L357.376 160.103L357.278 159.969L357.151 159.736L357.082 159.646L356.842 159.388L356.643 159.054L356.519 158.891L356.371 158.771L356.015 158.608L355.841 158.495L355.583 158.266L355.463 158.136L355.376 157.998L355.318 157.776V157.301L355.3 157.072L355.263 156.894L355.227 156.804L355.165 156.749L355.1 156.745L355.067 156.789V156.865L355.089 156.945L355.017 156.92L354.94 156.883L354.802 156.782L354.599 156.549L354.548 156.506L354.421 156.52L354.403 156.647L354.425 156.814L354.418 156.938L354.273 156.829L354.156 156.76L354.058 156.669L353.968 156.488L353.899 156.263L353.83 155.903L353.797 155.824L353.703 155.653L353.55 155.29L353.459 155.134L353.191 154.825L353.049 154.629L353.017 154.477L353.205 154.466L352.999 154.179L352.701 153.972L351.899 153.566L351.826 153.511L351.754 153.428L351.714 153.363L351.681 153.286L351.641 153.214L351.579 153.163H351.525L351.354 153.188L351.289 153.185L351.216 153.152L351.053 153.043L350.973 153.003L350.614 152.854L350.461 152.742L350.356 152.575L350.349 152.481L350.381 152.277L350.371 152.194L350.309 152.125L350.102 151.972L350.037 151.867L350.029 151.682L350.12 151.283L350.135 151.09L350.077 150.887L349.982 150.687L349.906 150.488V150.281L349.677 150.205L349.521 149.99L349.43 149.722L349.224 148.637L349.202 148.343L349.205 148.208L349.195 148.099L349.162 148.005L349.089 147.907L348.991 147.82L348.755 147.671L348.65 147.591L348.392 147.257L348.305 147.188L348.164 147.199L348.022 147.286L347.884 147.388L347.757 147.442L347.565 147.352L347.42 147.108L347.325 146.822L347.282 146.589L347.245 145.987L347.205 145.686L347.115 145.395L347.049 145.272L347.013 145.206L346.969 145.152L346.821 145.021L346.792 144.985L346.781 144.865L346.835 144.666L346.806 144.571L346.766 144.553L346.646 144.531L346.596 144.506L346.552 144.455L346.534 144.412L346.49 144.157L346.479 143.889L346.45 143.751L346.4 143.617L346.331 143.497L346.302 143.464L346.218 143.41L346.185 143.377V143.355L346.189 143.312L346.196 143.275L346.207 143.265L346.124 143.225L346.037 143.235L345.939 143.297L345.833 143.413L345.714 143.653L345.601 144.02L345.525 144.404L345.514 144.702L345.492 144.68L345.438 144.637L345.412 144.615L345.314 144.775L345.249 144.938L345.231 145.094L345.278 145.243L345.336 145.319L345.401 145.37L345.449 145.435L345.47 145.555L345.263 145.551L345.165 145.765L345.1 146.266L344.988 146.582L344.973 146.691L344.991 146.807L345.075 147.018L345.1 147.13L345.097 147.257L345.06 147.504L345.064 147.635L345.133 148.041L345.129 148.176L345.082 148.433L344.944 148.949L344.85 149.464L344.777 149.715L344.679 149.954L344.425 150.43L344.323 150.669L344.193 150.887L343.979 151.061L343.717 151.163L343.478 151.181L343.238 151.127L342.61 150.829L342.516 150.771L342.45 150.68L342.385 150.473L342.334 150.383L342.131 150.234L341.888 150.168L341.63 150.125L341.387 150.056L341.169 149.918L340.806 149.569L340.603 149.424L340.146 149.177L340.04 149.148L339.804 149.108L339.714 149.069L339.674 149.01V148.952V148.898L339.648 148.851L339.594 148.836L339.398 148.814L339.311 148.775L339.231 148.709L339.028 148.481L338.915 148.393L338.538 148.161L338.32 147.954L338.291 147.751L338.4 147.53L338.734 147.065L338.81 146.88L338.832 146.68L338.803 146.274L338.828 146.154L338.904 146.067L339.151 145.958L339.184 145.954L339.227 145.965L339.282 145.998L339.332 146.034L339.351 146.049L339.467 145.972L339.499 145.863L339.496 145.635L339.543 145.511L339.623 145.41L339.717 145.304L339.815 145.181L339.902 145.025L339.891 144.971L339.804 144.945L339.674 144.887L339.59 144.793L339.536 144.687L339.47 144.615L339.365 144.608L339.22 144.687L339.209 144.789L339.245 144.898L339.256 144.989L339.176 145.119L339.093 145.127L339.006 145.065L338.919 144.978L338.879 144.923L338.864 144.887L338.842 144.858L338.777 144.829L338.737 144.84L338.646 144.912L338.606 144.916L338.563 144.84L338.614 144.753L338.777 144.608L338.708 144.586L338.73 144.549L338.748 144.513L338.77 144.477L338.806 144.444L338.207 144.778L338.033 144.843L337.906 144.854L337.779 144.822L337.608 144.745L337.583 144.724L337.536 144.662L337.503 144.644H337.463L337.383 144.677L337.336 144.684L337.086 144.68L336.995 144.662L336.9 144.622L336.719 144.52L336.621 144.481L336.523 144.455L336.218 144.43L336.062 144.39L335.906 144.328L335.804 144.274L335.746 144.223L335.619 144.085L335.554 144.023L335.507 143.994L335.452 143.983L335.369 143.972L335.336 143.987L335.274 144.049L335.242 144.059L335.195 144.045L335.165 144.016L335.133 143.983L334.871 143.78L334.799 143.755L334.741 143.769L334.704 143.805L334.675 143.842L334.643 143.856L334.4 143.751L334.287 143.744L334.283 143.863L334.331 143.907L334.53 144.041L334.596 144.074L334.683 144.081L334.875 144.049L334.977 144.063L335.147 144.216L335.155 144.404L335.136 144.604L335.238 144.782L335.122 144.775L335.017 144.796L334.937 144.862L334.904 144.978L334.842 144.905L334.784 144.887L334.65 144.898L334.323 144.905L333.92 144.96L333.757 144.905L333.659 144.72L333.616 144.796L333.557 144.818L333.496 144.822L333.438 144.854L333.394 144.92L333.372 144.956L333.369 144.971L333.289 145.029L333.238 145.087L333.205 145.163L333.187 145.275L333.115 145.199L333.049 145.148L332.984 145.13L332.908 145.167L332.893 145.21L332.908 145.337L332.897 145.381L332.857 145.402L332.744 145.392L332.701 145.406L332.661 145.457L332.617 145.573L332.585 145.628L332.534 145.675L332.483 145.7L332.436 145.733L332.4 145.791L332.389 145.925L332.44 146.023L332.476 146.114L332.429 146.234L332.338 146.306L332.127 146.382L332.033 146.455L331.986 146.553L331.942 146.782L331.906 146.883L331.819 146.978L331.706 147.072L331.608 147.177L331.565 147.304L331.587 147.406L331.659 147.493L331.764 147.548L331.888 147.562L331.815 147.653L331.844 147.744L331.942 147.82L332.058 147.874L331.888 147.9L331.83 147.965L331.819 148.23L331.699 148.07L331.626 147.998L331.536 147.954L331.412 147.951L331.372 148.012V148.121L331.354 148.255L331.209 148.049L331.017 147.885L330.773 147.805L330.494 147.849L330.443 147.885L330.276 148.03L330.233 148.078L330.211 148.168L330.229 148.248L330.262 148.324L330.287 148.415L330.225 148.357L330.171 148.353L330.124 148.386L330.08 148.448L330.095 148.31L330.153 148.038L330.178 147.784L330.167 147.726L330 147.577L329.489 147.036L329.278 146.883L328.995 146.716L328.911 146.68L328.781 146.651L328.719 146.669L328.581 146.931L328.53 147.003L328.469 147.047L328.363 147.061L328.269 147.032L328.204 146.996L328.142 147.003L328.069 147.108L328.044 147.039L328.004 146.956L327.946 146.894L327.877 146.887L327.848 146.923L327.859 146.985L327.884 147.054L327.895 147.112L327.859 147.254L327.804 147.388L327.659 147.631L327.616 147.537L327.557 147.471L327.485 147.461L327.405 147.53L327.441 147.388L327.456 147.308L327.452 147.257L327.394 147.199L327.358 147.235L327.34 147.301L327.332 147.337L327.296 147.388L327.274 147.432L327.245 147.475L327.191 147.53L327.129 147.566L327.075 147.58L327.024 147.602L326.969 147.649L326.908 147.722L326.882 147.765L326.89 147.816L326.919 147.903L326.955 147.958L327.067 148.088L327.093 148.11L327.042 148.186L326.937 148.176L326.712 148.074L326.668 148.15L326.541 148.223L326.505 148.277L326.519 148.361L326.581 148.415L326.665 148.433L326.752 148.422L326.755 148.484L326.748 148.531L326.726 148.568L326.686 148.608L326.628 148.539L326.541 148.462L326.443 148.408L326.36 148.393L326.327 148.419L326.269 148.539L326.229 148.597L326.156 148.644L326.095 148.651L326.044 148.68L326 148.793L325.993 148.905L326.026 148.996L326.077 149.087L326.12 149.192L326.146 149.134L326.185 149.079L326.229 149.036L326.28 149L326.254 149.156L326.233 149.243L326.204 149.301L326.16 149.326L326.055 149.352L326.022 149.377L326 149.54L326.116 149.598L326.283 149.628L326.418 149.689L326.276 149.675L325.993 149.678L325.859 149.657L325.804 149.628L325.71 149.555L325.655 149.537L325.597 149.555L325.532 149.591L325.481 149.628L325.463 149.646L325.358 149.588L325.285 149.504L325.22 149.457L325.133 149.519L325.14 149.54L325.118 149.736L325.093 149.765L325.017 149.773L324.999 149.805L325.038 149.911L325.133 150.023L325.234 150.136L325.311 150.23L325.343 150.259L325.369 150.255L325.383 150.266L325.394 150.332L325.391 150.379L325.38 150.441L325.365 150.499L325.343 150.528L325.253 150.513L325.205 150.451L325.165 150.415L325.1 150.477L325.078 150.568L325.071 150.989L324.977 150.854L324.447 149.824L324.385 149.726L324.316 149.787L324.116 150.096L324.037 150.201L323.75 150.422L323.623 150.549L323.532 150.713L323.499 150.876V151.065L323.528 151.254L323.583 151.41L323.655 151.537L323.692 151.613L323.663 151.686L323.554 151.805L323.158 152.147L323.046 152.281L322.944 152.459L322.766 152.829L322.661 153.007L322.403 153.286L322.087 153.504L321.739 153.667L320.824 153.914L320.654 153.943H320.469L320.312 153.925L320.16 153.929L319.993 153.99L319.663 154.179L319.503 154.245L319.097 154.375L318.541 154.658L318.204 154.727L317.557 154.702L317.224 154.811L316.802 155.076L316.106 155.62L315.939 155.733L315.761 155.824L315.401 155.98L315.245 156.081L315.107 156.23L314.908 156.6L314.792 156.756L314.606 156.858L314.625 156.745L314.606 156.662L314.574 156.579L314.552 156.477L314.559 156.375L314.592 156.176L314.585 156.074L314.425 156.19L314.32 156.372L314.189 156.771L314.145 156.996L314.156 157.203L314.189 157.417L314.196 157.649L314.098 158.038L313.931 158.422L313.797 158.814L313.801 159.225L313.859 159.395L314.625 160.905L314.704 161.123L314.73 161.348L314.665 161.533L314.519 161.609L314.414 161.497L314.283 161.163L314.262 161.25L314.218 161.308L314.164 161.319L314.106 161.257L314.091 161.188L314.127 161.01V160.934L314.087 160.858L314.008 160.76L313.913 160.677L313.837 160.651L313.772 160.72L313.801 160.836L313.975 161.156L314.236 161.544L314.28 161.653L314.276 161.762L314.189 161.853L314.029 161.838L313.91 161.657L313.732 161.243L313.728 161.359L313.692 161.417L313.63 161.421L313.543 161.37L314.153 162.212L314.414 162.673L314.563 163.152L314.592 163.598L314.632 163.74L314.694 163.849L314.944 164.165L315.002 164.277L315.104 164.597L315.165 164.72L315.329 164.941L315.405 165.058L315.489 165.312L315.514 165.569L315.521 166.099L315.594 166.571L315.655 166.804L315.743 167.018L316.225 167.94L316.367 168.419L316.363 168.956L316.338 169.072L316.28 169.265L316.262 169.377L316.265 169.522L316.309 169.813L316.305 169.958L316.2 170.252L316.033 170.412L315.815 170.441L315.55 170.328L315.528 170.974L315.539 171.087L315.55 171.148L315.568 171.196L315.619 171.286L315.659 171.315L315.703 171.319L315.775 171.33L315.997 171.399L316.106 171.439L316.214 171.5L316.334 171.602L316.541 171.845L316.654 171.947L316.944 172.092L317.26 172.176L318.461 172.299L318.73 172.281L319.006 172.197L319.285 172.03L319.793 171.642L320.095 171.522L320.349 171.468L320.45 171.417L320.556 171.319L320.737 171.076L320.835 170.981L320.98 170.905L321.14 170.876L321.608 170.88L322.251 170.76L322.853 170.735L323.155 170.76L323.43 170.822L323.507 170.858L323.521 170.88L323.539 170.894L323.63 170.909L323.728 170.905L324.196 170.807L324.251 170.8L324.36 170.811L324.548 170.88L324.639 170.898L324.908 170.858L325.14 170.724L325.34 170.52L325.503 170.274L325.681 169.885L325.764 169.769L325.899 169.671L326.044 169.62L326.36 169.544L326.879 169.308L327.376 169.032L327.703 168.88L327.986 168.829L328.646 168.847L328.969 168.825L329.285 168.767L330.204 168.491L331.053 168.121L331.361 168.049L332.033 167.983L332.53 167.98L332.897 168.009L333.078 168.001L333.227 167.969L333.365 167.929L333.499 167.9L333.652 167.903L333.982 168.027L334.577 168.412L334.901 168.477L335.1 168.462H335.249L335.391 168.495L335.583 168.582L335.75 168.644L336.233 168.709L336.367 168.767L336.719 169.029L336.882 169.112L336.933 169.167L336.948 169.265L336.93 169.319L336.893 169.352L336.842 169.366L336.781 169.37L336.85 169.628L336.904 169.755L336.98 169.853L337.086 169.896L337.322 169.929L337.434 169.98L337.518 170.063L337.565 170.154L337.634 170.353L337.692 170.462L337.906 170.742L338.018 170.916L338.12 171.123L338.2 171.341L338.236 171.548L338.204 171.696L338.004 171.569L337.917 171.682L338.051 171.686L338.171 171.769L338.41 172.016L338.465 172.099L338.501 172.128L338.523 172.121L338.588 172.063L338.617 172.056L338.857 172.183L338.879 172.099L338.835 171.82V171.718L338.919 171.569L339.282 171.108L339.543 170.891L340.135 170.549L340.349 170.31L340.556 169.882L340.763 169.602L340.828 169.482L340.861 169.348L340.871 169.167L340.951 169.272L341.013 169.388L341.053 169.515L341.071 169.646L341.06 169.773L341.028 169.86L340.988 169.943L340.962 170.056L340.966 170.186L340.988 170.281L340.995 170.372L340.955 170.488L340.879 170.604L340.708 170.829L340.639 170.956L340.574 171.199L340.556 171.675L340.508 171.907L340.44 172.045L340.374 172.085L340.287 172.088L340.077 172.125H340.051L340.033 172.136L339.989 172.179L339.95 172.248L339.873 172.51L340.084 172.506L340.371 172.462L340.636 172.397L340.795 172.321L340.871 172.201L340.922 172.049L340.991 171.74L341.086 171.442L341.213 171.156L341.489 171.573L341.601 171.794L341.666 172.023L341.652 172.303L341.557 172.528L341.43 172.742L341.318 172.981L341.543 173.007L341.746 172.978L341.942 172.912L342.131 172.825L342.327 172.698L342.436 172.655L342.538 172.68L342.57 172.742V172.818L342.552 172.905L342.545 172.981L342.447 172.912H342.374L342.298 172.938L342.189 172.941L342.291 173.101L342.443 173.239L342.61 173.37L342.755 173.5L342.886 173.671L343.02 173.885L343.129 174.11L343.176 174.317L343.151 174.535L343.097 174.727L343.075 174.916L343.147 175.13L343.22 175.228L343.481 175.486L343.554 175.58L343.681 175.784L343.753 175.874L343.931 176.005L344.127 176.067L344.327 176.107L344.534 176.172L344.636 176.245L344.81 176.422L344.904 176.488L345.028 176.52L345.097 176.488L345.158 176.43L345.253 176.382L345.369 176.379L345.467 176.412L345.561 176.459L345.663 176.495L345.768 176.513L345.979 176.524L346.087 176.542L346.291 176.626L346.879 176.971L347.118 177.05L347.314 177.054L347.499 176.978L347.899 176.677L348.331 176.444L348.519 176.303L348.45 176.266L348.378 176.241L348.218 176.208L348.596 175.98L348.784 175.936L348.948 176.049L348.988 176.216L348.915 176.368L348.766 176.466L348.577 176.473L348.712 176.586L348.828 176.644L348.951 176.629L349.104 176.528L349.195 176.437L349.307 176.343L349.412 176.328L349.481 176.488L349.445 176.589L349.376 176.669L349.372 176.753L349.525 176.858L349.67 176.92L349.772 176.971L349.848 177.054L349.931 177.214L350.116 177.134L350.229 177.246L350.312 177.417L350.414 177.522L350.519 177.45L350.552 177.272L350.508 177.137L350.374 177.203L350.258 177.025L350.4 176.956L350.861 176.909L351.086 176.782L351.685 176.212L352.175 175.943L352.665 175.845L353.721 175.769L353.844 175.733L353.935 175.678L354.124 175.54L354.244 175.468L354.323 175.41L354.371 175.333L354.407 175.203L354.447 174.491L354.596 173.5L354.665 173.265L354.77 173.047L355.151 172.43H355.162L355.227 172.393L355.249 172.375L355.238 172.368L355.224 172.335L355.216 172.299V172.27L355.245 172.245L355.285 172.234L355.34 172.223L355.347 172.157V171.936L355.398 171.657L355.492 171.413L355.63 171.192L355.815 170.978L355.786 170.967L355.757 170.96L355.728 170.952L355.695 170.949L355.801 170.905L355.855 170.836L355.884 170.738L355.92 170.43L355.935 170.379L356.356 169.715L356.479 169.591L356.752 169.435L356.879 169.337L356.85 169.323L356.839 169.312L356.832 169.301L356.821 169.286L356.955 169.225L357.082 169.112L357.191 168.967L357.26 168.818L357.271 168.745L357.274 168.597L357.289 168.531L357.343 168.444L357.489 168.281L357.55 168.197L357.634 168.027L357.692 167.853L357.772 167.49L357.79 167.304L357.793 166.938L357.815 166.756L357.855 166.586L358.029 166.078L358.167 165.261L358.225 165.105L358.396 164.811L358.454 164.662L358.469 164.502L358.465 164.299L358.447 164.096Z" fill="#009688"/>
<path d="M352.432 179.481L352.486 179.376L352.453 179.365H352.421L352.388 179.373L352.355 179.387L352.388 179.438L352.406 179.46L352.432 179.481Z" fill="#009688"/>
<path d="M335.042 143.525L335.013 143.532L334.984 143.551L334.995 143.627L335.01 143.714L335.039 143.797L335.086 143.866L335.13 143.776V143.674L335.09 143.471L335.068 143.511L335.042 143.525Z" fill="#009688"/>
<path d="M332.402 144.3H332.351L332.304 144.314L332.271 144.401L332.326 144.434L332.366 144.43L332.406 144.419L332.475 144.412L332.743 144.445L332.783 144.456L332.874 144.394L332.86 144.347L332.791 144.289L332.711 144.205L332.667 144.089L332.634 143.969L332.576 143.9L332.475 143.951L332.417 144.035L332.428 144.096L332.453 144.158L332.442 144.256L332.402 144.3Z" fill="#009688"/>
<path d="M352.333 182.262L352.297 182.276L352.25 182.313L352.272 182.392L352.308 182.411L352.355 182.385L352.413 182.327L352.37 182.273L352.333 182.262Z" fill="#009688"/>
<path d="M333.151 144.479L333.246 144.512L333.358 144.508L333.482 144.454L333.583 144.367L333.761 144.167L333.866 144.091L333.899 144.036L333.888 143.96L333.845 143.891L333.776 143.83L333.634 143.721L333.445 143.84L333.238 143.902L333.031 143.906L332.835 143.844L332.741 143.779L332.694 143.732L332.679 143.742L332.676 143.851L332.694 143.997L332.748 144.131L332.835 144.251L332.941 144.349L333.151 144.479Z" fill="#009688"/>
<path d="M352.582 180.361L352.56 180.06L352.465 179.842L352.335 179.748L352.24 179.759L352.153 179.817L352.052 179.864H351.986L351.852 179.831L351.794 179.839L351.754 179.871L351.696 179.973L351.656 180.002L351.213 180.016L350.992 180.078L350.945 180.271L350.832 180.18L350.683 180.194L350.516 180.242L350.356 180.263L350.182 180.227L350.015 180.162L349.478 179.857L349.358 179.799L349.242 179.762L348.915 179.719L348.745 179.679L348.578 179.592L348.571 179.701L348.498 180.013L348.531 180.22L348.585 180.427L348.658 180.626L348.745 180.815L349.035 181.24L349.151 181.472V181.69L349.18 181.675L349.206 181.664L349.231 181.65L349.26 181.621L349.318 181.751L349.413 181.857L349.467 181.966L349.413 182.104L349.373 181.991L349.304 181.893L349.213 181.81L349.111 181.737L349.17 182.031L349.257 182.296L349.376 182.546L349.696 183.033L349.787 183.149L349.888 183.229L349.99 183.247H350.088L350.179 183.258L350.255 183.32L350.099 183.323L350.019 183.367L350.008 183.454L350.052 183.592L350.16 183.555L350.291 183.537L350.422 183.53L350.538 183.545L350.625 183.585L350.73 183.643L350.839 183.69L350.941 183.693L351.013 183.632L351.072 183.523L351.115 183.403L351.137 183.305L351.155 183.174L351.148 183.171L351.133 183.182L351.119 183.131L351.111 183.04L351.304 183.145L351.416 183L351.46 182.746L351.445 182.525L351.511 182.597L351.565 182.681L351.598 182.771L351.616 182.869L351.7 182.801L351.732 182.652L351.819 182.619L351.903 182.634L351.954 182.677L351.983 182.735L351.997 182.801L351.964 182.815L351.903 182.819L351.859 182.855L351.881 182.975L351.935 183.055L352.012 183.109L352.099 183.12L352.182 183.058L352.211 182.957L352.193 182.819L352.131 182.561L352.128 182.441L352.142 182.336L352.302 181.73L352.371 181.552L352.462 181.374L352.458 181.418V181.439L352.454 181.465L352.429 181.508L352.502 181.566L352.534 181.639L352.553 181.715L352.592 181.781L352.603 181.574L352.553 180.928L352.582 180.361Z" fill="#009688"/>
<path d="M351.572 183.035L351.543 182.981L351.506 182.934L351.47 182.995L351.463 183.053L351.481 183.108L351.525 183.159H351.597L351.586 183.093L351.572 183.035Z" fill="#009688"/>
<path d="M349.104 176.648L349.035 176.717L349.1 176.706L349.166 176.709L349.228 176.724L349.286 176.756L349.238 176.677L349.177 176.637L349.104 176.648Z" fill="#009688"/>
<path d="M348.642 179.381L348.653 179.33L348.656 179.275L348.605 179.308L348.58 179.355V179.41L348.609 179.479L348.631 179.431L348.642 179.381Z" fill="#009688"/>
<path d="M399.034 152.672L398.947 152.803L399.053 152.875L399.074 152.763L399.034 152.672Z" fill="#009688"/>
<path d="M374.353 164.926L374.356 164.948V164.97L374.378 164.966H374.382L374.385 164.973L374.403 164.988L374.425 164.941L374.414 164.919L374.342 164.904L374.353 164.926Z" fill="#009688"/>
<path d="M381.358 180.325L381.26 180.368H381.155L381.253 180.321L381.329 180.249L381.395 180.162L381.449 180.067L381.373 180.042L381.297 180.031H381.112L381.108 180.133L381.061 180.249L380.981 180.35L380.887 180.412L380.952 180.274L380.981 180.147L381.024 180.031L381.115 179.926L380.974 179.976L380.854 180.035L380.32 180.383L380.19 180.401L380.077 180.292L380.059 180.22L380.063 180.049L380.048 179.976L379.994 179.893L379.936 179.849L379.87 179.82L379.798 179.762L379.711 179.628L379.689 179.497L379.754 179.407L379.939 179.385L379.714 179.359L379.5 179.446L379.308 179.595L379.159 179.77L379.046 180.002L378.941 180.517L378.843 180.76L378.687 180.938L378.375 181.156L378.259 181.341L378.113 181.715L378.077 181.915L378.128 182.06L377.95 182.14L377.877 182.307L377.845 182.499L377.794 182.659L377.798 182.59L377.794 182.535L377.776 182.481L377.747 182.423L377.565 182.626L377.496 182.739L377.485 182.862L377.398 182.786L377.308 182.797L377.271 182.858L377.348 182.949L377.264 182.898L377.173 182.888L377.086 182.913L377.006 182.975L377.039 183L377.083 183.051L377.108 183.076L376.966 183.058L376.807 183.167L376.647 183.316L376.513 183.421L376.567 183.45L376.509 183.479L376.495 183.49V183.515L376.484 183.577L376.266 183.635L375.979 183.755L375.765 183.922L375.758 184.111L375.638 184.06L375.544 184.093L375.453 184.165L375.344 184.223L375.239 184.241L375.141 184.238L375.043 184.249L374.93 184.299L374.705 184.466L374.487 184.695L374.342 184.949L374.346 185.192L374.237 185.123L374.106 185.149L373.986 185.236L373.899 185.338L373.87 185.407L373.859 185.468L373.852 185.621L373.841 185.574L373.805 185.479L373.79 185.432L373.681 185.512L373.58 185.603L373.544 185.701L373.623 185.802L373.456 185.799L373.377 185.897L373.413 186.024L373.591 186.111L373.511 186.125L373.471 186.162V186.216L373.507 186.289L373.424 186.256L373.268 186.172L373.191 186.14L373.206 186.176L373.224 186.245L373.246 186.285L373.148 186.278L373.079 186.314L373.043 186.387L373.039 186.485L373.112 186.492H373.184L373.253 186.485L373.326 186.466L373.184 186.55L373.126 186.648L373.173 186.721L373.34 186.739L373.181 186.808L372.988 186.837L372.825 186.891L372.756 187.022L372.799 187.094L372.868 187.105L372.948 187.069L373.021 187.004V187.069L373.017 187.116L372.995 187.16L372.945 187.221H373.025L373.101 187.196L373.173 187.149L373.242 187.102L373.075 187.439L373.355 187.494L373.794 187.439L374.103 187.45L374.164 187.512L374.255 187.646L374.32 187.69L374.415 187.704L374.509 187.69L374.607 187.682L374.701 187.719L374.796 187.813L374.828 187.897L374.861 187.962L374.963 188.013L375.057 188.024L375.133 188.009L375.206 187.991L375.297 187.98L375.384 187.995L375.558 188.053L375.649 188.071L375.852 188.074L376.055 188.038L376.244 187.966L376.404 187.853L377.064 187.167L377.133 187.116L377.21 187.08L377.318 187.036L377.442 187.004L377.507 186.982L377.544 186.946L377.547 186.877L377.511 186.822L377.467 186.768L377.446 186.706L377.475 186.601L377.838 185.86L377.877 185.675L377.779 185.555L377.954 185.446L378.055 185.131L378.088 184.789L378.048 184.615L378.157 184.601L378.226 184.546L378.284 184.47L378.353 184.405L378.418 184.379L378.868 184.223L378.974 184.176L379.035 184.122L379.054 184.049L379.028 183.976L378.93 183.809L379.115 183.958L379.199 184.002H379.308L379.355 183.958L379.391 183.886L379.442 183.849L379.54 183.915L379.449 183.98L379.42 183.998L379.573 183.98L379.616 183.984L379.805 184.053L379.856 184.067H379.965L380.059 184.053L380.117 183.995L380.121 183.882L380.066 183.788L379.979 183.751L379.874 183.73L379.776 183.675L379.718 183.577L379.685 183.483L379.623 183.436L379.475 183.476L379.587 183.421L379.663 183.356L379.674 183.283L379.583 183.203L379.732 183.149L379.925 183.033L380.113 182.898L380.248 182.786L380.375 182.623L380.56 182.245L380.665 182.067L381.271 181.283L381.373 181.102L381.38 180.96H381.206L381.264 180.858L381.246 180.771L381.21 180.677L381.217 180.561L381.293 180.47L381.402 180.408L381.493 180.332L381.525 180.18L381.446 180.256L381.358 180.325Z" fill="#009688"/>
<path d="M372.396 194.183L372.218 194.495L372.181 194.539L372.152 194.564L372.123 194.597L372.102 194.644L372.178 194.659L372.207 194.644L372.239 194.594L372.287 194.644L372.348 194.684L372.417 194.706L372.494 194.71L372.472 194.63L372.465 194.564V194.506L372.468 194.452L372.504 194.241L372.512 194.209L372.446 194.154L372.396 194.183Z" fill="#009688"/>
<path d="M374.569 188.56L374.489 188.451L374.605 188.473L374.576 188.379L374.515 188.284L374.431 188.204L374.348 188.168L374.228 188.179L374.199 188.241L374.21 188.331L374.213 188.437L374.159 188.585L373.988 188.85L373.912 188.999L374.054 188.981L374.264 188.919L374.467 188.839L374.602 188.774L374.711 188.662L374.671 188.611L374.569 188.56Z" fill="#009688"/>
<path d="M372.852 186.651L372.812 186.72L372.903 186.753L372.987 186.76L373.041 186.727L373.034 186.626L372.965 186.607L372.903 186.615L372.852 186.651Z" fill="#009688"/>
<path d="M373.245 186.002L373.234 186.053L373.274 186.096L373.361 186.125L373.354 186.082L373.311 185.947L373.245 186.002Z" fill="#009688"/>
<path d="M385.83 175.475L385.496 175.508L384.999 175.922L384.687 176.02L384.491 175.994L384.295 175.933L383.463 175.57L383.369 175.486L383.478 175.501L383.42 175.374L383.293 175.141L383.082 174.412L382.944 174.35L382.817 174.208L382.719 174.114L382.676 174.205L382.687 174.248L382.781 174.426L382.85 174.916L382.835 174.971L382.781 175.018L382.683 175.036L382.639 174.985L382.621 174.905L382.592 174.84L382.494 174.749L382.353 174.64L382.207 174.582L382.102 174.633L382.026 174.586L381.982 174.55L381.957 174.513L381.946 174.459L381.95 174.408L381.971 174.357L381.997 174.31L382.011 174.266L382.008 174.223L381.968 174.056L381.957 173.918L381.935 173.824L381.888 173.733L381.547 173.188L381.601 173.199L381.757 173.203L381.706 173.123V173.061L381.721 173.007L381.717 172.945L381.681 172.869L381.638 172.8L381.463 172.56L381.427 172.528H381.402L381.354 172.539L381.296 172.542L381.242 172.524L381.231 172.499L381.216 172.408L381.198 172.372L381.126 172.321L381.05 172.292L380.654 172.197L380.53 172.129L380.498 172.009L380.316 172.183L380.077 171.831L379.997 171.639L380.051 171.482L379.863 171.49L379.674 171.519L379.997 171.882L380.138 172.085L380.211 172.295L380.204 172.354L380.157 172.444V172.491L380.178 172.531L380.255 172.6L380.28 172.629L380.374 172.786L380.418 172.84L380.472 172.756L380.534 172.684L380.607 172.629L380.697 172.611L380.628 172.717L380.559 172.789L380.52 172.862V172.978L380.607 173.159L381.05 173.697L381.195 173.903L381.267 173.962L381.285 173.867L381.227 173.74L381.126 173.631L381.039 173.515L381.017 173.359L381.082 173.504L381.169 173.624L381.278 173.722L381.42 173.784L381.416 173.755L381.409 173.682L381.514 173.733L381.532 173.795L381.511 173.867L381.507 173.954L381.543 174.023L381.594 174.078L381.612 174.143L381.558 174.241L381.507 174.187L381.452 174.139L381.391 174.11L381.322 174.099L381.576 174.579L381.659 174.684L381.794 174.738L381.899 174.724L382.008 174.735L382.146 174.858L382.062 174.865L381.997 174.898L381.95 174.949L381.928 175.025L381.906 174.96L381.87 174.916L381.79 174.84L381.786 174.934L381.819 175.036L381.884 175.127L381.964 175.185L381.935 175.334L381.975 175.493L382.059 175.649L382.142 175.78L382.051 175.831L382.033 175.896L382.048 175.972L382.044 176.063L381.997 176.194L381.881 176.448L381.837 176.586L381.761 177.014L381.674 177.178L381.485 177.308L381.082 177.442L380.915 177.559L380.85 177.751L380.952 177.962L381.173 178.081L381.423 178.179L381.616 178.328L381.819 178.47L382.033 178.553L382.236 178.658L382.411 178.865L382.48 179.119L382.451 179.374L382.353 179.624L382.222 179.86L381.942 180.223L381.855 180.404L381.953 180.484L382.004 180.459L382.055 180.357L382.084 180.35L382.106 180.404L382.099 180.481L382.102 180.56L382.142 180.626L382.178 180.622L382.244 180.604L382.316 180.59L382.378 180.6L382.411 180.64L382.429 180.738L382.451 180.775L382.538 180.829L382.589 180.84L382.647 180.815L382.959 180.633L383.144 180.481L383.307 180.31L384.284 178.869L384.403 178.637L384.491 178.404L384.512 178.31L384.516 178.277L384.505 178.256L384.487 178.197L384.469 178.161L384.4 178.078L384.374 178.02L384.378 177.907L384.414 177.798L384.483 177.697L384.559 177.617L384.785 177.486L385.039 177.442L385.275 177.497L385.456 177.664L385.503 177.551L385.492 177.428L385.474 177.294L385.481 177.159L385.565 177.007L385.805 176.786L385.899 176.626L385.942 176.444L385.99 176.067L386.037 175.882L386.091 175.722V175.613L386.015 175.537L385.83 175.475Z" fill="#009688"/>
<path d="M381.063 179.746L381.07 179.645L380.987 179.688L380.922 179.753L380.882 179.833L380.867 179.931L380.958 179.891L381.023 179.826L381.063 179.746Z" fill="#009688"/>
<path d="M382.725 173.842L382.834 173.9L382.823 173.806L382.79 173.715L382.739 173.635L382.678 173.566L382.602 173.668L382.634 173.762L382.725 173.842Z" fill="#009688"/>
<path d="M391.822 183.85H391.626L391.445 183.886L391.281 183.984L391.557 184.027L391.568 184.125L391.506 184.253L391.557 184.39L391.63 184.398L391.728 184.365L391.811 184.314L391.851 184.271L391.815 184.194L391.731 184.136L391.677 184.071L391.731 183.973L391.713 183.962L391.648 183.929L391.724 183.904L391.779 183.911L391.804 183.959L391.797 184.046L391.84 183.98L391.895 183.929L391.96 183.89L392.025 183.868L391.822 183.85Z" fill="#009688"/>
<path d="M375.712 197.376L375.651 197.365L375.578 197.38L375.618 197.445L375.673 197.481L375.738 197.489L375.814 197.46L375.767 197.405L375.712 197.376Z" fill="#009688"/>
<path d="M391.967 184.574L391.97 184.607L391.978 184.64L391.981 184.672L391.978 184.709L392.043 184.661L392.072 184.614L392.05 184.578L391.967 184.574Z" fill="#009688"/>
<path d="M393.869 136.407L393.855 136.4L393.844 136.389L393.869 136.414V136.421L393.862 136.425L393.887 136.432L393.88 136.418L393.869 136.407Z" fill="#009688"/>
<path d="M15.5653 135.712H15.5508L15.5617 135.719L15.598 135.751L15.6125 135.762L15.6197 135.744L15.6234 135.726V135.708V135.693L15.5653 135.712Z" fill="#009688"/>
<path d="M376.174 132.162L376.131 132.154L376.149 132.191L376.174 132.162Z" fill="#009688"/>
<path d="M14.577 137.453H14.5589L14.5371 137.449L14.548 137.46L14.5625 137.471L14.5807 137.478L14.6061 137.471L14.5952 137.46L14.577 137.453Z" fill="#009688"/>
<path d="M380.119 129.701H380.137H380.173L380.192 129.697L380.152 129.693H380.112L380.064 129.704L380.014 129.722L380.119 129.701Z" fill="#009688"/>
<path d="M381.64 132.085L381.677 132.099L381.669 132.023L381.644 131.954L381.601 131.903L381.535 131.867L381.593 131.936L381.64 132.085Z" fill="#009688"/>
<path d="M397.023 134.327L397.052 134.342L397.056 134.356H397.038L397.02 134.349L397.001 134.345L397.023 134.364L397.041 134.371L397.063 134.375H397.081L397.067 134.335L397.034 134.313L397.009 134.291H396.969L397.001 134.309L397.023 134.327Z" fill="#009688"/>
<path d="M396.444 136.23H396.465L396.433 136.223V136.22L396.447 136.205L396.422 136.227L396.426 136.23H396.444Z" fill="#009688"/>
<path d="M12.9843 129.082L12.9298 128.991L12.7992 128.955L12.8355 128.97L12.9407 129.046L12.9044 129.104L12.8609 129.155L12.8173 129.118L12.7774 129.104L12.7012 129.097L12.8028 129.169L12.9117 129.235L13.0278 129.271L13.1513 129.274L13.0351 129.191L12.9843 129.082Z" fill="#009688"/>
<path d="M10.7515 126.861H10.7152L10.668 126.901L10.7043 126.934L10.7333 126.919H10.7369L10.7442 126.927L10.7841 126.941L10.7696 126.956H10.7551L10.7406 126.959L10.726 126.967L10.7696 126.988L10.795 126.985L10.8349 126.941L10.7914 126.89L10.7515 126.861Z" fill="#009688"/>
<path d="M381.939 132.549L381.979 132.614L381.961 132.53L381.943 132.498L381.91 132.469L381.921 132.509L381.939 132.549Z" fill="#009688"/>
<path d="M379.953 127.736L379.96 127.711L379.877 127.762L379.931 127.747L379.953 127.736Z" fill="#009688"/>
<path d="M379.967 130.274L380.039 130.23L380.079 130.172L380.068 130.114L379.989 130.07L380.039 130.114L380.054 130.161L380.028 130.216L379.967 130.274Z" fill="#009688"/>
<path d="M379.801 127.831L379.841 127.817L379.877 127.795L379.833 127.802L379.725 127.838L379.761 127.835L379.801 127.831Z" fill="#009688"/>
<path d="M380.01 129.301L380.032 129.29L380.047 129.279L380.05 129.275L380.043 129.254V129.236L380.039 129.217L380.025 129.199L379.992 129.304L380.01 129.301Z" fill="#009688"/>
<path d="M379.928 129.068L380.015 129.17L380.004 129.137L379.979 129.094L379.953 129.068H379.928Z" fill="#009688"/>
<path d="M387.529 141.402L387.536 141.395L387.54 141.388L387.536 141.37L387.529 141.352L387.525 141.355V141.37L387.529 141.388L387.525 141.402H387.529Z" fill="#009688"/>
<path d="M386.915 141.032V141.021L386.908 141.032L386.9 141.043L386.904 141.047L386.915 141.032Z" fill="#009688"/>
<path d="M387.139 140.611H387.143L387.147 140.604L387.143 140.593L387.132 140.586L387.125 140.582L387.129 140.6L387.139 140.611Z" fill="#009688"/>
<path d="M373.241 131.815L373.267 131.819L373.274 131.808V131.794L373.289 131.783L373.278 131.775V131.761L373.267 131.75L373.238 131.765L373.234 131.775L373.23 131.79L373.234 131.804L373.241 131.815Z" fill="#009688"/>
<path d="M376.375 124.516L376.32 124.563L376.277 124.621L376.244 124.686L376.215 124.752L376.251 124.701L376.375 124.516Z" fill="#009688"/>
<path d="M378.011 123.329L378.112 123.325L378.218 123.289L378.105 123.304L378.003 123.293L377.818 123.238L377.909 123.296L378.011 123.329Z" fill="#009688"/>
<path d="M378.513 123.41L378.621 123.443L378.574 123.414L378.523 123.388L378.476 123.37L378.422 123.359L378.465 123.388L378.513 123.41Z" fill="#009688"/>
<path d="M375.284 123.072L375.368 123.069L375.273 123.05L375.23 123.047L375.193 123.05L375.241 123.069L375.284 123.072Z" fill="#009688"/>
<path d="M10.2294 155.318L10.1895 155.366L10.302 155.38L10.2838 155.329L10.2294 155.318Z" fill="#009688"/>
<path d="M45.2048 159.115L45.1758 159.107L45.1903 159.126L45.2012 159.151L45.2121 159.173L45.2339 159.195L45.2411 159.14L45.2302 159.122L45.2048 159.115Z" fill="#009688"/>
<path d="M19.5654 150.138L19.5363 150.105L19.4928 150.08L19.4746 150.16L19.4891 150.214L19.5327 150.236L19.6089 150.222L19.5871 150.178L19.5654 150.138Z" fill="#009688"/>
<path d="M28.389 149.939L28.291 149.943L28.4253 149.976L28.4725 149.998L28.4289 149.954L28.389 149.939Z" fill="#009688"/>
<path d="M26.5799 149.01L26.5 148.941L26.5871 149.065L26.6125 149.108L26.6053 149.05L26.5799 149.01Z" fill="#009688"/>
<path d="M31.4378 151.976L31.3652 151.939L31.4197 151.99L31.4487 152.016L31.4886 152.034L31.4669 151.998L31.4378 151.976Z" fill="#009688"/>
<path d="M29.442 149.286L29.4347 149.311L29.4238 149.347L29.4383 149.322L29.4529 149.3L29.4674 149.275L29.4783 149.242L29.4529 149.264L29.442 149.286Z" fill="#009688"/>
<path d="M31.252 151.697L31.2048 151.653L31.1504 151.617L31.1867 151.668L31.2266 151.719L31.2738 151.762L31.321 151.802L31.2883 151.744L31.252 151.697Z" fill="#009688"/>
<path d="M28.1152 149.896L28.1878 149.944L28.2205 149.955L28.2641 149.958L28.2278 149.936L28.1152 149.896Z" fill="#009688"/>
<path d="M26.0106 149.402L26.0433 149.485L26.0868 149.558L26.1413 149.623L25.9961 149.314L26.0106 149.402Z" fill="#009688"/>
<path d="M21.2383 150.996L21.2855 151.022L21.3653 150.949L21.2528 150.945L21.2383 150.996Z" fill="#009688"/>
<path d="M19.5031 149.954L19.4777 149.943L19.4414 149.939L19.4959 149.954H19.5031Z" fill="#009688"/>
<path d="M22.0137 151.25L21.9956 151.225H21.9774L21.9194 151.159L21.8685 151.087L21.8649 151.069L21.7851 151.011L21.7016 150.971L21.6181 150.974L21.5273 151.04L21.5455 151.156L21.6036 151.203L21.6871 151.221L21.7778 151.247L21.9048 151.337L21.9847 151.374L22.05 151.359L22.0645 151.316L22.0464 151.279L22.0137 151.25Z" fill="#009688"/>
<path d="M33.3436 142.049L33.2492 142.063L33.1621 142.118L33.242 142.18L33.3436 142.187L33.4452 142.154L33.536 142.085L33.438 142.063L33.3436 142.049Z" fill="#009688"/>
<path d="M36.2679 152.132L36.2135 152.107L36.1445 152.1L36.2897 152.176L36.3296 152.209L36.3079 152.169L36.2679 152.132Z" fill="#009688"/>
<path d="M33.6911 142.977L33.7456 142.941L33.7492 142.915L33.6875 142.857L33.6911 142.977Z" fill="#009688"/>
<path d="M35.5575 151.899L35.4922 151.855L35.5975 151.968L35.5829 151.924L35.5575 151.899Z" fill="#009688"/>
<path d="M31.3424 151.261L31.2988 151.333L31.3388 151.402L31.3315 151.33L31.3678 151.264L31.4404 151.21L31.5239 151.17L31.4295 151.199L31.3424 151.261Z" fill="#009688"/>
<path d="M33.8479 154.846L33.8262 154.828L33.8588 154.875L33.8697 154.901L33.8625 154.937L33.8842 154.89L33.8734 154.864L33.8479 154.846Z" fill="#009688"/>
<path d="M32.6426 141.138L32.7188 141.163L32.7551 141.149L32.737 141.127L32.6426 141.138Z" fill="#009688"/>
<path d="M32.1528 141.158L32.1854 141.089L32.1528 141.024L32.0802 141.002L32.0039 141.02L31.9531 141.078L32.0039 141.144L32.0802 141.173L32.1528 141.158Z" fill="#009688"/>
<path d="M32.1376 141.631L32.0723 141.656L32.1086 141.729L32.1267 141.75L32.1666 141.7L32.1848 141.671L32.1993 141.638L32.163 141.627L32.1376 141.631Z" fill="#009688"/>
<path d="M33.2369 142.285L33.2188 142.296H33.1934V142.39L33.2768 142.3L33.2514 142.285H33.2369Z" fill="#009688"/>
<path d="M66.2679 162.48L66.2171 162.517L66.1953 162.6L66.257 162.593L66.3187 162.575L66.3768 162.549L66.4276 162.513L66.3441 162.484L66.2679 162.48Z" fill="#009688"/>
<path d="M332.965 132.303L333.037 132.473L333.132 132.626L333.241 132.684L333.375 132.567L333.429 132.353L333.328 132.237L333.146 132.223L332.965 132.303Z" fill="#009688"/>
<path d="M335.146 137.449L335.179 137.558L335.186 137.663L335.205 137.758L335.274 137.83L335.328 137.714L335.317 137.594L335.252 137.496L335.146 137.449Z" fill="#009688"/>
<path d="M335.507 137.729L335.637 137.5L335.721 137.268L335.684 137.119L335.387 137.874L335.507 137.729Z" fill="#009688"/>
<path d="M337.376 138.702L337.38 138.717L337.387 138.731L337.398 138.746L337.431 138.709L337.453 138.669L337.474 138.629L337.485 138.586L337.445 138.597L337.416 138.619L337.369 138.688L337.376 138.702Z" fill="#009688"/>
<path d="M342.095 140.042L342.182 139.806L342.113 139.581L341.678 139.385L341.253 139.65L340.908 140.122L340.727 140.561L340.959 140.608L341.238 140.59L341.511 140.521L341.728 140.416L341.921 140.252L342.095 140.042Z" fill="#009688"/>
<path d="M336.845 138.411L336.816 138.418L336.787 138.415L336.732 138.748L336.881 138.879L337.063 138.796L337.208 138.607L337.255 138.422L337.204 138.367L336.968 138.16L336.892 138.113L336.805 138.146L336.78 138.233L336.805 138.331L336.885 138.404L336.867 138.407L336.845 138.411Z" fill="#009688"/>
<path d="M337.514 137.855L337.507 137.724L337.489 137.594L337.46 137.474L337.347 137.285L337.227 137.35L337.082 137.499L336.897 137.561L336.973 137.634L337.02 137.71L337.035 137.793L337.006 137.899L336.879 137.931L336.97 138.073L337.177 138.225L337.376 138.294L337.445 138.229L337.481 138.153L337.5 138.066L337.514 137.855Z" fill="#009688"/>
<path d="M337.44 138.488L337.476 138.455L337.447 138.433L337.429 138.412L337.407 138.404L337.371 138.422L337.393 138.488L337.415 138.502L337.44 138.488Z" fill="#009688"/>
<path d="M337.553 138.383L337.607 138.325L337.633 138.292L337.651 138.252L337.6 138.266L337.578 138.296L337.553 138.383Z" fill="#009688"/>
<path d="M333.198 132.128L333.216 132.106L333.231 132.073L333.122 132.059L333.053 132.117L332.781 132.153L332.672 132.236L333.151 132.167L333.198 132.128Z" fill="#009688"/>
<path d="M338.374 132.124L338.501 132.16L338.61 132.124L338.701 132.367L338.759 132.447L338.871 132.512L338.987 132.545L339.107 132.549L339.216 132.512L339.307 132.425L339.151 132.349L338.911 132.113L338.773 132.015L338.65 131.979L338.207 131.932L338.261 132.037L338.374 132.124Z" fill="#009688"/>
<path d="M337.681 132.462L337.735 132.437L337.775 132.361L337.724 132.302L337.67 132.273L337.616 132.288L337.568 132.364L337.623 132.437L337.681 132.462Z" fill="#009688"/>
<path d="M338.403 133.075L338.624 133.158L339.064 133.263L339.27 133.289L339.466 133.278L339.884 133.209L339.717 133.136L338.309 132.977L338.403 133.075Z" fill="#009688"/>
<path d="M337.099 133.554L337.132 133.489L337.092 133.467L337.074 133.474L337.041 133.536L337.081 133.568L337.099 133.554Z" fill="#009688"/>
<path d="M335.967 135.863L336.05 135.917L336.148 135.961L336.246 135.99L336.17 135.932L335.912 135.779L335.967 135.863Z" fill="#009688"/>
<path d="M332.299 133.467L332.498 133.446L332.691 133.398L332.651 133.166L332.589 133.09L332.447 133.133L332.313 133.141L332.182 133.177L331.936 133.286L332.106 133.427L332.299 133.467Z" fill="#009688"/>
<path d="M341.934 140.585L342.05 140.574L342.109 140.505L342.079 140.356L341.967 140.342L341.833 140.4L341.738 140.472L341.815 140.545L341.934 140.585Z" fill="#009688"/>
<path d="M333.397 132.793L333.684 132.764L333.811 132.786L333.974 132.829L334.138 132.884L334.258 132.938L334.334 132.985L334.374 133.072L334.396 133.138L334.421 133.29L334.446 133.359L334.621 133.57L334.857 133.682L335.125 133.726L335.699 133.722L336.004 133.693L336.305 133.635L336.581 133.548L336.562 133.606L336.53 133.664L336.49 133.715L336.435 133.758L336.548 133.798L336.501 133.893L336.392 134.016L336.334 134.129L336.243 134.063L336.131 134.013L336.007 133.98L335.895 133.954L335.746 133.944L335.648 133.973L335.568 134.042L335.455 134.15L335.336 134.245L335.249 134.274L335.158 134.259L335.023 134.23L334.849 134.212L334.711 134.227L334.414 134.31L334.519 134.437L334.7 134.532L334.904 134.608L335.074 134.699L335.249 134.84L335.325 134.927L335.376 135.025L335.383 135.141L335.325 135.319L335.314 135.432L335.372 135.606L335.492 135.726L335.655 135.769L335.833 135.726L335.953 135.602L336.062 135.392L336.134 135.167V135.003L336.265 134.942L336.337 134.641L336.494 134.604L336.399 134.757L336.33 134.895L336.316 135.04L336.385 135.207L336.465 135.294L336.562 135.359L336.744 135.446L336.762 135.45L336.867 135.49L336.882 135.497L336.944 135.581L336.965 135.599L336.994 135.595L337.071 135.562L337.103 135.559L337.249 135.577L337.513 135.566L337.655 135.592L337.441 135.628L337.528 135.806L337.753 136.016L337.956 136.136L338.178 136.176L338.642 136.201L338.867 136.248L339.495 136.532L340.025 136.706L340.196 136.731L340.312 136.713L340.439 136.866L340.646 136.985L340.867 137.091L341.045 137.203L341.154 137.359L341.201 137.483L341.281 137.548L341.492 137.526L341.434 137.555L341.397 137.588L341.336 137.675L341.383 137.686L341.477 137.711L341.528 137.715L341.466 137.944L341.63 138.292L341.88 138.641L342.072 138.847L341.829 138.945L341.913 139.087L342.163 139.203L342.421 139.221L342.298 139.25L342.058 139.239L341.945 139.29L342.112 139.432L342.192 139.515L342.243 139.588L342.279 139.69L342.276 139.773L342.102 140.176L342.069 140.288L342.087 140.368L342.185 140.386L342.316 140.317L342.432 140.212L342.501 140.107L342.631 140.31L342.929 140.314L343.252 140.198L343.466 140.042L343.379 140.198L343.343 140.274L343.339 140.346L343.408 140.455L343.539 140.564L343.778 140.739L344.239 141.239L344.421 141.385L344.552 141.464L344.679 141.479L344.958 141.443L345.771 141.472L346.123 141.573L346.294 141.577L346.446 141.526L346.755 141.356L347.002 141.25L347.085 141.167L347.103 141.029L347.06 140.92L346.969 140.811L346.864 140.72L346.766 140.651L346.635 140.586L346.501 140.55L346.051 140.484L345.982 140.463L345.938 140.423L345.92 140.376L345.884 140.343L345.786 140.346L345.88 140.317L345.927 140.343L345.96 140.394L346.014 140.43L346.109 140.448L346.875 140.43L347.107 140.408L347.35 140.354L347.307 140.234L347.281 140.18L347.245 140.129L347.347 140.121L347.55 140.154L347.655 140.147L347.601 140.063L347.633 140.067H347.717L347.582 139.777L347.499 139.639L347.397 139.523L347.517 139.61L347.626 139.711L347.739 139.795L347.891 139.842L348 139.835L348.098 139.802L348.268 139.722L348.366 139.693L348.417 139.69L348.49 139.686L348.57 139.697L348.642 139.722L348.751 139.773L348.784 139.798L348.871 139.886L348.922 139.922L348.994 139.947L349.771 140.107L350.011 140.219L350.207 140.405L350.57 141.014L350.82 141.29L351.071 141.319L351.031 141.49L351.096 141.628L351.216 141.744L351.354 141.842L351.474 141.951L351.76 142.307L352 142.455L352.29 142.528L353.869 142.695L354.174 142.778L354.287 142.84L354.479 143.007L354.584 143.072L354.74 143.116L354.896 143.112L355.045 143.062L355.165 142.964L355.023 142.876L354.958 142.822L354.9 142.76L355.013 142.724L355.256 142.695L355.39 142.644L355.172 142.662L354.925 142.622L354.682 142.546L354.323 142.397L354.258 142.346L354.214 142.267L354.21 142.165L354.258 142.147H354.33L354.399 142.096L354.374 141.984L354.203 141.94L353.978 141.922L353.8 141.893L353.626 141.744L353.608 141.559L353.604 141.385L353.466 141.268L353.35 141.272L353.1 141.359L352.98 141.356L352.878 141.294L352.831 141.21L352.798 141.112L352.755 141.003L352.697 140.927L352.559 140.818L352.497 140.749L352.464 140.662L352.435 140.455L352.406 140.361L352.272 140.19L352.083 140.049L351.88 139.918L351.695 139.777L351.354 139.439L351.219 139.247L351.125 139.022L351.114 138.822L351.212 138.735L351.386 138.713H351.611L351.851 138.691L352.014 138.615L352.069 138.47L351.982 138.227L351.891 138.1L351.771 137.984L351.637 137.893L351.495 137.835L351.027 137.697L350.559 137.515L349.891 137.334L349.749 137.243L349.731 137.16L349.768 136.811L349.757 136.677L349.724 136.586L349.666 136.503L349.575 136.405L349.379 136.23L348.994 135.991L348.519 135.613L348.37 135.508L348.225 135.443L348.127 135.432L347.927 135.446L347.826 135.428L347.72 135.377L347.412 135.16L347.143 135.025L346.268 134.807L345.419 134.488L344.933 134.238L344.679 134.14L344.417 134.111L344.283 134.125L344.218 134.089L344.178 134.031L344.109 133.976L344.007 133.944L343.074 133.809L342.853 133.733L341.06 132.931L340.886 132.905L340.711 132.945L340.305 133.134L340.214 133.185L340.152 133.247L340.138 133.308L340.156 133.366L340.167 133.428L340.138 133.504L339.96 133.628L339.492 133.686L339.303 133.766L339.252 133.838L339.19 134.013L339.147 134.089L339.082 134.15L338.929 134.259L338.86 134.325L338.523 134.742L338.312 134.902L338.058 134.956L337.844 134.913L337.706 134.815L337.633 134.659L337.604 134.445L337.459 134.47L337.419 134.343L337.412 134.169L337.372 134.045L337.267 134.013L337.216 134.107L337.18 134.357L336.915 133.813L336.827 133.53L336.806 133.225L336.835 133.105L336.929 132.876L336.951 132.757L336.929 132.637L336.759 132.267L336.748 132.209L336.766 132.18L336.769 132.147L336.719 132.085L336.671 132.052L336.617 132.038L336.076 131.991L335.931 131.951L335.415 131.693L335.147 131.613L334.853 131.617L334.617 131.7L334.189 131.958L333.731 132.136L333.641 132.238L333.59 132.376L333.383 132.746L333.397 132.793Z" fill="#009688"/>
</g>
</svg>
