<svg width="350" height="322" viewBox="0 0 350 322" fill="none" xmlns="http://www.w3.org/2000/svg">
    <g clip-path="url(#clip0_392_58584)">
        <path
            d="M153.197 14.0582C152.37 13.4425 151.707 12.7696 151.464 11.7232C151.39 11.4035 151.441 10.6835 151.014 10.5657C150.67 10.4715 150.465 10.6801 150.458 10.9998C150.452 11.4405 149.489 11.2151 149.547 11.6693C149.567 11.8207 149.621 11.9048 149.708 12.0361C149.92 12.3523 149.819 12.6552 149.897 12.9882C149.961 13.2709 150.344 13.3213 150.718 13.3718C150.775 13.3785 150.906 13.503 150.899 13.5602C150.879 13.7924 150.728 14.0447 150.438 13.9707C150.199 13.9102 149.964 13.8395 149.728 13.7789C149.069 13.6107 148.817 13.9808 148.295 14.25C148.08 14.361 147.821 14.5663 147.982 14.8421C148.312 15.404 149.927 14.8051 150.381 14.7143C151.101 14.5696 151.458 15.5891 152.147 15.4377C152.501 15.3603 152.804 15.2728 153.174 15.2795C153.322 15.2795 153.527 15.256 153.621 15.1281C153.911 14.7412 153.507 14.2836 153.197 14.0582Z"
            fill="#D9D9D9" />
        <path
            d="M161.076 10.6684C160.925 10.5641 160.296 10.3925 160.158 10.268C160.03 10.1536 159.939 9.99551 159.831 9.86429C159.683 9.67924 159.364 9.43699 159.212 9.75663C159.095 10.0022 159.226 10.2546 159.374 10.4565C159.434 10.6415 159.508 10.8097 159.64 10.978C159.778 11.1529 159.838 11.338 159.862 11.5331C159.855 11.6139 159.862 11.9806 159.838 12.0849C159.805 12.2498 159.646 12.2296 159.502 12.169C159.465 12.1522 159.327 11.9739 159.313 11.9167C159.249 11.6812 159.145 11.4457 159.031 11.2303C158.91 10.9982 158.721 10.7929 158.439 10.8434C158.388 10.8535 158.348 10.8737 158.311 10.8972C158.264 10.9208 158.22 10.9578 158.183 11.0049C157.964 11.2943 157.961 11.6576 157.978 12.0042C157.984 12.1623 157.978 12.3406 157.924 12.4921C157.907 12.5425 157.718 12.6737 157.651 12.6872C157.527 12.7108 157.412 12.704 157.328 12.63C157.18 12.4954 157.197 12.1388 157.184 11.9571C157.15 11.4389 157.089 11.0352 156.712 10.6482C156.326 10.2546 155.737 10.2142 155.357 10.6281C155.198 10.803 155.087 11.0957 155.138 11.3313C155.168 11.4793 155.4 11.8864 155.461 12.0008C155.575 12.2195 155.73 12.4248 155.804 12.6603C155.895 12.9496 155.575 13.1582 155.333 13.0775C155.293 13.064 154.983 12.8622 154.943 12.8251C154.801 12.6838 154.694 12.5089 154.626 12.2734C154.492 11.8124 154.199 11.7081 153.802 11.6173C153.768 11.5836 153.735 11.5533 153.701 11.523C153.503 11.338 153.462 11.089 153.358 10.8501C153.318 10.7593 153.217 10.6449 153.129 10.5978C153.072 10.5675 152.951 10.3387 152.91 10.258C152.853 10.1402 152.786 10.0258 152.712 9.91476C152.658 9.81719 152.127 9.23511 151.915 9.05679C151.494 8.69677 151.171 8.98613 151.208 9.37306C151.218 9.45718 151.655 10.6079 152.046 11.2572C152.184 11.486 152.234 11.7317 152.369 11.9302C152.389 11.9705 152.412 12.0042 152.443 12.0378C152.534 12.1657 152.624 12.2902 152.715 12.418C152.823 12.7511 152.668 13.2491 152.759 13.6057C152.84 13.922 153.277 13.9153 153.543 13.9725C153.772 14.0229 153.967 14.1306 154.149 14.2686C154.223 14.3258 154.438 14.6353 154.482 14.7262C154.536 14.8338 154.599 14.9415 154.68 15.0424C154.919 15.3419 155.528 15.3015 155.841 15.6413C156.453 16.3075 157.597 16.2671 158.206 15.611C158.698 15.0828 159.037 14.7362 159.791 14.5276C160.165 14.4233 160.37 14.0129 160.548 13.7134C160.747 13.3803 161.52 13.3298 161.595 12.8655C161.628 12.667 161.621 12.1556 161.632 12.0547C161.685 11.523 161.51 10.9746 161.073 10.6684H161.076Z"
            fill="#D9D9D9" />
        <path
            d="M203.085 32.7083C202.964 33.102 202.779 33.4687 202.601 33.8422C202.449 34.1618 202.318 34.5286 202.123 34.8246C202.039 34.9559 201.52 35.8912 201.517 36.1604C201.517 36.3993 201.581 36.6382 201.557 36.877C201.514 37.3178 201.457 37.5163 201.023 37.4827C200.733 37.4591 200.43 37.3447 200.131 37.375C199.061 37.4827 199.586 38.2734 199.374 38.9025C199.236 39.3164 199.017 39.1919 198.667 39.2996C198.274 39.4207 198.368 39.6327 198.348 40.0061C198.317 40.642 198.092 41.5269 197.288 41.3688C196.699 41.251 196.45 40.4435 195.817 40.4065C195.121 40.3661 195.124 41.315 194.704 41.6817C194.462 41.8903 192.991 42.1258 193.395 42.6171C193.752 43.0511 194.788 42.4993 195.145 42.3344C195.659 42.0956 196.312 42.1393 196.783 42.5027C196.935 42.6171 197.315 42.9502 197.244 43.1891C197.17 43.4414 196.514 43.1891 196.383 43.3707C195.952 43.9797 197.419 44.4138 198.018 44.8007C198.603 45.1809 198.788 45.5073 198.553 46.1398C198.183 47.1357 199.048 46.5402 199.522 46.2609C200.067 45.9413 200.787 46.1432 201.049 46.6916C201.362 47.3578 201.749 47.4621 202.449 47.6101C203.162 47.7616 203.529 47.886 204.01 48.4681C204.424 48.9661 205.211 48.9022 205.471 49.5448C205.74 50.211 205.548 50.8873 206.184 51.3617C206.648 51.7082 207.264 52.0043 207.227 52.6268C207.227 53.4612 207.16 54.4874 208.304 54.2115C208.929 54.0635 209.347 53.9659 210.006 54.0971C210.501 54.1947 211.073 54.585 211.547 54.4268C211.806 54.3427 212.025 54.1476 212.287 54.0971C212.577 54.0399 212.97 54.0904 213.253 54.1341C214 54.2485 214.501 54.484 215.033 55.0325C215.504 55.5203 215.914 55.8433 216.53 56.1293C217.193 56.4389 217.613 56.8359 218.132 57.3776C218.387 57.6468 218.495 57.8386 218.63 58.1616C218.767 58.4812 218.878 58.5148 219.158 58.6663C219.733 58.9758 219.959 59.5612 220.413 60.0054C221.631 61.1998 223.438 60.9508 224.942 61.5127C225.487 61.7146 225.948 62.0746 226.513 62.2159C227.098 62.3606 227.727 62.226 228.33 62.3068C228.612 62.3438 228.949 62.4413 229.157 62.6466C229.4 62.8855 229.329 63.1715 229.47 63.4373C229.625 63.7266 229.921 63.7401 230.147 63.9722C230.369 64.201 230.382 64.4467 230.396 64.7596C230.419 65.3955 230.311 66.0516 230.564 66.6202C230.809 67.1753 231.301 67.6027 231.768 67.7137C232.546 67.8987 233.329 67.5892 233.935 68.1814C234.332 68.5649 234.685 69.1907 235.278 69.2883C235.893 69.3893 236.486 69.2244 237.061 69.5272C237.613 69.8166 238.02 70.3785 238.558 70.7116C239.14 71.0716 239.749 70.9235 240.375 70.7755C241.011 70.6241 241.492 70.2102 242.121 70.0622C242.39 69.9983 242.774 70.0184 243.013 69.8839C243.312 69.7156 243.568 69.285 243.797 69.036C244.339 68.4505 244.941 67.9156 245.233 67.1484C245.472 66.5293 245.472 65.8194 245.644 65.1869C245.809 64.5711 247.094 62.0275 247.599 61.5766C248.029 61.1897 248.591 60.9676 248.965 60.5168C249.399 59.9986 249.496 59.2551 249.668 58.6191C249.88 57.8285 250.105 57.1589 250.183 56.348C250.26 55.5473 250.223 54.7431 250.348 53.9491C250.476 53.1079 251.532 49.888 251.771 49.1209C251.882 48.7642 251.996 48.3773 252.181 48.0509C252.34 47.7683 252.565 47.6774 252.743 47.4453C253.056 47.0348 252.837 46.1095 252.743 45.6217C252.592 44.8815 252.444 44.148 252.272 43.4212C251.724 41.0794 252.834 38.8218 252.494 36.4868C252.313 35.2351 252.067 33.9566 252.252 32.6713C252.319 32.2238 252.393 31.7763 252.558 31.349C252.656 31.0866 252.777 30.5381 253.002 30.3665C253.521 29.9661 254.177 31.2548 254.597 30.5751C254.934 30.0368 254.23 29.1385 253.965 28.6842C253.796 28.3949 253.591 28.156 253.376 27.9003C253.103 27.5739 253.076 27.3384 253.1 26.901C253.117 26.5847 253.177 26.1911 253.457 25.9825C253.692 25.8075 254.025 25.8882 254.274 25.7537C254.974 25.3802 254.173 24.1723 254.95 23.8459C255.63 23.5599 255.782 24.4751 255.805 24.9428C255.829 25.3364 255.765 25.7368 255.876 26.1103C256.01 26.5578 256.246 26.6318 256.377 26.1911C256.562 25.5652 256.36 24.8486 256.555 24.2295C256.643 23.9469 256.875 23.7046 256.707 23.4018C256.586 23.1932 256.219 23.1158 256.195 22.8399C256.172 22.5472 256.592 22.3487 256.091 22.2343C255.842 22.1771 255.472 22.2747 255.236 22.3319C254.924 22.4092 254.675 22.5438 254.345 22.5539C254.197 22.5573 253.951 22.4496 253.786 22.3386C253.675 22.2612 253.679 22.0021 253.709 21.9315C254.008 21.2619 254.947 18.9437 255.173 18.4962C255.287 18.2708 255.465 18.0117 255.734 18.0252C256.031 18.0386 256.185 18.4491 256.481 18.4188C256.983 18.365 256.714 17.2984 256.73 16.9216C256.761 16.3058 256.939 15.6935 257.238 15.1484C257.561 14.5562 258.093 14.028 258.191 13.3584C258.248 12.9883 258.238 12.6519 258.325 12.2885C258.403 11.9823 258.48 11.6728 258.557 11.3632C258.705 10.7475 258.732 10.1251 258.87 9.50933C258.975 9.04838 258.954 8.06255 259.466 7.86067C259.954 7.66889 261.993 7.94479 262.376 8.07601C262.669 8.17694 262.854 8.38891 263.11 8.54705C263.365 8.70855 263.557 8.72538 263.857 8.75902C265.414 8.93398 264.896 10.7105 264.748 11.7603C264.641 12.524 264.667 13.0556 264.97 13.7487C265.125 14.102 265.3 14.5562 265.313 14.9835C265.32 15.1484 264.725 16.4404 264.906 16.7163C265.044 16.9182 265.536 16.9249 265.747 16.9451C266.262 16.9989 267.023 16.8644 267.494 17.11C268.177 17.4633 267.86 17.7526 267.635 18.2741C267.453 18.6913 267.709 19.408 267.322 19.7377C267.09 19.9362 266.743 19.7747 266.639 20.128C266.555 20.4073 266.74 20.7202 266.932 20.9053C267.315 21.2754 267.864 21.4739 268.207 21.9214C268.416 22.1939 268.382 22.4328 268.493 22.7322C268.621 23.0923 268.843 23.247 269.169 23.4186C269.674 23.6844 270.377 23.9906 270.132 24.6938C269.94 25.249 269.169 25.3196 269.062 25.9488C268.954 26.578 269.516 27.3249 269.997 26.6621C270.148 26.4535 270.212 26.1944 270.596 26.2954C270.882 26.3727 270.889 26.5881 270.916 26.8673C270.969 27.4259 270.936 28.156 270.916 28.6439C270.936 29.3807 270.993 30.0805 271.165 30.8006C271.319 31.4668 271.471 32.0791 271.124 32.715C270.885 33.1524 270.461 33.5259 270.559 34.0676C270.609 34.3334 270.798 34.5151 270.909 34.7439C271.023 34.9895 271.037 35.1611 271.06 35.4202C271.131 36.1267 271.518 36.3791 271.784 36.9881C272.026 37.5466 271.952 38.2599 271.952 38.8689C271.952 39.4375 271.807 40.2753 272.086 40.7766C272.228 41.0323 272.527 41.2309 272.82 41.3823C273.025 41.4899 273.829 41.712 274.092 41.7389C274.462 41.7759 274.842 41.7726 275.101 41.5976C275.454 41.3587 275.515 40.8507 275.653 40.4839C275.838 39.9994 276.215 39.3164 276.841 39.6562C277.086 39.7908 277.137 39.9725 277.446 39.9859C277.752 39.9994 278.005 39.8379 278.223 39.6293C278.503 39.3601 278.853 38.3575 279.337 38.5257C279.68 38.6435 279.415 38.9833 279.515 39.2726C279.623 39.5856 279.902 39.5519 280.121 39.7437C280.663 40.2114 279.657 40.7161 279.764 41.3318C279.896 42.072 280.646 42.2369 281.262 42.3715C281.719 42.4724 282.534 42.6844 282.806 43.0848C283.18 43.6298 282.981 44.3532 283.58 44.8041C284.101 45.1977 284.758 45.0665 285.222 45.6149C285.592 46.0523 285.548 46.631 285.467 47.1458C285.373 47.7616 285.424 48.2124 285.72 48.7508C286.023 49.2992 286.073 49.8543 285.693 50.3927C285.511 50.6484 285.363 50.7729 285.397 51.1396C285.424 51.4189 285.912 52.6604 285.999 52.8657C286.154 53.2324 286.238 53.5857 286.107 54.0433C285.955 54.5749 285.743 55.1166 286.251 55.5338C286.494 55.7323 286.971 55.9443 287.076 56.274C287.194 56.6441 286.908 57.1555 286.931 57.5559C286.968 58.175 287.113 58.7369 286.622 59.2416C286.376 59.4973 286.124 59.4973 286.076 59.9078C286.036 60.2678 286.147 60.5942 286.369 60.8701C286.817 61.4252 287.449 61.7516 287.897 62.2967C288.321 62.8148 288.664 63.3902 289.027 63.9722C289.411 64.5846 289.878 64.8941 290.393 65.3618C290.985 65.9002 290.922 66.4419 290.999 67.1787C291.07 67.8853 291.255 68.501 291.49 69.1739C291.665 69.6719 292.173 72.8313 292.139 73.807C292.116 74.5506 291.884 75.1394 291.507 75.7753C291.204 76.2867 290.575 76.7948 290.676 77.4441C290.733 77.8142 290.999 78.0868 291.221 78.3862C291.362 78.578 291.487 79.0019 291.601 79.3014C291.867 80.0584 291.924 80.1324 292.661 80.3074C293.199 80.4319 293.448 80.7684 293.347 81.3303C293.23 81.9897 292.634 82.555 292.671 83.2481C292.748 84.5569 293.543 85.462 294.737 85.9902C295.396 86.283 296.147 86.505 296.736 86.892C297.018 87.0804 297.183 87.2587 297.513 87.363C297.765 87.4437 298.054 87.4909 298.303 87.5682C299.427 87.9249 300.056 89.2034 301.301 89.1462C301.853 89.1193 302.55 88.867 302.913 89.4154C303.206 89.8562 304.023 93.0492 304.686 93.3015C304.881 93.3755 305.218 93.2376 305.436 93.2376C305.726 93.2376 305.904 93.2982 306.113 93.4866C306.58 93.9139 306.809 94.247 307.435 94.3782C307.933 94.4825 308.411 94.6238 308.798 94.9838C309.026 95.1958 309.265 95.4448 309.403 95.7341C309.545 96.0269 309.561 96.333 309.797 96.582C309.969 96.7671 310.218 96.905 310.392 97.0867C310.578 97.2819 310.682 97.5409 310.867 97.726C311.499 98.3653 311.415 97.1473 311.314 96.7738C311.234 96.4743 311.18 95.8755 311.173 95.4986C311.17 95.3102 311.264 95.1319 311.291 95.1218C311.779 94.9569 311.769 96.0605 312.058 96.4272C312.243 96.6628 312.549 96.7132 312.765 96.9319C313.044 97.2146 313.219 97.5813 313.498 97.8606C313.935 98.3013 314.349 98.5873 314.605 99.1862C314.74 99.5059 315.163 100.761 314.605 100.936C314.107 101.091 313.666 99.8322 313.249 99.6842C312.812 99.5294 312.785 99.8322 312.785 100.186C312.785 100.757 312.701 101.777 313.017 102.268C313.249 102.632 313.949 102.773 313.501 103.288C313.269 103.553 312.563 104.109 313.114 104.502C313.36 104.674 313.485 104.374 313.649 104.294C313.868 104.189 314.131 104.199 314.39 104.213C314.608 104.226 314.965 104.26 315.13 104.435C315.291 104.603 315.268 104.899 315.375 105.105C315.587 105.492 315.698 105.327 316.099 105.354C316.368 105.37 316.748 105.518 316.957 105.7C317.478 106.154 316.708 106.676 317.071 107.197C317.462 107.753 318.074 107.675 318.097 108.489C318.114 109.142 317.488 109.64 317.711 110.306C317.922 110.942 318.666 111.252 318.844 111.911C319.006 112.513 318.807 113.109 318.447 113.577C317.966 114.199 318.313 114.488 318.784 115.003C319.181 115.437 319.369 115.982 319.416 116.467C319.457 116.904 319.339 117.406 319.369 117.833C319.396 118.186 319.595 118.348 319.81 118.607C320.281 119.172 319.386 119.788 319.763 120.292C320.258 120.955 320.685 119.667 320.947 119.505C321.873 118.943 322.879 122.56 323.437 121.709C323.659 121.372 323.37 121.046 323.262 120.683C323.158 120.316 323.168 119.953 323.111 119.579C323.07 119.303 323.087 118.967 322.942 118.731C322.794 118.496 322.616 118.361 322.488 118.078C322.33 117.732 321.782 116.615 322.482 116.544C323.027 116.49 324.251 117.91 324.399 118.156C324.537 118.391 324.581 118.664 324.719 118.906C325.015 119.424 326.701 120.962 327.125 121.359C327.306 121.531 327.515 121.753 327.757 121.83C327.915 121.881 328.033 121.907 328.188 121.857C328.299 121.82 328.41 121.655 328.504 121.638C329.11 121.547 329.699 123.563 329.487 124.074C329.288 124.549 329.254 125.07 329.406 125.561C329.567 126.086 329.877 126.53 329.746 127.096C329.614 127.654 328.999 128.004 328.968 128.549C328.942 129.077 329.773 129.945 329.15 130.157C328.874 130.252 328.343 130.09 328.292 130.447C328.228 130.884 328.804 130.881 329.076 130.911C329.641 130.968 330.257 130.999 330.789 131.197C331.418 131.429 331.62 132.025 331.714 132.624C331.805 133.206 331.727 133.771 332.135 134.235C332.562 134.727 335.042 136.685 335.637 136.543C335.933 136.473 335.883 136.348 336.064 136.116C336.428 135.655 336.768 136.069 336.919 136.473C337.077 136.897 337.282 137.459 337.74 137.624C337.989 137.714 338.124 137.671 338.312 137.869C338.504 138.074 338.517 138.317 338.561 138.576C338.648 139.117 338.568 139.777 338.766 140.288C338.968 140.806 339.594 141.214 339.981 141.614C340.388 142.038 340.741 142.506 341.068 142.993C341.384 143.471 341.885 144.03 342.09 144.528C342.198 144.787 342.164 145.137 342.37 145.349C342.602 145.584 342.955 145.497 343.1 145.847C343.369 146.486 342.397 147.071 342.639 147.549C342.837 147.939 343.84 147.849 344.234 148.013C344.493 148.124 344.796 148.373 344.981 148.656C345.115 148.858 345.381 150.248 345.479 150.735C345.573 151.223 345.411 151.758 345.314 152.233C345.186 152.842 345.314 153.555 345.411 154.154C345.448 154.393 345.485 154.813 345.768 154.833C346.034 154.854 346.222 154.544 346.552 154.585C347.346 154.682 346.73 155.755 346.552 156.216C346.276 156.93 346.128 157.582 346.027 158.326C345.842 159.689 345.758 161.088 345.839 162.498C345.879 163.195 346.286 163.682 346.377 164.315C346.421 164.624 346.367 165.001 346.259 165.281C346.125 165.627 345.913 165.674 345.654 165.876C345.065 166.34 345.458 167.003 345.368 167.632C345.253 168.416 345.475 168.524 346.125 168.881C346.929 169.321 346.814 170.351 346.973 171.172C347.033 171.498 347.635 173.487 347.514 174.365C347.464 174.715 347.42 175.166 347.561 175.506C347.767 175.99 348.197 176.391 348.49 176.831C348.907 177.464 348.598 178.359 348.436 179.042C348.349 179.415 348.308 179.819 348.339 180.209C348.369 180.583 348.584 180.744 348.702 181.074C348.968 181.811 348.234 182.443 348.086 183.143C347.935 183.86 348.053 184.435 347.41 184.953C347.174 185.145 346.915 185.192 346.663 185.347C346.306 185.562 345.953 185.912 345.744 186.289C345.408 186.895 345.559 187.746 345.559 188.422C345.559 189.418 345.6 190.535 345.532 191.514C345.519 191.736 345.028 193.025 344.796 193.436C344.631 193.728 344.217 194.109 344.318 194.485C344.271 194.933 344.294 195.475 344.032 195.845C343.763 196.225 343.332 196.481 343.053 196.861C342.75 197.271 342.558 197.776 342.393 198.25C342.168 198.906 341.744 199.589 341.741 200.289C341.741 200.572 341.771 200.895 341.811 201.181C341.872 201.591 342.047 201.467 342.269 201.726C342.538 202.039 342.262 202.194 342.168 202.503C342.047 202.904 342.346 202.961 342.484 203.26C342.77 203.886 342.104 204.519 341.633 204.811C341.132 205.124 340.089 205.605 340.304 206.292C340.388 206.564 340.634 206.783 340.492 207.103C340.348 207.429 340.001 207.449 339.708 207.53C339.389 207.617 339.099 207.782 338.914 208.065C338.78 208.274 338.554 208.65 338.531 208.889C338.504 209.172 338.615 209.431 338.558 209.737C338.51 209.993 338.43 210.242 338.309 210.484C338.019 211.07 337.504 211.419 337.007 211.816C336.744 212.025 336.502 212.264 336.391 212.594C336.29 212.9 336.354 213.233 336.179 213.522C335.906 213.973 334.833 213.956 335.324 214.697C335.492 214.949 335.785 215.046 335.859 215.373C335.927 215.672 335.768 215.952 335.661 216.09C335.069 216.877 334.079 217.311 333.184 217.728C332.908 217.856 332.259 217.906 332.114 218.26C331.889 218.808 332.922 219.023 332.283 219.643C331.815 220.097 331.135 220.278 330.509 220.373C330.19 220.42 329.665 220.534 329.436 220.793C329.224 221.035 329.345 221.369 329.261 221.648C329.026 222.435 328.322 222.735 327.727 223.155C327.162 223.559 327.518 224.397 327.229 224.992C326.842 225.79 325.853 225.998 325.308 226.641C324.83 227.203 324.709 228.061 324.578 228.754C324.436 229.497 324.278 230.18 323.972 230.877C323.689 231.516 323.42 232.236 323.053 232.842C322.704 233.424 322.296 233.982 321.957 234.554C321.371 235.54 321.405 236.896 320.638 237.811C320.715 237.69 320.648 237.781 320.439 238.081C320.103 238.558 319.797 238.976 319.638 239.544C319.497 240.052 319.504 240.601 319.161 241.035C318.784 241.509 318.797 241.963 318.535 242.478C318.39 242.764 318.171 243.003 318.064 243.289C317.97 243.541 317.899 243.787 317.771 244.036C317.058 245.429 315.719 246.28 314.864 247.569C314.514 248.094 314.332 248.74 314.215 249.349C314.1 249.948 314.134 250.627 313.885 251.196C313.737 251.536 313.697 251.647 313.717 252.024C313.73 252.336 313.68 252.619 313.609 252.912C313.525 253.258 313.485 253.524 313.535 253.877C313.579 254.167 313.663 254.436 313.528 254.732C313.256 255.344 312.421 255.516 312.156 256.088C312.018 256.384 312.156 256.694 312.226 256.98C312.304 257.282 312.307 257.572 312.182 257.871C311.937 258.463 311.372 258.729 311.476 259.466C311.557 260.028 312.011 260.499 312.26 261.007C312.613 261.724 311.984 261.899 311.432 262.003C310.625 262.161 310.975 262.753 311.398 263.181C311.896 263.685 311.991 264.224 311.187 264.462C310.665 264.617 310.218 264.587 309.895 265.071C309.578 265.539 309.272 265.855 308.72 266.067C307.711 266.458 306.564 266.343 305.51 266.242C304.723 266.168 303.899 266.175 303.128 266.03C302.452 265.903 301.826 265.731 301.13 265.664C300.312 265.583 299.478 265.68 298.68 265.815C298.071 265.916 297.304 266 296.9 266.498C296.547 266.932 296.069 267.285 295.507 266.912C295.016 266.586 294.663 266.03 293.966 266.286C293.711 266.38 293.546 266.633 293.327 266.804C293.132 266.952 292.597 267.346 292.58 267.403C292.459 267.888 293.674 267.39 293.818 267.598C294.101 267.995 291.712 269.452 291.366 269.637C290.858 269.91 290.316 270.051 289.798 270.314C289.047 270.697 288.687 271.256 288.183 271.908C287.466 272.837 286.05 274.385 284.697 273.867C284.098 273.638 283.812 273.362 283.092 273.433C282.547 273.486 281.824 273.887 282.281 274.536C282.446 274.775 282.779 274.869 283.055 274.869C283.368 274.869 283.563 274.583 283.839 274.543C284.673 274.425 283.926 275.549 283.799 275.828C283.671 276.107 283.664 276.326 283.664 276.649C283.664 276.78 283.715 277.033 283.657 277.147C283.55 277.362 283.462 277.218 283.344 277.332C283.126 277.547 283.23 277.813 283.203 278.146C283.183 278.389 283.102 278.947 282.816 278.708C282.46 278.409 281.622 275.673 281.511 275.317C281.373 274.883 281.164 274.519 280.787 274.731C280.575 274.852 280.511 275.135 280.316 275.256C280.087 275.401 279.761 275.34 279.559 275.152C279.277 274.889 279.401 274.63 279.354 274.294C279.267 273.641 278.641 273.19 277.998 273.153C277.45 273.123 276.753 273.362 276.333 272.894C275.915 272.437 276.03 271.632 276.262 271.118C276.417 270.778 277.288 269.91 276.716 269.657C276.437 269.533 276.11 269.839 276.003 269.445C275.939 269.207 276.218 268.857 276.252 268.625C276.309 268.241 276.147 267.057 275.501 267.306C275.175 267.43 274.967 268.561 274.781 268.91C274.479 269.486 274.213 269.802 273.611 270.014C273.126 270.186 272.584 270.68 272.08 270.657C271.743 270.643 271.528 270.408 271.323 270.165C271.107 269.91 270.848 269.701 270.616 269.445C269.879 268.635 271.08 268.823 271.578 268.769C271.851 268.739 272.154 268.641 272.352 268.439C272.547 268.244 272.584 267.898 272.786 267.726C273.012 267.534 273.426 267.709 273.567 267.487C273.691 267.289 273.489 266.868 273.368 266.727C273.015 266.323 272.483 266.252 272.369 265.66C272.295 265.277 272.302 263.79 271.817 264.812C271.541 265.394 271.319 265.839 270.714 266.158C270.132 266.464 269.432 266.441 268.833 266.7C268.604 266.798 268.294 266.972 268.52 267.235C268.658 267.4 269.126 267.386 269.334 267.407C269.6 267.433 269.93 267.386 270.155 267.518C270.32 267.615 270.667 267.901 270.374 268.042C270.058 268.197 269.176 268.217 268.678 268.426C268.227 268.618 267.773 268.843 267.376 269.133C266.801 269.546 266.208 269.96 265.67 270.445C265.101 270.953 264.657 271.572 264.129 272.12C263.604 272.665 262.914 273.147 262.242 273.466C261.579 273.782 261.185 273.712 260.627 273.271C260.051 272.813 259.634 273.224 258.995 273.157C258.362 273.086 257.837 272.827 257.319 272.47C256.855 272.151 256.172 271.73 255.973 271.188C255.852 270.859 255.899 270.721 255.573 270.492C255.273 270.283 254.9 270.263 254.607 270.044C254.089 269.657 254.392 268.995 253.978 268.584C253.517 268.123 252.774 268.618 252.329 268.833C251.572 269.2 250.647 269.193 249.88 268.863C249.48 268.692 249.278 268.497 249.039 268.16C248.827 267.861 248.544 267.447 248.12 267.487C247.757 267.521 247.367 267.948 247.219 268.278C247.013 268.742 247.05 269.176 246.623 269.52C246.26 269.809 245.964 269.745 245.597 269.479C245.042 269.069 244.995 268.5 244.769 267.918C244.668 267.656 244.503 267.329 244.238 267.195C243.911 267.033 243.692 267.147 243.417 266.831C243.016 266.377 242.993 265.876 242.35 265.707C241.711 265.536 241.045 265.62 240.388 265.529C239.89 265.462 238.962 265.489 238.531 265.183C238.282 265.004 238.4 264.681 238.242 264.425C238.037 264.096 237.7 264.176 237.434 263.988C237.044 263.709 237.222 262.773 237.041 262.35C236.802 261.778 236.378 261.518 235.863 261.209C235.338 260.889 234.854 260.472 234.386 260.075C233.875 259.644 233.575 259.079 233.192 258.541C232.808 258.002 232.488 257.525 232.327 256.869C232.179 256.263 232.236 255.6 232.179 255.015C232.206 254.678 232.175 254.244 232.28 253.921C232.357 253.686 232.522 253.477 232.609 253.235C232.795 252.717 232.919 252.161 232.969 251.616C233.04 250.876 233.027 249.988 232.781 249.312C232.317 248.023 231.799 246.731 230.857 245.701C230.278 245.066 229.467 244.648 228.976 243.955C228.629 243.464 228.511 242.798 227.939 242.535C227.512 242.34 226.583 242.095 226.738 241.432C226.873 240.843 227.502 240.665 228.013 240.614C228.626 240.554 228.969 240.241 229.332 239.76C229.595 239.413 230.83 238.306 230.466 238.084C229.938 237.764 229.282 238.579 228.69 238.757C228.148 238.918 227.576 239.066 227.085 239.292C226.469 239.574 226.456 240.352 225.837 240.638C225.345 240.863 224.632 240.648 224.09 240.752C223.538 240.86 221.012 241.967 220.157 241.65C219.588 241.442 219.185 240.91 219.632 240.362C219.834 240.116 220.036 240.305 220.308 240.221C220.574 240.14 220.557 239.978 220.739 239.753C221.089 239.326 221.574 239.467 221.913 239.077C222.744 238.124 221.698 236.429 222.448 235.412C222.627 235.174 222.845 235.11 222.808 234.76C222.771 234.417 222.448 234.353 222.317 234.083C222.031 233.511 222.691 233.051 222.701 232.512C222.728 231.079 221.177 230.618 220.561 229.592C220.194 228.979 220.308 228.283 219.962 227.664C219.763 227.307 219.104 226.469 218.804 227.088C218.673 227.358 218.784 227.711 218.539 227.963C218.249 228.259 218.098 228.115 218.064 228.596C218.021 229.242 218.158 229.797 217.93 230.413C217.708 231.012 217.102 231.469 217.136 232.159C217.169 232.855 217.492 233.582 216.984 234.184C216.792 234.41 216.483 234.538 216.395 234.834C216.318 235.096 216.385 235.486 216.385 235.759C216.385 236.318 216.362 237.102 215.743 237.337C215.154 237.562 214.75 236.9 214.38 236.59C213.731 236.048 213.404 236.422 212.933 236.937C212.664 237.233 212.503 237.32 212.132 237.337C211.83 237.35 211.564 237.337 211.285 237.478C210.82 237.721 210.477 238.4 209.929 238.434C209.673 238.451 209.39 238.38 209.323 238.111C209.232 237.764 209.592 237.559 209.713 237.293C209.851 236.994 209.727 236.667 209.902 236.375C210.06 236.109 210.359 236.035 210.534 235.823C210.925 235.355 210.134 234.501 211.106 234.406C211.692 234.349 212.328 234.44 212.927 234.443C213.509 234.443 213.744 233.989 213.852 233.421C213.973 232.768 214.165 230.864 214.198 230.672C214.232 230.497 214.239 230.322 214.185 230.16C214.084 229.857 213.751 229.686 213.7 229.349C213.636 228.929 213.862 228.539 214.138 228.229C214.525 227.792 214.424 227.603 214.316 227.068C214.232 226.644 214.202 226.123 214.494 225.793C214.71 225.547 214.908 225.48 214.959 225.144C215.009 224.801 214.955 224.538 215.11 224.215C215.386 223.64 215.978 223.209 216.422 222.792C216.934 222.311 217.479 221.759 217.953 221.258C218.155 221.042 218.337 220.817 218.175 220.538C218.051 220.315 217.701 220.278 217.597 220.009C217.489 219.74 217.644 219.491 217.465 219.225C217.287 218.956 217.112 218.919 217.21 218.549C217.327 218.095 217.957 217.631 218.384 217.442C218.882 217.227 219.703 217.304 219.097 216.524C218.791 216.133 218.081 216.15 217.92 215.625C217.735 215.026 218.158 214.471 218.135 213.913C218.105 213.23 217.412 213.32 217.24 212.738C217.166 212.486 217.152 210.831 216.466 211.389C216.056 211.726 216.547 212.789 216.634 213.166C216.749 213.654 216.934 214.363 216.634 214.831C216.315 215.336 215.692 215.087 215.208 215.329C214.225 215.82 213.922 217.432 213.576 218.367C213.33 219.037 212.98 219.582 212.674 220.215C212.388 220.807 212.375 221.412 212.176 222.001C211.907 222.795 211.268 222.358 210.716 222.179C210.144 221.994 209.525 222.237 209.178 222.711C208.741 223.303 208.425 223.916 207.866 224.39C207.324 224.851 206.584 225.033 206.049 225.5C205.437 226.032 205.622 226.772 205.407 227.455C205.322 227.724 205.141 227.994 204.868 228.105C204.549 228.236 204.316 228.138 204.091 228.451C203.768 228.902 203.919 229.659 203.872 230.197C203.845 230.49 203.862 230.813 203.667 231.052C203.438 231.328 203.193 231.176 202.873 231.16C202.204 231.126 201.864 231.688 201.84 232.3C201.806 233.209 202.742 232.633 203.082 233.199C203.364 233.666 202.897 234.561 202.439 234.904C201.877 235.322 201.473 234.571 200.952 234.406C200.329 234.211 199.879 234.578 199.276 234.548C198.526 234.511 198.553 233.983 198.412 233.407C198.277 232.859 198.055 232.246 197.459 232.024C196.995 231.853 195.979 231.893 196.211 231.089C196.426 230.335 197.19 231.022 197.638 230.944C197.883 230.904 197.934 230.645 197.917 230.349C197.9 229.985 197.083 228.454 196.911 227.889C196.739 227.317 196.941 226.749 196.887 226.167C196.827 225.527 196.558 224.952 196.147 224.454C195.706 223.919 195.185 223.451 194.67 223.004C194.25 222.637 193.617 222.385 193.277 221.934C192.981 221.533 193.129 220.591 193.035 220.1C192.921 219.508 192.685 219.007 192.261 218.566C191.814 218.102 191.245 217.772 190.612 217.721C190.316 217.698 190.061 217.728 189.802 217.57C189.6 217.449 189.411 217.045 189.115 217.149C188.822 217.25 189.031 217.772 188.584 217.577C188.395 217.496 188.247 217.129 188.146 216.937C187.867 216.406 187.658 215.8 187.329 215.306C187.032 214.861 186.595 214.397 186.908 213.839C187.12 213.455 187.16 213.751 187.514 213.731C187.931 213.704 187.961 213.405 187.944 213.055C187.914 212.459 187.715 211.89 187.292 211.45C186.757 210.898 186.171 211.154 185.653 211.514C185.384 211.702 185.192 211.884 184.913 211.692C184.634 211.5 184.586 211.133 184.741 210.844C185.014 210.336 185.852 210.528 185.384 209.704C184.845 208.755 183.59 208.082 182.584 207.789C181.824 207.567 181.464 207.91 180.848 208.253C180.471 208.465 180.068 208.533 179.671 208.489C179.513 208.472 177.8 207.19 176.895 206.813C176.034 206.453 175.078 206.265 174.143 206.393C173.396 206.494 172.847 206.948 172.181 207.241C171.475 207.554 171.081 207.173 170.728 206.632C170.408 206.14 170.203 205.535 169.755 205.144C169.328 204.774 168.716 204.478 168.191 204.253C167.437 203.93 166.902 203.741 166.333 203.112C166.132 202.887 165.909 202.675 165.586 202.648C165.247 202.621 164.93 202.894 164.587 202.759C163.955 202.507 163.729 201.511 162.949 201.474C162.208 201.44 161.68 202.19 161.28 202.688C160.913 203.139 160.412 203.799 159.809 203.9C159.305 203.984 156.189 203.738 155.149 203.785C153.736 203.849 152.401 204.105 151.004 204.29C149.238 204.525 147.451 204.899 145.792 205.602C143.959 206.379 142.038 207.042 140.238 207.927C138.602 208.731 136.907 209.7 135.15 210.198C134.43 210.403 133.751 210.366 133.047 210.679C132.364 210.982 131.702 211.419 130.971 211.564C130.42 211.672 129.76 211.604 129.188 211.635C128.71 211.658 125.713 212.355 124.875 212.133C124.252 211.968 123.724 211.594 123.065 211.527C122.435 211.463 121.688 211.416 121.069 211.571C119.697 211.917 118.442 212.849 117.284 213.674C115.814 214.72 114.222 215.608 112.863 216.803C111.51 217.994 110.027 218.896 108.264 219.326C106.645 219.723 105.057 219.929 104.297 221.678C103.991 222.385 103.994 223.185 103.695 223.868C103.462 224.4 102.813 224.77 102.776 225.356C102.736 225.995 103.129 226.53 102.988 227.21C102.914 227.559 102.742 227.674 102.453 227.879C102.117 228.121 102.113 228.179 102.019 228.565C101.834 229.323 101.087 228.956 100.7 229.491C100.384 229.928 100.592 230.803 99.9598 231.052C99.519 231.224 98.8663 230.187 98.5029 230.82C98.2674 231.23 98.7317 232.256 97.7829 231.997C97.2984 231.866 96.9585 231.324 96.6154 230.981C96.4741 230.84 95.9795 230.655 95.5959 230.517C95.4209 230.453 95.0071 230.382 94.8086 230.45C94.0885 230.699 92.5442 231.392 91.5449 231.631C91.0705 231.745 90.6095 231.933 90.2697 232.28C89.9602 232.6 89.7583 233.003 89.2973 233.091C88.4932 233.242 88.4394 232.717 88.4057 232.095C88.3687 231.422 88.0894 231.086 87.4064 230.988C86.0572 230.796 85.0983 232.657 83.665 231.923C83.1603 231.668 82.945 230.907 82.272 231.052C81.5823 231.197 81.1819 231.937 80.4551 232.021C79.8428 232.092 79.2035 231.742 78.645 232.139C78.3725 232.33 78.3018 232.694 78.0595 232.906C77.7971 233.135 77.3967 233.162 77.0704 233.165C76.4647 233.172 75.9297 233.074 75.3241 233.165C74.9708 233.219 74.7555 233.289 74.4594 233.485C74.1734 233.673 74.0086 233.821 73.6486 233.804C73.0463 233.781 72.5584 233.417 71.973 233.374C71.3236 233.326 70.6473 233.441 70.0484 233.626C68.8271 234.003 67.9523 235.271 67.7706 236.503C67.6865 237.081 67.6057 237.778 67.1851 238.222C67.0102 238.407 65.3918 239.995 65.0452 240.103C64.7122 240.204 64.5742 240.059 64.268 239.894C63.8373 239.662 63.1611 239.241 62.6597 239.494C62.118 239.766 62.2156 240.527 62.1079 241.011C61.8051 242.35 60.4021 242.286 59.6821 243.222C59.2548 243.777 59.0428 244.605 58.676 245.22C58.2958 245.853 57.6969 246.3 57.0005 246.553C56.479 246.741 56.2804 247.296 55.7959 247.498C55.2542 247.724 54.6015 247.414 54.043 247.421C53.4071 247.427 53.0033 247.939 52.3674 247.882C51.6104 247.811 51.5162 247.347 50.9509 246.98C50.4159 246.637 49.7531 246.707 49.1946 246.98C48.8076 247.168 48.1482 247.707 47.7848 247.673C47.085 247.636 46.6375 247.559 46.0218 247.888C45.507 248.164 44.972 248.434 44.3832 248.205C43.791 247.973 43.3233 247.66 42.674 247.599C42.028 247.535 41.3483 247.545 40.7191 247.384C39.5146 247.078 38.7138 245.944 38.0678 244.965C37.876 244.675 37.7112 244.477 37.3983 244.308C37.1493 244.174 36.9037 244.201 36.6513 244.097C36.0625 243.848 35.6285 243.333 35.0397 243.08C34.7604 242.959 34.5619 242.986 34.2624 242.929C33.9832 242.872 33.751 242.613 33.4785 242.542C32.8762 242.384 32.496 243.074 31.8736 243.033C31.1906 242.993 30.8844 242.431 30.7262 241.822C30.558 241.179 30.5277 240.614 30.2081 240.005C29.8885 239.4 30.0668 238.73 29.8178 238.114C29.5789 237.525 29.2391 237.098 29.2727 236.405C29.2929 235.984 29.2324 234.891 29.6025 234.595C30.1173 234.184 30.4672 235.241 30.8406 235.416C31.8029 235.873 33.2194 234.555 33.6131 233.767C34.1279 232.744 33.9933 231.086 33.7914 229.982C33.6568 229.249 33.5357 228.508 33.3439 227.785C33.2194 227.317 33.0613 226.099 33.0478 225.174C33.0411 224.777 33.428 223.478 33.5626 223.189C33.7477 222.785 33.9327 222.371 33.9293 221.893C33.926 220.773 33.7746 219.69 33.6097 218.606C33.3574 216.978 32.9334 215.595 32.0889 214.195C31.2949 212.873 30.4537 211.53 29.5453 210.252C29.0809 209.596 28.5191 209.007 27.9975 208.398C27.5299 207.846 27.2674 207.096 26.9512 206.44C26.3388 205.158 24.4142 200.939 24.1081 200.047C23.6336 198.657 23.8254 197.154 23.6101 195.707C23.4755 194.802 23.3006 193.907 23.065 193.022C22.88 192.319 22.7353 191.488 22.308 190.882C21.9379 190.357 21.2751 190.206 20.7233 189.947C20.1075 189.657 19.5995 189.311 19.2462 188.742C18.395 187.373 18.6574 185.832 18.2469 184.324C18.0854 183.732 17.722 183.153 17.2207 182.79C16.6958 182.413 16.0263 182.38 15.4711 182.053C14.4853 181.468 14.28 180.59 14.1152 179.651C14.0311 179.17 13.6879 176.825 13.6475 176.555C13.1933 173.759 10.2526 172.461 8.97741 170.139C8.32468 168.951 7.3624 168.073 6.63228 166.966C5.97618 165.977 5.22924 165.126 4.49239 164.184C4.11219 163.699 3.38544 163.413 3.20711 162.794C3.04225 162.222 3.63442 161.559 4.092 162.118C4.2064 162.256 4.24341 162.407 4.38809 162.518C4.50585 162.609 4.65389 162.612 4.77165 162.723C4.98699 162.929 4.98362 163.211 5.06438 163.47C5.23261 164.002 5.65991 164.248 5.98291 164.648C6.34629 165.096 6.74331 165.53 7.16726 165.94C7.40614 166.169 7.68541 166.344 7.89065 166.606C8.06561 166.828 8.18337 167.161 8.39197 167.346C8.90339 167.801 9.40809 167.283 9.62342 166.822C9.87577 166.28 9.8724 165.519 9.77483 164.931C9.68735 164.406 9.41145 163.985 8.92695 163.746C8.46263 163.518 7.89738 163.4 7.62484 162.898C7.34222 162.377 7.33885 161.926 6.89472 161.465C6.47078 161.024 6.20161 160.56 6.06703 159.978C6.00983 159.732 5.97955 159.399 5.81805 159.194C5.61617 158.938 5.32345 158.999 5.09802 158.777C4.7582 158.44 4.92306 157.522 5.04419 157.128C5.2999 156.28 5.73393 156.775 6.11413 157.269C6.46069 157.72 6.8207 158.164 7.11342 158.652C7.38259 159.103 7.65176 159.598 7.70223 160.123C7.72915 160.419 7.65512 160.772 7.7527 161.051C7.84354 161.31 8.10598 161.462 8.2372 161.701C8.34487 161.899 8.28431 162.39 8.48618 162.522C8.7318 162.683 9.00433 162.394 9.09518 162.192C9.20284 161.953 9.10527 160.587 9.45182 160.631C9.66379 160.654 9.95315 161.929 10.0406 162.155C10.2324 162.649 10.4006 163.198 10.6294 163.652C10.8851 164.164 11.3125 164.651 11.8945 164.301C12.3488 164.029 12.517 163.356 12.5977 162.868C12.766 161.842 12.8366 160.291 12.342 159.376C12.0964 158.925 11.6287 158.612 11.2351 158.316C10.9861 158.127 10.7808 157.936 10.5655 157.7C10.4242 157.549 10.1887 157.165 10.1079 157.108C9.79838 156.634 9.54267 156.146 9.14228 155.745C7.95121 154.561 7.13361 153.148 6.40013 151.651C5.71711 150.261 4.83558 148.993 4.19631 147.569C3.58731 146.207 2.9043 145.116 2.9043 143.582C2.9043 142.048 3.12973 140.783 3.48301 139.376C3.81274 138.061 4.54959 136.903 4.75147 135.571C4.99372 133.949 5.6229 132.328 5.63972 130.696C5.63972 130.386 5.6229 130.077 5.59262 129.771C5.54215 129.269 5.38401 128.842 5.1384 128.411C4.88942 127.981 4.60342 127.594 4.33089 127.176C4.07855 126.786 3.78582 126.423 3.75891 125.942C3.73536 125.508 3.93387 125.07 4.07182 124.663C4.23668 124.189 4.40491 123.697 4.58997 123.23C4.98026 122.247 5.20569 121.231 5.37392 120.195C5.51523 119.31 5.7373 118.317 6.27227 117.57C6.50779 117.241 6.73322 116.877 7.09323 116.679C7.64503 116.373 7.56764 117.103 7.46334 117.456C7.19081 118.354 6.95529 119.29 7.0394 120.262C7.07641 120.713 7.27492 121.006 7.52054 121.372C7.58447 121.467 7.90747 121.978 7.98486 122.537C8.0185 122.799 7.99495 123.075 7.94112 123.297C7.88728 123.519 7.68877 124.014 7.66858 124.242C7.63494 124.703 7.65176 125.269 8.01177 124.993C8.16654 124.875 8.74189 124.495 9.13892 124.121C9.55276 123.734 9.78156 123.351 9.8152 123.253C9.85221 123.142 10.5857 121.837 10.653 121.621C10.7506 121.305 10.9423 120.969 11.0971 120.669C11.3932 120.097 11.6119 119.542 11.7398 118.906C11.8508 118.364 11.9719 117.867 12.3218 117.459C12.5607 117.184 12.914 116.998 13.089 116.672C13.2774 116.326 13.2976 116.043 13.6643 115.797C14.2699 115.39 15.0573 115.471 15.7335 115.259C16.5949 114.99 17.3183 114.229 18.0686 113.721C18.8963 113.163 19.7408 112.995 20.5113 112.318C21.1943 111.719 21.8975 111.127 22.3652 110.323C22.8598 109.468 23.3275 108.19 24.1484 107.611C24.8853 107.09 25.9451 106.716 26.7695 106.242C27.7721 105.66 28.8252 105.179 29.6597 104.351C30.1442 103.866 31.0122 101.575 31.5539 102.134C32.0889 102.682 30.1845 103.977 31.1872 104.566C32.21 105.165 32.3514 103.308 33.1319 103.264C33.5996 103.237 33.8452 103.856 34.2557 104.068C34.683 104.29 35.0565 104.24 35.5545 104.263C36.6816 104.317 37.1257 104.674 38.1755 104.031C39.1479 103.436 40.2346 102.8 41.096 102.036C41.5367 101.642 41.8261 101.155 42.2399 100.754C42.859 100.155 43.1585 100.152 43.9693 100.182C44.7701 100.212 44.8946 99.8861 45.6113 99.5732C46.1362 99.3444 46.7115 99.4083 47.2465 99.489C47.9833 99.6001 48.2121 99.6674 48.8043 99.1122C49.2955 98.6479 49.531 98.0557 49.9617 97.5645C50.5606 96.8781 51.3345 96.0672 52.29 96.0672C52.4784 96.0672 53.4003 95.8923 54.1136 96.1917C54.8774 96.5114 55.4326 97.2987 55.7657 97.043C55.9944 96.868 56.1055 96.5383 56.3006 96.3229C56.6573 95.936 57.2797 95.6433 57.7811 95.5154C58.0065 95.4582 58.2151 95.391 58.3564 95.1924C58.4775 95.0242 58.5145 94.8156 58.6626 94.6642C58.9587 94.3647 59.3759 94.4489 59.7763 94.4489C60.6847 94.4489 61.5057 94.3547 62.3603 94.0619C63.4235 93.7019 64.4901 93.4294 65.4355 92.8271C66.6031 92.0869 70.3075 89.1395 70.5228 88.8636C70.7113 88.6214 70.9535 88.4262 71.1352 88.1806C71.5894 87.5649 71.8014 86.8112 72.1378 86.1316C72.3734 85.6504 72.5248 85.1895 72.5853 84.6579C72.6291 84.2474 72.6425 83.5576 72.9016 83.2111C73.1842 82.8275 73.7394 83.0092 73.9682 82.7367C74.1263 82.5482 74.096 82.3968 74.3686 82.2791C74.5604 82.195 74.6714 82.1445 74.7488 81.9224C74.8834 81.5422 74.8396 81.1115 74.9574 80.7246C75.0987 80.2536 75.2938 80.0854 75.7481 79.9575C76.6027 79.7119 77.1948 79.0524 77.7971 78.4064C78.4297 77.7301 79.3987 77.249 79.503 76.2194C79.5433 75.8258 79.4222 75.4624 79.2405 75.1259C79.116 74.8938 78.4869 73.2855 78.2883 72.7976C78.2009 72.5823 78.1571 72.3333 78.0696 72.1146C77.9351 71.7815 77.6423 71.4787 77.5818 71.1119C77.5145 70.7082 77.6188 70.2607 77.6726 69.8771C77.7265 69.4767 77.7937 69.0763 77.9115 68.6894C78.0394 68.2688 78.2244 67.9526 78.4633 67.5791C78.6988 67.2157 79.0117 66.9264 79.3078 66.6236C79.6039 66.3174 79.9135 66.0146 80.3374 65.9103C80.7243 65.816 81.0944 66.0751 81.478 65.9574C81.9356 65.816 81.6395 65.2811 81.4141 65.0489C81.1213 64.7461 80.795 64.6283 80.8656 64.1506C80.9127 63.841 81.0877 63.2455 81.5486 63.3902C81.69 63.4339 81.8313 63.6156 81.9591 63.693C82.1509 63.8107 82.2821 63.8175 82.5008 63.8477C82.8541 63.8982 83.2074 63.8679 83.4799 63.5618C83.7356 63.2758 83.49 62.9023 83.2343 62.7071C82.945 62.4817 82.4941 62.4548 82.8137 62.0174C83.2276 61.4555 83.7222 60.934 84.1562 60.3957C84.4018 60.0928 84.7215 59.7665 85.1353 59.7766C85.2699 59.7799 85.5323 59.8439 85.6333 59.9414C85.8015 60.1063 85.6737 60.2577 85.5458 60.4226C85.3338 60.6951 85.0916 61.0147 85.0882 61.368C85.0815 61.8088 85.3675 61.9434 85.5895 62.1284C85.8856 62.5389 86.2355 62.8485 86.2221 63.37C86.2187 63.5752 86.0976 64.1708 86.3028 64.3121C86.4004 64.3794 86.7268 64.2582 86.8681 64.2919C87.0801 64.3423 87.1743 64.4231 87.2786 64.6014C87.4771 64.9412 87.5679 65.2205 87.6285 65.6041C87.6891 66.0011 87.7429 66.526 87.9683 66.8523C88.1534 67.1215 88.4797 67.3133 88.5605 67.643C88.6581 68.0401 88.4629 68.427 88.5067 68.8307C88.5538 69.2547 88.9239 69.2917 89.2132 69.5272C89.5295 69.7829 89.8222 70.0353 90.0443 70.3785C90.2125 70.6375 90.5759 71.0446 90.5961 70.4727C90.6095 70.0925 90.586 69.6988 90.6398 69.3253C90.6937 68.9451 90.8013 68.649 90.9729 68.3025C91.1681 67.9156 91.0335 67.6397 90.7946 67.3032C90.5624 66.9768 90.4312 66.6505 90.4548 66.24C90.4716 65.9574 90.5961 65.2811 91.02 65.4358C91.3868 65.5704 91.4843 66.0718 91.5718 66.3746C91.6694 66.7144 91.804 67.0677 92.0059 67.357C92.238 67.6901 92.5476 67.8584 92.9244 67.9997C93.1835 68.0973 93.7151 68.326 93.9741 68.1477C94.3072 67.9156 93.5569 67.6464 93.3752 67.5421C93.0455 67.3537 92.7259 67.1989 92.5206 66.8624C92.5072 66.8624 92.5005 66.8692 92.5038 66.886C92.4197 66.6168 92.3053 66.3409 92.3255 66.065C92.3457 65.8093 92.4634 65.5738 92.4735 65.3147C92.4836 65.0153 92.4096 64.7461 92.6317 64.524C92.8268 64.3289 93.0993 64.2179 93.3046 64.0328C93.4493 63.9016 93.8665 63.5147 93.6814 63.37C93.456 63.195 93.1229 63.7771 92.8066 63.7939C92.4264 63.8175 92.1202 63.6896 91.9083 63.3834C91.7401 63.1412 91.6357 62.7206 91.4204 62.5389C91.2185 62.3673 91.1109 62.5221 90.9696 62.5995C90.8215 62.6836 90.6735 62.7004 90.4985 62.6062C90.226 62.4582 90.0308 62.0881 89.829 61.8694C89.6035 61.6237 89.2334 61.4286 89.1123 61.109C88.9777 60.7557 89.1392 60.3216 89.5699 60.3957C89.9736 60.4663 90.1082 60.86 90.5624 60.7489C90.798 60.2106 89.6203 59.9751 89.977 59.6857C90.2327 59.4805 91.0503 60.1972 91.3296 59.9381C91.6761 59.6151 90.6802 59.0296 90.4682 58.9489C90.1991 58.8446 89.7684 58.7773 89.5867 58.498C89.3613 58.1481 90.1183 58.138 90.3538 58.0472C90.8047 57.8722 91.8444 56.8258 91.9958 57.7073C92.0563 58.0606 92.0631 58.4206 92.2784 58.7302C92.3793 58.8715 92.5442 58.9691 92.6317 59.1171C92.7225 59.2719 92.6922 59.4637 92.736 59.6353C92.8403 60.0491 93.1599 60.251 93.567 60.0928C94.0179 59.9145 93.6949 58.4509 93.9472 58.249C94.2702 57.99 94.6 58.3163 94.822 58.5115C95.2022 58.8479 95.4849 59.208 95.7978 59.605C96.1578 60.0659 96.5851 59.9751 97.1268 60.0794C97.3421 60.1198 98.19 61.008 98.3279 60.786C98.4121 60.6514 97.7223 59.3156 98.2573 59.2921C98.6543 59.2752 99.1556 59.7463 99.4887 59.9313C99.9295 60.1736 100.441 60.1433 100.946 60.14C101.232 60.14 102.719 60.0659 102.534 59.8001C102.312 59.4771 101.501 59.7295 101.181 59.4939C100.878 59.2719 100.717 58.9422 100.417 58.7335C99.7377 58.2591 98.227 59.541 97.9074 58.4509C97.793 58.0573 97.8805 57.3608 98.3279 57.2262C98.7654 57.0916 99.3912 57.5391 99.6132 56.9604C99.7949 56.4826 99.4416 56.0486 99.3979 55.5944C99.334 54.9214 99.7377 54.8205 100.32 54.8205C100.545 54.8205 100.845 54.8811 101.026 54.7229C101.215 54.5547 101.117 54.2721 101.174 54.0466C101.238 53.801 101.336 53.6866 101.279 53.3939C101.238 53.1752 101.131 52.9161 101.026 52.7109C100.909 52.4787 100.33 51.5097 100.111 52.0851C100.034 52.2836 100.192 52.6066 100.172 52.8287C100.152 53.0675 100.078 53.1988 99.9261 53.3872C99.6435 53.7337 99.2768 54.0029 98.984 54.3461C98.7788 54.5883 98.4255 55.5473 98.1799 55.268C97.8603 54.9013 97.5575 53.0776 97.5844 52.5359C97.6113 52.0144 97.6483 51.4223 97.8906 50.9613C97.9848 50.7796 98.1294 50.5508 98.3279 50.4835C98.4726 50.4331 99.916 50.5071 100.094 50.3254C100.229 50.1908 100.175 49.9183 100.168 49.75C100.155 49.4237 100.152 49.1141 100.401 49.0569C100.478 49.0401 100.855 49.1242 100.999 49.1949C101.198 49.2925 101.454 49.4371 101.656 49.6525C102.002 50.0226 102.231 50.4701 102.382 50.7123C102.436 50.7998 102.594 50.8806 102.685 50.8637C102.877 50.8301 103.203 50.7594 103.469 50.7224C103.812 50.6753 104.122 50.7931 104.243 50.8637C104.404 50.9579 104.519 51.1867 104.653 51.318C104.862 51.5232 105.454 52.0683 105.639 51.5535C105.784 51.1531 104.956 50.5979 104.724 50.3355C104.596 50.1908 104.472 50.0461 104.354 49.8981C104.192 49.6962 104.028 49.2016 103.987 49.168C103.705 48.9257 103.203 49.0771 103.143 48.495C103.079 47.8995 103.412 47.738 103.819 47.4487C104.216 47.166 104.455 46.8666 105.007 47.0752C105.427 47.2333 105.801 47.5092 106.231 47.6606C106.551 47.7716 107.399 48.0576 107.688 47.7447C108.085 47.3107 107.224 47.0079 106.975 46.917C106.255 46.6512 106.935 46.3551 107.19 46.0591C107.739 45.4198 106.729 45.6284 106.383 45.6418C105.71 45.6688 105.643 45.5039 105.491 44.9286C105.34 44.3498 104.68 44.5484 104.398 44.1513C104.112 43.7509 104.563 43.5154 104.936 43.2429C105.273 42.9939 105.124 42.6608 105.488 42.4253C105.801 42.22 106.201 42.3681 106.504 42.1292C106.81 41.887 106.655 41.4428 106.978 41.1837C107.177 41.0256 107.396 41.0492 107.604 41.1265C107.907 41.2376 107.91 41.5337 108.146 41.6851C108.701 42.0384 108.61 40.9953 108.472 40.7329C108.254 40.319 107.91 39.9759 107.957 39.4611C108.005 38.9833 108.388 38.6401 108.822 39.0439C109.138 39.3399 109.182 39.9119 109.623 40.0869C109.842 40.1744 110.118 40.0734 110.33 40.2114C110.555 40.3594 110.619 40.5848 110.632 40.8271C110.659 41.2981 110.653 41.8331 110.811 42.284C111.006 42.8391 111.601 42.7517 111.827 42.2604C112.012 41.8567 111.982 41.3082 112.029 40.8574C112.076 40.3661 112.123 39.8648 112.146 39.3702C112.194 38.4147 111.8 37.1159 112.503 36.4733C112.967 36.046 113.018 37.6072 113.085 37.9403C113.136 38.1825 113.2 38.593 113.489 38.667C113.933 38.7814 114.313 38.1623 114.256 37.7956C114.219 37.5533 114.007 37.4221 114.017 37.1698C114.031 36.8871 114.232 36.877 114.465 36.8165C114.663 36.7627 114.858 36.7256 115.026 36.5776C115.191 36.4329 115.299 36.1402 115.501 36.0494C116.107 35.7667 115.898 36.8771 115.881 37.1698C115.858 37.5298 115.858 38.4382 116.393 38.4483C116.763 38.455 117.372 36.4531 117.789 36.3387C118.082 36.258 118.839 36.8367 118.98 36.2512C119.017 36.1032 118.586 35.2351 118.331 35.0231C118.105 34.8381 117.372 34.3368 117.486 34.0811C117.637 33.7311 118.543 33.9667 118.808 34.0441C119.676 34.293 120.635 34.4478 121.305 35.1476C121.587 35.4437 121.82 35.9114 122.277 35.8946C122.476 35.8879 122.742 35.7499 122.879 35.6019C123.041 35.4269 123.011 35.2284 123.29 35.1779C123.751 35.0972 124.313 35.548 124.558 35.8912C124.871 36.3253 125.1 36.7492 125.315 37.2303C125.541 37.735 125.716 38.0883 126.288 38.1825C126.856 38.2734 127.001 38.5694 127.26 39.0506C127.492 39.4813 127.708 40.0398 128.078 40.3729C128.344 40.6118 130.06 41.6582 130.83 42.3378C130.904 42.4051 130.951 42.5397 130.971 42.7045C131.018 43.0915 130.931 43.65 130.783 43.8855C130.191 44.8411 130.238 45.9649 130.026 47.0348C129.972 47.2972 129.972 47.5294 129.797 47.7481C129.622 47.9668 129.504 48.0576 129.447 48.3504C129.353 48.8349 129.047 51.1901 129.679 50.9579C130.043 50.8267 130.285 50.2648 130.413 49.9452C130.584 49.5179 130.796 49.131 131.008 48.7272C131.251 48.2629 131.57 47.7077 131.991 48.3705C132.152 48.6229 132.236 48.7272 132.361 48.4008C132.445 48.1821 132.697 47.2064 132.65 46.944C132.61 46.7253 132.459 46.6142 132.374 46.4157C132.014 45.5375 134.497 46.1465 134.908 45.9413C135.685 45.551 133.963 43.825 133.868 43.29C133.727 42.4758 134.481 42.9804 134.82 43.1419C135.268 43.3573 135.722 43.4818 136.099 43.8317C136.51 44.2153 136.61 44.471 137.169 44.1816C137.405 44.0605 137.549 44.0134 137.822 44.0033C137.987 43.9966 138.922 44.296 139.124 44.434C139.598 44.7603 139.995 45.1203 140.17 45.7529C140.298 46.2105 139.915 46.5402 139.962 46.9709C140.039 47.6808 140.476 47.0314 140.709 46.8598C140.9 46.7185 141.058 46.7656 141.176 46.5503C141.274 46.3753 141.17 46.1196 141.331 45.9716C141.62 45.7058 142.435 46.197 142.149 45.4299C141.95 44.905 141.567 44.7502 141.146 44.4541C140.722 44.1581 140.429 43.5928 141.119 43.4952C141.58 43.4313 142.091 43.5894 142.455 43.8216C142.896 44.1009 143.303 44.3128 143.582 44.7738C143.828 45.1775 144.083 45.6755 144.147 46.1398C144.225 46.7084 144.066 47.0819 144.712 47.2905C145.143 47.4318 145.766 47.4789 145.984 47.95C146.203 48.4244 146.163 48.8113 146.698 49.0838C147.091 49.2857 147.653 49.2655 148.107 49.2184C148.272 49.2016 148.629 49.1612 148.726 48.9964C148.878 48.744 148.514 48.7171 148.309 48.6532C147.875 48.5253 147.508 48.4277 147.125 48.1485C146.714 47.8457 146.388 47.4655 146.169 46.9978C145.971 46.5705 145.725 46.2508 145.426 45.8706C144.719 44.979 144.642 44.1614 145.665 43.5154C146.048 43.2732 146.711 43.1924 146.98 42.8089C147.434 42.1696 146.432 42.284 146.082 42.3042C145.755 42.321 144.961 42.2772 144.921 41.8298C144.884 41.4125 145.917 41.3452 145.395 40.7665C145.123 40.4671 144.349 40.6824 143.999 40.7026C143.764 40.7161 143.528 40.7026 143.353 40.5478C143.192 40.4032 143.178 40.1777 142.983 40.0566C142.758 39.922 142.576 40.0465 142.455 39.7807C142.374 39.6057 142.408 39.2659 142.431 39.0674C142.482 38.6199 142.596 38.0042 142.758 37.5836C143.017 36.9107 143.494 37.5937 143.908 37.5836C144.551 37.5668 144.433 36.9073 144.686 36.5137C144.931 36.1301 145.409 36.0393 145.607 35.5649C145.786 35.1375 145.877 32.1296 145.867 31.9412C145.846 31.5542 145.846 31.0967 146.126 30.8039C146.785 30.1075 147.502 31.312 148.215 31.201C149.123 31.0596 149.204 29.7542 150.234 29.8013C150.624 29.8215 151.277 29.9964 151.304 29.4446C151.324 29.0274 151.041 28.5732 150.681 28.3747C150.321 28.1762 149.793 28.2199 149.483 27.9003C149.234 27.6446 149.258 26.7933 149.467 26.5107C149.699 26.1978 150.288 25.6763 150.671 25.1548C151.186 24.4583 151.492 23.7685 151.64 23.6912C151.919 23.5431 152.283 23.7618 152.542 23.5027C152.781 23.2638 152.724 22.8063 152.727 22.4934C152.73 22.0997 153.356 20.7976 153.908 21.3056C154.201 21.5714 153.74 24.317 154.81 23.422C155.254 23.0519 154.863 22.5236 154.837 22.0795C154.796 21.4099 155.388 21.447 155.779 21.7599C156.108 22.0223 156.324 22.3756 156.677 22.6448C157.037 22.9173 157.737 23.1528 157.508 22.4362C157.373 22.0156 157.077 21.6286 156.714 21.3595C156.468 21.1778 155.695 20.8649 155.866 20.4679C156.061 20.0136 156.738 20.2996 157.064 20.3265C157.232 20.34 157.585 20.34 157.68 20.1718C157.794 19.9699 157.548 19.7411 157.478 19.583C157.286 19.1523 157.34 18.5904 157.744 18.328C158.154 18.0622 158.672 18.2338 159.083 18.3953C159.49 18.5534 161.105 19.519 161.549 19.7243C161.963 19.9161 162.404 20.1482 162.854 20.2088C163.1 20.2424 163.356 20.2323 163.611 20.2088C163.854 20.1852 164.631 19.9665 164.826 19.8791C165.371 19.6334 165.99 19.3979 166.478 19.7108C166.791 19.9093 167.016 20.0675 167.4 20.091C167.686 20.1078 168.17 20.054 168.261 19.7647C168.356 19.4652 168.08 19.0951 168.416 18.8495C169.18 18.291 169.876 20.5621 170.428 19.6435C170.68 19.2263 170.66 18.7856 171.121 18.4962C171.535 18.2338 172.258 18.6274 172.565 18.2472C172.857 17.8838 172.302 17.4767 172.242 17.0326C172.218 16.8509 172.215 16.5515 172.292 16.4C172.407 16.1881 172.595 16.1813 172.659 15.9324C172.807 15.3671 172.188 15.1787 171.905 14.8389C171.791 14.7009 171.67 14.4183 171.794 14.24C171.919 14.0616 172.248 14.2299 172.38 13.9944C172.746 13.3517 171.108 12.3087 170.694 12.127C170.479 12.0328 170.24 12.0597 170.008 12.0092C169.786 11.9621 169.597 11.8107 169.385 11.7703C168.975 11.693 168.356 11.7804 168.083 12.1068C167.81 12.4365 167.794 13.1229 167.124 12.9244C166.613 12.773 166.687 12.0462 166.465 11.6593C166.226 11.2488 165.822 11.1714 165.583 10.734C165.472 10.5322 165.395 10.3135 165.196 10.1688C165.018 10.0376 164.769 10.0477 164.607 9.92654C164.146 9.57999 165.176 9.4555 165.412 9.37474C165.869 9.21997 166.209 9.02483 166.741 9.09885C167.222 9.16614 167.508 9.331 167.632 9.80878C167.683 10.0073 167.612 10.3538 167.898 10.3438C168.167 10.337 168.137 10.0342 168.164 9.83906C168.238 9.3411 168.547 8.81286 169.062 9.26708C169.432 9.59344 169.082 10.3236 169.553 10.3976C169.762 10.4312 170.048 10.3236 170.273 10.374C170.499 10.4211 170.741 10.5053 170.926 10.6432C171.333 10.9427 171.236 11.2959 171.454 11.6896C171.569 11.9016 172.316 12.5408 172.531 12.5745C172.891 12.6283 172.753 12.3861 172.894 12.1876C173.049 11.9689 173.261 11.979 173.51 11.979C173.685 11.979 174.079 12.0429 174.193 11.8847C174.341 11.6829 174.065 11.4406 174.072 11.2387C174.106 10.5759 174.836 10.9056 175.088 11.2017C175.388 11.5483 175.674 12.0227 175.845 12.4264C176.034 12.8739 175.929 13.2508 176.336 13.5771C177.08 14.176 178.103 14.176 178.877 14.7211C179.166 14.9263 179.513 15.5017 179.832 15.5757C180.216 15.6632 182.958 14.4721 183.318 15.0542C183.476 15.3099 183.227 15.6666 183.567 15.8785C183.876 16.0703 184.26 15.8045 184.546 15.7137C184.893 15.606 185.172 15.68 185.475 15.8617C185.804 16.0636 185.791 16.2688 185.74 16.6255C185.771 16.5245 185.74 16.5986 185.643 16.8475C185.438 17.3287 185.004 17.9949 185.814 18.1126C186.208 18.1698 186.366 18.5063 186.575 18.8226C186.652 18.9437 186.699 19.0009 186.854 18.9639C186.982 18.9302 187.177 18.7856 187.207 18.6577C187.281 18.3616 187.049 18.1126 186.895 17.9074C186.736 17.6921 186.763 17.3556 187.032 17.2345C187.15 17.1806 187.382 17.1335 187.517 17.1167C187.689 17.0965 189.011 17.3623 189.206 17.5104C189.442 17.6853 189.593 17.9478 189.828 18.1261C190.084 18.3212 190.39 18.1261 190.488 17.8603C190.66 17.3791 190.518 16.6221 191.218 16.5817C191.608 16.5615 191.756 16.824 191.834 17.1705C191.941 17.6651 191.585 18.9033 192.389 18.3313C192.658 18.1395 192.779 17.8771 193.183 18.0857C193.482 18.2405 193.587 18.6106 193.671 18.8999C193.893 19.6503 193.92 20.165 194.862 19.9161C195.171 19.8353 195.505 19.6906 195.817 19.8723C196.127 20.0506 196.114 20.5452 196.564 20.3736C197.096 20.1718 197.305 19.1658 197.066 18.7586C196.935 18.5332 196.443 18.2506 196.753 17.9343C196.998 17.6853 197.412 18.0083 197.641 18.0924C198.341 18.3515 198.681 17.9713 199.192 17.5339C199.599 17.184 200.42 16.5481 201.016 16.8105C201.457 17.0023 201.09 17.1369 200.834 17.332C200.316 17.7291 199.552 18.2203 199.492 18.937C199.455 19.371 199.529 20.1045 200.077 20.1549C200.467 20.192 200.807 19.8286 201.08 19.4753C201.204 19.3138 201.561 18.7654 201.655 18.5971C201.753 18.4289 201.854 18.2741 201.948 18.2237C202.479 17.9377 202.392 18.5298 202.527 18.7284C202.833 19.1758 204.014 18.9168 203.455 19.8319C203.236 20.192 201.955 20.9322 202.887 21.3157C203.472 21.5546 204.478 20.9221 204.714 21.7161C204.798 21.9988 204.66 22.6448 205.148 22.241C205.339 22.0829 205.454 21.6118 205.551 21.3931C205.827 20.7707 206.14 20.1314 206.14 19.4417C206.14 19.1624 206.154 18.7216 205.952 18.5164C205.716 18.2809 205.225 18.5164 205.154 18.1934C205.097 17.9242 205.72 17.7661 205.551 17.5339C205.39 17.3085 204.478 17.4363 204.888 17.0225C205.319 16.5885 206.366 16.935 206.894 16.6255C207.57 16.2285 207.281 15.2864 207.795 14.9533C208.596 14.4351 208.24 16.2318 208.186 16.501C208.118 16.8509 208.028 17.1975 208.186 17.5272C208.347 17.867 208.556 17.9444 208.633 18.328C208.707 18.7149 208.61 19.1557 209.121 18.8663C209.353 18.7351 209.585 18.3818 209.777 18.1867C209.982 17.9814 210.225 17.6651 210.544 17.7089C210.982 17.7627 210.854 18.1766 210.857 18.5568C210.864 19.2734 211.719 19.6974 211.392 20.3804C211.126 20.9355 210.326 21.2047 209.865 21.5748C209.609 21.7801 209.336 21.992 209.252 22.2982C209.158 22.6414 209.299 23.0115 209.064 23.311C208.64 23.8493 207.553 23.3278 207.21 23.9906C207.012 24.3775 207.425 24.6366 207.469 24.8822C207.513 25.1211 207.166 25.4946 207.388 25.72C207.698 26.0363 209.562 25.3802 209.199 26.1675C209.02 26.5511 208.458 26.2987 208.061 26.4098C207.654 26.5242 207.429 26.8068 207.203 27.1567C206.931 27.5773 206.672 28.4924 205.999 28.3242C205.319 28.1526 205.945 26.6756 205.551 26.7529C205.191 26.8236 205.615 28.479 204.66 28.1358C204.222 27.981 204.266 26.5342 203.637 27.4629C203.26 28.0214 203.031 28.9568 202.345 28.0887C201.81 27.4158 201.305 28.0887 201.463 28.8356C201.605 29.4783 202.816 29.5086 202.177 30.3295C201.85 30.7467 200.834 30.8241 200.693 31.3423C200.605 31.6653 200.898 31.8974 201.083 32.1128C201.339 32.4089 201.298 32.5973 201.46 32.9034C201.887 33.7177 202.439 32.6006 202.607 32.2339C202.701 32.0354 202.907 31.5374 203.189 31.8234C203.378 32.0152 203.115 32.5266 203.055 32.7285L203.085 32.7083Z"
            fill="#D9D9D9" />
        <path
            d="M2.68193 159.62C2.39594 159.254 2.0864 158.907 1.84078 158.513C1.53796 158.036 1.39329 157.477 1.12748 156.979C0.979439 156.703 0.545404 156.202 0.205579 156.542C-0.184715 156.935 0.0810886 157.793 0.188756 158.244C0.333434 158.863 0.62952 159.442 0.821302 160.054C1.08038 160.879 1.31926 161.649 2.18733 161.969C2.58772 162.117 3.17989 161.868 3.25728 161.42C3.37504 160.727 3.10924 160.162 2.6853 159.62H2.68193Z"
            fill="#D9D9D9" />
        <path
            d="M9.77726 158.629C9.69651 158.282 9.1649 157.666 8.76451 157.902C8.74432 157.912 8.58282 158.057 8.52226 158.272C8.43478 158.578 8.45497 158.999 8.51216 159.201C8.58955 159.473 8.76451 159.692 9.02695 159.8C9.28939 159.907 9.58211 159.702 9.7066 159.487C9.85128 159.234 9.83782 158.901 9.77726 158.629Z"
            fill="#D9D9D9" />
        <path
            d="M1.83633 152.786C1.81277 152.648 1.66137 152.356 1.65127 152.335C1.63109 152.302 1.56379 152.214 1.45613 152.194C1.335 152.171 1.17013 152.214 1.10957 152.251C1.0692 152.278 0.944705 152.43 0.951434 152.578C0.968257 152.958 1.09275 153.654 1.16004 153.883C1.17686 153.954 1.19705 154.024 1.22733 154.099C1.30135 154.263 1.56043 154.284 1.67483 154.156C1.9911 153.806 1.90698 153.224 1.83296 152.786H1.83633Z"
            fill="#D9D9D9" />
        <path
            d="M1.67495 149.035C1.22409 148.786 1.02558 149.321 0.998665 149.664C0.978477 149.916 0.981842 150.243 1.06259 150.512C1.08614 150.592 1.23082 150.902 1.35195 150.922C1.83645 151.006 1.9744 150.505 2.01814 150.125C2.06188 149.755 2.04169 149.233 1.67159 149.031L1.67495 149.035Z"
            fill="#D9D9D9" />
        <path
            d="M19.1084 104.842C18.56 104.758 18.1731 105.377 17.8265 105.696C17.5843 105.918 17.2545 106.218 17.093 106.548C17.0392 106.659 17.0056 106.995 17.0291 107.126C17.1402 107.715 17.8938 108.671 18.5533 108.27C18.7989 108.122 18.9436 107.907 18.9705 107.618C18.9873 107.433 18.9705 107.258 18.9638 107.072C18.9537 106.793 19.1926 106.527 19.3473 106.315C19.6737 105.868 19.8958 104.96 19.1051 104.838L19.1084 104.842Z"
            fill="#D9D9D9" />
        <path
            d="M32.9795 100.42C32.9324 100.42 32.8853 100.434 32.8382 100.44C32.6902 100.461 32.6128 100.656 32.6498 100.79C32.6935 100.952 32.8349 101.009 32.9795 100.989C33.0939 100.999 33.2117 100.945 33.2453 100.79C33.2453 100.787 33.2453 100.784 33.2453 100.78C33.2823 100.609 33.1679 100.41 32.9829 100.42H32.9795Z"
            fill="#D9D9D9" />
        <path
            d="M98.8462 48.7729C98.5535 48.7359 98.2035 48.8132 97.9478 48.9579C97.8637 49.005 97.6787 49.1497 97.6282 49.328C97.5777 49.5164 97.6686 49.7385 97.7056 49.8058C97.8805 50.1221 98.3179 50.2466 98.6544 50.2129C99.0211 50.1759 99.4955 49.9707 99.5729 49.5635C99.6537 49.1261 99.2297 48.8233 98.8462 48.7729Z"
            fill="#D9D9D9" />
        <path
            d="M104.195 40.4054C103.872 40.4626 103.721 40.9437 103.667 41.2129C103.653 41.2903 103.458 42.3198 103.815 42.6428C104.347 43.124 104.653 42.229 104.72 41.8521C104.807 41.3777 105.026 40.254 104.192 40.402L104.195 40.4054Z"
            fill="#D9D9D9" />
        <path
            d="M103.484 45.9202C103.034 45.7957 102.849 46.3542 102.687 46.6503C102.583 46.8421 102.26 46.9194 102.078 47.017C101.873 47.1281 101.657 47.3299 101.594 47.5621C101.57 47.6428 101.536 47.8313 101.587 47.9322C101.61 47.9827 101.728 48.2081 101.991 48.2283C102.266 48.2485 102.69 48.06 102.835 47.9995C103.306 47.8077 103.555 47.4073 103.703 46.9363C103.801 46.6301 103.908 46.0312 103.484 45.9134V45.9202Z"
            fill="#D9D9D9" />
        <path
            d="M172.211 8.29778C172.097 7.6686 171.383 7.59458 171.071 8.11273C170.916 8.37181 170.912 9.09856 171.141 9.54269C171.283 9.81522 171.532 9.9599 171.696 10.0036C171.767 10.0238 171.918 9.95317 171.949 9.91953C172.292 9.55615 172.292 8.72173 172.215 8.29778H172.211Z"
            fill="#D9D9D9" />
        <path
            d="M210.392 6.57443C210.311 6.40957 210.065 6.39274 209.944 6.51723C209.547 6.92099 209.752 7.47278 209.497 7.96738C209.301 8.34422 209.093 8.7547 208.773 9.07097C208.396 9.44108 207.764 9.83474 207.727 10.363C207.686 10.9249 208.201 11.1335 208.652 10.9114C209.254 10.6153 209.638 9.74053 209.87 9.17191C210.183 8.41151 210.805 7.40549 210.395 6.5778L210.392 6.57443Z"
            fill="#D9D9D9" />
        <path
            d="M202.653 13.8558C202.603 13.2334 201.997 13.4622 201.688 13.7212C201.446 13.9265 201.24 14.1755 201.015 14.4009C200.561 14.8585 200.002 15.205 199.447 15.5314C199.188 15.6828 199.336 16.0428 199.575 16.0596C199.598 16.0596 199.82 16.0226 199.884 16.0092C201.096 15.7434 202.781 15.4641 202.65 13.8592L202.653 13.8558Z"
            fill="#D9D9D9" />
        <path
            d="M207.508 11.9065C207.417 11.4994 206.912 11.5196 206.65 11.6946C206.465 11.819 206.334 12.0243 206.192 12.1925C205.937 12.4987 205.53 12.6804 205.196 12.8856C204.655 13.2187 204.379 14.2281 203.753 14.2449C203.417 14.255 203.154 14.3492 203.057 14.6184C203.05 14.6386 203.03 14.7866 203.057 14.9111C203.087 15.0457 203.164 15.1601 203.188 15.1837C203.316 15.3081 203.507 15.3552 203.723 15.288C204.375 15.0793 204.571 14.6891 204.974 14.1709C205.533 13.4576 207.794 13.2019 207.508 11.9099V11.9065Z"
            fill="#D9D9D9" />
        <path
            d="M183.365 209.457C183.241 209.158 183.062 208.926 182.753 208.804C182.547 208.724 182.275 208.754 182.097 208.882C181.901 209.016 181.784 209.289 181.938 209.504C181.965 209.545 182.137 209.703 182.413 209.784C182.658 209.854 183.005 209.848 183.167 209.81C183.304 209.777 183.426 209.599 183.365 209.461V209.457Z"
            fill="#D9D9D9" />
        <path
            d="M218.985 242.258C218.729 242.238 218.541 242.359 218.346 242.494C217.78 242.884 217.676 242.44 217.299 242.319C216.932 242.201 216.017 242.11 215.916 241.824C215.836 241.596 215.718 241.289 215.492 241.155C214.789 240.744 213.797 241.03 213.07 241.225C211.855 241.548 210.704 241.72 209.513 242.131C208.911 242.336 207.592 241.908 207.088 242.413C206.59 242.911 206.892 243.604 207.121 244.153C207.141 244.196 207.165 244.23 207.195 244.26C207.252 244.378 207.32 244.496 207.4 244.614C207.771 245.169 208.208 245.727 208.935 245.721C209.524 245.717 209.214 245.219 210.267 245.435C210.627 245.509 211.031 245.677 211.408 245.586C211.869 245.475 212.269 245.283 212.717 245.118C213.373 244.876 213.894 245.815 214.513 245.822C215.223 245.828 215.566 245.499 215.812 244.853C216.051 244.227 216.606 244.052 217.232 243.964C217.343 243.947 217.437 243.944 217.525 243.941C217.666 243.961 217.807 243.981 217.949 244.005C218.319 244.143 218.457 244.449 219.008 244.526C219.382 244.58 219.802 244.556 220.021 244.186C220.559 243.268 219.994 242.349 218.985 242.258Z"
            fill="#D9D9D9" />
        <path
            d="M203.754 234.94C203.441 235.024 203.286 235.351 203.3 235.657C203.306 235.828 203.481 236.639 203.633 236.807C204.131 237.356 204.558 236.468 204.645 236.071C204.746 235.593 204.353 234.782 203.754 234.94Z"
            fill="#D9D9D9" />
        <path
            d="M297.003 294.295C296.653 293.78 295.829 293.292 295.207 293.198C294.83 293.141 294.433 293.292 294.16 293.521C293.864 293.77 293.689 294.231 293.222 293.996C292.949 293.858 292.851 293.518 292.545 293.39C292.185 293.235 291.839 293.255 291.536 293.474C291.209 293.71 291.014 294.086 290.644 294.295C290.351 294.46 289.934 294.594 289.598 294.628C288.814 294.712 288.04 294.739 287.266 294.921C286.96 294.992 286.556 295.076 286.27 295.244C285.914 295.449 285.856 295.826 285.547 296.051C285.157 296.337 284.874 296.035 284.463 296.004C284.023 295.971 283.733 296.172 283.319 296.29C282.492 296.526 282.098 296.277 281.338 296.041C280.645 295.829 279.931 295.957 279.268 295.54C278.68 295.17 278.151 294.699 277.677 294.191C276.701 293.144 275.416 292.67 274.148 292.121C273.966 292.044 272.035 290.214 270.399 290.829C270.325 290.856 270.066 291.062 270.002 291.227C269.767 291.825 269.481 293.175 269.501 294.006C269.538 295.473 270.043 297.051 270.154 297.438C270.359 298.144 270.463 298.753 270.907 299.349C271.113 299.625 271.281 299.924 271.496 300.193C271.661 300.395 271.994 300.6 272.119 300.846C272.284 301.176 272.024 301.556 272.058 301.859C272.088 302.158 272.943 303.615 273.091 304.059C273.195 304.372 273.189 304.719 273.276 305.045C273.461 305.721 273.865 306.303 274.302 306.838C274.746 307.377 275.665 307.774 275.85 308.457C276.166 309.651 275.143 309.126 274.73 308.601C274.329 308.09 274.04 307.188 273.471 306.818C273.148 306.61 272.771 306.569 272.782 307.033C272.792 307.367 273.192 307.757 273.293 308.093C273.522 308.85 273.205 309.58 273.246 310.371C273.29 311.219 273.993 311.609 274.232 312.366C274.36 312.763 274.437 313.083 274.706 313.426C274.911 313.689 275.191 313.911 275.349 314.214C275.638 314.769 276.52 318.167 277.771 318.396C278.074 318.45 278.367 318.419 278.663 318.5C279.134 318.625 279.107 318.651 279.231 319.072C279.665 320.532 281.095 319.583 282.004 320.546C282.283 320.842 282.31 321.138 282.798 321.081C283.148 321.04 283.367 320.768 283.747 320.785C284.352 320.812 284.817 321.935 285.449 321.246C285.883 320.771 285.826 319.742 285.742 319.17C285.614 318.315 285.789 317.642 286.792 317.942C287.707 318.214 287.764 318.82 287.882 319.644C287.922 319.913 288.003 320.462 288.309 320.549C288.605 320.633 288.996 320.293 289.073 320.028C289.292 319.284 288.097 318.971 288.548 318.123C288.689 317.861 288.992 317.709 289.059 317.4C289.134 317.06 288.915 316.7 288.881 316.364C288.841 315.95 288.874 315.61 289.177 315.327C289.45 315.075 289.79 315.085 289.917 314.688C289.991 314.449 289.793 313.658 290.274 313.83C290.473 313.901 290.634 314.452 290.772 314.617C290.971 314.856 291.472 315.112 291.499 315.411C291.553 315.983 290.994 315.63 290.752 315.852C290.254 316.3 291.045 317.571 291.502 317.8C292.212 318.16 293.01 317.807 293.316 317.121C293.642 316.401 293.383 315.556 293.151 314.849C292.939 314.197 292.919 313.416 293.02 312.699C293.174 311.592 294.184 312.686 294.675 312.074C295.109 311.532 294.009 311.471 293.649 311.31C292.801 310.926 293.08 310.297 293.642 309.813C294.231 309.301 294.45 308.891 294.446 308.09C294.446 307.565 294.355 305.967 295.173 306.842C295.452 307.141 295.869 308.988 296.199 308.46C296.583 307.848 295.98 307.104 296.065 306.377C296.145 305.671 296.526 304.957 296.694 304.248C296.875 303.487 296.966 302.767 296.966 301.956C296.966 301.145 296.812 300.429 296.775 299.628C296.758 299.251 296.616 298.905 296.583 298.534C296.482 297.441 297.259 296.788 297.299 295.779C297.32 295.247 297.293 294.729 297.003 294.305V294.295Z"
            fill="#D9D9D9" />
        <path
            d="M265.071 279.33C264.341 279.367 264.267 280.158 264.314 280.73C264.361 281.312 264.176 281.722 264.001 282.21C263.863 282.415 263.749 282.631 263.736 282.886C263.702 283.576 263.82 284.915 264.583 285.252C265.384 285.605 265.788 284.875 265.906 284.145C265.946 283.896 265.916 283.334 266.346 283.31C266.447 283.304 266.569 283.273 266.639 283.203C266.834 283.008 266.888 282.725 266.875 282.463C266.834 281.705 266.118 279.28 265.071 279.333V279.33Z"
            fill="#D9D9D9" />
        <path
            d="M297.93 285.013C297.445 284.541 296.665 284.518 296.318 283.892C295.982 283.283 295.793 281.931 294.999 281.708C294.804 281.655 294.656 281.803 294.636 281.984C294.582 282.533 294.656 283.3 294.145 283.653C293.987 283.764 293.761 283.852 293.657 284.027C293.475 284.333 293.529 284.753 293.872 284.928C294.293 285.147 293.849 285.83 294.104 286.268C294.162 286.362 294.296 286.466 294.397 286.493C294.777 286.597 295.094 286.661 295.336 286.833C295.481 287.058 295.568 287.324 295.558 287.613C295.555 287.758 295.608 287.967 295.716 288.074C296.056 288.421 296.275 288.505 296.749 288.404C297.832 288.179 298.095 287.243 298.108 286.321C298.112 285.985 298.209 285.288 297.927 285.009L297.93 285.013Z"
            fill="#D9D9D9" />
        <path
            d="M298.319 289.269C297.908 288.963 297.363 288.791 296.852 288.912C296.559 288.983 296.324 289.104 296.017 289.053C295.795 289.02 295.59 289 295.375 289.074C295.065 289.181 294.931 289.599 295.092 289.874C295.207 290.07 295.991 290.379 296.229 290.389C296.552 290.403 296.842 290.362 297.168 290.413C297.488 290.46 297.717 290.605 297.999 290.716C298.356 290.857 298.682 290.648 298.773 290.295C298.871 289.922 298.601 289.481 298.319 289.269Z"
            fill="#D9D9D9" />
        <path
            d="M296.887 291.254C296.816 290.924 296.348 290.88 296.009 290.941C295.918 290.958 295.689 291.096 295.659 291.193C295.615 291.335 295.615 291.516 295.753 291.631C295.864 291.722 296.093 291.759 296.284 291.765C296.372 291.769 296.486 291.749 296.57 291.722C296.641 291.701 296.742 291.621 296.779 291.56C296.836 291.469 296.904 291.341 296.883 291.251L296.887 291.254Z"
            fill="#D9D9D9" />
        <path
            d="M274.945 270.99C274.625 270.694 274.016 270.569 273.707 270.953C273.677 270.99 273.522 271.309 273.556 271.444C273.566 271.511 273.582 271.582 273.619 271.649C273.656 271.723 273.794 271.858 274.02 271.929C274.232 271.996 274.528 272.003 274.636 271.982C275.107 271.895 275.315 271.33 274.948 270.99H274.945Z"
            fill="#D9D9D9" />
        <path
            d="M347.684 151.649C347.56 152.204 347.594 152.961 347.22 153.426C346.978 153.728 346.732 153.503 346.618 153.203C346.466 152.806 346.507 152.359 346.5 151.942C346.493 151.44 346.473 150.912 346.544 150.411C346.618 149.879 346.608 149.196 346.588 148.84C346.567 148.439 346.466 148.046 346.672 147.736C346.917 147.369 347.291 147.42 347.634 147.221C348.361 146.797 348.155 145.885 348.155 145.128C348.155 144.684 348.307 142.854 349.057 143.702C349.653 144.375 348.758 145.32 349.165 145.973C349.303 146.192 349.77 146.296 349.915 146.555C350.144 146.972 349.844 147.262 349.572 147.591C349.061 148.204 348.502 148.665 348.263 149.455C348.048 150.169 347.843 150.932 347.684 151.642V151.649Z"
            fill="#D9D9D9" />
        <path
            d="M333.305 133.372C333.702 133.147 333.339 132.514 333.191 132.248C332.996 131.895 332.801 131.535 332.609 131.185C332.39 130.792 332.249 130.3 331.855 130.048C331.542 129.85 331.118 129.789 330.91 130.166C330.684 130.57 331.169 130.872 331.428 131.105C331.633 131.293 331.791 131.515 331.936 131.744C331.99 131.825 332.394 132.834 332.521 132.985C332.521 132.985 332.962 133.561 333.305 133.366V133.372Z"
            fill="#D9D9D9" />
        <path
            d="M328.702 120.941C328.809 121.18 328.974 121.399 329.24 121.369C329.634 121.325 329.63 120.645 329.58 120.346C329.529 120.053 329.354 119.434 329.005 119.37C328.823 119.336 328.698 119.431 328.614 119.569C328.564 119.653 328.54 119.814 328.533 119.989C328.527 120.211 328.648 120.814 328.705 120.938L328.702 120.941Z"
            fill="#D9D9D9" />
        <path
            d="M328.386 118.791C328.582 118.549 328.185 117.788 327.744 117.805C327.555 117.812 327.111 118.296 327.306 118.636C327.458 118.905 328.272 118.932 328.386 118.791Z"
            fill="#D9D9D9" />
        <path
            d="M315.695 97.8398C314.961 97.8398 314.961 98.9804 315.695 98.9804C316.428 98.9804 316.431 97.8398 315.695 97.8398Z"
            fill="#D9D9D9" />
        <path
            d="M315.455 96.1309C314.718 96.1309 314.718 97.2715 315.455 97.2715C316.192 97.2715 316.192 96.1309 315.455 96.1309Z"
            fill="#D9D9D9" />
        <path
            d="M296.062 81.7266C295.326 81.7266 295.326 82.8672 296.062 82.8672C296.799 82.8672 296.796 81.7266 296.062 81.7266Z"
            fill="#D9D9D9" />
        <path
            d="M293.563 78.3441C293.445 78.2297 293.431 78.0009 293.388 77.8461C293.334 77.6476 293.253 77.4592 293.125 77.2977C292.819 76.9208 292.338 76.941 291.911 77.0722C291.493 77.2035 291.261 77.6442 291.614 77.984C291.709 78.0749 291.826 78.1186 291.887 78.2128C292.025 78.4248 291.978 78.7613 292.035 78.9901C292.139 79.4039 292.456 79.7 292.863 79.8043C293.209 79.8918 293.721 79.8312 293.919 79.4914C294.185 79.0372 293.882 78.6536 293.559 78.3441H293.563Z"
            fill="#D9D9D9" />
        <path
            d="M270.857 289.279C270.12 289.279 270.12 290.42 270.857 290.42C271.594 290.42 271.594 289.279 270.857 289.279Z"
            fill="#D9D9D9" />
        <path
            d="M271.857 287.996C271.12 287.996 271.12 289.137 271.857 289.137C272.594 289.137 272.594 287.996 271.857 287.996Z"
            fill="#D9D9D9" />
        <path
            d="M206.694 33.9898C206.778 33.8787 206.792 33.7038 206.792 33.5625C206.795 33.2495 206.728 33.0779 207.111 33.0241C207.485 32.9736 207.549 33.1251 207.852 32.8761C208.161 32.6237 208.875 31.7489 209.359 31.9912C210.076 32.3445 208.757 33.0107 209.315 33.2866C209.847 33.5456 210.039 32.469 210.705 32.8222C211.129 33.0477 211.253 34.0099 210.863 34.2858C210.469 34.5617 209.558 34.1681 209.366 34.7031C209.147 35.312 210.301 35.2683 210.143 35.8437C210.066 36.1229 209.625 36.059 209.457 36.2609C209.221 36.5435 209.366 36.8328 209.679 36.9035C210.2 37.0213 210.951 36.7891 211.294 37.3342C211.66 37.9129 210.87 38.3907 210.355 38.4849C209.749 38.5925 209.14 38.3166 208.572 38.1989C208.168 38.1148 207.801 37.9835 207.36 37.9835C206.869 37.9835 206.395 38.0811 205.897 38.0542C205.5 38.034 204.901 37.7211 205.372 37.314C205.688 37.0415 206.2 37.2097 206.24 36.6781C206.254 36.4897 205.941 35.2649 206.058 34.5617C206.132 34.1109 206.63 34.0739 206.691 33.9898H206.694Z"
            fill="#D9D9D9" />
        <path
            d="M203.586 33.5995C203.556 33.3741 203.694 33.2664 203.852 33.1419C203.973 33.0443 204.098 32.9737 204.225 32.8828C204.394 32.7617 204.427 32.6641 204.538 32.4925C204.959 31.8532 205.911 32.2772 205.692 33.014C205.541 33.5288 205.154 33.8552 204.656 33.9763C204.535 34.0066 204.414 34.0133 204.296 33.9965C204.256 33.9898 204.034 33.9797 203.862 33.8956C203.704 33.8182 203.596 33.6668 203.586 33.5961V33.5995Z"
            fill="#D9D9D9" />
        <path
            d="M203.765 30.0529C203.741 29.7635 203.792 29.2016 204.195 29.4439C204.522 29.639 204.549 30.0327 204.549 30.3994C204.549 30.571 204.592 30.7763 204.461 30.8907C204.313 31.0185 204.263 30.9411 204.175 30.8368C204.135 30.7864 204.081 30.7224 204.03 30.6585C204.03 30.6585 203.791 30.4028 203.761 30.0529H203.765Z"
            fill="#D9D9D9" />
        <path
            d="M210.328 49.1811C210.157 49.1945 209.568 49.3089 209.245 49.679C208.888 50.0929 208.804 50.7793 208.818 50.998C208.838 51.4354 209.141 51.9232 209.645 51.6743C209.878 51.5599 209.999 51.3546 210.086 51.1191C210.14 50.971 210.127 50.7322 210.268 50.6884C210.692 50.5538 211.143 50.4596 211.203 49.9347C211.264 49.4132 210.8 49.1373 210.335 49.1777L210.328 49.1811Z"
            fill="#D9D9D9" />
        <path
            d="M211.405 50.5639C211.079 50.5269 210.709 50.971 210.692 51.4421C210.678 51.9131 211.022 52.4077 211.136 52.4784C211.355 52.613 211.664 52.6029 211.873 52.4515C212.118 52.2731 212.199 52.0073 212.226 51.718C212.27 51.2368 211.906 50.6177 211.402 50.5605L211.405 50.5639Z"
            fill="#D9D9D9" />
        <path
            d="M208.219 49.5101C207.984 49.3452 207.597 49.2577 207.321 49.3553C207.112 49.4293 206.947 49.537 206.863 49.7523C206.843 49.8061 206.789 50.1258 206.82 50.2536C206.867 50.4521 207.042 50.6204 207.217 50.7079C207.412 50.8054 207.637 50.8492 207.846 50.7886C207.953 50.7583 208.3 50.5968 208.377 50.5093C208.69 50.1662 208.573 49.7557 208.216 49.5101H208.219Z"
            fill="#D9D9D9" />
        <path
            d="M208.107 51.0589C207.855 51.0118 207.545 51.1733 207.565 51.4727C207.565 51.5097 207.626 51.9269 207.895 52.1288C208.114 52.2937 208.47 52.3139 208.642 52.2701C208.682 52.26 208.76 52.186 208.777 52.149C208.837 52.001 208.861 51.7015 208.639 51.4222C208.467 51.2069 208.245 51.0858 208.107 51.0589Z"
            fill="#D9D9D9" />
        <path
            d="M233.453 63.6317C233.43 63.625 233.298 63.5981 233.194 63.5409C233.083 63.477 233.002 63.3794 232.969 63.3558C232.706 63.1809 232.326 63.1977 232.104 63.4299C231.905 63.6351 231.818 64.0456 232.016 64.3787C232.087 64.4964 232.276 64.7185 232.585 64.843C232.898 64.9709 233.325 64.9978 233.47 64.954C233.753 64.8699 234.015 64.6445 234.028 64.3316C234.039 63.985 233.763 63.7327 233.456 63.6351L233.453 63.6317Z"
            fill="#D9D9D9" />
        <path
            d="M234.288 58.1412C233.864 58.0268 233.342 58.1345 232.912 58.1681C232.33 58.2152 231.781 58.3565 231.283 58.6627C230.742 58.9958 230.385 59.5139 230.284 60.0927C230.27 60.1801 230.237 60.8766 230.526 61.2501C230.832 61.6471 231.465 61.7178 231.616 61.7043C232.195 61.6606 233.322 61.5125 233.4 60.7757C233.416 60.5974 233.41 60.419 233.319 60.2575C233.235 60.1095 232.905 59.7797 232.982 59.5947C233.097 59.3255 233.968 59.3962 234.224 59.3424C234.91 59.201 235.015 58.3296 234.288 58.1378V58.1412Z"
            fill="#D9D9D9" />
        <path
            d="M259.821 4.72003C259.653 4.52152 259.492 4.21534 259.226 4.13796C258.906 4.04375 258.708 4.36339 258.65 4.62246C258.566 4.97911 258.492 5.93802 258.526 6.03223C258.536 6.07261 258.553 6.10625 258.576 6.13317C258.597 6.16345 258.62 6.19373 258.65 6.22065C258.862 6.40907 259.212 6.34178 259.448 6.23074C259.784 6.07261 260.047 5.83035 260.175 5.47707C260.289 5.16416 260 4.92527 259.825 4.72003H259.821Z"
            fill="#D9D9D9" />
        <path
            d="M262.83 6.11096C262.578 5.96964 262.157 5.40102 261.818 5.62645C261.542 5.80814 261.397 6.18834 261.279 6.48443C261.145 6.83098 261.087 7.24483 261.353 7.54092C261.444 7.64185 261.929 7.68559 262.067 7.69569C262.591 7.7226 263.49 7.48035 263.557 6.86799C263.597 6.48443 263.089 6.26236 262.83 6.11432V6.11096Z"
            fill="#D9D9D9" />
        <path
            d="M258.832 0.417468C258.684 0.000256503 258.237 -0.0838587 257.867 0.0810071C257.759 0.128112 257.699 0.292977 257.736 0.40401C257.803 0.589063 257.833 0.78421 257.877 0.975993C257.894 1.04665 257.931 1.09039 257.974 1.12404C258.042 1.20815 258.159 1.2418 258.274 1.22161C258.651 1.15768 258.97 0.814492 258.829 0.417468H258.832Z"
            fill="#D9D9D9" />
        <path
            d="M260.225 0.0984239C260.077 0.054684 259.915 0.152258 259.875 0.296936C259.821 0.492083 259.838 0.69396 259.841 0.895836C259.841 0.90593 259.844 0.912659 259.848 0.922753C259.848 1.04388 259.925 1.17173 260.05 1.19529C260.386 1.26258 260.733 1.14482 260.756 0.757887C260.77 0.451708 260.501 0.182539 260.228 0.0984239H260.225Z"
            fill="#D9D9D9" />
    </g>
    <defs>
        <clipPath id="clip0_392_58584">
            <rect width="350" height="321.458" fill="white" />
        </clipPath>
    </defs>
</svg>
