<svg width="20" height="20" viewBox="0 0 20 20" fill="none" xmlns="http://www.w3.org/2000/svg">
    <path
        d="M19.001 10.005C19.0002 11.7465 18.3074 13.4164 17.0751 14.6473C15.8428 15.8783 14.1717 16.5696 12.4295 16.5692C10.7756 16.5682 9.183 15.9435 7.96976 14.8199C6.75652 13.6964 6.01197 12.1567 5.8848 10.5084C6.03312 11.5417 6.56488 12.4813 7.37442 13.1407C8.18396 13.8001 9.21204 14.131 10.2544 14.0676C11.2968 14.0042 12.2771 13.5512 13.0007 12.7985C13.7243 12.0459 14.1381 11.0487 14.16 10.005C14.16 9.81434 14.1471 9.62385 14.1214 9.43489C13.9759 7.77897 13.2076 6.23983 11.9714 5.12789C10.7352 4.01595 9.12322 3.41397 7.46048 3.44336C5.79775 3.47274 4.20802 4.13131 3.01195 5.28624C1.81589 6.44116 1.10248 8.00649 1.01562 9.66652C1.10027 7.33946 2.08461 5.13594 3.76154 3.51957C5.43846 1.9032 7.67723 1 10.0068 1C12.3364 1 14.5752 1.9032 16.2521 3.51957C17.929 5.13594 18.9134 7.33946 18.998 9.66652C19 9.77837 19.001 9.89121 19.001 10.005Z"
        fill="#FFFFFF" fill-opacity="0.6" stroke="#FFFFFF" />
    <path
        d="M1 10.011C1.00039 8.26957 1.69276 6.59956 2.92482 5.3683C4.15689 4.13703 5.82776 3.44534 7.56997 3.44534C8.40172 3.44294 9.2262 3.60021 9.99862 3.90859C11.1406 4.36273 12.1324 5.12783 12.8613 6.11702C13.5901 7.10621 14.027 8.27986 14.1221 9.50472C13.9758 8.46946 13.4446 7.52732 12.6345 6.86603C11.8243 6.20474 10.7946 5.87287 9.75053 5.93655C8.70649 6.00023 7.72479 6.45478 7.00105 7.20963C6.27732 7.96448 5.8647 8.96419 5.84541 10.0095C5.84545 10.2002 5.85835 10.3907 5.88403 10.5797C6.02968 12.2356 6.79816 13.7747 8.03446 14.8866C9.27076 15.9984 10.8829 16.6002 12.5456 16.5707C14.2084 16.5411 15.7981 15.8823 16.994 14.7272C18.19 13.5721 18.9032 12.0067 18.9898 10.3466C18.9052 12.6736 17.9208 14.8772 16.2439 16.4935C14.567 18.1099 12.3282 19.0131 9.99862 19.0131C7.66904 19.0131 5.43026 18.1099 3.75334 16.4935C2.07642 14.8772 1.09207 12.6736 1.00743 10.3466C1.00297 10.2382 1 10.1239 1 10.011Z"
        fill="#FFFFFF" fill-opacity="0.6" stroke="#FFFFFF" />
</svg>