<svg width="24" height="24" viewBox="0 0 24 24" fill="none" xmlns="http://www.w3.org/2000/svg">
<path d="M12.4981 4.00032C13.624 4.00079 14.7127 4.40413 15.5671 5.13742C16.4215 5.87071 16.9853 6.88553 17.1566 7.99837C17.2655 8.89141 17.1684 9.79754 16.8725 10.6472C16.3587 12.1899 15.6575 13.6638 14.7847 15.0358C14.1116 16.1496 13.3816 17.2281 12.5975 18.2669C12.5336 18.345 12.5052 18.4018 12.4129 18.2669C10.9891 16.3166 9.7527 14.2361 8.72019 12.0532C8.30926 11.23 8.01755 10.3525 7.85383 9.44704C7.69916 8.59129 7.79286 7.70913 8.12384 6.90496C8.45482 6.10078 9.00924 5.40825 9.72148 4.90929C10.5213 4.30801 11.4976 3.98839 12.4981 4.00032ZM12.4981 11.3076C13.0136 11.3062 13.517 11.152 13.9448 10.8644C14.3726 10.5769 14.7055 10.1689 14.9015 9.69219C15.0975 9.21544 15.1476 8.69128 15.0457 8.18601C14.9438 7.68073 14.6943 7.21703 14.3288 6.85354C13.9633 6.49006 13.4983 6.24311 12.9925 6.14393C12.4866 6.04474 11.9628 6.09778 11.4871 6.29633C11.0114 6.49489 10.6053 6.83003 10.3201 7.2594C10.0349 7.68876 9.88341 8.19305 9.88481 8.7085C9.88574 9.05075 9.95407 9.38947 10.0859 9.70531C10.2177 10.0212 10.4105 10.3079 10.6532 10.5493C10.8958 10.7906 11.1837 10.9818 11.5002 11.1119C11.8168 11.242 12.1559 11.3085 12.4981 11.3076Z" fill="#00549A"/>
<path d="M12.5411 19.9073C11.213 19.9173 9.88811 19.7744 8.59272 19.4812C8.15354 19.3933 7.73604 19.2196 7.36419 18.9699C7.25487 18.916 7.16283 18.8325 7.09847 18.729C7.03411 18.6255 7 18.506 7 18.3841C7 18.2622 7.03411 18.1427 7.09847 18.0392C7.16283 17.9356 7.25487 17.8522 7.36419 17.7982C7.80888 17.5194 8.30316 17.3289 8.81996 17.2372C9.10401 17.1733 9.38807 17.1307 9.67922 17.081C9.86386 17.081 9.99168 17.1165 10.0201 17.2585C10.0485 17.4005 9.94907 17.5142 9.76444 17.5426C9.17042 17.623 8.587 17.7683 8.02461 17.9758C7.85627 18.035 7.69993 18.124 7.56303 18.2385C7.4352 18.3521 7.4352 18.4444 7.56303 18.5581C7.75434 18.7034 7.97108 18.8118 8.20214 18.8776C8.97826 19.1289 9.78171 19.2863 10.5953 19.3463C11.5204 19.4351 12.4508 19.4564 13.379 19.4102C14.4854 19.3937 15.5844 19.2265 16.6456 18.9131C16.8978 18.8485 17.1377 18.743 17.3558 18.6007C17.5546 18.4586 17.5617 18.3379 17.3558 18.1959C16.9676 17.952 16.536 17.7857 16.0846 17.7059C15.6933 17.616 15.2974 17.5473 14.8987 17.5C14.7212 17.5 14.6288 17.3792 14.6431 17.2301C14.6573 17.081 14.7567 17.01 14.9342 17.0384C15.8139 17.0981 16.6743 17.3246 17.4694 17.7059C17.569 17.7549 17.6601 17.8197 17.7392 17.8976C17.8198 17.9547 17.8856 18.0303 17.9309 18.118C17.9763 18.2057 18 18.3031 18 18.4018C18 18.5006 17.9763 18.5979 17.9309 18.6857C17.8856 18.7734 17.8198 18.8489 17.7392 18.906C17.4628 19.1258 17.1435 19.2855 16.8019 19.3747C15.9926 19.6157 15.1589 19.7658 14.3164 19.8221C13.6915 19.8789 13.095 19.8931 12.5411 19.9073Z" fill="#38D0BB"/>
</svg>
