<svg width="400" height="207" viewBox="0 0 400 207" fill="none" xmlns="http://www.w3.org/2000/svg">
<path d="M170.453 116.247C170.25 116.432 169.586 116.57 169.201 116.592C169.154 116.595 169.081 116.61 168.954 116.639C168.972 116.563 168.994 116.479 169.016 116.403C169.041 116.305 169.067 116.211 169.081 116.124C169.201 116.138 169.31 116.142 169.412 116.127C169.793 116.127 170.083 116.058 170.482 115.866C170.693 115.768 170.809 115.866 170.962 116.022C171.092 116.156 171.256 116.32 171.528 116.341C171.731 116.36 171.862 116.37 171.953 116.385C171.829 116.447 171.637 116.505 171.459 116.483C171.339 116.468 171.205 116.396 171.078 116.327C170.929 116.251 170.784 116.171 170.653 116.171C170.58 116.171 170.512 116.196 170.453 116.247ZM171.717 118.312C171.738 118.32 171.764 118.327 171.793 118.327C171.916 118.327 172.025 118.229 172.025 118.196C172.021 118.178 171.992 118.127 171.963 118.095C171.894 117.986 171.815 117.855 171.851 117.739C171.873 117.677 171.92 117.641 171.992 117.608C172.123 117.561 172.174 117.419 172.192 117.289C172.116 117.256 172.051 117.238 172 117.238C171.767 117.26 170.512 117.35 170.348 117.361C170.261 117.416 169.891 117.637 169.68 117.619C169.586 117.612 169.55 117.546 169.524 117.503C169.499 117.456 169.481 117.419 169.379 117.419C169.346 117.419 169.292 117.423 169.237 117.438C169.259 117.467 169.285 117.499 169.303 117.525C169.484 117.764 169.582 117.899 170.043 118.029C170.41 118.131 170.41 118.301 170.374 118.494C170.348 118.635 170.326 118.755 170.544 118.893C170.573 118.915 170.606 118.937 170.631 118.955C170.66 118.926 170.693 118.889 170.718 118.871C170.78 118.828 170.853 118.773 170.929 118.712C171.281 118.436 171.561 118.243 171.717 118.312ZM169.651 117.43C169.673 117.47 169.677 117.474 169.698 117.477H169.717C169.88 117.477 170.185 117.3 170.294 117.231L170.323 117.216C170.323 117.216 171.742 117.107 171.971 117.093C172.04 117.089 172.109 117.1 172.199 117.136V117.06L172.283 117.078C172.468 117.118 173.078 117.249 173.139 117.452C173.165 117.503 173.492 117.608 173.992 117.608C174.272 117.608 174.526 117.575 174.711 117.51L174.795 117.481C174.798 117.303 174.809 116.929 174.787 116.824C174.758 116.679 174.374 116.291 174.207 116.127C174.007 115.924 174.007 115.499 174.014 115.39L173.807 115.075C173.807 115.075 173.651 114.472 173.212 114.327C172.769 114.182 172.464 113.485 172.392 113.296H172.011L171.989 113.271C171.989 113.271 171.673 112.882 171.372 112.733C171.306 112.704 171.227 112.686 171.132 112.686C170.856 112.686 170.555 112.817 170.555 112.817H170.537C170.537 112.817 170.243 112.857 169.938 112.857C169.757 112.857 169.604 112.842 169.481 112.817C169.321 112.788 169.267 112.879 169.183 113.046C169.118 113.18 169.045 113.329 168.874 113.372C168.871 113.372 168.867 113.372 168.86 113.376C168.827 113.673 168.769 114.007 168.595 114.265C168.243 114.795 168.78 115.579 169.005 115.782C169.056 115.833 169.089 115.899 169.096 115.986C169.216 115.993 169.325 116.004 169.423 116.004C169.778 116.004 170.054 115.935 170.435 115.753C170.512 115.713 170.584 115.699 170.66 115.699C170.838 115.699 170.954 115.819 171.07 115.935C171.194 116.065 171.328 116.196 171.553 116.214C171.916 116.24 172.152 116.28 172.199 116.309L172.286 116.363L172.199 116.418C172.199 116.418 171.811 116.657 171.455 116.621C171.31 116.603 171.169 116.526 171.023 116.45C170.831 116.349 170.657 116.258 170.555 116.352C170.294 116.588 169.531 116.708 169.223 116.73C169.172 116.733 169.052 116.759 168.947 116.784C168.929 116.969 168.969 117.104 169.067 117.216C169.1 117.256 169.129 117.285 169.158 117.318C169.252 117.296 169.335 117.285 169.397 117.285C169.582 117.285 169.629 117.376 169.662 117.434L169.651 117.43ZM173.437 120.57C173.452 120.407 173.535 120.323 173.688 120.323C173.757 120.323 173.836 120.341 173.923 120.356C173.963 120.363 174 120.374 174.043 120.381C174.181 120.407 174.345 120.352 174.504 120.294C174.639 120.247 174.766 120.203 174.885 120.203C175.194 120.203 175.858 121.14 175.858 121.401C175.858 121.619 175.876 121.848 176 122.044C176.007 122.058 176.014 122.065 176.021 122.084C176.392 121.997 176.7 121.953 176.784 121.953C176.827 121.953 176.867 121.975 176.904 122.022C177.041 122.182 177.219 122.657 177.168 122.995C177.154 123.107 177.19 123.213 177.263 123.3C177.364 123.416 177.521 123.445 177.59 123.343C177.789 123.06 177.913 122.897 178.029 122.897C178.069 122.897 178.13 122.915 178.152 123.027C178.152 123.035 178.17 123.071 178.283 123.125C178.326 123.056 178.377 123.009 178.432 122.962C178.475 122.922 178.519 122.886 178.555 122.831C178.602 122.766 178.57 122.697 178.508 122.581C178.446 122.465 178.37 122.32 178.446 122.163C178.49 122.076 178.555 122.029 178.635 122.029C178.686 122.029 178.737 122.047 178.791 122.069C178.867 122.098 178.936 122.12 178.991 122.069C179.056 122.004 178.965 121.855 178.889 121.721C178.813 121.59 178.747 121.485 178.776 121.39C178.816 121.271 178.802 121.056 178.606 120.944C178.381 120.82 178.472 120.407 178.566 120.011C178.515 119.967 178.472 119.917 178.432 119.866C178.366 119.771 178.348 119.648 178.337 119.521C178.312 119.329 178.29 119.256 178.221 119.256C178.101 119.256 178.014 119.183 177.992 119.067C177.974 118.948 178.036 118.791 178.174 118.733C178.145 118.708 178.098 118.668 178.058 118.639C177.92 118.53 177.749 118.403 177.749 118.251C177.749 118.033 177.455 117.507 177.368 117.481C177.325 117.485 177.176 117.626 177.07 117.717C176.853 117.92 176.7 118.047 176.58 118.047C176.497 118.047 176.399 118 176.297 117.953C176.196 117.906 176.08 117.851 175.996 117.851C175.953 117.851 175.905 117.859 175.876 117.942C175.833 118.051 175.764 118.102 175.673 118.102C175.608 118.102 175.542 118.076 175.484 118.051C175.43 118.029 175.372 118.004 175.325 118.004C175.299 118.004 175.263 118.007 175.23 118.058C175.183 118.124 175.129 118.156 175.07 118.156C174.889 118.156 174.798 117.83 174.776 117.732V117.63L174.751 117.644C174.497 117.732 174.196 117.753 173.989 117.753C173.622 117.753 173.06 117.684 173.009 117.499C172.987 117.43 172.686 117.314 172.337 117.238C172.33 117.379 172.283 117.659 172.043 117.746C172.011 117.761 171.992 117.771 171.982 117.79C171.963 117.844 172.032 117.957 172.08 118.029C172.127 118.102 172.156 118.153 172.156 118.207C172.156 118.338 171.967 118.468 171.789 118.468C171.742 118.468 171.698 118.461 171.659 118.443C171.655 118.443 171.644 118.439 171.64 118.439C171.51 118.439 171.205 118.672 171.009 118.828C170.925 118.889 170.853 118.948 170.798 118.987C170.784 118.995 170.766 119.016 170.733 119.049C170.889 119.191 170.972 119.336 171.056 119.481C171.158 119.659 171.256 119.826 171.481 119.993C171.923 120.32 172.417 120.715 172.737 121.332C172.962 121.144 173.408 120.748 173.426 120.588L173.437 120.57ZM185.582 118.998C185.582 118.998 187.212 119.006 187.459 119.183C187.463 119.176 187.466 119.165 187.473 119.158C187.528 119.046 187.629 118.842 187.869 118.875C187.992 118.889 188.145 118.918 188.286 118.948C188.522 118.995 188.78 119.042 188.882 119.013C188.954 118.987 189.049 118.9 189.139 118.82C189.27 118.701 189.401 118.574 189.539 118.574C189.847 118.574 190.326 118.519 190.424 118.396C190.475 118.33 190.537 118.287 190.591 118.254C190.689 118.185 190.74 118.153 190.711 118.026C190.555 117.895 190.359 117.855 190.316 117.855C190.29 117.855 190.268 117.848 190.247 117.826C190.192 117.771 190.192 117.637 190.192 117.427C190.192 117.358 190.192 117.26 190.188 117.213C190.159 117.216 190.112 117.234 190.069 117.245C189.938 117.289 189.764 117.34 189.644 117.296C189.528 117.252 189.455 117.151 189.386 117.056C189.325 116.973 189.274 116.9 189.216 116.9C188.951 116.9 188.951 116.566 188.951 116.407C188.951 116.229 188.675 116.029 188.493 115.891L188.45 115.859C188.326 115.764 188.257 115.594 188.196 115.438C188.156 115.343 188.112 115.234 188.08 115.209C188.011 115.165 187.971 115.046 188.029 114.61C187.764 114.603 187.452 114.57 187.354 114.472C187.328 114.447 187.306 114.439 187.27 114.439C187.172 114.439 187.016 114.552 186.82 114.697C186.751 114.744 186.682 114.795 186.602 114.853C186.37 115.013 186.109 115.067 185.92 115.104C185.789 115.129 185.662 115.154 185.662 115.198C185.662 115.387 185.517 115.521 185.299 115.521C185.248 115.521 185.19 115.514 185.139 115.499C185.07 115.481 184.998 115.459 184.933 115.459C184.842 115.459 184.751 115.488 184.686 115.721C184.631 115.931 184.493 115.978 184.381 116.018C184.272 116.058 184.199 116.08 184.188 116.247C184.167 116.472 184.051 116.519 183.956 116.519C183.822 116.519 183.655 116.421 183.492 116.327C183.459 116.305 183.423 116.283 183.383 116.265C183.368 116.258 183.361 116.258 183.35 116.258C183.241 116.258 183.139 116.675 183.114 117.049V117.071L183.1 117.089C183.1 117.089 182.907 117.321 182.744 117.768C182.606 118.156 182.232 118.178 181.982 118.189C181.909 118.193 181.836 118.196 181.8 118.211C181.778 118.236 181.825 118.381 181.851 118.458C181.905 118.621 181.963 118.791 181.902 118.915C181.851 119.035 181.724 119.361 181.619 119.71C181.851 119.779 182.065 119.964 182.138 120.091C182.221 120.229 182.599 120.624 182.871 120.624C182.936 120.624 182.991 120.603 183.034 120.552C183.241 120.32 183.655 120.236 183.942 120.236C184.188 120.236 184.377 120.287 184.472 120.378C184.548 120.454 184.602 120.468 184.62 120.468C184.675 120.468 184.711 120.385 184.722 120.312C184.737 120.243 184.675 120.062 184.624 119.899C184.53 119.601 184.435 119.292 184.53 119.147C184.555 119.107 184.624 119.006 185.59 119.006L185.582 118.998ZM181.386 112.519L181.742 112.875V112.9C181.757 113.111 181.775 113.815 181.553 113.928C181.51 113.949 181.412 114 179.23 114C178.236 114 177.256 113.986 177.121 113.986C177.045 114.026 176.682 114.189 176.395 114.189C176.265 114.189 176.134 114.156 176.018 114.124C175.923 114.102 175.836 114.08 175.771 114.08C175.709 114.08 175.698 114.098 175.695 114.105C175.677 114.127 175.666 114.167 175.651 114.2C175.608 114.301 175.553 114.447 175.397 114.447C175.288 114.447 175.161 114.374 174.987 114.218C174.816 114.062 174.708 114.029 174.642 114.029C174.479 114.029 174.435 114.276 174.435 114.421C174.435 114.661 174.225 114.817 173.862 114.846C173.894 114.929 173.916 114.991 173.923 115.016L174.138 115.336V115.358C174.13 115.492 174.138 115.862 174.283 116.007C174.58 116.305 174.867 116.606 174.904 116.777C174.936 116.944 174.907 117.597 174.904 117.688C174.943 117.848 175.02 118.004 175.063 118.004C175.07 118.004 175.092 117.989 175.114 117.96C175.168 117.888 175.237 117.848 175.317 117.848C175.39 117.848 175.463 117.877 175.528 117.909C175.579 117.931 175.626 117.953 175.662 117.953C175.68 117.953 175.709 117.953 175.738 117.877C175.786 117.761 175.873 117.699 175.985 117.699C176.098 117.699 176.225 117.761 176.348 117.815C176.435 117.859 176.526 117.899 176.573 117.899C176.649 117.899 176.845 117.717 176.972 117.601C177.161 117.423 177.274 117.329 177.365 117.329H177.39C177.571 117.376 177.876 117.986 177.876 118.236C177.876 118.323 178.032 118.439 178.13 118.519C178.25 118.61 178.33 118.675 178.316 118.752C178.312 118.777 178.294 118.817 178.228 118.839C178.145 118.864 178.098 118.962 178.112 119.031C178.119 119.082 178.152 119.104 178.207 119.104C178.406 119.104 178.435 119.314 178.457 119.485C178.472 119.594 178.486 119.703 178.53 119.768C178.606 119.884 178.722 119.971 178.806 119.971C178.827 119.971 178.893 119.971 178.947 119.848C179.034 119.706 179.129 119.677 179.201 119.677C179.386 119.677 179.571 119.888 179.651 120.007C179.735 120.131 180.112 119.957 180.163 119.728C180.21 119.543 180.428 119.427 180.61 119.427C180.697 119.427 180.769 119.452 180.816 119.503C180.845 119.532 180.878 119.594 180.867 119.684C180.849 119.83 180.874 119.869 180.882 119.877C180.889 119.884 180.947 119.906 181.165 119.757C181.256 119.692 181.354 119.663 181.473 119.673C181.586 119.307 181.713 118.969 181.775 118.846C181.815 118.773 181.757 118.617 181.72 118.494C181.659 118.316 181.6 118.138 181.746 118.08C181.8 118.058 181.876 118.055 181.971 118.051C182.207 118.036 182.504 118.022 182.617 117.721C182.762 117.311 182.933 117.078 182.983 117.016C183.002 116.781 183.074 116.12 183.354 116.12C183.386 116.12 183.419 116.127 183.452 116.145C183.484 116.167 183.521 116.185 183.561 116.207C183.702 116.291 183.862 116.378 183.956 116.378C183.985 116.378 184.043 116.378 184.054 116.229C184.076 115.975 184.221 115.928 184.337 115.884C184.435 115.851 184.519 115.822 184.555 115.677C184.624 115.43 184.74 115.321 184.929 115.321C185.012 115.321 185.096 115.343 185.176 115.365C185.219 115.379 185.263 115.383 185.299 115.383C185.401 115.383 185.524 115.336 185.524 115.194C185.524 115.038 185.695 115.006 185.891 114.966C186.08 114.926 186.315 114.879 186.522 114.737C186.599 114.683 186.671 114.628 186.737 114.581C186.962 114.418 187.125 114.298 187.27 114.298C187.335 114.298 187.394 114.323 187.448 114.37C187.499 114.421 187.749 114.472 188.188 114.472C188.497 114.472 188.751 114.447 188.813 114.421C188.845 114.407 188.9 114.378 188.954 114.345C189.147 114.229 189.423 114.062 189.749 114.116C189.793 114.124 189.847 114.131 189.913 114.131C190.152 114.131 190.486 114.08 190.802 114.033C191.078 113.989 191.339 113.949 191.506 113.949C191.786 113.949 191.942 113.746 192.061 113.586C192.094 113.539 192.13 113.496 192.159 113.467C192.214 113.416 192.272 113.234 192.323 113.078C192.399 112.839 192.457 112.683 192.537 112.628C192.584 112.526 192.61 111.398 192.584 109.753C192.188 109.837 191.702 109.942 191.702 109.942L191.619 109.96V109.877C191.619 109.877 191.611 109.038 191.092 108.741C190.555 108.436 189.855 108.352 189.844 108.349H189.811L189.793 108.316C189.789 108.309 189.397 107.605 189.089 107.296C188.911 107.118 185.459 104.806 182.134 102.606H180.323L181.375 112.512L181.386 112.519ZM168.991 108.084C169.045 108.138 169.103 108.193 169.15 108.247C169.328 108.45 169.288 108.715 169.245 108.995C169.194 109.325 169.136 109.699 169.408 110.076C169.88 110.733 169.473 111.692 169.041 112.378C168.933 112.548 168.907 112.839 168.878 113.147C168.874 113.176 168.874 113.202 168.871 113.234C168.958 113.191 169.005 113.096 169.056 112.987C169.132 112.824 169.223 112.635 169.499 112.686C169.611 112.708 169.757 112.719 169.931 112.719C170.196 112.719 170.45 112.69 170.504 112.686C170.559 112.664 170.849 112.552 171.125 112.552C171.241 112.552 171.343 112.574 171.426 112.614C171.72 112.752 171.992 113.064 172.072 113.162H172.486L172.504 113.205C172.504 113.205 172.82 114.055 173.256 114.2C173.535 114.294 173.706 114.53 173.811 114.73C173.989 114.722 174.305 114.668 174.305 114.432C174.305 114.196 174.395 113.906 174.646 113.906C174.769 113.906 174.911 113.978 175.081 114.131C175.259 114.291 175.354 114.323 175.401 114.323C175.463 114.323 175.492 114.262 175.531 114.16C175.55 114.116 175.564 114.073 175.586 114.04C175.659 113.928 175.844 113.949 176.054 114C176.17 114.029 176.29 114.062 176.403 114.062C176.686 114.062 177.078 113.869 177.081 113.862L177.11 113.855C177.11 113.855 178.17 113.869 179.23 113.869C181.143 113.869 181.452 113.83 181.495 113.815C181.59 113.768 181.629 113.329 181.611 112.94L181.259 112.588V112.566L180.178 102.49H181.938C179.88 101.129 178.326 100.116 178.127 100C178.083 99.9748 178.043 99.9493 178.011 99.9239C178.043 101.365 178.003 101.394 177.949 101.43C177.923 101.448 177.884 101.474 176.878 101.474C175.873 101.474 174.504 101.448 174.181 101.445V104.399C174.181 104.57 173.887 104.715 173.553 104.886C173.335 104.998 172.998 105.162 172.998 105.252V107.089H168.533C168.508 107.608 168.766 107.869 168.998 108.091L168.991 108.084ZM172.864 105.242C172.864 105.071 173.158 104.926 173.492 104.755C173.709 104.643 174.047 104.479 174.047 104.389V101.296H174.116C174.116 101.296 175.767 101.329 176.882 101.329C177.597 101.329 177.807 101.314 177.865 101.307C177.909 101.129 177.884 100.12 177.873 99.7497C177.844 99.6953 177.829 99.6408 177.818 99.5936C177.778 99.4557 177.753 99.3613 177.129 99.3613H172.943C172.649 99.6444 172.482 100.026 172.359 100.356C172.272 100.588 172.007 100.857 171.727 101.14C171.332 101.539 170.885 101.993 170.86 102.414C170.831 102.846 170.468 103.379 170.011 104.058C169.637 104.614 169.212 105.245 168.864 105.967C168.686 106.345 168.584 106.664 168.544 106.944H172.864V105.242ZM174.911 123.43C174.983 123.369 175.092 123.3 175.198 123.227C175.433 123.067 175.76 122.85 175.793 122.715C175.807 122.65 175.825 122.585 175.847 122.526C175.902 122.37 175.945 122.232 175.873 122.113C175.731 121.888 175.713 121.634 175.713 121.398C175.713 121.162 175.063 120.334 174.874 120.334C174.776 120.334 174.66 120.374 174.533 120.418C174.363 120.479 174.178 120.537 174.007 120.508C173.963 120.501 173.92 120.49 173.884 120.483C173.807 120.465 173.727 120.45 173.673 120.45C173.611 120.45 173.571 120.458 173.561 120.574C173.542 120.781 173.19 121.111 172.798 121.441C172.864 121.579 172.911 121.699 172.943 121.819C173.198 122.693 173.433 122.886 173.793 123.18L173.825 123.205C173.989 123.34 174.297 123.539 174.664 123.768C174.758 123.597 174.842 123.481 174.904 123.427L174.911 123.43ZM190.943 123.213C190.943 123.064 190.929 122.926 190.918 122.777C190.893 122.512 190.871 122.236 190.918 121.873C190.987 121.358 191.328 121.067 191.408 121.009C191.448 120.926 191.611 120.585 191.844 120.352C192.043 120.153 192 119.252 191.953 118.799C191.938 118.683 191.891 118.381 191.851 118.124C191.757 118.145 191.644 118.127 191.517 118.073C191.335 117.989 191.317 117.848 191.306 117.746C191.292 117.637 191.285 117.579 191.158 117.539C191.049 117.51 190.965 117.532 190.904 117.608C190.831 117.699 190.806 117.859 190.838 117.997C190.893 118.222 190.766 118.305 190.66 118.374C190.613 118.407 190.562 118.439 190.522 118.49C190.341 118.715 189.568 118.715 189.531 118.715C189.444 118.715 189.328 118.828 189.223 118.922C189.121 119.02 189.02 119.111 188.918 119.147C188.893 119.165 188.853 119.169 188.798 119.169C188.838 119.815 188.936 119.866 189.208 120.007C189.259 120.033 189.317 120.062 189.375 120.098C189.702 120.287 189.648 120.534 189.604 120.715C189.579 120.835 189.561 120.915 189.611 120.966C189.771 121.125 189.775 121.427 189.782 121.808C189.786 121.967 189.789 122.149 189.804 122.338C189.833 122.704 189.869 123.615 189.898 124.349C190.196 124.298 190.479 124.294 190.591 124.294C190.733 124.294 190.856 124.203 190.965 124.124C191.06 124.055 191.147 123.989 191.241 123.986C191.201 123.902 191.165 123.826 191.125 123.753C191.034 123.583 190.947 123.419 190.947 123.223L190.943 123.213ZM204.174 117.775C203.971 117.706 203.662 117.459 203.662 117.242C203.662 117.14 203.677 116.9 203.717 116.683C203.561 116.635 203.488 116.505 203.43 116.396C203.397 116.33 203.361 116.272 203.314 116.225C203.267 116.178 203.23 116.134 203.201 116.095C203.114 115.986 203.092 115.975 202.976 116.007C202.885 116.033 202.766 116.178 202.653 116.316C202.508 116.497 202.352 116.683 202.174 116.741C202.119 116.759 202.058 116.77 201.989 116.77C201.717 116.77 201.408 116.614 201.227 116.523L201.183 116.501C201.15 116.483 201.049 116.461 200.784 116.461C200.642 116.461 200.486 116.465 200.337 116.468C200.105 116.476 199.891 116.483 199.771 116.468C199.6 116.447 199.408 116.624 199.245 116.777C199.15 116.864 199.06 116.944 198.972 116.995C198.874 117.049 198.708 117.082 198.479 117.082C198.203 117.082 197.931 117.038 197.815 116.998C197.724 116.969 197.59 116.882 197.448 116.788C197.277 116.675 197.06 116.534 196.962 116.534C196.798 116.534 196.399 116.588 196.058 116.791C196.003 116.824 195.945 116.842 195.891 116.842C195.698 116.842 195.593 116.635 195.492 116.432C195.444 116.338 195.394 116.24 195.335 116.174C195.252 116.08 195.118 116.073 194.954 116.062C194.784 116.055 194.588 116.044 194.439 115.913C194.406 115.884 194.37 115.866 194.341 115.866C194.276 115.866 194.203 115.935 194.13 116C194.032 116.091 193.927 116.182 193.804 116.163C193.771 116.16 193.727 116.149 193.673 116.142C193.517 116.116 193.303 116.08 193.118 116.08C192.933 116.08 192.853 116.113 192.816 116.145C192.718 116.229 192.682 116.49 192.653 116.683C192.628 116.875 192.606 116.991 192.555 117.046C192.417 117.183 192.072 117.608 192.072 117.804C192.072 117.913 192.04 118.004 191.971 118.058C192.014 118.33 192.065 118.657 192.08 118.781C192.105 119.009 192.214 120.164 191.934 120.443C191.698 120.679 191.524 121.071 191.521 121.075L191.513 121.093L191.495 121.107C191.495 121.107 191.118 121.372 191.049 121.891C191.002 122.24 191.027 122.508 191.049 122.766C191.063 122.915 191.074 123.06 191.074 123.213C191.074 123.376 191.147 123.514 191.234 123.677C191.306 123.79 191.375 123.913 191.423 124.066C191.426 124.069 191.43 124.073 191.437 124.084C191.561 124.251 192.109 124.334 192.551 124.399C192.744 124.428 192.929 124.454 193.085 124.49C193.64 124.61 194.228 125.379 194.207 125.717C194.192 125.975 194.548 126.505 194.773 126.624C194.885 126.686 195.154 126.595 195.404 126.501C195.59 126.432 195.767 126.367 195.894 126.367H196.08C197.002 126.367 197.281 126.283 197.357 126.218C197.412 126.167 197.477 126.149 197.546 126.167C197.764 125.565 197.847 125.038 197.847 125.031V125.009L197.865 124.991C198.217 124.624 199.056 123.768 199.194 123.735C199.237 123.721 199.306 123.721 199.386 123.732C199.426 123.732 199.463 123.735 199.506 123.735C199.604 123.735 199.731 123.728 199.836 123.648C199.884 123.615 199.938 123.597 200.007 123.597C200.29 123.597 200.682 123.949 200.744 124.262C200.747 124.287 200.751 124.305 200.758 124.312C200.809 124.269 200.918 124.058 200.994 123.917C201.023 123.855 201.06 123.797 201.089 123.739C201.114 123.688 201.154 123.623 201.19 123.55C201.426 123.125 201.913 122.247 201.913 122.033C201.913 121.851 202.094 121.703 202.254 121.568C202.337 121.499 202.453 121.405 202.453 121.361V121.289C202.45 121.082 202.439 120.773 202.631 120.701C202.751 120.654 202.889 120.2 202.856 120.036C202.813 119.808 203.531 118.755 203.535 118.744C203.586 118.672 203.698 118.65 203.829 118.624C204.032 118.581 204.178 118.537 204.196 118.41C204.199 118.349 204.214 118.294 204.221 118.232C204.261 117.978 204.276 117.811 204.174 117.775ZM205.383 107.866C205.314 107.764 205.234 107.652 205.248 107.423C205.267 107.198 205.118 106.991 204.987 106.813C204.874 106.657 204.78 106.526 204.78 106.392C204.78 106.236 204.747 105.579 204.718 105.046L203.858 105.51L203.825 105.456C203.825 105.456 203.59 105.067 203.129 104.759C202.708 104.476 201.669 104.454 201.513 104.454L196.671 107.47L194.588 109.147C194.533 109.169 193.227 109.626 192.827 109.706C192.798 109.71 192.762 109.721 192.733 109.728C192.776 112.628 192.678 112.704 192.635 112.741C192.584 112.781 192.519 112.98 192.468 113.129C192.406 113.318 192.348 113.496 192.268 113.572C192.243 113.597 192.214 113.637 192.178 113.681C192.054 113.844 191.862 114.095 191.513 114.095C191.354 114.095 191.096 114.134 190.824 114.178C190.403 114.243 189.96 114.301 189.727 114.265C189.448 114.222 189.198 114.367 189.023 114.476C188.958 114.516 188.907 114.545 188.86 114.563C188.758 114.606 188.439 114.624 188.185 114.624H188.159C188.109 115.027 188.141 115.104 188.152 115.111C188.225 115.154 188.268 115.267 188.319 115.398C188.37 115.536 188.435 115.692 188.53 115.764L188.573 115.793C188.787 115.953 189.085 116.171 189.085 116.418C189.085 116.715 189.136 116.781 189.219 116.781C189.343 116.781 189.423 116.889 189.499 116.991C189.561 117.075 189.619 117.154 189.691 117.183C189.775 117.212 189.916 117.169 190.025 117.133C190.098 117.107 190.159 117.089 190.207 117.089C190.257 117.089 190.29 117.115 190.301 117.133C190.33 117.18 190.33 117.271 190.33 117.438C190.33 117.528 190.33 117.677 190.345 117.732C190.417 117.739 190.559 117.775 190.697 117.855C190.7 117.732 190.74 117.608 190.809 117.525C190.864 117.448 190.962 117.405 191.067 117.405C191.107 117.405 191.15 117.412 191.198 117.427C191.412 117.492 191.43 117.641 191.444 117.75C191.459 117.848 191.466 117.917 191.575 117.967C191.807 118.069 191.949 118.029 191.949 117.83C191.949 117.528 192.464 116.98 192.468 116.977C192.493 116.951 192.515 116.799 192.533 116.69C192.566 116.454 192.606 116.182 192.744 116.065C192.82 116 192.951 115.967 193.132 115.967C193.332 115.967 193.55 116 193.709 116.033C193.757 116.04 193.8 116.047 193.833 116.055C193.909 116.055 193.978 115.989 194.047 115.924C194.138 115.84 194.228 115.757 194.348 115.757C194.414 115.757 194.479 115.782 194.537 115.833C194.653 115.935 194.809 115.942 194.972 115.949C195.15 115.957 195.328 115.967 195.452 116.109C195.517 116.185 195.571 116.291 195.622 116.392C195.709 116.556 195.793 116.726 195.902 116.726C195.931 116.726 195.963 116.712 196 116.693C196.363 116.476 196.784 116.418 196.972 116.418C197.11 116.418 197.317 116.552 197.531 116.693C197.662 116.777 197.789 116.86 197.862 116.886C197.971 116.918 198.236 116.958 198.482 116.958C198.682 116.958 198.835 116.933 198.914 116.889C198.987 116.846 199.07 116.77 199.161 116.686C199.35 116.516 199.564 116.316 199.793 116.341C199.909 116.356 200.119 116.345 200.345 116.338C200.493 116.334 200.653 116.33 200.795 116.33C201.041 116.33 201.183 116.349 201.256 116.381L201.299 116.403C201.47 116.49 201.76 116.635 202 116.635C202.051 116.635 202.098 116.628 202.141 116.614C202.283 116.566 202.428 116.389 202.559 116.232C202.693 116.069 202.816 115.917 202.951 115.88C202.994 115.866 203.027 115.859 203.067 115.862C203.067 115.761 203.071 115.663 203.071 115.575C203.071 115.227 203.114 115.14 203.172 115.035C203.216 114.951 203.263 114.857 203.306 114.595C203.408 113.964 205.005 112.374 205.139 112.276C205.183 112.2 205.248 111.427 205.248 109.528C205.248 109.18 205.314 108.781 205.452 108.298C205.517 108.073 205.455 107.993 205.383 107.88V107.866ZM179.357 125.492C179.39 125.227 179.034 125.013 178.715 124.828C178.642 124.784 178.573 124.741 178.508 124.704C178.399 124.635 178.308 124.588 178.243 124.548C178.123 124.483 178.058 124.45 178.051 124.381C178.047 124.32 178.083 124.28 178.127 124.243C178.247 124.145 178.276 123.909 178.228 123.499C178.214 123.401 178.221 123.314 178.236 123.242C178.112 123.18 178.047 123.122 178.029 123.049C178.029 123.042 178.025 123.035 178.025 123.031C177.956 123.064 177.793 123.296 177.709 123.409C177.575 123.597 177.321 123.568 177.161 123.387C177.063 123.274 177.016 123.125 177.038 122.973C177.085 122.639 176.86 122.12 176.776 122.087C176.715 122.087 176.421 122.131 176.043 122.218C176.058 122.338 176.014 122.458 175.974 122.581C175.953 122.643 175.931 122.697 175.92 122.759C175.876 122.948 175.571 123.154 175.27 123.354C175.161 123.427 175.063 123.496 174.991 123.554C174.962 123.572 174.896 123.644 174.78 123.855C175.252 124.156 175.775 124.483 176.203 124.81C177.052 125.452 178.261 126.247 178.831 126.458C178.882 126.479 178.951 126.49 179.031 126.497C179.103 126.189 179.176 126.015 179.237 125.873C179.288 125.75 179.332 125.648 179.354 125.499L179.357 125.492ZM189.648 121.801C189.64 121.448 189.633 121.169 189.513 121.049C189.404 120.94 189.441 120.799 189.466 120.675C189.506 120.497 189.542 120.345 189.299 120.207C189.237 120.174 189.183 120.142 189.136 120.116C188.813 119.949 188.697 119.855 188.653 119.147C188.533 119.133 188.392 119.104 188.254 119.078C188.116 119.049 187.971 119.016 187.855 119.009C187.836 119.013 187.822 119.013 187.807 119.016C187.905 119.575 187.985 119.637 187.992 119.641C188.221 119.771 188.326 120.018 188.301 120.381C188.297 120.436 188.294 120.505 188.283 120.581C188.25 120.973 188.196 121.63 188.316 121.935C188.461 122.305 188.62 122.915 188.62 123.517C188.62 123.851 188.809 124.352 188.994 124.726C189.06 124.686 189.11 124.654 189.154 124.617C189.288 124.505 189.484 124.425 189.76 124.363C189.738 123.746 189.695 122.722 189.666 122.338C189.648 122.145 189.648 121.964 189.644 121.801H189.648ZM184.087 124.127C184.101 124.036 184.17 123.895 184.257 123.717C184.377 123.485 184.522 123.198 184.512 123.035C184.493 122.846 184.631 122.693 184.758 122.566C184.853 122.465 184.943 122.367 184.943 122.28C184.943 122.08 184.827 121.183 184.57 120.585C184.497 120.57 184.428 120.53 184.359 120.461C184.294 120.396 184.13 120.36 183.927 120.36C183.644 120.36 183.285 120.443 183.118 120.632C183.056 120.719 182.972 120.755 182.864 120.755C182.522 120.755 182.101 120.305 182.014 120.156C181.942 120.036 181.684 119.811 181.441 119.811C181.368 119.811 181.299 119.833 181.237 119.877C181.089 119.978 180.98 120.033 180.896 120.033C180.835 120.033 180.798 120.007 180.776 119.982C180.726 119.928 180.711 119.837 180.729 119.684C180.733 119.652 180.729 119.623 180.711 119.608C180.689 119.586 180.657 119.575 180.61 119.575C180.486 119.575 180.326 119.659 180.294 119.779C180.239 120.015 179.949 120.203 179.746 120.203C179.655 120.203 179.579 120.163 179.535 120.102C179.444 119.967 179.299 119.83 179.194 119.83C179.165 119.83 179.121 119.837 179.081 119.924C179.009 120.091 178.896 120.127 178.82 120.127C178.776 120.127 178.729 120.113 178.686 120.095C178.617 120.392 178.544 120.762 178.671 120.835C178.911 120.969 178.969 121.238 178.904 121.441C178.889 121.474 178.965 121.59 179.002 121.659C179.1 121.822 179.227 122.029 179.089 122.171C178.994 122.262 178.856 122.24 178.747 122.2C178.708 122.182 178.671 122.171 178.639 122.171C178.624 122.171 178.599 122.171 178.57 122.225C178.526 122.316 178.562 122.396 178.631 122.523C178.697 122.643 178.769 122.781 178.664 122.915C178.617 122.977 178.566 123.024 178.519 123.064C178.403 123.165 178.319 123.242 178.352 123.496C178.406 123.957 178.366 124.222 178.203 124.36C178.188 124.363 178.181 124.367 178.178 124.374C178.199 124.392 178.247 124.418 178.29 124.439C178.359 124.479 178.453 124.526 178.566 124.599C178.628 124.639 178.697 124.683 178.769 124.719C179.121 124.926 179.521 125.162 179.473 125.514C179.452 125.681 179.404 125.793 179.35 125.924C179.296 126.055 179.227 126.211 179.158 126.49C179.513 126.476 180.018 126.341 180.591 126.185C181.129 126.04 181.738 125.877 182.399 125.761C183.114 125.637 183.844 125.673 184.559 125.873C184.635 125.557 184.588 125.463 184.573 125.441C184.428 125.249 184.058 124.374 184.083 124.138L184.087 124.127ZM188.196 121.982C188.061 121.648 188.112 120.998 188.152 120.563C188.156 120.49 188.167 120.425 188.17 120.37C188.192 120.065 188.109 119.859 187.931 119.753C187.865 119.721 187.786 119.608 187.691 119.085C187.659 119.125 187.626 119.176 187.604 119.22C187.571 119.289 187.539 119.343 187.473 119.343C187.419 119.343 187.386 119.292 187.379 119.274C187.296 119.213 186.453 119.129 185.593 119.129C184.918 119.129 184.678 119.18 184.642 119.216C184.58 119.307 184.682 119.619 184.755 119.848C184.827 120.08 184.871 120.229 184.856 120.327C184.835 120.439 184.787 120.526 184.718 120.563C184.976 121.187 185.089 122.073 185.089 122.28C185.089 122.421 184.976 122.541 184.871 122.657C184.762 122.773 184.653 122.893 184.664 123.024C184.682 123.227 184.53 123.517 184.399 123.782C184.326 123.928 184.25 124.08 184.239 124.145C184.217 124.316 184.555 125.147 184.704 125.35C184.773 125.459 184.773 125.644 184.708 125.909C184.983 125.993 185.194 126.08 185.335 126.138C185.408 126.167 185.466 126.189 185.492 126.2H185.506C185.753 126.2 187.009 125.634 187.64 125.318C187.873 125.202 188.119 125.107 188.355 125.016C188.548 124.944 188.733 124.871 188.889 124.791C188.697 124.399 188.497 123.88 188.497 123.517C188.497 122.933 188.341 122.341 188.199 121.986L188.196 121.982Z" fill="#009688" stroke="#009688" stroke-miterlimit="10"/>
</svg>
