<svg width="96" height="96" viewBox="0 0 96 96" fill="none" xmlns="http://www.w3.org/2000/svg">
<path d="M21.8895 19.6047V18.8547H21.1395H20.3721C19.5154 18.8547 18.8198 18.159 18.8198 17.3023C18.8198 16.4457 19.5154 15.75 20.3721 15.75H63.3488C64.2055 15.75 64.9012 16.4457 64.9012 17.3023C64.9012 18.159 64.2055 18.8547 63.3488 18.8547H62.5814H61.8314V19.6047V76.3953V77.1453H62.5814H70.2558H71.0058V76.3953V68.2293V67.7202L70.5327 67.5323C69.5195 67.1298 68.5634 66.4721 67.7428 65.4931L67.7422 65.4924C66.0645 63.4962 64.8663 60.2191 64.8663 56.4419C64.8663 52.6647 66.0645 49.3875 67.7422 47.3913L67.7428 47.3906C69.1204 45.7471 70.8179 44.9128 72.5581 44.9128C74.2984 44.9128 75.9959 45.7471 77.3734 47.3906L77.3741 47.3913C79.0517 49.3875 80.25 52.6647 80.25 56.4419C80.25 60.2191 79.0517 63.4962 77.3741 65.4924L77.3734 65.4931C76.5529 66.4721 75.5968 67.1298 74.5836 67.5323L74.1105 67.7202V68.2293V76.3953V77.1453H74.8605H78.6977C79.5543 77.1453 80.25 77.841 80.25 78.6977C80.25 79.5543 79.5543 80.25 78.6977 80.25H72.5581H60.2791H49.5948H34.1561H23.4419H17.3023C16.4457 80.25 15.75 79.5543 15.75 78.6977C15.75 77.841 16.4457 77.1453 17.3023 77.1453H21.1395H21.8895V76.3953V19.6047ZM49.7556 52.6296V52.6295L49.7482 52.6291L49.7457 52.629C49.6896 52.626 49.6146 52.6221 49.5349 52.6221H34.186C34.1342 52.6221 34.0864 52.6256 34.0541 52.6286C33.9669 52.6307 33.8873 52.6386 33.8356 52.6438L33.8057 52.6468L33.794 52.6489C33.794 52.6489 33.794 52.6489 33.7939 52.6489C33.7863 52.6496 33.7697 52.651 33.752 52.6529C33.7322 52.6551 33.7052 52.6585 33.6741 52.6642L33.6741 52.6641L33.6613 52.6666L33.6313 52.6726L33.6235 52.6742L33.6156 52.6759L33.5702 52.6861C33.5686 52.6864 33.5671 52.6867 33.5655 52.6871C33.0919 52.7873 32.644 52.994 32.2679 53.2998L32.238 53.3242L32.2171 53.3451C32.1457 53.4049 32.0645 53.4765 31.9834 53.5608L31.953 53.5912L31.9397 53.6045L31.9271 53.6184C31.6907 53.8796 31.5071 54.1789 31.3733 54.4937L31.3702 54.5011L31.3672 54.5085L31.3552 54.5385L31.354 54.5417C31.2983 54.6828 31.2432 54.844 31.2043 55.0256L31.2043 55.0256L31.2022 55.0357L31.1963 55.0657C31.1682 55.2059 31.1496 55.3471 31.1424 55.4966L31.1337 55.5402V55.6145V55.6744V76.3953V77.1453H31.8837H36.4884H37.2384V76.3953V58.7267H46.4826V76.3953V77.1453H47.2326H51.8372H52.5872V76.3953V55.6744C52.5872 55.5913 52.5833 55.5135 52.5802 55.4551L52.5802 55.4551L52.5796 55.4446C52.5743 55.3658 52.5575 55.2581 52.5566 55.2515L52.554 55.2319L52.5506 55.2135C52.5506 55.2135 52.5506 55.2134 52.5505 55.2132C52.5504 55.2126 52.5502 55.2108 52.5497 55.2075L52.5452 55.1749C52.5415 55.1488 52.5348 55.102 52.5221 55.0468C52.481 54.843 52.4172 54.641 52.3323 54.4501C52.2925 54.3582 52.2441 54.2712 52.217 54.2226C52.2157 54.2202 52.2144 54.2179 52.2132 54.2157L52.2082 54.2058L52.2005 54.1904L52.1921 54.1754C52.1251 54.0554 52.0426 53.9185 51.9327 53.7808C51.683 53.4666 51.3721 53.2035 51.023 53.0091C50.9688 52.9773 50.9204 52.9535 50.8956 52.9411L50.8884 52.9375L50.8812 52.9341C50.8059 52.8984 50.7311 52.8665 50.6589 52.8376C50.6588 52.8376 50.6588 52.8376 50.6588 52.8376L50.6338 52.8276L50.5668 52.7997L50.5439 52.7901L50.5203 52.7821C50.3258 52.7158 50.1364 52.6792 49.9691 52.6543L49.9604 52.653L49.9516 52.6519L49.9493 52.6515C49.9322 52.6491 49.8286 52.6341 49.7556 52.6296Z" stroke="white" stroke-width="1.5"/>
</svg>
