<svg width="24" height="24" viewBox="0 0 24 24" fill="none" xmlns="http://www.w3.org/2000/svg">
    <path
        d="M18.9209 10.5811L18.9481 10.5815C19.3069 10.587 19.6487 10.4708 19.911 10.265C20.0056 10.1818 20.0793 10.0851 20.1306 9.98167C20.1835 9.87503 20.2121 9.76202 20.2168 9.64879L20.2173 9.63811L20.2174 9.63811C20.2912 8.31756 20.2329 6.99344 20.0433 5.68279L20.0423 5.67549L20.0423 5.67548C20.0052 5.39962 19.8694 5.13383 19.644 4.92373L20.1554 4.37511L19.644 4.92373C19.4194 4.71433 19.1192 4.57377 18.7878 4.53348C18.2432 4.4817 17.702 4.44276 17.1542 4.40334C16.963 4.38959 16.771 4.37577 16.5777 4.36133H16.4681H14.7901L14.3553 4.41025C14.1196 4.45306 13.9119 4.56285 13.7588 4.71535C13.606 4.86749 13.5159 5.05316 13.4904 5.24309C13.3953 6.44245 13.379 7.64609 13.4415 8.8473L13.4433 8.88233L13.4419 8.91737C13.4307 9.18765 13.4397 9.45833 13.469 9.72748C13.513 9.93956 13.6319 10.1422 13.8201 10.2998C14.0156 10.4636 14.2724 10.5666 14.5502 10.5826L18.9209 10.5811ZM18.9209 10.5811L18.8938 10.5826M18.9209 10.5811L18.8938 10.5826M18.8938 10.5826C17.4473 10.6652 15.9968 10.6652 14.5504 10.5826L18.8938 10.5826Z"
        fill="white" fill-opacity="0.6" stroke="white" stroke-width="1.5" />
    <path
        d="M9.41731 13.3949V13.395L9.42013 13.3951C9.69947 13.4093 9.95804 13.512 10.1544 13.6765C10.3484 13.8392 10.4681 14.0499 10.5074 14.2692C10.5522 14.5519 10.5746 14.8372 10.5745 15.1228L10.5745 15.1426L10.5755 15.1624C10.638 16.3593 10.6216 17.5587 10.5263 18.7537C10.5028 18.9453 10.413 19.133 10.2589 19.2864C10.1035 19.4411 9.89151 19.5514 9.65128 19.5917C9.43906 19.6186 9.22506 19.6321 9.01077 19.6322L9.0028 19.6322L8.99484 19.6323C7.7267 19.6596 6.4582 19.5971 5.2003 19.4457C4.89191 19.4045 4.61124 19.2765 4.39461 19.0867C4.18175 18.9002 4.04216 18.6648 3.98433 18.4155C3.92719 18.0858 3.8961 17.7647 3.86202 17.4127C3.84992 17.2877 3.83744 17.1588 3.82328 17.0242C3.81364 16.9113 3.80354 16.8116 3.79425 16.7197C3.77417 16.5214 3.75781 16.3598 3.75781 16.1814V14.5781V14.5776V14.577V14.5765V14.576V14.5755V14.575V14.5745V14.5739V14.5734V14.5729V14.5724V14.5719V14.5714V14.5708V14.5703V14.5698V14.5693V14.5688V14.5683V14.5677V14.5672V14.5667V14.5662V14.5657V14.5652V14.5646V14.5641V14.5636V14.5631V14.5626V14.5621V14.5615V14.561V14.5605V14.56V14.5595V14.559V14.5584V14.5579V14.5574V14.5569V14.5564V14.5559V14.5553V14.5548V14.5543V14.5538V14.5533V14.5528V14.5522V14.5517V14.5512V14.5507V14.5502V14.5497V14.5491V14.5486V14.5481V14.5476V14.5471V14.5465V14.546V14.5455V14.545V14.5445V14.544V14.5434V14.5429V14.5424V14.5419V14.5414V14.5409V14.5403V14.5398V14.5393V14.5388V14.5383V14.5377V14.5372V14.5367V14.5362V14.5357V14.5352V14.5346V14.5341V14.5336V14.5331V14.5326V14.5321V14.5315V14.531V14.5305V14.53V14.5295V14.5289V14.5284V14.5279V14.5274V14.5269V14.5264V14.5258V14.5253V14.5248V14.5243V14.5238V14.5232V14.5227V14.5222V14.5217V14.5212V14.5206V14.5201V14.5196V14.5191V14.5186V14.518V14.5175V14.517V14.5165V14.516V14.5155V14.5149V14.5144V14.5139V14.5134V14.5129V14.5123V14.5118V14.5113V14.5108V14.5103V14.5097V14.5092V14.5087V14.5082V14.5077V14.5071V14.5066V14.5061V14.5056V14.5051V14.5045V14.504V14.5035V14.503V14.5025V14.5019V14.5014V14.5009V14.5004V14.4999V14.4993V14.4988V14.4983V14.4978V14.4972V14.4967V14.4962V14.4957V14.4952V14.4946V14.4941V14.4936V14.4931V14.4926V14.492V14.4915V14.491V14.4905V14.4899V14.4894V14.4889V14.4884V14.4879V14.4873V14.4868V14.4863V14.4858V14.4852V14.4847V14.4842V14.4837V14.4832V14.4826V14.4821V14.4816V14.4811V14.4805V14.48V14.4795V14.479V14.4785V14.4779V14.4774V14.4769V14.4764V14.4758V14.4753V14.4748V14.4743V14.4737V14.4732V14.4727V14.4722V14.4716V14.4711V14.4706V14.4701V14.4695V14.469V14.4685V14.468V14.4674V14.4669V14.4664V14.4659V14.4653V14.4648V14.4643V14.4638V14.4632V14.4627V14.4622V14.4617V14.4611V14.4606V14.4601V14.4596V14.459V14.4585V14.458V14.4575V14.4569V14.4564V14.4559V14.4554V14.4548V14.4543V14.4538V14.4532V14.4527V14.4522V14.4517V14.4511V14.4506V14.4501V14.4496V14.449V14.4485V14.448V14.4474V14.4469V14.4464V14.4459V14.4453V14.4448V14.4443V14.4437V14.4432V14.4427V14.4422V14.4416V14.4411V14.4406V14.44V14.4395V14.439V14.4385V14.4379V14.4374V14.4369V14.4363V14.4358V14.4353V14.4347V14.4342V14.4337V14.4332V14.4326V14.4321V14.4316V14.431V14.4305V14.43V14.4294V14.4289V14.4284V14.4278V14.4273V14.4268V14.4262V14.4257V14.4252V14.4247V14.4241V14.4236V14.4231V14.4225V14.422V14.4215V14.4209V14.4204V14.4199V14.4193V14.4188V14.4183V14.4177V14.4172V14.4167V14.4161V14.4156V14.4151V14.4145V14.414V14.4135V14.4129V14.4124V14.4118V14.4113V14.4108V14.4102V14.4097V14.4092V14.4086V14.4081V14.4076V14.407V14.4065V14.406V14.4054V14.4049V14.4044V14.4038V14.4033V14.4027V14.4022V14.4017V14.4011V14.4006V14.4001V14.3995V14.399V14.3984V14.3979V14.3974V14.3968V14.3963V14.3958V14.3952V14.3947V14.3941V14.3936V14.3931V14.3925V14.392V14.3914V14.3909V14.3904V14.3898V14.3893V14.3887V14.3882V14.3877V14.3871V14.3866V14.386V14.3855V14.385V14.3844V14.3839V14.3833V14.3828V14.3823V14.3817V14.3812V14.3806V14.3801V14.3795V14.379V14.3785V14.3779V14.3774V14.3768V14.3763V14.3757V14.3752V14.3747V14.3741V14.3736V14.373V14.3725V14.3719V14.3714V14.3708V14.3703V14.3698V14.3692V14.3687V14.3681V14.3676V14.367V14.3665V14.3659V14.3654V14.3648V14.3643V14.3638V14.3632V14.3627V14.3621V14.3616V14.361V14.3605V14.3599V14.3594V14.3588V14.3583V14.3577V14.3572V14.3566V14.3561V14.3555V14.355V14.3544V14.3539V14.3533V14.3528V14.3522V14.3517V14.3512V14.3506V14.3501V14.3495V14.349V14.3484V14.3478V14.3473V14.3467V14.3462V14.3456V14.3451V14.3445V14.344V14.3434V14.3429V14.3423V14.3418V14.3412V14.3407V14.3401V14.3396V14.339V14.3385V14.3379V14.3374V14.3368V14.3362V14.3357V14.3351V14.3346V14.334V14.3335V14.3329V14.3324V14.3318V14.3313V14.3307V14.3301V14.3296V14.329V14.3285V14.3279V14.3274V14.3268V14.3262V14.3257V14.3251V14.3246V14.324V14.3235V14.3229V14.3223V14.3218V14.3212V14.3207V14.3201V14.3195V14.319V14.3184V14.3179V14.3173V14.3168V14.3164C3.76149 14.2116 3.78732 14.1069 3.83565 14.0078C3.88508 13.9064 3.95777 13.8116 4.05227 13.7308C4.3117 13.5119 4.66103 13.3875 5.02906 13.3959L5.05804 13.3965L5.08698 13.3949C6.52918 13.3163 7.9751 13.3163 9.41731 13.3949Z"
        fill="white" fill-opacity="0.6" stroke="white" stroke-width="1.5" />
    <path
        d="M8.59316 10.6293L8.57885 10.6294L8.56456 10.6301C7.2854 10.6887 6.00357 10.6733 4.72649 10.584C4.48719 10.5569 4.27003 10.4601 4.10464 10.3159C3.93748 10.1701 3.83354 9.98565 3.79663 9.79427L3.78204 9.71862L3.7558 9.6557C3.75529 9.65268 3.75455 9.64762 3.75379 9.64011C3.75248 9.62698 3.75136 9.60898 3.75071 9.58289C3.75004 9.55578 3.75 9.52701 3.75 9.48736V7.91253C3.75396 7.85265 3.75464 7.79261 3.75205 7.73268C3.76579 7.57421 3.77901 7.41727 3.79213 7.26143C3.83544 6.74716 3.87774 6.24484 3.93453 5.73906L3.93454 5.73906L3.93498 5.7349C3.96359 5.46663 4.08635 5.20598 4.29614 4.99553C4.50573 4.78528 4.7905 4.63768 5.11068 4.5847C5.48286 4.52989 5.85493 4.49996 6.2504 4.46815C6.39804 4.45627 6.54894 4.44413 6.70432 4.43034L6.74557 4.42667L6.78617 4.41849C7.01933 4.3715 7.26325 4.36914 7.58405 4.36914H9.20954H9.49284C9.62853 4.37293 9.76077 4.40186 9.88147 4.453C10.0037 4.50479 10.1099 4.57754 10.1953 4.66434C10.4229 4.89884 10.5376 5.19459 10.5324 5.4898L10.5318 5.52093L10.5338 5.552C10.6219 6.89936 10.622 8.25046 10.5339 9.59783C10.519 9.81766 10.4243 10.0349 10.2529 10.2118C10.0814 10.3889 9.84294 10.5143 9.5723 10.5573C9.24823 10.6027 8.92102 10.6268 8.59316 10.6293Z"
        fill="#00549A" stroke="white" stroke-width="1.5" />
    <path
        d="M19.2172 13.3942L19.2194 13.3944C19.5037 13.4142 19.7604 13.5314 19.9428 13.71C20.1239 13.8873 20.2186 14.1107 20.2246 14.334L20.2249 14.3419L20.2252 14.3499C20.2889 15.6676 20.2279 16.988 20.0427 18.2959C20.0026 18.5727 19.8649 18.8387 19.6388 19.0494L20.1502 19.598L19.6388 19.0494C19.412 19.2608 19.1096 19.4033 18.7753 19.4455C17.5338 19.5961 16.2817 19.6586 15.0299 19.6324L15.0161 19.6322L15.0023 19.6324C14.7798 19.6359 14.5574 19.6227 14.3373 19.5928C14.0969 19.5505 13.8854 19.4386 13.7306 19.2828C13.5767 19.1278 13.4873 18.9387 13.4644 18.7459C13.3649 17.5411 13.3484 16.3315 13.4152 15.1247L13.4153 15.1247L13.4158 15.1107C13.4263 14.8245 13.4521 14.539 13.4931 14.2551C13.5304 14.0455 13.6431 13.8436 13.8262 13.6857C14.0119 13.5256 14.2576 13.4224 14.5256 13.4023C14.708 13.3899 14.8872 13.3765 15.0633 13.3633C15.7213 13.3139 16.3356 13.2678 16.91 13.2914C17.1402 13.3008 17.3656 13.3087 17.5879 13.3166C18.1415 13.3361 18.6761 13.355 19.2172 13.3942Z"
        fill="white" fill-opacity="0.6" stroke="white" stroke-width="1.5" />
</svg>
