<svg width="24" height="24" viewBox="0 0 24 24" fill="none" xmlns="http://www.w3.org/2000/svg">
    <path
        d="M18.3601 21H5.66998H5.57024C4.98047 20.9164 4.42949 20.6573 3.98891 20.2565C3.54833 19.8557 3.23852 19.3316 3.09974 18.7524C3.06138 18.6144 3.03069 18.4686 3 18.3305V11.1276V11.0279C3.10755 10.3219 3.46734 9.67874 4.01275 9.21758L9.93581 3.84798C10.4883 3.30455 11.2323 3 12.0073 3C12.7824 3 13.5264 3.30455 14.0789 3.84798C16.043 5.61995 17.9918 7.40726 19.9636 9.21758C20.2974 9.51261 20.563 9.87677 20.7419 10.2848C20.9207 10.6928 21.0086 11.1348 20.9993 11.5802C20.9993 13.6513 20.9993 15.7225 20.9993 17.7936C21.0019 17.9886 20.989 18.1835 20.961 18.3766C20.9001 18.9209 20.6913 19.4381 20.3572 19.8722C20.0231 20.3063 19.5765 20.6406 19.0659 20.8389C18.8346 20.9086 18.5987 20.9624 18.3601 21ZM11.9536 19.2741H17.8767C18.0383 19.2804 18.1995 19.2535 18.3503 19.1951C18.5011 19.1366 18.6383 19.0478 18.7534 18.9342C18.8684 18.8206 18.959 18.6846 19.0193 18.5345C19.0797 18.3845 19.1086 18.2237 19.1043 18.0621C19.1043 15.8912 19.1043 13.7204 19.1043 11.5495C19.1068 11.3521 19.0663 11.1564 18.9855 10.9762C18.9046 10.7961 18.7855 10.6357 18.6363 10.5063C16.6951 8.73431 14.7387 6.97769 12.7669 5.19038C12.5365 4.9855 12.2389 4.87231 11.9306 4.87231C11.6223 4.87231 11.3247 4.9855 11.0943 5.19038L9.34504 6.80893L5.20197 10.56C5.01477 10.7052 4.88445 10.9115 4.83369 11.143C4.80949 11.2978 4.79666 11.4542 4.79533 11.6109V17.97C4.78278 18.1445 4.8079 18.3196 4.86901 18.4835C4.93012 18.6474 5.02577 18.7963 5.14949 18.92C5.2732 19.0437 5.42208 19.1393 5.58602 19.2004C5.74996 19.2615 5.92512 19.2866 6.09963 19.2741H11.9536Z"
        fill="white" />
    <path
        d="M4.40039 11L11.2181 4.63683C11.6023 4.27824 12.1985 4.27824 12.5827 4.63683L19.4004 11V17.5C19.4004 18.6046 18.505 19.5 17.4004 19.5H6.40039C5.29582 19.5 4.40039 18.6046 4.40039 17.5V11Z"
        fill="#00549A" />
</svg>
