<svg width="150" height="147" viewBox="0 0 150 147" fill="none" xmlns="http://www.w3.org/2000/svg">
<g clip-path="url(#clip0_3836_14329)">
<path d="M75 117.75C107.449 117.75 133.754 91.3907 133.754 58.875C133.754 26.3592 107.449 0 75 0C42.5513 0 16.2463 26.3592 16.2463 58.875C16.2463 91.3907 42.5513 117.75 75 117.75Z" fill="#F2F2F2"/>
<path d="M116.43 146.074C115.946 146.074 115.483 145.8 115.263 145.334L75.0001 60.0556L34.7374 145.334C34.4324 145.979 33.664 146.255 33.0202 145.95C32.3763 145.644 32.1016 144.874 32.4056 144.229L73.8342 56.4819C74.0476 56.0304 74.5018 55.7422 75.0001 55.7422C75.4983 55.7422 75.9525 56.0304 76.1659 56.4819L117.594 144.229C117.899 144.874 117.624 145.645 116.98 145.95C116.801 146.034 116.614 146.075 116.43 146.075V146.074Z" fill="#B3B3B3"/>
<path d="M110.843 134.243H39.1573C38.5657 134.243 38.0492 133.839 37.9063 133.264C37.7625 132.688 38.0281 132.089 38.5511 131.81L72.259 113.799L52.9913 103.505C52.363 103.169 52.1249 102.386 52.4601 101.757C52.7953 101.127 53.5765 100.889 54.2048 101.224L75.0001 112.336L95.7954 101.224C96.4237 100.889 97.2059 101.127 97.5401 101.757C97.8753 102.386 97.6372 103.169 97.0089 103.505L77.7413 113.799L111.449 131.81C111.971 132.089 112.237 132.688 112.094 133.264C111.95 133.839 111.435 134.243 110.843 134.243ZM44.3182 131.658H105.682L75.0001 115.264L44.3182 131.658Z" fill="#B3B3B3"/>
<path d="M56.0584 98.4449C55.5034 98.4449 55.0115 98.0897 54.8348 97.5629C54.6589 97.0361 54.8384 96.4552 55.2817 96.1202L72.8569 82.8442L65.2407 77.0909C64.6719 76.6614 64.5584 75.851 64.987 75.2802C65.4156 74.7102 66.2243 74.5964 66.7931 75.0259L74.9991 81.2244L83.2051 75.0259C83.7739 74.5964 84.5826 74.7102 85.0112 75.2802C85.4398 75.8501 85.3262 76.6604 84.7575 77.0909L77.1413 82.8442L94.7165 96.1202C95.1588 96.4552 95.3392 97.0352 95.1634 97.5629C94.9875 98.0897 94.4948 98.4449 93.9398 98.4449H56.0575H56.0584ZM75 84.4631L59.9123 95.8605H90.0868L74.9991 84.4631H75Z" fill="#B3B3B3"/>
<path d="M80.9248 70.8734H69.0764C68.3638 70.8734 67.7869 70.2943 67.7869 69.5812C67.7869 68.8682 68.3648 68.2891 69.0764 68.2891H80.9248C81.6373 68.2891 82.2143 68.8682 82.2143 69.5812C82.2143 70.2943 81.6364 70.8734 80.9248 70.8734Z" fill="#B3B3B3"/>
<path d="M74.9872 42.6424C76.6761 42.6424 78.0453 41.2704 78.0453 39.578C78.0453 37.8856 76.6761 36.5137 74.9872 36.5137C73.2983 36.5137 71.9292 37.8856 71.9292 39.578C71.9292 41.2704 73.2983 42.6424 74.9872 42.6424Z" fill="#E6332A"/>
<path d="M94.6093 24.3348L94.178 24.7624C93.5048 25.4296 92.4232 25.4205 91.7537 24.7496C87.4602 20.4426 81.5291 17.7738 74.9872 17.7738C68.4453 17.7738 62.5142 20.4417 58.2207 24.7487C57.5512 25.4195 56.4696 25.4287 55.7965 24.7615L55.366 24.3348C54.6929 23.6676 54.6837 22.5773 55.3523 21.9064C55.3605 21.8982 55.3678 21.8908 55.3761 21.8826C57.9222 19.3303 60.8877 17.3269 64.1912 15.9273C67.6109 14.4773 71.2441 13.7422 74.9881 13.7422C78.7321 13.7422 82.3635 14.4773 85.7842 15.9273C89.0877 17.3269 92.0532 19.3303 94.6002 21.8826C94.6084 21.8908 94.6157 21.8982 94.624 21.9064C95.2926 22.5782 95.2825 23.6685 94.6102 24.3348H94.6093Z" fill="#C6C6C6"/>
<path d="M89.6537 29.2479L89.2123 29.6848C88.541 30.3501 87.4612 30.3446 86.7926 29.6756C83.7657 26.6489 79.5903 24.7749 74.9864 24.7749C70.3824 24.7749 66.207 26.648 63.1801 29.6756C62.5115 30.3437 61.4317 30.3501 60.7604 29.6848L60.319 29.247C59.6541 28.5881 59.6422 27.5088 60.3025 26.8453C60.3062 26.8416 60.3107 26.837 60.3144 26.8334C64.2333 22.9073 69.4436 20.7441 74.9864 20.7441C80.5291 20.7441 85.7375 22.9073 89.6574 26.8334C89.661 26.837 89.6656 26.8416 89.6693 26.8453C90.3305 27.5088 90.3186 28.5881 89.6528 29.2479H89.6537Z" fill="#C6C6C6"/>
<path d="M84.6695 34.1905L84.2482 34.609C83.5806 35.2716 82.5045 35.2716 81.8368 34.609C80.0765 32.8607 77.6559 31.7787 74.9872 31.7787C72.3184 31.7787 69.8978 32.8598 68.1366 34.6081C67.4689 35.2707 66.3937 35.2698 65.7251 34.6081L65.3039 34.1905C64.6289 33.5215 64.6215 32.4266 65.2956 31.7558C67.784 29.2797 71.2093 27.7471 74.9862 27.7471C78.7632 27.7471 82.1885 29.2797 84.6769 31.7567C85.3509 32.4276 85.3436 33.5224 84.6686 34.1915L84.6695 34.1905Z" fill="#E6E6E6"/>
<path d="M74.9872 33.6572C73.6555 33.6572 72.5593 32.6082 72.4988 31.2757L71.7533 14.972C71.6691 13.1237 73.1408 11.5791 74.9872 11.5791C76.8336 11.5791 78.3053 13.1237 78.2211 14.972L77.4756 31.2757C77.4142 32.6082 76.3188 33.6572 74.9872 33.6572Z" fill="#E6332A"/>
<path d="M74.9872 34.2172C73.3533 34.2172 72.0153 32.9361 71.9411 31.3007L71.1956 14.997C71.148 13.9489 71.5198 12.9541 72.2424 12.1951C72.9659 11.4361 73.9404 11.0186 74.9872 11.0186C76.034 11.0186 77.0094 11.4361 77.732 12.1951C78.4556 12.9541 78.8274 13.9489 78.7788 14.997L78.0333 31.3007C77.9582 32.9361 76.6202 34.2163 74.9872 34.2163V34.2172ZM74.9872 12.1391C74.2481 12.1391 73.5603 12.4337 73.0502 12.9697C72.5401 13.5047 72.2772 14.2068 72.3111 14.9465L73.0566 31.2502C73.1042 32.2863 73.9523 33.0976 74.9872 33.0976C76.0221 33.0976 76.8702 32.2863 76.9178 31.2502L77.6633 14.9465C77.6972 14.2068 77.4344 13.5047 76.9242 12.9697C76.4141 12.4346 75.7263 12.1391 74.9872 12.1391Z" fill="white"/>
<path d="M45.2779 67.1958C47.182 67.1958 48.8928 66.1954 49.4048 64.716C49.838 63.4661 49.2939 62.195 45.386 62.1106C34.2492 61.8701 41.0348 57.2695 32.2206 56.3315C21.7946 55.2229 21.2616 62.5988 15.5155 61.9197C9.29137 61.1836 8.51565 62.3547 4.5262 63.8102C2.406 64.5839 -1.6265 67.1948 0.700683 67.1948H45.2779V67.1958Z" fill="#E6E6E6"/>
<path d="M145.748 86.4106C147.652 86.4106 149.363 85.4103 149.875 83.9309C150.308 82.6809 149.764 81.4098 145.856 81.3254C134.719 81.085 141.505 76.4843 132.69 75.5464C122.264 74.4377 121.731 81.8136 115.985 81.1345C109.761 80.3985 108.985 81.5695 104.996 83.0251C102.876 83.7987 98.8434 86.4097 101.171 86.4097H145.747L145.748 86.4106Z" fill="#E6E6E6"/>
<path d="M123.462 51.4603C124.947 51.4603 125.769 49.9304 124.844 48.8943C124.019 47.9711 122.637 47.1368 120.33 47.0744C112.751 46.867 117.495 43.2731 111.497 42.4646C104.402 41.5083 100.602 47.4608 96.6911 46.8744C92.1311 46.1916 90.2279 47.481 89.4485 48.864C88.7955 50.024 89.6317 51.4603 90.9615 51.4603H123.461H123.462Z" fill="#E6E6E6"/>
<path d="M75 57.2367C77.0768 57.2367 78.7605 55.5496 78.7605 53.4684C78.7605 51.3873 77.0768 49.7002 75 49.7002C72.9231 49.7002 71.2395 51.3873 71.2395 53.4684C71.2395 55.5496 72.9231 57.2367 75 57.2367Z" fill="#808080"/>
<path d="M52.3649 47.479C52.6764 46.1726 51.8721 44.8605 50.5685 44.5483C49.2648 44.2361 47.9554 45.0421 47.6438 46.3485C47.3323 47.6548 48.1366 48.9669 49.4403 49.2791C50.7439 49.5913 52.0533 48.7854 52.3649 47.479Z" fill="white"/>
<path d="M102.771 70.1324C100.51 70.1324 98.6702 68.2886 98.6702 66.0227C98.6702 63.7568 100.51 61.9131 102.771 61.9131C105.033 61.9131 106.873 63.7568 106.873 66.0227C106.873 68.2886 105.033 70.1324 102.771 70.1324ZM102.771 63.833C101.566 63.833 100.586 64.8159 100.586 66.0227C100.586 67.2296 101.567 68.2125 102.771 68.2125C103.976 68.2125 104.957 67.2305 104.957 66.0227C104.957 64.815 103.976 63.833 102.771 63.833Z" fill="white"/>
<path d="M45.8118 89.6955C45.6149 89.6955 45.418 89.6202 45.2678 89.4697L38.1562 82.3434C37.8558 82.0424 37.8558 81.5551 38.1562 81.2541C38.4566 80.9531 38.9429 80.9531 39.2433 81.2541L46.3549 88.3804C46.6553 88.6814 46.6553 89.1687 46.3549 89.4697C46.2047 89.6202 46.0078 89.6955 45.8118 89.6955Z" fill="white"/>
<path d="M38.7002 89.6955C38.5033 89.6955 38.3064 89.6202 38.1562 89.4697C37.8558 89.1687 37.8558 88.6814 38.1562 88.3804L45.2678 81.2541C45.5682 80.9531 46.0545 80.9531 46.3549 81.2541C46.6553 81.5551 46.6553 82.0424 46.3549 82.3434L39.2433 89.4697C39.0931 89.6202 38.8962 89.6955 38.7002 89.6955Z" fill="white"/>
</g>
<defs>
<clipPath id="clip0_3836_14329">
<rect width="150" height="146.073" fill="white"/>
</clipPath>
</defs>
</svg>
