<svg width="140" height="130" viewBox="0 0 190 180" fill="none" xmlns="http://www.w3.org/2000/svg">
    <g clip-path="url(#clip0_1364_9870)">
        <path
            d="M167.992 113.484H22.0076C9.85316 113.484 0 123.279 0 135.36C0 147.442 9.85316 157.237 22.0076 157.237H167.992C180.147 157.237 190 147.442 190 135.36C190 123.279 180.147 113.484 167.992 113.484Z"
            fill="#212427" />
        <path
            d="M25.2756 41.0234H170.126C181.095 41.0234 190 49.875 190 60.7779C190 71.6809 181.095 80.5324 170.126 80.5324H25.2756C14.3071 80.5324 5.40234 71.6809 5.40234 60.7779C5.40234 49.875 14.3071 41.0234 25.2756 41.0234Z"
            fill="#212427" />
        <path
            d="M153.89 12.7656H58.3695C52.2068 12.7656 47.2109 17.7313 47.2109 23.8569C47.2109 29.9824 52.2068 34.9481 58.3695 34.9481H153.89C160.052 34.9481 165.048 29.9824 165.048 23.8569C165.048 17.7313 160.052 12.7656 153.89 12.7656Z"
            fill="#212427" />
        <path
            d="M173.441 113.48C173.355 113.484 173.266 113.484 173.178 113.484H24.3047C24.2752 113.484 24.2444 113.484 24.2148 113.483C28.7558 113.46 32.864 111.619 35.8421 108.657C38.8421 105.675 40.6978 101.556 40.6978 97.0063C40.6978 87.9365 33.3277 80.581 24.2148 80.5325C24.2444 80.5313 24.2752 80.5312 24.3047 80.5312H173.176C173.265 80.5312 173.09 80.5313 173.176 80.5351C168.703 80.6027 164.924 82.4333 161.982 85.3566C158.982 88.3386 157.126 92.458 157.126 97.0076C157.126 106.021 164.406 113.343 173.44 113.481L173.441 113.48Z"
            fill="#212427" />
        <path
            d="M110.611 134.881H109.125C108.614 134.881 108.201 134.47 108.201 133.962C108.201 133.454 108.614 133.043 109.125 133.043H110.611C111.406 133.043 112.197 132.95 112.964 132.766C113.46 132.647 113.959 132.95 114.079 133.444C114.198 133.937 113.894 134.433 113.397 134.552C112.489 134.769 111.553 134.88 110.611 134.88V134.881ZM104.027 134.881H99.9471C99.4373 134.881 99.0225 134.47 99.0225 133.962C99.0225 133.454 99.436 133.043 99.9471 133.043H104.027C104.538 133.043 104.952 133.454 104.952 133.962C104.952 134.47 104.538 134.881 104.027 134.881ZM94.8488 134.881H90.7688C90.259 134.881 89.8442 134.47 89.8442 133.962C89.8442 133.454 90.2577 133.043 90.7688 133.043H94.8488C95.3586 133.043 95.7734 133.454 95.7734 133.962C95.7734 134.47 95.3599 134.881 94.8488 134.881ZM85.6692 134.881H81.5892C81.0781 134.881 80.6646 134.47 80.6646 133.962C80.6646 133.454 81.0781 133.043 81.5892 133.043H85.6692C86.1803 133.043 86.5938 133.454 86.5938 133.962C86.5938 134.47 86.1803 134.881 85.6692 134.881ZM76.4909 134.881H72.4109C71.9011 134.881 71.4863 134.47 71.4863 133.962C71.4863 133.454 71.8998 133.043 72.4109 133.043H76.4909C77.0007 133.043 77.4155 133.454 77.4155 133.962C77.4155 134.47 77.002 134.881 76.4909 134.881ZM67.3126 134.881H63.2326C62.7228 134.881 62.308 134.47 62.308 133.962C62.308 133.454 62.7215 133.043 63.2326 133.043H67.3126C67.8224 133.043 68.2372 133.454 68.2372 133.962C68.2372 134.47 67.8237 134.881 67.3126 134.881ZM58.1343 134.881H54.0543C53.5445 134.881 53.1297 134.47 53.1297 133.962C53.1297 133.454 53.5432 133.043 54.0543 133.043H58.1343C58.6441 133.043 59.0589 133.454 59.0589 133.962C59.0589 134.47 58.6454 134.881 58.1343 134.881ZM48.956 134.881H44.876C44.3662 134.881 43.9514 134.47 43.9514 133.962C43.9514 133.454 44.3649 133.043 44.876 133.043H48.956C49.4658 133.043 49.8806 133.454 49.8806 133.962C49.8806 134.47 49.4671 134.881 48.956 134.881ZM39.7764 134.881H37.425C36.7996 134.881 36.1729 134.833 35.5603 134.736C35.0556 134.657 34.7127 134.186 34.7923 133.685C34.872 133.183 35.3458 132.843 35.8492 132.922C36.3655 133.003 36.8959 133.044 37.425 133.044H39.7764C40.2862 133.044 40.701 133.455 40.701 133.963C40.701 134.471 40.2875 134.883 39.7764 134.883V134.881ZM31.0347 132.831C30.8472 132.831 30.6584 132.775 30.4941 132.658C29.2907 131.793 28.2711 130.727 27.4659 129.489C27.1885 129.063 27.3118 128.495 27.7407 128.219C28.1696 127.943 28.7411 128.066 29.0185 128.492C29.6991 129.538 30.5596 130.439 31.5767 131.169C31.9902 131.466 32.0839 132.04 31.7847 132.452C31.6036 132.701 31.3211 132.834 31.0347 132.834V132.831ZM117.682 132.299C117.42 132.299 117.161 132.189 116.977 131.975C116.647 131.588 116.693 131.008 117.082 130.68C118.039 129.872 118.825 128.907 119.42 127.812C119.662 127.365 120.222 127.198 120.672 127.439C121.121 127.68 121.29 128.237 121.047 128.684C120.343 129.981 119.412 131.123 118.281 132.081C118.107 132.227 117.894 132.299 117.682 132.299ZM26.5592 125.174C26.093 125.174 25.6911 124.823 25.641 124.352C25.5973 123.94 25.5755 123.52 25.5742 123.103V120.204C25.5742 119.696 25.9877 119.284 26.4989 119.284C27.01 119.284 27.4235 119.696 27.4235 120.204V123.103C27.4235 123.455 27.4428 123.811 27.48 124.16C27.5339 124.664 27.1654 125.117 26.6581 125.169C26.6247 125.173 26.5926 125.174 26.5605 125.174H26.5592ZM121.531 124.313C121.522 124.313 121.514 124.313 121.505 124.313C120.995 124.299 120.592 123.876 120.606 123.369C120.609 123.281 120.61 123.192 120.61 123.103V119.339C120.61 118.831 121.024 118.42 121.535 118.42C122.046 118.42 122.459 118.831 122.459 119.339V123.103C122.459 123.209 122.459 123.314 122.456 123.419C122.441 123.918 122.031 124.313 121.532 124.313H121.531ZM26.5001 116.054C25.9903 116.054 25.5755 115.642 25.5755 115.134V111.08C25.5755 110.573 25.989 110.161 26.5001 110.161C27.0113 110.161 27.4248 110.572 27.4248 111.08V115.134C27.4248 115.642 27.0113 116.054 26.5001 116.054ZM121.535 115.189C121.024 115.189 120.61 114.778 120.61 114.27V110.216C120.61 109.708 121.024 109.297 121.535 109.297C122.046 109.297 122.459 109.708 122.459 110.216V114.27C122.459 114.778 122.046 115.189 121.535 115.189ZM26.5001 106.93C25.9903 106.93 25.5755 106.519 25.5755 106.011V101.955C25.5755 101.449 25.989 101.036 26.5001 101.036C27.0113 101.036 27.4248 101.447 27.4248 101.955V106.011C27.4248 106.518 27.0113 106.93 26.5001 106.93ZM121.535 106.066C121.024 106.066 120.61 105.655 120.61 105.147V101.091C120.61 100.584 121.024 100.172 121.535 100.172C122.046 100.172 122.459 100.583 122.459 101.091V105.147C122.459 105.654 122.046 106.066 121.535 106.066ZM26.5001 97.8054C25.9903 97.8054 25.5755 97.3943 25.5755 96.8863V92.8307C25.5755 92.3239 25.989 91.9116 26.5001 91.9116C27.0113 91.9116 27.4248 92.3226 27.4248 92.8307V96.8863C27.4248 97.3931 27.0113 97.8054 26.5001 97.8054ZM121.535 96.9424C121.024 96.9424 120.61 96.5314 120.61 96.0233V91.9678C120.61 91.461 121.024 91.0486 121.535 91.0486C122.046 91.0486 122.459 91.4597 122.459 91.9678V96.0233C122.459 96.5301 122.046 96.9424 121.535 96.9424ZM26.5001 88.6819C25.9903 88.6819 25.5755 88.2709 25.5755 87.7628V83.7072C25.5755 83.2005 25.989 82.7881 26.5001 82.7881C27.0113 82.7881 27.4248 83.1992 27.4248 83.7072V87.7628C27.4248 88.2696 27.0113 88.6819 26.5001 88.6819ZM121.535 87.819C121.024 87.819 120.61 87.4079 120.61 86.8999V82.8443C120.61 82.3375 121.024 81.9252 121.535 81.9252C122.046 81.9252 122.459 82.3363 122.459 82.8443V86.8999C122.459 87.4067 122.046 87.819 121.535 87.819ZM26.5001 79.5585C25.9903 79.5585 25.5755 79.1474 25.5755 78.6394V74.5838C25.5755 74.077 25.989 73.6647 26.5001 73.6647C27.0113 73.6647 27.4248 74.0757 27.4248 74.5838V78.6394C27.4248 79.1462 27.0113 79.5585 26.5001 79.5585ZM121.535 78.6956C121.024 78.6956 120.61 78.2845 120.61 77.7764V73.7209C120.61 73.2141 121.024 72.8018 121.535 72.8018C122.046 72.8018 122.459 73.2128 122.459 73.7209V77.7764C122.459 78.2832 122.046 78.6956 121.535 78.6956ZM26.5001 70.4351C25.9903 70.4351 25.5755 70.024 25.5755 69.5159V65.4604C25.5755 64.9536 25.989 64.5413 26.5001 64.5413C27.0113 64.5413 27.4248 64.9523 27.4248 65.4604V69.5159C27.4248 70.0227 27.0113 70.4351 26.5001 70.4351ZM121.535 69.5708C121.024 69.5708 120.61 69.1598 120.61 68.6517V64.5962C120.61 64.0894 121.024 63.677 121.535 63.677C122.046 63.677 122.459 64.0881 122.459 64.5962V68.6517C122.459 69.1585 122.046 69.5708 121.535 69.5708ZM26.5001 61.3116C25.9903 61.3116 25.5755 60.9006 25.5755 60.3925V56.3369C25.5755 55.8301 25.989 55.4178 26.5001 55.4178C27.0113 55.4178 27.4248 55.8289 27.4248 56.3369V60.3925C27.4248 60.8993 27.0113 61.3116 26.5001 61.3116ZM121.535 60.4474C121.024 60.4474 120.61 60.0363 120.61 59.5283V55.4727C120.61 54.9659 121.024 54.5536 121.535 54.5536C122.046 54.5536 122.459 54.9646 122.459 55.4727V59.5283C122.459 60.0351 122.046 60.4474 121.535 60.4474ZM26.5001 52.1882C25.9903 52.1882 25.5755 51.7771 25.5755 51.2691V47.2135C25.5755 46.7067 25.989 46.2944 26.5001 46.2944C27.0113 46.2944 27.4248 46.7054 27.4248 47.2135V51.2691C27.4248 51.7758 27.0113 52.1882 26.5001 52.1882ZM121.535 51.324C121.024 51.324 120.61 50.9129 120.61 50.4048V46.3161C120.61 45.8093 121.024 45.397 121.535 45.397C122.046 45.397 122.459 45.808 122.459 46.3161V50.4048C122.459 50.9116 122.046 51.324 121.535 51.324ZM26.5001 43.0634C25.9903 43.0634 25.5755 42.6524 25.5755 42.1443V38.0888C25.5755 37.582 25.989 37.1697 26.5001 37.1697C27.0113 37.1697 27.4248 37.5807 27.4248 38.0888V42.1443C27.4248 42.6511 27.0113 43.0634 26.5001 43.0634ZM119.918 42.5222C119.639 42.5222 119.364 42.3984 119.183 42.1609C118.998 41.9197 118.794 41.6886 118.579 41.4742L116.43 39.3385C116.069 38.9798 116.069 38.3977 116.43 38.039C116.791 37.6803 117.377 37.6803 117.737 38.039L119.886 40.1746C120.159 40.4465 120.418 40.7389 120.653 41.044C120.962 41.4474 120.885 42.0243 120.48 42.332C120.314 42.4596 120.116 42.5209 119.919 42.5209L119.918 42.5222ZM113.478 36.0233C113.241 36.0233 113.005 35.934 112.824 35.754L109.94 32.8869C109.579 32.5282 109.579 31.9461 109.94 31.5873C110.3 31.2286 110.886 31.2286 111.247 31.5873L114.131 34.4545C114.492 34.8132 114.492 35.3953 114.131 35.754C113.952 35.934 113.714 36.0233 113.478 36.0233ZM26.6324 33.9477C26.5849 33.9477 26.5374 33.9438 26.4886 33.9362C25.9839 33.8583 25.6397 33.3885 25.7181 32.8869C25.9466 31.4278 26.4449 30.0427 27.1962 28.7675C27.4543 28.3296 28.0207 28.1828 28.4611 28.4394C28.9016 28.696 29.0493 29.2589 28.7912 29.6968C28.1568 30.7716 27.7381 31.9409 27.5442 33.1703C27.4736 33.6234 27.0793 33.9477 26.6324 33.9477ZM106.988 29.573C106.752 29.573 106.516 29.4836 106.335 29.3036L103.811 26.7952C103.706 26.6905 103.594 26.5871 103.483 26.4888C103.099 26.1544 103.061 25.5736 103.398 25.1919C103.734 24.8102 104.319 24.7732 104.703 25.1076C104.845 25.2327 104.985 25.3629 105.12 25.4957L107.643 28.0041C108.004 28.3628 108.004 28.9449 107.643 29.3036C107.464 29.4836 107.226 29.573 106.99 29.573H106.988ZM31.4842 26.5208C31.1811 26.5208 30.8857 26.3727 30.7085 26.102C30.4311 25.677 30.5518 25.1076 30.9808 24.8306C32.229 24.0251 33.598 23.4685 35.0517 23.1749C35.5513 23.0741 36.0393 23.3945 36.142 23.8924C36.2435 24.3902 35.9212 24.874 35.4203 24.9761C34.1952 25.2238 33.0394 25.6936 31.9876 26.3727C31.8322 26.4735 31.6576 26.5208 31.4855 26.5208H31.4842ZM99.4707 24.7961C99.4488 24.7961 99.4257 24.7961 99.4039 24.7936C99.2395 24.7821 99.0713 24.7757 98.9056 24.7757H95.3907C94.8796 24.7757 94.4661 24.3647 94.4661 23.8566C94.4661 23.3485 94.8796 22.9375 95.3907 22.9375H98.9056C99.1149 22.9375 99.3268 22.9452 99.5362 22.9605C100.045 22.9962 100.429 23.4366 100.391 23.9421C100.357 24.4259 99.951 24.7949 99.4707 24.7949V24.7961ZM90.2924 24.7757H86.2124C85.7013 24.7757 85.2878 24.3647 85.2878 23.8566C85.2878 23.3485 85.7013 22.9375 86.2124 22.9375H90.2924C90.8035 22.9375 91.217 23.3485 91.217 23.8566C91.217 24.3647 90.8035 24.7757 90.2924 24.7757ZM81.1128 24.7757H77.0328C76.523 24.7757 76.1082 24.3647 76.1082 23.8566C76.1082 23.3485 76.5217 22.9375 77.0328 22.9375H81.1128C81.6226 22.9375 82.0374 23.3485 82.0374 23.8566C82.0374 24.3647 81.6239 24.7757 81.1128 24.7757ZM71.9345 24.7757H67.8545C67.3447 24.7757 66.9299 24.3647 66.9299 23.8566C66.9299 23.3485 67.3434 22.9375 67.8545 22.9375H71.9345C72.4443 22.9375 72.8591 23.3485 72.8591 23.8566C72.8591 24.3647 72.4456 24.7757 71.9345 24.7757ZM62.7562 24.7757H58.6762C58.1664 24.7757 57.7516 24.3647 57.7516 23.8566C57.7516 23.3485 58.1651 22.9375 58.6762 22.9375H62.7562C63.266 22.9375 63.6808 23.3485 63.6808 23.8566C63.6808 24.3647 63.2673 24.7757 62.7562 24.7757ZM53.5779 24.7757H49.4979C48.9881 24.7757 48.5733 24.3647 48.5733 23.8566C48.5733 23.3485 48.9868 22.9375 49.4979 22.9375H53.5779C54.0877 22.9375 54.5025 23.3485 54.5025 23.8566C54.5025 24.3647 54.089 24.7757 53.5779 24.7757ZM44.3996 24.7757H40.3196C39.8098 24.7757 39.395 24.3647 39.395 23.8566C39.395 23.3485 39.8085 22.9375 40.3196 22.9375H44.3996C44.9094 22.9375 45.3242 23.3485 45.3242 23.8566C45.3242 24.3647 44.9107 24.7757 44.3996 24.7757Z"
            fill="#00549A" />
        <path
            d="M141.364 140.579L140.455 141.338L135.639 145.356L132.675 141.848L132.24 141.329L131.802 140.811L126.337 134.338L125.899 133.82L125.459 133.299L120.667 127.623L120.227 127.102L119.789 126.584C119.977 126.458 120.164 126.329 120.352 126.2C121.181 125.616 121.989 124.997 122.775 124.342C123.566 123.685 124.319 123 125.033 122.29C125.196 122.13 125.355 121.967 125.512 121.805L125.953 122.328L126.391 122.849L131.185 128.524L131.623 129.043L132.064 129.564L137.528 136.037L137.963 136.555L138.401 137.071L140.601 139.675L141.363 140.579H141.364Z"
            fill="#00549A" />
        <path
            d="M156.613 177.819L130.158 146.48C129.225 145.375 129.37 143.727 130.482 142.8L139.727 135.088C140.839 134.16 142.497 134.304 143.429 135.41L169.884 166.749C172.069 169.337 171.728 173.194 169.125 175.366L165.28 178.574C162.677 180.745 158.796 180.407 156.612 177.819H156.613Z"
            fill="#00549A" />
        <path
            d="M134.411 68.5084C118.432 49.5773 90.0427 47.1085 70.9978 62.9925C51.9554 78.8765 49.4691 107.096 65.4512 126.027C80.4714 143.821 106.459 147.071 125.343 134.199C125.531 134.073 125.718 133.944 125.903 133.812C126.088 133.684 126.273 133.549 126.457 133.418C127.273 132.823 128.077 132.196 128.866 131.541C129.652 130.884 130.41 130.206 131.14 129.508C131.303 129.352 131.468 129.198 131.628 129.034C131.791 128.876 131.951 128.716 132.109 128.554C148.138 112.307 149.434 86.3008 134.411 68.5071V68.5084ZM77.0798 70.1985C92.0975 57.6744 114.564 59.6288 127.163 74.5554C138.801 88.3408 138.01 108.45 125.988 121.306C125.834 121.471 125.677 121.635 125.517 121.799C125.36 121.961 125.202 122.124 125.038 122.284C124.324 122.994 123.571 123.679 122.78 124.337C121.994 124.992 121.186 125.611 120.357 126.194C120.169 126.323 119.982 126.452 119.794 126.578C119.604 126.705 119.414 126.83 119.224 126.954C112.61 131.218 104.81 133.164 96.8324 132.471C87.3728 131.646 78.802 127.211 72.6981 119.98C60.0986 105.056 62.0622 82.7227 77.0785 70.1985H77.0798Z"
            fill="#212427" />
        <path
            d="M143.611 83.9166C141.816 78.102 138.894 72.7737 134.93 68.0785C130.963 63.3834 126.194 59.5972 120.746 56.8309C115.486 54.1566 109.822 52.5418 103.911 52.0273C97.9999 51.5141 92.1387 52.1256 86.492 53.8502C80.645 55.6348 75.2846 58.539 70.56 62.4796C65.8341 66.4203 62.0251 71.1665 59.2447 76.579C56.5543 81.8078 54.9298 87.4373 54.4122 93.3132C53.8934 99.1891 54.5111 105.015 56.2461 110.628C58.0414 116.44 60.963 121.769 64.9274 126.466C68.8918 131.161 73.6639 134.945 79.1116 137.714C84.3717 140.386 90.0352 142.001 95.9464 142.515C97.2948 142.635 98.6433 142.692 99.9853 142.692C104.521 142.692 109.008 142.023 113.366 140.692C117.806 139.338 121.965 137.337 125.78 134.726C125.968 134.599 126.152 134.47 126.337 134.336C126.522 134.207 126.707 134.076 126.891 133.942C127.71 133.344 128.514 132.719 129.298 132.064C130.083 131.409 130.841 130.732 131.574 130.035C131.74 129.88 131.903 129.723 132.065 129.562C132.226 129.404 132.387 129.244 132.545 129.082C135.796 125.804 138.5 122.078 140.613 117.967C143.303 112.736 144.928 107.106 145.445 101.23C145.962 95.3544 145.344 89.5283 143.611 83.9179V83.9166ZM144.092 101.113C143.188 111.37 138.82 120.782 131.669 128.044C131.51 128.204 131.35 128.364 131.187 128.522C131.026 128.681 130.862 128.839 130.699 128.995C129.968 129.697 129.208 130.374 128.424 131.029C127.636 131.686 126.833 132.309 126.013 132.903C125.83 133.037 125.647 133.168 125.459 133.297C125.274 133.429 125.087 133.557 124.899 133.684C117.348 138.809 108.636 141.321 99.9622 141.321C87.2998 141.319 74.7221 135.971 65.9663 125.597C50.2539 106.984 52.7055 79.1321 71.4307 63.5136C79.4892 56.7939 89.456 53.2005 99.8517 53.2005C101.156 53.2005 102.472 53.2579 103.792 53.3728C115.589 54.4004 126.274 59.9304 133.887 68.9466C141.499 77.9628 145.122 89.3879 144.09 101.114L144.092 101.113Z"
            fill="#00549A" />
        <path
            d="M127.683 74.1213C114.821 58.8871 91.9737 56.8995 76.6453 69.6841C61.3169 82.4661 59.3199 105.182 72.1788 120.416C84.0783 134.516 104.532 137.268 119.663 127.476C119.855 127.352 120.043 127.224 120.233 127.098C120.42 126.971 120.608 126.845 120.793 126.711C121.62 126.133 122.428 125.514 123.219 124.856C124.007 124.199 124.76 123.513 125.479 122.806C125.639 122.646 125.801 122.483 125.959 122.324C126.118 122.159 126.274 121.997 126.431 121.831C138.76 108.718 139.583 88.2207 127.683 74.1213ZM125.989 121.307C125.835 121.472 125.678 121.637 125.517 121.8C125.361 121.962 125.203 122.126 125.038 122.285C124.324 122.995 123.572 123.68 122.781 124.338C121.995 124.993 121.187 125.612 120.357 126.195C120.17 126.324 119.982 126.453 119.795 126.58C119.605 126.706 119.415 126.831 119.225 126.955C112.611 131.22 104.811 133.165 96.8332 132.472C87.3736 131.647 78.8028 127.213 72.6989 119.981C60.0994 105.057 62.063 82.7239 77.0793 70.1998C92.097 57.6756 114.563 59.63 127.163 74.5566C138.8 88.342 138.009 108.451 125.987 121.307H125.989Z"
            fill="#FCFCFC" />
        <path
            d="M128.205 73.6871C121.868 66.1785 112.968 61.5765 103.148 60.7212C93.3273 59.866 83.7611 62.8646 76.2087 69.1643C68.6575 75.464 64.0253 84.3105 63.1674 94.0722C62.307 103.834 65.3236 113.345 71.6612 120.85C77.9989 128.356 86.8959 132.961 96.7163 133.815C97.8156 133.91 98.9085 133.958 99.9975 133.958C107.18 133.958 114.119 131.897 120.107 127.995C120.297 127.871 120.487 127.746 120.675 127.617C120.862 127.491 121.05 127.362 121.235 127.23C122.064 126.647 122.872 126.027 123.658 125.372C124.444 124.717 125.199 124.034 125.921 123.324C126.081 123.166 126.243 123.004 126.4 122.844C126.56 122.682 126.72 122.517 126.874 122.354C132.523 116.385 135.971 108.755 136.702 100.468C137.56 90.7059 134.546 81.1944 128.208 73.6896L128.205 73.6871ZM96.8345 132.471C87.3749 131.646 78.8041 127.211 72.7002 119.98C60.1007 105.056 62.0643 82.7224 77.0806 70.1983C92.0983 57.6741 114.564 59.6285 127.164 74.5551C138.801 88.3405 138.01 108.45 125.989 121.306C125.835 121.471 125.678 121.635 125.517 121.799C125.361 121.961 125.203 122.124 125.038 122.284C124.324 122.993 123.572 123.679 122.781 124.336C121.995 124.991 121.187 125.61 120.357 126.194C120.17 126.323 119.982 126.452 119.795 126.578C119.605 126.704 119.415 126.829 119.225 126.953C112.611 131.218 104.811 133.164 96.8332 132.471H96.8345Z"
            fill="#00549A" />
        <path
            d="M125.986 121.312C125.832 121.477 125.676 121.641 125.515 121.805C125.358 121.967 125.201 122.13 125.036 122.29C124.322 123 123.57 123.685 122.778 124.343C121.993 124.997 121.185 125.617 120.355 126.2C120.168 126.329 119.98 126.458 119.793 126.584C119.603 126.711 119.413 126.836 119.222 126.96C112.609 131.224 104.808 133.17 96.8309 132.477C87.3713 131.652 78.8005 127.217 72.6966 119.986C60.0971 105.062 62.0607 82.7286 77.077 70.2045C92.0947 57.6803 114.561 59.6347 127.16 74.5613C138.798 88.3467 138.007 108.456 125.985 121.312H125.986Z"
            fill="#161616" />
        <path
            d="M162.912 166.5C162.579 166.5 162.248 166.362 162.013 166.091L140.466 141.354C140.036 140.86 140.09 140.115 140.587 139.687C141.084 139.259 141.834 139.313 142.264 139.807L163.811 164.544C164.241 165.038 164.187 165.783 163.69 166.211C163.465 166.405 163.188 166.5 162.912 166.5Z"
            fill="#161616" />
        <path
            d="M67.3334 72.732C67.1459 72.732 66.9571 72.672 66.7979 72.5482C66.4203 72.2546 66.3535 71.7108 66.6502 71.3355C69.4395 67.7944 72.7746 64.7358 76.5618 62.244C80.2937 59.7879 84.375 57.9408 88.6899 56.7536C97.6641 54.2847 106.989 54.8017 115.656 58.251C116.102 58.4284 116.319 58.9314 116.14 59.3743C115.962 59.8173 115.456 60.033 115.01 59.8556C98.3768 53.2393 79.0532 58.3978 68.0179 72.4027C67.8471 72.6197 67.5915 72.7333 67.3334 72.7333V72.732Z"
            fill="#161616" />
        <path
            d="M61.4823 82.8422C61.3744 82.8422 61.2652 82.8217 61.1599 82.7796C60.7143 82.6022 60.4973 82.0992 60.6758 81.6563C61.5799 79.4095 62.6804 77.2356 63.9467 75.1918C64.1984 74.7859 64.7339 74.6595 65.1423 74.9097C65.5507 75.1599 65.6778 75.6923 65.4261 76.0982C64.2125 78.0577 63.1569 80.1435 62.29 82.2996C62.1539 82.6366 61.8277 82.8422 61.4835 82.8422H61.4823Z"
            fill="#161616" />
        <path
            d="M26.7957 16.5504C26.2859 16.5504 25.8711 16.1393 25.8711 15.6312V0.91911C25.8711 0.412323 26.2846 0 26.7957 0C27.3068 0 27.7204 0.411046 27.7204 0.91911V15.6325C27.7204 16.1393 27.3068 16.5516 26.7957 16.5516V16.5504Z"
            fill="#00549A" />
        <path
            d="M20.4102 19.1792C20.1739 19.1792 19.9376 19.0899 19.7566 18.9099L9.29018 8.50605C8.92931 8.14734 8.92931 7.56524 9.29018 7.20653C9.65105 6.84782 10.2366 6.84782 10.5975 7.20653L21.0639 17.6103C21.4248 17.9691 21.4248 18.5512 21.0639 18.9099C20.8828 19.0899 20.6465 19.1792 20.4102 19.1792Z"
            fill="#00549A" />
        <path
            d="M17.7656 25.5257H2.9637C2.45386 25.5257 2.03906 25.1147 2.03906 24.6066C2.03906 24.0985 2.45258 23.6875 2.9637 23.6875H17.7656C18.2754 23.6875 18.6902 24.0985 18.6902 24.6066C18.6902 25.1147 18.2767 25.5257 17.7656 25.5257Z"
            fill="#00549A" />
        <path
            d="M100.262 105.842C98.5897 105.842 97.6369 104.74 97.4031 102.537L97.0538 97.3185C96.9755 96.236 97.2002 95.3961 97.7242 94.7961C98.2494 94.1974 99.0366 93.7621 100.087 93.4915C101.798 93.0664 103.12 92.3809 104.054 91.4324C104.988 90.4852 105.454 89.2393 105.454 87.6922C105.454 85.9918 104.997 84.6476 104.084 83.6621C103.169 82.6766 101.876 82.1839 100.204 82.1839C98.1043 82.1839 96.5671 82.9766 95.5949 84.5608C94.8552 85.6433 94.1951 86.339 93.6108 86.6479C93.0278 86.9581 92.2496 87.0347 91.2774 86.8803C90.1884 86.6875 89.3614 86.2331 88.7976 85.5182C88.2338 84.8033 88.2043 83.9238 88.7103 82.8796C89.7209 80.8307 91.2273 79.207 93.232 78.0083C95.2341 76.8109 97.5585 76.2109 100.203 76.2109C102.613 76.2109 104.742 76.6654 106.59 77.573C108.437 78.4819 109.886 79.7967 110.936 81.5162C111.987 83.237 112.511 85.2961 112.511 87.6922C112.511 90.438 111.664 92.6604 109.973 94.3608C108.282 96.0624 106.036 97.2598 103.235 97.9555L103.001 102.537C102.806 104.74 101.893 105.842 100.259 105.842H100.262ZM100.203 118.31C98.9968 118.31 97.9566 117.885 97.0821 117.035C96.2075 116.185 95.7696 115.159 95.7696 113.961C95.7696 112.762 96.2075 111.68 97.0821 110.829C97.9566 109.979 98.9968 109.554 100.203 109.554C101.409 109.554 102.507 109.981 103.382 110.829C104.257 111.68 104.695 112.724 104.695 113.961C104.695 115.198 104.257 116.185 103.382 117.035C102.508 117.885 101.447 118.31 100.203 118.31Z"
            fill="#00549A" />
    </g>
    <defs>
        <clipPath id="clip0_1364_9870">
            <rect width="190" height="180" fill="white" />
        </clipPath>
    </defs>
</svg>
