<svg width="24" height="24" viewBox="0 0 24 24" fill="none" xmlns="http://www.w3.org/2000/svg">
<path d="M12 0C5.38372 0 0 5.38223 0 11.9993C0 18.6163 5.38372 23.9985 12 23.9985C18.6163 23.9985 24 18.6163 24 11.9993C24 5.38223 18.6163 0 12 0Z" fill="#DDAD00"/>
<path d="M16.1835 15C15.7421 15.7604 15.1087 16.3916 14.3468 16.8303C13.5848 17.2691 12.721 17.5 11.8417 17.5C10.9625 17.5 10.0987 17.2691 9.33671 16.8303C8.57475 16.3916 7.94139 15.7604 7.5 15" stroke="white" stroke-linecap="round" stroke-linejoin="round"/>
<path d="M9.66667 9.4087C9.66667 10.1856 9.06867 10.8174 8.33333 10.8174C7.598 10.8174 7 10.1856 7 9.4087C7 8.6318 7.598 8 8.33333 8C9.06867 8 9.66667 8.6318 9.66667 9.4087Z" fill="#DDAD00"/>
<path d="M17 9.4087C17 10.1856 16.402 10.8174 15.6667 10.8174C14.9313 10.8174 14.3333 10.1856 14.3333 9.4087C14.3333 8.6318 14.9313 8 15.6667 8C16.402 8 17 8.6318 17 9.4087Z" fill="#DDAD00"/>
<path d="M9.66667 9.4087C9.66667 10.1856 9.06867 10.8174 8.33333 10.8174C7.598 10.8174 7 10.1856 7 9.4087C7 8.6318 7.598 8 8.33333 8C9.06867 8 9.66667 8.6318 9.66667 9.4087Z" stroke="white" stroke-linecap="round"/>
<path d="M17 9.4087C17 10.1856 16.402 10.8174 15.6667 10.8174C14.9313 10.8174 14.3333 10.1856 14.3333 9.4087C14.3333 8.6318 14.9313 8 15.6667 8C16.402 8 17 8.6318 17 9.4087Z" stroke="white" stroke-linecap="round"/>
</svg>
