<svg width="150" height="145" viewBox="0 0 150 145" fill="none" xmlns="http://www.w3.org/2000/svg">
<g clip-path="url(#clip0_519_121219)">
<path d="M150 69.5618C150 107.98 118.856 139.124 80.4378 139.124C42.0199 139.124 10.876 107.98 10.876 69.5618C10.876 31.1439 42.0199 0 80.4378 0C118.856 0 150 31.1439 150 69.5618Z" fill="#595959"/>
<path d="M98.4289 119.981C97.6476 123.268 95.1692 126.052 91.6926 127.062L33.023 144.109C27.8759 145.604 22.4922 142.643 20.997 137.497L0.387851 66.5608C-1.10736 61.4147 1.85236 56.03 6.99845 54.5348L43.6914 43.8742L65.668 37.4894C70.8151 35.9942 76.1988 38.9539 77.694 44.101L98.3031 115.036C98.7883 116.707 98.8052 118.402 98.4289 119.981Z" fill="#E6E6E6"/>
<path d="M98.4295 119.981L49.2094 117.158C43.8583 116.851 39.7698 112.266 40.0768 106.915L43.692 43.8742L65.6686 37.4894C70.8156 35.9942 76.1994 38.9539 77.6946 44.101L98.3037 115.036C98.7889 116.707 98.8057 118.402 98.4295 119.981Z" fill="#B2B2B2"/>
<path d="M110.887 116.152H49.7919C44.4329 116.152 40.0879 111.807 40.0879 106.448V32.579C40.0879 27.22 44.4329 22.875 49.7919 22.875H110.887C116.246 22.875 120.591 27.22 120.591 32.579V106.448C120.591 111.807 116.246 116.152 110.887 116.152Z" fill="white"/>
<path d="M100.664 88.6906L101.267 89.4095C101.188 89.4907 101.108 89.5719 101.026 89.6531C100.487 90.1918 99.9197 90.7116 99.3236 91.2107C98.7304 91.7068 98.1215 92.1771 97.4957 92.6197C97.3541 92.7168 97.2125 92.8148 97.0709 92.9108C97.0233 92.9425 96.9758 92.9752 96.9273 93.0059L96.347 92.3138L96.0153 91.9187L95.6846 91.5246C95.8262 91.4285 95.9678 91.3305 96.1094 91.2334C96.7352 90.7908 97.3442 90.3205 97.9373 89.8244C98.5334 89.3253 99.1008 88.8055 99.6394 88.2668C99.7632 88.145 99.883 88.0222 100.001 87.8984L100.335 88.2955L100.664 88.6906Z" fill="#E6E6E6"/>
<path d="M111.955 102.147L111.269 102.723L107.638 105.771L105.402 103.109L105.073 102.716L104.743 102.322L101.538 98.5018C101.585 98.4691 101.631 98.4364 101.678 98.4028C101.817 98.3047 101.957 98.2037 102.096 98.1037C102.711 97.6522 103.317 97.1769 103.912 96.6808C104.505 96.1817 105.076 95.6668 105.628 95.1371C105.71 95.0589 105.792 94.9796 105.873 94.8984L109.063 98.6998L109.39 99.0929L109.721 99.4841L111.38 101.461L111.955 102.147Z" fill="#E6E6E6"/>
<path d="M123.456 130.403L103.502 106.624C102.798 105.785 102.908 104.534 103.747 103.83L110.72 97.9791C111.558 97.276 112.809 97.3849 113.512 98.2237L133.466 122.003C135.113 123.967 134.857 126.894 132.893 128.541L129.993 130.975C128.03 132.622 125.103 132.366 123.456 130.403Z" fill="#B2B2B2"/>
<path d="M106.638 95.8059C106.557 95.8871 106.475 95.9663 106.393 96.0446C105.841 96.5743 105.27 97.0892 104.676 97.5883C104.082 98.0844 103.476 98.5597 102.861 99.0112C102.721 99.1112 102.582 99.2122 102.442 99.3103C102.396 99.3439 102.349 99.3766 102.304 99.4093L100.622 97.4061L100.291 97.012L99.9598 96.6169L96.9268 93.0027C96.9753 92.972 97.0228 92.9393 97.0703 92.9076C97.2119 92.8116 97.3535 92.7135 97.4951 92.6165C98.1209 92.1739 98.7299 91.7035 99.3231 91.2074C99.9192 90.7084 100.487 90.1885 101.025 89.6498C101.107 89.5686 101.188 89.4874 101.267 89.4062L104.279 92.9938L104.609 93.3879L104.941 93.783L106.638 95.8059Z" fill="#B2B2B2"/>
<path d="M63.4666 48.7471C74.7936 39.2441 91.7389 40.7274 101.242 52.0524C110.02 62.5129 109.423 77.771 100.356 87.5264C100.239 87.6512 100.121 87.777 100 87.8997C99.8823 88.0235 99.7625 88.1463 99.6387 88.2681C99.1001 88.8068 98.5327 89.3266 97.9366 89.8257C97.3435 90.3228 96.7345 90.7921 96.1087 91.2347C95.9671 91.3318 95.8255 91.4298 95.6839 91.5259C95.5413 91.6219 95.3977 91.717 95.2541 91.811C90.2665 95.047 84.3827 96.5234 78.3662 95.9976C71.2308 95.3718 64.7668 92.0071 60.1633 86.5194C50.6603 75.1964 52.1417 58.2501 63.4666 48.7471ZM106.709 47.4648C94.656 33.0999 73.2439 31.2274 58.879 43.2802C44.5161 55.3329 42.6416 76.7451 54.6954 91.109C66.0243 104.61 85.6254 107.077 99.8685 97.3106C100.01 97.2146 100.151 97.1166 100.29 97.0165C100.43 96.9185 100.57 96.8175 100.708 96.7175C101.324 96.266 101.93 95.7907 102.524 95.2946C103.117 94.7955 103.689 94.2806 104.24 93.7509C104.363 93.633 104.487 93.5152 104.608 93.3924C104.731 93.2726 104.851 93.1508 104.971 93.028C117.061 80.699 118.039 60.9662 106.708 47.4648H106.709Z" fill="#E6E6E6"/>
<path d="M100.356 87.5256C100.24 87.6503 100.122 87.7761 100.001 87.8989C99.8831 88.0226 99.7633 88.1454 99.6395 88.2672C99.1008 88.8059 98.5334 89.3257 97.9373 89.8248C97.3442 90.3219 96.7352 90.7912 96.1094 91.2339C95.9678 91.3309 95.8262 91.4289 95.6846 91.525C95.542 91.621 95.3984 91.7161 95.2549 91.8102C90.2672 95.0461 84.3834 96.5225 78.3669 95.9967C71.2315 95.3709 64.7675 92.0062 60.164 86.5185C50.661 75.1955 52.1424 58.2492 63.4673 48.7462C74.7943 39.2432 91.7396 40.7266 101.243 52.0515C110.021 62.512 109.424 77.7701 100.356 87.5256ZM101.635 51.7218C91.9337 40.1621 74.7002 38.6541 63.1396 48.3541C51.578 58.0531 50.0719 75.2896 59.7709 86.8492C68.7461 97.5474 84.1725 99.6357 95.5866 92.2052C95.7311 92.1112 95.8727 92.0151 96.0163 91.9191C96.1579 91.823 96.2985 91.727 96.4381 91.625C97.062 91.1863 97.6719 90.717 98.2681 90.2179C98.8632 89.7198 99.4305 89.199 99.9722 88.6623C100.094 88.5405 100.216 88.4177 100.336 88.2959C100.454 88.1712 100.572 88.0474 100.691 87.9226C109.991 77.9731 110.611 62.4189 101.636 51.7208L101.635 51.7218Z" fill="#E6E6E6"/>
<path d="M100.356 87.5245C100.24 87.6493 100.122 87.7751 100.001 87.8978C99.883 88.0216 99.7632 88.1444 99.6395 88.2662C99.1008 88.8049 98.5334 89.3247 97.9373 89.8238C97.3442 90.3209 96.7352 90.7902 96.1094 91.2329C95.9678 91.3299 95.8262 91.4279 95.6846 91.524C95.542 91.62 95.3984 91.7151 95.2548 91.8092C90.2672 95.0451 84.3834 96.5215 78.3669 95.9957C71.2315 95.3699 64.7675 92.0052 60.164 86.5175C50.661 75.1945 52.1424 58.2482 63.4673 48.7452C74.7943 39.2422 91.7396 40.7255 101.243 52.0505C110.021 62.511 109.424 77.7691 100.356 87.5245Z" fill="white"/>
<path d="M128.208 121.814C127.956 121.814 127.707 121.709 127.529 121.504L111.277 102.734C110.953 102.359 110.994 101.793 111.368 101.469C111.743 101.145 112.309 101.185 112.634 101.56L128.885 120.33C129.21 120.704 129.168 121.27 128.794 121.595C128.625 121.742 128.416 121.814 128.208 121.814Z" fill="white"/>
<path d="M56.1171 50.6645C55.9755 50.6645 55.833 50.619 55.7131 50.5249C55.428 50.3011 55.3785 49.8892 55.6012 49.605C57.7054 46.9186 60.2205 44.5976 63.0763 42.7063C65.8914 40.8427 68.969 39.4406 72.2248 38.5395C78.9938 36.666 86.0262 37.0591 92.5646 39.6753C92.9002 39.8099 93.0636 40.1912 92.9289 40.5268C92.7943 40.8625 92.4131 41.0259 92.0774 40.8922C79.5315 35.8719 64.9567 39.7862 56.634 50.412C56.5043 50.5774 56.3122 50.6635 56.1171 50.6635V50.6645Z" fill="white"/>
<path d="M51.7035 58.3351C51.6223 58.3351 51.5401 58.3203 51.4599 58.2886C51.1242 58.1539 50.9608 57.7727 51.0945 57.436C51.7768 55.7319 52.6065 54.0812 53.5611 52.5306C53.7512 52.2226 54.1542 52.1266 54.4632 52.3157C54.7711 52.5058 54.8672 52.9088 54.678 53.2178C53.7631 54.705 52.967 56.2874 52.3124 57.9232C52.2095 58.1797 51.9639 58.3351 51.7035 58.3351Z" fill="white"/>
<path d="M89.7897 83.0735C89.0233 83.6013 88.1757 83.7845 87.2459 83.6251C86.3171 83.4647 85.5873 83.0022 85.0605 82.2358C84.5159 81.4466 84.3337 80.5881 84.5149 79.6623C84.6961 78.7365 85.1694 78.0086 85.9349 77.4819C86.725 76.9373 87.5855 76.7452 88.5153 76.9046C89.4451 77.065 90.1818 77.5403 90.7265 78.3305C91.2542 79.0959 91.4275 79.9425 91.2463 80.8674C91.0651 81.7932 90.5789 82.5289 89.7897 83.0735ZM84.3377 75.0856C83.2762 75.8173 82.1869 75.5302 81.068 74.2251L78.5489 71.0455C78.0222 70.389 77.7944 69.7533 77.8637 69.1414C77.934 68.5294 78.242 67.9066 78.7896 67.2739C79.6887 66.2539 80.2263 65.237 80.4016 64.223C80.5779 63.2101 80.3254 62.21 79.6441 61.2217C78.8955 60.1355 78.0132 59.477 77.0003 59.2473C75.9853 59.0175 74.9476 59.269 73.8861 60.0008C72.5533 60.9197 71.9265 62.0991 72.0067 63.5358C72.0136 64.5508 71.9007 65.2845 71.666 65.7371C71.4323 66.1906 70.9719 66.5797 70.2867 66.9065C69.5104 67.26 68.7855 67.3313 68.1132 67.1214C67.4398 66.9114 67.0349 66.3629 66.8962 65.4747C66.6358 63.724 66.8774 62.0278 67.622 60.385C68.3657 58.7433 69.5767 57.3441 71.2561 56.1865C72.7869 55.132 74.3386 54.4903 75.911 54.2616C77.4835 54.0338 78.9826 54.2398 80.4056 54.8785C81.8305 55.5182 83.0692 56.6034 84.1248 58.1333C85.3328 59.8869 85.7745 61.6762 85.4497 63.5032C85.1239 65.3301 84.2258 67.0778 82.7543 68.7473L84.6228 71.7753C85.4695 73.2686 85.3744 74.3716 84.3367 75.0866L84.3377 75.0856Z" fill="#F2F2F2"/>
</g>
<defs>
<clipPath id="clip0_519_121219">
<rect width="150" height="144.499" fill="white"/>
</clipPath>
</defs>
</svg>
