<svg width="150" height="145" viewBox="0 0 150 145" fill="none" xmlns="http://www.w3.org/2000/svg">
<g clip-path="url(#clip0_3836_14372)">
<path d="M150 69.5618C150 107.98 118.856 139.124 80.4381 139.124C42.0202 139.124 10.8763 107.98 10.8763 69.5618C10.8763 31.1439 42.0202 0 80.4381 0C118.856 0 150 31.1439 150 69.5618Z" fill="#F2F2F2"/>
<path d="M98.4293 119.984C97.648 123.271 95.1695 126.055 91.6929 127.065L33.0233 144.112C27.8763 145.607 22.4925 142.646 20.9973 137.5L0.388217 66.5637C-1.10699 61.4176 1.85273 56.0329 6.99882 54.5377L43.6918 43.8772L65.6684 37.4923C70.8155 35.9971 76.1992 38.9568 77.6944 44.1039L98.3035 115.039C98.7887 116.71 98.8055 118.405 98.4293 119.984Z" fill="#E6E6E6"/>
<path d="M98.4292 119.984L49.2092 117.161C43.8581 116.854 39.7696 112.269 40.0765 106.917L43.6917 43.8772L65.6683 37.4923C70.8154 35.9971 76.1991 38.9568 77.6944 44.1039L98.3035 115.039C98.7887 116.71 98.8055 118.405 98.4292 119.984Z" fill="#B2B2B2"/>
<path d="M110.887 116.151H49.7914C44.4324 116.151 40.0874 111.806 40.0874 106.447V32.578C40.0874 27.219 44.4324 22.874 49.7914 22.874H110.887C116.246 22.874 120.591 27.219 120.591 32.578V106.447C120.591 111.806 116.246 116.151 110.887 116.151Z" fill="white"/>
<path d="M100.664 88.6896L101.267 89.4085C101.188 89.4897 101.108 89.5709 101.025 89.6521C100.487 90.1908 99.9194 90.7106 99.3233 91.2097C98.7302 91.7058 98.1212 92.1761 97.4954 92.6188C97.3538 92.7158 97.2122 92.8138 97.0706 92.9099C97.0231 92.9416 96.9756 92.9742 96.927 93.0049L96.3468 92.3128L96.0151 91.9177L95.6843 91.5236C95.8259 91.4275 95.9675 91.3295 96.1091 91.2325C96.7349 90.7898 97.3439 90.3195 97.937 89.8234C98.5331 89.3243 99.1005 88.8045 99.6392 88.2658C99.763 88.144 99.8828 88.0212 100.001 87.8975L100.334 88.2945L100.664 88.6896Z" fill="#E6E6E6"/>
<path d="M111.955 102.145L111.269 102.721L107.638 105.769L105.402 103.107L105.073 102.714L104.744 102.32L101.538 98.4998C101.585 98.4672 101.632 98.4345 101.678 98.4008C101.818 98.3028 101.957 98.2018 102.096 98.1018C102.712 97.6502 103.318 97.1749 103.912 96.6789C104.505 96.1798 105.076 95.6649 105.628 95.1351C105.71 95.0569 105.792 94.9777 105.874 94.8965L109.063 98.6979L109.391 99.091L109.721 99.4821L111.38 101.459L111.955 102.145Z" fill="#E6E6E6"/>
<path d="M123.456 130.4L103.502 106.621C102.798 105.782 102.908 104.531 103.747 103.827L110.72 97.9761C111.558 97.2731 112.809 97.382 113.512 98.2207L133.466 122C135.113 123.964 134.857 126.891 132.893 128.538L129.993 130.972C128.03 132.619 125.103 132.363 123.456 130.4Z" fill="#B2B2B2"/>
<path d="M106.638 95.8079C106.558 95.8891 106.476 95.9683 106.393 96.0465C105.841 96.5763 105.271 97.0912 104.676 97.5903C104.082 98.0863 103.476 98.5616 102.861 99.0132C102.722 99.1132 102.582 99.2142 102.443 99.3122C102.396 99.3459 102.349 99.3786 102.304 99.4112L100.623 97.4081L100.292 97.014L99.9601 96.6189L96.9271 93.0046C96.9756 92.9739 97.0232 92.9412 97.0707 92.9096C97.2123 92.8135 97.3539 92.7155 97.4955 92.6184C98.1213 92.1758 98.7303 91.7055 99.3234 91.2094C99.9195 90.7103 100.487 90.1905 101.026 89.6518C101.108 89.5706 101.188 89.4894 101.267 89.4082L104.279 92.9957L104.609 93.3898L104.942 93.7849L106.638 95.8079Z" fill="#B2B2B2"/>
<path d="M63.4671 48.7451C74.794 39.2422 91.7394 40.7255 101.242 52.0504C110.021 62.511 109.423 77.769 100.356 87.5245C100.239 87.6493 100.121 87.775 100.001 87.8978C99.8828 88.0216 99.763 88.1444 99.6392 88.2661C99.1006 88.8048 98.5332 89.3247 97.9371 89.8237C97.3439 90.3208 96.735 90.7902 96.1092 91.2328C95.9676 91.3298 95.826 91.4279 95.6844 91.5239C95.5418 91.62 95.3982 91.715 95.2546 91.8091C90.267 95.0451 84.3832 96.5215 78.3667 95.9957C71.2313 95.3699 64.7672 92.0052 60.1638 86.5174C50.6608 75.1945 52.1421 58.2481 63.4671 48.7451ZM106.709 47.4628C94.6565 33.0979 73.2444 31.2255 58.8795 43.2782C44.5166 55.331 42.6421 76.7431 54.6959 91.107C66.0248 104.608 85.6259 107.075 99.869 97.3087C100.011 97.2126 100.151 97.1146 100.291 97.0146C100.43 96.9166 100.57 96.8156 100.709 96.7155C101.325 96.264 101.931 95.7887 102.525 95.2926C103.118 94.7936 103.689 94.2787 104.241 93.7489C104.363 93.6311 104.487 93.5132 104.608 93.3904C104.732 93.2706 104.852 93.1488 104.971 93.0261C117.062 80.697 118.039 60.9643 106.708 47.4628H106.709Z" fill="#E6E6E6"/>
<path d="M100.356 87.5246C100.239 87.6493 100.121 87.7751 100.001 87.8979C99.8828 88.0217 99.763 88.1444 99.6392 88.2662C99.1006 88.8049 98.5332 89.3248 97.9371 89.8238C97.3439 90.3209 96.735 90.7903 96.1092 91.2329C95.9676 91.3299 95.826 91.428 95.6844 91.524C95.5418 91.6201 95.3982 91.7151 95.2546 91.8092C90.267 95.0452 84.3832 96.5216 78.3667 95.9958C71.2313 95.37 64.7672 92.0052 60.1638 86.5175C50.6608 75.1946 52.1421 58.2482 63.4671 48.7452C74.794 39.2422 91.7394 40.7256 101.242 52.0505C110.021 62.511 109.423 77.7691 100.356 87.5246ZM101.634 51.7208C91.9335 40.1612 74.7 38.6531 63.1393 48.3531C51.5777 58.0522 50.0716 75.2886 59.7707 86.8483C68.7459 97.5464 84.1723 99.6348 95.5863 92.2043C95.7309 92.1102 95.8725 92.0142 96.0161 91.9181C96.1577 91.8221 96.2983 91.726 96.4379 91.624C97.0617 91.1854 97.6717 90.716 98.2678 90.2169C98.8629 89.7189 99.4303 89.198 99.9719 88.6613C100.094 88.5395 100.216 88.4167 100.335 88.295C100.454 88.1702 100.572 88.0464 100.691 87.9216C109.991 77.9721 110.611 62.418 101.635 51.7198L101.634 51.7208Z" fill="#E6E6E6"/>
<path d="M100.356 87.5245C100.239 87.6493 100.121 87.7751 100.001 87.8978C99.8828 88.0216 99.763 88.1444 99.6392 88.2662C99.1005 88.8049 98.5331 89.3247 97.937 89.8238C97.3439 90.3209 96.7349 90.7902 96.1091 91.2329C95.9675 91.3299 95.8259 91.4279 95.6843 91.524C95.5417 91.62 95.3982 91.7151 95.2546 91.8092C90.2669 95.0451 84.3831 96.5215 78.3667 95.9957C71.2313 95.3699 64.7672 92.0052 60.1637 86.5175C50.6608 75.1945 52.1421 58.2482 63.4671 48.7452C74.794 39.2422 91.7394 40.7255 101.242 52.0505C110.021 62.511 109.423 77.7691 100.356 87.5245Z" fill="white"/>
<path d="M128.208 121.812C127.956 121.812 127.707 121.707 127.529 121.502L111.277 102.732C110.953 102.358 110.994 101.791 111.368 101.467C111.743 101.143 112.309 101.183 112.634 101.558L128.885 120.328C129.21 120.702 129.168 121.268 128.794 121.593C128.625 121.74 128.416 121.812 128.208 121.812Z" fill="white"/>
<path d="M56.1168 50.6645C55.9752 50.6645 55.8326 50.619 55.7128 50.5249C55.4276 50.3011 55.3781 49.8892 55.6009 49.605C57.7051 46.9186 60.2202 44.5976 63.0759 42.7063C65.8911 40.8427 68.9686 39.4406 72.2244 38.5395C78.9935 36.666 86.0259 37.0591 92.5642 39.6753C92.8999 39.8099 93.0633 40.1912 92.9286 40.5268C92.7939 40.8625 92.4127 41.0259 92.077 40.8922C79.5311 35.8719 64.9563 39.7862 56.6337 50.412C56.5039 50.5774 56.3118 50.6635 56.1168 50.6635V50.6645Z" fill="white"/>
<path d="M51.7035 58.3381C51.6223 58.3381 51.5401 58.3232 51.4599 58.2915C51.1242 58.1569 50.9608 57.7756 51.0945 57.439C51.7768 55.7348 52.6065 54.0841 53.5611 52.5335C53.7512 52.2255 54.1542 52.1295 54.4632 52.3186C54.7711 52.5087 54.8672 52.9117 54.678 53.2207C53.7631 54.708 52.967 56.2903 52.3124 57.9261C52.2095 58.1826 51.9639 58.3381 51.7035 58.3381Z" fill="white"/>
<path d="M89.7897 83.0726C89.0233 83.6003 88.1757 83.7835 87.2459 83.6241C86.3171 83.4637 85.5873 83.0013 85.0605 82.2349C84.5159 81.4457 84.3337 80.5872 84.5149 79.6613C84.6961 78.7355 85.1694 78.0077 85.9349 77.4809C86.725 76.9363 87.5855 76.7442 88.5153 76.9036C89.4451 77.064 90.1818 77.5393 90.7265 78.3295C91.2542 79.0949 91.4275 79.9415 91.2463 80.8664C91.0651 81.7922 90.5789 82.528 89.7897 83.0726ZM84.3377 75.0846C83.2762 75.8164 82.1869 75.5292 81.068 74.2241L78.5489 71.0446C78.0222 70.3881 77.7944 69.7523 77.8637 69.1404C77.934 68.5285 78.242 67.9056 78.7896 67.2729C79.6887 66.253 80.2263 65.236 80.4016 64.2221C80.5779 63.2091 80.3254 62.209 79.6441 61.2208C78.8955 60.1345 78.0132 59.476 77.0003 59.2463C75.9853 59.0166 74.9476 59.2681 73.8861 59.9998C72.5533 60.9187 71.9265 62.0981 72.0067 63.5349C72.0136 64.5498 71.9007 65.2836 71.666 65.7361C71.4323 66.1896 70.9719 66.5787 70.2867 66.9055C69.5104 67.259 68.7855 67.3303 68.1132 67.1204C67.4398 66.9105 67.0349 66.3619 66.8962 65.4737C66.6358 63.723 66.8774 62.0268 67.622 60.384C68.3657 58.7423 69.5767 57.3431 71.2561 56.1856C72.7869 55.131 74.3386 54.4893 75.911 54.2606C77.4835 54.0329 78.9826 54.2388 80.4056 54.8775C81.8305 55.5172 83.0692 56.6024 84.1248 58.1323C85.3328 59.886 85.7745 61.6753 85.4497 63.5022C85.1239 65.3291 84.2258 67.0768 82.7543 68.7463L84.6228 71.7743C85.4695 73.2676 85.3744 74.3707 84.3367 75.0856L84.3377 75.0846Z" fill="#F2F2F2"/>
</g>
<defs>
<clipPath id="clip0_3836_14372">
<rect width="150" height="144.499" fill="white"/>
</clipPath>
</defs>
</svg>
