<svg width="24" height="24" viewBox="0 0 24 24" fill="none" xmlns="http://www.w3.org/2000/svg">
    <path d="M10.3368 22L10.183 21.9231C10.0205 21.8541 9.88627 21.732 9.80239 21.5767C9.71852 21.4213 9.68997 21.2421 9.72145 21.0684C9.751 20.8931 9.84039 20.7334 9.9744 20.6165C10.1084 20.4996 10.2788 20.4328 10.4565 20.4274H13.6702C13.8479 20.4328 14.0183 20.4996 14.1523 20.6165C14.2863 20.7334 14.3757 20.8931 14.4052 21.0684C14.4367 21.2421 14.4081 21.4213 14.3243 21.5767C14.2404 21.732 14.1062 21.8541 13.9437 21.9231L13.7898 22H10.3368Z" fill="black"/>
    <path d="M11.26 3.55556V2.78632C11.26 2.57778 11.3428 2.37777 11.4903 2.23031C11.6377 2.08284 11.8377 2 12.0463 2C12.2548 2 12.4548 2.08284 12.6023 2.23031C12.7498 2.37777 12.8326 2.57778 12.8326 2.78632V3.55556C13.0976 3.62393 13.354 3.67521 13.6104 3.75214C14.7332 4.0823 15.7201 4.76498 16.425 5.69925C17.1299 6.63353 17.5156 7.76982 17.5249 8.94017C17.5249 10.5214 17.5249 12.1111 17.5249 13.6923C17.5052 13.8639 17.538 14.0373 17.6189 14.1899C17.6997 14.3425 17.8249 14.467 17.9779 14.547C18.4146 14.8097 18.7521 15.2096 18.9376 15.6843C19.1231 16.159 19.1463 16.6817 19.0035 17.1709C18.8667 17.6589 18.5753 18.0892 18.1731 18.3975C17.7708 18.7057 17.2795 18.8751 16.7728 18.8803C13.6189 18.8803 10.4651 18.8803 7.31979 18.8803C6.81343 18.8737 6.32274 18.7038 5.92078 18.3958C5.51882 18.0878 5.22709 17.6582 5.08902 17.1709C4.9487 16.6786 4.97484 16.1536 5.16339 15.6776C5.35193 15.2016 5.69233 14.8012 6.13175 14.5385C6.27029 14.4608 6.38445 14.3461 6.46145 14.2072C6.53844 14.0684 6.57522 13.9108 6.56765 13.7521C6.56765 12.2308 6.56765 10.7094 6.56765 9.19658C6.52745 7.86022 6.97427 6.55479 7.8249 5.52334C8.67553 4.49189 9.87201 3.80471 11.1916 3.58974L11.26 3.55556ZM12.0463 17.2991H16.73C16.9042 17.3049 17.0751 17.2514 17.2148 17.1474C17.3546 17.0433 17.4548 16.8949 17.4993 16.7265C17.5435 16.5644 17.5322 16.3922 17.4671 16.2373C17.4021 16.0824 17.287 15.9537 17.1403 15.8718C16.7518 15.6618 16.4331 15.3428 16.2236 14.954C16.014 14.5653 15.9227 14.1237 15.9608 13.6838C15.9608 12.094 15.9608 10.5043 15.9608 8.91453C15.9551 7.87633 15.5373 6.88291 14.7992 6.1528C14.061 5.42269 13.0631 5.0157 12.0249 5.02137C10.9867 5.02703 9.99329 5.44489 9.26318 6.18302C8.53307 6.92114 8.12609 7.91907 8.13175 8.95726C8.13175 10.5641 8.13175 12.1709 8.13175 13.7778C8.14575 14.1881 8.04623 14.5944 7.84415 14.9518C7.64207 15.3092 7.34528 15.6039 6.98645 15.8034C6.82287 15.9084 6.69478 16.0603 6.61893 16.2393C6.57495 16.3587 6.56126 16.4871 6.57909 16.613C6.59691 16.739 6.6457 16.8586 6.72107 16.961C6.79644 17.0635 6.89605 17.1457 7.01098 17.2002C7.12591 17.2548 7.25257 17.2799 7.37962 17.2735L12.0463 17.2991Z" fill="black"/>
</svg>
