<svg width="191" height="159" viewBox="0 0 191 159" fill="none" xmlns="http://www.w3.org/2000/svg">
    <ellipse cx="95.5" cy="122" rx="95.5" ry="37" fill="#00549A" fill-opacity="0.05" />
    <g clip-path="url(#clip0_1440_9958)">
        <path d="M160.943 111.528L101.258 146.002L34.0393 107.091L93.7324 72.6172L160.943 111.528Z"
            fill="#00549A" />
        <path opacity="0.5"
            d="M160.943 111.528L101.258 146.002L34.0393 107.091L93.7324 72.6172L160.943 111.528Z"
            fill="white" />
        <path d="M93.7324 25.875V72.6148L34.0393 107.089L34.0474 60.357L93.7324 25.875Z"
            fill="#00549A" />
        <path opacity="0.23"
            d="M93.7324 25.875V72.6148L34.0393 107.089L34.0474 60.357L93.7324 25.875Z"
            fill="white" />
        <path d="M101.258 99.2619V146.002L34.0393 107.091L34.0474 60.3594L101.258 99.2619Z"
            fill="#00549A" />
        <path opacity="0.38"
            d="M101.258 99.2619V146.002L34.0393 107.091L34.0474 60.3594L101.258 99.2619Z"
            fill="white" />
        <path d="M160.943 64.7857V111.525L93.7324 72.6148V25.875L160.943 64.7857Z" fill="#00549A" />
        <path opacity="0.4" d="M160.943 64.7857V111.525L93.7324 72.6148V25.875L160.943 64.7857Z"
            fill="white" />
        <path d="M160.943 111.529V64.7891L101.258 99.263V146.003L160.943 111.529Z" fill="#00549A" />
        <path opacity="0.23" d="M160.943 111.529V64.7891L101.258 99.263V146.003L160.943 111.529Z"
            fill="white" />
        <path d="M93.7324 25.8757L93.8133 0L160.862 38.9592L160.943 64.7863L93.7324 25.8757Z"
            fill="#00549A" />
        <path opacity="0.2"
            d="M93.7324 25.8757L93.8133 0L160.862 38.9592L160.943 64.7863L93.7324 25.8757Z"
            fill="white" />
        <path d="M101.258 99.2641L106.849 76.635L166 42.4688L160.943 64.7902L101.258 99.2641Z"
            fill="#00549A" />
        <path opacity="0.3"
            d="M101.258 99.2641L106.849 76.635L166 42.4688L160.943 64.7902L101.258 99.2641Z"
            fill="white" />
        <path d="M34.0473 60.3596L26.9265 36.8804L86.6115 2.39844L93.7323 25.8776L34.0473 60.3596Z"
            fill="#00549A" />
        <path opacity="0.1"
            d="M34.0473 60.3596L26.9265 36.8804L86.6115 2.39844L93.7323 25.8776L34.0473 60.3596Z"
            fill="white" />
        <path d="M34.0473 60.3599L20 40.9531L87.2184 79.8638L101.258 99.2624L34.0473 60.3599Z"
            fill="#00549A" />
        <path opacity="0.45"
            d="M34.0473 60.3599L20 40.9531L87.2184 79.8638L101.258 99.2624L34.0473 60.3599Z"
            fill="white" />
    </g>
    <path
        d="M120.552 77.4212L120.066 77.827L117.493 79.9733L115.91 78.0991L115.677 77.8222L115.443 77.5453L112.523 74.0868L112.29 73.8099L112.054 73.5316L109.494 70.4993L109.259 70.221L109.025 69.9441C109.125 69.8766 109.225 69.8077 109.325 69.7388C109.769 69.4272 110.2 69.0964 110.62 68.7465C111.043 68.3953 111.445 68.029 111.826 67.6498C111.914 67.5645 111.999 67.4772 112.082 67.3906L112.318 67.6703L112.552 67.9485L115.114 70.9808L115.348 71.2577L115.583 71.536L118.502 74.9945L118.735 75.2714L118.969 75.547L120.144 76.9383L120.551 77.4212H120.552Z"
        fill="#00549A" />
    <path
        d="M128.697 97.3132L114.563 80.5695C114.064 79.9788 114.141 79.0984 114.736 78.6032L119.675 74.4831C120.269 73.9872 121.155 74.0643 121.653 74.6549L135.787 91.3987C136.954 92.7812 136.773 94.8423 135.382 96.0024L133.328 97.7163C131.937 98.8764 129.863 98.6957 128.696 97.3132H128.697Z"
        fill="#00549A" />
    <path
        d="M116.837 38.9154C108.299 28.8009 93.1318 27.4819 82.9565 35.9684C72.7826 44.4548 71.4543 59.5317 79.9932 69.6462C88.0181 79.1529 101.903 80.8894 111.992 74.0125C112.092 73.945 112.192 73.8761 112.291 73.8058C112.39 73.737 112.489 73.6653 112.587 73.5951C113.023 73.2773 113.453 72.9424 113.874 72.5925C114.294 72.2413 114.699 71.8791 115.089 71.506C115.176 71.4228 115.264 71.3403 115.35 71.253C115.437 71.1684 115.522 71.0832 115.607 70.9966C124.171 62.3157 124.863 48.4215 116.837 38.9147V38.9154ZM86.206 39.8184C94.2296 33.127 106.233 34.1712 112.964 42.1462C119.182 49.5114 118.759 60.2553 112.337 67.124C112.254 67.212 112.17 67.3 112.085 67.3873C112.001 67.4739 111.917 67.5612 111.829 67.6465C111.447 68.0257 111.045 68.3919 110.623 68.7431C110.203 69.093 109.771 69.4238 109.328 69.7355C109.228 69.8044 109.128 69.8733 109.027 69.9408C108.926 70.0083 108.824 70.0751 108.723 70.1413C105.189 72.42 101.022 73.4594 96.7594 73.089C91.7054 72.6484 87.1261 70.2791 83.865 66.4154C77.1334 58.4418 78.1825 46.5098 86.2054 39.8184H86.206Z"
        fill="#E6EEF5" />
    <path
        d="M121.752 47.1472C120.793 44.0406 119.232 41.1938 117.114 38.6853C114.994 36.1768 112.446 34.1539 109.536 32.676C106.725 31.2471 103.699 30.3844 100.541 30.1095C97.3829 29.8354 94.2514 30.162 91.2345 31.0835C88.1106 32.0369 85.2467 33.5885 82.7224 35.694C80.1975 37.7994 78.1624 40.3352 76.6769 43.2269C75.2395 46.0205 74.3715 49.0283 74.095 52.1676C73.8178 55.307 74.1479 58.4198 75.0748 61.4186C76.034 64.5239 77.595 67.3707 79.713 69.8806C81.8311 72.389 84.3808 74.4106 87.2913 75.8899C90.1017 77.3174 93.1275 78.1801 96.2858 78.455C97.0062 78.5191 97.7266 78.5498 98.4437 78.5498C100.867 78.5498 103.264 78.1924 105.592 77.4811C107.965 76.7574 110.187 75.6887 112.225 74.2933C112.325 74.2257 112.424 74.1569 112.523 74.0852C112.622 74.0164 112.721 73.9461 112.819 73.8745C113.256 73.5553 113.686 73.2211 114.105 72.8712C114.524 72.5214 114.929 72.1599 115.321 71.7875C115.41 71.7043 115.497 71.6204 115.583 71.5345C115.669 71.4499 115.755 71.3646 115.84 71.278C117.576 69.5266 119.021 67.5357 120.15 65.3396C121.587 62.5447 122.455 59.5369 122.732 56.3976C123.008 53.2582 122.678 50.1454 121.752 47.1479V47.1472ZM122.009 56.3348C121.526 61.8149 119.192 66.8435 115.372 70.7235C115.287 70.8088 115.201 70.8947 115.114 70.9786C115.028 71.0639 114.94 71.1484 114.853 71.2316C114.463 71.6068 114.056 71.9682 113.638 72.3181C113.217 72.6694 112.788 73.0022 112.349 73.3193C112.252 73.3909 112.154 73.4612 112.054 73.5301C111.955 73.6003 111.855 73.6692 111.755 73.7367C107.72 76.4751 103.065 77.8173 98.4313 77.8173C91.6661 77.8159 84.9461 74.9589 80.2681 69.4161C71.8733 59.4715 73.1832 44.591 83.1876 36.2464C87.493 32.6562 92.8181 30.7363 98.3723 30.7363C99.0694 30.7363 99.772 30.767 100.477 30.8284C106.78 31.3774 112.489 34.332 116.557 39.1491C120.623 43.9663 122.559 50.0704 122.008 56.3355L122.009 56.3348Z"
        fill="#00549A" />
    <path
        d="M113.242 41.9117C106.371 33.7724 94.1639 32.7105 85.9743 39.541C77.7846 46.3702 76.7177 58.5068 83.5879 66.6461C89.9456 74.1791 100.874 75.6496 108.957 70.4177C109.06 70.3516 109.161 70.2834 109.262 70.2158C109.362 70.1483 109.462 70.0808 109.561 70.0092C110.003 69.7002 110.435 69.3694 110.857 69.0182C111.279 68.667 111.681 68.3007 112.065 67.9229C112.151 67.8376 112.237 67.7503 112.322 67.6651C112.407 67.5771 112.49 67.4905 112.573 67.4018C119.161 60.396 119.601 49.4447 113.242 41.9117ZM112.337 67.1222C112.255 67.2102 112.171 67.2981 112.086 67.3854C112.002 67.4721 111.917 67.5594 111.83 67.6446C111.448 68.0238 111.046 68.3901 110.623 68.7413C110.203 69.0912 109.772 69.422 109.329 69.7337C109.229 69.8025 109.128 69.8714 109.028 69.9389C108.927 70.0065 108.825 70.0733 108.724 70.1395C105.19 72.4181 101.022 73.4575 96.7602 73.0872C91.7062 72.6466 87.127 70.2772 83.8658 66.4135C77.1342 58.44 78.1833 46.5079 86.2062 39.8166C94.2298 33.1252 106.233 34.1694 112.964 42.1443C119.182 49.5095 118.76 60.2535 112.337 67.1222H112.337Z"
        fill="#FCFCFC" />
    <path
        d="M113.523 41.6835C110.137 37.6718 105.382 35.2131 100.135 34.7562C94.8882 34.2992 89.7772 35.9013 85.7421 39.2671C81.7076 42.6329 79.2328 47.3593 78.7744 52.5748C78.3147 57.7902 79.9264 62.872 83.3125 66.8817C86.6985 70.892 91.452 73.352 96.6988 73.8083C97.2862 73.8595 97.8701 73.8847 98.4519 73.8847C102.289 73.8847 105.997 72.7839 109.196 70.699C109.298 70.6328 109.399 70.566 109.499 70.4971C109.599 70.4296 109.7 70.3607 109.798 70.2904C110.242 69.9787 110.673 69.6473 111.093 69.2974C111.513 68.9475 111.916 68.5826 112.302 68.2034C112.388 68.1188 112.474 68.0322 112.558 67.947C112.644 67.8604 112.729 67.7724 112.811 67.6851C115.829 64.4959 117.672 60.4195 118.062 55.9917C118.52 50.7763 116.91 45.6945 113.524 41.6849L113.523 41.6835ZM96.762 73.0901C91.708 72.6496 87.1287 70.2802 83.8676 66.4165C77.136 58.4429 78.1851 46.5109 86.2079 39.8195C94.2315 33.1282 106.235 34.1723 112.966 42.1473C119.184 49.5125 118.761 60.2564 112.338 67.1251C112.256 67.2131 112.172 67.3011 112.087 67.3884C112.003 67.475 111.919 67.5623 111.831 67.6476C111.449 68.0268 111.047 68.393 110.625 68.7443C110.205 69.0941 109.773 69.4249 109.33 69.7366C109.23 69.8055 109.129 69.8744 109.029 69.9419C108.928 70.0094 108.826 70.0763 108.725 70.1424C105.191 72.4211 101.024 73.4605 96.7613 73.0901H96.762Z"
        fill="#00549A" />
    <path
        d="M112.335 67.1282C112.253 67.2162 112.169 67.3042 112.084 67.3915C112 67.4781 111.915 67.5654 111.828 67.6506C111.446 68.0298 111.044 68.3961 110.621 68.7473C110.202 69.0972 109.77 69.428 109.327 69.7397C109.227 69.8086 109.126 69.8774 109.026 69.945C108.925 70.0125 108.823 70.0793 108.722 70.1455C105.188 72.4241 101.02 73.4635 96.7582 73.0932C91.7042 72.6526 87.125 70.2832 83.8638 66.4196C77.1322 58.446 78.1813 46.5139 86.2042 39.8226C94.2278 33.1312 106.231 34.1754 112.962 42.1503C119.18 49.5155 118.758 60.2595 112.335 67.1282H112.335Z"
        fill="white" />
    <path
        d="M132.066 91.2686C131.888 91.2686 131.711 91.1949 131.585 91.0503L120.073 77.834C119.844 77.5701 119.872 77.1718 120.138 76.9433C120.403 76.7148 120.804 76.7435 121.034 77.0074L132.546 90.2237C132.776 90.4877 132.747 90.886 132.481 91.1145C132.361 91.2181 132.213 91.2686 132.066 91.2686Z"
        fill="white" />
    <path
        d="M80.9987 41.1694C80.8985 41.1694 80.7977 41.1374 80.7126 41.0712C80.5109 40.9144 80.4752 40.6238 80.6337 40.4233C82.124 38.5314 83.9058 36.8972 85.9292 35.5659C87.9231 34.2537 90.1036 33.2668 92.409 32.6325C97.2037 31.3135 102.186 31.5897 106.816 33.4325C107.054 33.5273 107.17 33.7961 107.075 34.0327C106.98 34.2694 106.709 34.3846 106.471 34.2898C97.5845 30.7549 87.2603 33.511 81.3644 40.9935C81.2732 41.1094 81.1366 41.1701 80.9987 41.1701V41.1694Z"
        fill="white" />
    <path
        d="M77.8727 46.5724C77.8151 46.5724 77.7568 46.5615 77.7005 46.539C77.4624 46.4442 77.3465 46.1754 77.4418 45.9388C77.9249 44.7384 78.5129 43.5769 79.1894 42.485C79.3239 42.2681 79.61 42.2006 79.8282 42.3343C80.0464 42.4679 80.1143 42.7524 79.9798 42.9692C79.3314 44.0161 78.7674 45.1306 78.3043 46.2825C78.2316 46.4626 78.0573 46.5724 77.8734 46.5724H77.8727Z"
        fill="white" />
    <path
        d="M98.5916 58.8625C97.6983 58.8625 97.1892 58.2739 97.0643 57.0967L96.8777 54.3086C96.8358 53.7302 96.9559 53.2814 97.2358 52.9609C97.5165 52.641 97.9371 52.4084 98.4983 52.2638C99.4122 52.0367 100.119 51.6705 100.618 51.1637C101.117 50.6577 101.366 49.992 101.366 49.1654C101.366 48.2569 101.121 47.5388 100.634 47.0122C100.145 46.4857 99.4541 46.2225 98.5608 46.2225C97.4389 46.2225 96.6176 46.646 96.0982 47.4924C95.703 48.0707 95.3504 48.4424 95.0382 48.6075C94.7267 48.7732 94.3109 48.8142 93.7915 48.7316C93.2096 48.6286 92.7678 48.3858 92.4666 48.0039C92.1654 47.622 92.1496 47.1521 92.4199 46.5942C92.9599 45.4995 93.7647 44.632 94.8358 43.9915C95.9054 43.3518 97.1473 43.0312 98.5601 43.0312C99.8479 43.0312 100.986 43.2741 101.973 43.759C102.96 44.2446 103.733 44.9471 104.295 45.8658C104.856 46.7851 105.136 47.8852 105.136 49.1654C105.136 50.6324 104.684 51.8198 103.78 52.7283C102.877 53.6374 101.676 54.2772 100.18 54.6489L100.055 57.0967C99.9509 58.2739 99.463 58.8625 98.5903 58.8625H98.5916ZM98.5601 65.5238C97.9158 65.5238 97.36 65.2967 96.8928 64.8425C96.4255 64.3882 96.1916 63.8406 96.1916 63.2001C96.1916 62.5597 96.4255 61.9814 96.8928 61.5271C97.36 61.0729 97.9158 60.8458 98.5601 60.8458C99.2043 60.8458 99.791 61.0736 100.259 61.5271C100.726 61.9814 100.96 62.5393 100.96 63.2001C100.96 63.861 100.726 64.3882 100.259 64.8425C99.7917 65.2967 99.2249 65.5238 98.5601 65.5238Z"
        fill="#00549A" />
    <defs>
        <clipPath id="clip0_1440_9958">
            <rect width="146" height="146" fill="white" transform="translate(20)" />
        </clipPath>
    </defs>
</svg>
