<svg width="24" height="24" viewBox="0 0 24 24" fill="none" xmlns="http://www.w3.org/2000/svg">
<path d="M20.25 7H3.75C3.33579 7 3 7.33579 3 7.75V19.75C3 20.1642 3.33579 20.5 3.75 20.5H20.25C20.6642 20.5 21 20.1642 21 19.75V7.75C21 7.33579 20.6642 7 20.25 7Z" stroke="#7E57C2" stroke-width="1.5" stroke-linecap="round" stroke-linejoin="round"/>
<path d="M15.749 7V5.5C15.749 5.10218 15.591 4.72064 15.3097 4.43934C15.0284 4.15804 14.6468 4 14.249 4H9.74902C9.3512 4 8.96967 4.15804 8.68836 4.43934C8.40706 4.72064 8.24902 5.10218 8.24902 5.5V7" stroke="#7E57C2" stroke-width="1.5" stroke-linecap="round" stroke-linejoin="round"/>
<path d="M21 12.0898C18.2646 13.6718 15.1599 14.503 12 14.4992C8.83955 14.5074 5.73363 13.676 3 12.0898" stroke="#7E57C2" stroke-width="1.5" stroke-linecap="round" stroke-linejoin="round"/>
<path d="M10.875 11.5H13.125" stroke="#7E57C2" stroke-width="1.5" stroke-linecap="round" stroke-linejoin="round"/>
</svg>
