<svg width="140" height="19" viewBox="0 0 140 19" fill="none" xmlns="http://www.w3.org/2000/svg">
<path d="M60.7617 15.4424L62.2589 12.4779C63.1174 13.2149 64.0974 13.8083 65.1583 14.2337C66.0978 14.6411 67.1113 14.866 68.1408 14.8954C68.773 14.9324 69.4036 14.8 69.9628 14.5129C70.1693 14.3965 70.3394 14.2285 70.4551 14.0265C70.5708 13.8245 70.6279 13.5961 70.6203 13.3653C70.6238 13.0573 70.5175 12.7575 70.3193 12.5161C70.0988 12.2596 69.8213 12.0543 69.5073 11.9156C69.1234 11.743 68.7261 11.5997 68.319 11.4871L66.9248 11.0778L65.4514 10.6418C64.9612 10.499 64.4894 10.3026 64.0453 10.0565C63.615 9.82563 63.2158 9.54426 62.857 9.21879C62.4997 8.88051 62.2215 8.47226 62.0411 8.0215C61.833 7.49944 61.7308 6.94362 61.7401 6.38431C61.7208 5.71555 61.8709 5.05236 62.1774 4.45238C62.4839 3.85241 62.9374 3.33379 63.4987 2.94161C64.6711 2.08731 66.2264 1.66016 68.1646 1.66016C69.312 1.65907 70.4537 1.81622 71.5551 2.12684C72.5947 2.40473 73.5854 2.83152 74.494 3.39298L73.0444 6.39578C72.1784 5.89469 71.2562 5.49044 70.2955 5.19084C69.5081 4.92116 68.6826 4.76895 67.8477 4.73946C67.3108 4.71481 66.7769 4.83114 66.303 5.07608C66.1233 5.17325 65.975 5.31649 65.8743 5.48998C65.7736 5.66347 65.7246 5.86045 65.7326 6.05916C65.7277 6.36573 65.8358 6.66399 66.0376 6.90071C66.2624 7.15932 66.5456 7.36476 66.8654 7.50127C67.2491 7.67636 67.6464 7.82217 68.0537 7.93734L69.4518 8.35047C69.939 8.49583 70.4262 8.64884 70.9134 8.80567C71.3993 8.96609 71.8676 9.17238 72.3116 9.42153C72.7423 9.65944 73.1413 9.94718 73.4999 10.2784C73.85 10.6266 74.12 11.0425 74.292 11.4986C74.4972 12.032 74.598 12.5975 74.5891 13.1664C74.6117 14.1155 74.305 15.0446 73.7177 15.8058C73.1217 16.5595 72.315 17.1328 71.3927 17.4583C70.3296 17.8374 69.2026 18.0216 68.0695 18.0015C66.718 18.002 65.377 17.7715 64.1087 17.3206C62.8869 16.8903 61.7538 16.2544 60.7617 15.4424V15.4424Z" fill="#055FA6"/>
<path d="M75.8457 11.7497C75.8457 9.85678 76.4409 8.3302 77.6312 7.17C78.8214 6.02506 80.3672 5.42969 82.2686 5.42969C84.4199 5.42969 86.0159 6.0823 87.0568 7.38753C87.9662 8.52229 88.4197 10.0247 88.4171 11.8948C88.4171 12.1772 88.4055 12.471 88.3823 12.7764H79.4552C79.6304 13.4865 80.0379 14.1196 80.6146 14.5777C81.2047 15.0168 81.928 15.2455 82.6667 15.2265C83.2539 15.2335 83.8365 15.1227 84.3791 14.901C84.9218 14.6793 85.4133 14.3512 85.824 13.9366L87.6983 15.8066C86.3766 17.2696 84.5989 18.0011 82.3652 18.0011C80.3788 18.0011 78.7944 17.4286 77.6118 16.2837C76.4293 15.1387 75.8406 13.6274 75.8457 11.7497ZM79.3934 10.6964H85.0665C85.0708 10.358 85.0044 10.0223 84.8714 9.71044C84.7384 9.39853 84.5417 9.11704 84.2936 8.88358C83.7392 8.44538 83.0502 8.20664 82.3401 8.20664C81.63 8.20664 80.941 8.44538 80.3866 8.88358C79.8572 9.35938 79.5071 9.99851 79.3934 10.6964V10.6964Z" fill="#055FA6"/>
<path d="M89.6788 14.0236C89.6564 13.5227 89.7575 13.0238 89.9735 12.5693C90.1895 12.1148 90.5141 11.718 90.9197 11.4125C91.7457 10.7892 92.9168 10.4737 94.4407 10.4661H97.8842V10.2418C97.9016 9.95574 97.8512 9.66957 97.7368 9.4058C97.6224 9.14202 97.4472 8.90781 97.225 8.72155C96.6585 8.3351 95.9748 8.14881 95.2861 8.19325C93.9721 8.23677 92.6905 8.60407 91.5596 9.26125L90.4505 6.84398C91.3424 6.40038 92.2762 6.0427 93.2386 5.77597C94.1756 5.53807 95.1403 5.42178 96.1082 5.4301C97.7705 5.4301 99.063 5.81651 99.986 6.58933C100.451 6.9936 100.818 7.49433 101.061 8.05513C101.304 8.61593 101.416 9.22271 101.39 9.83137L101.409 17.8395H97.9191V16.2394C97.0479 17.41 95.7307 17.9954 93.9676 17.9954C93.3969 18.0245 92.826 17.9421 92.288 17.7529C91.7501 17.5636 91.256 17.2714 90.8344 16.8931C90.4498 16.5192 90.1485 16.0711 89.9496 15.5772C89.7507 15.0832 89.6585 14.5542 89.6788 14.0236V14.0236ZM93.0099 13.8183C93.004 14.0189 93.0491 14.2176 93.1412 14.3968C93.2332 14.5759 93.3693 14.7298 93.5372 14.8445C93.9591 15.1208 94.4616 15.2542 94.9681 15.2246C95.6475 15.2427 96.3187 15.0756 96.907 14.7419C97.1459 14.6186 97.3559 14.4477 97.5235 14.2402C97.6911 14.0328 97.8126 13.7933 97.8803 13.5371V12.5413H95.0689C94.5336 12.5071 93.9986 12.612 93.5178 12.8454C93.3498 12.9458 93.2134 13.0899 93.1237 13.2616C93.0341 13.4333 92.9947 13.626 93.0099 13.8183V13.8183Z" fill="#055FA6"/>
<path d="M104.342 17.9972V5.56441H107.84V7.7161C108.707 6.21492 110.055 5.45278 111.885 5.42969V8.6476C111.693 8.6322 111.503 8.6245 111.316 8.6245C110.459 8.5884 109.617 8.86108 108.94 9.39434C108.575 9.70208 108.285 10.0919 108.095 10.5328C107.904 10.9738 107.817 11.4538 107.84 11.9348V18.0011L104.342 17.9972Z" fill="#055FA6"/>
<path d="M112.723 11.7628C112.723 9.87619 113.323 8.34858 114.524 7.17996C115.724 6.01133 117.304 5.4283 119.263 5.43084C120.382 5.4112 121.49 5.64257 122.501 6.10681C123.427 6.53159 124.216 7.1916 124.784 8.01633L122.32 9.73871C121.988 9.32162 121.558 8.98604 121.067 8.75913C120.576 8.53222 120.036 8.42036 119.492 8.4326H119.401C118.99 8.41956 118.581 8.49423 118.202 8.65131C117.824 8.8084 117.487 9.04405 117.213 9.34153C116.63 10.0038 116.328 10.8554 116.368 11.7246C116.329 12.6029 116.63 13.4638 117.213 14.1382C117.483 14.4413 117.819 14.682 118.198 14.8426C118.577 15.0032 118.988 15.0796 119.401 15.0662C120.736 15.0662 121.723 14.5863 122.363 13.6265L124.875 15.2801C124.335 16.1464 123.548 16.8438 122.608 17.2889C121.547 17.7814 120.38 18.0248 119.204 17.9993C117.268 17.9993 115.704 17.4239 114.512 16.2731C113.319 15.1223 112.723 13.6188 112.723 11.7628Z" fill="#055FA6"/>
<path d="M126.553 18.0012V0.820312H130.148V7.69808C131.028 6.19369 132.476 5.42992 134.491 5.40677C135.113 5.37671 135.735 5.47656 136.316 5.69984C136.897 5.92311 137.425 6.26484 137.864 6.70286C138.293 7.17129 138.625 7.7191 138.84 8.31485C139.056 8.91061 139.15 9.54259 139.118 10.1745V17.9974H135.523V11.1697C135.56 10.4829 135.322 9.80919 134.861 9.29505C134.624 9.06099 134.34 8.87891 134.027 8.76062C133.714 8.64233 133.38 8.59048 133.046 8.60843C132.648 8.59427 132.251 8.66791 131.886 8.82402C131.52 8.98013 131.194 9.2148 130.931 9.51106C130.391 10.1605 130.113 10.9851 130.152 11.8255V17.9974L126.553 18.0012Z" fill="#055FA6"/>
<path d="M4.20029 16.964C2.92237 16.2829 1.85786 15.2679 1.12269 14.0296C0.386956 12.7543 0 11.3113 0 9.84298C0 8.37462 0.386956 6.93163 1.12269 5.65639C1.85786 4.41808 2.92237 3.40309 4.20029 2.72196C5.55942 2.02432 7.06816 1.66016 8.59933 1.66016C10.1305 1.66016 11.6392 2.02432 12.9984 2.72196C14.2765 3.39757 15.3415 4.40903 16.076 5.64497C16.8005 6.92392 17.1809 8.36546 17.1809 9.83157C17.1809 11.2977 16.8005 12.7392 16.076 14.0182C15.3415 15.2541 14.2765 16.2656 12.9984 16.9412C11.6392 17.6388 10.1305 18.003 8.59933 18.003C7.06816 18.003 5.55942 17.6388 4.20029 16.9412V16.964ZM11.8097 15.1942C12.7447 14.6732 13.5188 13.9101 14.0486 12.9867C14.5875 12.0261 14.8703 10.9455 14.8703 9.84679C14.8703 8.74809 14.5875 7.66749 14.0486 6.70684C13.5174 5.7855 12.7436 5.02392 11.8097 4.50317C10.8338 3.96279 9.73098 3.68707 8.6128 3.70391C7.48751 3.68894 6.37772 3.96442 5.39286 4.50317C4.44777 5.01849 3.66396 5.78079 3.12698 6.70684C2.58804 7.66749 2.30525 8.74809 2.30525 9.84679C2.30525 10.9455 2.58804 12.0261 3.12698 12.9867C3.66276 13.9147 4.44679 14.6785 5.39286 15.1942C6.37772 15.733 7.48751 16.0084 8.6128 15.9935C9.73098 16.0103 10.8338 15.7346 11.8097 15.1942V15.1942Z" fill="#DA2128"/>
<path d="M21.9592 17.2011C21.012 16.6813 20.2237 15.9048 19.6811 14.9571C19.1409 13.9641 18.8574 12.847 18.8574 11.7112C18.8574 10.5754 19.1409 9.45836 19.6811 8.4654C20.2219 7.51917 21.0109 6.74598 21.9592 6.23303C22.9725 5.68607 24.105 5.41007 25.251 5.43077C26.2657 5.41231 27.2698 5.64362 28.1784 6.10513C29.0172 6.53375 29.7114 7.20858 30.1717 8.04295L28.5087 9.13588C28.1596 8.57551 27.6726 8.11846 27.0963 7.81041C26.5175 7.51181 25.8767 7.36024 25.2282 7.36859C24.485 7.35688 23.7514 7.54109 23.0982 7.90343C22.4719 8.25583 21.9579 8.78451 21.6175 9.42655C21.2515 10.1229 21.0672 10.9037 21.0821 11.6938C21.0653 12.4927 21.2497 13.2827 21.6175 13.9882C21.9579 14.6302 22.4719 15.1589 23.0982 15.5113C23.7514 15.8736 24.485 16.0579 25.2282 16.0461C25.8767 16.0545 26.5175 15.9029 27.0963 15.6043C27.6726 15.2963 28.1596 14.8392 28.5087 14.2789L30.1717 15.3485C29.7121 16.1902 29.0184 16.8739 28.1784 17.3135C27.272 17.7824 26.267 18.0179 25.251 17.9995C24.1049 18.025 22.9716 17.7501 21.9592 17.2011Z" fill="#DA2128"/>
<path d="M35.0604 17.201C34.0781 16.6813 33.2606 15.9048 32.6979 14.9571C32.1402 13.9633 31.8477 12.8465 31.8477 11.7112C31.8477 10.5759 32.1402 9.45918 32.6979 8.46542C33.2587 7.5192 34.077 6.74601 35.0604 6.23307C36.1124 5.68564 37.2883 5.40963 38.4781 5.43082C39.5303 5.41236 40.5716 5.64366 41.5138 6.10517C42.3837 6.53379 43.1036 7.20862 43.581 8.04298L41.8564 9.1359C41.4944 8.57553 40.9893 8.11849 40.3916 7.81044C39.7902 7.51138 39.1243 7.3598 38.4505 7.36862C37.6797 7.35691 36.9189 7.54112 36.2416 7.90345C35.5921 8.25585 35.059 8.78453 34.706 9.42657C34.3265 10.123 34.1353 10.9037 34.1508 11.6938C34.1334 12.4927 34.3246 13.2827 34.706 13.9882C35.059 14.6302 35.5921 15.1589 36.2416 15.5113C36.9189 15.8736 37.6797 16.0578 38.4505 16.0461C39.1243 16.0549 39.7902 15.9033 40.3916 15.6043C40.9893 15.2962 41.4944 14.8392 41.8564 14.2788L43.581 15.3485C43.1043 16.1901 42.385 16.8739 41.5138 17.3134C40.5739 17.7823 39.5317 18.0178 38.4781 17.9994C37.2882 18.0254 36.1115 17.7505 35.0604 17.201Z" fill="#DA2128"/>
<path d="M56.5692 5.42969V17.8601H54.4281V15.9844C53.9688 16.6288 53.3483 17.1422 52.6281 17.4733C51.8662 17.8287 51.034 18.009 50.1928 18.0008C48.53 18.0008 47.2229 17.5436 46.2712 16.6292C45.3196 15.7148 44.8412 14.3666 44.8359 12.5847V5.42969H47.0948V12.3385C47.0948 13.5473 47.3863 14.4591 47.9693 15.0739C48.2959 15.3949 48.687 15.6434 49.1168 15.803C49.5467 15.9626 50.0056 16.0298 50.4634 16.0001C50.9835 16.0272 51.5036 15.9452 51.99 15.7594C52.4764 15.5737 52.9182 15.2882 53.2869 14.9215C53.9771 14.2025 54.3222 13.1852 54.3222 11.8696V5.42969H56.5692Z" fill="#DA2128"/>
</svg>
