<svg width="250" height="67" viewBox="0 0 250 67" fill="none" xmlns="http://www.w3.org/2000/svg">
    <g clip-path="url(#clip0_7094_24761)">
        <path
            d="M77.3477 37.065L79.2089 33.3008C80.2553 34.2258 81.4498 34.9677 82.8018 35.5264C84.1537 36.0851 85.3853 36.369 86.4965 36.369C87.4595 36.369 88.2096 36.2041 88.7559 35.8652C89.3022 35.5264 89.5708 35.041 89.5708 34.4182C89.5708 34.006 89.4504 33.6488 89.2004 33.3374C88.9504 33.026 88.617 32.7696 88.1911 32.5772C87.7651 32.3849 87.2836 32.1926 86.7372 32.0277C86.1909 31.8629 85.6168 31.6888 85.0056 31.5057C84.4037 31.3225 83.7926 31.1393 83.1722 30.9561C82.561 30.773 81.9776 30.5257 81.4313 30.2143C80.885 29.9029 80.3942 29.5457 79.9682 29.1519C79.5423 28.758 79.1996 28.2451 78.9496 27.6315C78.6996 27.0179 78.5792 26.3218 78.5792 25.5525C78.5792 23.7207 79.3108 22.2553 80.7646 21.1654C82.2184 20.0755 84.1445 19.5352 86.552 19.5352C87.9781 19.5352 89.3763 19.7366 90.7561 20.1305C92.1358 20.5243 93.3581 21.0647 94.4045 21.7424L92.608 25.5525C91.5246 24.9114 90.3857 24.4076 89.2004 24.023C88.0151 23.6383 87.0058 23.4551 86.1631 23.4551C85.3205 23.4551 84.7186 23.6016 84.2463 23.8764C83.7741 24.1603 83.5426 24.5725 83.5426 25.122C83.5426 25.525 83.6722 25.8822 83.9222 26.1936C84.1722 26.505 84.5149 26.7614 84.9501 26.9538C85.3853 27.1553 85.8761 27.3384 86.4224 27.5033C86.9687 27.6681 87.5521 27.8422 88.154 28.0253C88.7559 28.2085 89.3671 28.4008 89.969 28.6023C90.5709 28.8038 91.1542 29.0694 91.7006 29.3808C92.2469 29.7014 92.7377 30.0586 93.1636 30.4707C93.5896 30.8829 93.923 31.3958 94.1637 32.0186C94.4045 32.6414 94.5341 33.3466 94.5341 34.1342C94.5341 35.4348 94.173 36.5521 93.4507 37.4955C92.7284 38.4389 91.7654 39.1349 90.5709 39.5929C89.3763 40.0508 87.9966 40.2798 86.4502 40.2798C84.7834 40.2798 83.1536 39.9958 81.5424 39.4188C79.9404 38.8418 78.5422 38.0542 77.3477 37.065Z"
            fill="white" />
        <path
            d="M96.4062 32.3572C96.4062 29.9484 97.1656 28.0068 98.6749 26.5231C100.184 25.0485 102.157 24.3066 104.583 24.3066C107.314 24.3066 109.352 25.1401 110.676 26.7978C111.824 28.2449 112.407 30.1499 112.407 32.5404C112.407 32.8976 112.389 33.2731 112.361 33.6669H100.999C101.268 34.6377 101.758 35.4071 102.481 35.9566C103.203 36.5061 104.073 36.79 105.083 36.79C106.638 36.79 107.972 36.2405 109.102 35.1506L111.481 37.5319C109.805 39.4003 107.537 40.3253 104.703 40.3253C102.175 40.3253 100.166 39.6018 98.6657 38.1364C97.1656 36.6801 96.4155 34.7568 96.4155 32.3664L96.4062 32.3572ZM100.916 31.02H108.129C108.102 30.0583 107.768 29.289 107.139 28.712C106.509 28.135 105.666 27.8419 104.629 27.8419C103.592 27.8419 102.823 28.1258 102.166 28.7028C101.508 29.2799 101.092 30.0492 100.916 31.02Z"
            fill="white" />
        <path
            d="M113.916 35.2691C113.916 33.8495 114.434 32.7321 115.48 31.9353C116.527 31.1385 118.018 30.7355 119.944 30.7263H124.305V30.4424C124.305 29.5998 124.027 28.9495 123.472 28.5007C122.916 28.052 122.092 27.823 120.999 27.823C119.527 27.823 117.953 28.2809 116.277 29.1877L114.869 26.1012C116.129 25.4875 117.305 25.0296 118.407 24.7365C119.509 24.4434 120.722 24.2969 122.036 24.2969C124.148 24.2969 125.787 24.7914 126.944 25.7806C128.111 26.7697 128.704 28.1527 128.722 29.9204L128.75 40.1599H124.342V38.1175C123.24 39.6103 121.564 40.3614 119.333 40.3614C117.666 40.3614 116.342 39.8943 115.369 38.9509C114.397 38.0075 113.906 36.7894 113.906 35.2782L113.916 35.2691ZM118.138 35.0126C118.138 35.5622 118.36 35.9926 118.805 36.3223C119.249 36.6521 119.851 36.8169 120.62 36.8169C121.573 36.8169 122.388 36.6063 123.083 36.2033C123.777 35.8003 124.185 35.2782 124.314 34.6646V33.3915H120.749C119.86 33.3915 119.203 33.5198 118.777 33.7854C118.351 34.0418 118.138 34.4539 118.138 35.0218V35.0126Z"
            fill="white" />
        <path
            d="M132.25 40.1423V24.4533H136.787V27.1643C137.908 25.2684 139.658 24.3068 142.028 24.2793V28.3366C141.778 28.3183 141.538 28.3092 141.297 28.3092C140.038 28.3092 139.01 28.6297 138.213 29.28C137.26 30.0493 136.787 31.1209 136.787 32.4856V40.1423H132.25Z"
            fill="white" />
        <path
            d="M143.178 32.367C143.178 29.9674 143.928 28.0165 145.419 26.542C146.909 25.0583 148.873 24.3164 151.317 24.3164C152.827 24.3164 154.169 24.6003 155.345 25.1773C156.521 25.7452 157.466 26.5603 158.179 27.6227L155.114 29.8117C154.216 28.7035 153.04 28.1448 151.604 28.1448H151.493C150.382 28.1448 149.475 28.5294 148.771 29.2988C148.067 30.0681 147.724 31.0847 147.724 32.3303C147.724 33.5759 148.076 34.6109 148.771 35.3985C149.475 36.1862 150.382 36.58 151.493 36.58C153.151 36.58 154.382 35.9664 155.179 34.7482L158.299 36.8548C157.623 37.9538 156.688 38.8056 155.475 39.4101C154.262 40.0145 152.854 40.3168 151.243 40.3168C148.836 40.3168 146.891 39.5841 145.409 38.1187C143.928 36.6533 143.187 34.7391 143.187 32.367H143.178Z"
            fill="white" />
        <path
            d="M160.762 40.1422V18.5H165.299V27.1642C166.41 25.2683 168.234 24.3067 170.781 24.2792C172.568 24.2792 173.985 24.8195 175.041 25.9094C176.096 26.9993 176.624 28.4556 176.624 30.2873V40.1422H172.087V31.5329C172.087 30.5346 171.809 29.7561 171.253 29.17C170.698 28.593 169.929 28.2999 168.966 28.2999C167.846 28.309 166.957 28.6845 166.299 29.4447C165.642 30.1957 165.308 31.1666 165.308 32.3481V40.133H160.771L160.762 40.1422Z"
            fill="white" />
        <path
            d="M5.36151 39.0245C3.69472 38.1178 2.37981 36.8722 1.42603 35.2786C0.472257 33.685 0 31.9082 0 29.939C0 27.9699 0.472257 26.1931 1.42603 24.5995C2.37981 23.0059 3.69472 21.7603 5.36151 20.8535C7.0283 19.9468 8.90807 19.498 10.9916 19.498C13.075 19.498 14.927 19.9468 16.5938 20.8535C18.2606 21.7603 19.5755 23.0059 20.52 24.5903C21.4646 26.1748 21.9368 27.9607 21.9368 29.939C21.9368 31.9173 21.4646 33.7033 20.52 35.2878C19.5755 36.8722 18.2699 38.1178 16.5938 39.0245C14.927 39.9313 13.0565 40.38 10.9916 40.38C8.92659 40.38 7.0283 39.9313 5.36151 39.0245ZM15.0752 36.7623C16.2882 36.0846 17.2328 35.1412 17.9365 33.9506C18.631 32.7508 18.9829 31.4228 18.9829 29.939C18.9829 28.4553 18.631 27.1273 17.9365 25.9275C17.242 24.7277 16.2882 23.7935 15.0752 23.1158C13.8621 22.438 12.5009 22.0991 10.9916 22.0991C9.48218 22.0991 8.10245 22.438 6.88014 23.1158C5.64857 23.7935 4.68553 24.7369 3.99104 25.9275C3.29654 27.1273 2.94466 28.4553 2.94466 29.939C2.94466 31.4228 3.29654 32.7508 3.99104 33.9506C4.68553 35.1504 5.64857 36.0846 6.88014 36.7623C8.11171 37.4401 9.48218 37.7789 10.9916 37.7789C12.5009 37.7789 13.8621 37.4401 15.0752 36.7623Z"
            fill="white" />
        <path
            d="M27.8812 39.2997C26.6311 38.6219 25.6588 37.6786 24.9458 36.488C24.242 35.2882 23.8809 33.9327 23.8809 32.4215C23.8809 30.9103 24.2327 29.5456 24.9458 28.355C25.6495 27.1552 26.6311 26.2301 27.8812 25.5524C29.1312 24.8838 30.548 24.5449 32.1407 24.5449C33.5575 24.5449 34.8169 24.8288 35.928 25.3875C37.0392 25.9554 37.9004 26.7705 38.5116 27.8329L36.3633 29.2067C35.8725 28.4649 35.2613 27.9153 34.5391 27.5398C33.8075 27.1735 33.0019 26.9903 32.1222 26.9903C31.1036 26.9903 30.1776 27.2101 29.3627 27.6589C28.5479 28.1077 27.9089 28.7396 27.4459 29.5639C26.9829 30.3882 26.7514 31.3407 26.7514 32.4031C26.7514 33.4656 26.9829 34.4455 27.4459 35.279C27.9089 36.1124 28.5479 36.7444 29.3627 37.1932C30.1776 37.642 31.0944 37.8618 32.1222 37.8618C33.0112 37.8618 33.8168 37.6786 34.5391 37.3031C35.2706 36.9367 35.8725 36.378 36.3633 35.6453L38.5116 36.9825C37.9004 38.0541 37.0392 38.8692 35.928 39.4462C34.8169 40.0232 33.5575 40.3072 32.1407 40.3072C30.548 40.3072 29.1312 39.9683 27.8812 39.2814V39.2997Z"
            fill="white" />
        <path
            d="M44.4847 39.2997C43.2346 38.6219 42.2623 37.6786 41.5493 36.488C40.8455 35.2882 40.4844 33.9327 40.4844 32.4215C40.4844 30.9103 40.8363 29.5456 41.5493 28.355C42.253 27.1552 43.2346 26.2301 44.4847 25.5524C45.7348 24.8838 47.1515 24.5449 48.7442 24.5449C50.161 24.5449 51.4204 24.8288 52.5316 25.3875C53.6428 25.9554 54.5039 26.7705 55.1151 27.8329L52.9668 29.2067C52.476 28.4649 51.8648 27.9153 51.1426 27.5398C50.411 27.1735 49.6054 26.9903 48.7257 26.9903C47.7071 26.9903 46.7811 27.2101 45.9663 27.6589C45.1514 28.1077 44.5124 28.7396 44.0495 29.5639C43.5865 30.3882 43.355 31.3407 43.355 32.4031C43.355 33.4656 43.5865 34.4455 44.0495 35.279C44.5124 36.1124 45.1514 36.7444 45.9663 37.1932C46.7811 37.642 47.6979 37.8618 48.7257 37.8618C49.6147 37.8618 50.4203 37.6786 51.1426 37.3031C51.8741 36.9367 52.476 36.378 52.9668 35.6453L55.1151 36.9825C54.5039 38.0541 53.6428 38.8692 52.5316 39.4462C51.4204 40.0232 50.161 40.3072 48.7442 40.3072C47.1515 40.3072 45.7348 39.9683 44.4847 39.2814V39.2997Z"
            fill="white" />
        <path
            d="M71.7917 24.6914V40.1514H69.1063V37.8159C68.5322 38.6127 67.7821 39.2264 66.8469 39.666C65.9116 40.1056 64.893 40.3254 63.7911 40.3254C61.7076 40.3254 60.0686 39.7576 58.8648 38.6219C57.6703 37.4862 57.0684 35.8102 57.0684 33.5937V24.7006H59.9019V33.2732C59.9019 34.7661 60.263 35.9017 60.9946 36.6711C61.7261 37.4404 62.7632 37.8251 64.1244 37.8251C65.6153 37.8251 66.8006 37.3763 67.6617 36.4879C68.5229 35.5903 68.9581 34.3264 68.9581 32.6962V24.7097H71.7917V24.6914Z"
            fill="white" />
        <path
            d="M243.839 26.3861C243.839 37.0265 235.115 45.6472 224.357 45.6472C221.809 45.6472 219.385 45.171 217.16 44.2843C210.403 41.6324 205.514 35.3434 204.933 27.8639C205.672 33.8984 210.86 38.57 217.16 38.57C223.46 38.57 228.541 33.9887 229.362 28.0445C229.437 27.5109 229.479 26.9443 229.479 26.3861C229.479 25.8278 229.437 25.2613 229.362 24.7112C228.723 17.3138 223.851 11.1069 217.16 8.4878C214.935 7.6011 212.495 7.1167 209.955 7.1167C199.537 7.1167 191.029 15.212 190.506 25.3926C191.029 11.2793 202.766 -0.00976562 217.16 -0.00976562C231.554 -0.00976562 243.291 11.2793 243.814 25.3926C243.831 25.721 243.839 26.0494 243.839 26.3861Z"
            fill="white" />
        <path
            d="M190.469 27.2104C190.469 16.5699 199.193 7.94922 209.951 7.94922C212.499 7.94922 214.923 8.42541 217.148 9.31211C223.905 11.964 228.794 18.253 229.375 25.7325C228.636 19.698 223.448 15.0264 217.148 15.0264C210.847 15.0264 205.767 19.6077 204.946 25.5519C204.871 26.0856 204.829 26.6521 204.829 27.2104C204.829 27.7687 204.871 28.3352 204.946 28.8853C205.585 36.2827 210.457 42.4896 217.148 45.1086C219.373 45.9953 221.813 46.4797 224.353 46.4797C234.771 46.4797 243.279 38.3845 243.802 28.2038C243.279 42.3172 231.542 53.6062 217.148 53.6062C202.754 53.6062 191.017 42.3172 190.494 28.2038C190.477 27.8754 190.469 27.547 190.469 27.2104Z"
            fill="white" />
        <path
            d="M189.469 66.6658C193.263 66.6658 196.339 63.6232 196.339 59.87C196.339 56.1168 193.263 53.0742 189.469 53.0742C185.674 53.0742 182.598 56.1168 182.598 59.87C182.598 63.6232 185.674 66.6658 189.469 66.6658Z"
            fill="white" />
    </g>
    <defs>
        <clipPath id="clip0_7094_24761">
            <rect width="250" height="66.6667" fill="white" />
        </clipPath>
    </defs>
</svg>
