<svg width="96" height="96" viewBox="0 0 96 96" fill="none" xmlns="http://www.w3.org/2000/svg">
<path d="M81 74.2516V32.0119C81 25.3882 75.6332 20 69.0359 20H26.9641C20.3668 20 15 25.3882 15 32.0119V74.2516C15 74.6634 15.3339 75 15.7455 75C16.157 75 16.4909 74.6647 16.4909 74.2516V66.5521H79.5104V74.2516C79.5104 74.6634 79.8443 75 80.2559 75C80.6674 75 81.0013 74.6647 81.0013 74.2516H81ZM79.5104 65.0552H16.4896V55.2873H79.5104V65.0552ZM24.9039 53.7917V48.9078C24.9039 44.6614 28.3446 41.2083 32.5728 41.2083H39.5843C43.8139 41.2083 47.2532 44.6627 47.2532 48.9078V53.7917H24.9039ZM48.7441 53.7917V48.9078C48.7441 44.6614 52.1848 41.2083 56.413 41.2083H63.4245C67.6541 41.2083 71.0934 44.6627 71.0934 48.9078V53.7917H48.7428H48.7441ZM79.5091 53.7917H72.5843V48.9078C72.5843 43.8377 68.4758 39.7114 63.4245 39.7114H56.413C53.2235 39.7114 50.2153 41.4221 48.5614 44.1769L47.9987 45.1141L47.436 44.1769C45.782 41.4234 42.7739 39.7114 39.5843 39.7114H32.5728C27.5229 39.7114 23.413 43.8364 23.413 48.9078V53.7917H16.4896V32.0119C16.4896 26.2132 21.1885 21.4955 26.9641 21.4955H69.0359C74.8115 21.4955 79.5104 26.2132 79.5104 32.0119V53.7917H79.5091Z" fill="white"/>
</svg>
