<svg width="377" height="214" viewBox="0 0 377 214" fill="none" xmlns="http://www.w3.org/2000/svg">
    <path d="M123.572 25.008C126.111 25.008 128.005 25.5587 129.256 26.66C130.525 27.7613 131.16 29.3293 131.16 31.364C131.16 32.2787 131.029 33.156 130.768 33.996C130.507 34.8173 130.077 35.564 129.48 36.236C128.901 36.8893 128.127 37.412 127.156 37.804C126.185 38.1773 124.991 38.364 123.572 38.364H122.06V45H116.656V25.008H123.572ZM123.46 29.376H122.06V33.968H123.124C123.591 33.968 124.02 33.8933 124.412 33.744C124.823 33.576 125.149 33.3147 125.392 32.96C125.635 32.5867 125.756 32.1013 125.756 31.504C125.756 30.8693 125.569 30.356 125.196 29.964C124.823 29.572 124.244 29.376 123.46 29.376ZM140.899 25.008C142.71 25.008 144.213 25.232 145.407 25.68C146.621 26.128 147.526 26.7907 148.123 27.668C148.739 28.5267 149.047 29.6093 149.047 30.916C149.047 31.7187 148.907 32.456 148.627 33.128C148.366 33.8 147.983 34.3973 147.479 34.92C146.975 35.4427 146.369 35.9 145.659 36.292L151.483 45H145.351L141.123 37.72H139.751V45H134.347V25.008H140.899ZM140.815 29.096H139.751V33.66H140.759C141.319 33.66 141.805 33.5853 142.215 33.436C142.645 33.268 142.981 33.0067 143.223 32.652C143.466 32.2787 143.587 31.784 143.587 31.168C143.587 30.7387 143.494 30.3747 143.307 30.076C143.121 29.7587 142.822 29.516 142.411 29.348C142.001 29.18 141.469 29.096 140.815 29.096ZM172.001 34.976C172.001 36.5253 171.814 37.9347 171.441 39.204C171.067 40.4547 170.489 41.5373 169.705 42.452C168.921 43.3667 167.913 44.0667 166.681 44.552C165.467 45.0373 164.002 45.28 162.285 45.28C160.605 45.28 159.149 45.0373 157.917 44.552C156.703 44.0667 155.695 43.3667 154.893 42.452C154.109 41.5373 153.521 40.4547 153.129 39.204C152.755 37.9347 152.569 36.516 152.569 34.948C152.569 32.876 152.914 31.0747 153.605 29.544C154.295 27.9947 155.359 26.8 156.797 25.96C158.234 25.12 160.073 24.7 162.313 24.7C164.59 24.7 166.438 25.1293 167.857 25.988C169.294 26.828 170.339 28.0227 170.993 29.572C171.665 31.1027 172.001 32.904 172.001 34.976ZM158.253 34.976C158.253 36.1707 158.383 37.2067 158.645 38.084C158.925 38.9427 159.363 39.6053 159.961 40.072C160.558 40.5387 161.333 40.772 162.285 40.772C163.274 40.772 164.058 40.5387 164.637 40.072C165.234 39.6053 165.663 38.9427 165.925 38.084C166.186 37.2067 166.317 36.1707 166.317 34.976C166.317 33.1653 166.018 31.7373 165.421 30.692C164.823 29.6467 163.787 29.124 162.313 29.124C161.342 29.124 160.558 29.3667 159.961 29.852C159.363 30.3187 158.925 30.9907 158.645 31.868C158.383 32.7267 158.253 33.7627 158.253 34.976ZM192.612 25.008L186.06 45H179.704L173.18 25.008H179.256L181.972 35.144C182.065 35.5173 182.177 36.0027 182.308 36.6C182.438 37.1973 182.56 37.7947 182.672 38.392C182.802 38.9893 182.877 39.4747 182.896 39.848C182.933 39.4747 182.998 38.9987 183.092 38.42C183.204 37.8227 183.316 37.2347 183.428 36.656C183.558 36.0587 183.68 35.5733 183.792 35.2L186.564 25.008H192.612ZM203.989 45H193.573V41.92L196.065 40.968V29.012L193.573 28.088V25.008H203.989V28.088L201.497 29.012V40.968L203.989 41.92V45ZM224.077 34.584C224.077 36.8987 223.638 38.8307 222.761 40.38C221.902 41.9293 220.689 43.0867 219.121 43.852C217.553 44.6173 215.705 45 213.577 45H207.109V25.008H214.025C216.172 25.008 217.992 25.3813 219.485 26.128C220.978 26.856 222.117 27.9293 222.901 29.348C223.685 30.7667 224.077 32.512 224.077 34.584ZM218.477 34.78C218.477 33.5667 218.309 32.5587 217.973 31.756C217.656 30.9533 217.17 30.356 216.517 29.964C215.882 29.572 215.07 29.376 214.081 29.376H212.513V40.576H213.717C215.36 40.576 216.564 40.1 217.329 39.148C218.094 38.196 218.477 36.74 218.477 34.78ZM239.544 45H227.672V25.008H239.544V29.348H233.076V32.484H239.068V36.824H233.076V40.604H239.544V45ZM249.591 25.008C251.401 25.008 252.904 25.232 254.099 25.68C255.312 26.128 256.217 26.7907 256.815 27.668C257.431 28.5267 257.739 29.6093 257.739 30.916C257.739 31.7187 257.599 32.456 257.319 33.128C257.057 33.8 256.675 34.3973 256.171 34.92C255.667 35.4427 255.06 35.9 254.351 36.292L260.175 45H254.043L249.815 37.72H248.443V45H243.039V25.008H249.591ZM249.507 29.096H248.443V33.66H249.451C250.011 33.66 250.496 33.5853 250.907 33.436C251.336 33.268 251.672 33.0067 251.915 32.652C252.157 32.2787 252.279 31.784 252.279 31.168C252.279 30.7387 252.185 30.3747 251.999 30.076C251.812 29.7587 251.513 29.516 251.103 29.348C250.692 29.18 250.16 29.096 249.507 29.096Z" fill="#197BFF"/>
    <path fill-rule="evenodd" clip-rule="evenodd" d="M83.5853 83.1719C93.096 83.1719 100.811 90.8678 100.811 100.36C100.811 104.345 99.4418 108.015 97.1607 110.93L96.6896 110.543C97.9729 108.831 98.9164 106.853 99.4272 104.712C99.3437 104.774 99.2476 104.834 99.143 104.895C98.7527 105.11 98.3678 105.445 97.9365 105.558C97.2885 105.731 97.8788 104.895 97.6774 104.692C97.3448 104.345 96.7605 105.027 96.5571 105.242C96.0966 105.731 95.5898 106.017 94.9034 105.997C94.1938 105.977 93.5035 106.007 92.8681 106.344C92.7323 105.843 93.424 105.343 93.7234 105.047C93.9633 104.793 94.1037 104.507 94.1289 104.151C94.166 103.612 94.1905 103.55 93.956 102.796C93.7486 102.153 92.7422 101.816 92.5097 102.031C92.2778 102.244 92.8827 102.948 92.717 103.092C92.5527 103.244 92.0088 102.714 91.5708 102.897C91.1587 103.082 90.4041 102.234 90.0728 101.889C89.6839 101.481 89.2149 101.02 89.0433 100.471C88.8856 99.9209 88.9055 99.3795 88.6199 98.8705C88.339 98.3615 87.9965 97.8624 87.8878 97.2906C87.7891 96.7505 87.8229 96.3836 87.4572 95.9354C87.1405 95.5375 86.7376 95.2314 86.3911 94.8639C86.0526 94.5168 85.9108 94.2312 86.523 94.3449C86.7363 94.3753 87.1537 94.3449 87.3326 94.4771C87.6023 94.6715 87.907 94.8229 88.2164 94.9452C88.1469 94.7521 88.0501 94.5585 87.8838 94.3548C87.4803 93.8657 85.7074 93.3144 85.6769 92.6837C85.659 92.2758 85.1582 91.9394 84.7898 91.552C84.6805 91.4277 84.4254 91.4277 84.3618 91.4601C84.2008 91.5408 84.165 91.6631 84.0219 91.8257C83.9477 91.909 83.8125 92.1727 83.6847 92.3466C83.5568 92.5191 83.3322 92.8252 83.1248 92.968C81.9965 93.7625 80.4793 94.497 79.8976 95.751C79.787 95.9863 78.5374 96.6798 78.2618 96.9435C77.8199 97.3507 77.384 97.7586 76.9288 98.1559C76.4617 98.5545 76.0019 98.9617 75.5289 99.3597C75.5289 99.3597 74.9518 99.6651 74.3701 100.206C73.8043 100.737 73.2557 100.747 72.7396 100.909C72.1552 101.094 71.0528 101.653 70.8083 101.552C70.3697 101.378 72.0327 99.9209 71.8975 99.5434C71.769 99.1871 72.0963 98.5743 71.7253 98.493C71.1117 98.341 71.4039 97.4545 71.1747 97.3104C70.958 97.1795 70.7374 97.3712 70.5327 97.5153C70.0093 97.8617 69.1082 98.9412 69.1082 98.9412C68.1853 100.165 67.7712 100.96 67.5917 101.98C67.5082 102.448 67.4724 102.857 67.4572 103.194C67.483 103.386 67.5128 103.58 67.5453 103.773C68.0005 103.479 68.6756 103.326 69.087 103.153C69.8735 102.836 70.5691 102.142 71.4635 102.142C72.2453 102.132 73.0463 102.122 73.7765 101.806C74.3979 101.531 74.9703 101.094 75.6647 101.02C75.5845 101.492 73.1663 103.376 73.7334 103.682C73.8023 103.722 73.8712 103.743 73.9441 103.764C74.1746 103.794 75.2201 103.591 75.3473 103.621C75.3957 103.631 75.4381 103.642 75.4812 103.662C75.511 103.672 75.5315 103.682 75.5481 103.692H75.554C76.8573 104.548 75.7535 104.07 75.2314 104.284C74.6788 104.497 73.2405 104.814 72.4143 105.201C71.1137 105.792 69.3083 105.201 68.3516 104.895C68.0621 104.804 67.8865 104.754 67.7408 104.723C68.2443 106.833 69.1672 108.77 70.4194 110.461L69.9477 110.849C67.6997 107.944 66.3594 104.314 66.3594 100.359C66.3594 90.8672 74.0713 83.1719 83.5846 83.1719M145.871 106.112H143.043V99.7569H144.111V105.158H145.871V106.112ZM108.92 110.879C109.566 111.132 109.894 111.692 109.894 112.45C109.894 113.674 109.219 114.29 107.992 114.29H106.343V107.935H108.011C109.023 107.935 109.716 108.505 109.716 109.543C109.716 110.206 109.426 110.655 108.92 110.879ZM107.411 110.496H107.871C108.405 110.496 108.676 110.188 108.676 109.646C108.676 109.094 108.377 108.842 107.871 108.842H107.411V110.496ZM107.89 113.384C108.554 113.384 108.835 113.067 108.835 112.403C108.835 111.768 108.526 111.412 107.89 111.412H107.411V113.384H107.89ZM108.901 99.7569H109.969V106.112H108.901V103.354H107.411V106.112H106.343V99.7569H107.411V102.402H108.901V99.7569ZM113.841 107.935H117.381V108.889H116.145V114.29H115.078V108.889H113.841V107.935ZM111.479 113.338H113.446V114.29H110.411V107.935H113.361V108.889H111.479V110.59H113.156V111.524H111.479V113.338ZM88.706 107.82C89.515 107.382 90.3186 107.403 91.2349 108.076C92.5044 108.993 98.6169 114.182 98.6169 114.182L96.8506 115.681C96.8506 115.681 95.8667 114.815 94.6629 113.764C94.0779 114.283 93.4114 114.764 92.672 115.171C91.9246 115.579 91.1687 115.894 90.418 116.119C90.6691 117.689 90.8732 118.973 90.8732 118.973L88.6656 119.677C88.6656 119.677 87.5121 111.756 87.3982 110.186C87.3174 109.053 87.7308 108.362 88.5364 107.914C88.5364 107.914 88.5696 107.893 88.6166 107.871C88.6656 107.851 88.7021 107.83 88.706 107.82ZM91.6676 113.377C92.24 113.06 92.672 112.725 93.0357 112.358C91.7067 111.196 90.5022 110.145 90.3491 110.012C89.994 109.706 89.8145 109.636 89.6515 109.727C89.4845 109.829 89.4507 110.012 89.5183 110.481C89.5528 110.664 89.7999 112.245 90.0748 113.989C90.5837 113.875 91.0938 113.693 91.6676 113.377ZM82.3689 108.688H84.648V119.973H82.3689V108.688ZM78.4109 107.924C79.2146 108.372 79.6207 109.065 79.5365 110.197C79.4259 111.757 78.2565 119.678 78.2565 119.678L76.0523 118.974C76.0523 118.974 76.259 117.69 76.5147 116.109C75.7641 115.895 75.0075 115.58 74.2674 115.172C73.5201 114.754 72.8575 114.284 72.2672 113.765C71.064 114.805 70.0828 115.66 70.0828 115.66L68.3158 114.162C68.3158 114.162 74.4377 108.994 75.7091 108.077C76.6293 107.403 77.4303 107.383 78.24 107.83C78.2393 107.83 78.238 107.828 78.2366 107.82C78.2406 107.83 78.2751 107.851 78.3208 107.871C78.3692 107.893 78.4109 107.924 78.4109 107.924V107.924ZM78.2406 107.83C78.24 107.83 78.24 107.83 78.24 107.83H78.2406ZM77.4184 110.482C77.4893 110.013 77.4549 109.819 77.2899 109.728C77.1229 109.636 76.9467 109.707 76.5863 110.013C76.4372 110.135 75.2314 111.186 73.8957 112.349C74.2594 112.726 74.6914 113.051 75.2605 113.367C75.8323 113.683 76.3431 113.876 76.8559 113.99C77.1349 112.245 77.3913 110.665 77.4184 110.482ZM113.857 106.112H110.822V99.7576H113.773V100.711H111.89V102.411H113.566V103.346H111.89V105.159H113.857V106.112ZM135.378 106.112H132.343V99.7576H135.294V100.711H133.411V102.411H135.088V103.346H133.411V105.159H135.378V106.112ZM89.1811 104.589C89.5057 104.763 88.3496 104.774 87.9309 104.946C87.208 105.242 86.3752 105.324 85.9552 105.212C85.3576 105.047 84.8189 105.1 84.4565 105.558C83.9245 106.219 81.332 105.731 80.4893 105.65C80.3362 105.64 79.9924 105.528 79.9274 105.455C79.8632 105.384 79.7333 105.324 79.9804 105.141C80.2256 104.956 82.2317 104.712 82.5405 104.589C83.2401 104.305 83.3143 104.039 83.6959 103.621C83.9888 103.304 85.1197 102.978 84.3061 102.307C84.0577 102.102 83.6588 102.428 83.4561 102.061C83.2474 101.684 83.2838 101.266 83.0003 100.899C82.7551 100.583 82.4616 100.339 82.1595 100.084C81.5646 99.5745 81.0816 98.9207 80.4893 98.4117C80.0288 98.0151 79.4047 98.0547 78.8482 97.9126C78.0346 97.7077 79.2815 97.3203 79.5259 97.2694C80.3607 97.087 81.0266 96.5356 81.7666 96.1476C82.2192 95.905 82.6246 95.3127 83.1686 95.3325C83.423 95.353 83.7867 95.353 83.527 95.6492C83.2971 95.905 83.2693 96.2818 83.0738 96.5561C82.7525 97.0341 81.9654 97.1683 81.8978 97.8194C81.7488 99.2783 83.9106 100.359 84.8242 101.074C85.3377 101.471 85.6438 101.96 85.8459 102.57C86.0579 103.214 86.474 103.59 86.6694 103.764C87.3803 104.417 88.7829 103.814 89.1811 104.589ZM98.7468 100.38C99.1609 100.288 99.5339 100.103 99.7969 99.7569C99.1224 91.5408 92.1234 85.079 83.5853 85.079C74.9584 85.079 67.9037 91.6631 67.3499 100.002C67.7361 99.6254 68.1111 99.2579 68.4808 98.9108C68.9439 98.4725 69.5647 97.9225 70.104 97.5966C70.75 97.1993 70.7765 96.9329 71.2323 97.1993C71.2979 97.2298 71.3814 97.2899 71.5503 97.3818C71.7438 97.4955 71.6974 97.5352 72.3096 97.9225C72.7873 98.2068 73.2544 98.6351 73.8096 98.7482C74.0448 98.7892 74.2999 98.8705 74.549 98.9617C75.0207 98.6153 75.6461 98.0957 76.098 97.7586C76.5816 97.4016 77.0428 97.0242 77.5132 96.6368C77.8113 96.4041 79.1046 95.8006 79.2298 95.5778C79.9043 94.3654 81.4672 93.7526 82.6531 93.0281C82.8711 92.9065 83.156 92.6427 83.3832 92.4378C83.5012 92.3261 83.6463 92.1212 83.6893 92.0511C83.8457 91.7953 84.0067 91.5209 84.1822 91.2962C84.2458 91.2248 84.3287 91.1944 84.5162 91.2347C84.9528 91.316 85.4212 91.5315 85.6206 91.6935C86.7999 92.6632 88.0177 93.0711 89.4362 93.6211C90.2444 93.9364 90.6069 94.1096 91.2018 94.7422C91.649 95.2109 91.7636 95.9757 92.2128 96.4246C93.3319 97.5352 94.4403 97.8399 95.6481 98.6351C96.8532 99.4304 97.2991 100.686 98.7468 100.38ZM121.986 106.112H119.157V99.7569H120.226V105.158H121.986V106.112ZM149.949 102.504V103.364C149.949 105.654 149.274 106.205 148.196 106.205C147.12 106.205 146.445 105.654 146.445 103.364V102.504C146.445 100.214 147.12 99.6631 148.196 99.6631C149.274 99.6631 149.949 100.214 149.949 102.504ZM148.88 102.533C148.88 101.402 148.815 100.645 148.196 100.645C147.579 100.645 147.513 101.402 147.513 102.533V103.336C147.513 104.467 147.579 105.224 148.196 105.224C148.815 105.224 148.88 104.467 148.88 103.336V102.533ZM146.42 110.646C147.253 111.29 147.693 111.702 147.693 112.674C147.693 113.767 147.065 114.375 146.016 114.375C144.892 114.375 144.358 113.702 144.358 112.721V112.487H145.361C145.379 113.029 145.605 113.421 146.054 113.421C146.447 113.421 146.644 113.178 146.644 112.739C146.644 112.179 146.241 111.87 145.754 111.487L145.417 111.225C144.798 110.749 144.415 110.272 144.415 109.468C144.415 108.44 145.024 107.851 145.997 107.851C147.065 107.851 147.59 108.468 147.59 109.375V109.589H146.579C146.541 109.141 146.41 108.805 145.988 108.805C145.66 108.805 145.464 109.047 145.464 109.412C145.464 109.805 145.707 110.094 146.082 110.385L146.42 110.646ZM141.956 113.338H143.923V114.291H140.888V107.935H143.838V108.889H141.956V110.59H143.632V111.524H141.956V113.338ZM138.385 112.711C138.731 111.263 139.097 109.459 139.33 107.935H140.37C140.015 109.992 139.481 112.459 139.012 114.048C138.956 114.225 138.909 114.291 138.684 114.291H138.038C137.822 114.291 137.766 114.225 137.72 114.066C137.251 112.459 136.717 109.992 136.362 107.935H137.439C137.663 109.459 138.038 111.263 138.385 112.711ZM141.331 105.312C141.331 106.044 140.785 106.623 140.617 106.853H140.172C140.227 106.559 140.447 105.979 140.447 105.257V105.018H141.331V105.312ZM153.264 99.7569H154.275V106.112H153.311L151.662 102V106.112H150.65V99.7569H151.709L153.264 103.635V99.7569ZM168.359 105.018V105.312C168.359 106.044 167.813 106.623 167.646 106.853H167.201C167.256 106.559 167.476 105.979 167.476 105.257V105.018L168.359 105.018ZM165.697 103.252C166.137 104.103 166.623 105.476 166.773 106.112H165.705C165.508 105.466 165.096 104.299 164.722 103.504H164.244V106.112H163.176V99.7569H164.769C166.005 99.7569 166.577 100.476 166.577 101.607C166.577 102.383 166.277 102.972 165.697 103.252ZM164.731 102.57C165.275 102.57 165.518 102.196 165.518 101.616C165.518 101.047 165.275 100.672 164.731 100.672H164.244V102.57H164.731ZM156.692 102.626H158.434V103.869C158.434 105.691 157.816 106.214 156.729 106.214C155.652 106.214 154.978 105.663 154.978 103.401V102.495C154.978 100.206 155.69 99.6538 156.748 99.6538C157.947 99.6538 158.359 100.458 158.359 101.318V101.523H157.366C157.31 100.934 157.16 100.635 156.739 100.635C156.205 100.635 156.045 101.131 156.045 102.523V103.346C156.045 104.747 156.205 105.233 156.739 105.233C157.292 105.233 157.413 104.719 157.413 103.869V103.579H156.692V102.626ZM160.355 105.158H162.322V106.112H159.289V99.7569H162.239V100.71H160.355V102.411H162.033V103.346H160.355V105.158ZM128.251 99.7569H129.319V106.112H128.251V103.355H126.762V106.112H125.695V99.7569H126.762V102.402H128.251V99.7569ZM122.754 113.338H124.721V114.291H121.686V107.935H124.637V108.889H122.754V110.59H124.431V111.524H122.754V113.338ZM121.452 99.7569H124.992V100.71H123.756V106.112H122.688V100.71H121.452V99.7569ZM137.215 106.112H136.148V99.7569H137.74C138.976 99.7569 139.548 100.476 139.548 101.607C139.548 102.383 139.248 102.972 138.667 103.252C139.108 104.103 139.595 105.476 139.744 106.112H138.676C138.48 105.466 138.068 104.299 137.693 103.504H137.215V106.112ZM137.215 102.57H137.703C138.246 102.57 138.49 102.196 138.49 101.616C138.49 101.047 138.246 100.672 137.703 100.672H137.215V102.57ZM128.891 109.786C128.891 110.562 128.591 111.15 128.01 111.431C128.45 112.281 128.937 113.655 129.087 114.291H128.02C127.823 113.646 127.411 112.478 127.036 111.684H126.558V114.291H125.49V107.935H127.083C128.319 107.935 128.891 108.655 128.891 109.786ZM127.046 110.749C127.589 110.749 127.832 110.375 127.832 109.796C127.832 109.225 127.589 108.851 127.046 108.851H126.558V110.749H127.046ZM117.666 107.935H121.207V108.889H119.97V114.291H118.902V108.889H117.666V107.935ZM132.29 113.338H134.051V114.291H131.222V107.935H132.29V113.338ZM134.753 107.935H135.82V114.291H134.753V107.935ZM117.238 99.9526C117.707 101.589 118.25 104.074 118.606 106.112H117.52C117.454 105.663 117.379 105.187 117.285 104.71H115.646C115.562 105.187 115.478 105.663 115.412 106.112H114.373C114.728 104.074 115.262 101.579 115.74 99.9526C115.777 99.8125 115.843 99.7569 116.068 99.7569H116.92C117.135 99.7569 117.201 99.8125 117.238 99.9526ZM117.117 103.775C116.911 102.71 116.677 101.663 116.47 100.794C116.255 101.663 116.03 102.71 115.824 103.775H117.117ZM131.365 106.112H130.298V99.7569H131.365V106.112Z" fill="#D4003B"/>
    <path d="M198.359 107.084C198.532 106.723 198.629 106.336 198.754 105.962C199.744 102.99 200.731 100.017 201.715 97.0445C201.766 96.8897 201.808 96.7318 201.834 96.5706C201.904 96.1482 201.702 95.8903 201.276 95.8548C201.125 95.8419 200.975 95.8452 200.827 95.8484C200.747 95.8484 200.715 95.8226 200.718 95.742C200.722 95.4454 200.718 95.152 200.718 94.8554C200.718 94.7813 200.741 94.7522 200.815 94.7587C200.834 94.7587 200.853 94.7587 200.872 94.7587C202.391 94.7587 203.914 94.7587 205.433 94.7587C206.045 94.7587 206.446 95.0811 206.625 95.7065C207.388 98.3921 208.151 101.078 208.914 103.763C209.218 104.837 209.52 105.907 209.824 106.981C209.84 107.036 209.863 107.087 209.85 107.158H209.648C208.709 107.158 207.77 107.155 206.834 107.161C206.664 107.161 206.59 107.126 206.542 106.949C206.315 106.081 206.065 105.224 205.834 104.356C205.792 104.199 205.722 104.157 205.565 104.157C204.526 104.163 203.488 104.163 202.449 104.157C202.318 104.157 202.257 104.186 202.215 104.324C201.962 105.201 201.696 106.075 201.44 106.955C201.398 107.103 201.34 107.161 201.177 107.158C200.238 107.148 199.298 107.155 198.363 107.152V107.078L198.359 107.084ZM204.125 97.6667C204.1 97.6893 204.084 97.6957 204.081 97.7054C203.641 99.1401 203.202 100.575 202.763 102.009C202.725 102.132 202.789 102.129 202.875 102.129C203.645 102.129 204.414 102.129 205.183 102.129C205.295 102.129 205.321 102.103 205.292 101.99C204.904 100.552 204.52 99.1143 204.129 97.6667H204.125Z" fill="#213F7D"/>
    <path d="M274.805 101.64C274.77 104.103 274.003 106.338 272.276 108.191C271.003 109.558 269.433 110.435 267.619 110.838C265.353 111.341 263.141 111.164 261.039 110.145C258.49 108.91 256.859 106.882 256.157 104.142C255.551 101.779 255.731 99.4544 256.801 97.246C258.026 94.7216 260.032 93.0999 262.731 92.3939C265.029 91.791 267.298 91.9425 269.465 92.9549C272.119 94.1929 273.769 96.2852 274.503 99.1159C274.715 99.9283 274.792 100.757 274.802 101.64H274.805ZM265.183 109.565C265.856 109.562 266.385 109.52 266.907 109.417C269.462 108.904 271.34 107.498 272.439 105.113C273.221 103.413 273.369 101.618 272.997 99.7962C272.523 97.462 271.269 95.663 269.16 94.5282C267.455 93.6093 265.628 93.3837 263.741 93.7415C261.199 94.2187 259.333 95.6243 258.221 97.9778C257.5 99.4963 257.317 101.112 257.532 102.772C257.776 104.661 258.551 106.289 259.968 107.579C261.484 108.959 263.301 109.545 265.183 109.571V109.565Z" fill="#213F7D"/>
    <path d="M237.657 99.0745C237.913 98.8682 238.134 98.678 238.365 98.5006C239.217 97.8558 240.179 97.6205 241.23 97.801C242.266 97.9784 242.855 98.6683 242.932 99.7258C242.961 100.145 242.971 100.564 242.971 100.986C242.971 102.985 242.971 104.981 242.971 106.98C242.971 107.128 242.932 107.163 242.788 107.163C241.948 107.157 241.112 107.157 240.272 107.163C240.112 107.163 240.064 107.134 240.067 106.964C240.073 105.068 240.073 103.169 240.07 101.273C240.07 101.099 240.06 100.922 240.041 100.748C239.993 100.261 239.775 100.08 239.285 100.097C238.689 100.116 238.227 100.393 237.826 100.812C237.753 100.886 237.769 100.973 237.769 101.06C237.769 103.014 237.769 104.968 237.769 106.922C237.769 107.085 237.684 107.167 237.516 107.167C236.701 107.167 235.887 107.163 235.076 107.17C234.913 107.17 234.858 107.138 234.858 106.96C234.865 104.562 234.862 102.16 234.862 99.7612C234.862 99.7161 234.862 99.6742 234.862 99.629C234.862 99.1487 234.682 98.952 234.201 98.9391C234.041 98.9359 233.999 98.8907 234.009 98.736C234.022 98.491 234.016 98.2459 234.009 98.0009C234.009 97.8978 234.038 97.8591 234.147 97.8623C235.028 97.8655 235.913 97.8591 236.794 97.8655C237.381 97.872 237.657 98.1686 237.657 98.765C237.657 98.8617 237.657 98.9584 237.657 99.0842V99.0745Z" fill="#213F7D"/>
    <path d="M286.196 98.1209C286.023 97.9436 285.85 97.7662 285.667 97.5954C284.664 96.6572 282.533 96.6121 281.747 98.511C281.481 99.1526 281.366 99.8199 281.331 100.507C281.279 101.461 281.331 102.402 281.683 103.302C282.004 104.13 282.545 104.733 283.456 104.891C284.392 105.056 285.225 104.795 285.956 104.198C286.068 104.108 286.174 104.011 286.286 103.918C286.295 103.911 286.308 103.908 286.334 103.898C286.545 104.379 286.76 104.859 286.972 105.336C286.978 105.349 286.981 105.359 286.985 105.372C287.052 105.533 287.196 105.71 287.164 105.849C287.126 106.013 286.904 106.103 286.757 106.216C285.69 107.029 284.478 107.348 283.151 107.277C281.975 107.216 280.924 106.845 280.042 106.049C279.228 105.31 278.728 104.375 278.478 103.318C278.026 101.396 278.103 99.4975 278.92 97.6824C279.69 95.9705 281.01 94.9195 282.885 94.6583C284.469 94.4391 285.908 94.7583 287.09 95.9221C287.177 96.0092 287.19 96.064 287.138 96.1736C286.847 96.7829 286.565 97.3987 286.276 98.0113C286.257 98.0499 286.247 98.0951 286.199 98.1209H286.196Z" fill="#039582"/>
    <path d="M230.011 106.177C229.841 106.303 229.696 106.409 229.552 106.516C228.658 107.164 227.655 107.357 226.581 107.183C225.809 107.057 225.289 106.599 225.065 105.845C224.847 105.116 224.837 104.372 225.014 103.63C225.203 102.84 225.68 102.286 226.408 101.938C227.103 101.605 227.847 101.451 228.597 101.309C228.985 101.238 229.373 101.173 229.761 101.112C229.882 101.093 229.956 101.061 229.934 100.912C229.914 100.796 229.921 100.674 229.908 100.558C229.844 100.058 229.597 99.8226 229.091 99.8C228.087 99.7549 227.152 100.026 226.241 100.419C226.02 100.513 226.023 100.516 225.937 100.284C225.767 99.8193 225.607 99.3519 225.427 98.8908C225.373 98.7458 225.418 98.7006 225.536 98.6394C226.895 97.9462 228.344 97.6947 229.853 97.7205C230.222 97.727 230.591 97.7689 230.95 97.8527C231.927 98.0784 232.462 98.72 232.636 99.6904C232.703 100.055 232.729 100.425 232.732 100.796C232.732 102.279 232.732 103.762 232.732 105.242C232.732 105.336 232.735 105.429 232.745 105.523C232.78 105.945 232.956 106.122 233.376 106.129C233.523 106.129 233.555 106.177 233.549 106.312C233.539 106.545 233.543 106.777 233.549 107.009C233.549 107.112 233.53 107.151 233.418 107.147C232.562 107.144 231.703 107.147 230.847 107.144C230.35 107.141 230.091 106.893 230.03 106.399C230.02 106.332 230.02 106.264 230.011 106.171V106.177ZM229.934 103.617C229.934 103.353 229.934 103.092 229.934 102.827C229.934 102.75 229.934 102.689 229.825 102.711C229.257 102.834 228.693 102.963 228.168 103.221C227.927 103.34 227.78 103.53 227.722 103.791C227.661 104.062 227.658 104.336 227.68 104.613C227.728 105.136 227.969 105.339 228.485 105.284C228.978 105.232 229.373 104.981 229.745 104.671C229.879 104.559 229.953 104.443 229.937 104.256C229.918 104.043 229.934 103.83 229.934 103.617Z" fill="#213F7D"/>
    <path d="M295.857 103.474C295.857 104.783 295.857 105.87 295.857 106.956C295.857 107.098 295.828 107.15 295.671 107.15C294.902 107.14 294.132 107.143 293.363 107.15C293.235 107.15 293.19 107.117 293.197 106.982C293.206 106.743 293.2 106.505 293.197 106.266C293.197 106.221 293.222 106.16 293.155 106.137C293.097 106.118 293.062 106.163 293.03 106.202C292.745 106.527 292.424 106.798 292.02 106.963C291.261 107.266 290.479 107.337 289.684 107.15C288.854 106.953 288.337 106.418 288.132 105.589C287.972 104.945 287.975 104.293 288.152 103.655C288.424 102.668 289.116 102.088 290.039 101.743C290.854 101.44 291.703 101.363 292.562 101.334C292.693 101.33 292.825 101.327 292.956 101.334C293.059 101.34 293.104 101.314 293.097 101.201C293.088 101.069 293.097 100.937 293.088 100.805C293.052 100.247 292.764 99.9312 292.209 99.8571C291.427 99.7539 290.677 99.8925 289.953 100.183C289.693 100.286 289.44 100.415 289.19 100.544C289.078 100.602 289.043 100.573 289.007 100.466C288.844 99.9538 288.68 99.4412 288.511 98.9286C288.472 98.8125 288.488 98.7545 288.597 98.6932C289.421 98.2193 290.302 97.9194 291.241 97.7905C292.036 97.6809 292.834 97.6486 293.632 97.7873C293.979 97.8485 294.305 97.9678 294.616 98.1387C295.382 98.5642 295.716 99.2542 295.796 100.096C295.911 101.298 295.825 102.504 295.854 103.484L295.857 103.474ZM293.094 103.864C293.094 103.632 293.094 103.4 293.094 103.168C293.094 103.084 293.078 103.049 292.982 103.046C292.507 103.029 292.049 103.081 291.6 103.239C290.956 103.468 290.648 104.097 290.863 104.748C290.953 105.015 291.129 105.186 291.402 105.241C291.956 105.348 292.453 105.225 292.889 104.857C293.036 104.732 293.123 104.596 293.097 104.39C293.078 104.216 293.094 104.039 293.094 103.864Z" fill="#039582"/>
    <path d="M308.975 103.249C308.155 103.249 307.337 103.253 306.517 103.246C306.369 103.246 306.331 103.288 306.356 103.427C306.389 103.594 306.401 103.762 306.44 103.926C306.648 104.771 307.193 105.203 308.087 105.281C309.023 105.361 309.889 105.168 310.68 104.662C310.802 104.584 310.847 104.584 310.892 104.736C311.033 105.21 311.18 105.68 311.337 106.151C311.376 106.264 311.347 106.312 311.254 106.373C310.296 106.999 309.232 107.241 308.106 107.276C307.459 107.296 306.821 107.225 306.206 107.009C305.097 106.615 304.305 105.871 303.905 104.765C303.312 103.127 303.356 101.489 304.132 99.9255C304.86 98.4554 306.103 97.7461 307.731 97.6977C308.405 97.6784 309.055 97.7719 309.658 98.0814C310.514 98.5199 311.001 99.2581 311.292 100.148C311.61 101.122 311.651 102.131 311.639 103.143C311.639 103.282 311.546 103.249 311.472 103.249C310.639 103.249 309.808 103.249 308.975 103.249ZM307.626 101.508C308.007 101.508 308.389 101.508 308.767 101.508C308.863 101.508 308.905 101.486 308.895 101.383C308.866 101.06 308.857 100.735 308.757 100.419C308.61 99.9545 308.334 99.6354 307.828 99.5967C307.312 99.5548 306.898 99.7417 306.642 100.212C306.44 100.586 306.389 100.993 306.366 101.409C306.36 101.518 306.43 101.508 306.501 101.508C306.876 101.508 307.251 101.508 307.626 101.508Z" fill="#039582"/>
    <path d="M248.119 99.7698C247.375 99.7698 246.663 99.7602 245.952 99.7731C245.577 99.7795 245.394 99.9891 245.391 100.382C245.391 100.531 245.349 100.573 245.202 100.566C244.952 100.553 244.702 100.556 244.452 100.566C244.337 100.569 244.304 100.54 244.304 100.421C244.311 99.8859 244.304 99.3539 244.308 98.8188C244.308 98.1772 244.622 97.8612 245.266 97.8548C245.974 97.8483 246.68 97.8548 247.388 97.8548C248.644 97.8548 249.904 97.8548 251.16 97.8516C251.311 97.8516 251.346 97.8935 251.346 98.0386C251.337 98.5673 251.34 99.0928 251.346 99.6215C251.346 99.7408 251.311 99.8375 251.244 99.931C250.035 101.63 248.827 103.332 247.619 105.031C247.587 105.077 247.555 105.122 247.506 105.196H247.708C248.923 105.196 250.135 105.196 251.349 105.196C251.49 105.196 251.539 105.222 251.539 105.376C251.529 105.921 251.532 106.469 251.539 107.014C251.539 107.13 251.51 107.159 251.394 107.159C249.061 107.156 246.728 107.156 244.394 107.159C244.276 107.159 244.25 107.124 244.25 107.011C244.256 106.46 244.253 105.905 244.25 105.354C244.25 105.257 244.285 105.189 244.337 105.115C245.551 103.403 246.766 101.691 247.981 99.9794C248.022 99.9181 248.064 99.8569 248.125 99.7698H248.119Z" fill="#213F7D"/>
    <path d="M218.558 101.295C218.558 103.184 218.558 105.076 218.562 106.966C218.562 107.124 218.526 107.162 218.369 107.159C217.523 107.149 216.68 107.149 215.834 107.159C215.674 107.159 215.642 107.114 215.642 106.959C215.645 103.529 215.645 100.102 215.645 96.6715C215.645 96.6102 215.645 96.5458 215.645 96.4845C215.619 96.0235 215.437 95.8397 214.972 95.8462C214.805 95.8462 214.757 95.8042 214.767 95.6366C214.783 95.3916 214.776 95.1465 214.767 94.9015C214.767 94.7919 214.783 94.75 214.908 94.75C215.841 94.7564 216.773 94.75 217.706 94.7564C218.216 94.7597 218.555 95.1272 218.555 95.6592C218.555 97.5355 218.555 99.4151 218.555 101.291L218.558 101.295Z" fill="#213F7D"/>
    <path d="M213.622 101.327C213.622 103.204 213.622 105.083 213.625 106.96C213.625 107.111 213.596 107.16 213.433 107.16C212.59 107.15 211.744 107.15 210.901 107.16C210.747 107.16 210.708 107.124 210.708 106.966C210.715 103.539 210.711 100.109 210.711 96.6817C210.711 96.6236 210.711 96.5688 210.711 96.5108C210.699 96.0304 210.506 95.8402 210.026 95.8434C209.881 95.8434 209.83 95.8144 209.836 95.6597C209.849 95.3953 209.843 95.1309 209.836 94.8698C209.836 94.7827 209.859 94.7505 209.952 94.7505C210.904 94.7537 211.853 94.744 212.804 94.7569C213.304 94.7634 213.615 95.1341 213.619 95.6951C213.625 96.3915 213.619 97.0879 213.619 97.7875C213.619 98.9675 213.619 100.147 213.619 101.327H213.622Z" fill="#213F7D"/>
    <path d="M297.269 102.482C297.269 100.999 297.269 99.5157 297.266 98.0359C297.266 97.8876 297.304 97.8489 297.452 97.8489C298.214 97.8553 298.977 97.8553 299.743 97.8489C299.887 97.8489 299.923 97.8908 299.916 98.0294C299.907 98.3196 299.91 98.6065 299.916 98.8967C299.916 98.9547 299.881 99.0321 299.955 99.0643C300.041 99.103 300.073 99.016 300.109 98.9644C300.311 98.6807 300.541 98.4292 300.817 98.2196C301.391 97.7844 302.022 97.7103 302.702 97.9101C302.811 97.9424 302.83 98.0004 302.827 98.1004C302.823 98.8483 302.82 99.5963 302.827 100.344C302.827 100.496 302.795 100.525 302.65 100.48C302.147 100.318 301.637 100.27 301.118 100.383C300.743 100.467 300.429 100.667 300.137 100.912C300.051 100.983 300.073 101.07 300.073 101.153C300.073 103.014 300.073 104.871 300.073 106.731C300.073 107.013 299.934 107.153 299.657 107.153C298.926 107.153 298.192 107.147 297.461 107.157C297.301 107.157 297.266 107.108 297.266 106.957C297.272 105.467 297.269 103.981 297.269 102.491V102.482Z" fill="#039582"/>
    <path d="M223.578 102.885C223.578 104.242 223.575 105.596 223.582 106.953C223.582 107.134 223.527 107.166 223.364 107.163C222.543 107.153 221.726 107.153 220.905 107.163C220.729 107.163 220.678 107.131 220.678 106.94C220.684 104.561 220.681 102.182 220.681 99.8026C220.681 99.751 220.681 99.7026 220.681 99.651C220.662 99.1159 220.501 98.9482 219.969 98.9256C219.867 98.9224 219.825 98.8998 219.828 98.7902C219.835 98.5194 219.835 98.2518 219.828 97.981C219.828 97.8811 219.86 97.8521 219.957 97.8521C220.864 97.8553 221.771 97.8456 222.678 97.8585C223.248 97.8649 223.572 98.2196 223.572 98.7967C223.572 100.16 223.572 101.521 223.572 102.885H223.578Z" fill="#213F7D"/>
    <path d="M221.94 97.2458C221.645 97.2265 221.373 97.2007 221.113 97.0975C220.571 96.8815 220.283 96.4624 220.289 95.8788C220.292 95.3179 220.59 94.8826 221.132 94.6924C221.699 94.4958 222.276 94.4958 222.837 94.7085C223.34 94.8988 223.626 95.3211 223.629 95.8498C223.635 96.4527 223.376 96.8622 222.853 97.0814C222.552 97.2071 222.238 97.2297 221.94 97.2426V97.2458Z" fill="#213F7D"/>
    <path d="M266.693 101.537C266.693 103.265 266.693 104.99 266.696 106.718C266.696 106.899 266.642 106.931 266.478 106.931C265.703 106.921 264.927 106.921 264.151 106.931C263.981 106.931 263.933 106.889 263.933 106.715C263.94 103.568 263.936 100.422 263.936 97.275C263.936 97.1686 263.933 97.0623 263.924 96.9559C263.895 96.6238 263.786 96.5142 263.459 96.4852C263.237 96.4658 263.126 96.3444 263.126 96.1208C263.126 95.8952 263.132 95.6695 263.126 95.4438C263.119 95.3149 263.167 95.2891 263.286 95.2891C264.061 95.2923 264.837 95.2891 265.613 95.2891C266.392 95.2891 266.696 95.5889 266.696 96.3723C266.696 98.0939 266.696 99.8155 266.696 101.534L266.693 101.537Z" fill="#213F7D"/>
    <path d="M262.748 102.279C262.748 103.769 262.748 105.255 262.751 106.744C262.751 106.893 262.716 106.934 262.566 106.931C261.771 106.925 260.976 106.925 260.181 106.931C260.037 106.931 260.008 106.889 260.008 106.754C260.011 104.097 260.008 101.441 260.011 98.7843C260.011 98.6585 260.021 98.5328 260.037 98.4103C260.114 97.9009 260.37 97.6494 260.886 97.6301C261.466 97.6075 262.05 97.6236 262.63 97.6172C262.783 97.6172 262.742 97.7171 262.742 97.7977C262.742 98.9229 262.742 100.045 262.742 101.17C262.742 101.541 262.742 101.912 262.742 102.282L262.748 102.279Z" fill="#213F7D"/>
    <path d="M267.889 102.268C267.889 100.782 267.889 99.2925 267.886 97.8062C267.886 97.6514 267.921 97.6063 268.078 97.6095C268.604 97.6224 269.13 97.6095 269.655 97.6224C270.303 97.6386 270.604 97.9577 270.604 98.6219C270.604 100.45 270.604 102.275 270.604 104.103C270.604 104.989 270.601 105.873 270.607 106.759C270.607 106.911 270.553 106.93 270.425 106.93C269.636 106.924 268.848 106.924 268.059 106.93C267.918 106.93 267.883 106.895 267.883 106.753C267.889 105.26 267.886 103.764 267.886 102.271L267.889 102.268Z" fill="#213F7D"/>
    <path d="M19.4219 175.829H90.7109V139.977H19.4219V175.829Z" fill="#2BACE2"/>
    <path d="M55.4701 158.566C57.0902 158.566 57.9606 157.844 58.4865 157.022L58.4581 157.147C58.3053 157.919 58.9448 158.391 59.5453 158.391H60.0675L61.5171 150.103H59.7229L59.4849 151.368C59.1615 150.714 58.2484 149.932 56.7704 149.932C54.1626 149.932 52.6171 152.094 52.3577 154.395C52.0628 157.029 53.7505 158.566 55.4772 158.566M57.0298 151.283C60.0355 151.451 59.0585 157.229 56.003 157.058C53.2388 156.904 54.0986 151.118 57.0298 151.283ZM32.3016 149.542C32.3016 147.666 31.1042 146.794 29.0009 146.794C27.7076 146.794 25.6719 146.794 24.9328 146.794L22.8828 158.394C23.1351 158.394 25.3556 158.394 26.6098 158.394C27.459 158.394 28.2726 158.366 28.7273 158.269C30.8164 157.826 31.6656 156.297 31.8326 155.175C32.0671 153.62 31.09 152.594 29.9851 152.348C30.8164 152.165 32.3016 151.304 32.3016 149.546M27.9315 156.972C27.697 157.029 27.324 157.061 26.5459 157.061H25.1886L25.8744 153.173H27.8853C30.5393 153.173 30.2977 156.382 27.9315 156.976M28.7203 151.687C28.4644 151.772 28.1234 151.794 27.5051 151.794H26.1159L26.7662 148.081H28.5817C30.7596 148.081 30.5891 151.065 28.7167 151.683M40.2175 150.114H39.681C39.681 150.114 38.8922 154.671 38.8034 155.189C38.6115 156.304 38.0786 157.069 36.5757 157.069C35.723 157.069 34.8881 156.55 35.0835 155.385C35.1616 154.935 35.7266 151.626 35.7728 151.358C35.9291 150.464 35.1723 150.114 34.547 150.114H34.0745C33.9572 150.807 33.4385 153.716 33.2395 154.86C33.1578 155.317 33.1294 155.786 33.1649 156.086C33.3426 157.633 34.6927 158.577 36.3626 158.577C39.244 158.577 40.3311 157.061 40.6757 155.26C40.7894 154.667 41.3366 151.661 41.3793 151.358C41.5036 150.464 40.7717 150.114 40.2175 150.114ZM43.1841 161.668L44.019 157.097C44.3424 157.751 45.2697 158.58 46.7477 158.58C49.4088 158.58 51.0538 156.493 51.2208 154.045C51.3984 151.443 49.8778 149.95 48.1156 149.95C46.5878 149.95 45.5468 150.697 45.0174 151.476L45.0387 151.365C45.2057 150.564 44.5271 150.121 43.9516 150.121H43.3831C43.3831 150.121 41.8305 159.045 41.6208 160.117C41.3686 161.379 42.3883 161.675 42.7116 161.675H43.1841V161.668ZM47.5222 151.433C50.2864 151.586 49.4266 157.39 46.4919 157.226C43.4861 157.058 44.4632 151.265 47.5222 151.433ZM86.1707 161.886C85.3997 161.886 84.3516 161.843 83.7263 161.629C82.9873 161.375 82.3371 160.871 81.6479 160.335C81.3032 160.067 80.9444 159.792 80.5571 159.535C80.0881 159.22 79.6973 159.073 79.3243 159.073C78.8198 159.073 78.333 159.349 77.7361 159.967C76.9332 160.8 75.6506 162.69 75.1389 163.462C75.107 163.509 75.0608 163.562 74.9969 163.562C74.8725 163.562 74.8689 163.398 74.8689 163.344C74.844 161.182 74.5065 149.374 74.272 145.847C74.169 144.289 73.6858 143.32 73.0143 143.32C72.4743 143.32 71.6678 144.042 71.1597 146.076C69.8735 151.254 67.1271 162.765 65.944 168.612C65.9085 168.773 65.7273 168.773 65.6953 168.612C65.5639 168.015 65.4466 167.336 65.3365 166.764C64.9847 164.959 64.6792 163.405 64.0752 162.547C63.3895 161.572 62.3734 161.511 61.1441 162.333C60.8741 162.515 60.6111 162.74 60.334 162.98C59.5453 163.662 58.6535 164.438 57.1684 164.438H42.6725L42.3172 166.371H57.5698C59.1296 166.371 60.5756 165.467 61.4389 164.845C61.876 164.531 62.1815 164.345 62.4231 164.345C62.7571 164.345 62.9063 164.688 63.0306 165.203C63.091 165.456 63.1657 165.803 63.2509 166.207C63.5387 167.543 63.9757 169.645 64.5229 171.046C64.7822 171.696 65.1624 172.057 65.5958 172.057C66.2638 172.057 66.9424 171.264 67.3261 170.038C67.8413 168.401 70.9252 154.964 72.2256 149.331C72.2789 149.103 72.3073 148.97 72.3108 148.96C72.3321 148.86 72.3996 148.795 72.4778 148.795C72.5453 148.795 72.6235 148.853 72.6235 148.981V149.003C72.723 154.699 73.0072 164.702 73.4265 165.728C73.6574 166.296 74.0162 166.596 74.4604 166.596C74.9755 166.596 75.5902 166.182 76.0307 165.535C76.251 165.213 76.5317 164.788 76.8301 164.345C77.5656 163.244 78.4005 161.997 78.6456 161.732C79.0116 161.339 79.4344 161.339 80.0348 161.75C80.1237 161.811 80.2267 161.886 80.3475 161.975C80.987 162.444 82.0565 163.083 83.2609 163.416C84.0568 163.637 85.0835 163.684 85.8048 163.684C86.2702 163.684 86.764 163.666 86.9062 163.655L87.2366 161.865C87.0625 161.872 86.5935 161.886 86.1601 161.886" fill="white"/>
    <path d="M144.08 159.3H148.214V159.141C148.214 158.122 148.106 157.583 147.789 157.076C147.439 156.541 146.935 156.269 146.212 156.269C144.854 156.269 144.08 157.343 144.08 159.249V159.305M150.374 164.003L151.764 166.152C150.192 167.438 148.536 168.057 146.613 168.057C142.69 168.057 140.156 165.265 140.156 160.943C140.156 158.474 140.665 156.837 141.864 155.494C142.988 154.232 144.346 153.641 146.161 153.641C147.733 153.641 149.231 154.176 150.108 155.091C151.363 156.377 151.923 158.23 151.923 161.102V161.933H144.024V162.041C144.024 164.162 145.064 165.368 146.907 165.368C148.134 165.368 149.282 164.913 150.374 163.998V164.003Z" fill="#EF4035"/>
    <path d="M222.312 153.857H226.609L222.382 159.756L227.626 167.649H223.408L218.817 159.868L222.316 153.857M215.164 167.649V148.023H218.743V167.649H215.164Z" fill="#EF4035"/>
    <path d="M197.301 166.634C197.091 166.925 196.942 167.145 196.214 167.512C195.841 167.699 195.067 168 194.189 168C191.147 168 189.617 166.545 189.617 163.809C189.617 160.589 191.829 159.083 196.182 159.083C196.448 159.083 196.606 159.083 196.984 159.111V158.548C196.984 157.018 196.69 156.507 195.384 156.507C194.236 156.507 192.902 157.07 191.432 158.065L189.911 155.488C190.793 154.925 191.161 154.737 192.123 154.362C193.457 153.799 194.605 153.555 195.86 153.555C198.155 153.555 199.727 154.413 200.264 155.943C200.451 156.507 200.507 156.938 200.507 158.412L200.423 163.03C200.423 163.11 200.423 164.794 200.423 164.766C200.423 165.907 200.479 167.084 200.782 167.657H197.642C197.441 167.422 197.292 166.634 197.292 166.634M196.923 161.486H196.765C194.283 161.486 193.429 161.941 193.429 163.579C193.429 164.654 194.091 165.381 195.001 165.381C195.668 165.381 196.336 165.034 196.867 164.442L196.919 161.49L196.923 161.486Z" fill="#EF4035"/>
    <path d="M135.146 167.652V158.599C135.146 156.966 134.96 156.642 134.026 156.642C133.364 156.642 132.431 157.098 131.656 157.792V167.647H128.274V158.731C128.274 157.018 128.036 156.614 127.047 156.614C126.38 156.614 125.479 156.962 124.705 157.656V167.647H121.215V158.088C121.215 156.107 121.084 155.249 120.711 154.578L123.93 153.695C124.168 154.071 124.275 154.39 124.411 155.089C125.344 154.179 126.487 153.695 127.737 153.695C128.857 153.695 129.785 154.071 130.504 154.822C130.691 155.009 130.877 155.249 131.036 155.493C132.286 154.207 133.406 153.7 134.894 153.7C135.958 153.7 136.97 154.024 137.582 154.559C138.356 155.23 138.594 156.032 138.594 157.905V167.652H135.132" fill="#EF4035"/>
    <path d="M170.93 147.734C172.209 147.734 173.179 148.734 173.179 150.025C173.179 151.315 172.185 152.315 170.93 152.315C169.675 152.315 168.654 151.287 168.654 150.025C168.654 148.762 169.68 147.734 170.93 147.734ZM169.685 156.51C169.685 155.975 169.428 155.647 169.111 155.647C168.369 155.647 167.767 156.717 166.881 158.88L165.766 158.406C167.025 155.14 168.364 153.568 170.398 153.568C172.283 153.568 173.426 154.962 173.426 157.397C173.426 158.345 173.226 159.387 172.913 160.602L172.255 163.155C172.027 163.986 171.971 164.582 171.971 164.906C171.971 165.558 172.255 165.915 172.713 165.915C173.515 165.915 174.229 164.756 174.999 162.47L176.053 163.005C175.167 166.356 173.655 168.022 171.453 168.022C169.395 168.022 168.136 166.656 168.136 164.31C168.136 163.033 168.509 161.64 168.906 159.978L169.423 157.871C169.563 157.275 169.68 156.834 169.68 156.505L169.685 156.51Z" fill="#00A4E4"/>
    <path d="M201.922 154.587L205.146 153.705C205.314 153.953 205.636 154.723 205.636 155.282C206.461 154.69 206.625 154.582 207.208 154.263C207.926 153.888 208.864 153.672 209.662 153.672C211.188 153.672 212.517 154.479 212.947 155.657C213.133 156.169 213.212 156.755 213.212 157.619V167.657H209.69V158.721C209.69 157.163 209.424 156.708 208.491 156.708C207.772 156.708 206.839 157.192 206.009 157.942V167.657H202.43V157.698C202.43 155.563 202.099 154.897 201.927 154.587" fill="#EF4035"/>
    <path d="M161.408 157.539C160.741 156.948 160.102 156.652 159.463 156.652C157.862 156.652 157.167 157.994 157.167 161.054C157.167 164.114 157.783 164.973 159.649 164.973C160.317 164.973 161.063 164.518 161.408 164.086V157.534M162.117 167.652C161.968 167.347 161.879 166.803 161.879 166.803C161.1 167.437 159.883 168.004 158.847 168.004C155.376 168.004 153.188 165.292 153.188 161.026C153.188 156.76 155.562 153.78 159.033 153.78C160.023 153.78 160.792 154.019 161.46 154.559V148.031H164.903V167.657H162.117V167.652Z" fill="#EF4035"/>
    <path d="M184.538 158.284C184.272 157.101 183.525 156.538 182.592 156.538C181.659 156.538 181.02 157.129 180.563 157.636V163.972C181.043 164.399 181.603 164.859 182.564 164.859C183.446 164.859 184.006 164.511 184.3 163.784C184.622 163.033 184.701 162.306 184.701 160.616C184.701 159.382 184.673 158.87 184.538 158.279M180.46 148.02V154.656C181.155 153.905 182.205 153.553 183.339 153.553C186.675 153.553 188.755 156.238 188.755 160.532C188.755 163.324 187.902 165.497 186.222 166.839C185.289 167.59 184.356 167.918 183.231 167.914C181.944 167.909 180.992 167.543 180.217 166.684C180.217 166.684 180.152 167.149 179.984 167.646H176.961V162.625V148.016H180.46V148.02Z" fill="#EF4035"/>
    <path d="M277.328 154.625H257.625V160.835H266.789L260.309 167.353L264.675 171.745L271.155 165.227V174.445H277.328V154.625ZM269.665 148.734L264.675 143.715L260.309 148.107L265.298 153.126H269.665V148.734ZM278.819 166.721L283.808 171.74L288.175 167.348L283.185 162.329H278.819V166.721ZM283.185 153.126L288.175 148.107L283.808 143.715L278.819 148.734V153.126H283.185ZM283.804 160.835H290.859V154.625H283.804L280.717 157.73L283.804 160.835ZM277.333 148.117V141.02H271.16V148.122L274.247 151.227L277.333 148.122V148.117ZM345.426 168.785C346.331 168.785 347.189 168.616 347.995 168.274C348.805 167.931 349.5 167.454 350.079 166.832C350.659 166.215 351.124 165.497 351.46 164.687C351.8 163.872 351.968 162.995 351.968 162.05C351.968 161.105 351.8 160.271 351.46 159.437C351.12 158.608 350.659 157.894 350.079 157.291C349.5 156.689 348.8 156.211 347.995 155.85C347.185 155.493 346.327 155.315 345.426 155.315C344.525 155.315 343.604 155.493 342.78 155.85C341.956 156.207 341.237 156.689 340.623 157.291C340.01 157.894 339.526 158.608 339.166 159.437C338.811 160.266 338.634 161.139 338.634 162.05C338.634 162.961 338.807 163.872 339.142 164.687C339.482 165.502 339.957 166.215 340.575 166.832C341.189 167.449 341.908 167.931 342.737 168.274C343.561 168.616 344.457 168.785 345.43 168.785M346.01 174.787C344.587 174.787 343.235 174.589 341.96 174.204C340.681 173.813 339.607 173.278 338.735 172.593V174.449H331.991V141.016H338.735V151.41C339.607 150.725 340.681 150.18 341.96 149.775C343.24 149.37 344.587 149.163 346.01 149.163C347.693 149.163 349.303 149.496 350.837 150.161C352.371 150.826 353.708 151.738 354.839 152.895C355.97 154.052 356.876 155.416 357.556 156.992C358.237 158.569 358.577 160.256 358.577 162.045C358.577 163.834 358.237 165.55 357.556 167.097C356.876 168.645 355.97 169.985 354.839 171.123C353.708 172.261 352.371 173.157 350.837 173.808C349.298 174.459 347.693 174.782 346.01 174.782M322.53 149.409H329.274V174.44H322.53V149.409ZM322.53 141.016H329.274V147.264H322.53V141.016ZM302.98 151.945C303.593 151.231 304.514 150.552 305.745 149.92C306.972 149.284 308.463 148.97 310.208 148.97C311.665 148.97 312.978 149.216 314.162 149.703C315.341 150.19 316.352 150.875 317.196 151.752C318.034 152.629 318.681 153.695 319.137 154.948C319.587 156.202 319.817 157.576 319.817 159.07V174.44H313.122V160.242C313.122 158.747 312.724 157.532 311.933 156.607C311.142 155.681 310.016 155.218 308.564 155.218C306.915 155.218 305.587 155.705 304.586 156.684C303.584 157.658 303.081 159.027 303.081 160.782V174.445H296.337V149.414H302.985V151.95L302.98 151.945Z" fill="#154C38"/>
    <path d="M151.91 15H148.032V14.132L149.222 13.782V6.236L148.032 5.872V5.004H151.91V5.872L150.734 6.236V13.782L151.91 14.132V15ZM161.983 15H160.149L155.095 6.922H155.039C155.049 7.10867 155.058 7.30933 155.067 7.524C155.086 7.73867 155.1 7.96733 155.109 8.21C155.119 8.44333 155.128 8.686 155.137 8.938C155.147 9.18067 155.151 9.428 155.151 9.68V15H153.779V5.004H155.599L160.639 13.04H160.681C160.672 12.9 160.663 12.7273 160.653 12.522C160.644 12.3073 160.635 12.0787 160.625 11.836C160.625 11.5933 160.621 11.346 160.611 11.094C160.602 10.842 160.593 10.604 160.583 10.38V5.004H161.983V15ZM170.388 12.298C170.388 12.8953 170.244 13.404 169.954 13.824C169.665 14.244 169.25 14.5707 168.708 14.804C168.167 15.028 167.523 15.14 166.776 15.14C166.412 15.14 166.062 15.1167 165.726 15.07C165.39 15.0327 165.078 14.9767 164.788 14.902C164.499 14.8273 164.242 14.734 164.018 14.622V13.194C164.392 13.362 164.83 13.516 165.334 13.656C165.838 13.7867 166.352 13.852 166.874 13.852C167.322 13.852 167.696 13.7913 167.994 13.67C168.293 13.5487 168.517 13.3807 168.666 13.166C168.816 12.9513 168.89 12.6993 168.89 12.41C168.89 12.102 168.811 11.8453 168.652 11.64C168.503 11.4253 168.265 11.2293 167.938 11.052C167.621 10.8653 167.192 10.6693 166.65 10.464C166.277 10.324 165.936 10.17 165.628 10.002C165.33 9.82467 165.064 9.61933 164.83 9.386C164.606 9.15267 164.434 8.882 164.312 8.574C164.191 8.266 164.13 7.90667 164.13 7.496C164.13 6.94533 164.266 6.474 164.536 6.082C164.816 5.69 165.199 5.39133 165.684 5.186C166.17 4.97133 166.734 4.864 167.378 4.864C167.92 4.864 168.419 4.92 168.876 5.032C169.343 5.13467 169.786 5.27933 170.206 5.466L169.73 6.712C169.348 6.55333 168.96 6.42267 168.568 6.32C168.176 6.21733 167.766 6.166 167.336 6.166C166.963 6.166 166.65 6.222 166.398 6.334C166.146 6.446 165.955 6.6 165.824 6.796C165.703 6.992 165.642 7.22067 165.642 7.482C165.642 7.79 165.712 8.04667 165.852 8.252C165.992 8.45733 166.216 8.64867 166.524 8.826C166.832 8.994 167.238 9.18067 167.742 9.386C168.302 9.60067 168.778 9.834 169.17 10.086C169.572 10.338 169.875 10.6413 170.08 10.996C170.286 11.3413 170.388 11.7753 170.388 12.298ZM180.102 11.472C180.102 12.1627 179.957 12.788 179.668 13.348C179.388 13.8987 178.954 14.3373 178.366 14.664C177.778 14.9813 177.036 15.14 176.14 15.14C174.87 15.14 173.904 14.804 173.242 14.132C172.588 13.4507 172.262 12.5547 172.262 11.444V5.004H173.774V11.374C173.774 12.1953 173.974 12.816 174.376 13.236C174.777 13.6467 175.388 13.852 176.21 13.852C176.77 13.852 177.227 13.7493 177.582 13.544C177.936 13.3387 178.193 13.054 178.352 12.69C178.52 12.3167 178.604 11.8733 178.604 11.36V5.004H180.102V11.472ZM185.482 5.004C186.34 5.004 187.045 5.11133 187.596 5.326C188.146 5.54067 188.557 5.86267 188.828 6.292C189.098 6.712 189.234 7.244 189.234 7.888C189.234 8.40133 189.136 8.83533 188.94 9.19C188.753 9.53533 188.51 9.82 188.212 10.044C187.913 10.2587 187.6 10.4313 187.274 10.562L190.074 15H188.338L185.93 10.954H184.194V15H182.682V5.004H185.482ZM185.384 6.292H184.194V9.694H185.454C185.967 9.694 186.387 9.62867 186.714 9.498C187.05 9.36733 187.292 9.17133 187.442 8.91C187.6 8.64867 187.68 8.32667 187.68 7.944C187.68 7.54267 187.596 7.22533 187.428 6.992C187.269 6.74933 187.017 6.572 186.672 6.46C186.336 6.348 185.906 6.292 185.384 6.292ZM197.771 15L196.707 12.116H192.843L191.779 15H190.211L194.005 4.962H195.573L199.353 15H197.771ZM195.279 7.986C195.251 7.88333 195.2 7.72933 195.125 7.524C195.06 7.30933 194.994 7.09467 194.929 6.88C194.864 6.656 194.812 6.474 194.775 6.334C194.728 6.52067 194.672 6.726 194.607 6.95C194.551 7.16467 194.495 7.36533 194.439 7.552C194.383 7.72933 194.336 7.874 194.299 7.986L193.291 10.8H196.287L195.279 7.986ZM208.905 15H207.071L202.017 6.922H201.961C201.97 7.10867 201.98 7.30933 201.989 7.524C202.008 7.73867 202.022 7.96733 202.031 8.21C202.04 8.44333 202.05 8.686 202.059 8.938C202.068 9.18067 202.073 9.428 202.073 9.68V15H200.701V5.004H202.521L207.561 13.04H207.603C207.594 12.9 207.584 12.7273 207.575 12.522C207.566 12.3073 207.556 12.0787 207.547 11.836C207.547 11.5933 207.542 11.346 207.533 11.094C207.524 10.842 207.514 10.604 207.505 10.38V5.004H208.905V15ZM215.84 6.166C215.346 6.166 214.902 6.25467 214.51 6.432C214.118 6.6 213.782 6.852 213.502 7.188C213.232 7.524 213.022 7.93 212.872 8.406C212.732 8.882 212.662 9.41867 212.662 10.016C212.662 10.8 212.779 11.4813 213.012 12.06C213.246 12.6293 213.596 13.068 214.062 13.376C214.529 13.684 215.117 13.838 215.826 13.838C216.256 13.838 216.666 13.8007 217.058 13.726C217.46 13.642 217.866 13.5347 218.276 13.404V14.706C217.884 14.8553 217.483 14.9627 217.072 15.028C216.662 15.1027 216.186 15.14 215.644 15.14C214.627 15.14 213.778 14.93 213.096 14.51C212.424 14.09 211.92 13.4927 211.584 12.718C211.248 11.9433 211.08 11.038 211.08 10.002C211.08 9.246 211.183 8.55533 211.388 7.93C211.603 7.29533 211.911 6.74933 212.312 6.292C212.714 5.83467 213.208 5.48467 213.796 5.242C214.394 4.99 215.08 4.864 215.854 4.864C216.358 4.864 216.853 4.92 217.338 5.032C217.824 5.13467 218.262 5.284 218.654 5.48L218.094 6.74C217.768 6.59067 217.413 6.46 217.03 6.348C216.657 6.22667 216.26 6.166 215.84 6.166ZM226.058 15H220.43V5.004H226.058V6.292H221.942V9.148H225.806V10.422H221.942V13.698H226.058V15Z" fill="#212427"/>
    <path fill-rule="evenodd" clip-rule="evenodd" d="M249.5 10.5L362 10.5C369.732 10.5 376 16.768 376 24.5V198.5C376 206.232 369.732 212.5 362 212.5H15C7.268 212.5 1 206.232 1 198.5L1 24.5C1 16.768 7.26801 10.5 15 10.5H126.5V9.5H15C6.71573 9.5 0 16.2157 0 24.5L0 198.5C0 206.784 6.71572 213.5 15 213.5H362C370.284 213.5 377 206.784 377 198.5V24.5C377 16.2157 370.284 9.5 362 9.5L249.5 9.5V10.5Z" fill="#D9D9D9"/>
</svg>
