<svg width="28" height="28" viewBox="0 0 28 28" fill="none" xmlns="http://www.w3.org/2000/svg">
    <path
        d="M2.85651 28.004C4.43412 28.004 5.71302 26.7251 5.71302 25.1475C5.71302 23.5699 4.43412 22.291 2.85651 22.291C1.2789 22.291 0 23.5699 0 25.1475C0 26.7251 1.2789 28.004 2.85651 28.004Z"
        fill="#00549A" />
    <path
        d="M11.9609 3.00205C14.3519 3.00466 16.6516 3.92001 18.3903 5.56113C20.1291 7.20224 21.1757 9.44528 21.3163 11.8321C21.3163 12.0043 21.3428 12.1809 21.3428 12.3619C21.3431 12.6218 21.3254 12.8814 21.2898 13.1389C21.1471 14.1839 20.7173 15.1687 20.0482 15.9839C19.379 16.7991 18.4968 17.4127 17.4997 17.7564C16.5026 18.1 15.4297 18.1603 14.4004 17.9304C13.3711 17.7006 12.4258 17.1897 11.6695 16.4546C12.5391 18.0887 13.9084 19.4018 15.5775 20.2021C17.2466 21.0023 19.1279 21.2478 20.9465 20.9025C22.765 20.5573 24.4254 19.6394 25.6851 18.2831C26.9447 16.9268 27.7376 15.2031 27.9477 13.3641C27.9477 13.2934 27.9874 12.9226 27.9963 12.7195C27.9963 12.6003 27.9963 12.4855 27.9963 12.3663C27.9963 12.2471 27.9963 12.0528 27.9963 11.9027C27.8987 9.21704 26.9287 6.6363 25.233 4.55135C23.5373 2.46639 21.2084 0.990793 18.599 0.348038C15.9895 -0.294717 13.2417 -0.0696163 10.7717 0.989247C8.30161 2.04811 6.2439 3.88306 4.91016 6.21618C5.78684 5.20695 6.87 4.39773 8.08641 3.84322C9.30281 3.28872 10.6241 3.00186 11.9609 3.00205Z"
        fill="#00549A" />
    <path
        d="M19.3238 21.7263C17.3705 21.7241 15.4666 21.1113 13.8786 19.9738C12.2906 18.8362 11.0979 17.2307 10.4673 15.3819C10.1423 14.4067 9.96082 13.3895 9.9287 12.362C9.92832 12.1021 9.94602 11.8425 9.98168 11.585C10.1246 10.534 10.558 9.54374 11.233 8.72561C11.908 7.90747 12.7979 7.29392 13.8027 6.95397C14.8074 6.61402 15.887 6.56116 16.9201 6.80134C17.9532 7.04151 18.8988 7.56519 19.6506 8.31347C18.7886 6.67863 17.428 5.36105 15.7663 4.552C14.1046 3.74296 12.2283 3.48455 10.4098 3.81429C8.5913 4.14404 6.9252 5.04477 5.65338 6.38574C4.38155 7.72671 3.5702 9.43811 3.33709 11.2715C3.33709 11.3157 3.33709 11.3642 3.33709 11.4084C3.33709 11.4525 3.33709 11.6159 3.3106 11.6998C3.28411 11.7837 3.3106 11.9647 3.3106 12.1015C3.3106 12.2384 3.3106 12.2781 3.3106 12.3664C3.3106 12.4547 3.3106 12.6755 3.3106 12.8079C3.41347 15.4838 4.38242 18.0538 6.07169 20.1315C7.76096 22.2093 10.0792 23.6823 12.6777 24.3291C15.2762 24.9758 18.0145 24.7614 20.4806 23.7179C22.9467 22.6745 25.0074 20.8584 26.3525 18.543C25.4758 19.5443 24.395 20.3463 23.1827 20.8954C21.9704 21.4444 20.6547 21.7277 19.3238 21.7263Z"
        fill="#00549A" />
</svg>
