<svg width="24" height="24" viewBox="0 0 24 24" fill="none" xmlns="http://www.w3.org/2000/svg">
<path d="M7 8.76816C7.03098 8.67273 7.06988 8.58006 7.11628 8.49114C7.42721 7.9327 7.80823 7.41656 8.25 6.95532C8.50555 6.67224 8.77905 6.40599 9.0688 6.15825C9.13913 6.09702 9.22185 6.0518 9.31127 6.02571C9.4007 5.99963 9.49469 5.99329 9.58679 6.00715C9.67889 6.02101 9.7669 6.05473 9.84475 6.10598C9.92261 6.15724 9.98847 6.22482 10.0378 6.30406C10.5675 7.00537 11.0267 7.7575 11.4089 8.54946C11.4621 8.6695 11.5074 8.79289 11.5446 8.91883C11.5793 9.01666 11.5858 9.1223 11.5636 9.2237C11.5413 9.3251 11.4911 9.41818 11.4186 9.49233C11.2442 9.67702 11.0504 9.84712 10.8566 10.0172C10.6628 10.1873 10.5998 10.2408 10.7306 10.5324C10.9944 11.1773 11.3891 11.7601 11.8896 12.2437C12.39 12.7273 12.9853 13.1012 13.6376 13.3416C13.6822 13.3669 13.7348 13.374 13.7845 13.3613C13.8341 13.3486 13.877 13.3172 13.9041 13.2735C14.0688 13.0694 14.2481 12.8701 14.4225 12.6757C14.5165 12.5574 14.6481 12.475 14.7953 12.4423C14.9426 12.4095 15.0966 12.4285 15.2316 12.4959C15.6214 12.6749 16.0014 12.8744 16.3702 13.0937C16.8111 13.3562 17.2277 13.6526 17.6492 13.9394C17.8175 14.0535 17.9369 14.227 17.9835 14.4254C17.9995 14.4805 18.0039 14.5384 17.9964 14.5953C17.9889 14.6522 17.9697 14.7069 17.9399 14.7559C17.8711 14.8834 17.7899 15.0039 17.6977 15.1155C17.0913 15.7987 16.3877 16.3883 15.6095 16.8652C15.4854 16.9352 15.3483 16.9791 15.2067 16.9942C15.065 17.0092 14.9219 16.9951 14.7859 16.9527C13.8115 16.7423 12.8858 16.3481 12.0581 15.7911C10.3343 14.6875 8.90427 13.1796 7.89147 11.3975C7.50138 10.7251 7.22472 9.99274 7.07267 9.22988C7.0436 9.07436 7.02422 8.94313 7 8.76816Z" fill="#00549A"/>
</svg>
