<svg width="350" height="322" viewBox="0 0 350 322" fill="none" xmlns="http://www.w3.org/2000/svg">
<circle cx="226.36" cy="231.88" r="4.62" fill="white" stroke="#009688"/>
<path d="M226.361 205.641C223.561 205.644 220.877 206.757 218.897 208.737C216.918 210.717 215.804 213.401 215.801 216.201C215.801 225.237 225.401 232.061 225.81 232.347C225.971 232.46 226.164 232.52 226.361 232.52C226.558 232.52 226.75 232.46 226.912 232.347C227.321 232.061 236.921 225.237 236.921 216.201C236.918 213.401 235.804 210.717 233.824 208.737C231.845 206.757 229.16 205.644 226.361 205.641ZM226.361 212.361C227.12 212.361 227.863 212.586 228.494 213.008C229.126 213.43 229.618 214.029 229.908 214.731C230.199 215.433 230.275 216.205 230.127 216.95C229.979 217.695 229.613 218.379 229.076 218.916C228.539 219.453 227.855 219.819 227.11 219.967C226.365 220.115 225.593 220.039 224.891 219.748C224.19 219.458 223.59 218.965 223.168 218.334C222.746 217.703 222.521 216.96 222.521 216.201C222.521 215.182 222.925 214.205 223.645 213.485C224.366 212.765 225.342 212.361 226.361 212.361Z" fill="#009688"/>
<path d="M203.56 251L202.496 248.116H198.632L197.568 251H196L199.794 240.962H201.362L205.142 251H203.56ZM201.068 243.986C201.04 243.883 200.989 243.729 200.914 243.524C200.849 243.309 200.783 243.095 200.718 242.88C200.653 242.656 200.601 242.474 200.564 242.334C200.517 242.521 200.461 242.726 200.396 242.95C200.34 243.165 200.284 243.365 200.228 243.552C200.172 243.729 200.125 243.874 200.088 243.986L199.08 246.8H202.076L201.068 243.986ZM208.912 251.14C208.007 251.14 207.274 250.813 206.714 250.16C206.163 249.507 205.888 248.536 205.888 247.248C205.888 245.951 206.168 244.971 206.728 244.308C207.288 243.645 208.025 243.314 208.94 243.314C209.323 243.314 209.654 243.365 209.934 243.468C210.223 243.561 210.471 243.692 210.676 243.86C210.891 244.028 211.073 244.215 211.222 244.42H211.306C211.287 244.289 211.264 244.103 211.236 243.86C211.208 243.608 211.194 243.384 211.194 243.188V240.36H212.678V251H211.516L211.264 249.992H211.194C211.054 250.207 210.877 250.403 210.662 250.58C210.457 250.748 210.209 250.883 209.92 250.986C209.631 251.089 209.295 251.14 208.912 251.14ZM209.262 249.922C209.99 249.922 210.503 249.721 210.802 249.32C211.101 248.909 211.25 248.298 211.25 247.486V247.262C211.25 246.375 211.105 245.699 210.816 245.232C210.536 244.765 210.013 244.532 209.248 244.532C208.641 244.532 208.184 244.779 207.876 245.274C207.568 245.759 207.414 246.427 207.414 247.276C207.414 248.125 207.568 248.779 207.876 249.236C208.184 249.693 208.646 249.922 209.262 249.922ZM217.972 243.314C218.634 243.314 219.204 243.454 219.68 243.734C220.156 244.005 220.52 244.397 220.772 244.91C221.033 245.423 221.164 246.03 221.164 246.73V247.542H216.096C216.114 248.317 216.315 248.909 216.698 249.32C217.09 249.731 217.636 249.936 218.336 249.936C218.821 249.936 219.25 249.894 219.624 249.81C220.006 249.717 220.398 249.581 220.8 249.404V250.636C220.426 250.804 220.044 250.93 219.652 251.014C219.269 251.098 218.812 251.14 218.28 251.14C217.552 251.14 216.908 250.995 216.348 250.706C215.788 250.417 215.349 249.987 215.032 249.418C214.724 248.839 214.57 248.13 214.57 247.29C214.57 246.441 214.71 245.722 214.99 245.134C215.279 244.546 215.676 244.098 216.18 243.79C216.693 243.473 217.29 243.314 217.972 243.314ZM217.972 244.462C217.44 244.462 217.01 244.635 216.684 244.98C216.366 245.325 216.18 245.815 216.124 246.45H219.68C219.68 246.058 219.619 245.713 219.498 245.414C219.376 245.115 219.19 244.882 218.938 244.714C218.686 244.546 218.364 244.462 217.972 244.462ZM224.5 251H223.016V240.36H224.5V251ZM229.756 243.314C230.708 243.314 231.417 243.524 231.884 243.944C232.351 244.355 232.584 245.003 232.584 245.89V251H231.534L231.24 249.95H231.184C230.969 250.221 230.745 250.445 230.512 250.622C230.288 250.799 230.027 250.93 229.728 251.014C229.439 251.098 229.084 251.14 228.664 251.14C228.216 251.14 227.81 251.061 227.446 250.902C227.091 250.734 226.811 250.482 226.606 250.146C226.401 249.801 226.298 249.371 226.298 248.858C226.298 248.093 226.587 247.509 227.166 247.108C227.754 246.707 228.645 246.487 229.84 246.45L231.128 246.408V245.988C231.128 245.428 231.002 245.036 230.75 244.812C230.498 244.588 230.143 244.476 229.686 244.476C229.294 244.476 228.921 244.532 228.566 244.644C228.211 244.756 227.875 244.891 227.558 245.05L227.082 243.972C227.437 243.785 227.843 243.631 228.3 243.51C228.767 243.379 229.252 243.314 229.756 243.314ZM230.106 247.402C229.247 247.439 228.65 247.584 228.314 247.836C227.987 248.079 227.824 248.424 227.824 248.872C227.824 249.264 227.941 249.549 228.174 249.726C228.417 249.903 228.72 249.992 229.084 249.992C229.672 249.992 230.157 249.829 230.54 249.502C230.923 249.175 231.114 248.685 231.114 248.032V247.374L230.106 247.402ZM236.353 243.454V251H234.869V243.454H236.353ZM235.625 240.584C235.849 240.584 236.045 240.649 236.213 240.78C236.381 240.911 236.465 241.13 236.465 241.438C236.465 241.737 236.381 241.956 236.213 242.096C236.045 242.227 235.849 242.292 235.625 242.292C235.382 242.292 235.177 242.227 235.009 242.096C234.85 241.956 234.771 241.737 234.771 241.438C234.771 241.13 234.85 240.911 235.009 240.78C235.177 240.649 235.382 240.584 235.625 240.584ZM241.273 251.14C240.368 251.14 239.635 250.813 239.075 250.16C238.525 249.507 238.249 248.536 238.249 247.248C238.249 245.951 238.529 244.971 239.089 244.308C239.649 243.645 240.387 243.314 241.301 243.314C241.684 243.314 242.015 243.365 242.295 243.468C242.585 243.561 242.832 243.692 243.037 243.86C243.252 244.028 243.434 244.215 243.583 244.42H243.667C243.649 244.289 243.625 244.103 243.597 243.86C243.569 243.608 243.555 243.384 243.555 243.188V240.36H245.039V251H243.877L243.625 249.992H243.555C243.415 250.207 243.238 250.403 243.023 250.58C242.818 250.748 242.571 250.883 242.281 250.986C241.992 251.089 241.656 251.14 241.273 251.14ZM241.623 249.922C242.351 249.922 242.865 249.721 243.163 249.32C243.462 248.909 243.611 248.298 243.611 247.486V247.262C243.611 246.375 243.467 245.699 243.177 245.232C242.897 244.765 242.375 244.532 241.609 244.532C241.003 244.532 240.545 244.779 240.237 245.274C239.929 245.759 239.775 246.427 239.775 247.276C239.775 248.125 239.929 248.779 240.237 249.236C240.545 249.693 241.007 249.922 241.623 249.922ZM250.333 243.314C250.996 243.314 251.565 243.454 252.041 243.734C252.517 244.005 252.881 244.397 253.133 244.91C253.394 245.423 253.525 246.03 253.525 246.73V247.542H248.457C248.476 248.317 248.676 248.909 249.059 249.32C249.451 249.731 249.997 249.936 250.697 249.936C251.182 249.936 251.612 249.894 251.985 249.81C252.368 249.717 252.76 249.581 253.161 249.404V250.636C252.788 250.804 252.405 250.93 252.013 251.014C251.63 251.098 251.173 251.14 250.641 251.14C249.913 251.14 249.269 250.995 248.709 250.706C248.149 250.417 247.71 249.987 247.393 249.418C247.085 248.839 246.931 248.13 246.931 247.29C246.931 246.441 247.071 245.722 247.351 245.134C247.64 244.546 248.037 244.098 248.541 243.79C249.054 243.473 249.652 243.314 250.333 243.314ZM250.333 244.462C249.801 244.462 249.372 244.635 249.045 244.98C248.728 245.325 248.541 245.815 248.485 246.45H252.041C252.041 246.058 251.98 245.713 251.859 245.414C251.738 245.115 251.551 244.882 251.299 244.714C251.047 244.546 250.725 244.462 250.333 244.462Z" fill="#009688"/>
</svg>
