<svg width="350" height="322" viewBox="0 0 350 322" fill="none" xmlns="http://www.w3.org/2000/svg">
<circle cx="298.36" cy="245.88" r="4.62" fill="white" stroke="#009688"/>
<path d="M298.361 219.641C295.561 219.644 292.877 220.757 290.897 222.737C288.918 224.717 287.804 227.401 287.801 230.201C287.801 239.237 297.401 246.061 297.81 246.347C297.971 246.46 298.164 246.52 298.361 246.52C298.558 246.52 298.75 246.46 298.912 246.347C299.321 246.061 308.921 239.237 308.921 230.201C308.918 227.401 307.804 224.717 305.824 222.737C303.845 220.757 301.16 219.644 298.361 219.641ZM298.361 226.361C299.12 226.361 299.863 226.586 300.494 227.008C301.126 227.43 301.618 228.029 301.908 228.731C302.199 229.433 302.275 230.205 302.127 230.95C301.979 231.695 301.613 232.379 301.076 232.916C300.539 233.453 299.855 233.819 299.11 233.967C298.365 234.115 297.593 234.039 296.891 233.748C296.19 233.458 295.59 232.965 295.168 232.334C294.746 231.703 294.521 230.96 294.521 230.201C294.521 229.182 294.925 228.205 295.645 227.485C296.366 226.765 297.342 226.361 298.361 226.361Z" fill="#009688"/>
<path d="M272.6 256.166C272.105 256.166 271.662 256.255 271.27 256.432C270.878 256.6 270.542 256.852 270.262 257.188C269.991 257.524 269.781 257.93 269.632 258.406C269.492 258.882 269.422 259.419 269.422 260.016C269.422 260.8 269.539 261.481 269.772 262.06C270.005 262.629 270.355 263.068 270.822 263.376C271.289 263.684 271.877 263.838 272.586 263.838C273.015 263.838 273.426 263.801 273.818 263.726C274.219 263.642 274.625 263.535 275.036 263.404V264.706C274.644 264.855 274.243 264.963 273.832 265.028C273.421 265.103 272.945 265.14 272.404 265.14C271.387 265.14 270.537 264.93 269.856 264.51C269.184 264.09 268.68 263.493 268.344 262.718C268.008 261.943 267.84 261.038 267.84 260.002C267.84 259.246 267.943 258.555 268.148 257.93C268.363 257.295 268.671 256.749 269.072 256.292C269.473 255.835 269.968 255.485 270.556 255.242C271.153 254.99 271.839 254.864 272.614 254.864C273.118 254.864 273.613 254.92 274.098 255.032C274.583 255.135 275.022 255.284 275.414 255.48L274.854 256.74C274.527 256.591 274.173 256.46 273.79 256.348C273.417 256.227 273.02 256.166 272.6 256.166ZM279.947 257.314C280.899 257.314 281.609 257.524 282.075 257.944C282.542 258.355 282.775 259.003 282.775 259.89V265H281.725L281.431 263.95H281.375C281.161 264.221 280.937 264.445 280.703 264.622C280.479 264.799 280.218 264.93 279.919 265.014C279.63 265.098 279.275 265.14 278.855 265.14C278.407 265.14 278.001 265.061 277.637 264.902C277.283 264.734 277.003 264.482 276.797 264.146C276.592 263.801 276.489 263.371 276.489 262.858C276.489 262.093 276.779 261.509 277.357 261.108C277.945 260.707 278.837 260.487 280.031 260.45L281.319 260.408V259.988C281.319 259.428 281.193 259.036 280.941 258.812C280.689 258.588 280.335 258.476 279.877 258.476C279.485 258.476 279.112 258.532 278.757 258.644C278.403 258.756 278.067 258.891 277.749 259.05L277.273 257.972C277.628 257.785 278.034 257.631 278.491 257.51C278.958 257.379 279.443 257.314 279.947 257.314ZM280.297 261.402C279.439 261.439 278.841 261.584 278.505 261.836C278.179 262.079 278.015 262.424 278.015 262.872C278.015 263.264 278.132 263.549 278.365 263.726C278.608 263.903 278.911 263.992 279.275 263.992C279.863 263.992 280.349 263.829 280.731 263.502C281.114 263.175 281.305 262.685 281.305 262.032V261.374L280.297 261.402ZM288.882 257.314C289.76 257.314 290.432 257.533 290.898 257.972C291.365 258.411 291.598 259.115 291.598 260.086V265H290.128V260.296C290.128 259.708 290.002 259.269 289.75 258.98C289.508 258.681 289.116 258.532 288.574 258.532C287.809 258.532 287.277 258.761 286.978 259.218C286.689 259.675 286.544 260.333 286.544 261.192V265H285.06V257.454H286.236L286.446 258.462H286.53C286.698 258.201 286.904 257.986 287.146 257.818C287.389 257.65 287.66 257.524 287.958 257.44C288.257 257.356 288.565 257.314 288.882 257.314ZM295.363 256.922C295.363 257.23 295.353 257.524 295.335 257.804C295.325 258.075 295.311 258.289 295.293 258.448H295.363C295.577 258.131 295.867 257.865 296.231 257.65C296.595 257.435 297.066 257.328 297.645 257.328C298.55 257.328 299.278 257.655 299.829 258.308C300.389 258.961 300.669 259.932 300.669 261.22C300.669 262.088 300.543 262.811 300.291 263.39C300.039 263.969 299.684 264.407 299.227 264.706C298.769 264.995 298.237 265.14 297.631 265.14C297.043 265.14 296.571 265.037 296.217 264.832C295.862 264.617 295.577 264.365 295.363 264.076H295.251L294.971 265H293.879V254.36H295.363V256.922ZM297.295 258.532C296.809 258.532 296.427 258.625 296.147 258.812C295.867 258.999 295.666 259.283 295.545 259.666C295.423 260.049 295.363 260.534 295.363 261.122V261.234C295.363 262.102 295.503 262.769 295.783 263.236C296.063 263.693 296.576 263.922 297.323 263.922C297.92 263.922 298.373 263.689 298.681 263.222C298.989 262.755 299.143 262.083 299.143 261.206C299.143 260.319 298.989 259.652 298.681 259.204C298.373 258.756 297.911 258.532 297.295 258.532ZM305.528 257.314C306.191 257.314 306.76 257.454 307.236 257.734C307.712 258.005 308.076 258.397 308.328 258.91C308.59 259.423 308.72 260.03 308.72 260.73V261.542H303.652C303.671 262.317 303.872 262.909 304.254 263.32C304.646 263.731 305.192 263.936 305.892 263.936C306.378 263.936 306.807 263.894 307.18 263.81C307.563 263.717 307.955 263.581 308.356 263.404V264.636C307.983 264.804 307.6 264.93 307.208 265.014C306.826 265.098 306.368 265.14 305.836 265.14C305.108 265.14 304.464 264.995 303.904 264.706C303.344 264.417 302.906 263.987 302.588 263.418C302.28 262.839 302.126 262.13 302.126 261.29C302.126 260.441 302.266 259.722 302.546 259.134C302.836 258.546 303.232 258.098 303.736 257.79C304.25 257.473 304.847 257.314 305.528 257.314ZM305.528 258.462C304.996 258.462 304.567 258.635 304.24 258.98C303.923 259.325 303.736 259.815 303.68 260.45H307.236C307.236 260.058 307.176 259.713 307.054 259.414C306.933 259.115 306.746 258.882 306.494 258.714C306.242 258.546 305.92 258.462 305.528 258.462ZM314.296 257.314C314.427 257.314 314.571 257.323 314.73 257.342C314.889 257.351 315.019 257.365 315.122 257.384L314.968 258.77C314.865 258.742 314.744 258.719 314.604 258.7C314.464 258.681 314.333 258.672 314.212 258.672C313.932 258.672 313.661 258.728 313.4 258.84C313.148 258.943 312.919 259.097 312.714 259.302C312.509 259.498 312.345 259.741 312.224 260.03C312.112 260.319 312.056 260.651 312.056 261.024V265H310.572V257.454H311.748L311.944 258.798H312C312.159 258.527 312.35 258.28 312.574 258.056C312.798 257.832 313.055 257.655 313.344 257.524C313.633 257.384 313.951 257.314 314.296 257.314ZM320.243 257.314C320.374 257.314 320.519 257.323 320.677 257.342C320.836 257.351 320.967 257.365 321.069 257.384L320.915 258.77C320.813 258.742 320.691 258.719 320.551 258.7C320.411 258.681 320.281 258.672 320.159 258.672C319.879 258.672 319.609 258.728 319.347 258.84C319.095 258.943 318.867 259.097 318.661 259.302C318.456 259.498 318.293 259.741 318.171 260.03C318.059 260.319 318.003 260.651 318.003 261.024V265H316.519V257.454H317.695L317.891 258.798H317.947C318.106 258.527 318.297 258.28 318.521 258.056C318.745 257.832 319.002 257.655 319.291 257.524C319.581 257.384 319.898 257.314 320.243 257.314ZM325.119 257.314C326.071 257.314 326.781 257.524 327.247 257.944C327.714 258.355 327.947 259.003 327.947 259.89V265H326.897L326.603 263.95H326.547C326.333 264.221 326.109 264.445 325.875 264.622C325.651 264.799 325.39 264.93 325.091 265.014C324.802 265.098 324.447 265.14 324.027 265.14C323.579 265.14 323.173 265.061 322.809 264.902C322.455 264.734 322.175 264.482 321.969 264.146C321.764 263.801 321.661 263.371 321.661 262.858C321.661 262.093 321.951 261.509 322.529 261.108C323.117 260.707 324.009 260.487 325.203 260.45L326.491 260.408V259.988C326.491 259.428 326.365 259.036 326.113 258.812C325.861 258.588 325.507 258.476 325.049 258.476C324.657 258.476 324.284 258.532 323.929 258.644C323.575 258.756 323.239 258.891 322.921 259.05L322.445 257.972C322.8 257.785 323.206 257.631 323.663 257.51C324.13 257.379 324.615 257.314 325.119 257.314ZM325.469 261.402C324.611 261.439 324.013 261.584 323.677 261.836C323.351 262.079 323.187 262.424 323.187 262.872C323.187 263.264 323.304 263.549 323.537 263.726C323.78 263.903 324.083 263.992 324.447 263.992C325.035 263.992 325.521 263.829 325.903 263.502C326.286 263.175 326.477 262.685 326.477 262.032V261.374L325.469 261.402Z" fill="#009688"/>
</svg>
