<svg width="350" height="329" viewBox="0 0 350 329" fill="none" xmlns="http://www.w3.org/2000/svg">
<circle cx="288.36" cy="308.88" r="4.62" fill="white" stroke="#009688"/>
<path d="M288.361 282.641C285.561 282.644 282.877 283.757 280.897 285.737C278.918 287.717 277.804 290.401 277.801 293.201C277.801 302.237 287.401 309.061 287.81 309.347C287.971 309.46 288.164 309.52 288.361 309.52C288.558 309.52 288.75 309.46 288.912 309.347C289.321 309.061 298.921 302.237 298.921 293.201C298.918 290.401 297.804 287.717 295.824 285.737C293.845 283.757 291.16 282.644 288.361 282.641ZM288.361 289.361C289.12 289.361 289.863 289.586 290.494 290.008C291.126 290.43 291.618 291.029 291.908 291.731C292.199 292.433 292.275 293.205 292.127 293.95C291.979 294.695 291.613 295.379 291.076 295.916C290.539 296.453 289.855 296.819 289.11 296.967C288.365 297.115 287.593 297.039 286.891 296.748C286.19 296.458 285.59 295.965 285.168 295.334C284.746 294.703 284.521 293.96 284.521 293.201C284.521 292.182 284.925 291.205 285.645 290.485C286.366 289.765 287.342 289.361 288.361 289.361Z" fill="#009688"/>
<path d="M272.128 328H270.616V323.436H265.842V328H264.33V318.004H265.842V322.148H270.616V318.004H272.128V328ZM281.285 324.22C281.285 324.845 281.201 325.401 281.033 325.886C280.865 326.371 280.627 326.782 280.319 327.118C280.011 327.454 279.637 327.711 279.199 327.888C278.76 328.056 278.265 328.14 277.715 328.14C277.211 328.14 276.744 328.056 276.315 327.888C275.885 327.711 275.512 327.454 275.195 327.118C274.887 326.782 274.644 326.371 274.467 325.886C274.289 325.401 274.201 324.841 274.201 324.206C274.201 323.375 274.341 322.671 274.621 322.092C274.91 321.513 275.321 321.075 275.853 320.776C276.394 320.468 277.029 320.314 277.757 320.314C278.447 320.314 279.054 320.468 279.577 320.776C280.109 321.075 280.524 321.513 280.823 322.092C281.131 322.671 281.285 323.38 281.285 324.22ZM275.727 324.22C275.727 324.78 275.797 325.265 275.937 325.676C276.077 326.077 276.296 326.385 276.595 326.6C276.893 326.815 277.276 326.922 277.743 326.922C278.209 326.922 278.592 326.815 278.891 326.6C279.189 326.385 279.409 326.077 279.549 325.676C279.689 325.265 279.759 324.78 279.759 324.22C279.759 323.641 279.684 323.156 279.535 322.764C279.395 322.372 279.175 322.073 278.877 321.868C278.587 321.653 278.205 321.546 277.729 321.546C277.029 321.546 276.52 321.779 276.203 322.246C275.885 322.713 275.727 323.371 275.727 324.22ZM284.65 319.922C284.65 320.23 284.641 320.524 284.622 320.804C284.613 321.075 284.599 321.289 284.58 321.448H284.65C284.865 321.131 285.154 320.865 285.518 320.65C285.882 320.435 286.353 320.328 286.932 320.328C287.837 320.328 288.565 320.655 289.116 321.308C289.676 321.961 289.956 322.932 289.956 324.22C289.956 325.088 289.83 325.811 289.578 326.39C289.326 326.969 288.971 327.407 288.514 327.706C288.057 327.995 287.525 328.14 286.918 328.14C286.33 328.14 285.859 328.037 285.504 327.832C285.149 327.617 284.865 327.365 284.65 327.076H284.538L284.258 328H283.166V317.36H284.65V319.922ZM286.582 321.532C286.097 321.532 285.714 321.625 285.434 321.812C285.154 321.999 284.953 322.283 284.832 322.666C284.711 323.049 284.65 323.534 284.65 324.122V324.234C284.65 325.102 284.79 325.769 285.07 326.236C285.35 326.693 285.863 326.922 286.61 326.922C287.207 326.922 287.66 326.689 287.968 326.222C288.276 325.755 288.43 325.083 288.43 324.206C288.43 323.319 288.276 322.652 287.968 322.204C287.66 321.756 287.198 321.532 286.582 321.532ZM294.816 320.314C295.478 320.314 296.048 320.454 296.524 320.734C297 321.005 297.364 321.397 297.616 321.91C297.877 322.423 298.008 323.03 298.008 323.73V324.542H292.94C292.958 325.317 293.159 325.909 293.542 326.32C293.934 326.731 294.48 326.936 295.18 326.936C295.665 326.936 296.094 326.894 296.468 326.81C296.85 326.717 297.242 326.581 297.644 326.404V327.636C297.27 327.804 296.888 327.93 296.496 328.014C296.113 328.098 295.656 328.14 295.124 328.14C294.396 328.14 293.752 327.995 293.192 327.706C292.632 327.417 292.193 326.987 291.876 326.418C291.568 325.839 291.414 325.13 291.414 324.29C291.414 323.441 291.554 322.722 291.834 322.134C292.123 321.546 292.52 321.098 293.024 320.79C293.537 320.473 294.134 320.314 294.816 320.314ZM294.816 321.462C294.284 321.462 293.854 321.635 293.528 321.98C293.21 322.325 293.024 322.815 292.968 323.45H296.524C296.524 323.058 296.463 322.713 296.342 322.414C296.22 322.115 296.034 321.882 295.782 321.714C295.53 321.546 295.208 321.462 294.816 321.462ZM303.583 320.314C303.714 320.314 303.859 320.323 304.017 320.342C304.176 320.351 304.307 320.365 304.409 320.384L304.255 321.77C304.153 321.742 304.031 321.719 303.891 321.7C303.751 321.681 303.621 321.672 303.499 321.672C303.219 321.672 302.949 321.728 302.687 321.84C302.435 321.943 302.207 322.097 302.001 322.302C301.796 322.498 301.633 322.741 301.511 323.03C301.399 323.319 301.343 323.651 301.343 324.024V328H299.859V320.454H301.035L301.231 321.798H301.287C301.446 321.527 301.637 321.28 301.861 321.056C302.085 320.832 302.342 320.655 302.631 320.524C302.921 320.384 303.238 320.314 303.583 320.314ZM308.523 326.936C308.719 326.936 308.919 326.917 309.125 326.88C309.33 326.843 309.507 326.801 309.657 326.754V327.874C309.498 327.949 309.283 328.009 309.013 328.056C308.742 328.112 308.471 328.14 308.201 328.14C307.79 328.14 307.412 328.07 307.067 327.93C306.731 327.79 306.46 327.547 306.255 327.202C306.049 326.857 305.947 326.376 305.947 325.76V321.588H304.897V320.916L306.003 320.356L306.521 318.76H307.431V320.454H309.587V321.588H307.431V325.732C307.431 326.143 307.529 326.446 307.725 326.642C307.93 326.838 308.196 326.936 308.523 326.936Z" fill="#009688"/>
</svg>
