<svg width="358" height="322" viewBox="0 0 358 322" fill="none" xmlns="http://www.w3.org/2000/svg">
<circle cx="342.36" cy="169.88" r="4.62" fill="white" stroke="#009688"/>
<path d="M342.361 143.641C339.561 143.644 336.877 144.757 334.897 146.737C332.918 148.717 331.804 151.401 331.801 154.201C331.801 163.237 341.401 170.061 341.81 170.347C341.971 170.46 342.164 170.52 342.361 170.52C342.558 170.52 342.75 170.46 342.912 170.347C343.321 170.061 352.921 163.237 352.921 154.201C352.918 151.401 351.804 148.717 349.824 146.737C347.845 144.757 345.16 143.644 342.361 143.641ZM342.361 150.361C343.12 150.361 343.863 150.586 344.494 151.008C345.126 151.43 345.618 152.029 345.908 152.731C346.199 153.433 346.275 154.205 346.127 154.95C345.979 155.695 345.613 156.379 345.076 156.916C344.539 157.453 343.855 157.819 343.11 157.967C342.365 158.115 341.593 158.039 340.891 157.748C340.19 157.458 339.59 156.965 339.168 156.334C338.746 155.703 338.521 154.96 338.521 154.201C338.521 153.182 338.925 152.205 339.645 151.485C340.366 150.765 341.342 150.361 342.361 150.361Z" fill="#009688"/>
<path d="M264.502 169.624H268.114V174.608C267.582 174.785 267.036 174.916 266.476 175C265.925 175.093 265.295 175.14 264.586 175.14C263.569 175.14 262.705 174.935 261.996 174.524C261.296 174.113 260.759 173.525 260.386 172.76C260.022 171.995 259.84 171.075 259.84 170.002C259.84 168.957 260.045 168.051 260.456 167.286C260.867 166.521 261.455 165.928 262.22 165.508C262.995 165.079 263.933 164.864 265.034 164.864C265.585 164.864 266.112 164.92 266.616 165.032C267.12 165.135 267.587 165.279 268.016 165.466L267.47 166.726C267.125 166.567 266.737 166.437 266.308 166.334C265.888 166.222 265.445 166.166 264.978 166.166C264.241 166.166 263.601 166.325 263.06 166.642C262.528 166.95 262.117 167.393 261.828 167.972C261.548 168.541 261.408 169.223 261.408 170.016C261.408 170.763 261.525 171.425 261.758 172.004C261.991 172.583 262.36 173.035 262.864 173.362C263.368 173.689 264.026 173.852 264.838 173.852C265.109 173.852 265.347 173.843 265.552 173.824C265.757 173.796 265.944 173.768 266.112 173.74C266.289 173.703 266.457 173.67 266.616 173.642V170.926H264.502V169.624ZM276.984 171.22C276.984 171.845 276.9 172.401 276.732 172.886C276.564 173.371 276.326 173.782 276.018 174.118C275.71 174.454 275.337 174.711 274.898 174.888C274.459 175.056 273.965 175.14 273.414 175.14C272.91 175.14 272.443 175.056 272.014 174.888C271.585 174.711 271.211 174.454 270.894 174.118C270.586 173.782 270.343 173.371 270.166 172.886C269.989 172.401 269.9 171.841 269.9 171.206C269.9 170.375 270.04 169.671 270.32 169.092C270.609 168.513 271.02 168.075 271.552 167.776C272.093 167.468 272.728 167.314 273.456 167.314C274.147 167.314 274.753 167.468 275.276 167.776C275.808 168.075 276.223 168.513 276.522 169.092C276.83 169.671 276.984 170.38 276.984 171.22ZM271.426 171.22C271.426 171.78 271.496 172.265 271.636 172.676C271.776 173.077 271.995 173.385 272.294 173.6C272.593 173.815 272.975 173.922 273.442 173.922C273.909 173.922 274.291 173.815 274.59 173.6C274.889 173.385 275.108 173.077 275.248 172.676C275.388 172.265 275.458 171.78 275.458 171.22C275.458 170.641 275.383 170.156 275.234 169.764C275.094 169.372 274.875 169.073 274.576 168.868C274.287 168.653 273.904 168.546 273.428 168.546C272.728 168.546 272.219 168.779 271.902 169.246C271.585 169.713 271.426 170.371 271.426 171.22ZM280.349 175H278.865V164.36H280.349V175ZM285.27 175.14C284.364 175.14 283.632 174.813 283.072 174.16C282.521 173.507 282.246 172.536 282.246 171.248C282.246 169.951 282.526 168.971 283.086 168.308C283.646 167.645 284.383 167.314 285.298 167.314C285.68 167.314 286.012 167.365 286.292 167.468C286.581 167.561 286.828 167.692 287.034 167.86C287.248 168.028 287.43 168.215 287.58 168.42H287.664C287.645 168.289 287.622 168.103 287.594 167.86C287.566 167.608 287.552 167.384 287.552 167.188V164.36H289.036V175H287.874L287.622 173.992H287.552C287.412 174.207 287.234 174.403 287.02 174.58C286.814 174.748 286.567 174.883 286.278 174.986C285.988 175.089 285.652 175.14 285.27 175.14ZM285.62 173.922C286.348 173.922 286.861 173.721 287.16 173.32C287.458 172.909 287.608 172.298 287.608 171.486V171.262C287.608 170.375 287.463 169.699 287.174 169.232C286.894 168.765 286.371 168.532 285.606 168.532C284.999 168.532 284.542 168.779 284.234 169.274C283.926 169.759 283.772 170.427 283.772 171.276C283.772 172.125 283.926 172.779 284.234 173.236C284.542 173.693 285.004 173.922 285.62 173.922ZM299.436 166.166C298.941 166.166 298.498 166.255 298.106 166.432C297.714 166.6 297.378 166.852 297.098 167.188C296.827 167.524 296.617 167.93 296.468 168.406C296.328 168.882 296.258 169.419 296.258 170.016C296.258 170.8 296.375 171.481 296.608 172.06C296.841 172.629 297.191 173.068 297.658 173.376C298.125 173.684 298.713 173.838 299.422 173.838C299.851 173.838 300.262 173.801 300.654 173.726C301.055 173.642 301.461 173.535 301.872 173.404V174.706C301.48 174.855 301.079 174.963 300.668 175.028C300.257 175.103 299.781 175.14 299.24 175.14C298.223 175.14 297.373 174.93 296.692 174.51C296.02 174.09 295.516 173.493 295.18 172.718C294.844 171.943 294.676 171.038 294.676 170.002C294.676 169.246 294.779 168.555 294.984 167.93C295.199 167.295 295.507 166.749 295.908 166.292C296.309 165.835 296.804 165.485 297.392 165.242C297.989 164.99 298.675 164.864 299.45 164.864C299.954 164.864 300.449 164.92 300.934 165.032C301.419 165.135 301.858 165.284 302.25 165.48L301.69 166.74C301.363 166.591 301.009 166.46 300.626 166.348C300.253 166.227 299.856 166.166 299.436 166.166ZM310.507 171.22C310.507 171.845 310.423 172.401 310.255 172.886C310.087 173.371 309.849 173.782 309.541 174.118C309.233 174.454 308.86 174.711 308.421 174.888C307.983 175.056 307.488 175.14 306.937 175.14C306.433 175.14 305.967 175.056 305.537 174.888C305.108 174.711 304.735 174.454 304.417 174.118C304.109 173.782 303.867 173.371 303.689 172.886C303.512 172.401 303.423 171.841 303.423 171.206C303.423 170.375 303.563 169.671 303.843 169.092C304.133 168.513 304.543 168.075 305.075 167.776C305.617 167.468 306.251 167.314 306.979 167.314C307.67 167.314 308.277 167.468 308.799 167.776C309.331 168.075 309.747 168.513 310.045 169.092C310.353 169.671 310.507 170.38 310.507 171.22ZM304.949 171.22C304.949 171.78 305.019 172.265 305.159 172.676C305.299 173.077 305.519 173.385 305.817 173.6C306.116 173.815 306.499 173.922 306.965 173.922C307.432 173.922 307.815 173.815 308.113 173.6C308.412 173.385 308.631 173.077 308.771 172.676C308.911 172.265 308.981 171.78 308.981 171.22C308.981 170.641 308.907 170.156 308.757 169.764C308.617 169.372 308.398 169.073 308.099 168.868C307.81 168.653 307.427 168.546 306.951 168.546C306.251 168.546 305.743 168.779 305.425 169.246C305.108 169.713 304.949 170.371 304.949 171.22ZM315.315 167.314C316.267 167.314 316.976 167.524 317.443 167.944C317.909 168.355 318.143 169.003 318.143 169.89V175H317.093L316.799 173.95H316.743C316.528 174.221 316.304 174.445 316.071 174.622C315.847 174.799 315.585 174.93 315.287 175.014C314.997 175.098 314.643 175.14 314.223 175.14C313.775 175.14 313.369 175.061 313.005 174.902C312.65 174.734 312.37 174.482 312.165 174.146C311.959 173.801 311.857 173.371 311.857 172.858C311.857 172.093 312.146 171.509 312.725 171.108C313.313 170.707 314.204 170.487 315.399 170.45L316.687 170.408V169.988C316.687 169.428 316.561 169.036 316.309 168.812C316.057 168.588 315.702 168.476 315.245 168.476C314.853 168.476 314.479 168.532 314.125 168.644C313.77 168.756 313.434 168.891 313.117 169.05L312.641 167.972C312.995 167.785 313.401 167.631 313.859 167.51C314.325 167.379 314.811 167.314 315.315 167.314ZM315.665 171.402C314.806 171.439 314.209 171.584 313.873 171.836C313.546 172.079 313.383 172.424 313.383 172.872C313.383 173.264 313.499 173.549 313.733 173.726C313.975 173.903 314.279 173.992 314.643 173.992C315.231 173.992 315.716 173.829 316.099 173.502C316.481 173.175 316.673 172.685 316.673 172.032V171.374L315.665 171.402ZM325.44 172.872C325.44 173.367 325.318 173.782 325.076 174.118C324.833 174.454 324.483 174.711 324.026 174.888C323.568 175.056 323.018 175.14 322.374 175.14C321.842 175.14 321.384 175.098 321.002 175.014C320.628 174.939 320.283 174.827 319.966 174.678V173.376C320.302 173.535 320.689 173.679 321.128 173.81C321.566 173.931 321.996 173.992 322.416 173.992C322.976 173.992 323.377 173.903 323.62 173.726C323.872 173.549 323.998 173.311 323.998 173.012C323.998 172.844 323.951 172.695 323.858 172.564C323.764 172.424 323.587 172.284 323.326 172.144C323.074 171.995 322.7 171.827 322.206 171.64C321.73 171.444 321.324 171.253 320.988 171.066C320.652 170.87 320.395 170.641 320.218 170.38C320.04 170.109 319.952 169.764 319.952 169.344C319.952 168.691 320.213 168.191 320.736 167.846C321.268 167.491 321.968 167.314 322.836 167.314C323.293 167.314 323.722 167.361 324.124 167.454C324.534 167.538 324.931 167.669 325.314 167.846L324.824 168.98C324.609 168.877 324.385 168.793 324.152 168.728C323.928 168.653 323.699 168.593 323.466 168.546C323.242 168.499 323.008 168.476 322.766 168.476C322.318 168.476 321.977 168.546 321.744 168.686C321.51 168.826 321.394 169.022 321.394 169.274C321.394 169.451 321.445 169.605 321.548 169.736C321.66 169.867 321.851 169.997 322.122 170.128C322.392 170.259 322.761 170.417 323.228 170.604C323.694 170.781 324.091 170.963 324.418 171.15C324.754 171.337 325.006 171.565 325.174 171.836C325.351 172.107 325.44 172.452 325.44 172.872ZM329.925 173.936C330.121 173.936 330.322 173.917 330.527 173.88C330.732 173.843 330.91 173.801 331.059 173.754V174.874C330.9 174.949 330.686 175.009 330.415 175.056C330.144 175.112 329.874 175.14 329.603 175.14C329.192 175.14 328.814 175.07 328.469 174.93C328.133 174.79 327.862 174.547 327.657 174.202C327.452 173.857 327.349 173.376 327.349 172.76V168.588H326.299V167.916L327.405 167.356L327.923 165.76H328.833V167.454H330.989V168.588H328.833V172.732C328.833 173.143 328.931 173.446 329.127 173.642C329.332 173.838 329.598 173.936 329.925 173.936Z" fill="#009688"/>
</svg>
