<svg width="40" height="40" viewBox="0 0 40 40" fill="none" xmlns="http://www.w3.org/2000/svg">
<rect width="40" height="40" rx="20" fill="#FFAB00" fill-opacity="0.1"/>
<g clip-path="url(#clip0_2100_10118)">
<path d="M30.9799 16.8996C30.9799 16.9109 30.9799 16.9213 30.973 16.9326L28.7451 27.6577C28.6766 28.0353 28.4848 28.376 28.2029 28.6211C27.9211 28.8661 27.5667 29.0001 27.2009 29H12.803C12.4374 28.9998 12.0833 28.8657 11.8016 28.6207C11.5199 28.3757 11.3283 28.0352 11.2598 27.6577L9.03187 16.9326C9.03187 16.9213 9.02696 16.9109 9.025 16.8996C8.96402 16.5445 9.01532 16.1782 9.17106 15.8566C9.3268 15.535 9.57841 15.2759 9.88745 15.1188C10.1965 14.9617 10.546 14.9153 10.8825 14.9866C11.219 15.058 11.524 15.2432 11.7509 15.5139L15.0584 19.261L18.5751 10.9707C18.5753 10.9672 18.5753 10.9638 18.5751 10.9604C18.7009 10.6737 18.9022 10.4308 19.1551 10.2606C19.4081 10.0905 19.7021 10 20.0025 10C20.3028 10 20.5968 10.0905 20.8498 10.2606C21.1028 10.4308 21.304 10.6737 21.4298 10.9604C21.4296 10.9638 21.4296 10.9672 21.4298 10.9707L24.9465 19.261L28.254 15.5139C28.4814 15.2452 28.786 15.0618 29.1216 14.9916C29.4572 14.9215 29.8054 14.9683 30.1134 15.1251C30.4213 15.2818 30.6722 15.54 30.8279 15.8602C30.9836 16.1805 31.0356 16.5454 30.976 16.8996H30.9799Z" fill="#FFAB00"/>
</g>
<defs>
<clipPath id="clip0_2100_10118">
<rect width="24" height="24" fill="white" transform="translate(8 8)"/>
</clipPath>
</defs>
</svg>
