<svg width="24" height="24" viewBox="0 0 24 24" fill="none" xmlns="http://www.w3.org/2000/svg">
<rect width="24" height="24" rx="12" fill="white" fill-opacity="0.3"/>
<path d="M14.7033 6.00151C14.2434 6.02024 13.8058 6.2054 13.4722 6.52256L6.86454 13.1287C6.76235 13.2324 6.69305 13.364 6.66536 13.5069L5.92637 17.2019C5.90125 17.3217 5.9063 17.4459 5.94106 17.5633C5.97583 17.6807 6.03922 17.7876 6.12555 17.8745C6.19474 17.9429 6.27677 17.997 6.36693 18.0337C6.45709 18.0703 6.5536 18.0888 6.65092 18.0881H6.79814L10.4931 17.3491C10.636 17.3214 10.7676 17.2521 10.8713 17.1499L17.4774 10.5423C17.8229 10.1947 18.0168 9.72462 18.0168 9.2346C18.0168 8.74458 17.8229 8.27446 17.4774 7.92693V7.9125L16.0875 6.52256C15.9034 6.34755 15.686 6.21126 15.4482 6.12176C15.2105 6.03226 14.9572 5.99137 14.7033 6.00151ZM14.7741 7.46073C14.8234 7.45987 14.8724 7.46931 14.9178 7.48844C14.9633 7.50758 15.0043 7.53599 15.0382 7.57187L16.4281 8.96181C16.4634 8.99498 16.4915 9.03501 16.5107 9.07944C16.5299 9.12387 16.5398 9.17176 16.5398 9.22017C16.5398 9.26857 16.5299 9.31646 16.5107 9.3609C16.4915 9.40533 16.4634 9.44536 16.4281 9.47853L15.5188 10.395L13.6049 8.48118L14.5215 7.57187C14.554 7.53741 14.5931 7.50982 14.6365 7.49073C14.6799 7.47164 14.7267 7.46144 14.7741 7.46073ZM12.5629 9.52327L14.4767 11.4371L9.9836 15.9303L7.5891 16.4109L8.06973 14.0164L12.5629 9.52327Z" fill="white"/>
</svg>
