<svg width="30" height="18" viewBox="0 0 30 18" fill="none" xmlns="http://www.w3.org/2000/svg">
<path d="M1.03115 7.83179L3.80311 3.01109C4.51947 1.76895 5.85873 1 7.35373 1H11.2469M1.03115 7.83179V7.86137C1 7.89094 1 7.92052 1 7.95009V15.1959L5.32925 15.2255M1.03115 7.83179H11.2469M11.2469 2.21257V7.53605M5.32925 15.2255C5.32925 16.2015 6.17019 17 7.198 17C8.22581 17 9.06674 16.2015 9.06674 15.2255M5.32925 15.2255C5.32925 14.2495 6.17019 13.451 7.198 13.451C8.22581 13.451 9.06674 14.2495 9.06674 15.2255M9.06674 15.2255H20.9021M20.9021 15.2255C20.9021 16.2015 21.743 17 22.7709 17C23.7987 17 24.6396 16.2015 24.6396 15.2255M20.9021 15.2255C20.9021 14.2495 21.743 13.451 22.7709 13.451C23.7987 13.451 24.6396 14.2495 24.6396 15.2255M24.6396 15.2255H28.9992C28.9997 15.2157 29 15.2058 29 15.1959V9.90203C29 9.63586 28.8443 9.42884 28.564 9.34011L23.8534 7.83179M23.8534 7.83179L23.2069 7.62477L20.5595 3.01109C19.8432 1.76895 18.4727 1 17.0089 1H11.2469M23.8534 7.83179H11.2469M11.2469 7.83179V1" stroke="#595959"/>
</svg>
