<svg width="119" height="30" viewBox="0 0 119 30" fill="none" xmlns="http://www.w3.org/2000/svg">
    <path d="M104 30C95.7297 30 89 23.2719 89 15.0037C89 6.73545 95.7297 0 104 0C112.27 0 119 6.72808 119 14.9963C119 23.2646 112.278 30 104 30ZM104 0.714812C96.1204 0.714812 89.7076 7.12601 89.7076 15.0037C89.7076 22.8814 96.1204 29.2926 104 29.2926C111.88 29.2926 118.292 22.8814 118.292 15.0037C118.292 7.12601 111.88 0.714812 104 0.714812Z" fill="#9E9E9E" fill-opacity="0.8"/>
    <path d="M95.767 20.4348L95.4279 19.3442L95.0962 20.4348H95.767ZM95.9586 21.0907H94.8898L94.7424 21.5918H93.7842L94.9267 18.5557H95.9513L97.0938 21.5918H96.1134L95.9586 21.0907Z" fill="#9E9E9E" fill-opacity="0.8"/>
    <path d="M99.2235 18.5557H100.16V20.3685C100.16 20.5453 100.13 20.7148 100.079 20.877C100.02 21.0391 99.9385 21.1791 99.8132 21.297C99.6952 21.4149 99.5699 21.5033 99.4372 21.5476C99.253 21.6139 99.0392 21.6507 98.7812 21.6507C98.6338 21.6507 98.4716 21.6434 98.2947 21.6213C98.1178 21.5991 97.9778 21.5623 97.8598 21.496C97.7419 21.437 97.6313 21.3486 97.5355 21.2307C97.4397 21.1201 97.3734 21.0022 97.3365 20.8843C97.2775 20.6927 97.248 20.5232 97.248 20.3685V18.5557H98.1842V20.4127C98.1842 20.5822 98.2284 20.7075 98.3242 20.8033C98.4127 20.8991 98.5453 20.9433 98.7075 20.9433C98.8697 20.9433 98.995 20.8991 99.0908 20.8033C99.1793 20.7148 99.2308 20.5822 99.2308 20.4127V18.5557H99.2235Z" fill="#9E9E9E" fill-opacity="0.8"/>
    <path d="M100.616 20.5897L101.508 20.5307C101.53 20.6781 101.567 20.7886 101.626 20.8623C101.722 20.9876 101.862 21.0466 102.039 21.0466C102.171 21.0466 102.275 21.0171 102.348 20.9508C102.422 20.8844 102.459 20.8181 102.459 20.7297C102.459 20.6486 102.422 20.5823 102.356 20.516C102.289 20.457 102.127 20.3981 101.877 20.3391C101.464 20.2433 101.169 20.1254 101 19.9707C100.823 19.8159 100.734 19.6243 100.734 19.3811C100.734 19.2264 100.778 19.079 100.867 18.939C100.955 18.799 101.095 18.6884 101.272 18.6147C101.457 18.5337 101.7 18.4968 102.017 18.4968C102.407 18.4968 102.702 18.5705 102.909 18.7105C103.115 18.8579 103.233 19.0864 103.27 19.3959L102.385 19.4475C102.363 19.3074 102.312 19.2116 102.238 19.1527C102.164 19.0937 102.061 19.0569 101.928 19.0569C101.818 19.0569 101.737 19.079 101.685 19.1232C101.633 19.1674 101.604 19.2264 101.604 19.2927C101.604 19.3443 101.626 19.3811 101.67 19.4253C101.714 19.4622 101.818 19.499 101.987 19.5359C102.4 19.6243 102.687 19.7127 102.872 19.8012C103.049 19.8896 103.181 20.0001 103.262 20.1402C103.343 20.2728 103.388 20.4202 103.388 20.5897C103.388 20.7813 103.336 20.9655 103.226 21.1276C103.115 21.2898 102.968 21.415 102.776 21.5035C102.584 21.5919 102.341 21.6287 102.046 21.6287C101.53 21.6287 101.169 21.5329 100.97 21.334C100.756 21.1497 100.646 20.8918 100.616 20.5897Z" fill="#9E9E9E" fill-opacity="0.8"/>
    <path d="M103.683 20.5897L104.575 20.5307C104.597 20.6781 104.633 20.7886 104.692 20.8623C104.788 20.9876 104.928 21.0466 105.105 21.0466C105.238 21.0466 105.341 21.0171 105.415 20.9508C105.489 20.8844 105.525 20.8181 105.525 20.7297C105.525 20.6486 105.489 20.5823 105.422 20.516C105.356 20.457 105.194 20.3981 104.943 20.3391C104.53 20.2433 104.235 20.1254 104.066 19.9707C103.889 19.8159 103.801 19.6243 103.801 19.3811C103.801 19.2264 103.845 19.079 103.933 18.939C104.022 18.799 104.162 18.6884 104.339 18.6147C104.523 18.5337 104.766 18.4968 105.083 18.4968C105.474 18.4968 105.769 18.5705 105.975 18.7105C106.181 18.8579 106.299 19.0864 106.336 19.3959L105.452 19.4475C105.43 19.3074 105.378 19.2116 105.304 19.1527C105.231 19.0937 105.127 19.0569 104.995 19.0569C104.884 19.0569 104.803 19.079 104.751 19.1232C104.7 19.1674 104.67 19.2264 104.67 19.2927C104.67 19.3443 104.692 19.3811 104.737 19.4253C104.781 19.4622 104.884 19.499 105.054 19.5359C105.466 19.6243 105.754 19.7127 105.938 19.8012C106.115 19.8896 106.248 20.0001 106.329 20.1402C106.41 20.2728 106.454 20.4202 106.454 20.5897C106.454 20.7813 106.403 20.9655 106.292 21.1276C106.181 21.2898 106.034 21.415 105.842 21.5035C105.651 21.5919 105.407 21.6287 105.113 21.6287C104.597 21.6287 104.235 21.5329 104.036 21.334C103.823 21.1497 103.705 20.8918 103.683 20.5897Z" fill="#9E9E9E" fill-opacity="0.8"/>
    <path d="M107.892 18.5557H106.948V21.5918H107.892V18.5557Z" fill="#9E9E9E" fill-opacity="0.8"/>
    <path d="M108.489 18.5557H111.142V19.1599L109.44 20.9433H111.201V21.5918H108.319V20.9654L110.007 19.2042H108.489V18.5557Z" fill="#9E9E9E" fill-opacity="0.8"/>
    <path d="M111.548 18.5557H114.209V19.1599L112.506 20.9433H114.268V21.5918H111.386V20.9654L113.074 19.2042H111.548V18.5557Z" fill="#9E9E9E" fill-opacity="0.8"/>
    <path d="M100.337 23.7954V23.4416H101.155V24.1713C101 24.2745 100.86 24.3482 100.735 24.3924C100.617 24.4293 100.469 24.4514 100.307 24.4514C100.101 24.4514 99.9385 24.4146 99.8058 24.3482C99.6805 24.2819 99.5773 24.1787 99.5036 24.0386C99.4299 23.8986 99.4004 23.7438 99.4004 23.5669C99.4004 23.3826 99.4372 23.2131 99.5183 23.0804C99.5994 22.9404 99.71 22.8372 99.8574 22.7635C99.9753 22.7045 100.13 22.6824 100.329 22.6824C100.521 22.6824 100.661 22.6971 100.757 22.734C100.852 22.7708 100.926 22.8224 100.993 22.8961C101.051 22.9698 101.103 23.0583 101.133 23.1689L100.624 23.2573C100.602 23.191 100.565 23.1394 100.513 23.1099C100.462 23.073 100.395 23.0583 100.322 23.0583C100.204 23.0583 100.115 23.0952 100.042 23.1762C99.9753 23.2573 99.9385 23.3826 99.9385 23.5595C99.9385 23.7438 99.9753 23.8765 100.042 23.9576C100.108 24.0386 100.211 24.0755 100.337 24.0755C100.395 24.0755 100.454 24.0681 100.506 24.046C100.558 24.0313 100.624 24.0018 100.69 23.9576V23.7954H100.337Z" fill="#9E9E9E" fill-opacity="0.8"/>
    <path d="M102.01 23.3975H102.231C102.253 23.3975 102.305 23.3901 102.371 23.3753C102.408 23.368 102.438 23.3532 102.46 23.3238C102.482 23.2943 102.497 23.2648 102.497 23.2206C102.497 23.1616 102.482 23.1247 102.445 23.0953C102.408 23.0658 102.342 23.051 102.246 23.051H102.01V23.3975ZM101.479 24.422V22.7046H102.364C102.526 22.7046 102.651 22.7193 102.74 22.7488C102.828 22.7783 102.895 22.8299 102.954 22.9036C103.005 22.9773 103.035 23.0731 103.035 23.1837C103.035 23.2795 103.013 23.3606 102.976 23.4269C102.932 23.4933 102.88 23.5523 102.806 23.5965C102.762 23.626 102.696 23.6481 102.622 23.6628C102.688 23.6849 102.733 23.707 102.762 23.7292C102.784 23.7439 102.806 23.7734 102.85 23.8176C102.887 23.8618 102.909 23.8987 102.924 23.9208L103.182 24.422H102.585L102.305 23.8987C102.268 23.8324 102.239 23.7881 102.209 23.766C102.172 23.7365 102.128 23.7292 102.077 23.7292H102.032V24.4294H101.479V24.422Z" fill="#9E9E9E" fill-opacity="0.8"/>
    <path d="M103.764 23.5596C103.764 23.7365 103.794 23.8545 103.86 23.9355C103.926 24.0092 104.015 24.0461 104.125 24.0461C104.236 24.0461 104.324 24.0092 104.391 23.9355C104.45 23.8618 104.486 23.7291 104.486 23.5375C104.486 23.3753 104.457 23.2574 104.391 23.1837C104.324 23.11 104.236 23.0731 104.125 23.0731C104.022 23.0731 103.934 23.11 103.867 23.1837C103.794 23.2648 103.764 23.3901 103.764 23.5596ZM103.233 23.5596C103.233 23.2795 103.314 23.0584 103.469 22.9036C103.624 22.7488 103.845 22.6677 104.125 22.6677C104.413 22.6677 104.634 22.7414 104.789 22.8962C104.943 23.051 105.017 23.2648 105.017 23.5449C105.017 23.7439 104.98 23.9134 104.914 24.0387C104.848 24.164 104.752 24.2672 104.619 24.3409C104.494 24.4147 104.332 24.4515 104.14 24.4515C103.948 24.4515 103.786 24.422 103.661 24.3557C103.536 24.2967 103.432 24.1935 103.351 24.0608C103.27 23.9282 103.233 23.7586 103.233 23.5596Z" fill="#9E9E9E" fill-opacity="0.8"/>
    <path d="M106.418 22.6973H106.948V23.7218C106.948 23.825 106.934 23.9209 106.904 24.0093C106.875 24.0978 106.823 24.1788 106.757 24.2452C106.69 24.3115 106.617 24.3631 106.543 24.3852C106.44 24.4221 106.315 24.4442 106.174 24.4442C106.093 24.4442 105.998 24.4368 105.902 24.4295C105.806 24.4147 105.717 24.3926 105.651 24.3631C105.585 24.3263 105.526 24.282 105.467 24.2157C105.415 24.1494 105.371 24.083 105.356 24.0167C105.327 23.9061 105.305 23.8103 105.305 23.7292V22.7046H105.835V23.7513C105.835 23.8471 105.865 23.9209 105.916 23.9724C105.968 24.024 106.042 24.0535 106.13 24.0535C106.219 24.0535 106.292 24.024 106.344 23.9724C106.396 23.9209 106.425 23.8471 106.425 23.7513V22.6973H106.418Z" fill="#9E9E9E" fill-opacity="0.8"/>
    <path d="M107.826 23.4344H107.958C108.062 23.4344 108.135 23.4196 108.172 23.3828C108.216 23.3459 108.231 23.3017 108.231 23.2427C108.231 23.1911 108.216 23.1395 108.179 23.1027C108.143 23.0658 108.076 23.0437 107.98 23.0437H107.826V23.4344ZM107.295 22.6973H108.179C108.371 22.6973 108.519 22.7415 108.614 22.8373C108.71 22.9258 108.754 23.0584 108.754 23.228C108.754 23.4049 108.703 23.5376 108.6 23.6334C108.496 23.7292 108.334 23.7808 108.12 23.7808H107.833V24.4221H107.302V22.6973H107.295Z" fill="#9E9E9E" fill-opacity="0.8"/>
    <path fill-rule="evenodd" clip-rule="evenodd" d="M100.27 10.5528C100.233 10.5749 100.189 10.5749 100.152 10.597C100.108 10.6265 100.064 10.6781 100.02 10.7149C99.7912 10.8918 99.5406 11.0981 99.4153 11.3782C99.3342 11.5624 99.3415 11.8424 99.4447 12.0045C99.5479 12.174 99.7175 12.2919 99.8723 12.4098C99.9533 12.4688 100.049 12.5499 100.086 12.653H100.101C100.233 12.432 100.425 12.2846 100.617 12.1224C100.735 12.0266 100.801 11.9014 100.889 11.7761C100.963 11.6729 101.037 11.5698 101.103 11.4519C101.096 11.3708 101.037 11.2897 101 11.2308C100.912 11.076 100.867 10.8992 100.735 10.7886C100.676 10.737 100.58 10.7223 100.514 10.6855C100.432 10.6486 100.403 10.5528 100.27 10.5528ZM103.219 13.1099C103.204 13.1689 103.263 13.3089 103.278 13.3678C103.322 13.5594 103.315 13.7731 103.351 13.9795C103.359 14.1563 103.359 14.3406 103.366 14.5174V14.9448V15.3796C103.366 15.4607 103.366 15.5344 103.366 15.6154C103.366 15.7186 103.373 15.8218 103.373 15.925V16.0797C103.396 16.2345 103.373 16.404 103.41 16.5366C103.514 16.5366 103.794 16.5219 103.86 16.485C103.897 16.4629 103.904 16.3966 103.941 16.3745C103.963 16.3597 104.037 16.3524 104.052 16.3376C104.007 16.1018 103.956 15.8586 103.912 15.6228C103.764 15.0554 103.654 14.488 103.477 13.95C103.41 13.7584 103.366 13.5594 103.307 13.3678C103.278 13.2868 103.248 13.1984 103.219 13.1099ZM100.174 17.2293C100.174 16.8829 100.55 16.8019 100.838 16.7208C100.926 16.6987 101.088 16.6692 101.14 16.6177C101.03 16.6471 100.926 16.6692 100.816 16.6987C100.823 16.6692 101.022 16.5366 101.052 16.5219C101.052 16.5145 101.052 16.5145 101.052 16.5071C100.978 16.5071 100.919 16.4629 100.853 16.4408C100.735 16.3966 100.455 16.3303 100.278 16.3597C100.204 16.3671 100.13 16.3671 100.057 16.3745C99.9165 16.3966 99.7691 16.4187 99.629 16.4408C99.5037 16.4703 99.3268 16.5292 99.2162 16.5071C99.2383 16.4555 99.2752 16.2787 99.2015 16.2639C99.0909 16.286 98.9804 16.3155 98.8772 16.3376C98.7003 16.3818 98.457 16.4555 98.2359 16.4187C98.3096 16.2934 98.4423 16.1902 98.5528 16.1092C98.8108 15.925 99.0393 15.8586 99.4079 15.7849C99.5406 15.7555 99.6732 15.7776 99.8133 15.7628H99.9607C100.034 15.7628 100.115 15.7702 100.189 15.7702C100.322 15.7776 100.455 15.7849 100.58 15.7849C100.683 15.7997 100.794 15.7849 100.904 15.807C101.118 15.8439 101.538 15.8365 101.708 15.7923C101.796 15.7923 101.877 15.7849 101.966 15.7849C101.995 15.7628 102.002 15.7334 102.039 15.7186C102.143 15.6744 102.482 15.7039 102.607 15.7186C102.703 15.7334 102.872 15.7407 102.946 15.7039C102.975 15.6302 103.012 15.5639 103.042 15.4902C103.042 15.4386 103.049 15.3796 103.049 15.328C103.079 15.0996 103.027 14.8712 102.99 14.6869C102.894 14.2595 102.799 13.8468 102.651 13.471C102.6 13.3457 102.548 13.2205 102.496 13.0878C102.474 13.0436 102.452 12.9994 102.43 12.9552C102.393 12.7415 102.246 12.5278 102.15 12.3509C102.113 12.2846 102.098 12.2256 102.054 12.1667C101.966 12.0488 101.803 12.0488 101.649 11.9972C101.545 11.9603 101.391 11.8498 101.346 11.7614C101.339 11.7687 101.332 11.7761 101.324 11.7761C101.265 11.8645 101.214 11.9456 101.155 12.034C101.059 12.1888 100.978 12.3583 100.904 12.5278C100.83 12.6751 100.786 12.8373 100.742 13.0215C100.735 13.1099 100.72 13.1983 100.713 13.2868C100.639 13.2647 100.587 13.3531 100.528 13.3384C100.469 13.3089 100.506 13.1836 100.477 13.132C100.469 13.132 100.469 13.1247 100.462 13.1247H100.455C100.484 13.3531 100.27 13.2647 100.182 13.1984C100.145 13.1689 100.123 13.132 100.093 13.0952H100.086C100.042 13.2278 99.9312 13.3089 99.8207 13.3826H99.8133C99.6806 12.9331 99.172 12.8004 99.032 12.3362C98.9656 12.1077 99.0098 11.7761 99.0614 11.5698C99.1057 11.3929 99.1352 11.2308 99.1868 11.0613C99.2605 10.8107 99.3415 10.5602 99.3858 10.2728C99.4005 10.1843 99.371 10.1107 99.3563 10.037C99.3415 9.94117 99.3415 9.85273 99.3121 9.77167C99.2605 9.59481 99.2015 9.42532 99.1499 9.24846C99.0467 8.83579 99.1794 8.34942 99.2752 8.02517C99.3121 7.90727 99.3268 7.74515 99.4005 7.66408C99.3784 7.61987 99.3637 7.56828 99.3415 7.52407C99.3121 7.43564 99.2605 7.21456 99.2826 7.08929C99.2899 6.97875 99.2973 6.87558 99.3121 6.76504C99.3784 6.41132 99.4226 5.91022 99.2899 5.60071C99.0541 5.03328 98.5528 4.71641 98.2285 4.23004C98.1474 4.10476 98.0737 3.97212 98.0369 3.80262C98.0295 3.75841 98.0295 3.70683 98.0221 3.66261C98.0148 3.6184 98.0148 3.53733 98.0221 3.50049L98.0295 3.50786C98.2064 3.76578 98.3833 4.01633 98.5676 4.27425C98.9435 4.80484 99.2752 5.36489 99.6511 5.88811C99.7764 6.06497 99.9165 6.24183 100.108 6.35974C100.167 6.39658 100.278 6.4408 100.381 6.41132C100.683 6.33026 100.963 5.91758 101.133 5.68177C101.361 5.35753 101.597 5.03328 101.818 4.70167C101.929 4.53217 102.039 4.36268 102.157 4.19319C102.275 4.0237 102.386 3.86158 102.504 3.69209C102.511 3.69209 102.511 3.69209 102.518 3.69209C102.533 4.48059 102.054 5.10697 101.708 5.55649C101.619 5.65966 101.523 5.76283 101.435 5.866C101.391 5.92495 101.332 5.9618 101.302 6.03549C101.273 6.11655 101.287 6.2492 101.302 6.33026C101.339 6.51449 101.383 6.68398 101.435 6.86821C101.457 6.9419 101.457 7.05981 101.442 7.14087C101.435 7.17035 101.42 7.19982 101.428 7.22193C101.752 7.27352 102.069 7.3251 102.393 7.37668C102.437 7.37668 102.489 7.36932 102.533 7.36932C102.666 7.34721 102.791 7.36195 102.909 7.33247C102.975 7.3251 103.042 7.3251 103.108 7.31773C103.278 7.28825 103.462 7.28825 103.654 7.28825C103.794 7.28825 103.934 7.29562 104.074 7.29562C104.302 7.33247 104.531 7.33984 104.73 7.39879C104.767 7.40616 104.811 7.41353 104.848 7.4209C105.01 7.47985 105.187 7.5167 105.342 7.58302C105.607 7.69356 105.835 7.83358 106.064 7.97359C106.167 8.03991 106.278 8.09887 106.366 8.17993C106.432 8.23888 106.499 8.29047 106.572 8.34205C106.609 8.3789 106.646 8.40837 106.676 8.44522C106.772 8.51891 106.853 8.59997 106.926 8.69577C106.963 8.73262 106.993 8.76946 107.03 8.79894C107.103 8.89474 107.17 8.99054 107.243 9.08634C107.361 9.2632 107.435 9.46217 107.516 9.67587C107.538 9.72746 107.56 9.79378 107.575 9.84537C107.575 9.89695 107.582 9.94853 107.582 10.0001C107.59 10.0296 107.619 10.0664 107.619 10.0959C107.604 10.0959 107.59 10.0885 107.582 10.0885C107.641 10.177 107.708 10.2728 107.767 10.3612C107.811 10.4202 107.862 10.4717 107.899 10.5454C107.914 10.5897 107.921 10.6339 107.936 10.6781V10.7444C107.951 10.8034 107.951 10.9729 107.936 11.0244C107.929 11.0171 107.921 11.0097 107.914 11.0097C107.907 11.0097 107.899 11.0171 107.892 11.0171C107.877 11.1423 107.98 11.1718 108.017 11.2676C108.076 11.415 108.076 11.5919 108.106 11.7761V11.9161V12.0856C108.106 12.1888 108.106 12.2993 108.106 12.4025C108.091 12.4983 108.091 12.6383 108.106 12.7341C108.106 12.7857 108.113 12.8373 108.113 12.8888C108.143 13.0141 108.172 13.1247 108.201 13.2426C108.224 13.331 108.165 13.3752 108.187 13.4489C108.224 13.5594 108.268 13.6626 108.305 13.7731C108.445 14.149 108.563 14.5027 108.776 14.7975C108.946 15.0406 109.197 15.2101 109.506 15.3133C109.735 15.387 109.985 15.4165 110.236 15.4681C110.376 15.4975 110.509 15.4828 110.656 15.5123C110.862 15.5491 111.106 15.5418 111.334 15.5418H111.607H111.894C112.204 15.5344 112.514 15.5196 112.823 15.5123H113.059C113.103 15.5123 113.147 15.5123 113.192 15.5123H113.487C114.128 15.527 114.784 15.5418 115.418 15.7776C115.477 15.7997 115.727 15.866 115.749 15.8955C115.779 15.9323 115.779 16.065 115.749 16.1092C115.72 16.146 115.639 16.1681 115.595 16.1902C115.425 16.2713 115.226 16.3303 114.975 16.3303H114.843C114.459 16.2713 114.076 16.2271 113.634 16.2271C113.472 16.2271 113.31 16.2345 113.14 16.2345C112.941 16.2492 112.749 16.2639 112.55 16.2713C112.086 16.3155 111.614 16.3671 111.15 16.4113C111.01 16.4187 110.877 16.4334 110.737 16.4408C110.597 16.4482 110.464 16.4555 110.324 16.4703H110.221C110.162 16.4703 110.103 16.4703 110.052 16.4703C109.948 16.4703 109.845 16.4703 109.749 16.4703C109.676 16.4703 109.595 16.4629 109.521 16.4629C109.322 16.4334 109.13 16.4408 108.953 16.3892C108.342 16.2271 107.944 15.9692 107.516 15.6302C107.391 15.5344 107.28 15.4165 107.177 15.2986C106.904 14.9891 106.631 14.6722 106.41 14.3111C106.315 14.149 106.226 13.9942 106.13 13.8321C106.086 13.751 106.071 13.6626 105.983 13.6258C105.909 13.5963 105.776 13.611 105.695 13.6258C105.644 13.6331 105.6 13.6405 105.548 13.6479C105.371 13.7068 105.246 13.8174 105.143 13.95C105.002 14.149 105.01 14.3701 104.958 14.6575C104.944 14.7459 104.951 14.8491 104.936 14.9522C104.914 15.0849 104.914 15.2691 104.936 15.4017C104.944 15.5344 104.951 15.667 104.958 15.7923C104.973 15.866 104.966 15.9471 104.988 16.0281C105.032 16.2418 105.047 16.4703 105.098 16.6692C105.135 16.8314 105.157 16.9935 105.194 17.1482C105.209 17.2146 105.209 17.2956 105.238 17.3546L105.231 17.3619C105.113 17.3546 104.995 17.3472 104.877 17.3398C104.627 17.3325 104.376 17.3251 104.133 17.3177C103.934 17.3177 103.735 17.3251 103.536 17.3251C103.02 17.3398 102.504 17.3472 101.988 17.3619H101.14C101.088 17.3546 100.956 17.3767 100.919 17.3546C100.948 17.2956 100.971 17.244 101 17.1851C100.801 17.1703 100.572 17.1703 100.403 17.2072C100.315 17.1998 100.241 17.2146 100.174 17.2293Z" fill="#9E9E9E" fill-opacity="0.8"/>
    <path fill-rule="evenodd" clip-rule="evenodd" d="M101.546 16.4111C101.538 16.4111 101.531 16.4185 101.523 16.4185C101.538 16.4185 101.56 16.4185 101.575 16.4185C101.568 16.4111 101.553 16.4111 101.546 16.4111Z" fill="#9E9E9E" fill-opacity="0.8"/>
    <path fill-rule="evenodd" clip-rule="evenodd" d="M101.494 16.4111C101.45 16.4185 101.406 16.4259 101.361 16.4259V16.4332C101.413 16.4259 101.465 16.4185 101.516 16.4111C101.501 16.4185 101.494 16.4185 101.494 16.4111Z" fill="#9E9E9E" fill-opacity="0.8"/>
    <path fill-rule="evenodd" clip-rule="evenodd" d="M101.324 16.4407C101.302 16.448 101.28 16.448 101.258 16.4554C101.199 16.4775 101.14 16.4923 101.073 16.5144V16.5218C101.147 16.4849 101.258 16.4554 101.346 16.4407C101.346 16.4407 101.331 16.4407 101.324 16.4407Z" fill="#9E9E9E" fill-opacity="0.8"/>
    <path fill-rule="evenodd" clip-rule="evenodd" d="M100.388 4.2373C100.757 4.2373 101.051 4.64271 101.051 5.14394C101.051 5.64517 100.757 6.05057 100.388 6.05057C100.019 6.05057 99.7246 5.64517 99.7246 5.14394C99.7246 4.64271 100.027 4.2373 100.388 4.2373Z" fill="#9E9E9E" fill-opacity="0.8"/>
    <path d="M4.576 9.576C6.06933 9.576 7.15733 9.86933 7.84 10.456C8.52267 11.0427 8.864 11.8693 8.864 12.936C8.864 13.4053 8.784 13.8587 8.624 14.296C8.47467 14.7227 8.224 15.1067 7.872 15.448C7.52 15.7893 7.05067 16.0613 6.464 16.264C5.87733 16.456 5.15733 16.552 4.304 16.552H2.992V21H1.552V9.576H4.576ZM4.448 10.808H2.992V15.32H4.144C4.86933 15.32 5.472 15.2453 5.952 15.096C6.432 14.936 6.78933 14.6853 7.024 14.344C7.25867 14.0027 7.376 13.5547 7.376 13C7.376 12.264 7.14133 11.7147 6.672 11.352C6.20267 10.9893 5.46133 10.808 4.448 10.808ZM15.0475 12.264C15.2075 12.264 15.3782 12.2747 15.5595 12.296C15.7515 12.3067 15.9168 12.328 16.0555 12.36L15.8795 13.656C15.7408 13.624 15.5862 13.5973 15.4155 13.576C15.2555 13.5547 15.1008 13.544 14.9515 13.544C14.6208 13.544 14.3062 13.6133 14.0075 13.752C13.7088 13.8907 13.4422 14.088 13.2075 14.344C12.9728 14.5893 12.7862 14.888 12.6475 15.24C12.5195 15.592 12.4555 15.9867 12.4555 16.424V21H11.0475V12.424H12.1995L12.3595 13.992H12.4235C12.6048 13.672 12.8235 13.384 13.0795 13.128C13.3355 12.8613 13.6288 12.6533 13.9595 12.504C14.2902 12.344 14.6528 12.264 15.0475 12.264ZM24.8004 16.696C24.8004 17.4107 24.7044 18.0453 24.5124 18.6C24.331 19.144 24.0644 19.608 23.7124 19.992C23.371 20.376 22.9497 20.6693 22.4484 20.872C21.9577 21.064 21.4084 21.16 20.8004 21.16C20.235 21.16 19.7124 21.064 19.2324 20.872C18.7524 20.6693 18.3364 20.376 17.9844 19.992C17.6324 19.608 17.355 19.144 17.1524 18.6C16.9604 18.0453 16.8644 17.4107 16.8644 16.696C16.8644 15.7467 17.0244 14.9467 17.3444 14.296C17.6644 13.6347 18.123 13.1333 18.7204 12.792C19.3177 12.44 20.027 12.264 20.8484 12.264C21.627 12.264 22.3097 12.44 22.8964 12.792C23.4937 13.1333 23.9577 13.6347 24.2884 14.296C24.6297 14.9467 24.8004 15.7467 24.8004 16.696ZM18.3204 16.696C18.3204 17.368 18.4057 17.9547 18.5764 18.456C18.7577 18.9467 19.035 19.3253 19.4084 19.592C19.7817 19.8587 20.2564 19.992 20.8324 19.992C21.4084 19.992 21.883 19.8587 22.2564 19.592C22.6297 19.3253 22.9017 18.9467 23.0724 18.456C23.2537 17.9547 23.3444 17.368 23.3444 16.696C23.3444 16.0133 23.2537 15.432 23.0724 14.952C22.891 14.472 22.6137 14.104 22.2404 13.848C21.8777 13.5813 21.403 13.448 20.8164 13.448C19.9417 13.448 19.307 13.736 18.9124 14.312C18.5177 14.888 18.3204 15.6827 18.3204 16.696ZM30.0719 21.16C29.0052 21.16 28.1519 20.792 27.5119 20.056C26.8719 19.3093 26.5519 18.2 26.5519 16.728C26.5519 15.256 26.8719 14.1467 27.5119 13.4C28.1625 12.6427 29.0212 12.264 30.0879 12.264C30.5359 12.264 30.9252 12.3227 31.2559 12.44C31.5865 12.5467 31.8745 12.696 32.1199 12.888C32.3652 13.08 32.5732 13.2933 32.7439 13.528H32.8399C32.8292 13.3893 32.8079 13.1867 32.7759 12.92C32.7545 12.6427 32.7439 12.424 32.7439 12.264V8.84H34.1519V21H33.0159L32.8079 19.848H32.7439C32.5732 20.0933 32.3652 20.3173 32.1199 20.52C31.8745 20.712 31.5812 20.8667 31.2399 20.984C30.9092 21.1013 30.5199 21.16 30.0719 21.16ZM30.2959 19.992C31.2025 19.992 31.8372 19.7467 32.1999 19.256C32.5732 18.7547 32.7599 18.0027 32.7599 17V16.744C32.7599 15.6773 32.5839 14.8613 32.2319 14.296C31.8799 13.72 31.2292 13.432 30.2799 13.432C29.5225 13.432 28.9519 13.736 28.5679 14.344C28.1945 14.9413 28.0079 15.7467 28.0079 16.76C28.0079 17.784 28.1945 18.5787 28.5679 19.144C28.9519 19.7093 29.5279 19.992 30.2959 19.992ZM44.0436 12.424V21H42.8916L42.6836 19.864H42.6196C42.4383 20.1627 42.2036 20.408 41.9156 20.6C41.6276 20.792 41.313 20.9307 40.9716 21.016C40.6303 21.112 40.273 21.16 39.8996 21.16C39.217 21.16 38.641 21.0533 38.1716 20.84C37.713 20.616 37.3663 20.2747 37.1316 19.816C36.897 19.3573 36.7796 18.7653 36.7796 18.04V12.424H38.2036V17.944C38.2036 18.6267 38.3583 19.1387 38.6676 19.48C38.977 19.8213 39.457 19.992 40.1076 19.992C40.7476 19.992 41.249 19.8747 41.6116 19.64C41.985 19.3947 42.2463 19.0427 42.3956 18.584C42.5556 18.1147 42.6356 17.5493 42.6356 16.888V12.424H44.0436ZM50.2063 21.16C49.4489 21.16 48.7716 21.0053 48.1743 20.696C47.5876 20.3867 47.1236 19.9067 46.7823 19.256C46.4516 18.6053 46.2863 17.7733 46.2863 16.76C46.2863 15.704 46.4623 14.8453 46.8143 14.184C47.1663 13.5227 47.6409 13.0373 48.2383 12.728C48.8463 12.4187 49.5343 12.264 50.3023 12.264C50.7396 12.264 51.1609 12.312 51.5663 12.408C51.9716 12.4933 52.3023 12.6 52.5583 12.728L52.1263 13.896C51.8703 13.8 51.5716 13.7093 51.2303 13.624C50.8889 13.5387 50.5689 13.496 50.2703 13.496C49.6943 13.496 49.2196 13.6187 48.8463 13.864C48.4729 14.1093 48.1956 14.472 48.0143 14.952C47.8329 15.432 47.7423 16.0293 47.7423 16.744C47.7423 17.4267 47.8329 18.008 48.0143 18.488C48.1956 18.968 48.4676 19.3307 48.8303 19.576C49.1929 19.8213 49.6463 19.944 50.1903 19.944C50.6596 19.944 51.0703 19.896 51.4223 19.8C51.7849 19.704 52.1156 19.5867 52.4143 19.448V20.696C52.1263 20.8453 51.8063 20.9573 51.4543 21.032C51.1129 21.1173 50.6969 21.16 50.2063 21.16ZM57.3177 20.008C57.5311 20.008 57.7498 19.992 57.9738 19.96C58.1978 19.9173 58.3791 19.8747 58.5178 19.832V20.904C58.3684 20.9787 58.1551 21.0373 57.8778 21.08C57.6004 21.1333 57.3338 21.16 57.0778 21.16C56.6298 21.16 56.2138 21.0853 55.8298 20.936C55.4564 20.776 55.1524 20.504 54.9178 20.12C54.6831 19.736 54.5658 19.1973 54.5658 18.504V13.512H53.3498V12.84L54.5818 12.28L55.1418 10.456H55.9738V12.424H58.4538V13.512H55.9738V18.472C55.9738 18.9947 56.0964 19.384 56.3418 19.64C56.5978 19.8853 56.9231 20.008 57.3177 20.008ZM71.8472 16.696C71.8472 17.4107 71.7513 18.0453 71.5593 18.6C71.3779 19.144 71.1113 19.608 70.7593 19.992C70.4179 20.376 69.9966 20.6693 69.4953 20.872C69.0046 21.064 68.4553 21.16 67.8473 21.16C67.2819 21.16 66.7593 21.064 66.2793 20.872C65.7993 20.6693 65.3833 20.376 65.0312 19.992C64.6793 19.608 64.4019 19.144 64.1993 18.6C64.0073 18.0453 63.9113 17.4107 63.9113 16.696C63.9113 15.7467 64.0713 14.9467 64.3913 14.296C64.7113 13.6347 65.1699 13.1333 65.7673 12.792C66.3646 12.44 67.0739 12.264 67.8953 12.264C68.6739 12.264 69.3566 12.44 69.9433 12.792C70.5406 13.1333 71.0046 13.6347 71.3353 14.296C71.6766 14.9467 71.8472 15.7467 71.8472 16.696ZM65.3673 16.696C65.3673 17.368 65.4526 17.9547 65.6233 18.456C65.8046 18.9467 66.0819 19.3253 66.4553 19.592C66.8286 19.8587 67.3033 19.992 67.8793 19.992C68.4553 19.992 68.9299 19.8587 69.3033 19.592C69.6766 19.3253 69.9486 18.9467 70.1193 18.456C70.3006 17.9547 70.3913 17.368 70.3913 16.696C70.3913 16.0133 70.3006 15.432 70.1193 14.952C69.9379 14.472 69.6606 14.104 69.2873 13.848C68.9246 13.5813 68.4499 13.448 67.8633 13.448C66.9886 13.448 66.3539 13.736 65.9593 14.312C65.5646 14.888 65.3673 15.6827 65.3673 16.696ZM78.0308 13.512H75.8708V21H74.4628V13.512H72.9588V12.856L74.4628 12.376V11.88C74.4628 11.144 74.5694 10.5467 74.7828 10.088C75.0068 9.62933 75.3268 9.29333 75.7428 9.08C76.1588 8.86667 76.6601 8.76 77.2468 8.76C77.5881 8.76 77.8974 8.792 78.1748 8.856C78.4628 8.90933 78.7081 8.97333 78.9108 9.048L78.5428 10.152C78.3721 10.0987 78.1748 10.0453 77.9508 9.992C77.7268 9.93867 77.4974 9.912 77.2628 9.912C76.7934 9.912 76.4414 10.072 76.2068 10.392C75.9828 10.7013 75.8708 11.192 75.8708 11.864V12.424H78.0308V13.512Z" fill="#9E9E9E" fill-opacity="0.8"/>
</svg>
