<svg width="350" height="322" viewBox="0 0 350 322" fill="none" xmlns="http://www.w3.org/2000/svg">
<circle cx="318.36" cy="233.88" r="4.62" fill="white" stroke="#009688"/>
<path d="M318.361 207.641C315.561 207.644 312.877 208.757 310.897 210.737C308.918 212.717 307.804 215.401 307.801 218.201C307.801 227.237 317.401 234.061 317.81 234.347C317.971 234.46 318.164 234.52 318.361 234.52C318.558 234.52 318.75 234.46 318.912 234.347C319.321 234.061 328.921 227.237 328.921 218.201C328.918 215.401 327.804 212.717 325.824 210.737C323.845 208.757 321.16 207.644 318.361 207.641ZM318.361 214.361C319.12 214.361 319.863 214.586 320.494 215.008C321.126 215.43 321.618 216.029 321.908 216.731C322.199 217.433 322.275 218.205 322.127 218.95C321.979 219.695 321.613 220.379 321.076 220.916C320.539 221.453 319.855 221.819 319.11 221.967C318.365 222.115 317.593 222.039 316.891 221.748C316.19 221.458 315.59 220.965 315.168 220.334C314.746 219.703 314.521 218.96 314.521 218.201C314.521 217.182 314.925 216.205 315.645 215.485C316.366 214.765 317.342 214.361 318.361 214.361Z" fill="#009688"/>
<path d="M299.07 250.298C299.07 250.895 298.925 251.404 298.636 251.824C298.347 252.244 297.931 252.571 297.39 252.804C296.849 253.028 296.205 253.14 295.458 253.14C295.094 253.14 294.744 253.117 294.408 253.07C294.072 253.033 293.759 252.977 293.47 252.902C293.181 252.827 292.924 252.734 292.7 252.622V251.194C293.073 251.362 293.512 251.516 294.016 251.656C294.52 251.787 295.033 251.852 295.556 251.852C296.004 251.852 296.377 251.791 296.676 251.67C296.975 251.549 297.199 251.381 297.348 251.166C297.497 250.951 297.572 250.699 297.572 250.41C297.572 250.102 297.493 249.845 297.334 249.64C297.185 249.425 296.947 249.229 296.62 249.052C296.303 248.865 295.873 248.669 295.332 248.464C294.959 248.324 294.618 248.17 294.31 248.002C294.011 247.825 293.745 247.619 293.512 247.386C293.288 247.153 293.115 246.882 292.994 246.574C292.873 246.266 292.812 245.907 292.812 245.496C292.812 244.945 292.947 244.474 293.218 244.082C293.498 243.69 293.881 243.391 294.366 243.186C294.851 242.971 295.416 242.864 296.06 242.864C296.601 242.864 297.101 242.92 297.558 243.032C298.025 243.135 298.468 243.279 298.888 243.466L298.412 244.712C298.029 244.553 297.642 244.423 297.25 244.32C296.858 244.217 296.447 244.166 296.018 244.166C295.645 244.166 295.332 244.222 295.08 244.334C294.828 244.446 294.637 244.6 294.506 244.796C294.385 244.992 294.324 245.221 294.324 245.482C294.324 245.79 294.394 246.047 294.534 246.252C294.674 246.457 294.898 246.649 295.206 246.826C295.514 246.994 295.92 247.181 296.424 247.386C296.984 247.601 297.46 247.834 297.852 248.086C298.253 248.338 298.557 248.641 298.762 248.996C298.967 249.341 299.07 249.775 299.07 250.298ZM299.711 245.454H301.307L302.875 249.738C302.959 249.953 303.034 250.163 303.099 250.368C303.165 250.573 303.221 250.779 303.267 250.984C303.323 251.18 303.365 251.376 303.393 251.572H303.449C303.496 251.329 303.571 251.045 303.673 250.718C303.776 250.382 303.883 250.051 303.995 249.724L305.479 245.454H307.075L303.841 254.022C303.664 254.507 303.445 254.923 303.183 255.268C302.922 255.623 302.609 255.893 302.245 256.08C301.891 256.267 301.471 256.36 300.985 256.36C300.752 256.36 300.551 256.346 300.383 256.318C300.215 256.299 300.071 256.276 299.949 256.248V255.072C300.052 255.091 300.173 255.109 300.313 255.128C300.463 255.147 300.617 255.156 300.775 255.156C301.065 255.156 301.312 255.1 301.517 254.988C301.732 254.876 301.909 254.717 302.049 254.512C302.199 254.307 302.325 254.073 302.427 253.812L302.735 253L299.711 245.454ZM310.832 253.14C309.927 253.14 309.194 252.813 308.634 252.16C308.083 251.507 307.808 250.536 307.808 249.248C307.808 247.951 308.088 246.971 308.648 246.308C309.208 245.645 309.945 245.314 310.86 245.314C311.243 245.314 311.574 245.365 311.854 245.468C312.143 245.561 312.391 245.692 312.596 245.86C312.811 246.028 312.993 246.215 313.142 246.42H313.226C313.207 246.289 313.184 246.103 313.156 245.86C313.128 245.608 313.114 245.384 313.114 245.188V242.36H314.598V253H313.436L313.184 251.992H313.114C312.974 252.207 312.797 252.403 312.582 252.58C312.377 252.748 312.129 252.883 311.84 252.986C311.551 253.089 311.215 253.14 310.832 253.14ZM311.182 251.922C311.91 251.922 312.423 251.721 312.722 251.32C313.021 250.909 313.17 250.298 313.17 249.486V249.262C313.17 248.375 313.025 247.699 312.736 247.232C312.456 246.765 311.933 246.532 311.168 246.532C310.561 246.532 310.104 246.779 309.796 247.274C309.488 247.759 309.334 248.427 309.334 249.276C309.334 250.125 309.488 250.779 309.796 251.236C310.104 251.693 310.566 251.922 311.182 251.922ZM320.746 245.314C321.623 245.314 322.295 245.533 322.762 245.972C323.228 246.411 323.462 247.115 323.462 248.086V253H321.992V248.296C321.992 247.708 321.866 247.269 321.614 246.98C321.371 246.681 320.979 246.532 320.438 246.532C319.672 246.532 319.14 246.761 318.842 247.218C318.552 247.675 318.408 248.333 318.408 249.192V253H316.924V245.454H318.1L318.31 246.462H318.394C318.562 246.201 318.767 245.986 319.01 245.818C319.252 245.65 319.523 245.524 319.822 245.44C320.12 245.356 320.428 245.314 320.746 245.314ZM328.71 245.314C329.373 245.314 329.942 245.454 330.418 245.734C330.894 246.005 331.258 246.397 331.51 246.91C331.771 247.423 331.902 248.03 331.902 248.73V249.542H326.834C326.853 250.317 327.053 250.909 327.436 251.32C327.828 251.731 328.374 251.936 329.074 251.936C329.559 251.936 329.989 251.894 330.362 251.81C330.745 251.717 331.137 251.581 331.538 251.404V252.636C331.165 252.804 330.782 252.93 330.39 253.014C330.007 253.098 329.55 253.14 329.018 253.14C328.29 253.14 327.646 252.995 327.086 252.706C326.526 252.417 326.087 251.987 325.77 251.418C325.462 250.839 325.308 250.13 325.308 249.29C325.308 248.441 325.448 247.722 325.728 247.134C326.017 246.546 326.414 246.098 326.918 245.79C327.431 245.473 328.029 245.314 328.71 245.314ZM328.71 246.462C328.178 246.462 327.749 246.635 327.422 246.98C327.105 247.325 326.918 247.815 326.862 248.45H330.418C330.418 248.058 330.357 247.713 330.236 247.414C330.115 247.115 329.928 246.882 329.676 246.714C329.424 246.546 329.102 246.462 328.71 246.462ZM332.332 245.454H333.928L335.496 249.738C335.58 249.953 335.655 250.163 335.72 250.368C335.786 250.573 335.842 250.779 335.888 250.984C335.944 251.18 335.986 251.376 336.014 251.572H336.07C336.117 251.329 336.192 251.045 336.294 250.718C336.397 250.382 336.504 250.051 336.616 249.724L338.1 245.454H339.696L336.462 254.022C336.285 254.507 336.066 254.923 335.804 255.268C335.543 255.623 335.23 255.893 334.866 256.08C334.512 256.267 334.092 256.36 333.606 256.36C333.373 256.36 333.172 256.346 333.004 256.318C332.836 256.299 332.692 256.276 332.57 256.248V255.072C332.673 255.091 332.794 255.109 332.934 255.128C333.084 255.147 333.238 255.156 333.396 255.156C333.686 255.156 333.933 255.1 334.138 254.988C334.353 254.876 334.53 254.717 334.67 254.512C334.82 254.307 334.946 254.073 335.048 253.812L335.356 253L332.332 245.454Z" fill="#009688"/>
</svg>
