<svg width="32" height="17" viewBox="0 0 32 17" fill="none" xmlns="http://www.w3.org/2000/svg">
<path d="M4.09355 4.08544H7.42145M4.09355 4.08544V8.97468M4.09355 4.08544H10.3681C10.4234 4.08544 10.4681 4.13021 10.4681 4.18544V8.87468C10.4681 8.92991 10.4234 8.97468 10.3681 8.97468H4.09355M7.42145 8.97468H4.09355M19.3269 4.08544V8.97468M19.3269 4.08544H16.374M19.3269 4.08544H13.5211C13.4658 4.08544 13.4211 4.13021 13.4211 4.18544V8.87468C13.4211 8.92991 13.4658 8.97468 13.5211 8.97468H19.3269M19.3269 8.97468H16.374M30.998 6.83861V2.8038C31.0449 1.80696 30.2481 1 29.2638 1C28.6224 1 27.3543 1 25.7015 1M4.51539 14.1487C4.51539 15.1456 5.31222 16 6.3434 16C7.32771 16 8.17141 15.1456 8.17141 14.1487M4.51539 14.1487C4.51539 13.1519 5.35909 12.2975 6.3434 12.2975C7.32771 12.2975 8.17141 13.1519 8.17141 14.1487M4.51539 14.1487H1.1C1.04477 14.1487 1 14.104 1 14.0487V2.66139C1 1.75949 1.74995 1 2.64052 1C5.58188 1 18.8991 1 25.7015 1M8.17141 14.1487H21.6236M21.6236 14.1487C21.6236 15.1456 22.4205 16 23.4517 16C24.4828 16 25.2797 15.1456 25.2797 14.1487M21.6236 14.1487C21.6236 13.1519 22.4673 12.2975 23.4517 12.2975C24.436 12.2975 25.2797 13.1519 25.2797 14.1487M25.2797 14.1487H28.6013C28.6565 14.1487 28.7013 14.104 28.7013 14.0487V5.6519C28.7013 4.13291 27.9982 2.8038 26.8733 1.94937L25.7015 1M24.1547 4.08544H22.4736C22.4184 4.08544 22.3736 4.13021 22.3736 4.18544V8.87468C22.3736 8.92991 22.4184 8.97468 22.4736 8.97468H25.6015C25.6567 8.97468 25.7015 8.92991 25.7015 8.87468V5.6519C25.7015 4.79747 24.9984 4.08544 24.1547 4.08544Z" stroke="#595959" stroke-linecap="round"/>
</svg>
