<svg width="24" height="24" viewBox="0 0 24 24" fill="none" xmlns="http://www.w3.org/2000/svg">
<path d="M16.4357 4.60516L11.737 3.03843C11.5832 2.98719 11.4168 2.98719 11.263 3.03843L6.56425 4.60516C5.81718 4.85331 5.16731 5.33059 4.70698 5.96917C4.24666 6.60775 3.99928 7.37515 4 8.16235V12C4 17.6722 10.9 20.8049 11.1955 20.9354C11.2914 20.978 11.3951 21 11.5 21C11.6049 21 11.7086 20.978 11.8045 20.9354C12.1 20.8049 19 17.6722 19 12V8.16235C19.0007 7.37515 18.7533 6.60775 18.293 5.96917C17.8327 5.33059 17.1828 4.85331 16.4357 4.60516ZM17.5 12C17.5 16.0912 12.7607 18.7747 11.5 19.4167C10.2378 18.7769 5.5 16.1017 5.5 12V8.16235C5.50005 7.69007 5.64871 7.22977 5.92493 6.84668C6.20114 6.46359 6.59091 6.17713 7.039 6.02788L11.5 4.54066L15.961 6.02788C16.4091 6.17713 16.7989 6.46359 17.0751 6.84668C17.3513 7.22977 17.5 7.69007 17.5 8.16235V12Z" fill="black"/>
<path d="M13.7868 9.22421L10.8204 12.4356L9.23098 10.6464C9.1672 10.5711 9.09009 10.5104 9.00422 10.4677C8.91835 10.4251 8.82545 10.4015 8.73098 10.3982C8.63652 10.3949 8.5424 10.4121 8.45418 10.4487C8.36596 10.4853 8.28542 10.5406 8.2173 10.6114C8.14918 10.6821 8.09486 10.7668 8.05754 10.8605C8.02023 10.9543 8.00067 11.0551 8.00002 11.1572C7.99937 11.2592 8.01764 11.3603 8.05375 11.4546C8.08987 11.5489 8.1431 11.6344 8.21031 11.7062L9.84367 13.5412C9.96548 13.6833 10.1127 13.7971 10.2765 13.876C10.4402 13.9548 10.6171 13.997 10.7964 14H10.8197C10.9954 14.0006 11.1695 13.9636 11.3318 13.891C11.4941 13.8184 11.6415 13.7117 11.7653 13.5772L14.7912 10.3107C14.8573 10.2395 14.9098 10.155 14.9456 10.0619C14.9814 9.96885 14.9999 9.86907 15 9.76828C15.0001 9.6675 14.9818 9.56768 14.9462 9.47452C14.9105 9.38137 14.8582 9.2967 14.7923 9.22536C14.7263 9.15402 14.648 9.0974 14.5618 9.05873C14.4756 9.02006 14.3832 9.00011 14.2898 9C14.1964 8.99989 14.104 9.01964 14.0177 9.05811C13.9314 9.09658 13.8529 9.15302 13.7868 9.22421Z" fill="black"/>
</svg>
