<svg width="350" height="322" viewBox="0 0 350 322" fill="none" xmlns="http://www.w3.org/2000/svg">
<circle cx="37.3602" cy="218.88" r="4.62" fill="white" stroke="#009688"/>
<path d="M37.3608 192.641C34.5611 192.644 31.8769 193.757 29.8972 195.737C27.9175 197.717 26.804 200.401 26.8008 203.201C26.8008 212.237 36.4008 219.061 36.81 219.347C36.9714 219.46 37.1637 219.52 37.3608 219.52C37.5579 219.52 37.7502 219.46 37.9116 219.347C38.3208 219.061 47.9208 212.237 47.9208 203.201C47.9176 200.401 46.804 197.717 44.8243 195.737C42.8446 193.757 40.1605 192.644 37.3608 192.641ZM37.3608 199.361C38.1203 199.361 38.8627 199.586 39.4942 200.008C40.1257 200.43 40.6178 201.029 40.9085 201.731C41.1991 202.433 41.2752 203.205 41.127 203.95C40.9788 204.695 40.6131 205.379 40.0761 205.916C39.539 206.453 38.8548 206.819 38.1099 206.967C37.365 207.115 36.5929 207.039 35.8913 206.748C35.1896 206.458 34.5899 205.965 34.1679 205.334C33.746 204.703 33.5208 203.96 33.5208 203.201C33.5208 202.182 33.9254 201.205 34.6455 200.485C35.3656 199.765 36.3424 199.361 37.3608 199.361Z" fill="#009688"/>
<path d="M22.13 228.004C23.4367 228.004 24.3887 228.27 24.986 228.802C25.5833 229.325 25.882 230.057 25.882 231C25.882 231.42 25.812 231.821 25.672 232.204C25.5413 232.587 25.322 232.932 25.014 233.24C24.706 233.539 24.2953 233.777 23.782 233.954C23.278 234.122 22.6573 234.206 21.92 234.206H20.842V238H19.33V228.004H22.13ZM22.018 229.278H20.842V232.932H21.752C22.3213 232.932 22.7973 232.871 23.18 232.75C23.5627 232.619 23.8473 232.419 24.034 232.148C24.23 231.868 24.328 231.504 24.328 231.056C24.328 230.459 24.1413 230.015 23.768 229.726C23.404 229.427 22.8207 229.278 22.018 229.278ZM30.7023 230.314C31.3649 230.314 31.9343 230.454 32.4103 230.734C32.8863 231.005 33.2503 231.397 33.5023 231.91C33.7636 232.423 33.8943 233.03 33.8943 233.73V234.542H28.8263C28.8449 235.317 29.0456 235.909 29.4283 236.32C29.8203 236.731 30.3663 236.936 31.0663 236.936C31.5516 236.936 31.9809 236.894 32.3543 236.81C32.7369 236.717 33.1289 236.581 33.5303 236.404V237.636C33.1569 237.804 32.7743 237.93 32.3823 238.014C31.9996 238.098 31.5423 238.14 31.0103 238.14C30.2823 238.14 29.6383 237.995 29.0783 237.706C28.5183 237.417 28.0796 236.987 27.7623 236.418C27.4543 235.839 27.3003 235.13 27.3003 234.29C27.3003 233.441 27.4403 232.722 27.7203 232.134C28.0096 231.546 28.4063 231.098 28.9103 230.79C29.4236 230.473 30.0209 230.314 30.7023 230.314ZM30.7023 231.462C30.1703 231.462 29.7409 231.635 29.4143 231.98C29.0969 232.325 28.9103 232.815 28.8543 233.45H32.4103C32.4103 233.058 32.3496 232.713 32.2283 232.414C32.1069 232.115 31.9203 231.882 31.6683 231.714C31.4163 231.546 31.0943 231.462 30.7023 231.462ZM39.47 230.314C39.6007 230.314 39.7453 230.323 39.904 230.342C40.0627 230.351 40.1933 230.365 40.296 230.384L40.142 231.77C40.0393 231.742 39.918 231.719 39.778 231.7C39.638 231.681 39.5073 231.672 39.386 231.672C39.106 231.672 38.8353 231.728 38.574 231.84C38.322 231.943 38.0933 232.097 37.888 232.302C37.6827 232.498 37.5193 232.741 37.398 233.03C37.286 233.319 37.23 233.651 37.23 234.024V238H35.746V230.454H36.922L37.118 231.798H37.174C37.3327 231.527 37.524 231.28 37.748 231.056C37.972 230.832 38.2287 230.655 38.518 230.524C38.8073 230.384 39.1247 230.314 39.47 230.314ZM44.4093 236.936C44.6053 236.936 44.8059 236.917 45.0113 236.88C45.2166 236.843 45.3939 236.801 45.5433 236.754V237.874C45.3846 237.949 45.1699 238.009 44.8993 238.056C44.6286 238.112 44.3579 238.14 44.0873 238.14C43.6766 238.14 43.2986 238.07 42.9533 237.93C42.6173 237.79 42.3466 237.547 42.1413 237.202C41.9359 236.857 41.8333 236.376 41.8333 235.76V231.588H40.7833V230.916L41.8893 230.356L42.4073 228.76H43.3173V230.454H45.4733V231.588H43.3173V235.732C43.3173 236.143 43.4153 236.446 43.6113 236.642C43.8166 236.838 44.0826 236.936 44.4093 236.936ZM48.5366 230.202C48.5366 230.435 48.5273 230.669 48.5086 230.902C48.49 231.135 48.4713 231.327 48.4526 231.476H48.5506C48.7093 231.215 48.9053 231 49.1386 230.832C49.3813 230.664 49.6473 230.538 49.9366 230.454C50.2353 230.37 50.5386 230.328 50.8466 230.328C51.444 230.328 51.9433 230.426 52.3446 230.622C52.7553 230.809 53.0633 231.107 53.2686 231.518C53.4833 231.919 53.5906 232.442 53.5906 233.086V238H52.1206V233.296C52.1206 232.708 51.9946 232.269 51.7426 231.98C51.5 231.681 51.108 231.532 50.5666 231.532C50.0533 231.532 49.6473 231.635 49.3486 231.84C49.0593 232.045 48.8493 232.349 48.7186 232.75C48.5973 233.142 48.5366 233.627 48.5366 234.206V238H47.0526V227.36H48.5366V230.202Z" fill="#009688"/>
</svg>
