<svg width="43" height="43" viewBox="0 0 43 43" fill="none" xmlns="http://www.w3.org/2000/svg">
    <path
        d="M14.9152 5.17411C23.4677 5.17411 30.4762 11.8874 30.9454 20.3189C30.9757 20.614 30.9909 20.9168 30.9909 21.2271C30.9909 21.6736 30.9606 22.1278 30.9 22.5592C30.2491 27.3349 26.1545 31.0133 21.2047 31.0133C18.5557 31.0133 16.164 29.9537 14.4005 28.2507C16.9133 32.9357 21.8556 36.1296 27.5244 36.1296C35.1536 36.1296 41.4506 30.3548 42.3059 22.9527C42.321 22.8241 42.374 22.1732 42.3891 21.8477C42.3967 21.6434 42.4043 21.4466 42.4043 21.2422C42.4043 20.9773 42.4043 20.7049 42.3816 20.4475C41.9729 9.09464 32.6559 0.0274658 21.2122 0.0274658C13.3485 0.0274658 6.48375 4.31886 2.82812 10.684C5.77231 7.31602 10.1015 5.18168 14.9227 5.18168L14.9152 5.17411Z"
        fill="#8F8F8F" />
    <path
        d="M27.5392 37.2726C20.5079 37.2726 14.5136 32.7163 12.3566 26.3965C11.9706 25.2688 11.4332 23.0587 11.4332 21.2271C11.4332 20.7806 11.4635 20.3265 11.524 19.8951C12.1749 15.1193 16.2695 11.441 21.2194 11.441C23.9062 11.441 26.3358 12.5308 28.1068 14.2867C25.6016 9.55637 20.6366 6.33215 14.9223 6.33215C7.3386 6.33215 1.06424 12.0237 0.140873 19.3501C0.133304 19.4258 0.118167 19.5091 0.110598 19.5848C0.0954612 19.7437 0.0727551 19.9405 0.0651865 20.0843C0.0500493 20.3113 0.0349123 20.5384 0.0273438 20.773C0.0273438 20.9244 0.0273438 21.0758 0.0273438 21.2271C0.0273438 21.492 0.0273435 21.7645 0.0500493 22.0218C0.466322 33.3596 9.79083 42.4268 21.227 42.4268C29.0832 42.4268 35.9403 38.1505 39.5959 31.8005C36.6518 35.1533 32.3452 37.2726 27.5467 37.2726H27.5392Z"
        fill="#8F8F8F" />
</svg>
