<svg width="24" height="24" viewBox="0 0 24 24" fill="none" xmlns="http://www.w3.org/2000/svg">
<rect width="24" height="24" rx="12" fill="#00A424" fill-opacity="0.1"/>
<g clip-path="url(#clip0_1569_9170)">
<path d="M17.9823 11.255L15.451 13.4392L16.2222 16.7056C16.2648 16.8829 16.2538 17.0689 16.1907 17.24C16.1277 17.4111 16.0153 17.5596 15.8678 17.6669C15.7203 17.7742 15.5444 17.8353 15.3622 17.8426C15.18 17.8499 14.9997 17.8031 14.8441 17.708L12.0035 15.9597L9.16117 17.708C9.0056 17.8025 8.82553 17.8489 8.64363 17.8414C8.46174 17.8338 8.28616 17.7725 8.13899 17.6654C7.99183 17.5582 7.87967 17.4099 7.81663 17.2391C7.75359 17.0683 7.74249 16.8827 7.78473 16.7056L8.55873 13.4392L6.02748 11.255C5.88984 11.136 5.79029 10.9791 5.74127 10.8039C5.69225 10.6287 5.69594 10.443 5.75186 10.2699C5.80779 10.0967 5.91348 9.94393 6.05573 9.83052C6.19799 9.71711 6.3705 9.64812 6.55173 9.63217L9.87048 9.36442L11.1507 6.26617C11.22 6.09732 11.338 5.95289 11.4896 5.85124C11.6412 5.74959 11.8196 5.69531 12.0021 5.69531C12.1846 5.69531 12.363 5.74959 12.5146 5.85124C12.6662 5.95289 12.7841 6.09732 12.8534 6.26617L14.1331 9.36442L17.4519 9.63217C17.6334 9.64753 17.8065 9.71613 17.9492 9.82939C18.092 9.94264 18.1982 10.0955 18.2545 10.2688C18.3107 10.4422 18.3146 10.6283 18.2656 10.8038C18.2166 10.9793 18.1169 11.1364 17.9789 11.2555L17.9823 11.255Z" fill="#00A424"/>
</g>
<defs>
<clipPath id="clip0_1569_9170">
<rect width="14.4" height="14.4" fill="white" transform="translate(4.80078 4.79688)"/>
</clipPath>
</defs>
</svg>
