<svg width="350" height="322" viewBox="0 0 350 322" fill="none" xmlns="http://www.w3.org/2000/svg">
<circle cx="272.36" cy="257.88" r="4.62" fill="white" stroke="#009688"/>
<path d="M272.361 231.641C269.561 231.644 266.877 232.757 264.897 234.737C262.918 236.717 261.804 239.401 261.801 242.201C261.801 251.237 271.401 258.061 271.81 258.347C271.971 258.46 272.164 258.52 272.361 258.52C272.558 258.52 272.75 258.46 272.912 258.347C273.321 258.061 282.921 251.237 282.921 242.201C282.918 239.401 281.804 236.717 279.824 234.737C277.845 232.757 275.16 231.644 272.361 231.641ZM272.361 238.361C273.12 238.361 273.863 238.586 274.494 239.008C275.126 239.43 275.618 240.029 275.908 240.731C276.199 241.433 276.275 242.205 276.127 242.95C275.979 243.695 275.613 244.379 275.076 244.916C274.539 245.453 273.855 245.819 273.11 245.967C272.365 246.115 271.593 246.039 270.891 245.748C270.19 245.458 269.59 244.965 269.168 244.334C268.746 243.703 268.521 242.96 268.521 242.201C268.521 241.182 268.925 240.205 269.645 239.485C270.366 238.765 271.342 238.361 272.361 238.361Z" fill="#009688"/>
<path d="M240.684 277L237.66 268.502H237.604C237.613 268.689 237.627 268.941 237.646 269.258C237.665 269.575 237.679 269.916 237.688 270.28C237.697 270.644 237.702 271.003 237.702 271.358V277H236.33V267.004H238.486L241.356 275.026H241.412L244.366 267.004H246.522V277H245.052V271.274C245.052 270.947 245.057 270.611 245.066 270.266C245.085 269.911 245.099 269.58 245.108 269.272C245.127 268.964 245.141 268.712 245.15 268.516H245.094L241.986 277H240.684ZM251.982 269.314C252.644 269.314 253.214 269.454 253.69 269.734C254.166 270.005 254.53 270.397 254.782 270.91C255.043 271.423 255.174 272.03 255.174 272.73V273.542H250.106C250.124 274.317 250.325 274.909 250.708 275.32C251.1 275.731 251.646 275.936 252.346 275.936C252.831 275.936 253.26 275.894 253.634 275.81C254.016 275.717 254.408 275.581 254.81 275.404V276.636C254.436 276.804 254.054 276.93 253.662 277.014C253.279 277.098 252.822 277.14 252.29 277.14C251.562 277.14 250.918 276.995 250.358 276.706C249.798 276.417 249.359 275.987 249.042 275.418C248.734 274.839 248.58 274.13 248.58 273.29C248.58 272.441 248.72 271.722 249 271.134C249.289 270.546 249.686 270.098 250.19 269.79C250.703 269.473 251.3 269.314 251.982 269.314ZM251.982 270.462C251.45 270.462 251.02 270.635 250.694 270.98C250.376 271.325 250.19 271.815 250.134 272.45H253.69C253.69 272.058 253.629 271.713 253.508 271.414C253.386 271.115 253.2 270.882 252.948 270.714C252.696 270.546 252.374 270.462 251.982 270.462ZM258.509 277H257.025V266.36H258.509V277ZM262.324 268.922C262.324 269.23 262.314 269.524 262.296 269.804C262.286 270.075 262.272 270.289 262.254 270.448H262.324C262.538 270.131 262.828 269.865 263.192 269.65C263.556 269.435 264.027 269.328 264.606 269.328C265.511 269.328 266.239 269.655 266.79 270.308C267.35 270.961 267.63 271.932 267.63 273.22C267.63 274.088 267.504 274.811 267.252 275.39C267 275.969 266.645 276.407 266.188 276.706C265.73 276.995 265.198 277.14 264.592 277.14C264.004 277.14 263.532 277.037 263.178 276.832C262.823 276.617 262.538 276.365 262.324 276.076H262.212L261.932 277H260.84V266.36H262.324V268.922ZM264.256 270.532C263.77 270.532 263.388 270.625 263.108 270.812C262.828 270.999 262.627 271.283 262.506 271.666C262.384 272.049 262.324 272.534 262.324 273.122V273.234C262.324 274.102 262.464 274.769 262.744 275.236C263.024 275.693 263.537 275.922 264.284 275.922C264.881 275.922 265.334 275.689 265.642 275.222C265.95 274.755 266.104 274.083 266.104 273.206C266.104 272.319 265.95 271.652 265.642 271.204C265.334 270.756 264.872 270.532 264.256 270.532ZM276.171 273.22C276.171 273.845 276.087 274.401 275.919 274.886C275.751 275.371 275.513 275.782 275.205 276.118C274.897 276.454 274.524 276.711 274.085 276.888C273.647 277.056 273.152 277.14 272.601 277.14C272.097 277.14 271.631 277.056 271.201 276.888C270.772 276.711 270.399 276.454 270.081 276.118C269.773 275.782 269.531 275.371 269.353 274.886C269.176 274.401 269.087 273.841 269.087 273.206C269.087 272.375 269.227 271.671 269.507 271.092C269.797 270.513 270.207 270.075 270.739 269.776C271.281 269.468 271.915 269.314 272.643 269.314C273.334 269.314 273.941 269.468 274.463 269.776C274.995 270.075 275.411 270.513 275.709 271.092C276.017 271.671 276.171 272.38 276.171 273.22ZM270.613 273.22C270.613 273.78 270.683 274.265 270.823 274.676C270.963 275.077 271.183 275.385 271.481 275.6C271.78 275.815 272.163 275.922 272.629 275.922C273.096 275.922 273.479 275.815 273.777 275.6C274.076 275.385 274.295 275.077 274.435 274.676C274.575 274.265 274.645 273.78 274.645 273.22C274.645 272.641 274.571 272.156 274.421 271.764C274.281 271.372 274.062 271.073 273.763 270.868C273.474 270.653 273.091 270.546 272.615 270.546C271.915 270.546 271.407 270.779 271.089 271.246C270.772 271.713 270.613 272.371 270.613 273.22ZM284.549 269.454V277H283.359L283.149 276.006H283.079C282.92 276.267 282.715 276.482 282.463 276.65C282.211 276.818 281.935 276.939 281.637 277.014C281.338 277.098 281.03 277.14 280.713 277.14C280.125 277.14 279.625 277.047 279.215 276.86C278.813 276.664 278.505 276.365 278.291 275.964C278.085 275.553 277.983 275.031 277.983 274.396V269.454H279.481V274.172C279.481 274.76 279.602 275.199 279.845 275.488C280.097 275.777 280.484 275.922 281.007 275.922C281.529 275.922 281.94 275.819 282.239 275.614C282.537 275.409 282.747 275.11 282.869 274.718C282.999 274.317 283.065 273.836 283.065 273.276V269.454H284.549ZM290.595 269.314C290.726 269.314 290.87 269.323 291.029 269.342C291.188 269.351 291.318 269.365 291.421 269.384L291.267 270.77C291.164 270.742 291.043 270.719 290.903 270.7C290.763 270.681 290.632 270.672 290.511 270.672C290.231 270.672 289.96 270.728 289.699 270.84C289.447 270.943 289.218 271.097 289.013 271.302C288.808 271.498 288.644 271.741 288.523 272.03C288.411 272.319 288.355 272.651 288.355 273.024V277H286.871V269.454H288.047L288.243 270.798H288.299C288.458 270.527 288.649 270.28 288.873 270.056C289.097 269.832 289.354 269.655 289.643 269.524C289.932 269.384 290.25 269.314 290.595 269.314ZM296.64 269.314C297.518 269.314 298.19 269.533 298.656 269.972C299.123 270.411 299.356 271.115 299.356 272.086V277H297.886V272.296C297.886 271.708 297.76 271.269 297.508 270.98C297.266 270.681 296.874 270.532 296.332 270.532C295.567 270.532 295.035 270.761 294.736 271.218C294.447 271.675 294.302 272.333 294.302 273.192V277H292.818V269.454H293.994L294.204 270.462H294.288C294.456 270.201 294.662 269.986 294.904 269.818C295.147 269.65 295.418 269.524 295.716 269.44C296.015 269.356 296.323 269.314 296.64 269.314ZM304.605 269.314C305.267 269.314 305.837 269.454 306.313 269.734C306.789 270.005 307.153 270.397 307.405 270.91C307.666 271.423 307.797 272.03 307.797 272.73V273.542H302.729C302.747 274.317 302.948 274.909 303.331 275.32C303.723 275.731 304.269 275.936 304.969 275.936C305.454 275.936 305.883 275.894 306.257 275.81C306.639 275.717 307.031 275.581 307.433 275.404V276.636C307.059 276.804 306.677 276.93 306.285 277.014C305.902 277.098 305.445 277.14 304.913 277.14C304.185 277.14 303.541 276.995 302.981 276.706C302.421 276.417 301.982 275.987 301.665 275.418C301.357 274.839 301.203 274.13 301.203 273.29C301.203 272.441 301.343 271.722 301.623 271.134C301.912 270.546 302.309 270.098 302.813 269.79C303.326 269.473 303.923 269.314 304.605 269.314ZM304.605 270.462C304.073 270.462 303.643 270.635 303.317 270.98C302.999 271.325 302.813 271.815 302.757 272.45H306.313C306.313 272.058 306.252 271.713 306.131 271.414C306.009 271.115 305.823 270.882 305.571 270.714C305.319 270.546 304.997 270.462 304.605 270.462Z" fill="#009688"/>
</svg>
