<svg width="445" height="68" viewBox="0 0 445 68" fill="none" xmlns="http://www.w3.org/2000/svg">
    <path
        d="M184.746 0.00017H16.6862C16.0736 0.00017 15.4684 0.000169999 14.8573 0.00356999C14.3459 0.00696998 13.8386 0.01683 13.3222 0.0251599C12.2004 0.0385876 11.0813 0.139008 9.97453 0.325549C8.86931 0.516152 7.79871 0.875502 6.79894 1.39145C5.80043 1.91178 4.88807 2.58788 4.09495 3.39523C3.29766 4.20025 2.63306 5.13074 2.12668 6.15092C1.6189 7.16918 1.26681 8.26033 1.08257 9.3867C0.896572 10.5116 0.796484 11.6495 0.783205 12.7901C0.767669 13.3113 0.765998 13.8342 0.757812 14.3556V53.6497C0.765998 54.1775 0.767669 54.6889 0.783205 55.2171C0.796496 56.3576 0.896584 57.4953 1.08257 58.6201C1.26631 59.7471 1.61842 60.8388 2.12668 61.8574C2.63281 62.8743 3.29751 63.8011 4.09495 64.6017C4.88506 65.4126 5.79801 66.0892 6.79894 66.6055C7.7987 67.1228 8.86919 67.4843 9.97453 67.6779C11.0815 67.8629 12.2005 67.9634 13.3222 67.9784C13.8384 67.99 14.3459 67.9966 14.8574 67.9966C15.4684 68 16.0736 68 16.6862 68H184.746C185.346 68 185.957 68 186.557 67.9966C187.066 67.9966 187.588 67.99 188.097 67.9784C189.217 67.9642 190.334 67.8637 191.438 67.6779C192.547 67.4829 193.621 67.1215 194.626 66.6055C195.626 66.0889 196.538 65.4123 197.328 64.6017C198.123 63.798 198.789 62.8719 199.302 61.8574C199.806 60.8381 200.155 59.7464 200.336 58.6201C200.522 57.4951 200.626 56.3576 200.646 55.2169C200.653 54.6889 200.653 54.1775 200.653 53.6497C200.666 53.032 200.666 52.4178 200.666 51.7902V16.2117C200.666 15.589 200.666 14.9715 200.653 14.3556C200.653 13.8342 200.653 13.3113 200.646 12.7899C200.626 11.6492 200.522 10.5116 200.336 9.38653C200.154 8.26093 199.806 7.16998 199.302 6.15109C198.27 4.10607 196.635 2.44142 194.626 1.39128C193.621 0.876597 192.547 0.517342 191.438 0.325379C190.334 0.138045 189.217 0.0376178 188.097 0.0249899C187.588 0.01666 187.066 0.00662998 186.557 0.00339999C185.957 0 185.346 0 184.746 0L184.746 0.00017Z"
        fill="#A6A6A6" />
    <path
        d="M14.8446 66.5172C14.3355 66.5172 13.8389 66.5106 13.3339 66.499C12.2877 66.4852 11.2441 66.3926 10.2114 66.2219C9.24847 66.0531 8.31567 65.7391 7.44375 65.2903C6.5798 64.8453 5.79181 64.2618 5.10996 63.5621C4.41819 62.8707 3.84225 62.0687 3.40497 61.188C2.96292 60.3016 2.657 59.3515 2.49785 58.3708C2.32605 57.317 2.23312 56.2514 2.21987 55.1833C2.20918 54.8248 2.19531 53.6312 2.19531 53.6312V14.3601C2.19531 14.3601 2.21001 13.1848 2.21987 12.8393C2.2326 11.7729 2.32503 10.7091 2.49635 9.65693C2.65581 8.67351 2.96199 7.72066 3.40431 6.83136C3.8399 5.95127 4.41257 5.14871 5.1001 4.45477C5.78691 3.75424 6.57746 3.1677 7.44292 2.71652C8.31285 2.26925 9.2439 1.95756 10.2049 1.7919C11.241 1.61955 12.2883 1.52641 13.338 1.51327L14.8454 1.49219H186.528L188.053 1.51378C189.093 1.52635 190.131 1.61876 191.158 1.7902C192.129 1.95799 193.069 2.2719 193.949 2.72162C195.683 3.63084 197.094 5.06932 197.984 6.83544C198.419 7.71865 198.72 8.66377 198.878 9.63874C199.051 10.6995 199.148 11.7717 199.168 12.8468C199.173 13.3282 199.173 13.8454 199.173 14.3601C199.187 14.9976 199.187 15.6044 199.187 16.2162V51.7947C199.187 52.4123 199.187 53.015 199.173 53.6226C199.173 54.1754 199.173 54.6818 199.167 55.203C199.147 56.259 199.051 57.3122 198.881 58.354C198.725 59.3418 198.421 60.2993 197.979 61.193C197.538 62.0641 196.966 62.8591 196.282 63.5487C195.6 64.2521 194.81 64.839 193.944 65.2869C193.067 65.7391 192.128 66.0542 191.158 66.2216C190.125 66.3932 189.082 66.4859 188.035 66.4988C187.536 66.5107 187.036 66.5168 186.536 66.517L184.725 66.5204L14.8446 66.5172Z"
        fill="black" />
    <path
        d="M42.1186 34.5122C42.1365 33.0933 42.5069 31.7021 43.1952 30.468C43.8835 29.2339 44.8674 28.197 46.0553 27.4538C45.3006 26.357 44.3051 25.4544 43.1477 24.8177C41.9903 24.1809 40.7029 23.8276 39.3878 23.7857C36.5824 23.486 33.8629 25.4939 32.4332 25.4939C30.9762 25.4939 28.7752 23.8154 26.4051 23.8651C24.8721 23.9155 23.378 24.3691 22.0685 25.1818C20.7589 25.9944 19.6786 27.1384 18.9327 28.5023C15.7018 34.1948 18.1117 42.5605 21.2068 47.1617C22.7553 49.4148 24.5648 51.9315 26.9329 51.8423C29.25 51.7445 30.1153 50.3386 32.9125 50.3386C35.6837 50.3386 36.4956 51.8423 38.9116 51.7855C41.398 51.7445 42.9645 49.5225 44.4587 47.248C45.5712 45.6426 46.4274 43.8683 46.9953 41.9908C45.5507 41.369 44.318 40.3283 43.4508 38.9984C42.5835 37.6685 42.1202 36.1082 42.1186 34.5122ZM37.5552 20.7595C38.9109 19.1034 39.5788 16.9747 39.4171 14.8255C37.3458 15.0469 35.4326 16.0542 34.0585 17.6468C33.3867 18.4249 32.8722 19.33 32.5444 20.3105C32.2165 21.291 32.0818 22.3277 32.1479 23.3612C33.1839 23.3721 34.2088 23.1436 35.1455 22.6929C36.0821 22.2423 36.906 21.5812 37.5552 20.7595V20.7595ZM71.4094 46.1384H63.5019L61.603 51.8443H58.2535L65.7435 30.7338H69.2233L76.7131 51.8443H73.3067L71.4094 46.1384ZM64.3208 43.5053H70.5888L67.4989 34.2451H67.4124L64.3208 43.5053ZM92.8886 44.1496C92.8886 48.9324 90.3729 52.0053 86.5767 52.0053C85.615 52.0565 84.6586 51.8311 83.8169 51.3549C82.9753 50.8786 82.2824 50.1708 81.8177 49.3125H81.7459V56.936H78.6413V36.453H81.6465V39.0131H81.7036C82.1897 38.1589 82.8942 37.4548 83.7423 36.9756C84.5903 36.4965 85.5501 36.2602 86.5196 36.2921C90.3582 36.2921 92.8886 39.3799 92.8886 44.1494V44.1496ZM89.6975 44.1496C89.6975 41.0335 88.1151 38.9849 85.7007 38.9849C83.3284 38.9849 81.733 41.0765 81.733 44.1494C81.733 47.2507 83.3284 49.3276 85.7007 49.3276C88.1151 49.3276 89.6975 47.2939 89.6975 44.1494V44.1496ZM109.536 44.1496C109.536 48.9324 107.02 52.0053 103.224 52.0053C102.262 52.0565 101.306 51.831 100.464 51.3548C99.6223 50.8786 98.9295 50.1708 98.4648 49.3125H98.393V56.936H95.2884V36.453H98.2934V39.0131H98.3506C98.8366 38.1589 99.5412 37.4548 100.389 36.9756C101.237 36.4965 102.197 36.2602 103.167 36.2921C107.005 36.2921 109.536 39.3799 109.536 44.1494V44.1496ZM106.345 44.1496C106.345 41.0335 104.762 38.9849 102.348 38.9849C99.9754 38.9849 98.38 41.0765 98.38 44.1494C98.38 47.2507 99.9754 49.3276 102.348 49.3276C104.762 49.3276 106.345 47.2939 106.345 44.1494V44.1496ZM120.538 45.9625C120.768 48.0559 122.767 49.4305 125.497 49.4305C128.114 49.4305 129.997 48.0559 129.997 46.1682C129.997 44.5296 128.861 43.5485 126.173 42.8761L123.484 42.2171C119.675 41.2807 117.906 39.4678 117.906 36.526C117.906 32.8836 121.026 30.3819 125.455 30.3819C129.839 30.3819 132.844 32.8836 132.945 36.526H129.811C129.623 34.4193 127.912 33.1476 125.411 33.1476C122.91 33.1476 121.199 34.4343 121.199 36.3069C121.199 37.7994 122.292 38.6777 124.965 39.3498L127.251 39.921C131.507 40.9453 133.276 42.6852 133.276 45.7729C133.276 49.7225 130.185 52.1962 125.267 52.1962C120.667 52.1962 117.56 49.7805 117.36 45.9623L120.538 45.9625ZM139.976 32.8108V36.453H142.852V38.9549H139.976V47.44C139.976 48.7581 140.552 49.3723 141.817 49.3723C142.158 49.3663 142.499 49.3419 142.838 49.2992V51.7863C142.269 51.8943 141.692 51.9432 141.113 51.9322C138.051 51.9322 136.857 50.7619 136.857 47.7769V38.9549H134.658V36.453H136.857V32.8108H139.976ZM144.518 44.1496C144.518 39.3068 147.321 36.2638 151.692 36.2638C156.077 36.2638 158.867 39.3068 158.867 44.1496C158.867 49.0055 156.091 52.0352 151.691 52.0352C147.293 52.0352 144.518 49.0055 144.518 44.1496ZM155.703 44.1496C155.703 40.8277 154.207 38.8669 151.691 38.8669C149.176 38.8669 147.681 40.8424 147.681 44.1496C147.681 47.4848 149.176 49.4305 151.691 49.4305C154.207 49.4305 155.703 47.4848 155.703 44.1496ZM161.426 36.453H164.387V39.0727H164.459C164.659 38.2546 165.13 37.5315 165.793 37.0251C166.456 36.5187 167.269 36.2599 168.097 36.2921C168.455 36.2908 168.812 36.3303 169.161 36.4099V39.365C168.709 39.2245 168.238 39.16 167.766 39.1741C167.315 39.1554 166.865 39.2364 166.448 39.4113C166.03 39.5862 165.655 39.8509 165.348 40.1873C165.041 40.5237 164.808 40.9239 164.667 41.3602C164.526 41.7965 164.48 42.2588 164.531 42.7152V51.8443H161.426V36.453ZM183.475 47.3237C183.057 50.1178 180.383 52.0352 176.962 52.0352C172.562 52.0352 169.831 49.0354 169.831 44.2225C169.831 39.3949 172.577 36.2638 176.832 36.2638C181.016 36.2638 183.648 39.189 183.648 43.8557V44.9381H172.965V45.129C172.916 45.6954 172.986 46.2661 173.17 46.803C173.354 47.3399 173.648 47.8309 174.033 48.2432C174.418 48.6555 174.884 48.9798 175.402 49.1946C175.919 49.4093 176.475 49.5095 177.034 49.4886C177.768 49.5586 178.504 49.3857 179.133 48.9956C179.763 48.6056 180.251 48.0192 180.527 47.3237H183.475ZM172.98 42.7301H180.541C180.569 42.2208 180.493 41.7111 180.319 41.233C180.144 40.755 179.874 40.3189 179.525 39.952C179.177 39.5852 178.758 39.2957 178.294 39.1015C177.831 38.9073 177.333 38.8127 176.832 38.8237C176.326 38.8206 175.825 38.9195 175.357 39.1146C174.889 39.3096 174.464 39.5971 174.106 39.9602C173.748 40.3234 173.464 40.7552 173.271 41.2306C173.077 41.706 172.979 42.2156 172.98 42.7301V42.7301ZM63.9317 14.8437C64.5826 14.7962 65.2358 14.8962 65.8441 15.1367C66.4523 15.3771 67.0006 15.7519 67.4493 16.2341C67.898 16.7163 68.2359 17.2938 68.4387 17.925C68.6415 18.5561 68.7041 19.2253 68.622 19.884C68.622 23.1246 66.9008 24.9874 63.9317 24.9874H60.3312V14.8435L63.9317 14.8437ZM61.8794 23.5528H63.7588C64.2239 23.5811 64.6893 23.5034 65.1212 23.3256C65.5531 23.1477 65.9406 22.8741 66.2555 22.5247C66.5704 22.1752 66.8047 21.7587 66.9415 21.3055C67.0782 20.8522 67.1139 20.3737 67.046 19.9046C67.109 19.4374 67.0697 18.9618 66.9308 18.5119C66.792 18.062 66.5571 17.6489 66.2429 17.3022C65.9287 16.9555 65.5431 16.6838 65.1137 16.5066C64.6842 16.3294 64.2215 16.251 63.7588 16.2772H61.8794V23.5528ZM70.371 21.1565C70.3237 20.6534 70.3802 20.1459 70.537 19.6663C70.6937 19.1868 70.9472 18.7459 71.2813 18.372C71.6153 17.998 72.0224 17.6992 72.4765 17.4947C72.9307 17.2902 73.4218 17.1846 73.9184 17.1846C74.415 17.1846 74.9062 17.2902 75.3603 17.4947C75.8145 17.6992 76.2216 17.998 76.5556 18.372C76.8896 18.7459 77.1431 19.1868 77.2999 19.6663C77.4567 20.1459 77.5132 20.6534 77.4659 21.1565C77.5142 21.6601 77.4585 22.1685 77.3022 22.6489C77.1459 23.1293 76.8925 23.5711 76.5584 23.9459C76.2243 24.3207 75.8168 24.6203 75.3622 24.8252C74.9075 25.0302 74.4157 25.1361 73.9184 25.1361C73.4211 25.1361 72.9294 25.0302 72.4747 24.8252C72.02 24.6203 71.6125 24.3207 71.2784 23.9459C70.9443 23.5711 70.691 23.1293 70.5347 22.6489C70.3784 22.1685 70.3226 21.6601 70.371 21.1565ZM75.939 21.1565C75.939 19.4971 75.2064 18.5268 73.9209 18.5268C72.6304 18.5268 71.9046 19.4971 71.9046 21.1565C71.9046 22.8291 72.6306 23.792 73.9209 23.792C75.2064 23.792 75.939 22.8225 75.939 21.1565V21.1565ZM86.8973 24.9873H85.357L83.8024 19.3494H83.6849L82.1368 24.9873H80.6114L78.5379 17.3322H80.0436L81.3912 23.1734H81.5022L83.0488 17.3322H84.473L86.0196 23.1734H86.137L87.478 17.3322H88.9626L86.8973 24.9873ZM90.7065 17.3323H92.1357V18.5484H92.2466C92.4348 18.1116 92.7522 17.7454 93.1547 17.5009C93.5571 17.2564 94.0244 17.1458 94.4915 17.1844C94.8576 17.1564 95.2251 17.2126 95.5669 17.3488C95.9087 17.4849 96.216 17.6976 96.466 17.9711C96.7161 18.2445 96.9025 18.5717 97.0114 18.9284C97.1203 19.285 97.149 19.6621 97.0953 20.0316V24.9871H95.6107V20.411C95.6107 19.1809 95.0853 18.5691 93.9874 18.5691C93.7389 18.5573 93.4908 18.6004 93.2602 18.6953C93.0295 18.7902 92.8218 18.9347 92.6512 19.119C92.4806 19.3032 92.3512 19.5229 92.2718 19.7628C92.1924 20.0027 92.1649 20.2572 92.1912 20.509V24.9873H90.7065V17.3323ZM99.4608 14.3439H100.945V24.9873H99.4608V14.3439ZM103.009 21.1565C102.962 20.6534 103.018 20.1457 103.175 19.6661C103.332 19.1866 103.585 18.7456 103.92 18.3716C104.254 17.9976 104.661 17.6987 105.115 17.4942C105.569 17.2897 106.06 17.1841 106.557 17.1841C107.054 17.1841 107.545 17.2897 107.999 17.4942C108.453 17.6987 108.861 17.9976 109.195 18.3716C109.529 18.7456 109.782 19.1866 109.939 19.6661C110.096 20.1457 110.152 20.6534 110.105 21.1565C110.153 21.6601 110.097 22.1683 109.941 22.6485C109.784 23.1288 109.531 23.5704 109.197 23.9451C108.863 24.3197 108.455 24.6191 108.001 24.824C107.546 25.0289 107.054 25.1347 106.557 25.1347C106.06 25.1347 105.568 25.0289 105.114 24.824C104.659 24.6191 104.252 24.3197 103.917 23.9451C103.583 23.5704 103.33 23.1288 103.173 22.6485C103.017 22.1683 102.961 21.6601 103.009 21.1565V21.1565ZM108.577 21.1565C108.577 19.4971 107.845 18.5268 106.559 18.5268C105.269 18.5268 104.543 19.4971 104.543 21.1565C104.543 22.8291 105.269 23.792 106.559 23.792C107.845 23.792 108.577 22.8225 108.577 21.1565ZM111.668 22.8225C111.668 21.4445 112.676 20.6501 114.466 20.5372L116.503 20.4177V19.7569C116.503 18.9484 115.978 18.4919 114.963 18.4919C114.135 18.4919 113.56 18.8015 113.396 19.3428H111.958C112.11 18.0278 113.325 17.1846 115.032 17.1846C116.918 17.1846 117.981 18.14 117.981 19.7569V24.9873H116.552V23.9115H116.435C116.196 24.2974 115.862 24.612 115.465 24.8231C115.068 25.0343 114.623 25.1344 114.175 25.1134C113.86 25.1468 113.54 25.1125 113.238 25.0127C112.937 24.913 112.658 24.7499 112.422 24.534C112.186 24.3182 111.997 24.0544 111.867 23.7596C111.737 23.4648 111.669 23.1456 111.668 22.8225V22.8225ZM116.503 22.1683V21.5283L114.666 21.6478C113.63 21.7183 113.161 22.077 113.161 22.7518C113.161 23.4408 113.748 23.8418 114.555 23.8418C114.792 23.8662 115.031 23.8419 115.258 23.7703C115.486 23.6988 115.696 23.5814 115.878 23.4253C116.06 23.2692 116.209 23.0774 116.316 22.8615C116.424 22.6455 116.487 22.4098 116.503 22.1683V22.1683ZM119.933 21.1565C119.933 18.7376 121.155 17.2054 123.055 17.2054C123.525 17.1833 123.992 17.2979 124.4 17.5357C124.809 17.7735 125.142 18.1248 125.362 18.5484H125.473V14.3438H126.957V24.9871H125.535V23.7775H125.418C125.181 24.1983 124.836 24.5452 124.419 24.7806C124.003 25.016 123.531 25.1311 123.055 25.1132C121.142 25.1132 119.933 23.5808 119.933 21.1563V21.1565ZM121.466 21.1565C121.466 22.78 122.218 23.7571 123.476 23.7571C124.727 23.7571 125.501 22.766 125.501 21.1629C125.501 19.5677 124.719 18.5625 123.476 18.5625C122.226 18.5625 121.466 19.5461 121.466 21.1565ZM133.1 21.1565C133.053 20.6534 133.109 20.1459 133.266 19.6663C133.423 19.1868 133.676 18.7459 134.01 18.372C134.344 17.998 134.751 17.6992 135.205 17.4947C135.66 17.2902 136.151 17.1846 136.647 17.1846C137.144 17.1846 137.635 17.2902 138.089 17.4947C138.543 17.6992 138.95 17.998 139.284 18.372C139.618 18.7459 139.872 19.1868 140.029 19.6663C140.186 20.1459 140.242 20.6534 140.195 21.1565C140.243 21.6601 140.187 22.1685 140.031 22.6489C139.875 23.1293 139.621 23.5711 139.287 23.9459C138.953 24.3207 138.546 24.6203 138.091 24.8252C137.636 25.0302 137.145 25.1361 136.647 25.1361C136.15 25.1361 135.658 25.0302 135.204 24.8252C134.749 24.6203 134.341 24.3207 134.007 23.9459C133.673 23.5711 133.42 23.1293 133.264 22.6489C133.107 22.1685 133.052 21.6601 133.1 21.1565V21.1565ZM138.668 21.1565C138.668 19.4971 137.935 18.5268 136.65 18.5268C135.359 18.5268 134.633 19.4971 134.633 21.1565C134.633 22.8291 135.359 23.792 136.65 23.792C137.935 23.792 138.668 22.8225 138.668 21.1565ZM142.187 17.3323H143.616V18.5484H143.727C143.915 18.1116 144.232 17.7454 144.635 17.5009C145.037 17.2564 145.505 17.1458 145.972 17.1844C146.338 17.1564 146.705 17.2126 147.047 17.3488C147.389 17.4849 147.696 17.6976 147.946 17.9711C148.196 18.2445 148.383 18.5717 148.492 18.9284C148.601 19.285 148.629 19.6621 148.576 20.0316V24.9871H147.091V20.411C147.091 19.1809 146.565 18.5691 145.468 18.5691C145.219 18.5573 144.971 18.6004 144.74 18.6953C144.51 18.7902 144.302 18.9347 144.131 19.119C143.961 19.3032 143.831 19.5229 143.752 19.7628C143.673 20.0027 143.645 20.2572 143.671 20.509V24.9873H142.187L142.187 17.3323ZM156.964 15.4265V17.3672H158.594V18.6396H156.964V22.5758C156.964 23.3777 157.289 23.7289 158.028 23.7289C158.217 23.7282 158.406 23.7166 158.594 23.6939V24.9524C158.327 25.0009 158.057 25.0268 157.786 25.0296C156.136 25.0296 155.478 24.4385 155.478 22.9627V18.6396H154.284V17.367H155.478V15.4266L156.964 15.4265ZM160.622 14.3439H162.093V18.5625H162.211C162.408 18.1216 162.734 17.7534 163.145 17.508C163.555 17.2626 164.03 17.1519 164.505 17.1911C164.869 17.1709 165.233 17.2328 165.571 17.3722C165.909 17.5117 166.212 17.7254 166.46 17.998C166.707 18.2706 166.892 18.5954 167.002 18.9492C167.112 19.3031 167.144 19.6772 167.095 20.045V24.9873H165.609V20.4177C165.609 19.1949 165.05 18.5757 164.001 18.5757C163.745 18.5544 163.489 18.5901 163.249 18.6803C163.008 18.7705 162.791 18.913 162.61 19.0979C162.43 19.2827 162.291 19.5055 162.204 19.7505C162.117 19.9955 162.084 20.2569 162.107 20.5164V24.9873H160.622V14.3439ZM175.752 22.9202C175.55 23.6199 175.113 24.2251 174.517 24.63C173.921 25.0348 173.204 25.2136 172.492 25.135C171.997 25.1483 171.504 25.0517 171.049 24.8519C170.594 24.6521 170.186 24.3539 169.856 23.978C169.525 23.6021 169.279 23.1574 169.134 22.6749C168.989 22.1924 168.949 21.6836 169.017 21.1839C168.951 20.6825 168.992 20.1726 169.136 19.6887C169.281 19.2047 169.526 18.758 169.855 18.3787C170.183 17.9995 170.589 17.6966 171.043 17.4905C171.496 17.2845 171.989 17.1801 172.486 17.1844C174.579 17.1844 175.841 18.6396 175.841 21.0434V21.5706H170.53V21.6553C170.506 21.9362 170.541 22.2189 170.631 22.4854C170.722 22.7519 170.866 22.9962 171.055 23.2027C171.243 23.4091 171.472 23.5732 171.727 23.6844C171.981 23.7956 172.256 23.8514 172.533 23.8483C172.888 23.8917 173.248 23.8266 173.566 23.6613C173.885 23.4961 174.148 23.2381 174.323 22.9202H175.752ZM170.53 20.4534H174.329C174.348 20.1965 174.313 19.9384 174.228 19.6958C174.143 19.4532 174.009 19.2314 173.835 19.0446C173.66 18.8578 173.45 18.7103 173.216 18.6114C172.982 18.5125 172.731 18.4644 172.477 18.4703C172.221 18.467 171.966 18.5161 171.728 18.6146C171.49 18.7131 171.274 18.8591 171.093 19.0439C170.911 19.2287 170.768 19.4486 170.671 19.6907C170.574 19.9328 170.526 20.1921 170.53 20.4534V20.4534Z"
        fill="white" />
    <path
        d="M435.665 68H224.122C219.468 68 215.66 64.175 215.66 59.5V8.50004C215.66 3.82499 219.468 0 224.122 0H435.665C440.319 0 444.127 3.82499 444.127 8.50004V59.5C444.127 64.175 440.319 68 435.665 68"
        fill="black" />
    <path
        d="M435.665 0H224.122C219.468 0 215.66 3.82499 215.66 8.50004V59.5C215.66 64.175 219.468 68 224.122 68H435.665C440.319 68 444.127 64.175 444.127 59.5V8.50004C444.127 3.82499 440.319 0 435.665 0M435.665 1.35996C439.584 1.35996 442.773 4.5635 442.773 8.50004V59.5C442.773 63.4373 439.584 66.6407 435.665 66.6407H224.122C220.203 66.6407 217.014 63.4372 217.014 59.5V8.50004C217.014 4.5635 220.203 1.36003 224.122 1.36003H435.665"
        fill="#A6A6A6" />
    <path
        d="M295.911 17.4142C295.911 18.8385 295.491 19.9727 294.65 20.8187C293.695 21.8248 292.45 22.3282 290.92 22.3282C289.454 22.3282 288.208 21.8182 287.183 20.7968C286.157 19.7761 285.645 18.5105 285.645 17.0004C285.645 15.4896 286.157 14.2247 287.183 13.2032C288.208 12.1826 289.454 11.6719 290.92 11.6719C291.647 11.6719 292.343 11.8147 293.004 12.0996C293.665 12.3852 294.195 12.7643 294.592 13.2391L293.7 14.1362C293.027 13.3294 292.102 12.9263 290.92 12.9263C289.851 12.9263 288.927 13.3036 288.147 14.0586C287.367 14.8144 286.977 15.7945 286.977 17.0004C286.977 18.2064 287.367 19.1864 288.147 19.9422C288.927 20.6972 289.851 21.0744 290.92 21.0744C292.054 21.0744 292.999 20.6952 293.756 19.9356C294.247 19.4407 294.531 18.7529 294.607 17.8696H290.92V16.6444H295.84C295.888 16.9108 295.911 17.1665 295.911 17.4142"
        fill="white" />
    <path
        d="M295.942 17.4221H295.772C295.771 18.8139 295.366 19.8949 294.561 20.7064L294.559 20.7078L294.558 20.7092C293.634 21.6806 292.445 22.164 290.95 22.1661C289.524 22.164 288.33 21.6753 287.333 20.6845C286.338 19.6917 285.846 18.4798 285.844 17.0083C285.846 15.5361 286.338 14.3248 287.333 13.3327C288.33 12.3413 289.524 11.8518 290.95 11.8498C291.656 11.8498 292.327 11.988 292.968 12.2636C293.609 12.5412 294.116 12.905 294.493 13.3567L294.623 13.247L294.503 13.1268L293.61 14.0245L293.73 14.1441L293.86 14.0353C293.157 13.1885 292.169 12.7617 290.95 12.7642C289.842 12.7628 288.867 13.1607 288.06 13.9444C287.246 14.7306 286.836 15.7658 286.838 17.0083C286.836 18.2508 287.246 19.286 288.06 20.0722C288.867 20.8559 289.842 21.2537 290.95 21.2523C292.122 21.2544 293.12 20.8552 293.906 20.0637C294.431 19.535 294.728 18.8026 294.806 17.8921L294.822 17.7075H291.119V16.8223H295.871V16.6523L295.704 16.6822C295.75 16.94 295.772 17.1849 295.772 17.4221H296.111C296.111 17.1637 296.087 16.8981 296.037 16.6219L296.012 16.4823H290.781V18.0475H294.638V17.8775L294.469 17.8629C294.395 18.7183 294.123 19.3624 293.667 19.8234C292.939 20.5511 292.047 20.9103 290.95 20.9123C289.921 20.911 289.048 20.555 288.295 19.8279C287.549 19.1034 287.178 18.1784 287.176 17.0083C287.178 15.8382 287.549 14.9132 288.295 14.1887C289.048 13.4615 289.921 13.1056 290.95 13.1042C292.095 13.107 292.959 13.4867 293.601 14.2537L293.72 14.3959L294.742 13.3673L294.852 13.2571L294.752 13.138C294.336 12.6401 293.782 12.2449 293.101 11.9515C292.419 11.6572 291.699 11.5098 290.95 11.5098C289.446 11.5085 288.147 12.0397 287.094 13.091C286.037 14.1402 285.504 15.4591 285.506 17.0083C285.504 18.5568 286.037 19.8764 287.095 20.9262C288.147 21.9768 289.446 22.5075 290.95 22.5061C292.517 22.5075 293.817 21.9847 294.803 20.9441L294.681 20.8266L294.8 20.9469C295.677 20.0669 296.112 18.8783 296.111 17.4221H295.941M303.742 13.1614H299.118V16.3954H303.288V17.6211H299.118V20.8552H303.742V22.1083H297.814V11.9083H303.742V13.1614"
        fill="white" />
    <path
        d="M303.734 13.1574V12.9874H298.94V16.5615H303.11V17.4467L298.94 17.4472V21.0213H303.564V21.9344H297.975V12.0744H303.564V13.1574H303.734V12.9874V13.1574H303.903V11.7344H297.637V22.2743H303.903V20.6813H299.279V17.7872H303.449V16.2215H299.279V13.3274H303.903V13.1574H303.734M309.236 22.1044H307.93V13.1574H305.094V11.9043H312.072V13.1574H309.236V22.1043"
        fill="white" />
    <path
        d="M309.227 22.1044V21.9344H308.09V12.9874H305.254V12.0744H311.894V12.9874H309.058V22.1043H309.227V21.9344V22.1043H309.396V13.3274H312.232V11.7344H304.916V13.3274H307.752V22.2743H309.396V22.1043H309.227M317.112 22.1044V11.9043H318.416V22.1043H317.112"
        fill="white" />
    <path
        d="M317.105 22.1044H317.274V12.0744H318.24V21.9344H317.105V22.1043H317.274H317.105V22.2743H318.578V11.7344H316.936V22.2743H317.105V22.1043M324.197 22.1044H322.891V13.1574H320.055V11.9043H327.033V13.1574H324.197V22.1043"
        fill="white" />
    <path
        d="M324.188 22.1004V21.9304H323.051V12.9835H320.215V12.0705H326.854V12.9835H324.018V22.1004H324.188V21.9304V22.1004H324.357V13.3235H327.193V11.7304H319.877V13.3234H322.713V22.2703H324.357V22.1003H324.188M333.751 19.9283C334.502 20.6926 335.422 21.0744 336.509 21.0744C337.597 21.0744 338.517 20.6926 339.267 19.9283C340.02 19.164 340.397 18.187 340.397 17.0004C340.397 15.8139 340.02 14.8368 339.267 14.0725C338.517 13.3082 337.597 12.9263 336.509 12.9263C335.422 12.9263 334.502 13.3082 333.751 14.0725C333 14.8368 332.624 15.8138 332.624 17.0004C332.624 18.187 333 19.164 333.751 19.9283ZM340.233 20.7822C339.234 21.8134 337.993 22.3282 336.509 22.3282C335.025 22.3282 333.784 21.8134 332.788 20.7822C331.789 19.7522 331.292 18.4913 331.292 17.0004C331.292 15.5095 331.789 14.2484 332.788 13.2186C333.784 12.1871 335.025 11.6719 336.509 11.6719C337.985 11.6719 339.223 12.1899 340.226 13.2252C341.228 14.2605 341.729 15.5188 341.729 17.0004C341.729 18.4913 341.229 19.7522 340.233 20.7822Z"
        fill="white" />
    <path
        d="M333.779 19.9362L333.658 20.0557C334.438 20.8506 335.41 21.2544 336.537 21.2523C337.664 21.2544 338.638 20.8506 339.416 20.0557C340.2 19.2601 340.595 18.2308 340.594 17.0083C340.595 15.7858 340.2 14.7565 339.416 13.9608C338.638 13.1659 337.664 12.7622 336.537 12.7642C335.41 12.7622 334.438 13.1659 333.658 13.9608C332.876 14.7565 332.48 15.7858 332.482 17.0083C332.48 18.2307 332.876 19.2601 333.658 20.0557L333.779 19.9362L333.899 19.8167C333.181 19.0828 332.822 18.1597 332.821 17.0083C332.822 15.8569 333.181 14.9338 333.899 14.1999C334.624 13.4662 335.489 13.1063 336.537 13.1043C337.585 13.1063 338.452 13.4662 339.175 14.1999C339.894 14.9338 340.253 15.8569 340.255 17.0083C340.253 18.1596 339.894 19.0828 339.175 19.8167C338.452 20.5504 337.585 20.9103 336.537 20.9123C335.489 20.9103 334.624 20.5504 333.899 19.8167L333.779 19.9362ZM340.261 20.7901L340.14 20.672C339.169 21.6707 337.983 22.1641 336.537 22.1661C335.092 22.164 333.905 21.6707 332.936 20.672L332.932 20.6666L332.936 20.672C331.968 19.6698 331.49 18.4613 331.489 17.0083C331.49 15.5553 331.968 14.3467 332.936 13.3446C333.905 12.3458 335.092 11.8518 336.537 11.8498C337.973 11.8518 339.157 12.3479 340.133 13.3519C341.105 14.3586 341.585 15.5653 341.587 17.0083C341.585 18.4613 341.106 19.6698 340.14 20.672L340.261 20.7901L340.382 20.9082C341.408 19.8498 341.927 18.5369 341.926 17.0083C341.927 15.4883 341.406 14.1781 340.376 13.115C339.344 12.0476 338.053 11.5079 336.537 11.5098C335.014 11.5079 333.719 12.0451 332.694 13.1083V13.1076C331.666 14.1667 331.149 15.4796 331.15 17.0083C331.149 18.5369 331.666 19.8498 332.694 20.9089L332.699 20.9137L332.694 20.9082C333.719 21.9714 335.014 22.5075 336.537 22.5061C338.06 22.5075 339.356 21.9714 340.382 20.9082L340.261 20.7901V20.7901ZM343.588 22.1083V11.9082H345.176L350.111 19.8431H350.167L350.111 17.8774V11.9082H351.416V22.1082H350.054L344.891 13.7888H344.835L344.891 15.7551V22.1082H343.588"
        fill="white" />
    <path
        d="M343.577 22.1044H343.747V12.0744H345.072L350.006 20.0093H350.33L350.27 17.8711V12.0744H351.237V21.9344H350.138L344.975 13.6149H344.651L344.712 15.754V21.9344H343.578L343.577 22.1044L343.578 22.2744H345.05V15.7486L344.994 13.7803L344.825 13.7849V13.9549H344.881V13.7849L344.738 13.8753L349.95 22.2744H351.575V11.7344H349.931V17.8756L349.987 19.8438L350.157 19.8393V19.6693H350.1V19.8393L350.244 19.749L345.259 11.7344H343.408V22.2744H343.578L343.577 22.1044ZM396.651 51.0044H399.808V29.7524H396.65L396.651 51.0044ZM425.094 37.4079L421.474 46.6216H421.365L417.608 37.4078H414.207L419.841 50.2858L416.629 57.4491H419.924L428.605 37.4078L425.094 37.4079ZM407.185 48.5906C406.15 48.5906 404.708 48.0712 404.708 46.7857C404.708 45.1453 406.505 44.5165 408.055 44.5165C409.445 44.5165 410.096 44.8173 410.941 45.2278C410.695 47.196 409.008 48.5906 407.185 48.5906ZM407.566 36.9429C405.28 36.9429 402.912 37.9548 401.932 40.1968L404.735 41.3722C405.334 40.1968 406.449 39.8136 407.62 39.8136C409.253 39.8136 410.914 40.7984 410.941 42.5483V42.7668C410.369 42.4386 409.145 41.9466 407.647 41.9466C404.627 41.9466 401.55 43.614 401.55 46.7311C401.55 49.5747 404.027 51.4068 406.803 51.4068C408.927 51.4068 410.096 50.4498 410.832 49.329H410.941V50.9692H413.989V42.8211C413.989 39.0487 411.186 36.9429 407.566 36.9429ZM388.05 39.9948H383.559V32.7102H388.05C390.411 32.7102 391.751 34.6737 391.751 36.3524C391.751 37.9994 390.411 39.9948 388.05 39.9948ZM387.969 29.7524H380.402V51.0044H383.558V42.9527H387.969C391.469 42.9527 394.909 40.4072 394.909 36.3524C394.909 32.2978 391.469 29.7524 387.969 29.7524ZM346.708 48.5945C344.526 48.5945 342.7 46.7597 342.7 44.2396C342.7 41.693 344.526 39.8303 346.708 39.8303C348.862 39.8303 350.552 41.6929 350.552 44.2396C350.552 46.7597 348.861 48.5945 346.708 48.5945ZM350.334 38.5978H350.225C349.516 37.749 348.152 36.9821 346.435 36.9821C342.836 36.9821 339.537 40.1589 339.537 44.2396C339.537 48.2931 342.836 51.4427 346.435 51.4427C348.152 51.4427 349.516 50.6756 350.225 49.7997H350.334V50.8403C350.334 53.6069 348.862 55.0858 346.49 55.0858C344.554 55.0858 343.354 53.6885 342.863 52.5111L340.11 53.6613C340.9 55.5784 343 57.934 346.49 57.934C350.197 57.934 353.333 55.7425 353.333 50.4021V37.4204H350.334V38.5978ZM355.514 51.0044H358.676V29.7516H355.514V51.0044ZM363.339 43.9933C363.257 41.1995 365.493 39.7757 367.101 39.7757C368.356 39.7757 369.419 40.4053 369.773 41.3099L363.339 43.9933ZM373.154 41.5833C372.555 39.9669 370.727 36.9821 366.992 36.9821C363.284 36.9821 360.203 39.9125 360.203 44.2124C360.203 48.2659 363.257 51.4427 367.346 51.4427C370.646 51.4427 372.555 49.4159 373.345 48.2385L370.891 46.5949C370.074 47.8002 368.955 48.5945 367.346 48.5945C365.738 48.5945 364.593 47.8548 363.857 46.4037L373.481 42.4048L373.154 41.5833ZM296.477 39.2006V42.2679H303.784C303.565 43.9933 302.993 45.253 302.12 46.1295C301.057 47.1979 299.394 48.3754 296.477 48.3754C291.978 48.3754 288.461 44.7329 288.461 40.2139C288.461 35.6951 291.978 32.0521 296.477 32.0521C298.904 32.0521 300.675 33.0109 301.984 34.2434L304.138 32.08C302.311 30.3268 299.885 28.9848 296.477 28.9848C290.315 28.9848 285.135 34.0243 285.135 40.2139C285.135 46.4037 290.315 51.4427 296.477 51.4427C299.803 51.4427 302.311 50.3477 304.274 48.2931C306.292 46.2663 306.919 43.4182 306.919 41.1179C306.919 40.4053 306.865 39.7485 306.755 39.2006H296.477ZM315.226 48.5945C313.045 48.5945 311.163 46.7868 311.163 44.2124C311.163 41.6105 313.045 39.8303 315.226 39.8303C317.407 39.8303 319.288 41.6105 319.288 44.2124C319.288 46.7869 317.407 48.5945 315.226 48.5945ZM315.226 36.9821C311.245 36.9821 308.001 40.022 308.001 44.2124C308.001 48.3754 311.245 51.4427 315.226 51.4427C319.206 51.4427 322.451 48.3754 322.451 44.2124C322.451 40.022 319.206 36.9821 315.226 36.9821ZM330.987 48.5945C328.807 48.5945 326.925 46.7868 326.925 44.2124C326.925 41.6105 328.807 39.8303 330.987 39.8303C333.168 39.8303 335.05 41.6105 335.05 44.2124C335.05 46.7869 333.168 48.5945 330.987 48.5945ZM330.987 36.9821C327.006 36.9821 323.763 40.022 323.763 44.2124C323.763 48.3754 327.006 51.4427 330.987 51.4427C334.968 51.4427 338.212 48.3754 338.212 44.2124C338.212 40.022 334.968 36.9821 330.987 36.9821Z"
        fill="white" />
    <path
        d="M233.467 12.9464C232.9 13.4611 232.561 14.3196 232.561 15.4592V15.2016V52.8075V52.5598C232.561 53.6122 232.851 54.425 233.344 54.9484L233.469 55.0693V55.0698C233.868 55.4311 234.379 55.623 234.965 55.6224C235.537 55.6224 236.181 55.4391 236.861 55.052L261.426 41.0316L269.863 36.2152C270.935 35.6036 271.537 34.8147 271.637 34.0111V34.0078C271.537 33.2024 270.935 32.4141 269.863 31.8025L261.425 26.9866L236.861 12.9662C236.18 12.5785 235.535 12.3945 234.962 12.3945C234.376 12.3945 233.866 12.5858 233.468 12.9464H233.467Z"
        fill="#00C1FF" />
    <path
        d="M233.47 55.0566L233.344 54.9358C232.851 54.4124 232.561 53.5996 232.561 52.5471V52.7948V15.1983V15.4466C232.561 14.307 232.9 13.4484 233.467 12.9337L254.435 33.9959L233.47 55.0566Z"
        fill="#01D7FF" />
    <path
        d="M261.428 41.0215L254.438 33.9985L261.427 26.9766L269.866 31.7923C270.937 32.404 271.539 33.1923 271.639 33.9978V34.001C271.539 34.8046 270.937 35.5936 269.866 36.205L261.428 41.0214"
        fill="#FFCC01" />
    <path
        d="M234.962 55.6191C234.376 55.6197 233.865 55.4278 233.467 55.0665V55.066L254.433 34.0052L261.423 41.0283L236.858 55.0487C236.178 55.4359 235.534 55.6191 234.962 55.6191Z"
        fill="#F93648" />
    <path
        d="M254.433 34L233.465 12.9379C233.863 12.5772 234.374 12.386 234.959 12.386C235.533 12.386 236.177 12.5699 236.858 12.9577L261.422 26.9781L254.433 34"
        fill="#01F076" />
    <path
        d="M234.948 55.8672C234.362 55.8672 233.85 55.6753 233.452 55.314L233.451 55.3146C233.449 55.313 233.448 55.3115 233.446 55.3101L233.337 55.2031C233.333 55.1997 233.33 55.1958 233.326 55.1919L233.452 55.0657C233.85 55.4269 234.361 55.6188 234.947 55.6181C235.52 55.6181 236.164 55.4349 236.843 55.0478L261.408 41.0274L261.565 41.1855L261.406 41.2764L236.843 55.2961C236.224 55.6488 235.635 55.8327 235.102 55.8633C235.051 55.8658 234.999 55.8671 234.948 55.8671"
        fill="#CC2E36" />
    <path
        d="M233.344 55.1953C232.851 54.6719 232.561 53.8597 232.561 52.8065V52.5588C232.561 53.6113 232.851 54.4241 233.344 54.9476L233.47 55.0685L233.344 55.1953"
        fill="#008DE0" />
    <path
        d="M271.613 33.9941C271.512 33.1886 270.911 32.4004 269.839 31.7887L261.4 26.9729L261.558 26.8148H261.558L269.839 31.541C271.02 32.2157 271.612 33.1048 271.613 33.9941"
        fill="#FFE840" />
    <path
        d="M232.561 15.4551V15.1953C232.561 15.1016 232.563 15.01 232.568 14.9211V14.917C232.568 14.9158 232.568 14.9145 232.568 14.9131V14.9031C232.619 13.9965 232.9 13.2894 233.344 12.8172L233.468 12.9419C232.9 13.4568 232.561 14.3154 232.561 15.4551Z"
        fill="#40B8FF" />
    <path
        d="M261.407 26.9766L236.843 12.956C236.162 12.5683 235.518 12.3844 234.944 12.3844C234.359 12.3844 233.848 12.5756 233.45 12.9362L233.326 12.8114C233.365 12.7703 233.405 12.7307 233.447 12.6926C233.448 12.6912 233.45 12.6898 233.451 12.6885C233.847 12.3307 234.352 12.1394 234.931 12.136H234.944C235.518 12.136 236.162 12.32 236.843 12.7079L261.565 26.8179L261.565 26.8184L261.407 26.9766"
        fill="#65B895" />
</svg>
