<svg width="357" height="322" viewBox="0 0 357 322" fill="none" xmlns="http://www.w3.org/2000/svg">
<circle cx="341.36" cy="163.88" r="4.62" fill="white" stroke="#009688"/>
<path d="M341.361 137.641C338.561 137.644 335.877 138.757 333.897 140.737C331.918 142.717 330.804 145.401 330.801 148.201C330.801 157.237 340.401 164.061 340.81 164.347C340.971 164.46 341.164 164.52 341.361 164.52C341.558 164.52 341.75 164.46 341.912 164.347C342.321 164.061 351.921 157.237 351.921 148.201C351.918 145.401 350.804 142.717 348.824 140.737C346.845 138.757 344.16 137.644 341.361 137.641ZM341.361 144.361C342.12 144.361 342.863 144.586 343.494 145.008C344.126 145.43 344.618 146.029 344.908 146.731C345.199 147.433 345.275 148.205 345.127 148.95C344.979 149.695 344.613 150.379 344.076 150.916C343.539 151.453 342.855 151.819 342.11 151.967C341.365 152.115 340.593 152.039 339.891 151.748C339.19 151.458 338.59 150.965 338.168 150.334C337.746 149.703 337.521 148.96 337.521 148.201C337.521 147.182 337.925 146.205 338.645 145.485C339.366 144.765 340.342 144.361 341.361 144.361Z" fill="#009688"/>
<path d="M275.256 158.004C276.105 158.004 276.815 158.083 277.384 158.242C277.963 158.401 278.397 158.667 278.686 159.04C278.985 159.404 279.134 159.889 279.134 160.496C279.134 160.888 279.064 161.238 278.924 161.546C278.784 161.845 278.579 162.097 278.308 162.302C278.047 162.498 277.72 162.629 277.328 162.694V162.764C277.729 162.829 278.089 162.951 278.406 163.128C278.723 163.296 278.975 163.543 279.162 163.87C279.349 164.197 279.442 164.621 279.442 165.144C279.442 165.751 279.297 166.269 279.008 166.698C278.728 167.118 278.322 167.44 277.79 167.664C277.267 167.888 276.642 168 275.914 168H272.33V158.004H275.256ZM275.508 162.176C276.292 162.176 276.829 162.05 277.118 161.798C277.417 161.546 277.566 161.173 277.566 160.678C277.566 160.174 277.389 159.815 277.034 159.6C276.679 159.385 276.115 159.278 275.34 159.278H273.842V162.176H275.508ZM273.842 163.408V166.74H275.676C276.488 166.74 277.053 166.581 277.37 166.264C277.687 165.947 277.846 165.527 277.846 165.004C277.846 164.687 277.776 164.407 277.636 164.164C277.496 163.921 277.258 163.735 276.922 163.604C276.595 163.473 276.147 163.408 275.578 163.408H273.842ZM285.074 160.314C285.204 160.314 285.349 160.323 285.508 160.342C285.666 160.351 285.797 160.365 285.9 160.384L285.746 161.77C285.643 161.742 285.522 161.719 285.382 161.7C285.242 161.681 285.111 161.672 284.99 161.672C284.71 161.672 284.439 161.728 284.178 161.84C283.926 161.943 283.697 162.097 283.492 162.302C283.286 162.498 283.123 162.741 283.002 163.03C282.89 163.319 282.834 163.651 282.834 164.024V168H281.35V160.454H282.526L282.722 161.798H282.778C282.936 161.527 283.128 161.28 283.352 161.056C283.576 160.832 283.832 160.655 284.122 160.524C284.411 160.384 284.728 160.314 285.074 160.314ZM288.781 160.454V168H287.297V160.454H288.781ZM288.053 157.584C288.277 157.584 288.473 157.649 288.641 157.78C288.809 157.911 288.893 158.13 288.893 158.438C288.893 158.737 288.809 158.956 288.641 159.096C288.473 159.227 288.277 159.292 288.053 159.292C287.81 159.292 287.605 159.227 287.437 159.096C287.278 158.956 287.199 158.737 287.199 158.438C287.199 158.13 287.278 157.911 287.437 157.78C287.605 157.649 287.81 157.584 288.053 157.584ZM296.123 165.872C296.123 166.367 296.002 166.782 295.759 167.118C295.517 167.454 295.167 167.711 294.709 167.888C294.252 168.056 293.701 168.14 293.057 168.14C292.525 168.14 292.068 168.098 291.685 168.014C291.312 167.939 290.967 167.827 290.649 167.678V166.376C290.985 166.535 291.373 166.679 291.811 166.81C292.25 166.931 292.679 166.992 293.099 166.992C293.659 166.992 294.061 166.903 294.303 166.726C294.555 166.549 294.681 166.311 294.681 166.012C294.681 165.844 294.635 165.695 294.541 165.564C294.448 165.424 294.271 165.284 294.009 165.144C293.757 164.995 293.384 164.827 292.889 164.64C292.413 164.444 292.007 164.253 291.671 164.066C291.335 163.87 291.079 163.641 290.901 163.38C290.724 163.109 290.635 162.764 290.635 162.344C290.635 161.691 290.897 161.191 291.419 160.846C291.951 160.491 292.651 160.314 293.519 160.314C293.977 160.314 294.406 160.361 294.807 160.454C295.218 160.538 295.615 160.669 295.997 160.846L295.507 161.98C295.293 161.877 295.069 161.793 294.835 161.728C294.611 161.653 294.383 161.593 294.149 161.546C293.925 161.499 293.692 161.476 293.449 161.476C293.001 161.476 292.661 161.546 292.427 161.686C292.194 161.826 292.077 162.022 292.077 162.274C292.077 162.451 292.129 162.605 292.231 162.736C292.343 162.867 292.535 162.997 292.805 163.128C293.076 163.259 293.445 163.417 293.911 163.604C294.378 163.781 294.775 163.963 295.101 164.15C295.437 164.337 295.689 164.565 295.857 164.836C296.035 165.107 296.123 165.452 296.123 165.872ZM299.376 159.922C299.376 160.23 299.367 160.524 299.348 160.804C299.339 161.075 299.325 161.289 299.306 161.448H299.376C299.591 161.131 299.88 160.865 300.244 160.65C300.608 160.435 301.08 160.328 301.658 160.328C302.564 160.328 303.292 160.655 303.842 161.308C304.402 161.961 304.682 162.932 304.682 164.22C304.682 165.088 304.556 165.811 304.304 166.39C304.052 166.969 303.698 167.407 303.24 167.706C302.783 167.995 302.251 168.14 301.644 168.14C301.056 168.14 300.585 168.037 300.23 167.832C299.876 167.617 299.591 167.365 299.376 167.076H299.264L298.984 168H297.892V157.36H299.376V159.922ZM301.308 161.532C300.823 161.532 300.44 161.625 300.16 161.812C299.88 161.999 299.68 162.283 299.558 162.666C299.437 163.049 299.376 163.534 299.376 164.122V164.234C299.376 165.102 299.516 165.769 299.796 166.236C300.076 166.693 300.59 166.922 301.336 166.922C301.934 166.922 302.386 166.689 302.694 166.222C303.002 165.755 303.156 165.083 303.156 164.206C303.156 163.319 303.002 162.652 302.694 162.204C302.386 161.756 301.924 161.532 301.308 161.532ZM309.5 160.314C310.452 160.314 311.161 160.524 311.628 160.944C312.095 161.355 312.328 162.003 312.328 162.89V168H311.278L310.984 166.95H310.928C310.713 167.221 310.489 167.445 310.256 167.622C310.032 167.799 309.771 167.93 309.472 168.014C309.183 168.098 308.828 168.14 308.408 168.14C307.96 168.14 307.554 168.061 307.19 167.902C306.835 167.734 306.555 167.482 306.35 167.146C306.145 166.801 306.042 166.371 306.042 165.858C306.042 165.093 306.331 164.509 306.91 164.108C307.498 163.707 308.389 163.487 309.584 163.45L310.872 163.408V162.988C310.872 162.428 310.746 162.036 310.494 161.812C310.242 161.588 309.887 161.476 309.43 161.476C309.038 161.476 308.665 161.532 308.31 161.644C307.955 161.756 307.619 161.891 307.302 162.05L306.826 160.972C307.181 160.785 307.587 160.631 308.044 160.51C308.511 160.379 308.996 160.314 309.5 160.314ZM309.85 164.402C308.991 164.439 308.394 164.584 308.058 164.836C307.731 165.079 307.568 165.424 307.568 165.872C307.568 166.264 307.685 166.549 307.918 166.726C308.161 166.903 308.464 166.992 308.828 166.992C309.416 166.992 309.901 166.829 310.284 166.502C310.667 166.175 310.858 165.685 310.858 165.032V164.374L309.85 164.402ZM318.435 160.314C319.313 160.314 319.985 160.533 320.451 160.972C320.918 161.411 321.151 162.115 321.151 163.086V168H319.681V163.296C319.681 162.708 319.555 162.269 319.303 161.98C319.061 161.681 318.669 161.532 318.127 161.532C317.362 161.532 316.83 161.761 316.531 162.218C316.242 162.675 316.097 163.333 316.097 164.192V168H314.613V160.454H315.789L315.999 161.462H316.083C316.251 161.201 316.457 160.986 316.699 160.818C316.942 160.65 317.213 160.524 317.511 160.44C317.81 160.356 318.118 160.314 318.435 160.314ZM326.4 160.314C327.062 160.314 327.632 160.454 328.108 160.734C328.584 161.005 328.948 161.397 329.2 161.91C329.461 162.423 329.592 163.03 329.592 163.73V164.542H324.524C324.542 165.317 324.743 165.909 325.126 166.32C325.518 166.731 326.064 166.936 326.764 166.936C327.249 166.936 327.678 166.894 328.052 166.81C328.434 166.717 328.826 166.581 329.228 166.404V167.636C328.854 167.804 328.472 167.93 328.08 168.014C327.697 168.098 327.24 168.14 326.708 168.14C325.98 168.14 325.336 167.995 324.776 167.706C324.216 167.417 323.777 166.987 323.46 166.418C323.152 165.839 322.998 165.13 322.998 164.29C322.998 163.441 323.138 162.722 323.418 162.134C323.707 161.546 324.104 161.098 324.608 160.79C325.121 160.473 325.718 160.314 326.4 160.314ZM326.4 161.462C325.868 161.462 325.438 161.635 325.112 161.98C324.794 162.325 324.608 162.815 324.552 163.45H328.108C328.108 163.058 328.047 162.713 327.926 162.414C327.804 162.115 327.618 161.882 327.366 161.714C327.114 161.546 326.792 161.462 326.4 161.462Z" fill="#009688"/>
</svg>
