<svg width="26" height="26" viewBox="0 0 26 26" fill="none" xmlns="http://www.w3.org/2000/svg">
<path d="M14.3352 1.88639C14.2255 1.62296 14.04 1.39807 13.8023 1.24025C13.5646 1.08244 13.2853 0.998826 13 1.00001C12.6197 1.00001 12.2549 1.15113 11.986 1.42013C11.8513 1.55486 11.7462 1.71365 11.6748 1.88639M14.3352 1.88639C14.445 2.14983 14.474 2.43993 14.4186 2.71989C14.3632 2.99985 14.226 3.25705 14.0242 3.45885C13.8225 3.66065 13.5653 3.79795 13.2855 3.85333C13.0056 3.90872 12.7155 3.87969 12.4522 3.76993C12.1888 3.66017 11.964 3.47462 11.8062 3.23684C11.6484 2.99906 11.5648 2.71975 11.566 2.43437M14.3352 1.88639L15.298 2.07428C17.4054 2.52491 19.3358 3.58003 20.8532 5.11059C22.3706 6.64115 23.4092 8.58083 23.842 10.6924V10.6984L24.0904 11.662M11.566 2.43437C6.67446 8.24595 6.55728 13.105 9.7287 21.3302M11.566 2.43437C11.566 2.2445 11.6036 2.05852 11.6748 1.88639M16.288 4.67293C21.6062 12.5608 16.126 21.4636 14.3716 23.1471M4.63601 9.69018C11.8625 6.46926 18.166 6.46926 23.2884 11.5898M1.88478 11.662C1.62176 11.772 1.39728 11.9575 1.23977 12.1952C1.08227 12.4328 0.998825 12.7119 1.00001 12.997C1.00001 13.1859 1.0373 13.3729 1.10974 13.5473C1.18218 13.7217 1.28834 13.8801 1.42214 14.0134C1.55594 14.1467 1.71473 14.2522 1.8894 14.3239M1.88478 11.662C2.1478 11.5521 2.43752 11.5227 2.71725 11.5776C2.99697 11.6325 3.25412 11.7692 3.4561 11.9704C3.65809 12.1716 3.79584 12.4282 3.85189 12.7078C3.90794 12.9874 3.87977 13.2773 3.77096 13.5408C3.66215 13.8044 3.47759 14.0297 3.24065 14.1882C3.00372 14.3467 2.72507 14.4314 2.44001 14.4314M1.88478 11.662L2.15201 10.6924C2.58669 8.58068 3.62666 6.64121 5.14496 5.11081C6.66326 3.58041 8.59419 2.52529 10.702 2.07428L11.6748 1.88639M2.44001 14.4314C2.25119 14.4322 2.06408 14.3956 1.8894 14.3239M2.44001 14.4314C8.90201 19.7357 13.7056 19.2681 21.334 16.2858M1.8894 14.3239L2.20001 15.3136C2.66214 17.3831 3.70646 19.2771 5.20972 20.7722C6.71299 22.2674 8.61247 23.3012 10.684 23.7517L11.6266 23.9782M23.2884 11.5898C23.0104 11.6446 22.7549 11.7807 22.5541 11.9807C22.3533 12.1807 22.2163 12.4357 22.1603 12.7135C22.1043 12.9914 22.1318 13.2796 22.2394 13.5418C22.3471 13.804 22.5299 14.0284 22.765 14.1867C23 14.345 23.2766 14.4302 23.56 14.4314C23.7528 14.4314 23.9417 14.3927 24.1161 14.3196M23.2884 11.5898C23.5574 11.5367 23.8357 11.5619 24.0904 11.662M14.3716 23.1471C14.3309 23.0136 14.2707 22.8861 14.1923 22.7688C14.0348 22.5329 13.8108 22.349 13.5488 22.2405C13.2867 22.1319 12.9984 22.1035 12.7202 22.1588C12.4421 22.2142 12.1866 22.3508 11.986 22.5514C11.7855 22.752 11.6489 23.0076 11.5936 23.2858C11.5477 23.5166 11.5594 23.7543 11.6266 23.9782M14.3716 23.1471C14.4128 23.282 14.434 23.423 14.434 23.5656C14.4334 23.7068 14.412 23.8457 14.3716 23.9782M24.0904 11.662C24.099 11.6654 24.1076 11.6689 24.1161 11.6724C24.3778 11.7812 24.6014 11.965 24.7587 12.2007C24.916 12.4365 25 12.7136 25 12.997C24.9984 13.378 24.846 13.7428 24.5761 14.0116C24.4429 14.1443 24.2863 14.2483 24.1161 14.3196M24.1161 14.3196L23.8 15.3136C23.3385 17.3834 22.2945 19.2778 20.7911 20.773C19.2877 22.2683 17.3879 23.3019 15.316 23.7517L14.3716 23.9782M14.3716 23.9782C14.3033 24.2021 14.1807 24.4079 14.0119 24.576C13.7431 24.8437 13.3793 24.994 13 24.994V25C12.7164 25 12.4391 24.9159 12.2033 24.7583C11.9675 24.6007 11.7837 24.3766 11.6752 24.1145C11.6566 24.0698 11.6404 24.0243 11.6266 23.9782" stroke="#595959" stroke-linecap="round"/>
</svg>
