<svg width="12" height="13" viewBox="0 0 12 13" fill="none" xmlns="http://www.w3.org/2000/svg">
    <path
        d="M6.75 9.21875C6.75 9.36709 6.70602 9.51209 6.6236 9.63543C6.54119 9.75877 6.42406 9.85489 6.28701 9.91166C6.14997 9.96843 5.99917 9.98328 5.85368 9.95434C5.7082 9.9254 5.57456 9.85397 5.46967 9.74908C5.36478 9.64419 5.29335 9.51055 5.26441 9.36507C5.23547 9.21958 5.25033 9.06878 5.30709 8.93174C5.36386 8.79469 5.45999 8.67756 5.58332 8.59515C5.70666 8.51274 5.85167 8.46875 6 8.46875C6.19891 8.46875 6.38968 8.54777 6.53033 8.68842C6.67098 8.82907 6.75 9.01984 6.75 9.21875ZM11.0625 6.78125C11.0625 7.78252 10.7656 8.7613 10.2093 9.59382C9.65304 10.4263 8.86239 11.0752 7.93734 11.4584C7.01229 11.8416 5.99439 11.9418 5.01236 11.7465C4.03033 11.5511 3.12828 11.069 2.42027 10.361C1.71227 9.65298 1.23011 8.75092 1.03478 7.76889C0.839439 6.78687 0.939694 5.76897 1.32286 4.84391C1.70603 3.91886 2.3549 3.12821 3.18743 2.57194C4.01995 2.01566 4.99873 1.71875 6 1.71875C7.3422 1.72024 8.62901 2.25409 9.57809 3.20317C10.5272 4.15225 11.061 5.43905 11.0625 6.78125ZM9.9375 6.78125C9.9375 6.00249 9.70657 5.24121 9.27391 4.59369C8.84126 3.94617 8.2263 3.44149 7.50682 3.14347C6.78733 2.84545 5.99563 2.76748 5.23183 2.91941C4.46803 3.07134 3.76644 3.44635 3.21577 3.99702C2.6651 4.54769 2.29009 5.24928 2.13816 6.01308C1.98623 6.77688 2.06421 7.56858 2.36223 8.28807C2.66025 9.00755 3.16493 9.6225 3.81244 10.0552C4.45996 10.4878 5.22124 10.7188 6 10.7188C7.04395 10.7176 8.04482 10.3024 8.783 9.56425C9.52118 8.82607 9.93639 7.8252 9.9375 6.78125ZM6 3.78125C4.86281 3.78125 3.9375 4.62219 3.9375 5.65625V5.84375C3.9375 5.99293 3.99677 6.13601 4.10225 6.2415C4.20774 6.34699 4.35082 6.40625 4.5 6.40625C4.64919 6.40625 4.79226 6.34699 4.89775 6.2415C5.00324 6.13601 5.0625 5.99293 5.0625 5.84375V5.65625C5.0625 5.24281 5.48438 4.90625 6 4.90625C6.51563 4.90625 6.9375 5.24281 6.9375 5.65625C6.9375 6.06969 6.51563 6.40625 6 6.40625C5.85082 6.40625 5.70774 6.46551 5.60225 6.571C5.49677 6.67649 5.4375 6.81957 5.4375 6.96875V7.34375C5.43717 7.48272 5.48829 7.6169 5.58101 7.72041C5.67374 7.82393 5.8015 7.88946 5.93967 7.90436C6.07784 7.91927 6.21664 7.8825 6.3293 7.80114C6.44197 7.71978 6.52053 7.5996 6.54985 7.46375C7.42078 7.24437 8.0625 6.51734 8.0625 5.65625C8.0625 4.62219 7.13719 3.78125 6 3.78125Z"
        fill="#00549A" />
</svg>
