<svg width="24" height="24" viewBox="0 0 24 24" fill="none" xmlns="http://www.w3.org/2000/svg">
    <path
        d="M12.4123 17.8762L17.1373 20.8762C17.7466 21.2606 18.4966 20.6887 18.3185 19.9856L16.9498 14.6043C16.9127 14.4552 16.9186 14.2986 16.9667 14.1526C17.0148 14.0067 17.1032 13.8773 17.2216 13.7793L21.4591 10.2449C22.0123 9.78557 21.731 8.85744 21.0091 8.81057L15.4779 8.45432C15.327 8.44554 15.1819 8.39298 15.0603 8.30308C14.9388 8.21318 14.8461 8.08981 14.7935 7.94807L12.731 2.75432C12.6764 2.60423 12.5769 2.47457 12.4461 2.38295C12.3153 2.29133 12.1595 2.24219 11.9998 2.24219C11.84 2.24219 11.6842 2.29133 11.5534 2.38295C11.4226 2.47457 11.3231 2.60423 11.2685 2.75432L9.206 7.94807C9.15344 8.08981 9.06072 8.21318 8.93918 8.30308C8.81764 8.39298 8.67255 8.44554 8.52163 8.45432L2.99038 8.81057C2.2685 8.85744 1.98725 9.78557 2.54038 10.2449L6.77788 13.7793C6.89632 13.8773 6.98468 14.0067 7.03278 14.1526C7.08088 14.2986 7.08676 14.4552 7.04975 14.6043L5.78413 19.5918C5.5685 20.4356 6.4685 21.1199 7.19038 20.6606L11.5873 17.8762C11.7105 17.7978 11.8536 17.7562 11.9998 17.7562C12.1459 17.7562 12.289 17.7978 12.4123 17.8762V17.8762Z"
        stroke="black" stroke-width="1.5" stroke-linecap="round" stroke-linejoin="round" />
</svg>
