<svg width="21" height="21" viewBox="0 0 21 21" fill="none" xmlns="http://www.w3.org/2000/svg">
    <path d="M14.1797 10.7656C14.1797 11.0143 14.0809 11.2527 13.9051 11.4285C13.7293 11.6044 13.4908 11.7031 13.2422 11.7031H6.99219C6.74355 11.7031 6.50509 11.6044 6.32928 11.4285C6.15346 11.2527 6.05469 11.0143 6.05469 10.7656C6.05469 10.517 6.15346 10.2785 6.32928 10.1027C6.50509 9.9269 6.74355 9.82812 6.99219 9.82812H13.2422C13.4908 9.82812 13.7293 9.9269 13.9051 10.1027C14.0809 10.2785 14.1797 10.517 14.1797 10.7656ZM18.5547 10.7656C18.5547 12.4344 18.0598 14.0657 17.1327 15.4532C16.2056 16.8408 14.8878 17.9222 13.3461 18.5609C11.8043 19.1995 10.1078 19.3666 8.47112 19.041C6.8344 18.7154 5.33098 17.9118 4.15098 16.7318C2.97097 15.5518 2.16738 14.0484 1.84182 12.4117C1.51625 10.775 1.68334 9.07849 2.32196 7.53673C2.96057 5.99498 4.04203 4.67722 5.42957 3.7501C6.81711 2.82298 8.44841 2.32813 10.1172 2.32812C12.3542 2.33061 14.4989 3.22035 16.0807 4.80215C17.6625 6.38395 18.5522 8.52862 18.5547 10.7656ZM16.6797 10.7656C16.6797 9.46769 16.2948 8.19889 15.5737 7.1197C14.8526 6.0405 13.8277 5.19937 12.6286 4.70267C11.4294 4.20597 10.1099 4.07601 8.83691 4.32922C7.56391 4.58244 6.39459 5.20745 5.4768 6.12524C4.55902 7.04302 3.934 8.21234 3.68079 9.48534C3.42757 10.7583 3.55753 12.0778 4.05423 13.277C4.55093 14.4761 5.39206 15.501 6.47126 16.2221C7.55046 16.9432 8.81925 17.3281 10.1172 17.3281C11.8571 17.3263 13.5252 16.6343 14.7555 15.404C15.9858 14.1737 16.6778 12.5055 16.6797 10.7656Z" fill="#D76176"/>
</svg>