<svg width="24" height="24" viewBox="0 0 24 24" fill="none" xmlns="http://www.w3.org/2000/svg">
    <g filter="url(#filter0_d_4381_20773)">
        <path
            d="M12.0499 2.00023C13.6853 1.98908 15.2974 2.38744 16.738 3.15872C17.7728 3.71632 18.7022 4.44909 19.4846 5.32422C20.3526 6.27677 21.0163 7.3957 21.435 8.61256C21.6756 9.28139 21.8406 9.97482 21.9271 10.68C21.9822 11.1652 22.0061 11.6533 21.9987 12.1415C21.9443 14.397 21.1244 16.5676 19.6725 18.2994C18.9412 19.1714 18.0633 19.9102 17.078 20.4827C16.0431 21.0905 14.9065 21.5071 13.7229 21.7125C12.9739 21.8504 12.2106 21.8953 11.4504 21.8461C10.1462 21.7749 8.87039 21.4382 7.70175 20.857C7.53793 20.7738 7.35803 20.7267 7.1743 20.719C6.99057 20.7113 6.80734 20.7432 6.63709 20.8124C5.6261 21.0887 4.61512 21.3382 3.60413 21.6055C3.12101 21.7303 2.63788 21.8461 2.1637 21.9798C1.97582 22.0333 1.98477 21.9798 2.02055 21.8283C2.3158 20.7768 2.60209 19.7252 2.91523 18.6736C3.07627 18.1122 3.22837 17.5419 3.38941 16.9715C3.40008 16.9266 3.39997 16.8798 3.38909 16.8349C3.37821 16.79 3.35686 16.7483 3.32678 16.7131C2.78016 15.7549 2.40763 14.708 2.22633 13.6208C2.08215 12.8394 2.04005 12.0426 2.10107 11.2504C2.17935 10.0993 2.46103 8.971 2.93312 7.91746C3.28868 7.0956 3.75851 6.32763 4.32882 5.63612C4.85294 5.00044 5.45395 4.43173 6.11817 3.94293C6.98537 3.3002 7.95253 2.80347 8.98114 2.47254C9.67232 2.24824 10.3866 2.10178 11.1105 2.03587C11.4236 2.00914 11.7278 2.02696 12.0499 2.00023ZM12.0051 3.67559C11.5974 3.67046 11.19 3.70328 10.7884 3.77362C8.66693 4.09841 6.75451 5.22977 5.45312 6.92987C4.15172 8.62997 3.56272 10.7664 3.80991 12.8901C3.9501 14.1645 4.39495 15.3868 5.10719 16.4547C5.14583 16.5081 5.17159 16.5696 5.18245 16.6345C5.19331 16.6994 5.18899 16.766 5.16982 16.829C4.91931 17.7201 4.68669 18.6113 4.44513 19.44C4.3825 19.6806 4.3825 19.6806 4.63301 19.6183L7.31704 18.9143C7.39377 18.8928 7.47425 18.888 7.55299 18.9003C7.63173 18.9126 7.70688 18.9417 7.77333 18.9855C9.54493 20.0734 11.6678 20.4434 13.705 20.0193C15.7276 19.6166 17.5266 18.477 18.7503 16.8232C19.974 15.1694 20.5344 13.1204 20.3218 11.0769C20.1093 9.03345 19.1391 7.14242 17.6011 5.77363C16.063 4.40483 14.0676 3.65672 12.0051 3.67559Z"
            fill="#FEFEFE" />
        <path
            d="M11.9456 4.00034C13.9325 3.98207 15.8547 4.70658 17.3364 6.03221C18.8181 7.35784 19.7527 9.18924 19.9575 11.1683C20.1622 13.1473 19.6224 15.1317 18.4436 16.7333C17.2647 18.3349 15.5316 19.4386 13.5832 19.8286C11.6097 20.2486 9.55046 19.89 7.83441 18.8275C7.7704 18.785 7.698 18.7569 7.62215 18.745C7.5463 18.7331 7.46877 18.7376 7.39485 18.7584L4.80919 19.4402C4.56786 19.5007 4.56786 19.5007 4.62819 19.2676C4.8609 18.4046 5.08499 17.5847 5.32632 16.7389C5.34981 16.6805 5.35969 16.6175 5.35521 16.5547C5.35073 16.4919 5.332 16.4309 5.30047 16.3764C4.61433 15.3423 4.18578 14.1584 4.05073 12.9242C3.81913 10.8755 4.38633 8.8164 5.63403 7.17628C6.88174 5.53616 8.71361 4.4417 10.7476 4.12116C11.1422 4.04273 11.5433 4.00227 11.9456 4.00034ZM14.6261 16.5922C14.7209 16.5922 14.8416 16.5922 14.945 16.5922C15.4769 16.5588 15.975 16.3195 16.3337 15.9248C16.6924 15.5301 16.8837 15.0111 16.867 14.4777C16.8718 14.4181 16.8588 14.3583 16.8296 14.3061C16.8005 14.2538 16.7565 14.2115 16.7032 14.1843C16.0482 13.8477 15.3932 13.5025 14.7123 13.2263C14.4279 13.1141 14.3503 13.1486 14.1607 13.3989C13.9711 13.6492 13.6952 13.9858 13.4539 14.262C13.4048 14.3335 13.3311 14.3845 13.2469 14.4052C13.1626 14.4259 13.0737 14.4148 12.9971 14.3742C11.5977 13.8338 10.4262 12.8283 9.67885 11.5261C9.62248 11.4616 9.59141 11.3788 9.59141 11.2931C9.59141 11.2074 9.62248 11.1246 9.67885 11.0601C9.90116 10.7859 10.1056 10.4976 10.2908 10.197C10.3331 10.1376 10.3593 10.0682 10.3668 9.99556C10.3744 9.92297 10.363 9.84965 10.3339 9.78275C10.0753 9.16999 9.81675 8.55722 9.56681 7.94446C9.52859 7.8098 9.44288 7.69359 9.32559 7.61741C9.2083 7.54123 9.06739 7.51024 8.92901 7.5302C8.81713 7.53882 8.70475 7.53882 8.59288 7.5302C8.47739 7.52952 8.36295 7.55209 8.25635 7.59657C8.14974 7.64105 8.05315 7.70653 7.97232 7.78911C7.60343 8.12554 7.33427 8.55726 7.19438 9.03685C7.0545 9.51644 7.04931 10.0254 7.17938 10.5077C7.36817 11.1967 7.6903 11.8418 8.12746 12.4064C9.21433 14.1633 10.8643 15.499 12.8075 16.1952C13.3798 16.4236 13.9852 16.5576 14.6002 16.5922H14.6261Z"
            fill="#64B061" />
        <path
            d="M14.673 16.981C14.0443 16.9429 13.4254 16.795 12.8404 16.5432C10.8599 15.7784 9.17693 14.3126 8.06512 12.384C7.61824 11.7613 7.28895 11.0499 7.09596 10.2901C6.963 9.75815 6.9683 9.19693 7.1113 8.66804C7.25429 8.13915 7.52944 7.66306 7.90653 7.29204C7.98916 7.20097 8.0879 7.12876 8.19687 7.07971C8.30584 7.03066 8.42283 7.00577 8.54088 7.00652C8.65525 7.01603 8.77013 7.01603 8.88449 7.00652C9.02595 6.98451 9.16999 7.01868 9.28989 7.10269C9.40979 7.18671 9.4974 7.31486 9.53647 7.46336C9.79197 8.13911 10.0563 8.81486 10.3206 9.49061C10.3504 9.56439 10.362 9.64524 10.3543 9.7253C10.3465 9.80535 10.3198 9.88189 10.2766 9.94745C10.0872 10.2789 9.87826 10.5968 9.65101 10.8992C9.59338 10.9704 9.56162 11.0617 9.56162 11.1562C9.56162 11.2507 9.59338 11.342 9.65101 11.4132C10.4149 12.8492 11.6125 13.9581 13.0431 14.554C13.1214 14.5988 13.2122 14.611 13.2984 14.5882C13.3845 14.5654 13.4598 14.5092 13.51 14.4302C13.7567 14.1162 14.0034 13.8021 14.2325 13.4785C14.4615 13.1549 14.5056 13.1644 14.7963 13.2881C15.4924 13.5927 16.162 13.9734 16.8316 14.3446C16.886 14.3745 16.931 14.4213 16.9608 14.4789C16.9906 14.5365 17.0039 14.6024 16.999 14.6682C17.0161 15.2564 16.8205 15.8288 16.4538 16.264C16.0871 16.6992 15.578 16.9632 15.0342 17C14.8933 16.981 14.7699 16.9714 14.673 16.981Z"
            fill="#FDFEFD" />
    </g>
    <defs>
        <filter id="filter0_d_4381_20773" x="0" y="0" width="24" height="24"
            filterUnits="userSpaceOnUse" color-interpolation-filters="sRGB">
            <feFlood flood-opacity="0" result="BackgroundImageFix" />
            <feColorMatrix in="SourceAlpha" type="matrix"
                values="0 0 0 0 0 0 0 0 0 0 0 0 0 0 0 0 0 0 127 0" result="hardAlpha" />
            <feOffset />
            <feGaussianBlur stdDeviation="1" />
            <feComposite in2="hardAlpha" operator="out" />
            <feColorMatrix type="matrix" values="0 0 0 0 0 0 0 0 0 0 0 0 0 0 0 0 0 0 0.25 0" />
            <feBlend mode="normal" in2="BackgroundImageFix"
                result="effect1_dropShadow_4381_20773" />
            <feBlend mode="normal" in="SourceGraphic" in2="effect1_dropShadow_4381_20773"
                result="shape" />
        </filter>
    </defs>
</svg>
