<svg width="24" height="24" viewBox="0 0 24 24" fill="none" xmlns="http://www.w3.org/2000/svg">
    <g clip-path="url(#clip0_5313_22332)">
        <g filter="url(#filter0_d_5313_22332)">
            <path
                d="M11.19 1.99023H11.42C11.5 2.02023 11.58 2.02023 11.65 1.99023H11.96C12.04 2.08023 12.02 2.20023 12.02 2.31023C12.02 3.36023 12.02 4.41023 12.02 5.45023C12.02 5.75023 12.02 5.76023 12.32 5.76023C12.79 5.76023 13.26 5.76023 13.72 5.76023C13.82 5.76023 13.93 5.73023 13.99 5.86023C13.91 5.94023 13.81 5.92023 13.71 5.92023C13.24 5.92023 12.76 5.92023 12.29 5.92023C12.21 5.92023 12.12 5.92023 12.04 5.94023C11.96 5.98023 11.97 6.06023 11.97 6.13023C11.97 7.28023 11.94 8.43023 11.97 9.58023C12.02 11.0202 11.97 12.4502 12 13.8902C12 13.9902 12 14.0902 11.97 14.1802C11.76 14.9702 11.3 15.5102 10.47 15.6602C10.15 15.7202 9.84 15.7002 9.53 15.5902C9.46 15.5602 9.4 15.5102 9.36 15.4402C9.09 14.9902 9.02 14.5202 9.14 14.0102C9.32 13.2702 9.95 12.7702 10.71 12.7602C10.85 12.7602 10.98 12.7602 11.12 12.7602C11.23 12.7602 11.27 12.7102 11.27 12.6102C11.27 12.0702 11.27 11.5302 11.27 10.9902C11.27 10.8702 11.21 10.8102 11.09 10.8002C11 10.8002 10.91 10.8002 10.82 10.7802C10.8 10.7802 10.78 10.7602 10.77 10.7502C10.72 10.6702 10.73 10.5702 10.73 10.4802C10.73 10.3502 10.69 10.3002 10.56 10.2802C10.21 10.2202 9.86 10.2602 9.51 10.3202C7.92 10.6102 6.7 11.9502 6.54 13.5702C6.42 14.7902 6.78 15.8102 7.65 16.6702C7.74 16.7602 7.85 16.8302 7.95 16.9202C8.08 17.0302 8.22 17.1102 8.34 17.2402C8.79 17.7302 9.36 17.9802 10 18.1302C10.58 18.2602 11.16 18.2502 11.74 18.1302C11.82 18.1102 11.9 18.0802 11.99 18.1102C12.01 18.1202 12.02 18.1402 12.03 18.1702C12.03 19.3802 12.03 20.5902 12.03 21.8002C12.03 21.8802 12.03 21.9702 11.97 22.0402H11.19C10.97 22.0002 10.75 22.0202 10.54 21.9902C8.93 21.7602 7.46 21.1602 6.14 20.2002C4.43 18.9602 3.23 17.3402 2.52 15.3502C2.18 14.4002 2 13.4202 2 12.4002C2 11.5502 2 10.7102 2.19 9.88023C2.45 8.76023 2.87 7.71023 3.47 6.73023C3.89 6.06023 4.37 5.44023 4.94 4.89023C6.22 3.64023 7.72 2.76023 9.46 2.31023C10.01 2.17023 10.56 2.06023 11.13 2.06023C11.15 2.06023 11.17 2.06023 11.18 2.04023L11.19 1.99023Z"
                fill="#0C0C0C" />
            <path
                d="M11.9709 22.0102C11.9709 20.7902 11.9709 19.5702 11.9709 18.3502C11.9709 18.2702 11.9609 18.1802 12.0109 18.1102C12.0309 18.0302 12.1109 18.0102 12.1709 17.9902C13.5409 17.4202 14.2909 16.3902 14.4909 14.9302C14.5209 14.6802 14.5309 14.4302 14.5309 14.1702C14.5309 13.0202 14.5309 11.8702 14.5309 10.7102C14.5309 10.5902 14.4809 10.4402 14.6009 10.3602C14.7209 10.2902 14.8109 10.4302 14.9109 10.4802C15.6109 10.9002 16.3709 11.1602 17.1909 11.2002C17.3409 11.2002 17.3909 11.1702 17.3909 11.0202C17.3909 10.5102 17.3909 9.99023 17.3909 9.48023C17.3909 9.32023 17.3309 9.24023 17.1809 9.21023C17.0709 9.19023 16.9609 9.16023 16.8709 9.10023C16.8409 9.08024 16.8209 9.06023 16.8009 9.03023C16.8009 8.77023 16.6609 8.70023 16.4309 8.67023C16.1609 8.63023 15.9009 8.53023 15.6609 8.40023C15.2509 8.18023 14.9609 7.84023 14.7109 7.47023C14.5409 7.17023 14.3909 6.86023 14.2809 6.53023C14.2509 6.44023 14.1809 6.42023 14.1009 6.40023C14.0809 6.40023 14.0609 6.38023 14.0509 6.36023C13.9709 6.20023 13.9009 6.04023 14.0009 5.86023C13.9509 5.79023 13.8709 5.82023 13.8009 5.82023C13.2609 5.82023 12.7209 5.82023 12.1809 5.82023C12.0009 5.82023 11.9709 5.76023 11.9709 5.60023C11.9709 4.40023 11.9709 3.19023 11.9709 1.99023H12.3609C12.3609 1.99023 12.4209 2.01023 12.4509 2.01023C12.4809 2.01023 12.5109 2.01023 12.5509 2.01023C12.5709 2.01023 12.6009 2.01023 12.6209 2.01023C12.6509 2.01023 12.6809 2.01023 12.7109 1.99023H12.7909C13.2509 2.03023 13.7009 2.06023 14.1509 2.17023C15.7409 2.53023 17.1709 3.22023 18.4309 4.27023C19.4909 5.16023 20.3409 6.22023 20.9709 7.45023C21.4809 8.45023 21.8109 9.51023 21.9609 10.6202C21.9909 10.8202 21.9709 11.0202 22.0109 11.2202V11.4202C22.0109 11.4202 21.9909 11.5002 21.9909 11.5402C21.9909 11.5802 21.9809 11.6202 22.0109 11.6602V12.3602C22.0109 12.3602 22.0009 12.4402 21.9909 12.4802C21.9909 12.5102 21.9909 12.5502 21.9909 12.5802C21.9909 12.6102 21.9909 12.6502 22.0109 12.6702V12.8702C21.9609 13.2302 21.9509 13.5902 21.8809 13.9502C21.5309 15.6702 20.8009 17.2002 19.6509 18.5402C18.2409 20.1802 16.4909 21.2602 14.3909 21.7902C13.8809 21.9202 13.3709 22.0002 12.8509 22.0002C12.8209 22.0002 12.7809 22.0002 12.7609 22.0202H12.6809C12.6809 22.0202 12.6209 22.0002 12.5909 22.0002C12.5509 22.0002 12.5109 21.9902 12.4809 22.0202H12.2809C12.2109 21.9902 12.1509 21.9902 12.0809 22.0202H11.9609L11.9709 22.0102Z"
                fill="black" />
            <path d="M11.6597 1.99023C11.5797 2.05023 11.4997 2.05023 11.4297 1.99023H11.6597Z"
                fill="#1C1C1C" />
            <path d="M12.0898 22.0098C12.1598 21.9498 12.2198 21.9498 12.2898 22.0098H12.0898Z"
                fill="#101010" />
            <path
                d="M12.5599 2.03C12.5599 2.03 12.4799 2.03 12.4399 2.03C12.4299 2.03 12.4199 2.02 12.4199 2.01C12.4199 2.01 12.4199 2 12.4299 2H12.5499C12.5499 2 12.5699 2.01 12.5599 2.02C12.5599 2.02 12.5599 2.03 12.5499 2.03H12.5599Z"
                fill="#4E4E4E" />
            <path
                d="M21.9704 11.5299C21.9704 11.5299 21.9404 11.4399 22.0004 11.4199V11.5399C22.0004 11.5399 21.9804 11.5599 21.9704 11.5399V11.5299Z"
                fill="#595959" />
            <path
                d="M21.9704 11.5293C21.9704 11.5293 21.9904 11.5293 22.0004 11.5293V11.6493C22.0004 11.6493 21.9604 11.5693 21.9704 11.5293Z"
                fill="#3A3A3A" />
            <path
                d="M21.9699 12.4696C21.9699 12.4696 21.9599 12.3796 21.9999 12.3496V12.4696C21.9999 12.4696 21.9799 12.4896 21.9699 12.4696Z"
                fill="#3A3A3A" />
            <path
                d="M21.9707 12.4707C21.9707 12.4707 21.9907 12.4707 22.0007 12.4707V12.5907C22.0007 12.5907 21.9807 12.6107 21.9707 12.5907C21.9707 12.5507 21.9707 12.5107 21.9707 12.4707Z"
                fill="#5A5A5A" />
            <path
                d="M12.4805 22.0108C12.5105 21.9608 12.5505 21.9708 12.6005 21.9808C12.6105 21.9808 12.6105 22.0008 12.6105 22.0008C12.6105 22.0008 12.6105 22.0108 12.6005 22.0108H12.4805Z"
                fill="#5D5D5D" />
            <path
                d="M12.4394 1.99023C12.4394 1.99023 12.4394 2.01023 12.4394 2.02023C12.4094 2.02023 12.3794 2.02023 12.3594 1.99023H12.4394Z"
                fill="#363636" />
            <path
                d="M12.5605 2.03C12.5605 2.03 12.5605 2.01 12.5605 2H12.6405C12.6405 2 12.6605 2.01 12.6505 2.02C12.6505 2.02 12.6505 2.03 12.6405 2.03C12.6105 2.03 12.5905 2.03 12.5605 2.03Z"
                fill="#717171" />
            <path
                d="M12.6406 2.03C12.6406 2.03 12.6406 2.01 12.6406 2H12.7206C12.7206 2 12.6806 2.04 12.6406 2.03Z"
                fill="#909090" />
            <path
                d="M21.9704 12.5898C21.9704 12.5898 21.9904 12.5898 22.0004 12.5898V12.6698C22.0004 12.6698 21.9604 12.6298 21.9704 12.5898Z"
                fill="#818181" />
            <path
                d="M12.5996 22.0096C12.5996 22.0096 12.5996 21.9896 12.5996 21.9796C12.6296 21.9796 12.6696 21.9696 12.6796 22.0096H12.5996Z"
                fill="#828282" />
            <path
                d="M9.43048 15.4495C9.43048 15.4495 9.51048 15.5095 9.55048 15.5395C9.65048 15.6295 9.74048 15.7295 9.85048 15.8195C10.4105 16.2395 11.1205 16.2495 11.7605 15.8295C11.8405 15.7795 11.9105 15.6895 12.0205 15.7595C12.0605 15.7995 12.0705 15.8495 12.0705 15.9095C12.0705 16.3595 12.0905 16.8195 12.0705 17.2695C12.0705 17.2895 12.0605 17.3095 12.0405 17.3295C11.9505 17.4395 11.8205 17.4795 11.6905 17.5295C10.6805 17.8995 9.68048 17.8495 8.69048 17.4695C8.55048 17.4195 8.42048 17.3395 8.31048 17.2395L7.98048 16.9795C7.49048 16.5695 7.29048 15.9995 7.17048 15.3995C7.01048 14.5795 7.02048 13.7595 7.36048 12.9795C7.92048 11.6795 8.92048 10.9395 10.3205 10.7495C10.4805 10.7295 10.6405 10.6595 10.7905 10.7595C10.7905 10.7595 10.8005 10.7595 10.8105 10.7795C10.9105 11.0495 10.8505 11.3295 10.8505 11.6095C10.8505 11.7795 10.8205 11.9595 10.8205 12.1295C10.8205 12.3495 10.7805 12.3795 10.5605 12.3495C10.0705 12.2995 9.62048 12.3895 9.23048 12.7195C8.57048 13.2795 8.23048 14.5095 9.23048 15.2695C9.30048 15.3295 9.37048 15.3895 9.43048 15.4495Z"
                fill="#FEFEFE" />
            <path
                d="M16.8498 9.07031C17.0098 9.11031 17.1698 9.16031 17.3398 9.20031C17.4298 9.22031 17.4498 9.27031 17.4498 9.36031C17.4498 9.96031 17.4498 10.5603 17.4498 11.1603C17.4498 11.2803 17.4098 11.2903 17.2998 11.2903C16.3498 11.2503 15.4798 10.9503 14.6998 10.4203C14.6798 10.4103 14.6598 10.4003 14.6298 10.3903C14.5898 10.4703 14.6098 10.5403 14.6098 10.6103C14.6098 11.8203 14.6098 13.0303 14.6098 14.2403C14.6098 15.1303 14.4398 15.9703 13.9198 16.7203C13.4398 17.3903 12.8198 17.8703 12.0298 18.1303C12.0198 18.1303 11.9998 18.1303 11.9898 18.1303C11.9698 17.8703 11.9298 17.6103 12.0298 17.3603C12.1198 17.2303 12.2498 17.1703 12.3698 17.0903C13.4198 16.3403 13.9698 15.3103 13.9998 14.0303C14.0298 12.7603 13.9998 11.4903 13.9998 10.2203C13.9998 10.1103 13.9598 9.97031 14.0598 9.91031C14.1698 9.84031 14.2598 9.96031 14.3498 10.0203C15.0298 10.4603 15.7798 10.6703 16.5698 10.7303C16.7798 10.7503 16.8098 10.7203 16.8098 10.5103C16.8098 10.3203 16.8098 10.1303 16.8098 9.94031C16.8098 9.74031 16.8098 9.53031 16.8098 9.33031C16.8098 9.25031 16.7998 9.17031 16.8598 9.11031L16.8498 9.07031Z"
                fill="#D12146" />
            <path
                d="M14.0008 5.86914C14.0008 6.03914 14.0308 6.19914 14.0708 6.35914C14.0108 6.45914 13.9108 6.43914 13.8208 6.43914C13.5108 6.43914 13.2108 6.43914 12.9008 6.43914C12.6108 6.43914 12.6108 6.43914 12.6108 6.73914C12.6108 9.05914 12.6108 11.3691 12.6108 13.6891C12.6108 13.9191 12.6108 14.1591 12.6108 14.3891C12.6108 14.8291 12.4608 15.1991 12.2008 15.5491C12.1508 15.6191 12.1008 15.7091 11.9908 15.6791C11.9508 15.6391 11.9508 15.5791 11.9508 15.5291C11.9508 15.1491 11.9208 14.7691 11.9508 14.3991C11.9908 13.9591 11.9808 13.5291 11.9808 13.0891C11.9808 12.1091 12.0008 11.1191 11.9808 10.1391C11.9508 8.80914 11.9808 7.46914 11.9608 6.13914C11.9608 6.04914 11.9408 5.95914 12.0008 5.87914C12.6608 5.87914 13.3308 5.87914 13.9908 5.87914L14.0008 5.86914Z"
                fill="#1ECCCF" />
            <path
                d="M10.7905 10.7494C9.9105 10.7694 9.1205 11.0194 8.4405 11.5794C7.6705 12.2194 7.2405 13.0394 7.1505 14.0294C7.0705 14.9294 7.2005 15.7894 7.6905 16.5794C7.7805 16.7194 7.8805 16.8394 7.9805 16.9694C7.2405 16.4494 6.7905 15.7394 6.5805 14.8594C6.1305 12.9694 7.2405 10.9694 9.0705 10.3894C9.5805 10.2294 10.1105 10.1794 10.6505 10.2394C10.7805 10.2594 10.8205 10.2894 10.8105 10.4194C10.8005 10.5294 10.8105 10.6394 10.8005 10.7494H10.7905Z"
                fill="#24F5F9" />
            <path
                d="M9.42972 15.4506C8.52972 15.0206 8.26972 13.8606 8.88972 13.0006C9.31972 12.4106 9.89972 12.1906 10.6097 12.3006C10.7397 12.3206 10.7597 12.3006 10.7597 12.1706C10.7597 11.7006 10.7797 11.2306 10.7997 10.7606C11.1664 10.734 11.3464 10.8973 11.3397 11.2506C11.3397 11.7206 11.3297 12.1906 11.3397 12.6606C11.3397 12.8006 11.3197 12.8506 11.1597 12.8306C10.6897 12.7706 10.2397 12.8306 9.83972 13.1106C9.17972 13.5806 8.96972 14.5206 9.33972 15.2806C9.36972 15.3406 9.38972 15.4006 9.41972 15.4506H9.42972Z"
                fill="#FC2854" />
            <path
                d="M12.0108 17.3207C11.9908 17.5807 12.0508 17.8407 11.9708 18.0907C10.6808 18.4407 9.49078 18.2607 8.44078 17.3807C8.39078 17.3307 8.33078 17.2907 8.30078 17.2207C9.04078 17.6007 9.83078 17.7707 10.6708 17.7007C11.1408 17.6607 11.5808 17.5207 12.0108 17.3107V17.3207Z"
                fill="#FC2854" />
            <path
                d="M11.9692 15.7405C11.5692 16.0605 11.1292 16.2205 10.6192 16.1805C10.2092 16.1405 9.86924 15.9505 9.59924 15.6405C9.56924 15.6105 9.54924 15.5805 9.55924 15.5405C10.2092 15.7305 10.8292 15.6805 11.3592 15.2105C11.6592 14.9505 11.8492 14.6105 11.9592 14.2305C12.0592 14.2605 12.0092 14.3405 12.0092 14.3905C12.0092 14.8205 12.0092 15.2505 12.0092 15.6705C12.0092 15.7005 12.0092 15.7205 11.9792 15.7405H11.9692Z"
                fill="#24F5F9" />
            <path
                d="M11.9694 15.7094C11.9694 15.2894 11.9694 14.8594 11.9694 14.4394C11.9694 14.3694 11.9894 14.2994 11.9394 14.2294C11.9694 14.0794 11.9694 13.9194 11.9694 13.7594C11.9594 11.1894 11.9494 8.62937 11.9394 6.05937C11.9394 5.99937 11.8694 5.88937 12.0094 5.85938C12.0094 9.12937 12.0094 12.3994 12.0094 15.6594C12.0194 15.6994 12.0094 15.7094 11.9694 15.6994V15.7094Z"
                fill="#20DCDF" />
            <path
                d="M11.9707 15.7096C11.9707 15.7096 11.9907 15.6896 12.0107 15.6696C12.3607 15.3196 12.5607 14.8996 12.5607 14.3996C12.5607 11.8396 12.5607 9.27961 12.5607 6.71961C12.5607 6.37961 12.5607 6.37961 12.9107 6.36961C13.3007 6.36961 13.6907 6.34961 14.0807 6.34961C14.0807 6.34961 14.1007 6.35961 14.1107 6.36961C14.1807 6.39961 14.1907 6.46961 14.2207 6.51961C14.3807 6.84961 14.5507 7.16961 14.7607 7.47961C15.0207 7.80961 15.2807 8.12961 15.6507 8.34961C15.9607 8.56961 16.3007 8.75961 16.6407 8.91961C16.7107 8.94961 16.7807 8.97961 16.8207 9.05961C16.8707 9.27961 16.8207 9.49961 16.8407 9.71961C16.8407 9.78961 16.8307 9.85961 16.8507 9.92961C16.8507 10.1396 16.8507 10.3596 16.8707 10.5696C16.8707 10.7096 16.8307 10.7496 16.7007 10.7396C15.8107 10.7196 14.9907 10.4696 14.2507 9.96961C14.2007 9.92961 14.1407 9.89961 14.0607 9.84961V10.0796C14.0607 11.4196 14.1107 12.7596 14.0507 14.0996C13.9807 15.5196 13.3107 16.6196 12.0307 17.2996C12.0307 16.8396 12.0307 16.3796 12.0307 15.9196C12.0307 15.8596 12.0507 15.7896 11.9907 15.7396C11.9907 15.7296 11.9907 15.7196 11.9907 15.6996L11.9707 15.7096Z"
                fill="#D3D3D3" />
            <path
                d="M16.7709 9.03938C16.4209 8.88938 16.0709 8.70938 15.7609 8.48938C15.7109 8.44938 15.6409 8.42938 15.6309 8.35938C15.9709 8.51937 16.3209 8.64937 16.7009 8.68937C16.7809 8.68937 16.8209 8.72938 16.8109 8.80938C16.8109 8.88938 16.8109 8.96938 16.8109 9.03938C16.8009 9.04938 16.7809 9.05938 16.7709 9.03938Z"
                fill="#1FCACD" />
            <path
                d="M14.7496 7.48059C14.4596 7.15059 14.2596 6.78059 14.0996 6.37059C14.1896 6.35059 14.2696 6.33059 14.2996 6.45059C14.3996 6.79059 14.5496 7.10059 14.7296 7.41059C14.7396 7.43059 14.7296 7.46059 14.7396 7.48059H14.7496Z"
                fill="#CD2346" />
            <path
                d="M16.7695 9.03906C16.7695 9.03906 16.7995 9.03906 16.8095 9.03906C16.8195 9.04906 16.8295 9.06906 16.8395 9.07906C16.8395 9.36906 16.8395 9.64906 16.8395 9.93906C16.7695 9.72906 16.8195 9.51906 16.8095 9.30906C16.8095 9.21906 16.8295 9.12906 16.7695 9.04906V9.03906Z"
                fill="#BDD1D2" />
        </g>
    </g>
    <defs>
        <filter id="filter0_d_5313_22332" x="0" y="-0.00976562" width="24.0117" height="24.0508"
            filterUnits="userSpaceOnUse" color-interpolation-filters="sRGB">
            <feFlood flood-opacity="0" result="BackgroundImageFix" />
            <feColorMatrix in="SourceAlpha" type="matrix"
                values="0 0 0 0 0 0 0 0 0 0 0 0 0 0 0 0 0 0 127 0" result="hardAlpha" />
            <feOffset />
            <feGaussianBlur stdDeviation="1" />
            <feComposite in2="hardAlpha" operator="out" />
            <feColorMatrix type="matrix" values="0 0 0 0 0 0 0 0 0 0 0 0 0 0 0 0 0 0 0.25 0" />
            <feBlend mode="normal" in2="BackgroundImageFix"
                result="effect1_dropShadow_5313_22332" />
            <feBlend mode="normal" in="SourceGraphic" in2="effect1_dropShadow_5313_22332"
                result="shape" />
        </filter>
        <clipPath id="clip0_5313_22332">
            <rect width="24" height="24" fill="white" />
        </clipPath>
    </defs>
</svg>
