<svg width="24" height="24" viewBox="0 0 24 24" fill="none" xmlns="http://www.w3.org/2000/svg">
    <path
        d="M18.4605 8.76193C19.2319 8.76243 19.9819 8.51943 20.5956 8.07023C21.2091 7.62103 21.652 6.99063 21.8561 6.27583C22.0603 5.56113 22.0144 4.80183 21.7255 4.11463C21.4366 3.42742 20.9207 2.85052 20.2572 2.47252C19.5936 2.09462 18.8193 1.93668 18.0533 2.02302C17.2872 2.10932 16.5718 2.43512 16.0173 2.95022C15.4627 3.46532 15.0997 4.14133 14.9841 4.87413C14.8684 5.60683 15.0066 6.35583 15.3772 7.00573L9.29077 10.0552C8.84305 9.50213 8.22726 9.09653 7.52893 8.89463C6.8306 8.69263 6.08419 8.70443 5.39305 8.92823C4.7019 9.15193 4.10036 9.57673 3.67169 10.1436C3.24291 10.7105 3.00833 11.3914 3.00021 12.0921C2.9922 12.7928 3.21106 13.4786 3.62663 14.0545C4.04219 14.6303 4.63384 15.0678 5.31957 15.3062C6.00541 15.5446 6.7514 15.5722 7.4542 15.3852C8.15701 15.1981 8.78196 14.8057 9.24238 14.2623L15.2333 17.2552C14.8757 18.045 14.8443 18.936 15.1453 19.7473C15.4464 20.5586 16.0574 21.2294 16.8542 21.6237C17.6512 22.018 18.5745 22.1062 19.4366 21.8703C20.2987 21.6345 21.0353 21.0924 21.4966 20.3539C21.958 19.6154 22.1096 18.7359 21.9208 17.8939C21.732 17.0519 21.217 16.3105 20.48 15.82C19.7432 15.3296 18.8397 15.1269 17.9529 15.2531C17.0662 15.3793 16.2627 15.8249 15.7054 16.4995L9.72496 13.5119C9.92333 13.0885 10.0285 12.6303 10.034 12.166C10.0395 11.7017 9.94508 11.2414 9.75681 10.8138L15.9271 7.72243C16.2544 8.05113 16.6477 8.31263 17.0831 8.49133C17.5185 8.66993 17.9871 8.76203 18.4605 8.76193ZM18.4605 16.0962C18.9749 16.0962 19.4777 16.2428 19.9053 16.5173C20.3331 16.7919 20.6664 17.1822 20.8632 17.6388C21.06 18.0954 21.1115 18.5979 21.0112 19.0826C20.9109 19.5673 20.6632 20.0126 20.2995 20.3621C19.9357 20.7115 19.4724 20.9495 18.9679 21.046C18.4634 21.1424 17.9405 21.0929 17.4653 20.9038C16.9901 20.7146 16.5839 20.3943 16.2982 19.9834C16.0124 19.5725 15.8598 19.0893 15.8598 18.5951C15.8607 17.9326 16.1349 17.2974 16.6225 16.8289C17.11 16.3605 17.771 16.0969 18.4605 16.0962ZM6.51807 14.6283C6.00375 14.6283 5.50087 14.4817 5.07323 14.2071C4.6456 13.9325 4.31225 13.5423 4.11535 13.0857C3.91855 12.629 3.86703 12.1266 3.96736 11.6419C4.06768 11.1571 4.31538 10.7119 4.67911 10.3624C5.04284 10.0129 5.50628 9.77493 6.01072 9.67853C6.51516 9.58213 7.03812 9.63163 7.51332 9.82073C7.98851 10.0098 8.39471 10.3301 8.68049 10.7411C8.96617 11.152 9.11874 11.6351 9.11874 12.1294C9.11801 12.7919 8.84368 13.4271 8.3562 13.8955C7.86862 14.364 7.20755 14.6275 6.51807 14.6283ZM18.4605 2.88442C18.9749 2.88442 19.4777 3.03102 19.9053 3.30552C20.3331 3.58012 20.6664 3.97042 20.8632 4.42703C21.06 4.88363 21.1115 5.38613 21.0112 5.87083C20.9109 6.35553 20.6632 6.80083 20.2995 7.15033C19.9357 7.49973 19.4724 7.73773 18.9679 7.83423C18.4634 7.93063 17.9405 7.88113 17.4653 7.69203C16.9901 7.50283 16.5839 7.18253 16.2982 6.77163C16.0124 6.36073 15.8598 5.87753 15.8598 5.38333C15.8607 4.72083 16.1349 4.08563 16.6225 3.61713C17.11 3.14872 17.771 2.88512 18.4605 2.88442Z"
        fill="black" stroke="black" stroke-width="0.6" />
</svg>