<svg width="33" height="28" viewBox="0 0 33 28" fill="none" xmlns="http://www.w3.org/2000/svg">
<path d="M24.8462 10.5493L24.3692 10.941C23.6686 11.3421 22.8416 11.5652 21.9846 11.5652C19.6181 11.5652 17.6923 9.92432 17.6923 7.908C17.6923 6.34598 18.8541 4.97088 20.56 4.46131C20.6798 2.53561 22.5564 1 24.8462 1C27.1359 1 29.0126 2.53561 29.1323 4.46131C30.8382 4.97129 32 6.34598 32 7.908C32 9.92432 30.0747 11.5652 27.7077 11.5652C26.8511 11.5652 26.0242 11.3417 25.3231 10.941L24.8462 10.5493ZM24.8462 10.5493V26.9416M26.1815 27H20.7876M1 27H2.79887H6.39662M6.39662 27H20.7876M6.39662 27V16.8842C6.39662 16.5872 6.53694 16.3085 6.77349 16.1357L12.6927 11.8125L13.0695 11.5376C13.3817 11.3095 13.8026 11.3095 14.1147 11.5376L20.4108 16.1357C20.6473 16.3085 20.7876 16.5872 20.7876 16.8842V27M10.1662 19.5152H12.5574M15.3471 19.5152H17.7383M15.3471 23.4545H17.7383M10.1662 23.4545H12.5574M9.76768 19.5152H12.1589M14.9486 19.5152H17.3398M14.9486 23.4545H17.3398M9.76768 23.4545H12.1589M9.36915 19.5152H11.7603M14.55 19.5152H16.9412M14.55 23.4545H16.9412M9.36915 23.4545H11.7603" stroke="#595959" stroke-linecap="round"/>
</svg>
