<svg width="42" height="42" viewBox="0 0 42 42" fill="none" xmlns="http://www.w3.org/2000/svg">
<rect y="2" width="40" height="40" rx="5" fill="#F9F9F9"/>
<path d="M29.9645 14.4916C29.8176 14.1594 29.5773 13.877 29.2729 13.6788C28.9685 13.4805 28.6131 13.375 28.2498 13.375H11.7498C11.3866 13.375 11.0313 13.4806 10.7269 13.6787C10.4225 13.8769 10.1823 14.1592 10.0353 14.4913C9.88839 14.8235 9.84106 15.1911 9.8991 15.5497C9.95715 15.9082 10.1181 16.2421 10.3623 16.5109L10.3736 16.5241L16.6248 23.1953V30.25C16.6248 30.5895 16.7169 30.9226 16.8913 31.2138C17.0657 31.505 17.316 31.7434 17.6153 31.9035C17.9146 32.0637 18.2517 32.1395 18.5908 32.1231C18.9298 32.1066 19.2581 31.9984 19.5404 31.81L22.5404 29.8103C22.7973 29.6389 23.0078 29.4068 23.1534 29.1345C23.299 28.8622 23.375 28.5581 23.3748 28.2494V23.1953L29.6251 16.5241L29.6364 16.5109C29.8808 16.2423 30.0419 15.9084 30.1001 15.5499C30.1584 15.1915 30.1113 14.8238 29.9645 14.4916ZM21.4333 21.9813C21.2364 22.1889 21.1261 22.4638 21.1248 22.75V28.0487L18.8748 29.5487V22.75C18.8745 22.4644 18.7656 22.1895 18.5701 21.9813L12.6151 15.625H27.3845L21.4333 21.9813Z" fill="black"/>
<circle cx="38" cy="4" r="4" fill="#FF7378"/>
</svg>
