<svg width="96" height="96" viewBox="0 0 96 96" fill="none" xmlns="http://www.w3.org/2000/svg">
<path d="M72.2717 31.0135L76.1055 34.1686C77.6726 35.447 78.9388 37.0607 79.8126 38.8933C80.6864 40.7258 81.146 42.7314 81.1582 44.7651V67.2677C81.1582 70.9517 79.7082 74.4848 77.1273 77.0898C74.5464 79.6947 71.0459 81.1582 67.3959 81.1582H61.9107H34.3861H28.9205C25.2705 81.1582 21.77 79.6947 19.1891 77.0898C16.6082 74.4848 15.1582 70.9517 15.1582 67.2677V44.8444C15.1564 42.7989 15.6073 40.7789 16.4781 38.9318C17.3489 37.0848 18.6175 35.4574 20.1913 34.1686L39.4388 18.2937C41.8968 16.2659 44.9738 15.1582 48.1484 15.1582C51.323 15.1582 54.3999 16.2659 56.8579 18.2937L66.7864 26.4098M72.2717 31.0135V20.5956C72.3039 20.2124 72.2569 19.8266 72.1336 19.4626C72.0104 19.0987 71.8137 18.7646 71.5559 18.4814C71.298 18.1982 70.9848 17.9721 70.6359 17.8174C70.287 17.6628 69.9101 17.5829 69.5291 17.5829C69.148 17.5829 68.7711 17.6628 68.4222 17.8174C68.0734 17.9721 67.7601 18.1982 67.5023 18.4814C67.2445 18.7646 67.0477 19.0987 66.9245 19.4626C66.8013 19.8266 66.7543 20.2124 66.7864 20.5956V26.4098M72.2717 31.0135L66.7864 26.4098" stroke="white" stroke-width="1.5"/>
<path d="M43 56C46.5899 56 49.5 53.0899 49.5 49.5C49.5 45.9101 46.5899 43 43 43C39.4101 43 36.5 45.9101 36.5 49.5C36.5 53.0899 39.4101 56 43 56Z" stroke="white" stroke-width="1.5" stroke-miterlimit="10"/>
<path d="M51.4248 43.2375C51.9994 43.0817 52.592 43.0018 53.1873 43C54.9112 43 56.5645 43.6848 57.7835 44.9038C59.0025 46.1228 59.6873 47.7761 59.6873 49.5C59.6873 51.2239 59.0025 52.8772 57.7835 54.0962C56.5645 55.3152 54.9112 56 53.1873 56" stroke="white" stroke-width="1.5" stroke-linecap="round" stroke-linejoin="round"/>
<path d="M34 60.6754C35.0149 59.2312 36.3625 58.0524 37.929 57.2386C39.4955 56.4248 41.2348 56 43 56C44.7652 56 46.5045 56.4248 48.071 57.2386C49.6375 58.0524 50.9851 59.2312 52 60.6754" stroke="white" stroke-width="1.5" stroke-linecap="round" stroke-linejoin="round"/>
<path d="M53.1875 56C54.9529 55.9989 56.6925 56.4232 58.2592 57.237C59.8258 58.0508 61.1733 59.2301 62.1875 60.675" stroke="white" stroke-width="1.5" stroke-linecap="round" stroke-linejoin="round"/>
</svg>
