<svg width="24" height="24" viewBox="0 0 24 24" fill="none" xmlns="http://www.w3.org/2000/svg">
<path d="M12.0002 0C5.38397 0 0.000244141 5.38223 0.000244141 11.9993C0.000244141 18.6163 5.38397 23.9985 12.0002 23.9985C18.6165 23.9985 24.0002 18.6163 24.0002 11.9993C24.0002 5.38223 18.6165 0 12.0002 0Z" fill="#00BFA5"/>
<path d="M7.50024 11C8.32867 11 9.00024 10.3284 9.00024 9.5C9.00024 8.67157 8.32867 8 7.50024 8C6.67182 8 6.00024 8.67157 6.00024 9.5C6.00024 10.3284 6.67182 11 7.50024 11Z" fill="white"/>
<path d="M15.0002 9.5H18.0002" stroke="white" stroke-width="1.5" stroke-linecap="round" stroke-linejoin="round"/>
<path d="M17.2 15C16.6714 15.9107 15.9128 16.6667 15.0003 17.1922C14.0877 17.7176 13.0531 17.9942 12 17.9942C10.947 17.9942 9.91241 17.7176 8.99983 17.1922C8.08725 16.6667 7.32869 15.9107 6.80005 15" stroke="white" stroke-width="1.5" stroke-linecap="round" stroke-linejoin="round"/>
</svg>
