<svg width="24" height="24" viewBox="0 0 24 24" fill="none" xmlns="http://www.w3.org/2000/svg">
    <g filter="url(#filter0_d_4381_20778)">
        <path
            d="M22 11.2196V12.786C21.9516 12.964 21.925 13.1472 21.9208 13.3316C21.6256 15.481 20.6424 17.4769 19.1185 19.0205C17.5947 20.564 15.6121 21.5723 13.4675 21.8944C13.2389 21.9081 13.0121 21.9434 12.7902 22H11.1893C10.9744 21.9385 10.7529 21.903 10.5295 21.8944C8.06618 21.5434 5.82941 20.2656 4.27533 18.3215C3.30581 17.1652 2.61833 15.7993 2.26721 14.3315C1.91608 12.8637 1.91094 11.3344 2.25217 9.86431C2.7297 7.68531 3.92134 5.72845 5.6378 4.30459C7.35426 2.88073 9.49708 2.07155 11.7259 2.00559C13.6217 1.94143 15.4953 2.43067 17.118 3.41365C18.3964 4.16438 19.4896 5.19335 20.3164 6.42427C21.1433 7.65519 21.6826 9.0565 21.8944 10.5243C21.9074 10.7589 21.9428 10.9917 22 11.2196ZM10.1865 16.403C10.1865 16.447 10.1337 16.5526 10.1865 16.5966C10.2393 16.6406 10.3624 16.5966 10.4416 16.5438C10.5128 16.496 10.5804 16.443 10.6439 16.3854C10.9958 16.0422 11.3564 15.7077 11.7083 15.3557C11.8226 15.2325 11.893 15.2149 12.0425 15.3557C12.7638 15.9102 13.5027 16.447 14.2328 16.9838C14.7782 17.3886 15.1124 17.2478 15.2796 16.5966C15.6549 14.8365 16.0273 13.0764 16.3967 11.3164C16.5726 10.5155 16.7398 9.7235 16.9069 8.93147C16.9554 8.80542 16.967 8.66819 16.9406 8.53576C16.9141 8.40333 16.8506 8.28115 16.7574 8.18344C16.5287 7.98103 16.2824 8.09544 16.0449 8.18344L8.91101 10.894L6.47442 11.8356C6.2897 11.9148 6.07859 12.0116 6.09618 12.2492C6.11377 12.4868 6.33368 12.5308 6.5184 12.5924C7.2661 12.83 8.00499 13.05 8.75268 13.2964C8.81612 13.3168 8.88345 13.3218 8.94919 13.3111C9.01493 13.3003 9.0772 13.2742 9.13092 13.2348L14.5495 9.82031C14.6497 9.73574 14.7716 9.68088 14.9013 9.6619C14.9541 9.6619 15.0157 9.6619 15.0421 9.7147C15.0685 9.76751 15.0421 9.80271 14.9893 9.82911L14.6462 10.1195C13.2681 11.375 11.8754 12.6394 10.468 13.9125C10.4294 13.9422 10.3972 13.9793 10.373 14.0216C10.3489 14.0639 10.3333 14.1106 10.3272 14.1589C10.2481 14.8805 10.2481 15.6109 10.1865 16.403Z"
            fill="#039BE4" />
        <path
            d="M10.1863 16.4033C10.2303 15.6464 10.283 14.916 10.327 14.1944C10.3331 14.1461 10.3487 14.0994 10.3728 14.0571C10.397 14.0148 10.4292 13.9777 10.4678 13.948C11.8752 12.6514 13.268 11.3753 14.646 10.1198L14.9627 9.82942C14.9627 9.82942 15.0331 9.75902 15.0155 9.71502C14.9979 9.67102 14.9275 9.65341 14.8748 9.66222C14.745 9.68119 14.6231 9.73605 14.5229 9.82062L9.13073 13.2352C9.077 13.2745 9.01473 13.3007 8.94899 13.3114C8.88325 13.3221 8.81592 13.3171 8.75248 13.2968C8.00479 13.0503 7.2659 12.8303 6.51821 12.5927C6.33348 12.5311 6.10478 12.4783 6.09598 12.2495C6.08718 12.0207 6.2895 11.9151 6.47422 11.8359L8.91082 10.8943L16.0535 8.13976C16.291 8.04295 16.5373 7.92855 16.766 8.13976C16.8592 8.23746 16.9227 8.35964 16.9492 8.49207C16.9756 8.6245 16.964 8.76174 16.9155 8.88779C16.7484 9.67982 16.5812 10.4718 16.4053 11.2727C16.0359 13.0327 15.6635 14.7928 15.2882 16.5529C15.1474 17.2041 14.7868 17.3449 14.2414 16.9401C13.5113 16.4033 12.7724 15.8665 12.0511 15.312C11.9016 15.2064 11.8312 15.224 11.7169 15.312C11.365 15.664 11.0044 15.9985 10.6525 16.3417C10.589 16.3993 10.5214 16.4523 10.4502 16.5001C10.371 16.5441 10.2743 16.5969 10.1951 16.5529C10.1159 16.5089 10.1863 16.4033 10.1863 16.4033Z"
            fill="#FDFEFE" />
    </g>
    <defs>
        <filter id="filter0_d_4381_20778" x="0" y="0" width="24" height="24"
            filterUnits="userSpaceOnUse" color-interpolation-filters="sRGB">
            <feFlood flood-opacity="0" result="BackgroundImageFix" />
            <feColorMatrix in="SourceAlpha" type="matrix"
                values="0 0 0 0 0 0 0 0 0 0 0 0 0 0 0 0 0 0 127 0" result="hardAlpha" />
            <feOffset />
            <feGaussianBlur stdDeviation="1" />
            <feComposite in2="hardAlpha" operator="out" />
            <feColorMatrix type="matrix" values="0 0 0 0 0 0 0 0 0 0 0 0 0 0 0 0 0 0 0.25 0" />
            <feBlend mode="normal" in2="BackgroundImageFix"
                result="effect1_dropShadow_4381_20778" />
            <feBlend mode="normal" in="SourceGraphic" in2="effect1_dropShadow_4381_20778"
                result="shape" />
        </filter>
    </defs>
</svg>
