<svg width="24" height="24" viewBox="0 0 24 24" fill="none" xmlns="http://www.w3.org/2000/svg">
    <rect width="24" height="24" rx="3" fill="white"/>
    <path d="M8.61538 4.4V8.4H4.30769C4.22609 8.4 4.14782 8.35786 4.09012 8.28284C4.03242 8.20783 4 8.10609 4 8V5.6C4 5.17565 4.12967 4.76869 4.36048 4.46863C4.5913 4.16857 4.90435 4 5.23077 4H8.30769C8.3893 4 8.46756 4.04214 8.52526 4.11716C8.58297 4.19217 8.61538 4.29391 8.61538 4.4ZM9.84615 19.6C9.84615 19.7061 9.87857 19.8078 9.93627 19.8828C9.99398 19.9579 10.0722 20 10.1538 20H13.8462C13.9278 20 14.006 19.9579 14.0637 19.8828C14.1214 19.8078 14.1538 19.7061 14.1538 19.6V15.6H9.84615V19.6ZM4 16V18.4C4 18.8243 4.12967 19.2313 4.36048 19.5314C4.5913 19.8314 4.90435 20 5.23077 20H8.30769C8.3893 20 8.46756 19.9579 8.52526 19.8828C8.58297 19.8078 8.61538 19.7061 8.61538 19.6V15.6H4.30769C4.22609 15.6 4.14782 15.6421 4.09012 15.7172C4.03242 15.7922 4 15.8939 4 16ZM4 10.4V13.6C4 13.7061 4.03242 13.8078 4.09012 13.8828C4.14782 13.9579 4.22609 14 4.30769 14H8.61538V10H4.30769C4.22609 10 4.14782 10.0421 4.09012 10.1172C4.03242 10.1922 4 10.2939 4 10.4ZM13.8462 4H10.1538C10.0722 4 9.99398 4.04214 9.93627 4.11716C9.87857 4.19217 9.84615 4.29391 9.84615 4.4V8.4H14.1538V4.4C14.1538 4.29391 14.1214 4.19217 14.0637 4.11716C14.006 4.04214 13.9278 4 13.8462 4ZM19.6923 10H15.3846V14H19.6923C19.7739 14 19.8522 13.9579 19.9099 13.8828C19.9676 13.8078 20 13.7061 20 13.6V10.4C20 10.2939 19.9676 10.1922 19.9099 10.1172C19.8522 10.0421 19.7739 10 19.6923 10ZM9.84615 14H14.1538V10H9.84615V14ZM18.7692 4H15.6923C15.6107 4 15.5324 4.04214 15.4747 4.11716C15.417 4.19217 15.3846 4.29391 15.3846 4.4V8.4H19.6923C19.7739 8.4 19.8522 8.35786 19.9099 8.28284C19.9676 8.20783 20 8.10609 20 8V5.6C20 5.17565 19.8703 4.76869 19.6395 4.46863C19.4087 4.16857 19.0957 4 18.7692 4ZM19.6923 15.6H15.3846V19.6C15.3846 19.7061 15.417 19.8078 15.4747 19.8828C15.5324 19.9579 15.6107 20 15.6923 20H18.7692C19.0957 20 19.4087 19.8314 19.6395 19.5314C19.8703 19.2313 20 18.8243 20 18.4V16C20 15.8939 19.9676 15.7922 19.9099 15.7172C19.8522 15.6421 19.7739 15.6 19.6923 15.6Z" fill="#00549A"/>
</svg>
