<svg width="25" height="24" viewBox="0 0 25 24" fill="none" xmlns="http://www.w3.org/2000/svg">
    <path
        d="M8.86596 14.1706C8.53137 14.5532 8.08873 14.8243 7.59702 14.9476C7.10531 15.071 6.58789 15.0408 6.11368 14.8611C5.63948 14.6813 5.23102 14.3606 4.94273 13.9416C4.65443 13.5227 4.5 13.0253 4.5 12.5159C4.5 12.0065 4.65443 11.5091 4.94273 11.0902C5.23102 10.6712 5.63948 10.3505 6.11368 10.1708C6.58789 9.99103 7.10531 9.96083 7.59702 10.0842C8.08873 10.2075 8.53137 10.4786 8.86596 10.8612L10.3881 10.0996L14.3416 8.11949C14.3957 8.10192 14.441 8.06402 14.4679 8.0137C14.4949 7.96338 14.5014 7.90454 14.4862 7.84947C14.4001 7.26457 14.5242 6.66797 14.8363 6.16678C15.1484 5.6656 15.628 5.29266 16.189 5.11494C16.75 4.93722 17.3557 4.96635 17.8972 5.1971C18.4388 5.42786 18.8808 5.84512 19.1438 6.37397C19.4069 6.90282 19.4738 7.50861 19.3325 8.08257C19.1912 8.65653 18.851 9.16106 18.3729 9.50557C17.8949 9.85008 17.3103 10.012 16.7242 9.96226C16.1381 9.91251 15.5888 9.65437 15.175 9.23417L15.0648 9.12339L10.0713 11.6643C9.87155 11.7612 9.60982 11.8166 9.49962 11.9759C9.38942 12.1351 9.49962 12.3774 9.49962 12.5851V12.7028C9.49962 13.049 9.49962 13.049 9.7889 13.2083L15.0924 15.8738L15.2232 15.7423C15.6369 15.3166 16.1878 15.0528 16.7773 14.998C17.3669 14.9433 17.9565 15.1012 18.4408 15.4435C18.9251 15.7858 19.2724 16.2901 19.4206 16.8663C19.5688 17.4425 19.5082 18.0528 19.2497 18.5882C18.9911 19.1236 18.5515 19.549 18.0095 19.7883C17.4675 20.0277 16.8584 20.0654 16.2913 19.8946C15.7241 19.7239 15.236 19.3558 14.9141 18.8563C14.5922 18.3569 14.4576 17.7586 14.5345 17.1685C14.5345 17.0646 14.5345 16.9885 14.438 16.9331L8.96239 14.1637L8.86596 14.1706Z"
        fill="white" />
</svg>