<svg width="24" height="24" viewBox="0 0 24 24" fill="none" xmlns="http://www.w3.org/2000/svg">
    <path
        d="M12.0004 2.40039C11.1517 2.40039 10.3378 2.73753 9.73765 3.33765C9.13753 3.93777 8.80039 4.7517 8.80039 5.60039C8.80039 6.44908 9.13753 7.26302 9.73765 7.86313C10.3378 8.46325 11.1517 8.80039 12.0004 8.80039C12.8491 8.80039 13.663 8.46325 14.2631 7.86313C14.8632 7.26302 15.2004 6.44908 15.2004 5.60039C15.2004 4.7517 14.8632 3.93777 14.2631 3.33765C13.663 2.73753 12.8491 2.40039 12.0004 2.40039ZM4.00039 9.60039C3.78822 9.60041 3.58475 9.6847 3.43473 9.83473C3.2847 9.98475 3.20041 10.1882 3.20039 10.4004V12.8004C2.72039 12.8004 2.40039 13.1204 2.40039 13.6004V15.2004C2.40039 15.6804 2.72039 16.0004 3.20039 16.0004V19.2004C3.20041 19.4126 3.2847 19.616 3.43473 19.7661C3.58475 19.9161 3.78822 20.0004 4.00039 20.0004C6.25143 20.0004 8.18744 20.2973 9.49883 20.7129C10.1545 20.9207 10.6534 21.1629 10.9332 21.366C11.213 21.5691 11.2004 21.6737 11.2004 21.6004C11.1989 21.7064 11.2185 21.8117 11.258 21.91C11.2975 22.0084 11.3562 22.0979 11.4307 22.1734C11.5051 22.2489 11.5938 22.3089 11.6916 22.3498C11.7894 22.3907 11.8944 22.4118 12.0004 22.4118C12.1064 22.4118 12.2114 22.3907 12.3092 22.3498C12.407 22.3089 12.4957 22.2489 12.5701 22.1734C12.6446 22.0979 12.7032 22.0084 12.7428 21.91C12.7823 21.8117 12.8019 21.7064 12.8004 21.6004C12.8004 21.6737 12.7877 21.5691 13.0676 21.366C13.3474 21.1629 13.8463 20.9207 14.502 20.7129C15.8133 20.2973 17.7494 20.0004 20.0004 20.0004C20.2126 20.0004 20.416 19.9161 20.5661 19.7661C20.7161 19.616 20.8004 19.4126 20.8004 19.2004V16.0004C21.2804 16.0004 21.6004 15.6804 21.6004 15.2004V13.6004C21.6004 13.1204 21.2804 12.8004 20.8004 12.8004V10.4004C20.8004 10.1882 20.7161 9.98475 20.5661 9.83473C20.416 9.6847 20.2126 9.60041 20.0004 9.60039C17.1242 9.60039 15.0416 10.0126 13.6645 10.4363C12.8561 10.685 12.3462 10.9166 12.0004 11.0941C11.6545 10.9166 11.1446 10.685 10.3363 10.4363C8.95918 10.0126 6.87658 9.60039 4.00039 9.60039ZM4.80039 11.2551C7.05048 11.3292 8.78154 11.6313 9.86445 11.9645C10.8297 12.2614 11.0345 12.4191 11.2004 12.5176V16.0004V19.6754C10.8399 19.4945 10.4374 19.3323 9.98164 19.1879C8.63754 18.7619 6.82935 18.5147 4.80039 18.452V15.7754C5.27545 15.4971 5.60039 14.9878 5.60039 14.4004C5.60039 13.813 5.27545 13.3037 4.80039 13.0254V11.2551ZM19.2004 11.2551V13.0238C18.7245 13.3019 18.4004 13.8124 18.4004 14.4004C18.4004 14.9884 18.7245 15.4989 19.2004 15.777V18.452C17.1714 18.5147 15.3632 18.7619 14.0191 19.1879C13.5634 19.3323 13.1609 19.4945 12.8004 19.6754V16.0004V12.5176C12.9663 12.4191 13.1711 12.2614 14.1363 11.9645C15.2192 11.6313 16.9503 11.3291 19.2004 11.2551Z"
        fill="#0074C9" />
</svg>
