<svg width="17" height="16" viewBox="0 0 17 16" fill="none" xmlns="http://www.w3.org/2000/svg">
<g clip-path="url(#clip0_64_17254)">
<path d="M11 4C11 2.61929 9.88071 1.5 8.5 1.5C7.11929 1.5 6 2.61929 6 4V8C6 9.38071 7.11929 10.5 8.5 10.5C9.88071 10.5 11 9.38071 11 8V4Z" stroke="#00549A" stroke-linecap="round" stroke-linejoin="round"/>
<path d="M8.5 12.5V14.5" stroke="#00549A" stroke-linecap="round" stroke-linejoin="round"/>
<path d="M13 8C13 9.19347 12.5259 10.3381 11.682 11.182C10.8381 12.0259 9.69347 12.5 8.5 12.5C7.30653 12.5 6.16193 12.0259 5.31802 11.182C4.47411 10.3381 4 9.19347 4 8" stroke="#00549A" stroke-linecap="round" stroke-linejoin="round"/>
</g>
<defs>
<clipPath id="clip0_64_17254">
<rect width="16" height="16" fill="white" transform="translate(0.5)"/>
</clipPath>
</defs>
</svg>
