<svg width="24" height="24" viewBox="0 0 24 24" fill="none" xmlns="http://www.w3.org/2000/svg">
    <g filter="url(#filter0_d_4381_20802)">
        <path
            d="M12 22C6.478 22 2 17.522 2 12C2 6.478 6.478 2 12 2C17.522 2 22 6.478 22 12C22 17.522 17.522 22 12 22Z"
            fill="#0078B5" />
        <path
            d="M5.68075 9.74602H8.33875V18.3H5.68075V9.74602ZM7.01075 5.49402C7.86075 5.49402 8.55075 6.18402 8.55075 7.03602C8.55075 7.88802 7.86075 8.57802 7.01075 8.57802C6.15875 8.57802 5.46875 7.88802 5.46875 7.03602C5.46675 6.18602 6.15675 5.49402 7.01075 5.49402Z"
            fill="white" />
        <path
            d="M10.0059 9.74598H12.5559V10.914H12.5919C12.9459 10.242 13.8119 9.53198 15.1079 9.53198C17.7999 9.53198 18.2979 11.304 18.2979 13.606V18.3H15.6399V14.142C15.6399 13.148 15.6219 11.874 14.2579 11.874C12.8739 11.874 12.6619 12.954 12.6619 14.07V18.302H10.0059V9.74598Z"
            fill="white" />
    </g>
    <defs>
        <filter id="filter0_d_4381_20802" x="0" y="0" width="24" height="24"
            filterUnits="userSpaceOnUse" color-interpolation-filters="sRGB">
            <feFlood flood-opacity="0" result="BackgroundImageFix" />
            <feColorMatrix in="SourceAlpha" type="matrix"
                values="0 0 0 0 0 0 0 0 0 0 0 0 0 0 0 0 0 0 127 0" result="hardAlpha" />
            <feOffset />
            <feGaussianBlur stdDeviation="1" />
            <feComposite in2="hardAlpha" operator="out" />
            <feColorMatrix type="matrix" values="0 0 0 0 0 0 0 0 0 0 0 0 0 0 0 0 0 0 0.25 0" />
            <feBlend mode="normal" in2="BackgroundImageFix"
                result="effect1_dropShadow_4381_20802" />
            <feBlend mode="normal" in="SourceGraphic" in2="effect1_dropShadow_4381_20802"
                result="shape" />
        </filter>
    </defs>
</svg>
