<svg width="40" height="40" viewBox="0 0 40 40" fill="none" xmlns="http://www.w3.org/2000/svg">
    <g clip-path="url(#clip0_1556_18735)">
        <path d="M10 11.875C10 9.72012 10.856 7.65349 12.3798 6.12976C13.9035 4.60602 15.9701 3.75 18.125 3.75C20.2799 3.75 22.3465 4.60602 23.8702 6.12976C25.394 7.65349 26.25 9.72012 26.25 11.875" stroke="#EF5350" stroke-width="2" stroke-linecap="round" stroke-linejoin="round"/>
        <path d="M11.2514 35L6.67011 27.1875C6.26225 26.4701 6.15468 25.6206 6.3709 24.8242C6.58711 24.0278 7.10954 23.3493 7.82419 22.9366C8.53884 22.524 9.38768 22.4108 10.1855 22.6218C10.9833 22.8327 11.6653 23.3506 12.0826 24.0625L15.0014 28.75V11.875C15.0014 11.0462 15.3306 10.2513 15.9167 9.66529C16.5027 9.07924 17.2976 8.75 18.1264 8.75C18.9552 8.75 19.75 9.07924 20.3361 9.66529C20.9221 10.2513 21.2514 11.0462 21.2514 11.875V20.625C21.2514 19.7962 21.5806 19.0013 22.1667 18.4153C22.7527 17.8292 23.5476 17.5 24.3764 17.5C25.2052 17.5 26 17.8292 26.5861 18.4153C27.1721 19.0013 27.5014 19.7962 27.5014 20.625V23.125C27.5014 22.2962 27.8306 21.5013 28.4167 20.9153C29.0027 20.3292 29.7976 20 30.6264 20C31.4552 20 32.25 20.3292 32.8361 20.9153C33.4221 21.5013 33.7514 22.2962 33.7514 23.125V28.75C33.7514 32.5 32.5014 35 32.5014 35" stroke="#EF5350" stroke-width="2" stroke-linecap="round" stroke-linejoin="round"/>
    </g>
    <defs>
        <clipPath id="clip0_1556_18735">
            <rect width="40" height="40" fill="white"/>
        </clipPath>
    </defs>
</svg>