<svg width="24" height="24" viewBox="0 0 24 24" fill="none" xmlns="http://www.w3.org/2000/svg">
<path d="M6.00011 11.1228C6.48755 7.8421 9.56798 5.57391 12.8804 6.05668C14.0106 6.22139 15.0708 6.69899 15.9388 7.43447L15.1574 8.20841C14.8955 8.46787 14.8955 8.88852 15.1575 9.14792C15.2833 9.27242 15.4538 9.3424 15.6316 9.34243H18.7077C19.0782 9.34243 19.3785 9.045 19.3785 8.6781V5.63146C19.3784 5.26456 19.078 4.9672 18.7076 4.96726C18.5298 4.96729 18.3592 5.03726 18.2335 5.16176L17.3615 6.02539C14.0362 3.0896 8.93751 3.37952 5.97332 6.67296C4.92319 7.8397 4.24172 9.28594 4.01333 10.8325C3.92328 11.3808 4.29904 11.8976 4.85261 11.9868C4.90247 11.9948 4.95284 11.9991 5.00337 11.9998C5.50984 11.9943 5.93496 11.6203 6.00011 11.1228Z" fill="white"/>
<path d="M18.9961 11.9995C18.4897 12.0049 18.0645 12.379 17.9994 12.8764C17.512 16.1572 14.4315 18.4254 11.1191 17.9426C9.98892 17.7779 8.92876 17.3003 8.06071 16.5648L8.84214 15.7909C9.10405 15.5314 9.10398 15.1108 8.84198 14.8514C8.71624 14.7269 8.5457 14.6569 8.3679 14.6569H5.29184C4.9214 14.6569 4.62109 14.9543 4.62109 15.3212V18.3678C4.62119 18.7347 4.92155 19.0321 5.292 19.032C5.4698 19.032 5.64035 18.962 5.76608 18.8375L6.63806 17.9739C9.96257 20.91 15.0608 20.621 18.0254 17.3283C19.0761 16.1613 19.7578 14.7146 19.9862 13.1674C20.0766 12.6192 19.7012 12.1022 19.1477 12.0126C19.0976 12.0045 19.0469 12.0001 18.9961 11.9995Z" fill="white"/>
</svg>
