<svg width="24" height="24" viewBox="0 0 24 24" fill="none" xmlns="http://www.w3.org/2000/svg">
<path d="M8.75 3C6.1265 3 4 5.01458 4 7.5V16.6702C4 17.3035 4.33412 17.8952 4.89062 18.2467L5.5 18.6316V7.5C5.5 5.79947 6.955 4.42105 8.75 4.42105H17.5L17.0938 3.84375C16.7233 3.31654 16.0987 3 15.4297 3H8.75ZM9.25 5.36842C7.74011 5.36842 6.5 6.54326 6.5 7.97368V18.3947C6.5 19.8252 7.74011 21 9.25 21H17.25C18.7599 21 20 19.8252 20 18.3947V7.97368C20 6.54326 18.7599 5.36842 17.25 5.36842H9.25ZM9.25 6.78947H17.25C17.9491 6.78947 18.5 7.31137 18.5 7.97368V18.3947C18.5 19.0571 17.9491 19.5789 17.25 19.5789H9.25C8.55089 19.5789 8 19.0571 8 18.3947V7.97368C8 7.31137 8.55089 6.78947 9.25 6.78947ZM10.75 9.63158C10.6506 9.63025 10.5519 9.64764 10.4597 9.68275C10.3675 9.71786 10.2836 9.76999 10.2128 9.8361C10.142 9.90221 10.0858 9.98099 10.0474 10.0679C10.0091 10.1547 9.98932 10.2479 9.98932 10.3421C9.98932 10.4363 10.0091 10.5295 10.0474 10.6164C10.0858 10.7032 10.142 10.782 10.2128 10.8481C10.2836 10.9142 10.3675 10.9663 10.4597 11.0015C10.5519 11.0366 10.6506 11.054 10.75 11.0526H15.75C15.8494 11.054 15.9481 11.0366 16.0403 11.0015C16.1325 10.9663 16.2164 10.9142 16.2872 10.8481C16.358 10.782 16.4142 10.7032 16.4526 10.6164C16.4909 10.5295 16.5107 10.4363 16.5107 10.3421C16.5107 10.2479 16.4909 10.1547 16.4526 10.0679C16.4142 9.98099 16.358 9.90221 16.2872 9.8361C16.2164 9.76999 16.1325 9.71786 16.0403 9.68275C15.9481 9.64764 15.8494 9.63025 15.75 9.63158H10.75ZM10.75 12.4737C10.6506 12.4724 10.5519 12.4897 10.4597 12.5249C10.3675 12.56 10.2836 12.6121 10.2128 12.6782C10.142 12.7443 10.0858 12.8231 10.0474 12.91C10.0091 12.9968 9.98932 13.09 9.98932 13.1842C9.98932 13.2784 10.0091 13.3716 10.0474 13.4585C10.0858 13.5453 10.142 13.6241 10.2128 13.6902C10.2836 13.7563 10.3675 13.8085 10.4597 13.8436C10.5519 13.8787 10.6506 13.8961 10.75 13.8947H15.75C15.8494 13.8961 15.9481 13.8787 16.0403 13.8436C16.1325 13.8085 16.2164 13.7563 16.2872 13.6902C16.358 13.6241 16.4142 13.5453 16.4526 13.4585C16.4909 13.3716 16.5107 13.2784 16.5107 13.1842C16.5107 13.09 16.4909 12.9968 16.4526 12.91C16.4142 12.8231 16.358 12.7443 16.2872 12.6782C16.2164 12.6121 16.1325 12.56 16.0403 12.5249C15.9481 12.4897 15.8494 12.4724 15.75 12.4737H10.75ZM10.75 15.3158C10.6506 15.3145 10.5519 15.3319 10.4597 15.367C10.3675 15.4021 10.2836 15.4542 10.2128 15.5203C10.142 15.5864 10.0858 15.6652 10.0474 15.7521C10.0091 15.8389 9.98932 15.9322 9.98932 16.0263C9.98932 16.1205 10.0091 16.2137 10.0474 16.3006C10.0858 16.3874 10.142 16.4662 10.2128 16.5323C10.2836 16.5984 10.3675 16.6506 10.4597 16.6857C10.5519 16.7208 10.6506 16.7382 10.75 16.7368H15.75C15.8494 16.7382 15.9481 16.7208 16.0403 16.6857C16.1325 16.6506 16.2164 16.5984 16.2872 16.5323C16.358 16.4662 16.4142 16.3874 16.4526 16.3006C16.4909 16.2137 16.5107 16.1205 16.5107 16.0263C16.5107 15.9322 16.4909 15.8389 16.4526 15.7521C16.4142 15.6652 16.358 15.5864 16.2872 15.5203C16.2164 15.4542 16.1325 15.4021 16.0403 15.367C15.9481 15.3319 15.8494 15.3145 15.75 15.3158H10.75Z" fill="black"/>
</svg>
