<svg width="36" height="36" viewBox="0 0 36 36" fill="none" xmlns="http://www.w3.org/2000/svg">
<g clip-path="url(#clip0_5071_22259)">
<path d="M27 16.875C28.3101 16.874 29.6023 17.1786 30.774 17.7644C31.9458 18.3503 32.9648 19.2014 33.75 20.25" stroke="#00BFA5" stroke-width="1.5" stroke-linecap="round" stroke-linejoin="round"/>
<path d="M2.25 20.25C3.03524 19.2014 4.05422 18.3503 5.22597 17.7644C6.39771 17.1786 7.68995 16.874 9 16.875" stroke="#00BFA5" stroke-width="1.5" stroke-linecap="round" stroke-linejoin="round"/>
<path d="M18 25.875C21.1066 25.875 23.625 23.3566 23.625 20.25C23.625 17.1434 21.1066 14.625 18 14.625C14.8934 14.625 12.375 17.1434 12.375 20.25C12.375 23.3566 14.8934 25.875 18 25.875Z" stroke="#00BFA5" stroke-width="1.5" stroke-linecap="round" stroke-linejoin="round"/>
<path d="M10.125 30.375C10.9326 29.0045 12.0839 27.8686 13.465 27.0793C14.8461 26.2901 16.4093 25.875 18 25.875C19.5907 25.875 21.1539 26.2901 22.535 27.0793C23.9161 27.8686 25.0674 29.0045 25.875 30.375" stroke="#00BFA5" stroke-width="1.5" stroke-linecap="round" stroke-linejoin="round"/>
<path d="M22.6406 11.25C22.851 10.4352 23.2857 9.69566 23.8953 9.11546C24.5048 8.53526 25.2649 8.13761 26.0891 7.96769C26.9133 7.79776 27.7687 7.86237 28.558 8.15416C29.3474 8.44596 30.0391 8.95325 30.5546 9.61843C31.0701 10.2836 31.3888 11.08 31.4744 11.9172C31.56 12.7544 31.4091 13.5988 31.0389 14.3546C30.6687 15.1103 30.094 15.7471 29.3801 16.1926C28.6661 16.6382 27.8416 16.8746 27 16.875" stroke="#00BFA5" stroke-width="1.5" stroke-linecap="round" stroke-linejoin="round"/>
<path d="M9.00017 16.875C8.15862 16.8746 7.33405 16.6382 6.6201 16.1926C5.90615 15.7471 5.33144 15.1103 4.96124 14.3546C4.59104 13.5988 4.44018 12.7544 4.52579 11.9172C4.61141 11.08 4.93006 10.2836 5.44558 9.61843C5.96109 8.95325 6.6528 8.44596 7.44215 8.15416C8.23149 7.86237 9.08685 7.79776 9.91107 7.96769C10.7353 8.13761 11.4953 8.53526 12.1049 9.11546C12.7145 9.69566 13.1492 10.4352 13.3595 11.25" stroke="#00BFA5" stroke-width="1.5" stroke-linecap="round" stroke-linejoin="round"/>
</g>
<defs>
<clipPath id="clip0_5071_22259">
<rect width="36" height="36" fill="white"/>
</clipPath>
</defs>
</svg>
