<svg width="24" height="24" viewBox="0 0 24 24" fill="none" xmlns="http://www.w3.org/2000/svg">
<path d="M6.49603 2.00001C6.45571 2.00088 6.4155 2.00469 6.37573 2.01139H4.84425C4.73395 2.00983 4.62444 2.03021 4.52208 2.07134C4.41972 2.11247 4.32656 2.17354 4.248 2.25099C4.16945 2.32844 4.10707 2.42073 4.0645 2.52249C4.02192 2.62426 4 2.73347 4 2.84379C4 2.9541 4.02192 3.06331 4.0645 3.16508C4.10707 3.26684 4.16945 3.35913 4.248 3.43658C4.32656 3.51403 4.41972 3.5751 4.52208 3.61623C4.62444 3.65736 4.73395 3.67774 4.84425 3.67618H5.67664V5.34097C5.67664 9.17985 8.26721 11.2122 9.39316 12.0001C8.26721 12.7881 5.67664 14.8204 5.67664 18.6593V20.3241H4.84425C4.73395 20.3225 4.62444 20.3429 4.52208 20.384C4.41972 20.4251 4.32656 20.4862 4.248 20.5637C4.16945 20.6411 4.10707 20.7334 4.0645 20.8352C4.02192 20.9369 4 21.0462 4 21.1565C4 21.2668 4.02192 21.376 4.0645 21.4778C4.10707 21.5795 4.16945 21.6718 4.248 21.7493C4.32656 21.8267 4.41972 21.8878 4.52208 21.9289C4.62444 21.97 4.73395 21.9904 4.84425 21.9889H6.36922C6.45911 22.0037 6.55083 22.0037 6.64073 21.9889H18.0227C18.1126 22.0037 18.2044 22.0037 18.2942 21.9889H19.8273C19.9377 21.9904 20.0472 21.97 20.1495 21.9289C20.2519 21.8878 20.345 21.8267 20.4236 21.7493C20.5021 21.6718 20.5645 21.5795 20.6071 21.4778C20.6497 21.376 20.6716 21.2668 20.6716 21.1565C20.6716 21.0462 20.6497 20.9369 20.6071 20.8352C20.5645 20.7334 20.5021 20.6411 20.4236 20.5637C20.345 20.4862 20.2519 20.4251 20.1495 20.384C20.0472 20.3429 19.9377 20.3225 19.8273 20.3241H18.995V18.6593C18.995 14.8204 16.4044 12.7881 15.2784 12.0001C16.4044 11.2122 18.995 9.17985 18.995 5.34097V3.67618H19.8273C19.9377 3.67774 20.0472 3.65736 20.1495 3.61623C20.2519 3.5751 20.345 3.51403 20.4236 3.43658C20.5021 3.35913 20.5645 3.26684 20.6071 3.16508C20.6497 3.06331 20.6716 2.9541 20.6716 2.84379C20.6716 2.73347 20.6497 2.62426 20.6071 2.52249C20.5645 2.42073 20.5021 2.32844 20.4236 2.25099C20.345 2.17354 20.2519 2.11247 20.1495 2.07134C20.0472 2.03021 19.9377 2.00983 19.8273 2.01139H18.291C18.2443 2.00358 18.1969 1.99977 18.1496 2.00001C18.1092 2.00088 18.069 2.00469 18.0292 2.01139H6.63747C6.59074 2.00358 6.54342 1.99977 6.49603 2.00001ZM7.41622 6.17336H17.2554C16.7494 9.30196 13.573 11.2864 13.573 11.2864C13.4498 11.3604 13.3478 11.465 13.277 11.5901C13.2063 11.7151 13.1691 11.8564 13.1691 12.0001C13.1691 12.1438 13.2063 12.2851 13.277 12.4102C13.3478 12.5352 13.4498 12.6399 13.573 12.7138C13.573 12.7138 16.7494 14.6983 17.2554 17.8269H15.5467C15.1754 16.3933 13.8854 15.3297 12.3358 15.3297C10.7862 15.3297 9.49623 16.3933 9.1249 17.8269H7.41622C7.9222 14.6983 11.0986 12.7138 11.0986 12.7138C11.2218 12.6399 11.3238 12.5352 11.3945 12.4102C11.4653 12.2851 11.5025 12.1438 11.5025 12.0001C11.5025 11.8564 11.4653 11.7151 11.3945 11.5901C11.3238 11.465 11.2218 11.3604 11.0986 11.2864C11.0986 11.2864 7.9222 9.30196 7.41622 6.17336Z" fill="#00A424"/>
</svg>
