<svg width="24" height="24" viewBox="0 0 24 24" fill="none" xmlns="http://www.w3.org/2000/svg">
    <path
        d="M22 12C22 6.48608 17.5139 2 12 2C6.48608 2 2 6.48608 2 12C2 17.5139 6.48608 22 12 22C17.5139 22 22 17.5139 22 12ZM11.7054 17.7113L7.9554 13.9613C7.87565 13.8815 7.83333 13.7749 7.83333 13.6667C7.83333 13.613 7.84351 13.5588 7.86507 13.5072C7.92936 13.3513 8.08154 13.25 8.25 13.25H9.08333C9.19401 13.25 9.2998 13.2939 9.37793 13.3721L11.1667 15.1608L11.1667 6.58333C11.1667 6.35303 11.353 6.16667 11.5833 6.16667H12.4167C12.647 6.16667 12.8333 6.35303 12.8333 6.58333L12.8333 15.1608L14.6221 13.3721C14.7002 13.2939 14.806 13.25 14.9167 13.25H15.75C15.9185 13.25 16.0706 13.3513 16.1349 13.5072C16.2 13.6634 16.1638 13.842 16.0446 13.9613L12.2946 17.7113C12.1318 17.874 11.8682 17.874 11.7054 17.7113Z"
        fill="#FF6082" />
</svg>
