<svg width="24" height="24" viewBox="0 0 24 24" fill="none" xmlns="http://www.w3.org/2000/svg">
    <path
        d="M12.4547 2C12.6797 2.0495 12.9071 2.08974 13.1287 2.1505C14.8504 2.62334 16.0384 4.11992 16.048 5.84708C16.0514 6.50946 16.1001 7.17384 15.9764 7.8338C15.6285 9.69014 13.7807 11.0881 11.8357 10.9598C9.83995 10.8278 8.27075 9.43622 8.07413 7.51227C7.97915 6.58149 7.90125 5.6169 8.22909 4.70423C8.77604 3.18431 9.88744 2.28652 11.5425 2.03501C11.5695 2.03099 11.5954 2.02978 11.6058 2C11.889 2 12.1719 2 12.4551 2H12.4547Z"
        fill="#0074C9" />
    <path
        d="M12.0479 20.6435C12.1312 20.3268 12.2087 20.0403 12.282 19.7529C12.9197 17.2572 13.5571 14.7614 14.1944 12.2656C14.2561 12.0246 14.3885 11.9529 14.6243 12.0491C15.8486 12.5489 17.0741 13.0463 18.2943 13.5558C18.7983 13.7662 19.0045 14.1397 18.9999 14.6861C18.9799 16.9771 18.9916 19.2684 18.9916 21.5598C18.9916 21.9489 18.9395 21.9996 18.54 21.9996C14.1669 21.9996 9.79425 21.9996 5.42115 21.9996C5.07123 21.9996 5 21.93 5 21.5867C5 19.237 5 16.8873 5 14.5376C5 13.957 5.25952 13.5867 5.8273 13.3759C7.01784 12.9336 8.21005 12.4962 9.40226 12.0584C9.67803 11.957 9.79383 12.0193 9.86715 12.301C10.5832 15.0588 11.2989 17.8165 12.015 20.5743C12.0179 20.5855 12.025 20.596 12.0479 20.6431V20.6435Z"
        fill="#0074C9" />
    <path
        d="M12.0728 11.7152C12.2477 11.7152 12.4227 11.7144 12.598 11.7152C12.8992 11.7168 13.1096 11.8637 13.2387 12.1148C13.362 12.3546 13.3366 12.5929 13.1821 12.8162C13.1113 12.9188 13.0404 13.0218 12.9642 13.1204C12.763 13.38 12.7089 13.6701 12.7513 13.9868C12.8163 14.4701 12.8734 14.9542 12.9342 15.4379C12.9434 15.51 12.9346 15.5768 12.9076 15.6468C12.7563 16.0351 12.608 16.4243 12.4643 16.815C12.3939 17.0061 12.2731 17.1228 12.0528 17.1245C11.8312 17.1261 11.7078 17.0432 11.6204 16.815C11.4733 16.4323 11.335 16.046 11.1842 15.6649C11.1247 15.5148 11.1596 15.3687 11.173 15.2222C11.2146 14.7627 11.2671 14.3039 11.3134 13.8448C11.34 13.5816 11.258 13.3442 11.1155 13.1245C11.0443 13.0142 10.9618 12.9108 10.8926 12.7997C10.6081 12.3418 10.896 11.7764 11.4467 11.7245C11.6533 11.7051 11.8636 11.7212 12.0719 11.7212C12.0719 11.7192 12.0719 11.7172 12.0719 11.7152H12.0728Z"
        fill="#0074C9" />
</svg>
