<svg width="24" height="24" viewBox="0 0 24 24" fill="none" xmlns="http://www.w3.org/2000/svg">
<path d="M15.25 3H7.75C6.7558 3.00119 5.80267 3.39666 5.09966 4.09966C4.39666 4.80267 4.00119 5.7558 4 6.75V18C4 18.7956 4.31607 19.5587 4.87868 20.1213C5.44129 20.6839 6.20435 21 7 21H15.25C16.2442 20.9988 17.1973 20.6033 17.9003 19.9003C18.6033 19.1973 18.9988 18.2442 19 17.25V6.75C18.9988 5.7558 18.6033 4.80267 17.9003 4.09966C17.1973 3.39666 16.2442 3.00119 15.25 3ZM17.5 6.75V15H7V4.629L15.25 4.5C15.8467 4.5 16.419 4.73705 16.841 5.15901C17.2629 5.58097 17.5 6.15326 17.5 6.75ZM7 4.629V15C6.47322 14.9995 5.9557 15.1385 5.5 15.4028V6.75C5.50007 6.28477 5.64435 5.83099 5.91298 5.45115C6.1816 5.07131 6.56137 4.78408 7 4.629ZM15.25 19.5H7C6.60218 19.5 6.22064 19.342 5.93934 19.0607C5.65804 18.7794 5.5 18.3978 5.5 18C5.5 17.6022 5.65804 17.2206 5.93934 16.9393C6.22064 16.658 6.60218 16.5 7 16.5H17.5V17.25C17.5 17.8467 17.2629 18.419 16.841 18.841C16.419 19.2629 15.8467 19.5 15.25 19.5Z" fill="white"/>
<path d="M11.5 6C10.8078 6 10.1311 6.20527 9.55551 6.58986C8.97993 6.97444 8.53133 7.52107 8.26642 8.16061C8.00152 8.80015 7.9322 9.50388 8.06725 10.1828C8.2023 10.8617 8.53564 11.4854 9.02513 11.9749C9.51461 12.4644 10.1383 12.7977 10.8172 12.9327C11.4961 13.0678 12.1999 12.9985 12.8394 12.7336C13.4789 12.4687 14.0256 12.0201 14.4101 11.4445C14.7947 10.8689 15 10.1922 15 9.5C14.999 8.57205 14.6299 7.68239 13.9738 7.02623C13.3176 6.37007 12.428 6.001 11.5 6ZM12.4398 8.04167H10.5603C10.8078 7.55291 11.1243 7.10225 11.5 6.7035C11.8759 7.10214 12.1923 7.55282 12.4398 8.04167ZM12.6731 8.625C12.7627 8.90811 12.8095 9.20304 12.8119 9.5C12.8095 9.79696 12.7627 10.0919 12.6731 10.375H10.3263C10.2367 10.0919 10.1899 9.79696 10.1875 9.5C10.1899 9.20304 10.2367 8.90811 10.3263 8.625H12.6731ZM10.7417 6.68717C10.4056 7.09835 10.1282 7.5542 9.91742 8.04167H8.97796C9.36467 7.37563 9.9984 6.88893 10.7417 6.68717ZM8.58333 9.5C8.58331 9.20319 8.62865 8.90811 8.71779 8.625H9.72083C9.64522 8.91058 9.60602 9.20458 9.60417 9.5C9.60602 9.79542 9.64522 10.0894 9.72083 10.375H8.71779C8.62865 10.0919 8.58331 9.79681 8.58333 9.5ZM8.97796 10.9583H9.91742C10.1282 11.4458 10.4056 11.9016 10.7417 12.3128C9.9984 12.1111 9.36467 11.6244 8.97796 10.9583ZM10.5603 10.9583H12.4398C12.1922 11.4471 11.8757 11.8977 11.5 12.2965C11.1242 11.8979 10.8077 11.4472 10.5603 10.9583ZM12.2598 12.3128C12.5954 11.9016 12.8723 11.4457 13.0826 10.9583H14.022C13.6357 11.6241 13.0025 12.1107 12.2598 12.3128ZM14.4167 9.5C14.4167 9.79681 14.3714 10.0919 14.2822 10.375H13.2792C13.3548 10.0894 13.394 9.79542 13.3958 9.5C13.394 9.20458 13.3548 8.91058 13.2792 8.625H14.2816C14.371 8.90808 14.4165 9.20316 14.4167 9.5ZM13.0826 8.04167C12.8723 7.55429 12.5954 7.09844 12.2598 6.68717C13.0025 6.88927 13.6357 7.37593 14.022 8.04167H13.0826Z" fill="white"/>
</svg>
