<svg width="24" height="24" viewBox="0 0 24 24" fill="none" xmlns="http://www.w3.org/2000/svg">
<path d="M15.25 13.5C15.25 13.6989 15.171 13.8897 15.0303 14.0303C14.8897 14.171 14.6989 14.25 14.5 14.25H8.5C8.30108 14.25 8.11032 14.171 7.96967 14.0303C7.82901 13.8897 7.75 13.6989 7.75 13.5C7.75 13.3011 7.82901 13.1103 7.96967 12.9697C8.11032 12.829 8.30108 12.75 8.5 12.75H14.5C14.6989 12.75 14.8897 12.829 15.0303 12.9697C15.171 13.1103 15.25 13.3011 15.25 13.5ZM12.25 15.75H8.5C8.30108 15.75 8.11032 15.829 7.96967 15.9697C7.82901 16.1103 7.75 16.3011 7.75 16.5C7.75 16.6989 7.82901 16.8897 7.96967 17.0303C8.11032 17.171 8.30108 17.25 8.5 17.25H12.25C12.4489 17.25 12.6397 17.171 12.7803 17.0303C12.921 16.8897 13 16.6989 13 16.5C13 16.3011 12.921 16.1103 12.7803 15.9697C12.6397 15.829 12.4489 15.75 12.25 15.75ZM19 10.8638V17.25C18.9988 18.2442 18.6033 19.1973 17.9003 19.9003C17.1973 20.6033 16.2442 20.9988 15.25 21H7.75C6.7558 20.9988 5.80267 20.6033 5.09966 19.9003C4.39666 19.1973 4.00119 18.2442 4 17.25V6.75001C4.00119 5.75582 4.39666 4.80268 5.09966 4.09968C5.80267 3.39668 6.7558 3.00121 7.75 3.00002H11.1362C11.826 2.99824 12.5092 3.13321 13.1464 3.39711C13.7836 3.66101 14.3622 4.04862 14.8487 4.53752L17.4617 7.15201C17.9509 7.63819 18.3388 8.21661 18.6028 8.85374C18.8669 9.49088 19.0019 10.1741 19 10.8638ZM13.7882 5.59801C13.5522 5.36939 13.2872 5.17271 13 5.01302V8.25001C13 8.44892 13.079 8.63969 13.2197 8.78034C13.3603 8.92099 13.5511 9.00001 13.75 9.00001H16.987C16.8272 8.7129 16.6303 8.44812 16.4012 8.21251L13.7882 5.59801ZM17.5 10.8638C17.5 10.74 17.476 10.6215 17.4647 10.5H13.75C13.1533 10.5 12.581 10.263 12.159 9.841C11.737 9.41904 11.5 8.84675 11.5 8.25001V4.53527C11.3785 4.52402 11.2592 4.50002 11.1362 4.50002H7.75C7.15326 4.50002 6.58096 4.73707 6.15901 5.15903C5.73705 5.58098 5.5 6.15328 5.5 6.75001V17.25C5.5 17.8467 5.73705 18.419 6.15901 18.841C6.58096 19.2629 7.15326 19.5 7.75 19.5H15.25C15.8467 19.5 16.419 19.2629 16.841 18.841C17.2629 18.419 17.5 17.8467 17.5 17.25V10.8638Z" fill="white"/>
</svg>
