<svg width="32" height="32" viewBox="0 0 32 32" fill="none" xmlns="http://www.w3.org/2000/svg">
<path d="M16.0002 28.8031C23.0694 28.8031 28.8002 23.0724 28.8002 16.0031C28.8002 8.93388 23.0694 3.20312 16.0002 3.20312C8.93095 3.20312 3.2002 8.93388 3.2002 16.0031C3.2002 23.0724 8.93095 28.8031 16.0002 28.8031Z" fill="url(#paint0_linear_959_25112)"/>
<path fill-rule="evenodd" clip-rule="evenodd" d="M22.1568 9.99704C20.6245 8.46294 18.5841 7.61719 16.4129 7.61719C11.9376 7.61719 8.29483 11.2581 8.29293 15.7333C8.29293 17.1631 8.6665 18.5607 9.37761 19.7914L8.22656 23.9974L12.5312 22.8691C13.7163 23.5157 15.0532 23.8571 16.411 23.8571H16.4148C20.89 23.8571 24.5328 20.2162 24.5347 15.739C24.5347 13.5697 23.6909 11.5311 22.1587 9.99704H22.1568ZM16.4129 22.486H16.411C15.1992 22.486 14.0122 22.1599 12.9768 21.5455L12.7303 21.3995L10.176 22.0689L10.8586 19.579L10.6974 19.323C10.0224 18.2497 9.66585 17.0076 9.66585 15.7333C9.66585 12.0128 12.6942 8.98631 16.4186 8.98631C18.2219 8.98631 19.9153 9.68984 21.1896 10.9642C22.464 12.2404 23.1656 13.9337 23.1637 15.7371C23.1637 19.4577 20.1353 22.4841 16.4148 22.4841L16.4129 22.486ZM20.1144 17.4324C19.9115 17.33 18.9141 16.8408 18.7282 16.7725C18.5424 16.7042 18.4078 16.6701 18.2712 16.8749C18.1366 17.0778 17.7479 17.5348 17.6284 17.6695C17.5108 17.8041 17.3914 17.8212 17.1885 17.7207C16.9856 17.6183 16.3313 17.4059 15.5576 16.7137C14.9546 16.1752 14.5469 15.5115 14.4293 15.3086C14.3118 15.1057 14.4161 14.9957 14.5185 14.8952C14.6095 14.8041 14.7214 14.6581 14.8219 14.5406C14.9224 14.423 14.9565 14.3377 15.0248 14.203C15.0931 14.0684 15.0589 13.9489 15.0077 13.8484C14.9565 13.746 14.5507 12.7486 14.3819 12.3428C14.217 11.9464 14.0501 12.0014 13.9249 11.9938C13.8074 11.9882 13.6708 11.9863 13.5362 11.9863C13.4016 11.9863 13.1816 12.0375 12.9957 12.2404C12.8099 12.4433 12.2865 12.9344 12.2865 13.9319C12.2865 14.9293 13.0128 15.8945 13.1152 16.0292C13.2157 16.1638 14.545 18.2137 16.5816 19.0917C17.0652 19.3003 17.4445 19.4254 17.7384 19.5183C18.2238 19.6719 18.6676 19.6511 19.0165 19.598C19.4071 19.5392 20.2168 19.1068 20.3856 18.6328C20.5544 18.1587 20.5544 17.7529 20.5032 17.6676C20.452 17.5822 20.3173 17.5329 20.1144 17.4305V17.4324Z" fill="white"/>
<defs>
<linearGradient id="paint0_linear_959_25112" x1="16.0002" y1="26.9429" x2="16.0002" y2="1.34286" gradientUnits="userSpaceOnUse">
<stop stop-color="#78CD51"/>
<stop offset="1" stop-color="#A0FC84"/>
</linearGradient>
</defs>
</svg>
