<svg width="24" height="24" viewBox="0 0 24 24" fill="none" xmlns="http://www.w3.org/2000/svg">
<path d="M23.9248 18.144C24.0496 18.8622 24.0158 19.599 23.8259 20.3028C23.636 21.0066 23.2944 21.6604 22.8252 22.2183C22.356 22.7762 21.7705 23.2247 21.1097 23.5325C20.4489 23.8403 19.7288 23.9999 18.9998 24H15.9998C15.7346 24 15.4802 23.8947 15.2927 23.7071C15.1052 23.5196 14.9998 23.2652 14.9998 23V20.41C14.0455 20.7926 13.0279 20.9928 11.9998 21C10.9711 20.9895 9.95345 20.786 8.99979 20.4V23C8.99979 23.2652 8.89444 23.5196 8.7069 23.7071C8.51937 23.8947 8.26501 24 7.9998 24H4.9998C4.27082 23.9999 3.55071 23.8403 2.8899 23.5325C2.22909 23.2247 1.64357 22.7762 1.17437 22.2183C0.70517 21.6604 0.363634 21.0066 0.173691 20.3028C-0.016251 19.599 -0.0500046 18.8622 0.0747953 18.144L0.374795 16.404C0.474553 15.8253 0.745389 15.2898 1.15238 14.8664C1.55937 14.4431 2.08384 14.1514 2.65818 14.0289C3.23251 13.9064 3.83036 13.9588 4.37464 14.1793C4.91891 14.3998 5.38465 14.7783 5.7118 15.266C6.9758 17.124 9.40879 19 11.9998 19C15.1298 19 18.2138 16.221 19.1298 13.624C19.2033 13.4288 19.3344 13.2605 19.5056 13.1414C19.6768 13.0223 19.8802 12.958 20.0888 12.957L20.5208 12.964C20.7144 12.9664 20.9066 12.9303 21.0861 12.8577C21.2657 12.7852 21.429 12.6777 21.5666 12.5415C21.7042 12.4053 21.8134 12.243 21.8878 12.0642C21.9621 11.8855 22.0002 11.6937 21.9998 11.5C21.9994 11.1493 21.8762 10.8098 21.6515 10.5405C21.4268 10.2712 21.1148 10.0892 20.7698 10.026C20.557 9.98743 20.3625 9.88091 20.2154 9.72244C20.0683 9.56396 19.9765 9.36207 19.9538 9.14703C19.8211 7.88262 19.3876 6.66837 18.6894 5.60588C17.9912 4.5434 17.0487 3.66357 15.9408 3.04003C15.658 3.92523 15.2801 4.7772 14.8138 5.58103C13.5158 7.42119 11.8224 8.9475 9.85779 10.048C10.1573 10.1216 10.4268 10.2856 10.6297 10.5178C10.8326 10.75 10.959 11.0391 10.9917 11.3458C11.0244 11.6524 10.9618 11.9616 10.8124 12.2314C10.663 12.5012 10.4341 12.7184 10.1569 12.8534C9.87961 12.9884 9.56749 13.0347 9.263 12.9859C8.95851 12.9371 8.67644 12.7957 8.4552 12.5809C8.23397 12.3661 8.08432 12.0883 8.02663 11.7854C7.96893 11.4825 8.00601 11.1691 8.1328 10.888C5.83361 11.819 3.3476 12.1958 0.875795 11.988C0.669767 11.9604 0.477465 11.8693 0.325632 11.7273C0.1738 11.5853 0.0699856 11.3996 0.0286267 11.1959C-0.0127322 10.9921 0.0104205 10.7806 0.0948648 10.5907C0.179309 10.4007 0.320847 10.2418 0.499795 10.136C1.10433 9.45013 1.55418 8.64218 1.8188 7.76703C3.1238 4.67403 5.09979 2.80073e-05 11.9998 2.80073e-05C14.3542 -0.00554947 16.6346 0.822076 18.4373 2.33639C20.2401 3.85071 21.4489 5.95403 21.8498 8.27403C22.4862 8.54007 23.0297 8.98821 23.4123 9.56216C23.7948 10.1361 23.9992 10.8103 23.9998 11.5C23.9981 12.331 23.6946 13.1331 23.1458 13.757C23.1528 13.783 23.1708 13.804 23.1758 13.832L23.9248 18.144ZM15.9998 11.5C15.9998 11.2034 15.9118 10.9133 15.747 10.6667C15.5822 10.42 15.3479 10.2277 15.0738 10.1142C14.7997 10.0007 14.4981 9.97097 14.2072 10.0288C13.9162 10.0867 13.6489 10.2296 13.4391 10.4394C13.2294 10.6491 13.0865 10.9164 13.0286 11.2074C12.9707 11.4984 13.0004 11.8 13.114 12.0741C13.2275 12.3481 13.4198 12.5824 13.6664 12.7472C13.9131 12.9121 14.2031 13 14.4998 13C14.8976 13 15.2792 12.842 15.5605 12.5607C15.8418 12.2794 15.9998 11.8979 15.9998 11.5Z" fill="#9575CD"/>
</svg>
