<svg width="80" height="80" viewBox="0 0 80 80" fill="none" xmlns="http://www.w3.org/2000/svg">
<path d="M77.3304 72.4985H43.6904C43.4251 72.4985 43.1708 72.3932 42.9833 72.2056C42.7957 72.0181 42.6904 71.7637 42.6904 71.4985L41.0004 24.8585C40.9949 24.6567 41.0507 24.458 41.1604 24.2885L48.7904 12.4285C48.876 12.2946 48.9923 12.183 49.1297 12.103C49.2671 12.023 49.4216 11.9769 49.5804 11.9685L53.9704 11.6885C54.1649 11.6859 54.3545 11.6265 54.5158 11.5177C54.6771 11.4089 54.8032 11.2554 54.8786 11.076C54.954 10.8966 54.9753 10.6991 54.9401 10.5077C54.9049 10.3163 54.8146 10.1394 54.6804 9.99853L54.1204 9.35853C54.0208 9.24257 53.9492 9.10534 53.9109 8.95737C53.8727 8.8094 53.8689 8.65463 53.8998 8.50496C53.9307 8.35528 53.9955 8.21468 54.0892 8.09395C54.1829 7.97323 54.303 7.87559 54.4404 7.80853L54.9404 7.55853C55.0731 7.50187 55.216 7.47266 55.3604 7.47266C55.5047 7.47266 55.6476 7.50187 55.7804 7.55853L66.7804 12.0085C66.9322 12.0709 67.097 12.0949 67.2604 12.0785L73.1504 11.5785C73.4118 11.5498 73.6741 11.6252 73.8804 11.7885L74.8804 12.5585C75.0717 12.7089 75.2016 12.9239 75.2458 13.1632C75.29 13.4025 75.2454 13.6497 75.1204 13.8585L69.3104 23.4185C69.1654 23.6259 69.1044 23.8804 69.1397 24.1309C69.1749 24.3814 69.3038 24.6093 69.5004 24.7685L79.5004 31.7685C79.6385 31.8642 79.7504 31.9931 79.8255 32.1435C79.9007 32.2938 79.9367 32.4606 79.9304 32.6285L78.3504 71.5385C78.3399 71.8003 78.2273 72.0474 78.0365 72.227C77.8458 72.4065 77.5922 72.504 77.3304 72.4985Z" fill="#00549A"/>
</svg>
