<svg width="80" height="80" viewBox="0 0 80 80" fill="none" xmlns="http://www.w3.org/2000/svg">
<g clip-path="url(#clip0_6307_16208)">
<path d="M80 69.2017V61.7017C80.0008 61.5342 79.9596 61.3691 79.88 61.2217L73.18 48.7917C73.1425 48.7246 73.099 48.661 73.05 48.6017L62.17 36.0017C62.053 35.8682 61.9736 35.706 61.94 35.5317L59.46 22.1017C59.4368 21.9973 59.3998 21.8964 59.35 21.8017L52.18 8.53172C52.0883 8.34713 51.9418 8.19538 51.7606 8.09723C51.5794 7.99908 51.3722 7.95933 51.1676 7.98341C50.9629 8.00749 50.7706 8.09423 50.6171 8.23176C50.4636 8.36929 50.3563 8.55089 50.31 8.75172L47.12 20.5017C47.0908 20.5769 47.0575 20.6503 47.02 20.7217L42.43 29.0017C42.3641 29.1237 42.2736 29.2307 42.1641 29.3159C42.0547 29.401 41.9287 29.4625 41.7942 29.4963C41.6597 29.5302 41.5197 29.5357 41.3829 29.5125C41.2462 29.4894 41.1158 29.438 41 29.3617L36.78 26.6717C36.6302 26.5704 36.4557 26.5117 36.2752 26.5017C36.0946 26.4917 35.9147 26.5309 35.7547 26.615C35.5946 26.6992 35.4604 26.8251 35.3662 26.9795C35.2721 27.1339 35.2215 27.3109 35.22 27.4917L34 56.4317C34 56.6969 34.1054 56.9513 34.2929 57.1388C34.4804 57.3264 34.7348 57.4317 35 57.4317L42.05 57.6017C42.1865 57.6015 42.3217 57.6292 42.4471 57.6831C42.5725 57.7371 42.6855 57.8162 42.7792 57.9155C42.8729 58.0148 42.9452 58.1322 42.9918 58.2606C43.0384 58.3889 43.0582 58.5254 43.05 58.6617L42.62 67.6017C42.6192 67.8536 42.7135 68.0966 42.8841 68.282C43.0546 68.4674 43.2889 68.5816 43.54 68.6017L65.83 70.6917C65.9781 70.7067 66.1276 70.6885 66.2678 70.6383C66.4079 70.5881 66.5351 70.5073 66.64 70.4017L67.04 69.9917C67.1346 69.8978 67.2471 69.8238 67.3707 69.774C67.4944 69.7242 67.6267 69.6996 67.76 69.7017H69.13C69.3129 69.7 69.4927 69.7484 69.65 69.8417L72.82 71.7517C72.9429 71.8273 73.0808 71.8754 73.224 71.8926C73.3673 71.9099 73.5126 71.8959 73.65 71.8517L79.31 70.0717C79.4981 70.0111 79.664 69.8961 79.7868 69.7413C79.9097 69.5864 79.9838 69.3987 80 69.2017Z" fill="#00549A"/>
</g>
<defs>
<clipPath id="clip0_6307_16208">
<rect width="80" height="80" fill="white"/>
</clipPath>
</defs>
</svg>
