<svg width="80" height="80" viewBox="0 0 80 80" fill="none" xmlns="http://www.w3.org/2000/svg">
<path d="M15.0016 52.3892L17.1116 17.4492C17.1179 17.302 17.1567 17.158 17.2252 17.0276C17.2936 16.8971 17.39 16.7834 17.5076 16.6945C17.6251 16.6057 17.7608 16.5439 17.905 16.5136C18.0491 16.4833 18.1982 16.4852 18.3416 16.5192L24.9616 17.9992C25.1603 18.0408 25.3417 18.142 25.4816 18.2892L43.6616 37.6492C43.7604 37.7548 43.881 37.8378 44.015 37.8922C44.149 37.9467 44.2932 37.9715 44.4377 37.9649C44.5822 37.9582 44.7236 37.9203 44.852 37.8537C44.9804 37.7871 45.0929 37.6935 45.1816 37.5792L47.0916 35.1592C47.2088 35.0131 47.3646 34.9028 47.5414 34.8409C47.7182 34.779 47.9089 34.768 48.0916 34.8092L66.8116 39.1592C67.0074 39.2029 67.1855 39.3045 67.3228 39.4507C67.4601 39.5969 67.5503 39.7811 67.5816 39.9792L68.4116 45.1292C68.4333 45.2696 68.4847 45.4037 68.5622 45.5227C68.6398 45.6417 68.7419 45.7428 68.8616 45.8192L79.5016 52.4992C79.6165 52.5711 79.7157 52.6656 79.7929 52.7769C79.8702 52.8883 79.9241 53.0142 79.9512 53.147C79.9783 53.2798 79.9782 53.4168 79.9507 53.5495C79.9233 53.6823 79.8691 53.808 79.7916 53.9192L78.5016 55.8592C78.4118 55.9922 78.2913 56.1015 78.1503 56.1781C78.0093 56.2547 77.852 56.2962 77.6916 56.2992L65.6916 56.4892C65.5384 56.4917 65.3879 56.5293 65.2516 56.5992L51.6816 63.3892C51.4701 63.4968 51.2273 63.5257 50.9965 63.4708C50.7656 63.4158 50.5619 63.2806 50.4216 63.0892L43.8416 54.2692C43.7635 54.1634 43.6654 54.074 43.5527 54.0062C43.4401 53.9383 43.3152 53.8933 43.1851 53.8738C43.0551 53.8543 42.9225 53.8607 42.7949 53.8925C42.6673 53.9243 42.5473 53.9809 42.4416 54.0592L32.8316 61.1792C32.6886 61.2827 32.5207 61.3464 32.3451 61.364C32.1694 61.3815 31.9923 61.3523 31.8316 61.2792L15.5716 53.3492C15.3919 53.264 15.2417 53.1272 15.1401 52.9562C15.0386 52.7852 14.9904 52.5878 15.0016 52.3892Z" fill="#00549A"/>
</svg>
