<svg width="80" height="80" viewBox="0 0 80 80" fill="none" xmlns="http://www.w3.org/2000/svg">
<path d="M17.6404 14.9993L16.0004 42.5893C15.9942 42.8191 16.0674 43.044 16.2077 43.2261C16.3479 43.4083 16.5466 43.5365 16.7704 43.5893L20.5204 44.4693C20.7119 44.5146 20.8859 44.6155 21.0204 44.7593L31.8704 56.4893C31.9691 56.5932 32.0891 56.6746 32.2221 56.7281C32.3552 56.7815 32.4981 56.8058 32.6413 56.7991C32.7846 56.7925 32.9247 56.7551 33.0522 56.6896C33.1797 56.6241 33.2916 56.5319 33.3804 56.4193L34.1404 55.4193C34.2564 55.2714 34.4117 55.1591 34.5886 55.0954C34.7654 55.0318 34.9567 55.0192 35.1404 55.0593L46.2104 57.6693C46.4043 57.7147 46.5803 57.8171 46.7157 57.9632C46.8511 58.1093 46.9398 58.2925 46.9704 58.4893L47.4204 61.2893C47.4407 61.4314 47.4914 61.5675 47.5691 61.6883C47.6467 61.8091 47.7495 61.9118 47.8704 61.9893L53.8704 65.8293C53.9889 65.9021 54.1213 65.9493 54.2592 65.968C54.397 65.9867 54.5372 65.9764 54.6709 65.9378C54.8045 65.8992 54.9286 65.8332 55.0353 65.7439C55.142 65.6546 55.2288 65.5441 55.2904 65.4193L66.3404 42.9993C66.4157 42.8493 66.5254 42.7191 66.6604 42.6193L71.9404 38.8993C72.105 38.7826 72.2306 38.6187 72.3004 38.4293L79.9304 18.1793C79.9994 18.0037 80.0173 17.8121 79.9821 17.6268C79.9469 17.4414 79.8599 17.2698 79.7313 17.1317C79.6027 16.9937 79.4376 16.8948 79.2552 16.8466C79.0727 16.7984 78.8804 16.8028 78.7004 16.8593L69.6504 19.7593C69.5144 19.802 69.371 19.8152 69.2295 19.7979C69.0881 19.7807 68.952 19.7334 68.8304 19.6593L63.0704 16.1193C62.9118 16.0291 62.7328 15.9809 62.5504 15.9793H59.7604C59.6287 15.9785 59.4983 16.0038 59.3765 16.0535C59.2546 16.1033 59.1438 16.1766 59.0504 16.2693L57.9304 17.4093C57.8265 17.5135 57.701 17.5935 57.5627 17.6436C57.4245 17.6938 57.2768 17.7128 57.1304 17.6993L18.7204 13.9993C18.5825 13.9882 18.4438 14.0059 18.3131 14.0512C18.1823 14.0964 18.0624 14.1683 17.9609 14.2623C17.8594 14.3563 17.7785 14.4703 17.7234 14.5972C17.6682 14.724 17.6399 14.861 17.6404 14.9993Z" fill="#EAECF1"/>
<path d="M56.0006 54.6496L54.6606 57.8396C54.5426 58.1192 54.3562 58.3646 54.1186 58.5533C53.8809 58.7421 53.5996 58.868 53.3006 58.9196H53.0106C52.7541 58.9202 52.5005 58.8651 52.2674 58.7581C52.0343 58.651 51.8273 58.4946 51.6606 58.2996L50.2006 56.6296C49.9985 56.3935 49.8587 56.1106 49.7941 55.8067C49.7295 55.5027 49.742 55.1874 49.8306 54.8896L50.5606 52.4796C50.6543 52.1701 50.8287 51.8911 51.066 51.6714C51.3033 51.4517 51.5948 51.2992 51.9106 51.2296L53.5106 50.8896C53.6335 50.8754 53.7577 50.8754 53.8806 50.8896C54.234 50.8933 54.5785 51.0004 54.8717 51.1977C55.1649 51.3949 55.3939 51.6737 55.5306 51.9996L56.0006 53.2796C56.1801 53.7186 56.1801 54.2105 56.0006 54.6496Z" fill="#00549A"/>
</svg>
