<svg width="80" height="80" viewBox="0 0 80 80" fill="none" xmlns="http://www.w3.org/2000/svg">
<g clip-path="url(#clip0_5979_16214)">
<path d="M23.0002 9.52L24.0002 37.4C24.0002 37.6652 24.1056 37.9196 24.2931 38.1071C24.4806 38.2946 24.735 38.4 25.0002 38.4H34.3802C34.4599 38.3904 34.5405 38.3904 34.6202 38.4L44.3002 40.75C44.4377 40.7827 44.5668 40.8441 44.6788 40.9303C44.7909 41.0165 44.8834 41.1255 44.9502 41.25L46.7902 44.64C46.8508 44.7569 46.9361 44.8593 47.0402 44.94L49.5302 46.94C49.6322 47.0268 49.717 47.1319 49.7802 47.25L53.0002 53.25C53.0772 53.3979 53.19 53.5241 53.3282 53.6173C53.4664 53.7105 53.6258 53.7676 53.7917 53.7835C53.9577 53.7994 54.125 53.7736 54.2784 53.7083C54.4318 53.6431 54.5665 53.5406 54.6702 53.41L61.6102 45C61.7337 44.8436 61.901 44.7276 62.0909 44.667C62.2807 44.6063 62.4843 44.6038 62.6756 44.6597C62.8669 44.7155 63.0371 44.8273 63.1644 44.9806C63.2917 45.1339 63.3704 45.3217 63.3902 45.52L63.5802 47.32C63.6008 47.5147 63.5588 47.7109 63.4602 47.88L59.5002 55.1C59.4248 55.2492 59.388 55.415 59.3933 55.5821C59.3985 55.7492 59.4455 55.9124 59.5301 56.0566C59.6146 56.2009 59.734 56.3216 59.8773 56.4078C60.0205 56.494 60.1831 56.5429 60.3502 56.55H61.6102C61.7421 56.5547 61.8736 56.5333 61.9972 56.487C62.1208 56.4406 62.2339 56.3703 62.3302 56.28L63.3302 55.37C63.4741 55.2282 63.6577 55.1334 63.8566 55.098C64.0555 55.0626 64.2604 55.0882 64.4444 55.1716C64.6285 55.255 64.7829 55.3921 64.8875 55.565C64.9921 55.7378 65.0418 55.9383 65.0302 56.14L64.8802 58.56C64.8622 58.7674 64.9094 58.9751 65.0152 59.1544C65.121 59.3337 65.28 59.4754 65.4702 59.56L69.3002 61.24C69.4319 61.2991 69.5493 61.386 69.6442 61.4947C69.7392 61.6035 69.8094 61.7315 69.8502 61.87L71.9402 69.12C71.9946 69.3067 72.1024 69.4736 72.2502 69.6L74.1802 71.26C74.3194 71.3833 74.4902 71.4654 74.6735 71.4969C74.8567 71.5285 75.0451 71.5084 75.2176 71.4388C75.39 71.3692 75.5396 71.2529 75.6496 71.1029C75.7596 70.953 75.8256 70.7754 75.8402 70.59L80.0002 9.88C80.007 9.74453 79.9861 9.6091 79.9389 9.48194C79.8917 9.35479 79.8191 9.23856 79.7256 9.14034C79.632 9.04212 79.5195 8.96396 79.3948 8.91061C79.2701 8.85726 79.1358 8.82983 79.0002 8.83L24.0002 8.5C23.8672 8.49997 23.7355 8.52649 23.6128 8.57799C23.4902 8.62949 23.3791 8.70494 23.2859 8.79993C23.1928 8.89492 23.1196 9.00753 23.0705 9.13117C23.0214 9.25482 22.9975 9.38701 23.0002 9.52Z" fill="#00549A"/>
</g>
<defs>
<clipPath id="clip0_5979_16214">
<rect width="80" height="80" fill="white"/>
</clipPath>
</defs>
</svg>
