<svg width="80" height="80" viewBox="0 0 80 80" fill="none" xmlns="http://www.w3.org/2000/svg">
<g clip-path="url(#clip0_5979_16211)">
<path d="M79.5218 60.6201L75.8818 62.6201L75.6918 62.7001L68.4718 64.8701C68.239 64.9405 68.04 65.0934 67.9118 65.3001L66.4418 67.6601C66.3653 67.7828 66.2631 67.8875 66.1423 67.9669C66.0214 68.0463 65.8848 68.0986 65.7418 68.1201L57.2118 69.4101C57.0212 69.4424 56.844 69.5292 56.7018 69.6601L53.7218 72.2501C53.6125 72.3468 53.4833 72.4184 53.3434 72.4598C53.2034 72.5013 53.0561 72.5116 52.9118 72.4901L46.7218 71.5801C46.5746 71.5592 46.4339 71.5057 46.31 71.4236C46.186 71.3415 46.0819 71.2328 46.0053 71.1054C45.9287 70.978 45.8814 70.8351 45.867 70.6872C45.8525 70.5392 45.8712 70.3899 45.9218 70.2501L46.5218 68.5101C46.5919 68.3094 46.5919 68.0908 46.5218 67.8901L43.3118 57.0001C43.2849 56.8999 43.2409 56.8052 43.1818 56.7201L37.8818 49.0001C37.7688 48.831 37.7064 48.6333 37.7018 48.4301V48.0001C37.7014 47.832 37.7433 47.6665 37.8238 47.5189C37.9043 47.3713 38.0207 47.2463 38.1622 47.1556C38.3038 47.0649 38.4659 47.0114 38.6336 46.9999C38.8013 46.9885 38.9692 47.0195 39.1218 47.0901L40.1218 47.5401L37.1718 43.1501C37.0484 42.9677 36.9887 42.7498 37.0018 42.5301C37.0018 42.5301 37.3418 36.7701 37.3518 36.1501C37.3518 35.3101 37.9218 35.8901 37.9218 35.8901L38.2418 36.1901C38.4287 36.3733 38.68 36.4759 38.9418 36.4759C39.2035 36.4759 39.4549 36.3733 39.6418 36.1901L44.5818 31.0001C44.6857 30.8935 44.8121 30.8115 44.9518 30.7601L52.9518 27.7601C53.0825 27.7119 53.2017 27.637 53.3018 27.5401L58.8518 22.0001C58.9821 21.8729 59.0751 21.7125 59.1209 21.5363C59.1668 21.36 59.1636 21.1746 59.1118 21.0001L58.6618 19.2201C58.6194 19.0527 58.6211 18.8773 58.6667 18.7108C58.7123 18.5444 58.8001 18.3925 58.9218 18.2701L59.9218 17.2201C60.0284 17.1129 60.1578 17.0313 60.3005 16.9814C60.4432 16.9315 60.5953 16.9145 60.7454 16.9319C60.8956 16.9492 61.0398 17.0003 61.1674 17.0814C61.2949 17.1625 61.4024 17.2715 61.4818 17.4001L61.8418 17.9701C61.9379 18.1259 62.0749 18.2524 62.2379 18.3357C62.4009 18.419 62.5837 18.456 62.7663 18.4426C62.9488 18.4292 63.1242 18.3659 63.2733 18.2597C63.4224 18.1534 63.5395 18.0083 63.6118 17.8401L66.7618 10.3901C66.8502 10.1971 66.9926 10.0339 67.1718 9.92007L70.9618 7.63007C71.1138 7.5423 71.2862 7.49609 71.4618 7.49609C71.6373 7.49609 71.8098 7.5423 71.9618 7.63007L77.7518 10.5501C77.9122 10.6308 78.048 10.7533 78.1448 10.9046C78.2416 11.0559 78.2958 11.2305 78.3018 11.4101L80.0218 59.7001C80.0316 59.8846 79.9901 60.0683 79.9018 60.2307C79.8136 60.3931 79.682 60.5279 79.5218 60.6201Z" fill="#00549A"/>
</g>
<defs>
<clipPath id="clip0_5979_16211">
<rect width="80" height="80" fill="white"/>
</clipPath>
</defs>
</svg>
