<svg width="80" height="80" viewBox="0 0 80 80" fill="none" xmlns="http://www.w3.org/2000/svg">
<g clip-path="url(#clip0_5979_16208)">
<path d="M21.9586 10.6792L20.0486 16.5992C19.9838 16.7871 19.9838 16.9913 20.0486 17.1792L29.8786 42.0792C29.9433 42.2671 29.9433 42.4713 29.8786 42.6592L28.2486 47.7692C28.1692 47.9752 28.1692 48.2033 28.2486 48.4092L36.7286 66.0092C36.7889 66.1304 36.8731 66.2381 36.9763 66.3257C37.0794 66.4134 37.1993 66.4792 37.3286 66.5192L48.7886 70.0092C48.9863 70.0784 49.2008 70.0838 49.4017 70.0246C49.6027 69.9654 49.78 69.8446 49.9086 69.6792L61.2186 55.3592C61.3334 55.2095 61.4882 55.0953 61.6651 55.0298C61.8421 54.9643 62.034 54.9503 62.2186 54.9892L67.2786 55.8292C67.4858 55.8711 67.701 55.8463 67.8933 55.7583C68.0855 55.6702 68.2449 55.5235 68.3486 55.3392L76.8486 40.0592C76.8966 39.9683 76.9304 39.8704 76.9486 39.7692L80.0486 19.8392C80.0674 19.7111 80.0584 19.5805 80.0221 19.4563C79.9859 19.332 79.9233 19.2171 79.8386 19.1192L75.9386 14.6092C75.8168 14.4702 75.6589 14.3676 75.4824 14.3129C75.3059 14.2582 75.1176 14.2534 74.9386 14.2992L50.4386 20.6192C50.2249 20.6939 49.9922 20.6939 49.7786 20.6192L23.3186 10.0892C23.1914 10.0315 23.0535 10.0012 22.9139 10C22.7742 9.9989 22.6359 10.027 22.5077 10.0826C22.3796 10.1382 22.2646 10.22 22.17 10.3227C22.0754 10.4255 22.0034 10.5469 21.9586 10.6792Z" fill="#00549A"/>
</g>
<defs>
<clipPath id="clip0_5979_16208">
<rect width="80" height="80" fill="white"/>
</clipPath>
</defs>
</svg>
