<svg width="80" height="80" viewBox="0 0 80 80" fill="none" xmlns="http://www.w3.org/2000/svg">
<g clip-path="url(#clip0_5979_16198)">
<path d="M16.6603 15.0011L15.0003 42.5911C14.9946 42.8223 15.0693 43.0482 15.2115 43.2306C15.3537 43.4129 15.5547 43.5403 15.7803 43.5911L19.5903 44.4711C19.7855 44.5146 19.9631 44.6156 20.1003 44.7611L31.1003 56.4511C31.1992 56.5585 31.3204 56.6429 31.4553 56.6984C31.5903 56.754 31.7358 56.7793 31.8816 56.7727C32.0274 56.766 32.17 56.7275 32.2993 56.6598C32.4287 56.5922 32.5416 56.4971 32.6303 56.3811L33.4003 55.3811C33.5163 55.2332 33.6716 55.1209 33.8485 55.0573C34.0254 54.9936 34.2166 54.9811 34.4003 55.0211L45.7003 57.6911C45.8961 57.7348 46.0742 57.8363 46.2115 57.9826C46.3488 58.1288 46.439 58.313 46.4703 58.5111L46.9203 61.3111C46.9418 61.4541 46.9941 61.5907 47.0735 61.7116C47.1529 61.8324 47.2576 61.9346 47.3803 62.0111L53.5003 65.8511C53.6196 65.9273 53.7536 65.9773 53.8937 65.9979C54.0337 66.0184 54.1765 66.009 54.3126 65.9702C54.4487 65.9315 54.575 65.8643 54.6832 65.773C54.7914 65.6818 54.8791 65.5687 54.9403 65.4411L66.1303 43.0011C66.2033 42.8495 66.3134 42.7188 66.4503 42.6211L71.8103 38.9011C71.9787 38.7859 72.1078 38.6219 72.1803 38.4311L79.9303 18.1811C80.0018 18.0035 80.0208 17.8091 79.985 17.6211C79.9493 17.433 79.8603 17.2591 79.7287 17.1201C79.5971 16.9811 79.4283 16.8829 79.2425 16.8369C79.0566 16.791 78.8615 16.7994 78.6803 16.8611L69.5003 19.7111C69.3629 19.7553 69.2176 19.7693 69.0743 19.752C68.9311 19.7347 68.7932 19.6867 68.6703 19.6111L62.8003 16.0711C62.643 15.9778 62.4632 15.9293 62.2803 15.9311H59.4403C59.3087 15.9303 59.1782 15.9556 59.0564 16.0053C58.9346 16.0551 58.8237 16.1284 58.7303 16.2211L57.5903 17.3611C57.4854 17.4667 57.3582 17.5475 57.2181 17.5977C57.0779 17.6478 56.9284 17.6661 56.7803 17.6511L17.7603 14.0011C17.6208 13.9871 17.48 14.0025 17.3468 14.0465C17.2137 14.0904 17.0913 14.1619 16.9876 14.2562C16.8839 14.3504 16.8011 14.4655 16.7448 14.5938C16.6884 14.7222 16.6596 14.8609 16.6603 15.0011Z" fill="#00549A"/>
</g>
<defs>
<clipPath id="clip0_5979_16198">
<rect width="80" height="80" fill="white"/>
</clipPath>
</defs>
</svg>
