<svg width="150" height="150" viewBox="0 0 150 150" fill="none" xmlns="http://www.w3.org/2000/svg">
<path d="M135 75.5C135 108.361 108.361 135 75.5 135C42.639 135 16 108.361 16 75.5C16 42.639 42.639 16 75.5 16C108.361 16 135 42.639 135 75.5Z" fill="#F2F2F2"/>
<mask id="mask0_4229_14231" style="mask-type:luminance" maskUnits="userSpaceOnUse" x="0" y="26" width="150" height="114">
<path d="M150 26H0V140H150V26Z" fill="white"/>
</mask>
<g mask="url(#mask0_4229_14231)">
<path d="M68.5341 57.7802C71.205 55.1197 74.2836 53.1203 77.5668 51.7592V51.7545V34.5848C77.5668 29.8434 73.7083 26 68.9482 26H8.61858C3.85897 26 0 29.8434 0 34.5848V51.7545C0 56.4954 3.85897 60.3393 8.61858 60.3393H66.2864C66.981 59.4555 67.7171 58.594 68.5341 57.7802Z" fill="#E6E6E6"/>
<g style="mix-blend-mode:multiply">
<path d="M10.7732 43.1692C14.3431 43.1692 17.2371 40.2866 17.2371 36.7306C17.2371 33.1747 14.3431 30.292 10.7732 30.292C7.20327 30.292 4.30927 33.1747 4.30927 36.7306C4.30927 40.2866 7.20327 43.1692 10.7732 43.1692Z" fill="#C6C6C6"/>
</g>
<g style="mix-blend-mode:multiply">
<path d="M62.4843 36.7309H23.7007C22.5109 36.7309 21.546 35.7702 21.546 34.5847C21.546 33.3991 22.5109 32.4385 23.7007 32.4385H62.4843C63.6741 32.4385 64.6389 33.3995 64.6389 34.5847C64.6389 35.7698 63.6741 36.7309 62.4843 36.7309Z" fill="#EBEBEB"/>
</g>
<g style="mix-blend-mode:multiply">
<path d="M71.1029 45.3158H23.7007C22.5109 45.3158 21.546 44.3552 21.546 43.1696C21.546 41.9841 22.5109 41.0234 23.7007 41.0234H71.1029C72.2927 41.0234 73.2575 41.9845 73.2575 43.1696C73.2575 44.3548 72.2927 45.3158 71.1029 45.3158Z" fill="#EBEBEB"/>
</g>
<g style="mix-blend-mode:multiply">
<path d="M51.7111 53.8998H23.7007C22.5109 53.8998 21.546 52.9392 21.546 51.7536C21.546 50.5681 22.5109 49.6074 23.7007 49.6074H51.7111C52.9009 49.6074 53.8657 50.5685 53.8657 51.7536C53.8657 52.9388 52.9009 53.8998 51.7111 53.8998Z" fill="#EBEBEB"/>
</g>
<path d="M90.4951 64.6318H30.165C25.4051 64.6318 21.5464 68.4754 21.5464 73.2167V90.3863C21.5464 95.1276 25.4051 98.9711 30.165 98.9711H90.4951C95.255 98.9711 99.1137 95.1276 99.1137 90.3863V73.2167C99.1137 68.4754 95.255 64.6318 90.4951 64.6318Z" fill="#E6E6E6"/>
<path d="M32.3197 81.8011C35.8896 81.8011 38.7837 78.9184 38.7837 75.3624C38.7837 71.8065 35.8896 68.9238 32.3197 68.9238C28.7498 68.9238 25.8558 71.8065 25.8558 75.3624C25.8558 78.9184 28.7498 81.8011 32.3197 81.8011Z" fill="#C6C6C6"/>
<g style="mix-blend-mode:multiply">
<path d="M84.0307 75.3627H45.2471C44.0573 75.3627 43.0925 74.4021 43.0925 73.2165C43.0925 72.031 44.0573 71.0703 45.2471 71.0703H84.0307C85.2205 71.0703 86.1854 72.0314 86.1854 73.2165C86.1854 74.4017 85.2205 75.3627 84.0307 75.3627Z" fill="#EBEBEB"/>
</g>
<g style="mix-blend-mode:multiply">
<path d="M92.6493 83.9467H45.2471C44.0573 83.9467 43.0925 82.9861 43.0925 81.8005C43.0925 80.6149 44.0573 79.6543 45.2471 79.6543H92.6493C93.8391 79.6543 94.804 80.6154 94.804 81.8005C94.804 82.9856 93.8391 83.9467 92.6493 83.9467Z" fill="#EBEBEB"/>
</g>
<g style="mix-blend-mode:multiply">
<path d="M73.2575 92.5317H45.2471C44.0573 92.5317 43.0925 91.5706 43.0925 90.3855C43.0925 89.2003 44.0573 88.2393 45.2471 88.2393H73.2575C74.4473 88.2393 75.4122 89.2003 75.4122 90.3855C75.4122 91.5706 74.4473 92.5317 73.2575 92.5317Z" fill="#EBEBEB"/>
</g>
<path d="M68.9487 103.264H8.61858C3.85867 103.264 0 107.107 0 111.848V129.018C0 133.759 3.85867 137.603 8.61858 137.603H68.9487C73.7086 137.603 77.5673 133.759 77.5673 129.018V111.848C77.5673 107.107 73.7086 103.264 68.9487 103.264Z" fill="#E6E6E6"/>
<g style="mix-blend-mode:multiply">
<path d="M10.7732 120.433C14.3431 120.433 17.2371 117.55 17.2371 113.994C17.2371 110.438 14.3431 107.556 10.7732 107.556C7.20327 107.556 4.30927 110.438 4.30927 113.994C4.30927 117.55 7.20327 120.433 10.7732 120.433Z" fill="#C6C6C6"/>
</g>
<g style="mix-blend-mode:multiply">
<path d="M62.4843 113.995H23.7007C22.5109 113.995 21.546 113.033 21.546 111.848C21.546 110.663 22.5109 109.702 23.7007 109.702H62.4843C63.6741 109.702 64.6389 110.663 64.6389 111.848C64.6389 113.033 63.6741 113.995 62.4843 113.995Z" fill="#EBEBEB"/>
</g>
<g style="mix-blend-mode:multiply">
<path d="M71.1029 122.58H23.7007C22.5109 122.58 21.546 121.618 21.546 120.433C21.546 119.248 22.5109 118.287 23.7007 118.287H71.1029C72.2927 118.287 73.2575 119.248 73.2575 120.433C73.2575 121.618 72.2927 122.58 71.1029 122.58Z" fill="#EBEBEB"/>
</g>
<g style="mix-blend-mode:multiply">
<path d="M51.7111 131.164H23.7007C22.5109 131.164 21.546 130.202 21.546 129.017C21.546 127.832 22.5109 126.871 23.7007 126.871H51.7111C52.9009 126.871 53.8657 127.832 53.8657 129.017C53.8657 130.202 52.9009 131.164 51.7111 131.164Z" fill="#EBEBEB"/>
</g>
<mask id="mask1_4229_14231" style="mask-type:luminance" maskUnits="userSpaceOnUse" x="60" y="49" width="57" height="57">
<path d="M88.3405 105.41C103.81 105.41 116.351 92.9182 116.351 77.5091C116.351 62.1 103.81 49.6084 88.3405 49.6084C72.8708 49.6084 60.3301 62.1 60.3301 77.5091C60.3301 92.9182 72.8708 105.41 88.3405 105.41Z" fill="white"/>
</mask>
<g mask="url(#mask1_4229_14231)">
<path d="M96.959 60.3398H28.0104C23.2505 60.3398 19.3918 64.1834 19.3918 68.9247V103.264C19.3918 108.005 23.2505 111.849 28.0104 111.849H96.959C101.719 111.849 105.578 108.005 105.578 103.264V68.9247C105.578 64.1834 101.719 60.3398 96.959 60.3398Z" fill="#E6E6E6"/>
<g style="mix-blend-mode:multiply">
<path d="M81.8765 77.5096H43.0929C40.7133 77.5096 38.7836 75.5879 38.7836 73.2172C38.7836 70.8465 40.7133 68.9248 43.0929 68.9248H81.8765C84.2565 68.9248 86.1858 70.8469 86.1858 73.2172C86.1858 75.5875 84.2565 77.5096 81.8765 77.5096Z" fill="#EBEBEB"/>
</g>
<g style="mix-blend-mode:multiply">
<path d="M92.6497 90.3866H43.0929C40.7133 90.3866 38.7836 88.4644 38.7836 86.0942C38.7836 83.7239 40.7133 81.8018 43.0929 81.8018H92.6497C95.0297 81.8018 96.959 83.7239 96.959 86.0942C96.959 88.4644 95.0297 90.3866 92.6497 90.3866Z" fill="#EBEBEB"/>
</g>
<g style="mix-blend-mode:multiply">
<path d="M71.1033 103.264H43.0929C40.7133 103.264 38.7836 101.341 38.7836 98.9711C38.7836 96.6009 40.7133 94.6787 43.0929 94.6787H71.1033C73.4833 94.6787 75.4126 96.6004 75.4126 98.9711C75.4126 101.342 73.4833 103.264 71.1033 103.264Z" fill="#EBEBEB"/>
</g>
</g>
</g>
<path d="M120.204 109.811L119.518 110.387L115.887 113.435L113.651 110.773L113.322 110.38L112.992 109.986L109.787 106.166C109.834 106.133 109.88 106.1 109.927 106.067C110.066 105.969 110.206 105.868 110.345 105.768C110.961 105.316 111.567 104.841 112.161 104.345C112.754 103.846 113.325 103.331 113.877 102.801C113.959 102.723 114.041 102.644 114.122 102.562L117.312 106.364L117.639 106.757L117.97 107.148L119.629 109.125L120.204 109.811Z" fill="#E6E6E6"/>
<path d="M131.704 138.065L111.75 114.286C111.046 113.447 111.156 112.196 111.995 111.492L118.968 105.641C119.807 104.938 121.057 105.047 121.76 105.886L141.714 129.665C143.362 131.629 143.105 134.556 141.142 136.203L138.241 138.637C136.279 140.284 133.352 140.028 131.704 138.065Z" fill="#B2B2B2"/>
<path d="M114.886 103.474C114.806 103.555 114.724 103.634 114.642 103.713C114.089 104.242 113.519 104.757 112.925 105.256C112.331 105.752 111.725 106.228 111.11 106.679C110.97 106.779 110.831 106.88 110.691 106.978C110.644 107.012 110.598 107.045 110.552 107.077L108.871 105.074L108.54 104.68L108.209 104.285L105.176 100.671C105.224 100.64 105.272 100.607 105.319 100.576C105.461 100.48 105.602 100.381 105.744 100.284C106.37 99.8418 106.979 99.3715 107.572 98.8754C108.168 98.3763 108.735 97.8565 109.274 97.3178C109.356 97.2366 109.436 97.1554 109.516 97.0742L112.528 100.662L112.858 101.056L113.19 101.451L114.886 103.474Z" fill="#B2B2B2"/>
<path d="M71.7156 56.4112C83.0426 46.9082 99.9879 48.3915 109.491 59.7165C118.269 70.177 117.672 85.435 108.605 95.1905C108.488 95.3153 108.37 95.441 108.249 95.5638C108.131 95.6876 108.012 95.8104 107.888 95.9322C107.349 96.4708 106.782 96.9907 106.186 97.4897C105.592 97.9868 104.984 98.4562 104.358 98.8988C104.216 98.9958 104.074 99.0939 103.933 99.1899C103.79 99.286 103.647 99.381 103.503 99.4751C98.5155 102.711 92.6317 104.187 86.6152 103.662C79.4798 103.036 73.0158 99.6712 68.4123 94.1835C58.9093 82.8605 60.3907 65.9141 71.7156 56.4112ZM114.958 55.1288C102.905 40.764 81.4929 38.8915 67.128 50.9442C52.7651 62.997 50.8907 84.4092 62.9444 98.7731C74.2733 112.274 93.8744 114.741 108.118 104.975C108.259 104.879 108.4 104.781 108.539 104.681C108.679 104.583 108.819 104.482 108.957 104.382C109.573 103.93 110.179 103.455 110.773 102.959C111.366 102.46 111.938 101.945 112.489 101.415C112.612 101.297 112.736 101.179 112.857 101.056C112.98 100.937 113.1 100.815 113.22 100.692C125.31 88.363 126.288 68.6303 114.957 55.1288H114.958Z" fill="#C6C6C6"/>
<path d="M136.456 129.478C136.205 129.478 135.955 129.373 135.778 129.168L119.526 110.398C119.202 110.024 119.242 109.457 119.617 109.133C119.991 108.809 120.557 108.849 120.882 109.224L137.133 127.994C137.458 128.368 137.417 128.934 137.042 129.259C136.873 129.406 136.664 129.478 136.456 129.478Z" fill="white"/>
</svg>
