<svg width="430" height="824" viewBox="0 0 430 824" fill="none" xmlns="http://www.w3.org/2000/svg">
    <g clip-path="url(#clip0_2044_11558)">
        <path d="M89.963 799.299L91.2526 801.413M92.4765 797.765L93.766 799.88M94.9894 796.233L96.2789 798.347M97.5028 794.7L98.7923 796.814M100.016 793.167L101.305 795.281M102.529 791.634L103.818 793.748M105.043 790.101L106.332 792.215M107.555 788.568L108.844 790.682M110.068 787.035L111.358 789.149M112.582 785.502L113.871 787.616M115.095 783.969L116.384 786.083M117.608 782.436L118.898 784.55M120.122 780.903L121.411 783.017M122.634 779.37L123.924 781.484M125.147 777.838L126.437 779.952M130.506 794.006L132.336 797.004M126.931 794.61L129.459 798.758M124.757 797.514L126.586 800.511M121.182 798.117L123.711 802.265M119.007 801.019L120.836 804.018M115.431 801.623L117.962 805.772M113.258 804.526L115.087 807.525M109.683 805.132L112.212 809.278M107.509 808.034L109.338 811.032M103.933 808.636L106.463 812.785M101.759 811.54L103.589 814.539M98.1829 812.144L100.714 816.292M86.0969 803.782C85.9943 803.614 85.9698 803.405 86.0397 803.212L101.225 761.435C101.292 761.25 101.438 761.105 101.623 761.039C101.809 760.973 102.014 760.992 102.183 761.091L129.293 777.07C129.493 777.188 129.617 777.403 129.618 777.635C129.62 777.867 129.5 778.083 129.302 778.204L87.0063 804.003C86.7662 804.149 86.46 804.127 86.2426 803.95C86.1836 803.902 86.1352 803.845 86.0969 803.782ZM98.2571 788.393C98.1544 788.225 98.13 788.016 98.1999 787.823L104.734 769.849C104.801 769.664 104.947 769.519 105.132 769.453C105.317 769.387 105.522 769.406 105.692 769.505L117.355 776.38C117.555 776.498 117.679 776.713 117.68 776.944C117.681 777.177 117.561 777.393 117.363 777.514L99.1664 788.613C98.9264 788.76 98.6202 788.738 98.4028 788.561C98.3438 788.512 98.2954 788.456 98.2571 788.393ZM92.4374 818.199L88.1289 811.135C87.7561 810.524 87.6432 809.804 87.812 809.107C87.9807 808.411 88.4103 807.822 89.0218 807.449L129.812 782.568C131.074 781.798 132.727 782.198 133.496 783.459L137.807 790.524C138.577 791.787 138.176 793.441 136.914 794.211L96.123 819.091C94.8627 819.862 93.2087 819.462 92.4374 818.199Z" stroke="black" stroke-opacity="0.1" stroke-width="0.5" stroke-linecap="round"/>
        <path d="M445.655 418.801L445.478 418.978L445.479 418.978L445.655 418.801ZM384.876 359.157L384.972 359.388L384.876 359.157ZM384.075 419.717H383.825H384.075ZM444.739 421.008L444.74 420.758H444.739V421.008ZM390.079 372.058C389.982 372.157 389.985 372.315 390.084 372.411C390.183 372.508 390.341 372.505 390.437 372.406L390.079 372.058ZM393.953 378.509C393.856 378.606 393.856 378.764 393.953 378.862C394.051 378.96 394.209 378.96 394.307 378.863L393.953 378.509ZM400.403 382.385C400.307 382.485 400.311 382.643 400.411 382.739C400.511 382.834 400.669 382.83 400.765 382.73L400.403 382.385ZM404.276 388.837C404.18 388.936 404.183 389.095 404.282 389.191C404.381 389.287 404.539 389.284 404.635 389.185L404.276 388.837ZM410.732 392.707C410.635 392.804 410.635 392.963 410.733 393.06C410.83 393.158 410.989 393.158 411.086 393.06L410.732 392.707ZM414.603 399.162C414.506 399.261 414.508 399.419 414.607 399.516C414.705 399.612 414.864 399.61 414.96 399.512L414.603 399.162ZM421.056 403.034C420.96 403.133 420.961 403.291 421.06 403.388C421.159 403.484 421.317 403.483 421.414 403.384L421.056 403.034ZM424.929 409.487C424.832 409.585 424.833 409.744 424.932 409.841C425.03 409.938 425.188 409.936 425.285 409.838L424.929 409.487ZM431.383 413.359C431.286 413.457 431.287 413.616 431.385 413.713C431.483 413.81 431.642 413.809 431.739 413.71L431.383 413.359ZM394.596 367.77L394.772 367.593L394.596 367.77ZM399.889 372.939L400.066 372.762L399.889 372.939ZM410.102 383.185L410.279 383.009L410.102 383.185ZM415.344 388.445L415.521 388.268L415.344 388.445ZM420.44 393.555L420.617 393.378L420.44 393.555ZM392.733 387.053L392.556 387.229L392.556 387.23L392.733 387.053ZM390.526 387.969H390.776L390.776 387.968L390.526 387.969ZM435.188 401.531L435.089 401.761L435.093 401.763L435.188 401.531ZM443.448 402.938L443.451 402.688H443.448V402.938ZM444.739 401.441L444.986 401.401L444.985 401.4L444.739 401.441ZM443.384 393.49L443.622 393.415L443.619 393.406L443.384 393.49ZM412.755 362.655L412.932 362.478L412.93 362.476L412.755 362.655ZM404.469 370.941L404.29 371.116L404.292 371.118L404.469 370.941ZM409.128 371.961L409.301 372.142L409.305 372.138L409.128 371.961ZM413.762 367.327L413.586 367.149L413.585 367.151L413.762 367.327ZM384.78 358.926C384.721 358.951 384.673 358.961 384.597 358.982C384.528 359.001 384.433 359.029 384.341 359.094C384.148 359.23 384.05 359.471 383.982 359.844C383.844 360.602 383.783 362.217 383.761 365.767C383.716 372.889 383.825 387.904 383.825 419.717H384.325C384.325 387.898 384.216 372.891 384.261 365.77C384.284 362.199 384.346 360.638 384.474 359.934C384.539 359.577 384.61 359.516 384.63 359.502C384.645 359.491 384.667 359.481 384.728 359.465C384.782 359.45 384.875 359.428 384.972 359.388L384.78 358.926ZM383.825 419.717C383.825 420.126 383.988 420.518 384.277 420.807L384.63 420.453C384.435 420.258 384.325 419.993 384.325 419.717H383.825ZM384.277 420.807C384.566 421.096 384.958 421.258 385.366 421.258V420.758C385.09 420.758 384.825 420.648 384.63 420.453L384.277 420.807ZM385.366 421.258H444.739V420.758H385.366V421.258ZM444.737 421.258C445.043 421.26 445.343 421.17 445.598 421.001L445.322 420.584C445.149 420.699 444.947 420.759 444.74 420.758L444.737 421.258ZM445.598 421.001C445.853 420.832 446.052 420.591 446.169 420.308L445.707 420.116C445.628 420.307 445.494 420.47 445.322 420.584L445.598 421.001ZM446.169 420.308C446.287 420.025 446.317 419.714 446.257 419.414L445.767 419.513C445.807 419.715 445.787 419.925 445.707 420.116L446.169 420.308ZM446.257 419.414C446.197 419.114 446.049 418.839 445.831 418.623L445.479 418.978C445.626 419.124 445.726 419.31 445.767 419.513L446.257 419.414ZM394.772 367.593C389.866 362.698 387.598 360.465 386.473 359.493C386.191 359.249 385.974 359.079 385.8 358.965C385.63 358.852 385.483 358.781 385.342 358.758C385.185 358.732 385.066 358.773 384.972 358.821C384.934 358.841 384.89 358.868 384.864 358.883C384.834 358.901 384.808 358.915 384.78 358.926L384.972 359.388C385.029 359.364 385.077 359.338 385.115 359.315C385.158 359.29 385.178 359.278 385.202 359.265C385.235 359.249 385.243 359.248 385.262 359.251C385.298 359.257 385.375 359.283 385.525 359.382C385.672 359.479 385.87 359.633 386.146 359.872C387.254 360.828 389.504 363.044 394.419 367.947L394.772 367.593ZM390.437 372.406L394.775 367.944L394.417 367.596L390.079 372.058L390.437 372.406ZM400.066 372.762C399.044 371.737 398.094 370.818 397.214 369.969C396.333 369.119 395.522 368.34 394.772 367.593L394.419 367.947C395.172 368.698 395.987 369.481 396.867 370.329C397.747 371.178 398.693 372.094 399.712 373.115L400.066 372.762ZM394.307 378.863L400.066 373.116L399.712 372.762L393.953 378.509L394.307 378.863ZM405.11 377.822C403.257 375.962 401.581 374.281 400.066 372.762L399.712 373.115C401.227 374.634 402.903 376.315 404.756 378.175L405.11 377.822ZM400.765 382.73L405.114 378.171L404.752 377.826L400.403 382.385L400.765 382.73ZM410.279 383.009C408.418 381.141 406.699 379.416 405.11 377.822L404.756 378.175C406.345 379.769 408.064 381.494 409.925 383.362L410.279 383.009ZM404.635 389.185L410.282 383.359L409.923 383.011L404.276 388.837L404.635 389.185ZM415.521 388.268C413.659 386.401 411.915 384.65 410.279 383.009L409.925 383.362C411.56 385.003 413.305 386.754 415.167 388.621L415.521 388.268ZM411.086 393.06L415.521 388.622L415.168 388.268L410.732 392.707L411.086 393.06ZM420.617 393.378C418.827 391.585 417.131 389.883 415.521 388.268L415.167 388.621C416.777 390.236 418.473 391.938 420.263 393.731L420.617 393.378ZM414.96 399.512L420.618 393.73L420.261 393.38L414.603 399.162L414.96 399.512ZM425.785 398.559C423.982 396.752 422.26 395.026 420.617 393.378L420.263 393.731C421.906 395.38 423.628 397.105 425.431 398.912L425.785 398.559ZM421.414 403.384L425.787 398.911L425.43 398.561L421.056 403.034L421.414 403.384ZM430.954 403.737C429.16 401.941 427.438 400.216 425.785 398.559L425.431 398.912C427.085 400.569 428.807 402.294 430.6 404.09L430.954 403.737ZM425.285 409.838L430.955 404.089L430.599 403.738L424.929 409.487L425.285 409.838ZM445.832 418.624C442.402 415.195 439.17 411.961 436.123 408.912L435.769 409.265C438.816 412.315 442.049 415.549 445.478 418.978L445.832 418.624ZM436.123 408.912C434.337 407.124 432.615 405.4 430.954 403.737L430.6 404.09C432.261 405.753 433.983 407.478 435.769 409.265L436.123 408.912ZM431.739 413.71L436.124 409.264L435.768 408.913L431.383 413.359L431.739 413.71ZM392.911 386.877C392.695 386.66 392.42 386.511 392.12 386.451L392.021 386.941C392.224 386.982 392.41 387.082 392.556 387.229L392.911 386.877ZM392.12 386.451C391.82 386.391 391.509 386.422 391.226 386.539L391.418 387.001C391.609 386.921 391.819 386.901 392.021 386.941L392.12 386.451ZM391.226 386.539C390.943 386.656 390.702 386.855 390.533 387.11L390.95 387.387C391.064 387.214 391.227 387.08 391.418 387.001L391.226 386.539ZM390.533 387.11C390.364 387.365 390.274 387.665 390.276 387.971L390.776 387.968C390.775 387.761 390.835 387.559 390.95 387.387L390.533 387.11ZM390.276 387.969V413.784H390.776V387.969H390.276ZM390.276 413.784C390.276 414.192 390.438 414.584 390.727 414.873L391.081 414.519C390.886 414.324 390.776 414.06 390.776 413.784H390.276ZM390.727 414.873C391.016 415.162 391.408 415.324 391.817 415.324V414.824C391.541 414.824 391.276 414.715 391.081 414.519L390.727 414.873ZM391.817 415.324C405.693 415.324 412.334 415.408 415.559 415.35C416.366 415.335 416.965 415.312 417.411 415.275C417.855 415.239 418.165 415.189 418.387 415.115C418.619 415.038 418.77 414.929 418.873 414.771C418.92 414.7 418.951 414.626 418.977 414.561C419.006 414.485 419.02 414.441 419.05 414.369L418.587 414.179C418.559 414.249 418.528 414.336 418.511 414.379C418.489 414.434 418.473 414.47 418.454 414.498C418.427 414.539 418.38 414.59 418.228 414.641C418.066 414.695 417.805 414.742 417.371 414.777C416.94 414.812 416.354 414.836 415.55 414.85C412.331 414.908 405.704 414.824 391.817 414.824V415.324ZM419.05 414.369C419.073 414.313 419.098 414.267 419.13 414.207C419.16 414.153 419.198 414.079 419.222 413.994C419.276 413.797 419.234 413.6 419.099 413.36C418.968 413.127 418.733 412.821 418.348 412.385C417.961 411.946 417.412 411.362 416.642 410.571C413.565 407.409 406.924 400.884 392.91 386.876L392.556 387.23C406.576 401.243 413.21 407.761 416.284 410.92C417.052 411.709 417.594 412.286 417.973 412.716C418.355 413.149 418.56 413.421 418.663 413.604C418.762 413.78 418.746 413.838 418.74 413.861C418.733 413.886 418.72 413.915 418.69 413.971C418.663 414.021 418.622 414.093 418.587 414.179L419.05 414.369ZM435.093 401.763C435.136 401.78 435.208 401.796 435.273 401.81C435.349 401.827 435.45 401.847 435.572 401.87C435.815 401.917 436.147 401.977 436.536 402.046C437.315 402.184 438.328 402.356 439.335 402.525C440.342 402.693 441.344 402.858 442.103 402.981C442.482 403.043 442.801 403.094 443.029 403.129C443.143 403.147 443.235 403.161 443.301 403.171C443.334 403.176 443.361 403.179 443.381 403.182C443.392 403.184 443.424 403.188 443.448 403.188V402.688C443.465 402.688 443.473 402.69 443.446 402.686C443.43 402.684 443.405 402.681 443.373 402.676C443.31 402.667 443.22 402.653 443.106 402.635C442.879 402.6 442.562 402.549 442.183 402.488C441.425 402.365 440.424 402.2 439.417 402.032C438.411 401.863 437.4 401.691 436.623 401.554C436.235 401.485 435.906 401.425 435.666 401.379C435.546 401.356 435.449 401.337 435.379 401.322C435.297 401.304 435.275 401.297 435.282 401.3L435.093 401.763ZM443.445 403.188C443.67 403.191 443.892 403.145 444.097 403.052L443.892 402.596C443.754 402.659 443.603 402.69 443.451 402.688L443.445 403.188ZM444.097 403.052C444.303 402.96 444.485 402.824 444.632 402.653L444.253 402.327C444.154 402.442 444.031 402.534 443.892 402.596L444.097 403.052ZM444.632 402.653C444.779 402.483 444.886 402.283 444.947 402.066L444.466 401.93C444.425 402.077 444.352 402.212 444.253 402.327L444.632 402.653ZM444.947 402.066C445.009 401.85 445.022 401.623 444.986 401.401L444.492 401.481C444.516 401.631 444.508 401.784 444.466 401.93L444.947 402.066ZM444.985 401.4C444.263 397.076 443.94 395.139 443.79 394.258C443.715 393.82 443.682 393.637 443.664 393.551C443.654 393.506 443.646 393.475 443.633 393.444C443.623 393.417 443.626 393.429 443.622 393.415L443.145 393.565C443.157 393.602 443.17 393.632 443.169 393.629C443.166 393.622 443.167 393.621 443.175 393.656C443.191 393.729 443.221 393.899 443.297 394.342C443.447 395.222 443.769 397.158 444.492 401.482L444.985 401.4ZM443.619 393.406C443.612 393.386 443.611 393.378 443.603 393.345C443.594 393.308 443.581 393.262 443.552 393.206C443.502 393.108 443.408 392.99 443.228 392.793C442.86 392.388 442.054 391.57 440.255 389.769C436.653 386.164 429.044 378.597 412.932 362.478L412.578 362.832C428.695 378.955 436.297 386.515 439.901 390.122C441.704 391.927 442.5 392.736 442.858 393.129C443.042 393.331 443.092 393.405 443.108 393.436C443.112 393.443 443.113 393.446 443.116 393.46C443.12 393.477 443.129 393.521 443.148 393.574L443.619 393.406ZM412.93 362.476C411.779 361.354 410.233 360.731 408.626 360.742L408.629 361.242C410.104 361.232 411.524 361.804 412.581 362.834L412.93 362.476ZM408.626 360.742C407.019 360.752 405.481 361.395 404.345 362.531L404.698 362.885C405.742 361.841 407.154 361.251 408.629 361.242L408.626 360.742ZM404.345 362.531C403.209 363.667 402.566 365.205 402.555 366.812L403.055 366.815C403.065 365.34 403.655 363.928 404.698 362.885L404.345 362.531ZM402.555 366.812C402.545 368.419 403.168 369.965 404.29 371.116L404.648 370.767C403.618 369.71 403.046 368.291 403.055 366.815L402.555 366.812ZM404.292 371.118C420.509 387.335 428.099 394.945 431.679 398.518C433.468 400.304 434.259 401.085 434.625 401.43C434.8 401.594 434.898 401.679 434.97 401.72C435.025 401.751 435.069 401.761 435.104 401.766C435.114 401.767 435.099 401.765 435.089 401.761L435.286 401.301C435.231 401.278 435.19 401.273 435.174 401.271C435.172 401.271 435.182 401.272 435.195 401.276C435.208 401.28 435.216 401.284 435.218 401.286C435.218 401.286 435.204 401.277 435.16 401.24C435.118 401.204 435.057 401.149 434.968 401.065C434.608 400.727 433.824 399.953 432.033 398.165C428.452 394.591 420.864 386.983 404.645 370.765L404.292 371.118ZM407.439 373.92L409.301 372.142L408.955 371.78L407.094 373.559L407.439 373.92ZM409.305 372.138L413.939 367.504L413.585 367.151L408.951 371.784L409.305 372.138ZM413.937 367.506L415.784 365.688L415.433 365.331L413.586 367.149L413.937 367.506ZM435.363 401.71L443.559 393.668L443.208 393.312L435.012 401.353L435.363 401.71Z" fill="black" fill-opacity="0.1"/>
        <path d="M116.749 86.4809L110.212 80.7147C109.265 79.8796 107.971 79.9607 107.136 80.9075L79.2662 112.505C78.4311 113.452 78.5122 114.746 79.459 115.581L85.9964 121.347M116.749 86.4809L85.9964 121.347M116.749 86.4809L140.661 107.571M85.9964 121.347L109.908 142.437M140.661 107.571L147.257 113.39C148.204 114.225 148.285 115.519 147.45 116.466L119.58 148.063C118.745 149.01 117.451 149.091 116.504 148.256L109.908 142.437M140.661 107.571L109.908 142.437M103.133 90.9371L106.402 93.8202M110.246 89.462L106.977 86.5789M99.2887 95.2954L102.557 98.1785M95.4446 99.6536L98.7133 102.537M91.6005 104.012L94.8692 106.895M87.7564 108.37L91.025 111.253M83.9122 112.728L87.1809 115.611M137.999 121.69L134.73 118.807M141.843 117.332L138.574 114.449M134.155 126.048L130.886 123.165M130.311 130.407L127.042 127.523M126.466 134.765L123.198 131.882M122.622 139.123L119.354 136.24M115.51 140.598L118.778 143.481M114.987 104.462C114.953 104.334 114.885 104.219 114.791 104.127C114.697 104.035 114.579 103.971 114.451 103.94C114.323 103.911 114.19 103.916 114.065 103.957C113.94 103.997 113.828 104.07 113.741 104.168L102.208 117.243C102.121 117.341 102.063 117.462 102.039 117.591C102.015 117.72 102.027 117.853 102.073 117.977C102.118 118.1 102.197 118.208 102.299 118.29C102.402 118.372 102.525 118.425 102.655 118.443L118.227 120.555C118.346 120.57 118.466 120.557 118.578 120.515C118.69 120.473 118.79 120.404 118.869 120.315C118.948 120.225 119.004 120.117 119.031 120.001C119.059 119.885 119.057 119.764 119.027 119.648L114.987 104.462Z" stroke="black" stroke-opacity="0.1" stroke-width="0.5" stroke-linecap="round"/>
        <path d="M349.689 36.8065L350.615 35.8802C351.876 34.6735 353.554 34 355.299 34C357.044 34 358.722 34.6735 359.983 35.8802C360.599 36.4948 361.088 37.2249 361.421 38.0286C361.755 38.8324 361.927 39.6941 361.927 40.5643C361.927 41.4346 361.755 42.2962 361.421 43.1C361.088 43.9038 360.599 44.6339 359.983 45.2484L359.03 46.0159M349.689 36.8065L347.81 34.9275L338.468 44.2428L340.4 46.1747M349.689 36.8065L359.03 46.0159M340.4 46.1747L317.932 72.3739L319.731 74.1735M340.4 46.1747L349.292 55.093M319.731 74.1735L316 77.9314L317.879 79.8103L321.61 76.0789M319.731 74.1735L321.61 76.0789M321.61 76.0789L323.436 77.9049L349.292 55.093M349.292 55.093L351.567 57.3689L360.909 47.8948L359.03 46.0159M357.231 44.2428L354.373 41.4376L351.567 38.6325" stroke="black" stroke-opacity="0.1" stroke-width="0.5"/>
        <path d="M59.9886 631.591L65.2814 634.238V643.818L59.9886 646.464M59.9886 631.591V620L26.697 631.088H25.5856M59.9886 631.591V646.464M17.6464 646.967H15L15 631.088H25.5856M17.6464 646.967L17.6464 662.845H25.5856V654.721M17.6464 646.967H25.5856M25.5856 654.721C26.0192 654.827 26.4625 654.889 26.9088 654.906C28.5141 654.922 30.0705 654.353 31.2877 653.306C32.505 652.26 33.3 650.806 33.5247 649.216M25.5856 654.721V652.021V646.967M33.5247 649.216L59.9886 658.082V646.464M33.5247 649.216L25.5856 646.967M25.5856 633.735V644.32M20.2928 646.967H22.9392M25.5856 646.967V631.088M59.9886 643.5V634.555" stroke="black" stroke-opacity="0.1" stroke-width="0.5"/>
        <path d="M372.919 614.49L373.094 614.311L372.919 614.49ZM360.076 601.996L359.901 602.175L360.076 601.996ZM360.006 596.928L360.185 597.103L360.006 596.928ZM372.5 584.085L372.321 583.91L372.5 584.085ZM377.568 584.015L377.393 584.194L377.568 584.015ZM390.411 596.509L390.586 596.33L390.411 596.509ZM390.481 601.577L390.66 601.751L390.481 601.577ZM377.987 614.42L377.808 614.246L377.987 614.42ZM393.469 634.481L393.643 634.302L393.469 634.481ZM380.625 621.987L380.451 622.166L380.625 621.987ZM380.555 616.919L380.376 616.745L380.555 616.919ZM393.05 604.076L393.229 604.25L393.05 604.076ZM398.117 604.006L398.292 603.827L398.117 604.006ZM410.961 616.5L410.787 616.679L410.961 616.5ZM411.031 621.568L411.21 621.742L411.031 621.568ZM398.536 634.411L398.357 634.237L398.536 634.411ZM352.928 635.04L352.754 635.219L352.928 635.04ZM340.085 622.546L340.259 622.367L340.085 622.546ZM339 620.026L338.75 620.03L339 620.026ZM340.015 617.478L339.836 617.304L340.015 617.478ZM352.509 604.635L352.688 604.809L352.509 604.635ZM355.029 603.55L355.025 603.3L355.029 603.55ZM357.577 604.565L357.751 604.386L357.577 604.565ZM370.42 617.059L370.246 617.238L370.42 617.059ZM371.505 619.578L371.755 619.575L371.505 619.578ZM370.49 622.127L370.669 622.301L370.49 622.127ZM357.996 634.97L357.817 634.796L357.996 634.97ZM355.477 636.055L355.48 636.305H355.48L355.477 636.055ZM373.478 655.031L373.652 654.852L373.478 655.031ZM360.634 642.536L360.46 642.716L360.634 642.536ZM360.565 637.469L360.385 637.295L360.565 637.469ZM373.059 624.625L373.238 624.8L373.059 624.625ZM378.126 624.555L377.952 624.735L378.126 624.555ZM390.97 637.05L391.144 636.871L390.97 637.05ZM391.04 642.117L391.219 642.292L391.04 642.117ZM378.546 654.961L378.366 654.787L378.546 654.961ZM379.796 594.932C379.892 594.833 379.89 594.674 379.791 594.578C379.692 594.482 379.533 594.484 379.437 594.583L379.796 594.932ZM370.923 594.7C370.824 594.604 370.665 594.606 370.569 594.705C370.473 594.804 370.475 594.962 370.574 595.059L370.923 594.7ZM347.116 619.664C346.978 619.666 346.867 619.78 346.869 619.918C346.871 620.056 346.985 620.166 347.123 620.164L347.116 619.664ZM363.39 619.94C363.528 619.938 363.638 619.825 363.636 619.687C363.634 619.549 363.521 619.438 363.383 619.44L363.39 619.94ZM371.481 635.241C371.382 635.145 371.224 635.147 371.128 635.246C371.032 635.345 371.034 635.503 371.133 635.599L371.481 635.241ZM380.123 644.345C380.222 644.442 380.381 644.439 380.477 644.34C380.573 644.241 380.571 644.083 380.472 643.987L380.123 644.345ZM355.39 611.665C355.388 611.527 355.275 611.417 355.137 611.419C354.999 611.421 354.888 611.534 354.89 611.672L355.39 611.665ZM391.472 614.691C391.373 614.595 391.215 614.597 391.119 614.696C391.022 614.795 391.024 614.953 391.123 615.05L391.472 614.691ZM400.114 623.796C400.213 623.892 400.371 623.89 400.467 623.791C400.564 623.692 400.562 623.534 400.463 623.437L400.114 623.796ZM373.094 614.311L360.25 601.817L359.901 602.175L372.745 614.669L373.094 614.311ZM360.25 601.817C359.616 601.2 359.253 600.357 359.241 599.473L358.741 599.48C358.755 600.497 359.173 601.466 359.901 602.175L360.25 601.817ZM359.241 599.473C359.229 598.589 359.569 597.736 360.185 597.103L359.827 596.754C359.118 597.483 358.727 598.463 358.741 599.48L359.241 599.473ZM360.185 597.103L372.679 584.259L372.321 583.91L359.827 596.754L360.185 597.103ZM372.679 584.259C373.296 583.625 374.139 583.263 375.023 583.25L375.016 582.75C373.999 582.764 373.03 583.182 372.321 583.91L372.679 584.259ZM375.023 583.25C375.907 583.238 376.76 583.578 377.393 584.194L377.742 583.836C377.013 583.127 376.033 582.736 375.016 582.75L375.023 583.25ZM377.393 584.194L390.237 596.688L390.586 596.33L377.742 583.836L377.393 584.194ZM390.237 596.688C390.871 597.305 391.234 598.148 391.246 599.032L391.746 599.025C391.732 598.008 391.314 597.039 390.586 596.33L390.237 596.688ZM391.246 599.032C391.258 599.916 390.918 600.769 390.302 601.402L390.66 601.751C391.369 601.022 391.76 600.042 391.746 599.025L391.246 599.032ZM390.302 601.402L377.808 614.246L378.166 614.595L390.66 601.751L390.302 601.402ZM377.808 614.246C377.191 614.88 376.348 615.243 375.464 615.255L375.471 615.755C376.488 615.741 377.457 615.323 378.166 614.595L377.808 614.246ZM375.464 615.255C374.58 615.267 373.727 614.928 373.094 614.311L372.745 614.669C373.474 615.378 374.454 615.769 375.471 615.755L375.464 615.255ZM393.643 634.302L380.8 621.808L380.451 622.166L393.295 634.66L393.643 634.302ZM380.8 621.808C380.166 621.191 379.803 620.348 379.791 619.464L379.291 619.471C379.305 620.488 379.722 621.457 380.451 622.166L380.8 621.808ZM379.791 619.464C379.779 618.58 380.118 617.727 380.735 617.094L380.376 616.745C379.667 617.474 379.277 618.454 379.291 619.471L379.791 619.464ZM380.735 617.094L393.229 604.25L392.871 603.901L380.376 616.745L380.735 617.094ZM393.229 604.25C393.845 603.616 394.688 603.253 395.573 603.241L395.566 602.741C394.549 602.755 393.58 603.173 392.871 603.901L393.229 604.25ZM395.573 603.241C396.457 603.229 397.309 603.569 397.943 604.185L398.292 603.827C397.563 603.118 396.582 602.727 395.566 602.741L395.573 603.241ZM397.943 604.185L410.787 616.679L411.135 616.321L398.292 603.827L397.943 604.185ZM410.787 616.679C411.42 617.296 411.783 618.139 411.795 619.023L412.295 619.016C412.281 617.999 411.864 617.03 411.135 616.321L410.787 616.679ZM411.795 619.023C411.808 619.907 411.468 620.76 410.852 621.393L411.21 621.742C411.919 621.013 412.309 620.033 412.295 619.016L411.795 619.023ZM410.852 621.393L398.357 634.237L398.716 634.586L411.21 621.742L410.852 621.393ZM398.357 634.237C397.741 634.871 396.898 635.234 396.014 635.246L396.021 635.746C397.037 635.732 398.007 635.314 398.716 634.586L398.357 634.237ZM396.014 635.246C395.13 635.258 394.277 634.918 393.643 634.302L393.295 634.66C394.023 635.369 395.004 635.76 396.021 635.746L396.014 635.246ZM353.103 634.861L340.259 622.367L339.91 622.725L352.754 635.219L353.103 634.861ZM340.259 622.367C339.625 621.75 339.263 620.907 339.25 620.023L338.75 620.03C338.764 621.047 339.182 622.016 339.91 622.725L340.259 622.367ZM339.25 620.023C339.238 619.139 339.578 618.286 340.194 617.652L339.836 617.304C339.127 618.033 338.736 619.013 338.75 620.03L339.25 620.023ZM340.194 617.652L352.688 604.809L352.33 604.46L339.836 617.304L340.194 617.652ZM352.688 604.809C353.305 604.175 354.148 603.812 355.032 603.8L355.025 603.3C354.008 603.314 353.039 603.731 352.33 604.46L352.688 604.809ZM355.032 603.8C355.916 603.788 356.769 604.127 357.402 604.744L357.751 604.386C357.022 603.677 356.042 603.286 355.025 603.3L355.032 603.8ZM357.402 604.744L370.246 617.238L370.595 616.88L357.751 604.386L357.402 604.744ZM370.246 617.238C370.88 617.855 371.243 618.698 371.255 619.582L371.755 619.575C371.741 618.558 371.323 617.589 370.595 616.88L370.246 617.238ZM371.255 619.582C371.267 620.466 370.928 621.319 370.311 621.952L370.669 622.301C371.378 621.572 371.769 620.592 371.755 619.575L371.255 619.582ZM370.311 621.952L357.817 634.796L358.175 635.145L370.669 622.301L370.311 621.952ZM357.817 634.796C357.2 635.43 356.357 635.792 355.473 635.805L355.48 636.305C356.497 636.291 357.466 635.873 358.175 635.145L357.817 634.796ZM355.473 635.805C354.589 635.817 353.736 635.477 353.103 634.861L352.754 635.219C353.483 635.928 354.463 636.319 355.48 636.305L355.473 635.805ZM373.652 654.852L360.809 642.357L360.46 642.716L373.304 655.21L373.652 654.852ZM360.809 642.357C360.175 641.741 359.812 640.898 359.8 640.014L359.3 640.021C359.314 641.037 359.731 642.007 360.46 642.716L360.809 642.357ZM359.8 640.014C359.788 639.13 360.127 638.277 360.744 637.643L360.385 637.295C359.676 638.023 359.286 639.004 359.3 640.021L359.8 640.014ZM360.744 637.643L373.238 624.8L372.88 624.451L360.385 637.295L360.744 637.643ZM373.238 624.8C373.855 624.166 374.698 623.803 375.582 623.791L375.575 623.291C374.558 623.305 373.589 623.722 372.88 624.451L373.238 624.8ZM375.582 623.791C376.466 623.779 377.318 624.118 377.952 624.735L378.301 624.376C377.572 623.667 376.591 623.277 375.575 623.291L375.582 623.791ZM377.952 624.735L390.796 637.229L391.144 636.871L378.301 624.376L377.952 624.735ZM390.796 637.229C391.429 637.845 391.792 638.688 391.805 639.573L392.304 639.566C392.29 638.549 391.873 637.58 391.144 636.871L390.796 637.229ZM391.805 639.573C391.817 640.457 391.477 641.309 390.861 641.943L391.219 642.292C391.928 641.563 392.318 640.582 392.304 639.566L391.805 639.573ZM390.861 641.943L378.366 654.787L378.725 655.135L391.219 642.292L390.861 641.943ZM378.366 654.787C377.75 655.42 376.907 655.783 376.023 655.795L376.03 656.295C377.046 656.281 378.016 655.864 378.725 655.135L378.366 654.787ZM376.023 655.795C375.139 655.808 374.286 655.468 373.652 654.852L373.304 655.21C374.033 655.919 375.013 656.309 376.03 656.295L376.023 655.795ZM379.437 594.583L370.691 603.573L371.05 603.922L379.796 594.932L379.437 594.583ZM370.574 595.059L379.564 603.805L379.913 603.446L370.923 594.7L370.574 595.059ZM347.123 620.164L363.39 619.94L363.383 619.44L347.116 619.664L347.123 620.164ZM371.133 635.599L380.123 644.345L380.472 643.987L371.481 635.241L371.133 635.599ZM354.89 611.672L355.115 627.939L355.615 627.932L355.39 611.665L354.89 611.672ZM391.123 615.05L400.114 623.796L400.463 623.437L391.472 614.691L391.123 615.05ZM378.461 638.629C378.039 639.062 377.347 639.072 376.914 638.651L376.565 639.009C377.196 639.623 378.205 639.609 378.819 638.978L378.461 638.629ZM376.914 638.651C376.481 638.229 376.471 637.537 376.893 637.104L376.534 636.755C375.92 637.386 375.934 638.395 376.565 639.009L376.914 638.651ZM376.893 637.104C377.314 636.671 378.006 636.661 378.439 637.083L378.788 636.724C378.157 636.11 377.148 636.124 376.534 636.755L376.893 637.104ZM378.439 637.083C378.872 637.504 378.882 638.196 378.461 638.629L378.819 638.978C379.433 638.347 379.419 637.338 378.788 636.724L378.439 637.083ZM374.712 642.482C374.291 642.916 373.598 642.925 373.165 642.504L372.817 642.862C373.448 643.476 374.457 643.462 375.071 642.831L374.712 642.482ZM373.165 642.504C372.732 642.083 372.723 641.39 373.144 640.957L372.786 640.608C372.172 641.239 372.186 642.248 372.817 642.862L373.165 642.504ZM373.144 640.957C373.565 640.524 374.258 640.514 374.691 640.936L375.039 640.577C374.409 639.963 373.399 639.977 372.786 640.608L373.144 640.957ZM374.691 640.936C375.124 641.357 375.133 642.049 374.712 642.482L375.071 642.831C375.684 642.2 375.67 641.191 375.039 640.577L374.691 640.936Z" fill="black" fill-opacity="0.1"/>
        <path d="M54.7301 442.596L40.5734 434.043M54.7301 442.596L56.3096 432.991C56.3766 432.583 56.32 432.165 56.1469 431.79C55.9738 431.414 55.6923 431.1 55.3386 430.886L45.9192 425.195L40.5734 434.043M54.7301 442.596L46.1768 456.753C45.8932 457.222 45.4348 457.559 44.9025 457.691C44.3701 457.822 43.8074 457.737 43.338 457.453L38.9141 454.78M40.5734 434.043L33.7288 445.371L48.0575 421.656L14.4355 401.342C13.9661 401.058 13.4034 400.973 12.871 401.104C12.3387 401.235 11.8803 401.573 11.5967 402.042L-3.37152 426.816C-3.65508 427.286 -3.74058 427.848 -3.60923 428.381C-3.47787 428.913 -3.14042 429.371 -2.67109 429.655L1.75286 432.328M1.97429 417.968L37.3659 439.351M38.9141 454.78C37.1426 457.712 33.3298 458.653 30.3979 456.881C27.4659 455.11 26.5252 451.297 28.2966 448.365M38.9141 454.78C40.6855 451.848 39.7448 448.035 36.8128 446.264C33.8809 444.493 30.068 445.433 28.2966 448.365M28.2966 448.365L12.3704 438.743M12.3704 438.743C10.5989 441.675 6.78607 442.616 3.85413 440.844C0.922186 439.073 -0.0185816 435.26 1.75286 432.328M12.3704 438.743C14.1418 435.811 13.201 431.998 10.2691 430.227C7.33715 428.455 3.5243 429.396 1.75286 432.328" stroke="black" stroke-opacity="0.1" stroke-width="0.5" stroke-linecap="round" stroke-linejoin="round"/>
        <path d="M363.017 742.524C362.833 737.37 365.382 732.364 370.013 729.683C371.471 728.848 373.073 728.287 374.735 728.021C374.775 728.011 374.815 728.005 374.855 728V728.002V728.004C375.064 727.996 375.27 728.05 375.447 728.161C375.623 728.272 375.762 728.433 375.846 728.624C378.796 735.364 376.323 743.221 370.071 746.839C370.07 746.839 370.068 746.839 370.067 746.839C368.744 747.592 367.305 748.123 365.81 748.41H364.776M363.017 742.524C361.759 740.894 360.144 739.573 358.297 738.663C356.449 737.753 354.418 737.278 352.359 737.275C352.358 737.275 352.356 737.275 352.355 737.275C350.755 737.275 349.171 737.575 347.672 738.139C347.456 738.219 347.274 738.37 347.153 738.565C347.033 738.761 346.981 738.992 347.006 739.22C347.779 746.113 353.57 751.342 360.451 751.348C360.452 751.348 360.454 751.348 360.455 751.348C361.565 751.348 362.67 751.195 363.743 750.92L364.776 750.647M363.017 742.524C363.736 743.949 364.112 744.955 364.37 746.062M351.528 771.13H350.502H350.494H349.719C348.834 771.13 348.168 770.617 348.168 769.734V764.725C348.172 764.295 348.345 763.885 348.648 763.581C348.951 763.276 349.362 763.103 349.791 763.098H363.743L364.776 763.099M351.528 771.13L353.854 793.097H375.562L378.147 771.13M351.528 771.13H378.147M378.147 771.13H378.955H378.922H379.625C380.51 771.13 381.248 770.617 381.248 769.734V764.727C381.244 764.297 381.071 763.887 380.768 763.583C380.465 763.278 380.054 763.105 379.625 763.1H365.81L364.776 763.099M364.776 763.099V759.986M364.776 748.41C364.786 748.911 364.791 749.286 364.79 749.68M364.776 748.41C364.65 747.5 364.533 746.761 364.37 746.062M364.776 750.647V756.873M364.776 750.647C364.785 750.275 364.789 749.972 364.79 749.68M364.776 756.873C365.013 755.755 365.201 755.163 365.81 754.282C366.694 753.149 367.824 752.233 369.116 751.603C370.407 750.973 371.825 750.647 373.261 750.647C373.263 750.647 373.264 750.647 373.265 750.647C374.377 750.65 375.48 750.849 376.524 751.232C376.742 751.312 376.927 751.463 377.049 751.661C377.171 751.858 377.222 752.091 377.196 752.322C376.652 757.038 372.61 760.608 367.83 760.608C367.829 760.608 367.827 760.608 367.826 760.608C367.146 760.606 366.472 760.505 365.81 760.358C365.406 760.213 365.18 760.131 364.776 759.986M364.776 756.873V758.429M364.776 759.986V758.429M364.79 749.68L354.371 743.219M364.37 746.062L371.944 735.983M364.776 758.429L371.944 754.848" stroke="black" stroke-opacity="0.1" stroke-width="0.5"/>
        <path d="M232.405 647.395H235.643C237.614 647.395 239.219 649 239.219 650.971C239.219 652.942 237.614 654.546 235.643 654.546H234.718L234.09 657.194L232.425 659.517M232.405 647.395C231.697 643.254 228.742 638 224.918 638C221.088 638 218.128 643.254 217.418 647.395H215.478C214.771 643.254 211.816 638 207.992 638C204.161 638 201.201 643.254 200.492 647.395H198.565C197.856 643.254 194.896 638 191.065 638C187.235 638 184.275 643.254 183.566 647.395M232.405 647.395H183.566M183.566 647.395H180.575C178.604 647.395 177 649 177 650.971C177 652.942 178.604 654.546 180.575 654.546H181.501L183.79 664.215C184.143 665.698 185.453 666.734 186.976 666.734C187.191 666.734 185.191 666.733 198.106 666.737C198.943 666.737 199.248 666.065 199.594 665.556C200.995 667.425 199.159 666.527 214.876 666.734C214.904 666.734 214.927 666.72 214.954 666.718C215.897 666.665 216.316 665.592 216.659 665.289C218.535 667.552 217.142 666.425 224.536 666.731L227.223 666.737M229.719 647.395H220.104M212.792 647.395H203.178M195.879 647.395H186.252M232.425 659.517C235.124 659.517 237.867 665.382 237.867 668.659C237.867 671.659 235.425 674.1 232.425 674.1C229.424 674.1 226.984 671.659 226.984 668.659C226.984 668.083 227.068 667.427 227.223 666.737M232.425 659.517C230.201 659.517 227.946 663.501 227.223 666.737" stroke="black" stroke-opacity="0.1" stroke-width="0.5"/>
        <path d="M237.515 258.856H242.273C244.797 258.856 247.218 257.858 249.002 256.08C250.787 254.303 251.79 251.893 251.79 249.38V240.069M270.823 240.069V249.38C270.823 251.893 271.826 254.303 273.61 256.08C275.395 257.858 277.815 258.856 280.339 258.856H284.912M261.306 258.856V240.069M277.96 216.212H277.913C277.663 212.988 276.399 209.925 274.303 207.455C272.206 204.986 269.381 203.237 266.23 202.456C263.079 201.675 259.761 201.901 256.746 203.103C253.732 204.305 251.174 206.422 249.435 209.152C245.45 208.903 241.522 210.198 238.474 212.766C235.427 215.335 233.494 218.978 233.083 222.933C232.671 226.887 233.811 230.847 236.264 233.984C238.718 237.121 242.295 239.191 246.247 239.761C246.497 239.858 246.763 239.906 247.032 239.903H277.96C281.115 239.903 284.141 238.655 286.372 236.434C288.603 234.212 289.856 231.199 289.856 228.058C289.856 224.916 288.603 221.903 286.372 219.682C284.141 217.46 281.115 216.212 277.96 216.212Z" stroke="black" stroke-opacity="0.1" stroke-width="0.5"/>
        <path d="M351.411 164.361L351.574 164.171L351.573 164.17L351.411 164.361ZM341.694 156.711L341.823 156.497L341.757 156.457L341.679 156.461L341.694 156.711ZM337.145 153.816L336.922 153.928L336.929 153.942L336.937 153.955L337.145 153.816ZM337.869 152.266L337.904 152.513L337.911 152.512L337.869 152.266ZM376.014 145.805L375.983 145.556L375.972 145.558L376.014 145.805ZM377.048 146.218L377.252 146.074L377.246 146.066L377.24 146.058L377.048 146.218ZM378.547 148.337L378.343 148.482L378.347 148.487L378.547 148.337ZM378.702 149.113L378.457 149.064L378.455 149.072L378.702 149.113ZM378.133 152.524L377.887 152.483L377.88 152.526L377.888 152.57L378.133 152.524ZM374.619 160.277V160.527H374.694L374.757 160.485L374.619 160.277ZM374.515 160.329V160.079H374.456L374.403 160.105L374.515 160.329ZM359.629 166.376L359.577 166.132L359.577 166.132L359.629 166.376ZM348.155 167.1L348.119 166.852L348.117 166.853L348.155 167.1ZM341.849 175.68L341.602 175.717L341.602 175.718L341.849 175.68ZM350.429 181.986L350.464 182.233L350.467 182.233L350.429 181.986ZM375.549 176.662H375.799L375.799 176.652L375.549 176.662ZM375.032 177.282L375.067 177.53L375.073 177.529L375.032 177.282ZM372.499 177.644L372.464 177.397L372.451 177.399L372.439 177.402L372.499 177.644ZM371.983 177.489L371.801 177.661L371.821 177.682L371.844 177.697L371.983 177.489ZM364.229 169.323L364.411 169.15L364.387 169.126L364.358 169.108L364.229 169.323ZM375.084 164.722L374.84 164.668L374.833 164.699L374.834 164.732L375.084 164.722ZM383.405 159.812L383.504 160.042L383.607 159.998L383.642 159.892L383.405 159.812ZM389.608 141.463L389.48 141.249L389.401 141.296L389.371 141.383L389.608 141.463ZM395.525 138.215C395.644 138.144 395.682 137.99 395.611 137.872C395.541 137.753 395.387 137.715 395.269 137.785L395.525 138.215ZM348.159 174.675C348.033 174.729 347.974 174.877 348.028 175.003C348.083 175.13 348.23 175.189 348.357 175.134L348.159 174.675ZM375.415 163.243L375.317 163.013L375.415 163.243ZM357.51 166.385C354.039 166.385 351.928 164.474 351.574 164.171L351.248 164.55C351.618 164.867 353.849 166.885 357.51 166.885V166.385ZM351.573 164.17C350.512 163.264 348.572 161.647 346.651 160.108C344.735 158.573 342.822 157.102 341.823 156.497L341.564 156.925C342.53 157.509 344.416 158.958 346.338 160.498C348.255 162.034 350.191 163.648 351.249 164.551L351.573 164.17ZM341.679 156.461C340.432 156.533 339.385 155.898 338.619 155.196C337.857 154.496 337.407 153.758 337.353 153.678L336.937 153.955C336.987 154.029 337.468 154.817 338.281 155.564C339.093 156.309 340.268 157.044 341.708 156.96L341.679 156.461ZM337.369 153.705C337.235 153.437 337.209 153.162 337.317 152.946L336.87 152.722C336.668 153.127 336.745 153.575 336.922 153.928L337.369 153.705ZM337.317 152.946C337.439 152.703 337.631 152.552 337.904 152.513L337.834 152.018C337.384 152.082 337.059 152.345 336.87 152.722L337.317 152.946ZM337.911 152.512L376.056 146.051L375.972 145.558L337.827 152.019L337.911 152.512ZM376.045 146.053C376.37 146.012 376.649 146.13 376.856 146.378L377.24 146.058C376.93 145.686 376.485 145.494 375.983 145.557L376.045 146.053ZM376.844 146.363L378.343 148.482L378.751 148.193L377.252 146.074L376.844 146.363ZM378.347 148.487C378.452 148.628 378.497 148.862 378.457 149.064L378.947 149.162C379.01 148.847 378.952 148.461 378.747 148.187L378.347 148.487ZM378.455 149.072L377.887 152.483L378.38 152.565L378.949 149.154L378.455 149.072ZM377.888 152.57C378.311 154.859 377.504 156.703 376.562 157.998C375.617 159.296 374.545 160.026 374.48 160.069L374.757 160.485C374.847 160.425 375.972 159.656 376.966 158.292C377.961 156.925 378.835 154.944 378.379 152.479L377.888 152.57ZM374.619 160.027C374.591 160.027 374.562 160.031 374.534 160.039C374.506 160.047 374.481 160.058 374.459 160.071C374.421 160.094 374.393 160.123 374.39 160.126C374.38 160.136 374.395 160.12 374.417 160.106C374.431 160.099 374.447 160.091 374.465 160.086C374.483 160.081 374.5 160.079 374.515 160.079V160.579C374.543 160.579 374.571 160.575 374.6 160.567C374.628 160.559 374.653 160.548 374.675 160.535C374.713 160.512 374.741 160.483 374.744 160.48C374.753 160.47 374.739 160.486 374.717 160.5C374.703 160.508 374.687 160.515 374.669 160.52C374.651 160.525 374.633 160.527 374.619 160.527V160.027ZM374.403 160.105C374.199 160.207 371.632 161.472 368.541 162.833C365.444 164.198 361.848 165.647 359.577 166.132L359.681 166.621C362.01 166.124 365.651 164.653 368.743 163.291C371.842 161.925 374.418 160.657 374.627 160.553L374.403 160.105ZM359.577 166.132C358.863 166.285 358.158 166.385 357.51 166.385V166.885C358.206 166.885 358.948 166.778 359.682 166.621L359.577 166.132ZM355.326 169.629C353.885 167.869 351.697 166.747 349.292 166.747V167.247C351.539 167.247 353.588 168.295 354.939 169.946L355.326 169.629ZM349.292 166.747C348.911 166.747 348.481 166.801 348.119 166.852L348.19 167.347C348.552 167.296 348.95 167.247 349.292 167.247V166.747ZM348.117 166.853C343.897 167.494 340.961 171.446 341.602 175.717L342.096 175.643C341.496 171.644 344.245 167.947 348.192 167.347L348.117 166.853ZM341.602 175.718C342.189 179.509 345.498 182.339 349.292 182.339V181.839C345.746 181.839 342.646 179.19 342.096 175.642L341.602 175.718ZM349.292 182.339C349.673 182.339 350.102 182.285 350.464 182.233L350.394 181.738C350.032 181.79 349.634 181.839 349.292 181.839V182.339ZM350.467 182.233C354.63 181.592 357.569 177.749 357.034 173.581L356.539 173.644C357.038 177.539 354.291 181.139 350.391 181.739L350.467 182.233ZM375.299 176.662C375.299 176.856 375.175 177.005 374.991 177.036L375.073 177.529C375.51 177.456 375.799 177.088 375.799 176.662H375.299ZM374.997 177.035L372.464 177.397L372.535 177.892L375.067 177.53L374.997 177.035ZM372.439 177.402C372.354 177.423 372.29 177.393 372.121 177.281L371.844 177.697C371.986 177.792 372.231 177.969 372.56 177.887L372.439 177.402ZM372.164 177.317L364.411 169.15L364.048 169.495L371.801 177.661L372.164 177.317ZM374.834 164.732L375.299 176.672L375.799 176.652L375.334 164.713L374.834 164.732ZM383.642 159.892L389.845 141.543L389.371 141.383L383.169 159.732L383.642 159.892ZM389.736 141.678L395.525 138.215L395.269 137.785L389.48 141.249L389.736 141.678ZM348.357 175.134L363.088 168.809L362.89 168.349L348.159 174.675L348.357 175.134ZM364.358 169.108L363.117 168.365L362.86 168.794L364.101 169.537L364.358 169.108ZM363.088 168.809L375.514 163.473L375.317 163.013L362.89 168.349L363.088 168.809ZM375.514 163.473L383.504 160.042L383.307 159.582L375.317 163.013L375.514 163.473ZM375.328 164.777L375.659 163.298L375.171 163.188L374.84 164.668L375.328 164.777Z" fill="black" fill-opacity="0.1"/>
        <path d="M28.1552 268.644L28.1145 268.678M38.5968 286.046L61.7631 302.745C63.7338 304.165 66.5707 303.964 67.9761 302.014L82.1736 282.318C83.579 280.368 83.0768 277.33 81.1061 275.91L57.9398 259.211C55.9691 257.791 53.1798 258.456 51.7744 260.406L37.5769 280.102C36.1715 282.052 36.6261 284.626 38.5968 286.046ZM38.3839 272.353L44.8517 263.38L38.6137 250.378L24.1064 270.504L38.3839 272.353Z" stroke="black" stroke-opacity="0.1" stroke-width="0.5"/>
    </g>
    <defs>
        <clipPath id="clip0_2044_11558">
            <rect width="463" height="824" fill="white" transform="translate(-15)"/>
        </clipPath>
    </defs>
</svg>
